<?xml version="1.0" encoding="iso-8859-1"?>
<!-- Generator: Adobe Illustrator 18.0.0, SVG Export Plug-In . SVG Version: 6.00 Build 0)  -->
<!DOCTYPE svg PUBLIC "-//W3C//DTD SVG 1.1//EN" "http://www.w3.org/Graphics/SVG/1.1/DTD/svg11.dtd">
<svg version="1.1" xmlns="http://www.w3.org/2000/svg" xmlns:xlink="http://www.w3.org/1999/xlink" x="0px" y="0px"
	 viewBox="0 0 1200 3404.104" style="enable-background:new 0 0 1200 3404.104;" xml:space="preserve">
<g id="_x30_1_x5F_snow_x5F_small3">
	<path style="fill:#FFFFFF;" d="M731.035,2459.68c0-0.168-0.139-0.305-0.306-0.305c-0.171,0-0.307,0.137-0.307,0.305
		c0,0.17,0.136,0.306,0.307,0.306C730.896,2459.985,731.035,2459.85,731.035,2459.68"/>
	<path style="fill:#FFFFFF;" d="M363.389,2519.402c0-0.811-0.658-1.467-1.47-1.467c-0.812,0-1.468,0.656-1.468,1.467
		c0,0.812,0.656,1.471,1.468,1.471C362.731,2520.873,363.389,2520.214,363.389,2519.402"/>
	<path style="fill:#FFFFFF;" d="M1091.297,3018.649c0-0.976-0.79-1.767-1.767-1.767c-0.974,0-1.768,0.791-1.768,1.767
		s0.794,1.768,1.768,1.768C1090.507,3020.417,1091.297,3019.625,1091.297,3018.649"/>
	<path style="fill:#FFFFFF;" d="M1002.327,2850.694c0-0.926-0.749-1.678-1.675-1.678c-0.927,0-1.679,0.752-1.679,1.678
		c0,0.922,0.752,1.676,1.679,1.676C1001.578,2852.37,1002.327,2851.616,1002.327,2850.694"/>
	<path style="fill:#FFFFFF;" d="M412.454,2801.546c0-0.73-0.595-1.322-1.325-1.322c-0.731,0-1.322,0.592-1.322,1.322
		s0.591,1.322,1.322,1.322C411.859,2802.868,412.454,2802.276,412.454,2801.546"/>
	<path style="fill:#FFFFFF;" d="M410.062,2969.652c0-1.104-0.897-1.998-1.999-1.998c-1.103,0-1.997,0.894-1.997,1.998
		s0.895,1.999,1.997,1.999C409.166,2971.651,410.062,2970.757,410.062,2969.652"/>
	<path style="fill:#FFFFFF;" d="M248.941,1500.027c0-0.689-0.56-1.247-1.246-1.247c-0.689,0-1.248,0.558-1.248,1.247
		c0,0.688,0.559,1.245,1.248,1.245C248.381,1501.273,248.941,1500.715,248.941,1500.027"/>
	<path style="fill:#FFFFFF;" d="M770.996,2618.019c0-0.926-0.75-1.678-1.676-1.678c-0.926,0-1.678,0.752-1.678,1.678
		c0,0.922,0.752,1.676,1.678,1.676C770.246,2619.694,770.996,2618.94,770.996,2618.019"/>
	<path style="fill:#FFFFFF;" d="M781.516,1530.564c0-0.467-0.379-0.846-0.846-0.846c-0.469,0-0.846,0.379-0.846,0.846
		c0,0.465,0.377,0.842,0.846,0.842C781.137,1531.405,781.516,1531.028,781.516,1530.564"/>
	<path style="fill:#FFFFFF;" d="M76.428,1539.211c0-0.976-0.787-1.764-1.762-1.764c-0.973,0-1.762,0.788-1.762,1.764
		c0,0.972,0.789,1.76,1.762,1.76C75.641,1540.971,76.428,1540.183,76.428,1539.211"/>
	<path style="fill:#FFFFFF;" d="M128.759,2416.426c0-1.219-0.986-2.205-2.205-2.205c-1.218,0-2.204,0.986-2.204,2.205
		s0.986,2.205,2.204,2.205C127.772,2418.631,128.759,2417.645,128.759,2416.426"/>
	<path style="fill:#FFFFFF;" d="M346.17,2371.002c0-0.73-0.595-1.322-1.325-1.322c-0.731,0-1.322,0.592-1.322,1.322
		s0.591,1.322,1.322,1.322C345.575,2372.324,346.17,2371.732,346.17,2371.002"/>
	<path style="fill:#FFFFFF;" d="M424.649,679.454c0-0.976-0.787-1.764-1.762-1.764c-0.973,0-1.762,0.788-1.762,1.764
		c0,0.972,0.789,1.76,1.762,1.76C423.862,681.214,424.649,680.425,424.649,679.454"/>
	<path style="fill:#FFFFFF;" d="M142.502,809.992c0-1.219-0.986-2.205-2.205-2.205c-1.218,0-2.204,0.986-2.204,2.205
		c0,1.219,0.986,2.205,2.204,2.205C141.516,812.197,142.502,811.211,142.502,809.992"/>
	<path style="fill:#FFFFFF;" d="M462.676,1167.907c0-0.689-0.56-1.247-1.246-1.247c-0.688,0-1.248,0.558-1.248,1.247
		c0,0.688,0.56,1.245,1.248,1.245C462.117,1169.152,462.676,1168.595,462.676,1167.907"/>
	<path style="fill:#FFFFFF;" d="M892.969,1169.34c0-0.926-0.75-1.678-1.676-1.678c-0.926,0-1.678,0.752-1.678,1.678
		c0,0.922,0.752,1.676,1.678,1.676C892.219,1171.016,892.969,1170.262,892.969,1169.34"/>
	<path style="fill:#FFFFFF;" d="M601.509,1175.83c0-1.368-1.111-2.477-2.479-2.477c-1.369,0-2.479,1.108-2.479,2.477
		c0,1.368,1.109,2.476,2.479,2.476C600.397,1178.307,601.509,1177.198,601.509,1175.83"/>
	<path style="fill:#FFFFFF;" d="M610.899,1285.698c0-0.617-0.502-1.121-1.121-1.121c-0.619,0-1.121,0.504-1.121,1.121
		c0,0.619,0.502,1.123,1.121,1.123C610.397,1286.821,610.899,1286.318,610.899,1285.698"/>
	<path style="fill:#FFFFFF;" d="M564.841,1387.163c0-0.73-0.595-1.322-1.325-1.322c-0.731,0-1.322,0.592-1.322,1.322
		c0,0.73,0.591,1.322,1.322,1.322C564.247,1388.485,564.841,1387.894,564.841,1387.163"/>
	<path style="fill:#FFFFFF;" d="M126.845,1280.493c0-0.617-0.502-1.121-1.121-1.121c-0.619,0-1.121,0.504-1.121,1.121
		c0,0.619,0.502,1.123,1.121,1.123C126.343,1281.616,126.845,1281.112,126.845,1280.493"/>
	<path style="fill:#FFFFFF;" d="M528.919,1340.314c0-0.617-0.502-1.121-1.121-1.121c-0.619,0-1.121,0.504-1.121,1.121
		c0,0.619,0.502,1.123,1.121,1.123C528.417,1341.438,528.919,1340.934,528.919,1340.314"/>
	<path style="fill:#FFFFFF;" d="M907.582,1377.994c0-0.617-0.502-1.121-1.121-1.121c-0.619,0-1.121,0.504-1.121,1.121
		c0,0.619,0.502,1.123,1.121,1.123C907.08,1379.117,907.582,1378.613,907.582,1377.994"/>
	<path style="fill:#FFFFFF;" d="M892.898,1213.86c0-1.368-1.111-2.476-2.479-2.476c-1.369,0-2.477,1.108-2.477,2.476
		c0,1.368,1.108,2.477,2.477,2.477C891.787,1216.337,892.898,1215.229,892.898,1213.86"/>
	<path style="fill:#FFFFFF;" d="M952.385,1309.969c0-0.617-0.502-1.121-1.121-1.121c-0.619,0-1.121,0.504-1.121,1.121
		c0,0.619,0.502,1.123,1.121,1.123C951.883,1311.092,952.385,1310.588,952.385,1309.969"/>
	<path style="fill:#FFFFFF;" d="M1056.635,2126.844c0-0.467-0.379-0.846-0.846-0.846c-0.469,0-0.846,0.379-0.846,0.846
		c0,0.465,0.377,0.842,0.846,0.842C1056.256,2127.686,1056.635,2127.309,1056.635,2126.844"/>
	<path style="fill:#FFFFFF;" d="M610.899,2011.989c0-0.617-0.502-1.121-1.121-1.121c-0.619,0-1.121,0.504-1.121,1.121
		c0,0.619,0.502,1.123,1.121,1.123C610.397,2013.113,610.899,2012.609,610.899,2011.989"/>
	<path style="fill:#FFFFFF;" d="M987.117,2164.722c0-0.467-0.379-0.846-0.846-0.846c-0.469,0-0.846,0.379-0.846,0.846
		c0,0.465,0.377,0.842,0.846,0.842C986.738,2165.564,987.117,2165.187,987.117,2164.722"/>
	<path style="fill:#FFFFFF;" d="M340.212,2019.708c0-0.731-0.595-1.322-1.325-1.322c-0.731,0-1.322,0.592-1.322,1.322
		c0,0.73,0.591,1.322,1.322,1.322C339.618,2021.03,340.212,2020.439,340.212,2019.708"/>
	<path style="fill:#FFFFFF;" d="M938.317,1966.326c0-0.617-0.502-1.121-1.121-1.121c-0.619,0-1.121,0.504-1.121,1.121
		c0,0.619,0.502,1.123,1.121,1.123C937.815,1967.449,938.317,1966.946,938.317,1966.326"/>
	<path style="fill:#FFFFFF;" d="M1130.568,2073.784c0-0.617-0.502-1.121-1.121-1.121s-1.121,0.504-1.121,1.121
		c0,0.619,0.502,1.123,1.121,1.123S1130.568,2074.404,1130.568,2073.784"/>
	<path style="fill:#FFFFFF;" d="M1034.365,1981.644c0-0.617-0.502-1.121-1.121-1.121s-1.121,0.504-1.121,1.121
		c0,0.619,0.502,1.123,1.121,1.123S1034.365,1982.263,1034.365,1981.644"/>
	<path style="fill:#FFFFFF;" d="M399.288,1011.83c0-0.617-0.502-1.121-1.121-1.121s-1.121,0.504-1.121,1.121
		c0,0.619,0.502,1.123,1.121,1.123S399.288,1012.449,399.288,1011.83"/>
	<path style="fill:#FFFFFF;" d="M268.81,583.619c0-1.368-1.111-2.477-2.479-2.477c-1.369,0-2.478,1.108-2.478,2.477
		c0,1.368,1.108,2.477,2.478,2.477C267.699,586.096,268.81,584.987,268.81,583.619"/>
	<path style="fill:#FFFFFF;" d="M642.274,961.329c0-0.617-0.502-1.121-1.121-1.121c-0.619,0-1.121,0.504-1.121,1.121
		c0,0.619,0.502,1.123,1.121,1.123C641.772,962.452,642.274,961.948,642.274,961.329"/>
	<path style="fill:#FFFFFF;" d="M580.245,894.242c0-0.976-0.787-1.764-1.762-1.764c-0.973,0-1.762,0.788-1.762,1.764
		c0,0.972,0.789,1.76,1.762,1.76C579.458,896.002,580.245,895.214,580.245,894.242"/>
	<path style="fill:#FFFFFF;" d="M377.85,1137.279c0-1.219-0.986-2.205-2.205-2.205c-1.218,0-2.204,0.986-2.204,2.205
		c0,1.219,0.986,2.205,2.204,2.205C376.864,1139.484,377.85,1138.498,377.85,1137.279"/>
	<path style="fill:#FFFFFF;" d="M968.946,989.754c0-0.467-0.379-0.846-0.846-0.846c-0.469,0-0.846,0.379-0.846,0.846
		c0,0.465,0.377,0.842,0.846,0.842C968.567,990.596,968.946,990.219,968.946,989.754"/>
	<path style="fill:#FFFFFF;" d="M348.535,743.272c0-0.976-0.787-1.764-1.762-1.764c-0.973,0-1.762,0.788-1.762,1.764
		c0,0.972,0.789,1.76,1.762,1.76C347.748,745.031,348.535,744.243,348.535,743.272"/>
	<path style="fill:#FFFFFF;" d="M440.64,1020.004c0-0.617-0.502-1.121-1.121-1.121c-0.619,0-1.121,0.504-1.121,1.121
		c0,0.619,0.502,1.123,1.121,1.123C440.138,1021.127,440.64,1020.623,440.64,1020.004"/>
	<path style="fill:#FFFFFF;" d="M329.851,585.257c0-0.81-0.658-1.467-1.47-1.467c-0.811,0-1.468,0.656-1.468,1.467
		c0,0.812,0.656,1.471,1.468,1.471C329.193,586.728,329.851,586.068,329.851,585.257"/>
	<path style="fill:#FFFFFF;" d="M261.188,716.76c0-0.975-0.787-1.763-1.762-1.763c-0.973,0-1.762,0.788-1.762,1.763
		c0,0.972,0.789,1.76,1.762,1.76C260.4,718.52,261.188,717.732,261.188,716.76"/>
	<path style="fill:#FFFFFF;" d="M227.249,470.19c0-0.81-0.658-1.467-1.47-1.467c-0.812,0-1.468,0.656-1.468,1.467
		c0,0.812,0.656,1.471,1.468,1.471C226.591,471.661,227.249,471.002,227.249,470.19"/>
	<path style="fill:#FFFFFF;" d="M252.045,679.453c0-0.689-0.559-1.247-1.246-1.247c-0.688,0-1.248,0.557-1.248,1.247
		c0,0.688,0.56,1.245,1.248,1.245C251.485,680.698,252.045,680.14,252.045,679.453"/>
	<path style="fill:#FFFFFF;" d="M611.326,376.333c0-0.926-0.75-1.678-1.676-1.678s-1.678,0.752-1.678,1.678
		c0,0.922,0.752,1.676,1.678,1.676S611.326,377.254,611.326,376.333"/>
	<path style="fill:#FFFFFF;" d="M292.478,259.93c0-0.617-0.502-1.121-1.121-1.121c-0.619,0-1.121,0.504-1.121,1.121
		c0,0.619,0.502,1.123,1.121,1.123C291.977,261.053,292.478,260.549,292.478,259.93"/>
	<path style="fill:#FFFFFF;" d="M381.453,383.692c0-0.617-0.502-1.121-1.121-1.121c-0.619,0-1.121,0.504-1.121,1.121
		c0,0.619,0.502,1.123,1.121,1.123C380.951,384.815,381.453,384.312,381.453,383.692"/>
	<path style="fill:#FFFFFF;" d="M542.41,286.105c0-0.976-0.787-1.764-1.762-1.764c-0.973,0-1.762,0.788-1.762,1.764
		c0,0.972,0.789,1.76,1.762,1.76C541.623,287.864,542.41,287.076,542.41,286.105"/>
	<path style="fill:#FFFFFF;" d="M600.988,429.391c0-0.617-0.502-1.121-1.121-1.121c-0.619,0-1.121,0.504-1.121,1.121
		c0,0.619,0.502,1.123,1.121,1.123C600.486,430.514,600.988,430.01,600.988,429.391"/>
	<path style="fill:#FFFFFF;" d="M822.447,306.214c0-0.467-0.379-0.846-0.846-0.846c-0.469,0-0.846,0.379-0.846,0.846
		c0,0.465,0.377,0.842,0.846,0.842C822.068,307.056,822.447,306.679,822.447,306.214"/>
	<path style="fill:#FFFFFF;" d="M842.333,476.284c0-0.689-0.56-1.247-1.246-1.247c-0.688,0-1.248,0.558-1.248,1.247
		c0,0.688,0.56,1.245,1.248,1.245C841.773,477.529,842.333,476.972,842.333,476.284"/>
	<path style="fill:#FFFFFF;" d="M275.889,416.37c0-0.467-0.379-0.846-0.846-0.846c-0.469,0-0.846,0.379-0.846,0.846
		c0,0.465,0.377,0.842,0.846,0.842C275.51,417.211,275.889,416.835,275.889,416.37"/>
	<path style="fill:#FFFFFF;" d="M1131.967,382.764c0-0.168-0.139-0.305-0.307-0.305c-0.17,0-0.307,0.137-0.307,0.305
		c0,0.17,0.137,0.306,0.307,0.306C1131.828,383.069,1131.967,382.934,1131.967,382.764"/>
	<path style="fill:#FFFFFF;" d="M918.746,160.031c0-0.975-0.787-1.764-1.762-1.764c-0.973,0-1.762,0.788-1.762,1.764
		c0,0.972,0.789,1.76,1.762,1.76C917.959,161.791,918.746,161.003,918.746,160.031"/>
	<path style="fill:#FFFFFF;" d="M977.324,303.317c0-0.617-0.502-1.121-1.121-1.121c-0.619,0-1.121,0.504-1.121,1.121
		c0,0.619,0.502,1.123,1.121,1.123C976.822,304.44,977.324,303.937,977.324,303.317"/>
	<path style="fill:#FFFFFF;" d="M838.514,236.442c0-0.73-0.594-1.322-1.324-1.322c-0.732,0-1.322,0.592-1.322,1.322
		c0,0.73,0.59,1.322,1.322,1.322C837.92,237.765,838.514,237.173,838.514,236.442"/>
	<path style="fill:#FFFFFF;" d="M880.152,693.069c0-0.467-0.379-0.846-0.846-0.846c-0.469,0-0.846,0.379-0.846,0.846
		c0,0.465,0.377,0.842,0.846,0.842C879.773,693.911,880.152,693.534,880.152,693.069"/>
	<path style="fill:#FFFFFF;" d="M1058.854,614.717c0-0.146-0.113-0.264-0.26-0.264c-0.143,0-0.26,0.117-0.26,0.264
		c0,0.143,0.117,0.26,0.26,0.26C1058.74,614.977,1058.854,614.859,1058.854,614.717"/>
	<path style="fill:#FFFFFF;" d="M731.397,695.41c0-0.81-0.658-1.467-1.47-1.467c-0.811,0-1.468,0.656-1.468,1.467
		c0,0.812,0.656,1.471,1.468,1.471C730.739,696.881,731.397,696.222,731.397,695.41"/>
	<path style="fill:#FFFFFF;" d="M1042.072,639.588c0-0.147-0.113-0.264-0.26-0.264c-0.143,0-0.26,0.117-0.26,0.264
		c0,0.143,0.117,0.26,0.26,0.26C1041.959,639.848,1042.072,639.731,1042.072,639.588"/>
	<path style="fill:#FFFFFF;" d="M1033.273,663.264c0-0.168-0.139-0.305-0.307-0.305c-0.17,0-0.307,0.137-0.307,0.305
		c0,0.17,0.137,0.306,0.307,0.306C1033.135,663.569,1033.273,663.434,1033.273,663.264"/>
	<path style="fill:#FFFFFF;" d="M806.566,593.437c0-0.467-0.379-0.846-0.846-0.846c-0.469,0-0.846,0.379-0.846,0.846
		c0,0.465,0.377,0.842,0.846,0.842C806.188,594.279,806.566,593.902,806.566,593.437"/>
	<path style="fill:#FFFFFF;" d="M802.592,189.594c0-0.617-0.502-1.121-1.121-1.121c-0.619,0-1.121,0.504-1.121,1.121
		c0,0.619,0.502,1.123,1.121,1.123C802.09,190.717,802.592,190.213,802.592,189.594"/>
	<path style="fill:#FFFFFF;" d="M97.596,627.81c0-0.617-0.502-1.121-1.121-1.121c-0.619,0-1.121,0.504-1.121,1.121
		c0,0.619,0.502,1.123,1.121,1.123C97.094,628.933,97.596,628.429,97.596,627.81"/>
	<path style="fill:#FFFFFF;" d="M78.212,637.363c0-1.368-1.111-2.477-2.479-2.477c-1.369,0-2.478,1.108-2.478,2.477
		c0,1.368,1.108,2.477,2.478,2.477C77.101,639.839,78.212,638.731,78.212,637.363"/>
	<path style="fill:#FFFFFF;" d="M187.578,1919.656c0-0.617-0.502-1.121-1.121-1.121c-0.619,0-1.121,0.504-1.121,1.121
		c0,0.619,0.502,1.123,1.121,1.123C187.076,1920.78,187.578,1920.276,187.578,1919.656"/>
	<path style="fill:#FFFFFF;" d="M1128.606,1722.804c0-0.467-0.379-0.846-0.846-0.846c-0.469,0-0.846,0.379-0.846,0.846
		c0,0.465,0.377,0.842,0.846,0.842C1128.228,1723.646,1128.606,1723.269,1128.606,1722.804"/>
	<path style="fill:#FFFFFF;" d="M862.798,1641.96c0-0.168-0.139-0.305-0.307-0.305c-0.17,0-0.307,0.137-0.307,0.305
		c0,0.17,0.137,0.306,0.307,0.306C862.659,1642.266,862.798,1642.13,862.798,1641.96"/>
	<path style="fill:#FFFFFF;" d="M730.025,1584.333c0-0.146-0.113-0.264-0.26-0.264c-0.143,0-0.26,0.117-0.26,0.264
		c0,0.143,0.117,0.26,0.26,0.26C729.912,1584.593,730.025,1584.476,730.025,1584.333"/>
	<path style="fill:#FFFFFF;" d="M756.695,1697.554c0-0.926-0.75-1.678-1.676-1.678c-0.926,0-1.678,0.752-1.678,1.678
		c0,0.922,0.752,1.676,1.678,1.676C755.945,1699.23,756.695,1698.476,756.695,1697.554"/>
	<path style="fill:#FFFFFF;" d="M358.516,1590.914c0-0.168-0.139-0.305-0.307-0.305c-0.17,0-0.307,0.137-0.307,0.305
		c0,0.17,0.137,0.306,0.307,0.306C358.377,1591.22,358.516,1591.084,358.516,1590.914"/>
	<path style="fill:#FFFFFF;" d="M839.922,1734.319c0-0.146-0.113-0.264-0.26-0.264c-0.143,0-0.26,0.117-0.26,0.264
		c0,0.143,0.117,0.26,0.26,0.26C839.809,1734.578,839.922,1734.461,839.922,1734.319"/>
	<path style="fill:#FFFFFF;" d="M731.397,1774.207c0-0.81-0.658-1.467-1.47-1.467c-0.811,0-1.468,0.656-1.468,1.467
		c0,0.812,0.656,1.471,1.468,1.471C730.739,1775.678,731.397,1775.019,731.397,1774.207"/>
	<path style="fill:#FFFFFF;" d="M1033.273,1742.061c0-0.168-0.139-0.305-0.307-0.305c-0.17,0-0.307,0.137-0.307,0.305
		c0,0.17,0.137,0.306,0.307,0.306C1033.135,1742.366,1033.273,1742.231,1033.273,1742.061"/>
	<path style="fill:#FFFFFF;" d="M913.035,1642.24c0-0.617-0.502-1.121-1.121-1.121c-0.619,0-1.121,0.504-1.121,1.121
		c0,0.619,0.502,1.123,1.121,1.123C912.533,1643.362,913.035,1642.859,913.035,1642.24"/>
	<path style="fill:#FFFFFF;" d="M806.566,1672.234c0-0.467-0.379-0.846-0.846-0.846c-0.469,0-0.846,0.379-0.846,0.846
		c0,0.465,0.377,0.842,0.846,0.842C806.188,1673.076,806.566,1672.699,806.566,1672.234"/>
	<path style="fill:#FFFFFF;" d="M97.596,1706.607c0-0.617-0.502-1.121-1.121-1.121c-0.619,0-1.121,0.504-1.121,1.121
		c0,0.619,0.502,1.123,1.121,1.123C97.094,1707.73,97.596,1707.226,97.596,1706.607"/>
	<path style="fill:#FFFFFF;" d="M46.473,1696.462c0-0.976-0.787-1.764-1.762-1.764c-0.973,0-1.762,0.788-1.762,1.764
		c0,0.972,0.789,1.76,1.762,1.76C45.686,1698.222,46.473,1697.434,46.473,1696.462"/>
	<path style="fill:#FFFFFF;" d="M78.212,1716.16c0-1.368-1.111-2.477-2.479-2.477c-1.369,0-2.478,1.108-2.478,2.477
		c0,1.368,1.108,2.476,2.478,2.476C77.101,1718.636,78.212,1717.528,78.212,1716.16"/>
	<path style="fill:#FFFFFF;" d="M201.5,325.626c0-0.146-0.113-0.264-0.26-0.264c-0.142,0-0.26,0.117-0.26,0.264
		c0,0.143,0.117,0.26,0.26,0.26C201.387,325.885,201.5,325.768,201.5,325.626"/>
	<path style="fill:#FFFFFF;" d="M66.285,204.549c0-0.73-0.595-1.322-1.325-1.322c-0.731,0-1.322,0.592-1.322,1.322
		s0.591,1.322,1.322,1.322C65.69,205.872,66.285,205.28,66.285,204.549"/>
	<path style="fill:#FFFFFF;" d="M592.705,1606.456c0-0.168-0.139-0.305-0.307-0.305c-0.17,0-0.307,0.137-0.307,0.305
		c0,0.17,0.137,0.306,0.307,0.306C592.566,1606.762,592.705,1606.626,592.705,1606.456"/>
	<path style="fill:#FFFFFF;" d="M987.424,1585.132c0-0.168-0.139-0.305-0.307-0.305c-0.17,0-0.307,0.137-0.307,0.305
		c0,0.17,0.137,0.306,0.307,0.306C987.285,1585.438,987.424,1585.302,987.424,1585.132"/>
	<path style="fill:#FFFFFF;" d="M405.697,1540.76c0-0.146-0.113-0.264-0.26-0.264c-0.143,0-0.26,0.117-0.26,0.264
		c0,0.142,0.117,0.26,0.26,0.26C405.584,1541.02,405.697,1540.902,405.697,1540.76"/>
	<path style="fill:#FFFFFF;" d="M298.77,1964.068c0-0.73-0.595-1.322-1.325-1.322c-0.731,0-1.322,0.592-1.322,1.322
		c0,0.73,0.591,1.322,1.322,1.322C298.176,1965.39,298.77,1964.798,298.77,1964.068"/>
	<path style="fill:#FFFFFF;" d="M376.379,1963.197c0-0.168-0.139-0.305-0.307-0.305c-0.17,0-0.307,0.137-0.307,0.305
		c0,0.17,0.137,0.306,0.307,0.306C376.24,1963.503,376.379,1963.367,376.379,1963.197"/>
</g>
<g id="Ebene_1">
</g>
</svg>
