<?xml version="1.0" encoding="iso-8859-1"?>
<!-- Generator: Adobe Illustrator 18.0.0, SVG Export Plug-In . SVG Version: 6.00 Build 0)  -->
<!DOCTYPE svg PUBLIC "-//W3C//DTD SVG 1.1//EN" "http://www.w3.org/Graphics/SVG/1.1/DTD/svg11.dtd">
<svg version="1.1" xmlns="http://www.w3.org/2000/svg" xmlns:xlink="http://www.w3.org/1999/xlink" x="0px" y="0px"
	 viewBox="0 0 1200 1643.104" style="enable-background:new 0 0 1200 1643.104;" xml:space="preserve">
<g id="_x30_1snow_x5F_big1">
	<path style="fill:#FFFFFF;" d="M1077.539,544.582c0-2.953-2.395-5.35-5.348-5.35c-2.955,0-5.348,2.396-5.348,5.35
		c0,2.954,2.393,5.347,5.348,5.347C1075.145,549.929,1077.539,547.536,1077.539,544.582"/>
	<path style="fill:#FFFFFF;" d="M1150.848,468.284c0-2.953-2.395-5.35-5.348-5.35c-2.955,0-5.348,2.396-5.348,5.35
		c0,2.954,2.393,5.347,5.348,5.347C1148.453,473.631,1150.848,471.238,1150.848,468.284"/>
	<path style="fill:#FFFFFF;" d="M635.035,507.998c0-2.873-2.332-5.204-5.207-5.204c-2.873,0-5.205,2.331-5.205,5.204
		c0,2.876,2.332,5.206,5.205,5.206C632.703,513.204,635.035,510.874,635.035,507.998"/>
	<path style="fill:#FFFFFF;" d="M347.099,535.827c0-2.805-2.272-5.075-5.077-5.075c-2.805,0-5.073,2.271-5.073,5.075
		c0,2.805,2.269,5.076,5.073,5.076C344.827,540.903,347.099,538.632,347.099,535.827"/>
	<path style="fill:#FFFFFF;" d="M1044.762,451.231c0-2.953-2.395-5.35-5.348-5.35c-2.955,0-5.348,2.396-5.348,5.35
		c0,2.954,2.393,5.347,5.348,5.347C1042.367,456.578,1044.762,454.185,1044.762,451.231"/>
	<path style="fill:#FFFFFF;" d="M1152.119,388.778c0-2.873-2.33-5.204-5.207-5.204c-2.873,0-5.203,2.331-5.203,5.204
		c0,2.876,2.33,5.206,5.203,5.206C1149.789,393.984,1152.119,391.654,1152.119,388.778"/>
	<path style="fill:#FFFFFF;" d="M551.686,245.784c0-2.873-2.332-5.204-5.207-5.204c-2.873,0-5.205,2.331-5.205,5.204
		c0,2.876,2.332,5.206,5.205,5.206C549.354,250.99,551.686,248.66,551.686,245.784"/>
	<path style="fill:#FFFFFF;" d="M889.811,53.878c0-2.954-2.394-5.35-5.348-5.35c-2.955,0-5.348,2.396-5.348,5.35
		c0,2.954,2.393,5.346,5.348,5.346C887.417,59.224,889.811,56.832,889.811,53.878"/>
	<path style="fill:#FFFFFF;" d="M1105.309,112.538c0-2.996-2.424-5.421-5.414-5.421c-2.996,0-5.42,2.425-5.42,5.421
		c0,2.99,2.424,5.416,5.42,5.416C1102.885,117.954,1105.309,115.528,1105.309,112.538"/>
	<path style="fill:#FFFFFF;" d="M910.108,162.251c0-2.873-2.33-5.204-5.207-5.204c-2.873,0-5.203,2.331-5.203,5.204
		c0,2.876,2.33,5.206,5.203,5.206C907.778,167.457,910.108,165.127,910.108,162.251"/>
	<path style="fill:#FFFFFF;" d="M378.154,260.971c0-2.953-2.395-5.35-5.348-5.35c-2.955,0-5.348,2.396-5.348,5.35
		c0,2.954,2.393,5.347,5.348,5.347C375.759,266.318,378.154,263.925,378.154,260.971"/>
</g>
<g id="Ebene_1">
</g>
</svg>
