<?xml version="1.0" encoding="iso-8859-1"?>
<!-- Generator: Adobe Illustrator 18.0.0, SVG Export Plug-In . SVG Version: 6.00 Build 0)  -->
<!DOCTYPE svg PUBLIC "-//W3C//DTD SVG 1.1//EN" "http://www.w3.org/Graphics/SVG/1.1/DTD/svg11.dtd">
<svg version="1.1" xmlns="http://www.w3.org/2000/svg" xmlns:xlink="http://www.w3.org/1999/xlink" x="0px" y="0px"
	 viewBox="0 0 1200 1643.104" style="enable-background:new 0 0 1200 1643.104;" xml:space="preserve">
<g id="_x30_1snow_x5F_small1">
	<path style="fill:#FFFFFF;" d="M964.872,781.103c0-0.976-0.79-1.767-1.767-1.767c-0.974,0-1.768,0.791-1.768,1.767
		s0.794,1.768,1.768,1.768C964.082,782.871,964.872,782.079,964.872,781.103"/>
	<path style="fill:#FFFFFF;" d="M909.676,1162.355c0-0.976-0.787-1.764-1.762-1.764c-0.974,0-1.762,0.788-1.762,1.764
		c0,0.972,0.788,1.76,1.762,1.76C908.889,1164.115,909.676,1163.327,909.676,1162.355"/>
	<path style="fill:#FFFFFF;" d="M159.818,1054.407c0-1.219-0.986-2.205-2.205-2.205c-1.218,0-2.204,0.986-2.204,2.205
		c0,1.219,0.986,2.205,2.204,2.205C158.831,1056.612,159.818,1055.626,159.818,1054.407"/>
	<path style="fill:#FFFFFF;" d="M152.533,466.961c0-0.73-0.595-1.322-1.325-1.322c-0.731,0-1.322,0.592-1.322,1.322
		c0,0.73,0.591,1.322,1.322,1.322C151.938,468.283,152.533,467.691,152.533,466.961"/>
	<path style="fill:#FFFFFF;" d="M902.953,430.82c0-0.926-0.75-1.678-1.676-1.678c-0.926,0-1.678,0.752-1.678,1.678
		c0,0.922,0.752,1.676,1.678,1.676C902.203,432.496,902.953,431.742,902.953,430.82"/>
	<path style="fill:#FFFFFF;" d="M343.82,432.443c0-0.69-0.56-1.247-1.246-1.247c-0.688,0-1.248,0.558-1.248,1.247
		c0,0.688,0.56,1.245,1.248,1.245C343.26,433.688,343.82,433.131,343.82,432.443"/>
	<path style="fill:#FFFFFF;" d="M52.525,489.042c0-0.69-0.56-1.247-1.246-1.247c-0.688,0-1.248,0.558-1.248,1.247
		c0,0.688,0.56,1.245,1.248,1.245C51.966,490.287,52.525,489.729,52.525,489.042"/>
	<path style="fill:#FFFFFF;" d="M707.102,343.13c0-0.617-0.502-1.121-1.121-1.121c-0.619,0-1.121,0.504-1.121,1.121
		c0,0.619,0.502,1.123,1.121,1.123C706.601,344.253,707.102,343.749,707.102,343.13"/>
	<path style="fill:#FFFFFF;" d="M564.841,352.454c0-0.73-0.595-1.322-1.325-1.322c-0.731,0-1.322,0.592-1.322,1.322
		c0,0.73,0.591,1.322,1.322,1.322C564.247,353.776,564.841,353.185,564.841,352.454"/>
	<path style="fill:#FFFFFF;" d="M126.845,245.784c0-0.617-0.502-1.121-1.121-1.121c-0.619,0-1.121,0.504-1.121,1.121
		c0,0.619,0.502,1.123,1.121,1.123C126.343,246.907,126.845,246.403,126.845,245.784"/>
	<path style="fill:#FFFFFF;" d="M502.931,401.844c0-0.617-0.502-1.121-1.121-1.121c-0.619,0-1.121,0.504-1.121,1.121
		c0,0.619,0.502,1.123,1.121,1.123C502.429,402.967,502.931,402.463,502.931,401.844"/>
	<path style="fill:#FFFFFF;" d="M907.582,343.285c0-0.617-0.502-1.121-1.121-1.121c-0.619,0-1.121,0.504-1.121,1.121
		c0,0.619,0.502,1.123,1.121,1.123C907.08,344.408,907.582,343.904,907.582,343.285"/>
	<path style="fill:#FFFFFF;" d="M340.001,347.097c0-0.73-0.595-1.322-1.325-1.322c-0.731,0-1.322,0.592-1.322,1.322
		c0,0.73,0.591,1.322,1.322,1.322C339.406,348.419,340.001,347.827,340.001,347.097"/>
	<path style="fill:#FFFFFF;" d="M938.888,146.149c0-0.467-0.379-0.846-0.846-0.846c-0.469,0-0.846,0.379-0.846,0.846
		c0,0.465,0.377,0.842,0.846,0.842C938.509,146.991,938.888,146.614,938.888,146.149"/>
	<path style="fill:#FFFFFF;" d="M187.704,21.157c0-0.69-0.56-1.247-1.246-1.247c-0.688,0-1.248,0.558-1.248,1.247
		c0,0.688,0.559,1.245,1.248,1.245C187.145,22.402,187.704,21.844,187.704,21.157"/>
	<path style="fill:#FFFFFF;" d="M142.502,127.789c0-1.219-0.986-2.205-2.205-2.205c-1.218,0-2.204,0.986-2.204,2.205
		c0,1.219,0.986,2.205,2.204,2.205C141.516,129.994,142.502,129.008,142.502,127.789"/>
	<path style="fill:#FFFFFF;" d="M322.042,142.537c0-0.73-0.595-1.322-1.325-1.322c-0.731,0-1.322,0.592-1.322,1.322
		c0,0.73,0.591,1.322,1.322,1.322C321.447,143.859,322.042,143.268,322.042,142.537"/>
	<path style="fill:#FFFFFF;" d="M880.152,10.866c0-0.467-0.379-0.846-0.846-0.846c-0.469,0-0.846,0.379-0.846,0.846
		c0,0.465,0.377,0.842,0.846,0.842C879.773,11.708,880.152,11.331,880.152,10.866"/>
	<path style="fill:#FFFFFF;" d="M848.746,1.49c0-0.168-0.139-0.305-0.307-0.305c-0.17,0-0.307,0.137-0.307,0.305
		c0,0.17,0.137,0.306,0.307,0.306C848.607,1.796,848.746,1.66,848.746,1.49"/>
	<path style="fill:#FFFFFF;" d="M320.373,224.179c0-0.168-0.139-0.305-0.307-0.305c-0.17,0-0.307,0.137-0.307,0.305
		c0,0.17,0.137,0.306,0.307,0.306C320.235,224.485,320.373,224.349,320.373,224.179"/>
	<path style="fill:#FFFFFF;" d="M367.555,174.025c0-0.146-0.113-0.264-0.26-0.264c-0.143,0-0.26,0.117-0.26,0.264
		c0,0.143,0.117,0.26,0.26,0.26C367.442,174.285,367.555,174.167,367.555,174.025"/>
</g>
<g id="Ebene_1">
</g>
</svg>
