<?xml version="1.0" encoding="iso-8859-1"?>
<!-- Generator: Adobe Illustrator 18.0.0, SVG Export Plug-In . SVG Version: 6.00 Build 0)  -->
<!DOCTYPE svg PUBLIC "-//W3C//DTD SVG 1.1//EN" "http://www.w3.org/Graphics/SVG/1.1/DTD/svg11.dtd">
<svg version="1.1" xmlns="http://www.w3.org/2000/svg" xmlns:xlink="http://www.w3.org/1999/xlink" x="0px" y="0px"
	 viewBox="0 0 1200 1643.104" style="enable-background:new 0 0 1200 1643.104;" xml:space="preserve">
<g id="_x30_1snow_x5F_small3">
	<path style="fill:#FFFFFF;" d="M731.035,698.68c0-0.168-0.139-0.305-0.306-0.305c-0.171,0-0.307,0.137-0.307,0.305
		c0,0.17,0.136,0.306,0.307,0.306C730.896,698.985,731.035,698.85,731.035,698.68"/>
	<path style="fill:#FFFFFF;" d="M363.389,758.402c0-0.811-0.658-1.467-1.47-1.467c-0.812,0-1.468,0.656-1.468,1.467
		c0,0.812,0.656,1.471,1.468,1.471C362.731,759.873,363.389,759.214,363.389,758.402"/>
	<path style="fill:#FFFFFF;" d="M1091.297,1257.649c0-0.976-0.79-1.767-1.767-1.767c-0.974,0-1.768,0.791-1.768,1.767
		c0,0.976,0.794,1.768,1.768,1.768C1090.507,1259.417,1091.297,1258.625,1091.297,1257.649"/>
	<path style="fill:#FFFFFF;" d="M1002.327,1089.694c0-0.926-0.749-1.678-1.675-1.678c-0.927,0-1.679,0.752-1.679,1.678
		c0,0.922,0.752,1.676,1.679,1.676C1001.578,1091.37,1002.327,1090.616,1002.327,1089.694"/>
	<path style="fill:#FFFFFF;" d="M412.454,1040.546c0-0.731-0.595-1.322-1.325-1.322c-0.731,0-1.322,0.592-1.322,1.322
		c0,0.73,0.591,1.322,1.322,1.322C411.859,1041.868,412.454,1041.276,412.454,1040.546"/>
	<path style="fill:#FFFFFF;" d="M410.062,1208.652c0-1.104-0.897-1.998-1.999-1.998c-1.103,0-1.997,0.893-1.997,1.998
		s0.895,1.999,1.997,1.999C409.166,1210.651,410.062,1209.757,410.062,1208.652"/>
	<path style="fill:#FFFFFF;" d="M770.996,857.018c0-0.926-0.75-1.678-1.676-1.678c-0.926,0-1.678,0.752-1.678,1.678
		c0,0.922,0.752,1.676,1.678,1.676C770.246,858.694,770.996,857.94,770.996,857.018"/>
	<path style="fill:#FFFFFF;" d="M128.759,655.426c0-1.219-0.986-2.205-2.205-2.205c-1.218,0-2.204,0.986-2.204,2.205
		c0,1.219,0.986,2.205,2.204,2.205C127.772,657.631,128.759,656.644,128.759,655.426"/>
	<path style="fill:#FFFFFF;" d="M346.17,610.002c0-0.73-0.595-1.322-1.325-1.322c-0.731,0-1.322,0.592-1.322,1.322
		c0,0.731,0.591,1.322,1.322,1.322C345.575,611.324,346.17,610.732,346.17,610.002"/>
	<path style="fill:#FFFFFF;" d="M1056.635,365.844c0-0.467-0.379-0.846-0.846-0.846c-0.469,0-0.846,0.379-0.846,0.846
		c0,0.465,0.377,0.842,0.846,0.842C1056.256,366.686,1056.635,366.309,1056.635,365.844"/>
	<path style="fill:#FFFFFF;" d="M610.899,250.989c0-0.617-0.502-1.121-1.121-1.121c-0.619,0-1.121,0.504-1.121,1.121
		c0,0.619,0.502,1.123,1.121,1.123C610.397,252.112,610.899,251.609,610.899,250.989"/>
	<path style="fill:#FFFFFF;" d="M987.117,403.722c0-0.467-0.379-0.846-0.846-0.846c-0.469,0-0.846,0.379-0.846,0.846
		c0,0.465,0.377,0.842,0.846,0.842C986.738,404.564,987.117,404.187,987.117,403.722"/>
	<path style="fill:#FFFFFF;" d="M340.212,258.708c0-0.73-0.595-1.322-1.325-1.322c-0.731,0-1.322,0.592-1.322,1.322
		s0.591,1.322,1.322,1.322C339.618,260.03,340.212,259.439,340.212,258.708"/>
	<path style="fill:#FFFFFF;" d="M938.317,205.326c0-0.617-0.502-1.121-1.121-1.121c-0.619,0-1.121,0.504-1.121,1.121
		c0,0.619,0.502,1.123,1.121,1.123C937.815,206.449,938.317,205.945,938.317,205.326"/>
	<path style="fill:#FFFFFF;" d="M1130.568,312.784c0-0.617-0.502-1.121-1.121-1.121s-1.121,0.504-1.121,1.121
		c0,0.619,0.502,1.123,1.121,1.123S1130.568,313.403,1130.568,312.784"/>
	<path style="fill:#FFFFFF;" d="M1034.365,220.644c0-0.617-0.502-1.121-1.121-1.121s-1.121,0.504-1.121,1.121
		c0,0.619,0.502,1.123,1.121,1.123S1034.365,221.263,1034.365,220.644"/>
	<path style="fill:#FFFFFF;" d="M187.578,158.656c0-0.617-0.502-1.121-1.121-1.121c-0.619,0-1.121,0.504-1.121,1.121
		c0,0.619,0.502,1.123,1.121,1.123C187.076,159.779,187.578,159.275,187.578,158.656"/>
	<path style="fill:#FFFFFF;" d="M731.397,13.207c0-0.811-0.658-1.467-1.47-1.467c-0.811,0-1.468,0.656-1.468,1.467
		c0,0.812,0.656,1.471,1.468,1.471C730.739,14.678,731.397,14.019,731.397,13.207"/>
	<path style="fill:#FFFFFF;" d="M298.77,203.068c0-0.73-0.595-1.322-1.325-1.322c-0.731,0-1.322,0.592-1.322,1.322
		c0,0.73,0.591,1.322,1.322,1.322C298.176,204.39,298.77,203.798,298.77,203.068"/>
	<path style="fill:#FFFFFF;" d="M376.379,202.197c0-0.168-0.139-0.305-0.307-0.305c-0.17,0-0.307,0.137-0.307,0.305
		c0,0.17,0.137,0.306,0.307,0.306C376.24,202.502,376.379,202.367,376.379,202.197"/>
</g>
<g id="Ebene_1">
</g>
</svg>
