<?xml version="1.0" encoding="iso-8859-1"?>
<!-- Generator: Adobe Illustrator 18.0.0, SVG Export Plug-In . SVG Version: 6.00 Build 0)  -->
<!DOCTYPE svg PUBLIC "-//W3C//DTD SVG 1.1//EN" "http://www.w3.org/Graphics/SVG/1.1/DTD/svg11.dtd">
<svg version="1.1" xmlns="http://www.w3.org/2000/svg" xmlns:xlink="http://www.w3.org/1999/xlink" x="0px" y="0px"
	 viewBox="0 0 1200 3404.104" style="enable-background:new 0 0 1200 3404.104;" xml:space="preserve">
<g id="_x30_3_x5F_snow_x5F_big4">
	<path style="fill:#FFFFFF;" d="M1046.39,2805.703c0-2.873-2.331-5.204-5.207-5.204c-2.873,0-5.204,2.331-5.204,5.204
		c0,2.876,2.331,5.206,5.204,5.206C1044.059,2810.909,1046.39,2808.579,1046.39,2805.703"/>
	<path style="fill:#FFFFFF;" d="M1015.33,2406.722c0-2.873-2.33-5.204-5.207-5.204c-2.873,0-5.203,2.331-5.203,5.204
		c0,2.876,2.33,5.206,5.203,5.206C1013,2411.928,1015.33,2409.598,1015.33,2406.722"/>
	<path style="fill:#FFFFFF;" d="M889.811,736.081c0-2.954-2.394-5.35-5.348-5.35c-2.955,0-5.348,2.397-5.348,5.35
		c0,2.954,2.393,5.346,5.348,5.346C887.417,741.427,889.811,739.035,889.811,736.081"/>
	<path style="fill:#FFFFFF;" d="M1152.119,1423.487c0-2.873-2.33-5.204-5.207-5.204c-2.873,0-5.203,2.331-5.203,5.204
		c0,2.876,2.33,5.206,5.203,5.206C1149.789,1428.693,1152.119,1426.363,1152.119,1423.487"/>
	<path style="fill:#FFFFFF;" d="M579.134,2212.231c0-2.953-2.395-5.35-5.348-5.35c-2.955,0-5.348,2.396-5.348,5.35
		c0,2.954,2.393,5.347,5.348,5.347C576.739,2217.578,579.134,2215.186,579.134,2212.231"/>
	<path style="fill:#FFFFFF;" d="M551.686,1280.493c0-2.873-2.332-5.204-5.207-5.204c-2.873,0-5.205,2.331-5.205,5.204
		c0,2.876,2.332,5.206,5.205,5.206C549.354,1285.699,551.686,1283.369,551.686,1280.493"/>
	<path style="fill:#FFFFFF;" d="M1069.636,1337.539c0-2.873-2.33-5.204-5.207-5.204c-2.873,0-5.203,2.331-5.203,5.204
		c0,2.876,2.33,5.206,5.203,5.206C1067.306,1342.745,1069.636,1340.415,1069.636,1337.539"/>
	<path style="fill:#FFFFFF;" d="M881.119,2162.844c0-2.873-2.332-5.204-5.207-5.204c-2.873,0-5.205,2.331-5.205,5.204
		c0,2.876,2.332,5.206,5.205,5.206C878.787,2168.05,881.119,2165.72,881.119,2162.844"/>
	<path style="fill:#FFFFFF;" d="M1069.636,2063.83c0-2.873-2.33-5.204-5.207-5.204c-2.873,0-5.203,2.331-5.203,5.204
		c0,2.876,2.33,5.206,5.203,5.206C1067.306,2069.036,1069.636,2066.706,1069.636,2063.83"/>
	<path style="fill:#FFFFFF;" d="M706.201,814.285c0-2.873-2.332-5.204-5.207-5.204c-2.873,0-5.205,2.331-5.205,5.204
		c0,2.876,2.332,5.206,5.205,5.206C703.869,819.491,706.201,817.161,706.201,814.285"/>
	<path style="fill:#FFFFFF;" d="M1060.995,491.005c0-2.873-2.332-5.204-5.207-5.204c-2.873,0-5.205,2.331-5.205,5.204
		c0,2.876,2.332,5.206,5.205,5.206C1058.663,496.211,1060.995,493.881,1060.995,491.005"/>
	<path style="fill:#FFFFFF;" d="M243.933,208.887c0-3.113-2.521-5.641-5.638-5.641c-3.113,0-5.635,2.527-5.635,5.641
		c0,3.115,2.521,5.637,5.635,5.637C241.412,214.523,243.933,212.002,243.933,208.887"/>
	<path style="fill:#FFFFFF;" d="M51.718,220.818c0-2.953-2.395-5.35-5.348-5.35c-2.955,0-5.348,2.396-5.348,5.35
		c0,2.954,2.393,5.347,5.348,5.347C49.323,226.165,51.718,223.772,51.718,220.818"/>
	<path style="fill:#FFFFFF;" d="M1146.914,423.263c0-2.873-2.33-5.204-5.207-5.204c-2.873,0-5.203,2.331-5.203,5.204
		c0,2.876,2.33,5.206,5.203,5.206C1144.584,428.469,1146.914,426.139,1146.914,423.263"/>
	<path style="fill:#FFFFFF;" d="M1120.854,553.177c-0.038-2.953-2.463-5.318-5.416-5.28c-2.955,0.038-5.316,2.465-5.278,5.418
		c0.037,2.954,2.461,5.316,5.415,5.277C1118.528,558.554,1120.892,556.131,1120.854,553.177"/>
	<path style="fill:#FFFFFF;" d="M1197.161,2558.036c0-2.996-2.424-5.421-5.414-5.421c-2.996,0-5.42,2.425-5.42,5.421
		c0,2.99,2.424,5.416,5.42,5.416C1194.737,2563.452,1197.161,2561.026,1197.161,2558.036"/>
	<path style="fill:#FFFFFF;" d="M1145.569,2619.696c0-2.996-2.424-5.421-5.414-5.421c-2.996,0-5.42,2.425-5.42,5.421
		c0,2.99,2.424,5.416,5.42,5.416C1143.146,2625.112,1145.569,2622.687,1145.569,2619.696"/>
	<path style="fill:#FFFFFF;" d="M1100.363,1559.352c0-2.996-2.424-5.421-5.414-5.421c-2.996,0-5.42,2.425-5.42,5.421
		c0,2.99,2.424,5.416,5.42,5.416C1097.939,1564.768,1100.363,1562.342,1100.363,1559.352"/>
	<path style="fill:#FFFFFF;" d="M1027.397,1705.711c0-2.996-2.424-5.421-5.414-5.421c-2.996,0-5.42,2.425-5.42,5.421
		c0,2.99,2.424,5.416,5.42,5.416C1024.974,1711.127,1027.397,1708.701,1027.397,1705.711"/>
	<path style="fill:#FFFFFF;" d="M545.854,1893.082c0-2.873-2.332-5.204-5.207-5.204c-2.873,0-5.205,2.331-5.205,5.204
		c0,2.876,2.332,5.206,5.205,5.206C543.522,1898.288,545.854,1895.958,545.854,1893.082"/>
	<path style="fill:#FFFFFF;" d="M1060.995,1569.802c0-2.873-2.332-5.204-5.207-5.204c-2.873,0-5.205,2.331-5.205,5.204
		c0,2.876,2.332,5.206,5.205,5.206C1058.663,1575.008,1060.995,1572.678,1060.995,1569.802"/>
	<path style="fill:#FFFFFF;" d="M665.98,189.594c0-2.873-2.332-5.204-5.207-5.204c-2.873,0-5.205,2.331-5.205,5.204
		c0,2.876,2.332,5.206,5.205,5.206C663.648,194.8,665.98,192.47,665.98,189.594"/>
	<path style="fill:#FFFFFF;" d="M885.405,2761.871c0-2.325-1.887-4.214-4.213-4.214c-2.329,0-4.214,1.889-4.214,4.214
		c0,2.328,1.885,4.214,4.214,4.214C883.519,2766.085,885.405,2764.199,885.405,2761.871"/>
</g>
<g id="Ebene_1">
</g>
</svg>
