<?xml version="1.0" encoding="iso-8859-1"?>
<!-- Generator: Adobe Illustrator 18.0.0, SVG Export Plug-In . SVG Version: 6.00 Build 0)  -->
<!DOCTYPE svg PUBLIC "-//W3C//DTD SVG 1.1//EN" "http://www.w3.org/Graphics/SVG/1.1/DTD/svg11.dtd">
<svg version="1.1" xmlns="http://www.w3.org/2000/svg" xmlns:xlink="http://www.w3.org/1999/xlink" x="0px" y="0px"
	 viewBox="0 0 1200 3404.104" style="enable-background:new 0 0 1200 3404.104;" xml:space="preserve">
<g id="_x30_3_x5F_snow_x5F_big1">
	<path style="fill:#FFFFFF;" d="M1077.539,2305.582c0-2.953-2.395-5.35-5.348-5.35c-2.955,0-5.348,2.396-5.348,5.35
		c0,2.954,2.393,5.347,5.348,5.347C1075.145,2310.929,1077.539,2308.536,1077.539,2305.582"/>
	<path style="fill:#FFFFFF;" d="M1150.848,2229.284c0-2.953-2.395-5.35-5.348-5.35c-2.955,0-5.348,2.396-5.348,5.35
		c0,2.954,2.393,5.347,5.348,5.347C1148.453,2234.631,1150.848,2232.238,1150.848,2229.284"/>
	<path style="fill:#FFFFFF;" d="M635.035,2268.998c0-2.873-2.332-5.204-5.207-5.204c-2.873,0-5.205,2.331-5.205,5.204
		c0,2.876,2.332,5.206,5.205,5.206C632.703,2274.204,635.035,2271.874,635.035,2268.998"/>
	<path style="fill:#FFFFFF;" d="M347.099,2296.827c0-2.805-2.272-5.075-5.077-5.075c-2.805,0-5.073,2.271-5.073,5.075
		s2.269,5.076,5.073,5.076C344.827,2301.903,347.099,2299.632,347.099,2296.827"/>
	<path style="fill:#FFFFFF;" d="M1027.397,626.914c0-2.996-2.424-5.421-5.414-5.421c-2.996,0-5.42,2.425-5.42,5.421
		c0,2.99,2.424,5.416,5.42,5.416C1024.974,632.33,1027.397,629.904,1027.397,626.914"/>
	<path style="fill:#FFFFFF;" d="M708.355,703.36c0-2.953-2.395-5.35-5.348-5.35c-2.955,0-5.348,2.396-5.348,5.35
		c0,2.954,2.393,5.347,5.348,5.347C705.961,708.707,708.355,706.314,708.355,703.36"/>
	<path style="fill:#FFFFFF;" d="M1087.949,1105.887c0-2.953-2.395-5.35-5.348-5.35c-2.955,0-5.348,2.396-5.348,5.35
		c0,2.954,2.393,5.347,5.348,5.347C1085.555,1111.234,1087.949,1108.841,1087.949,1105.887"/>
	<path style="fill:#FFFFFF;" d="M881.119,1436.553c0-2.873-2.332-5.204-5.207-5.204c-2.873,0-5.205,2.331-5.205,5.204
		c0,2.876,2.332,5.206,5.205,5.206C878.787,1441.759,881.119,1439.429,881.119,1436.553"/>
	<path style="fill:#FFFFFF;" d="M1044.762,2212.231c0-2.953-2.395-5.35-5.348-5.35c-2.955,0-5.348,2.396-5.348,5.35
		c0,2.954,2.393,5.347,5.348,5.347C1042.367,2217.578,1044.762,2215.186,1044.762,2212.231"/>
	<path style="fill:#FFFFFF;" d="M29,1417.961c0-3.113-2.521-5.641-5.638-5.641c-3.113,0-5.635,2.527-5.635,5.641
		c0,3.115,2.521,5.637,5.635,5.637C26.479,1423.598,29,1421.076,29,1417.961"/>
	<path style="fill:#FFFFFF;" d="M1152.331,1263.418c0-2.996-2.424-5.421-5.414-5.421c-2.996,0-5.42,2.425-5.42,5.421
		c0,2.99,2.424,5.416,5.42,5.416C1149.907,1268.834,1152.331,1266.408,1152.331,1263.418"/>
	<path style="fill:#FFFFFF;" d="M1152.119,2149.779c0-2.873-2.33-5.204-5.207-5.204c-2.873,0-5.203,2.331-5.203,5.204
		c0,2.876,2.33,5.206,5.203,5.206C1149.789,2154.985,1152.119,2152.655,1152.119,2149.779"/>
	<path style="fill:#FFFFFF;" d="M551.686,2006.784c0-2.873-2.332-5.204-5.207-5.204c-2.873,0-5.205,2.331-5.205,5.204
		c0,2.876,2.332,5.206,5.205,5.206C549.354,2011.99,551.686,2009.66,551.686,2006.784"/>
	<path style="fill:#FFFFFF;" d="M545.854,814.285c0-2.873-2.332-5.204-5.207-5.204c-2.873,0-5.205,2.331-5.205,5.204
		c0,2.876,2.332,5.206,5.205,5.206C543.522,819.491,545.854,817.161,545.854,814.285"/>
	<path style="fill:#FFFFFF;" d="M910.108,844.454c0-2.873-2.33-5.204-5.207-5.204c-2.873,0-5.203,2.331-5.203,5.204
		c0,2.876,2.33,5.206,5.203,5.206C907.778,849.66,910.108,847.33,910.108,844.454"/>
	<path style="fill:#FFFFFF;" d="M98.972,395.394c0-2.805-2.271-5.075-5.077-5.075c-2.805,0-5.073,2.271-5.073,5.075
		c0,2.805,2.269,5.076,5.073,5.076C96.7,400.47,98.972,398.199,98.972,395.394"/>
	<path style="fill:#FFFFFF;" d="M508.133,512.356c-0.038-2.953-2.463-5.318-5.416-5.28c-2.955,0.038-5.316,2.465-5.278,5.418
		c0.037,2.954,2.461,5.315,5.415,5.277C505.807,517.732,508.17,515.31,508.133,512.356"/>
	<path style="fill:#FFFFFF;" d="M468.175,220.815c0-2.873-2.33-5.204-5.207-5.204c-2.873,0-5.203,2.331-5.203,5.204
		c0,2.876,2.33,5.206,5.203,5.206C465.845,226.022,468.175,223.691,468.175,220.815"/>
	<path style="fill:#FFFFFF;" d="M889.811,1814.878c0-2.954-2.394-5.35-5.348-5.35c-2.955,0-5.348,2.396-5.348,5.35
		c0,2.954,2.393,5.346,5.348,5.346C887.417,1820.224,889.811,1817.832,889.811,1814.878"/>
	<path style="fill:#FFFFFF;" d="M1105.309,1873.538c0-2.996-2.424-5.421-5.414-5.421c-2.996,0-5.42,2.425-5.42,5.421
		c0,2.99,2.424,5.416,5.42,5.416C1102.885,1878.954,1105.309,1876.528,1105.309,1873.538"/>
	<path style="fill:#FFFFFF;" d="M910.108,1923.251c0-2.873-2.33-5.204-5.207-5.204c-2.873,0-5.203,2.331-5.203,5.204
		c0,2.876,2.33,5.206,5.203,5.206C907.778,1928.457,910.108,1926.127,910.108,1923.251"/>
	<path style="fill:#FFFFFF;" d="M378.154,2021.971c0-2.953-2.395-5.35-5.348-5.35c-2.955,0-5.348,2.396-5.348,5.35
		c0,2.954,2.393,5.347,5.348,5.347C375.759,2027.318,378.154,2024.926,378.154,2021.971"/>
	<path style="fill:#FFFFFF;" d="M646.679,1681.086c-0.038-2.953-2.463-5.318-5.416-5.28c-2.955,0.038-5.316,2.465-5.278,5.418
		c0.037,2.954,2.461,5.316,5.415,5.277C644.352,1686.463,646.716,1684.04,646.679,1681.086"/>
	<path style="fill:#FFFFFF;" d="M1120.854,1631.974c-0.038-2.953-2.463-5.318-5.416-5.28c-2.955,0.038-5.316,2.465-5.278,5.418
		c0.037,2.954,2.461,5.316,5.415,5.277C1118.528,1637.351,1120.892,1634.928,1120.854,1631.974"/>
</g>
<g id="Ebene_1">
</g>
</svg>
