<?xml version="1.0" encoding="iso-8859-1"?>
<!-- Generator: Adobe Illustrator 18.0.0, SVG Export Plug-In . SVG Version: 6.00 Build 0)  -->
<!DOCTYPE svg PUBLIC "-//W3C//DTD SVG 1.1//EN" "http://www.w3.org/Graphics/SVG/1.1/DTD/svg11.dtd">
<svg version="1.1" xmlns="http://www.w3.org/2000/svg" xmlns:xlink="http://www.w3.org/1999/xlink" x="0px" y="0px"
	 viewBox="0 0 2800 700" style="enable-background:new 0 0 2800 700;" xml:space="preserve">
<g id="f1">
	<path style="fill:#FFFFFF;" d="M832.656,397.377c0-4.044-3.281-7.325-7.325-7.325c-4.053,0-7.334,3.281-7.334,7.325
		c0,4.053,3.281,7.334,7.334,7.334C829.375,404.711,832.656,401.43,832.656,397.377"/>
	<path style="fill:#FFFFFF;" d="M744.832,463.114c0-3.951-3.194-7.145-7.145-7.145c-3.951,0-7.145,3.194-7.145,7.145
		c0,3.941,3.194,7.145,7.145,7.145C741.638,470.259,744.832,467.056,744.832,463.114"/>
	<path style="fill:#FFFFFF;" d="M942.095,441.201c0-3.276-2.661-5.935-5.937-5.935c-3.27,0-5.928,2.659-5.928,5.935
		c0,3.272,2.659,5.933,5.928,5.933C939.434,447.134,942.095,444.473,942.095,441.201"/>
	<path style="fill:#FFFFFF;" d="M968.337,441.206c0-5.671-4.595-10.273-10.262-10.273c-5.669,0-10.273,4.602-10.273,10.273
		c0,5.669,4.604,10.262,10.273,10.262C963.742,451.467,968.337,446.874,968.337,441.206"/>
	<path style="fill:#FFFFFF;" d="M942.977,463.114c0-3.764-3.048-6.822-6.819-6.822c-3.764,0-6.81,3.058-6.81,6.822
		c0,3.759,3.046,6.808,6.81,6.808C939.929,469.922,942.977,466.874,942.977,463.114"/>
	<path style="fill:#FFFFFF;" d="M1201.033,485.023c0-2.739-2.224-4.955-4.965-4.955c-2.731,0-4.955,2.217-4.955,4.955
		s2.224,4.955,4.955,4.955C1198.81,489.978,1201.033,487.762,1201.033,485.023"/>
	<path style="fill:#FFFFFF;" d="M1111.765,506.932c0-1.839-1.495-3.333-3.333-3.333c-1.836,0-3.331,1.495-3.331,3.333
		c0,1.839,1.495,3.331,3.331,3.331C1110.27,510.263,1111.765,508.77,1111.765,506.932"/>
	<path style="fill:#FFFFFF;" d="M1461.377,485.023c0-5.719-4.639-10.358-10.357-10.358c-5.724,0-10.349,4.639-10.349,10.358
		s4.625,10.357,10.349,10.357C1456.738,495.38,1461.377,490.742,1461.377,485.023"/>
	<path style="fill:#FFFFFF;" d="M1551.427,485.023c0-6.543-5.299-11.843-11.845-11.843c-6.544,0-11.836,5.299-11.836,11.843
		c0,6.543,5.292,11.843,11.836,11.843C1546.127,496.866,1551.427,491.567,1551.427,485.023"/>
	<path style="fill:#FFFFFF;" d="M1894.092,463.114c0-1.777-1.442-3.213-3.217-3.213c-1.768,0-3.215,1.435-3.215,3.213
		c0,1.768,1.447,3.212,3.215,3.212C1892.65,466.327,1894.092,464.882,1894.092,463.114"/>
	<path style="fill:#FFFFFF;" d="M1696.492,441.203c0-6.571-5.318-11.898-11.891-11.898c-6.571,0-11.891,5.327-11.891,11.898
		c0,6.564,5.32,11.891,11.891,11.891C1691.174,453.094,1696.492,447.767,1696.492,441.203"/>
	<path style="fill:#FFFFFF;" d="M1738.603,441.203c0-5.445-4.413-9.861-9.859-9.861s-9.856,4.416-9.856,9.861
		c0,5.443,4.411,9.854,9.856,9.854S1738.603,446.646,1738.603,441.203"/>
	<path style="fill:#FFFFFF;" d="M1144.73,277.079c0-2.679-2.174-4.844-4.844-4.844s-4.844,2.165-4.844,4.844
		c0,2.67,2.174,4.835,4.844,4.835S1144.73,279.75,1144.73,277.079"/>
	<path style="fill:#FFFFFF;" d="M1152.527,167.527c0-6.99-5.66-12.647-12.636-12.647c-6.99,0-12.645,5.657-12.645,12.647
		c0,6.976,5.655,12.633,12.645,12.633C1146.867,180.16,1152.527,174.503,1152.527,167.527"/>
	<path style="fill:#FFFFFF;" d="M1533.09,189.431c0-1.718-1.399-3.112-3.112-3.112c-1.718,0-3.112,1.394-3.112,3.112
		c0,1.718,1.394,3.11,3.112,3.11C1531.692,192.541,1533.09,191.149,1533.09,189.431"/>
	<path style="fill:#FFFFFF;" d="M1658.851,189.435c0-2.333-1.896-4.22-4.219-4.22c-2.328,0-4.22,1.887-4.22,4.22
		c0,2.324,1.891,4.217,4.22,4.217C1656.956,193.653,1658.851,191.759,1658.851,189.435"/>
	<path style="fill:#FFFFFF;" d="M1408.742,189.431c0-0.337-0.269-0.613-0.606-0.613c-0.333,0-0.606,0.276-0.606,0.613
		c0,0.333,0.273,0.608,0.606,0.608C1408.473,190.039,1408.742,189.763,1408.742,189.431"/>
</g>
<g id="Ebene_1">
</g>
</svg>
