<?xml version="1.0" encoding="iso-8859-1"?>
<!-- Generator: Adobe Illustrator 18.0.0, SVG Export Plug-In . SVG Version: 6.00 Build 0)  -->
<!DOCTYPE svg PUBLIC "-//W3C//DTD SVG 1.1//EN" "http://www.w3.org/Graphics/SVG/1.1/DTD/svg11.dtd">
<svg version="1.1" xmlns="http://www.w3.org/2000/svg" xmlns:xlink="http://www.w3.org/1999/xlink" x="0px" y="0px"
	 viewBox="0 0 1200 1643.104" style="enable-background:new 0 0 1200 1643.104;" xml:space="preserve">
<g id="f10">
	<path style="fill:#FFFFFF;" d="M300.58,808.066c0-1.936-1.572-3.508-3.509-3.508c-1.939,0-3.508,1.571-3.508,3.508
		c0,1.94,1.568,3.509,3.508,3.509C299.008,811.575,300.58,810.007,300.58,808.066"/>
	<path style="fill:#FFFFFF;" d="M338.688,808.066c0-2.237-1.815-4.053-4.053-4.053c-2.238,0-4.053,1.815-4.053,4.053
		c0,2.239,1.814,4.054,4.053,4.054C336.873,812.12,338.688,810.306,338.688,808.066"/>
	<path style="fill:#FFFFFF;" d="M357.458,817.458c0-2.231-1.808-4.039-4.038-4.039c-2.233,0-4.041,1.808-4.041,4.039
		c0,2.234,1.808,4.042,4.041,4.042C355.65,821.5,357.458,819.692,357.458,817.458"/>
	<path style="fill:#FFFFFF;" d="M327.895,836.243c0-1.466-1.185-2.65-2.65-2.65c-1.465,0-2.65,1.185-2.65,2.65
		c0,1.465,1.186,2.65,2.65,2.65C326.709,838.893,327.895,837.708,327.895,836.243"/>
	<path style="fill:#FFFFFF;" d="M476.49,826.852c0-0.954-0.772-1.727-1.726-1.727c-0.953,0-1.727,0.772-1.727,1.727
		c0,0.953,0.773,1.727,1.727,1.727C475.718,828.579,476.49,827.806,476.49,826.852"/>
	<path style="fill:#FFFFFF;" d="M476.49,836.243c0-0.954-0.772-1.727-1.726-1.727c-0.953,0-1.727,0.773-1.727,1.727
		c0,0.953,0.773,1.727,1.727,1.727C475.718,837.97,476.49,837.196,476.49,836.243"/>
	<path style="fill:#FFFFFF;" d="M632.167,826.852c0-0.648-0.523-1.172-1.167-1.172c-0.648,0-1.171,0.523-1.171,1.172
		c0,0.645,0.522,1.166,1.171,1.166C631.644,828.018,632.167,827.497,632.167,826.852"/>
	<path style="fill:#FFFFFF;" d="M842.863,826.852c0-2.515-2.035-4.551-4.549-4.551c-2.515,0-4.549,2.036-4.549,4.551
		c0,2.51,2.034,4.549,4.549,4.549C840.828,831.401,842.863,829.362,842.863,826.852"/>
	<path style="fill:#FFFFFF;" d="M447.32,855.024c0-1.612-1.31-2.92-2.923-2.92s-2.923,1.308-2.923,2.92
		c0,1.615,1.311,2.923,2.923,2.923S447.32,856.64,447.32,855.024"/>
	<path style="fill:#FFFFFF;" d="M786.565,826.882c0-1.451-1.178-2.625-2.624-2.625c-1.451,0-2.629,1.174-2.629,2.625
		c0,1.45,1.178,2.625,2.629,2.625C785.388,829.507,786.565,828.332,786.565,826.882"/>
	<path style="fill:#FFFFFF;" d="M779.03,845.663c0-2.475-2.007-4.481-4.484-4.481c-2.474,0-4.479,2.006-4.479,4.481
		c0,2.475,2.006,4.484,4.479,4.484C777.023,850.147,779.03,848.138,779.03,845.663"/>
	<path style="fill:#FFFFFF;" d="M741.073,817.458c0-0.234-0.192-0.424-0.428-0.424c-0.233,0-0.424,0.189-0.424,0.424
		c0,0.233,0.19,0.424,0.424,0.424C740.881,817.882,741.073,817.691,741.073,817.458"/>
	<path style="fill:#FFFFFF;" d="M533.441,718.936c0-0.612-0.494-1.11-1.107-1.11c-0.611,0-1.111,0.498-1.111,1.11
		s0.5,1.107,1.111,1.107C532.947,720.043,533.441,719.549,533.441,718.936"/>
	<path style="fill:#FFFFFF;" d="M546.672,728.328c0-2.732-2.215-4.948-4.947-4.948c-2.734,0-4.947,2.216-4.947,4.948
		c0,2.73,2.213,4.947,4.947,4.947C544.457,733.275,546.672,731.059,546.672,728.328"/>
	<path style="fill:#FFFFFF;" d="M481.189,737.718c0-1.29-1.045-2.339-2.334-2.339c-1.295,0-2.34,1.049-2.34,2.339
		c0,1.294,1.045,2.339,2.34,2.339C480.145,740.057,481.189,739.012,481.189,737.718"/>
	<path style="fill:#FFFFFF;" d="M642.082,728.33c0-2.996-2.424-5.42-5.414-5.42c-2.996,0-5.42,2.424-5.42,5.42
		c0,2.99,2.424,5.415,5.42,5.415C639.658,733.745,642.082,731.32,642.082,728.33"/>
	<path style="fill:#FFFFFF;" d="M642.082,747.83c0-2.994-2.424-5.42-5.414-5.42c-2.996,0-5.42,2.426-5.42,5.42
		c0,2.991,2.424,5.416,5.42,5.416C639.658,753.246,642.082,750.821,642.082,747.83"/>
	<path style="fill:#FFFFFF;" d="M647.785,737.718c0-0.953-0.773-1.729-1.727-1.729c-0.957,0-1.732,0.776-1.732,1.729
		c0,0.958,0.775,1.73,1.732,1.73C647.012,739.448,647.785,738.676,647.785,737.718"/>
	<path style="fill:#FFFFFF;" d="M647.787,747.109c0-0.954-0.775-1.731-1.729-1.731c-0.957,0-1.732,0.776-1.732,1.731
		c0,0.957,0.775,1.729,1.732,1.729C647.012,748.839,647.787,748.066,647.787,747.109"/>
	<path style="fill:#FFFFFF;" d="M704.195,728.328c0-2.604-2.107-4.709-4.707-4.709c-2.604,0-4.713,2.105-4.713,4.709
		c0,2.602,2.109,4.707,4.713,4.707C702.088,733.035,704.195,730.93,704.195,728.328"/>
	<path style="fill:#FFFFFF;" d="M729.484,737.718c0-1.005-0.82-1.817-1.824-1.817c-1.006,0-1.818,0.812-1.818,1.817
		c0,1.005,0.812,1.822,1.818,1.822C728.664,739.54,729.484,738.723,729.484,737.718"/>
</g>
<g id="Ebene_1">
</g>
</svg>
