<?xml version="1.0" encoding="iso-8859-1"?>
<!-- Generator: Adobe Illustrator 18.0.0, SVG Export Plug-In . SVG Version: 6.00 Build 0)  -->
<!DOCTYPE svg PUBLIC "-//W3C//DTD SVG 1.1//EN" "http://www.w3.org/Graphics/SVG/1.1/DTD/svg11.dtd">
<svg version="1.1" xmlns="http://www.w3.org/2000/svg" xmlns:xlink="http://www.w3.org/1999/xlink" x="0px" y="0px"
	 viewBox="0 0 2800 700" style="enable-background:new 0 0 2800 700;" xml:space="preserve">
<g id="f10">
	<path style="fill:#FFFFFF;" d="M702.054,397.377c0-4.518-3.668-8.184-8.186-8.184c-4.525,0-8.184,3.666-8.184,8.184
		c0,4.527,3.659,8.186,8.184,8.186C698.386,405.563,702.054,401.904,702.054,397.377"/>
	<path style="fill:#FFFFFF;" d="M790.96,397.377c0-5.22-4.233-9.455-9.455-9.455c-5.222,0-9.455,4.235-9.455,9.455
		c0,5.224,4.233,9.457,9.455,9.457C786.727,406.834,790.96,402.601,790.96,397.377"/>
	<path style="fill:#FFFFFF;" d="M834.753,419.288c0-5.206-4.217-9.423-9.421-9.423c-5.211,0-9.428,4.217-9.428,9.423
		c0,5.213,4.217,9.43,9.428,9.43C830.535,428.718,834.753,424.501,834.753,419.288"/>
	<path style="fill:#FFFFFF;" d="M765.78,463.114c0-3.42-2.766-6.184-6.183-6.184c-3.417,0-6.183,2.763-6.183,6.184
		c0,3.417,2.766,6.183,6.183,6.183C763.014,469.298,765.78,466.532,765.78,463.114"/>
	<path style="fill:#FFFFFF;" d="M1112.459,441.206c0-2.226-1.802-4.028-4.028-4.028c-2.224,0-4.028,1.802-4.028,4.028
		c0,2.224,1.804,4.028,4.028,4.028C1110.657,445.234,1112.459,443.429,1112.459,441.206"/>
	<path style="fill:#FFFFFF;" d="M1112.459,463.114c0-2.226-1.802-4.028-4.028-4.028c-2.224,0-4.028,1.802-4.028,4.028
		c0,2.224,1.804,4.028,4.028,4.028C1110.657,467.142,1112.459,465.338,1112.459,463.114"/>
	<path style="fill:#FFFFFF;" d="M1475.66,441.206c0-1.513-1.219-2.734-2.723-2.734c-1.513,0-2.732,1.221-2.732,2.734
		c0,1.504,1.219,2.72,2.732,2.72C1474.441,443.926,1475.66,442.709,1475.66,441.206"/>
	<path style="fill:#FFFFFF;" d="M1967.223,441.206c0-5.867-4.748-10.617-10.613-10.617c-5.867,0-10.613,4.75-10.613,10.617
		c0,5.855,4.746,10.613,10.613,10.613C1962.475,451.818,1967.223,447.061,1967.223,441.206"/>
	<path style="fill:#FFFFFF;" d="M1044.405,506.932c0-3.762-3.057-6.812-6.819-6.812c-3.761,0-6.819,3.051-6.819,6.812
		c0,3.768,3.058,6.819,6.819,6.819C1041.347,513.751,1044.405,510.7,1044.405,506.932"/>
	<path style="fill:#FFFFFF;" d="M1835.878,441.274c0-3.385-2.748-6.124-6.122-6.124c-3.386,0-6.133,2.739-6.133,6.124
		c0,3.383,2.748,6.124,6.133,6.124C1833.13,447.398,1835.878,444.657,1835.878,441.274"/>
	<path style="fill:#FFFFFF;" d="M1818.298,485.091c0-5.773-4.682-10.453-10.462-10.453c-5.771,0-10.451,4.68-10.451,10.453
		s4.68,10.462,10.451,10.462C1813.616,495.554,1818.298,490.865,1818.298,485.091"/>
	<path style="fill:#FFFFFF;" d="M1729.742,419.288c0-0.547-0.449-0.989-0.998-0.989c-0.544,0-0.989,0.442-0.989,0.989
		c0,0.545,0.444,0.989,0.989,0.989C1729.294,420.277,1729.742,419.832,1729.742,419.288"/>
	<path style="fill:#FFFFFF;" d="M1245.329,189.433c0-1.429-1.153-2.59-2.584-2.59c-1.426,0-2.593,1.162-2.593,2.59
		c0,1.429,1.167,2.582,2.593,2.582C1244.176,192.015,1245.329,190.862,1245.329,189.433"/>
	<path style="fill:#FFFFFF;" d="M1276.196,211.344c0-6.375-5.167-11.544-11.542-11.544c-6.379,0-11.542,5.17-11.542,11.544
		c0,6.37,5.163,11.542,11.542,11.542C1271.029,222.886,1276.196,217.714,1276.196,211.344"/>
	<path style="fill:#FFFFFF;" d="M1123.423,233.251c0-3.01-2.438-5.457-5.445-5.457c-3.021,0-5.459,2.447-5.459,5.457
		c0,3.019,2.438,5.457,5.459,5.457C1120.985,238.707,1123.423,236.269,1123.423,233.251"/>
	<path style="fill:#FFFFFF;" d="M1498.792,211.349c0-6.99-5.655-12.645-12.631-12.645c-6.99,0-12.645,5.655-12.645,12.645
		c0,6.976,5.655,12.633,12.645,12.633C1493.137,223.982,1498.792,218.325,1498.792,211.349"/>
	<path style="fill:#FFFFFF;" d="M1498.792,256.843c0-6.986-5.655-12.645-12.631-12.645c-6.99,0-12.645,5.659-12.645,12.645
		c0,6.979,5.655,12.636,12.645,12.636C1493.137,269.479,1498.792,263.822,1498.792,256.843"/>
	<path style="fill:#FFFFFF;" d="M1512.098,233.251c0-2.224-1.805-4.035-4.028-4.035c-2.233,0-4.042,1.811-4.042,4.035
		c0,2.235,1.809,4.037,4.042,4.037C1510.293,237.288,1512.098,235.486,1512.098,233.251"/>
	<path style="fill:#FFFFFF;" d="M1512.102,255.162c0-2.226-1.809-4.037-4.033-4.037c-2.233,0-4.042,1.811-4.042,4.037
		c0,2.233,1.809,4.035,4.042,4.035C1510.293,259.197,1512.102,257.394,1512.102,255.162"/>
	<path style="fill:#FFFFFF;" d="M1643.705,211.344c0-6.074-4.917-10.986-10.982-10.986c-6.074,0-10.995,4.912-10.995,10.986
		c0,6.07,4.921,10.982,10.995,10.982C1638.788,222.326,1643.705,217.414,1643.705,211.344"/>
	<path style="fill:#FFFFFF;" d="M1702.705,233.251c0-2.344-1.914-4.24-4.256-4.24c-2.347,0-4.242,1.896-4.242,4.24
		c0,2.344,1.896,4.251,4.242,4.251C1700.792,237.502,1702.705,235.595,1702.705,233.251"/>
</g>
<g id="Ebene_1">
</g>
</svg>
