<?xml version="1.0" encoding="iso-8859-1"?>
<!-- Generator: Adobe Illustrator 18.0.0, SVG Export Plug-In . SVG Version: 6.00 Build 0)  -->
<!DOCTYPE svg PUBLIC "-//W3C//DTD SVG 1.1//EN" "http://www.w3.org/Graphics/SVG/1.1/DTD/svg11.dtd">
<svg version="1.1" xmlns="http://www.w3.org/2000/svg" xmlns:xlink="http://www.w3.org/1999/xlink" x="0px" y="0px"
	 viewBox="0 0 2800 700" style="enable-background:new 0 0 2800 700;" xml:space="preserve">
<g id="f11">
	<path style="fill:#FFFFFF;" d="M813.017,506.932c0-5.299-4.295-9.601-9.594-9.601c-5.306,0-9.601,4.301-9.601,9.601
		c0,5.309,4.295,9.601,9.601,9.601C808.722,516.533,813.017,512.24,813.017,506.932"/>
	<path style="fill:#FFFFFF;" d="M983.386,463.114c0-1.882-1.522-3.411-3.402-3.411c-1.882,0-3.411,1.529-3.411,3.411
		c0,1.882,1.529,3.399,3.411,3.399C981.864,466.514,983.386,464.996,983.386,463.114"/>
	<path style="fill:#FFFFFF;" d="M1199.368,441.206c0-1.823-1.479-3.29-3.299-3.29c-1.813,0-3.29,1.467-3.29,3.29
		c0,1.809,1.476,3.29,3.29,3.29C1197.889,444.496,1199.368,443.015,1199.368,441.206"/>
	<path style="fill:#FFFFFF;" d="M1436.451,441.206c0-4.055-3.29-7.345-7.341-7.345c-4.055,0-7.336,3.29-7.336,7.345
		c0,4.053,3.281,7.332,7.336,7.332C1433.162,448.537,1436.451,445.259,1436.451,441.206"/>
	<path style="fill:#FFFFFF;" d="M1570.613,441.206c0-5.042-4.076-9.122-9.12-9.122c-5.042,0-9.118,4.08-9.118,9.122
		c0,5.031,4.076,9.118,9.118,9.118C1566.537,450.324,1570.613,446.236,1570.613,441.206"/>
	<path style="fill:#FFFFFF;" d="M1566.637,485.023c0-2.844-2.301-5.145-5.145-5.145c-2.841,0-5.142,2.301-5.142,5.145
		c0,2.843,2.301,5.145,5.142,5.145C1564.336,490.168,1566.637,487.866,1566.637,485.023"/>
	<path style="fill:#FFFFFF;" d="M1593.071,506.932c0-5.341-4.327-9.667-9.669-9.667c-5.338,0-9.667,4.326-9.667,9.667
		c0,5.341,4.329,9.665,9.667,9.665C1588.744,516.597,1593.071,512.272,1593.071,506.932"/>
	<path style="fill:#FFFFFF;" d="M1938.222,419.288c0-1.941-1.581-3.522-3.52-3.522c-1.948,0-3.529,1.581-3.529,3.522
		c0,1.95,1.581,3.527,3.529,3.527C1936.64,422.815,1938.222,421.238,1938.222,419.288"/>
	<path style="fill:#FFFFFF;" d="M1983.224,463.114c0-2.604-2.103-4.707-4.705-4.707c-2.602,0-4.705,2.103-4.705,4.707
		c0,2.602,2.103,4.707,4.705,4.707C1981.121,467.821,1983.224,465.716,1983.224,463.114"/>
	<path style="fill:#FFFFFF;" d="M1788.804,441.274c0-1.59-1.292-2.875-2.88-2.875s-2.864,1.285-2.864,2.875
		c0,1.59,1.276,2.866,2.864,2.866S1788.804,442.864,1788.804,441.274"/>
	<path style="fill:#FFFFFF;" d="M1833.791,463.183c0-2.233-1.809-4.037-4.035-4.037c-2.233,0-4.039,1.804-4.039,4.037
		c0,2.224,1.807,4.037,4.039,4.037C1831.982,467.22,1833.791,465.406,1833.791,463.183"/>
	<path style="fill:#FFFFFF;" d="M2074.128,441.203c0-4.427-3.586-8.011-8.006-8.011c-4.429,0-8.006,3.584-8.006,8.011
		c0,4.422,3.577,8.004,8.006,8.004C2070.542,449.207,2074.128,445.626,2074.128,441.203"/>
	<path style="fill:#FFFFFF;" d="M2097.575,485.023c0-5.336-4.327-9.656-9.665-9.656c-5.334,0-9.654,4.32-9.654,9.656
		c0,5.336,4.32,9.656,9.654,9.656C2093.248,494.679,2097.575,490.359,2097.575,485.023"/>
	<path style="fill:#FFFFFF;" d="M1283.895,441.203c0-7.211-5.842-13.053-13.044-13.053c-7.213,0-13.057,5.842-13.057,13.053
		c0,7.204,5.844,13.048,13.057,13.048C1278.053,454.251,1283.895,448.407,1283.895,441.203"/>
	<path style="fill:#FFFFFF;" d="M1251.499,485.023c0-1.353-1.091-2.442-2.447-2.442c-1.344,0-2.443,1.089-2.443,2.442
		c0,1.344,1.098,2.445,2.443,2.445C1250.407,487.468,1251.499,486.367,1251.499,485.023"/>
	<path style="fill:#FFFFFF;" d="M1715.17,441.203c0-4.696-3.805-8.494-8.494-8.494c-4.696,0-8.496,3.798-8.496,8.494
		c0,4.689,3.8,8.496,8.496,8.496C1711.365,449.699,1715.17,445.892,1715.17,441.203"/>
	<path style="fill:#FFFFFF;" d="M1151.292,211.344c0-6.297-5.113-11.406-11.406-11.406c-6.297,0-11.406,5.108-11.406,11.406
		c0,6.293,5.108,11.403,11.406,11.403C1146.179,222.747,1151.292,217.637,1151.292,211.344"/>
	<path style="fill:#FFFFFF;" d="M1191.924,211.344c0-4.536-3.677-8.211-8.22-8.211c-4.534,0-8.211,3.675-8.211,8.211
		c0,4.534,3.677,8.209,8.211,8.209C1188.247,219.553,1191.924,215.878,1191.924,211.344"/>
	<path style="fill:#FFFFFF;" d="M1152.527,189.44c0-6.99-5.66-12.647-12.636-12.647c-6.99,0-12.645,5.657-12.645,12.647
		c0,6.976,5.655,12.634,12.645,12.634C1146.867,202.073,1152.527,196.416,1152.527,189.44"/>
	<path style="fill:#FFFFFF;" d="M1492.044,277.079c0-3.258-2.638-5.892-5.883-5.892c-3.258,0-5.892,2.634-5.892,5.892
		c0,3.244,2.634,5.883,5.892,5.883C1489.405,282.962,1492.044,280.324,1492.044,277.079"/>
	<path style="fill:#FFFFFF;" d="M1687.723,211.344c0-6.176-5.003-11.184-11.182-11.184c-6.174,0-11.182,5.008-11.182,11.184
		c0,6.174,5.008,11.182,11.182,11.182C1682.719,222.526,1687.723,217.518,1687.723,211.344"/>
	<path style="fill:#FFFFFF;" d="M1613.562,255.162c0-1.522-1.226-2.748-2.761-2.748c-1.517,0-2.748,1.226-2.748,2.748
		c0,1.52,1.23,2.757,2.748,2.757C1612.336,257.918,1613.562,256.681,1613.562,255.162"/>
	<path style="fill:#FFFFFF;" d="M1377.018,211.057c0-5.425-4.402-9.831-9.829-9.831c-5.432,0-9.829,4.406-9.829,9.831
		c0,5.432,4.397,9.829,9.829,9.829C1372.616,220.886,1377.018,216.489,1377.018,211.057"/>
	<path style="fill:#FFFFFF;" d="M1355.059,255.157c0-4.607-3.741-8.343-8.348-8.343s-8.343,3.737-8.343,8.343
		c0,4.616,3.737,8.35,8.343,8.35S1355.059,259.773,1355.059,255.157"/>
</g>
<g id="Ebene_1">
</g>
</svg>
