<?xml version="1.0" encoding="iso-8859-1"?>
<!-- Generator: Adobe Illustrator 18.0.0, SVG Export Plug-In . SVG Version: 6.00 Build 0)  -->
<!DOCTYPE svg PUBLIC "-//W3C//DTD SVG 1.1//EN" "http://www.w3.org/Graphics/SVG/1.1/DTD/svg11.dtd">
<svg version="1.1" xmlns="http://www.w3.org/2000/svg" xmlns:xlink="http://www.w3.org/1999/xlink" x="0px" y="0px"
	 viewBox="0 0 2800 700" style="enable-background:new 0 0 2800 700;" xml:space="preserve">
<g id="f13">
	<path style="fill:#FFFFFF;" d="M768.571,441.206c0-4.958-4.019-8.977-8.974-8.977c-4.955,0-8.974,4.019-8.974,8.977
		c0,4.953,4.019,8.972,8.974,8.972C764.552,450.178,768.571,446.159,768.571,441.206"/>
	<path style="fill:#FFFFFF;" d="M749.496,485.023c0-6.521-5.29-11.811-11.809-11.811c-6.518,0-11.809,5.29-11.809,11.811
		c0,6.516,5.29,11.809,11.809,11.809C744.206,496.832,749.496,491.539,749.496,485.023"/>
	<path style="fill:#FFFFFF;" d="M786.305,485.023c0-2.648-2.146-4.8-4.8-4.8c-2.645,0-4.791,2.153-4.791,4.8
		c0,2.643,2.146,4.791,4.791,4.791C784.159,489.814,786.305,487.666,786.305,485.023"/>
	<path style="fill:#FFFFFF;" d="M964.357,485.023c0-3.472-2.814-6.284-6.284-6.284c-3.47,0-6.293,2.812-6.293,6.284
		c0,3.468,2.823,6.284,6.293,6.284C961.543,491.307,964.357,488.491,964.357,485.023"/>
	<path style="fill:#FFFFFF;" d="M1140.871,397.377c0-5.812-4.716-10.528-10.528-10.528c-5.817,0-10.531,4.716-10.531,10.528
		c0,5.817,4.714,10.528,10.531,10.528C1136.155,407.905,1140.871,403.194,1140.871,397.377"/>
	<path style="fill:#FFFFFF;" d="M1176.787,419.288c0-1.453-1.176-2.629-2.627-2.629c-1.451,0-2.629,1.176-2.629,2.629
		c0,1.449,1.178,2.627,2.629,2.627C1175.611,421.915,1176.787,420.737,1176.787,419.288"/>
	<path style="fill:#FFFFFF;" d="M1183.77,463.114c0-5.309-4.304-9.613-9.61-9.613c-5.3,0-9.601,4.304-9.601,9.613
		c0,5.306,4.301,9.601,9.601,9.601C1179.466,472.715,1183.77,468.421,1183.77,463.114"/>
	<path style="fill:#FFFFFF;" d="M1453.106,419.288c0-1.144-0.939-2.08-2.087-2.08c-1.153,0-2.083,0.936-2.083,2.08
		c0,1.148,0.929,2.087,2.083,2.087C1452.168,421.375,1453.106,420.436,1453.106,419.288"/>
	<path style="fill:#FFFFFF;" d="M1436.547,463.114c0-4.106-3.335-7.439-7.437-7.439c-4.105,0-7.441,3.333-7.441,7.439
		c0,4.105,3.336,7.437,7.441,7.437C1433.212,470.551,1436.547,467.22,1436.547,463.114"/>
	<path style="fill:#FFFFFF;" d="M1437.971,506.932c0-4.894-3.967-8.854-8.861-8.854c-4.898,0-8.858,3.96-8.858,8.854
		c0,4.894,3.96,8.863,8.858,8.863C1434.005,515.794,1437.971,511.826,1437.971,506.932"/>
	<path style="fill:#FFFFFF;" d="M1589.029,485.023c0-3.108-2.516-5.628-5.628-5.628c-3.105,0-5.628,2.52-5.628,5.628
		c0,3.105,2.522,5.628,5.628,5.628C1586.513,490.651,1589.029,488.128,1589.029,485.023"/>
	<path style="fill:#FFFFFF;" d="M1542.288,506.932c0-1.49-1.214-2.707-2.707-2.707c-1.495,0-2.707,1.216-2.707,2.707
		c0,1.499,1.212,2.707,2.707,2.707C1541.074,509.639,1542.288,508.431,1542.288,506.932"/>
	<path style="fill:#FFFFFF;" d="M1914.251,419.288c0-0.807-0.654-1.461-1.458-1.461c-0.818,0-1.472,0.654-1.472,1.461
		c0,0.813,0.654,1.467,1.472,1.467C1913.597,420.755,1914.251,420.101,1914.251,419.288"/>
	<path style="fill:#FFFFFF;" d="M1924.326,463.114c0-6.375-5.161-11.545-11.533-11.545c-6.375,0-11.544,5.17-11.544,11.545
		c0,6.37,5.17,11.533,11.544,11.533C1919.165,474.647,1924.326,469.485,1924.326,463.114"/>
	<path style="fill:#FFFFFF;" d="M1941.509,463.114c0-3.773-3.046-6.822-6.808-6.822c-3.771,0-6.821,3.049-6.821,6.822
		c0,3.759,3.051,6.817,6.821,6.817C1938.463,469.931,1941.509,466.874,1941.509,463.114"/>
	<path style="fill:#FFFFFF;" d="M1818.368,463.183c0-5.814-4.709-10.531-10.533-10.531c-5.812,0-10.531,4.716-10.531,10.531
		c0,5.814,4.719,10.53,10.531,10.53C1813.659,473.713,1818.368,468.997,1818.368,463.183"/>
	<path style="fill:#FFFFFF;" d="M2115.528,463.11c0-3.212-2.609-5.819-5.819-5.819c-3.226,0-5.828,2.606-5.828,5.819
		c0,3.222,2.602,5.826,5.828,5.826C2112.919,468.936,2115.528,466.331,2115.528,463.11"/>
	<path style="fill:#FFFFFF;" d="M2024.981,485.023c0-1.353-1.094-2.442-2.447-2.442c-1.347,0-2.447,1.089-2.447,2.442
		c0,1.344,1.1,2.445,2.447,2.445C2023.888,487.468,2024.981,486.367,2024.981,485.023"/>
	<path style="fill:#FFFFFF;" d="M2115.542,485.023c0-3.228-2.615-5.842-5.833-5.842c-3.231,0-5.844,2.613-5.844,5.842
		c0,3.219,2.614,5.842,5.844,5.842C2112.926,490.865,2115.542,488.242,2115.542,485.023"/>
	<path style="fill:#FFFFFF;" d="M1340.407,441.203c0-2.313-1.875-4.181-4.181-4.181c-2.315,0-4.183,1.868-4.183,4.181
		c0,2.308,1.868,4.174,4.183,4.174C1338.532,445.377,1340.407,443.511,1340.407,441.203"/>
	<path style="fill:#FFFFFF;" d="M1251.499,463.11c0-1.344-1.091-2.445-2.447-2.445c-1.344,0-2.443,1.1-2.443,2.445
		c0,1.353,1.098,2.442,2.443,2.442C1250.407,465.552,1251.499,464.463,1251.499,463.11"/>
	<path style="fill:#FFFFFF;" d="M1342.059,485.023c0-3.228-2.611-5.842-5.833-5.842c-3.228,0-5.842,2.613-5.842,5.842
		c0,3.219,2.613,5.842,5.842,5.842C1339.448,490.865,1342.059,488.242,1342.059,485.023"/>
	<path style="fill:#FFFFFF;" d="M1247.703,211.344c0-2.743-2.219-4.967-4.958-4.967s-4.967,2.224-4.967,4.967
		c0,2.739,2.228,4.962,4.967,4.962S1247.703,214.083,1247.703,211.344"/>
	<path style="fill:#FFFFFF;" d="M1274.319,233.251c0-5.334-4.329-9.66-9.665-9.66c-5.341,0-9.66,4.327-9.66,9.66
		c0,5.343,4.32,9.663,9.66,9.663C1269.99,242.913,1274.319,238.593,1274.319,233.251"/>
	<path style="fill:#FFFFFF;" d="M1194.234,167.527c0-5.817-4.716-10.531-10.531-10.531c-5.805,0-10.521,4.714-10.521,10.531
		c0,5.805,4.716,10.519,10.521,10.519C1189.518,178.046,1194.234,173.332,1194.234,167.527"/>
	<path style="fill:#FFFFFF;" d="M1515.169,211.344c0-3.928-3.185-7.104-7.099-7.104c-3.928,0-7.104,3.176-7.104,7.104
		c0,3.923,3.176,7.102,7.104,7.102C1511.984,218.446,1515.169,215.268,1515.169,211.344"/>
	<path style="fill:#FFFFFF;" d="M1510.703,277.079c0-1.463-1.176-2.648-2.634-2.648c-1.463,0-2.648,1.185-2.648,2.648
		c0,1.449,1.185,2.634,2.648,2.634C1509.528,279.713,1510.703,278.528,1510.703,277.079"/>
	<path style="fill:#FFFFFF;" d="M1615.184,233.251c0-2.413-1.955-4.372-4.384-4.372c-2.406,0-4.365,1.96-4.365,4.372
		c0,2.415,1.959,4.372,4.365,4.372C1613.229,237.623,1615.184,235.666,1615.184,233.251"/>
	<path style="fill:#FFFFFF;" d="M1394.648,211.057c0-3.857-3.126-6.986-6.981-6.986c-3.864,0-6.995,3.128-6.995,6.986
		c0,3.864,3.13,6.99,6.995,6.99C1391.522,218.047,1394.648,214.921,1394.648,211.057"/>
	<path style="fill:#FFFFFF;" d="M1396.37,277.075c0-4.803-3.9-8.703-8.703-8.703c-4.812,0-8.703,3.901-8.703,8.703
		c0,4.812,3.891,8.703,8.703,8.703C1392.47,285.778,1396.37,281.887,1396.37,277.075"/>
</g>
<g id="Ebene_1">
</g>
</svg>
