<?xml version="1.0" encoding="iso-8859-1"?>
<!-- Generator: Adobe Illustrator 18.0.0, SVG Export Plug-In . SVG Version: 6.00 Build 0)  -->
<!DOCTYPE svg PUBLIC "-//W3C//DTD SVG 1.1//EN" "http://www.w3.org/Graphics/SVG/1.1/DTD/svg11.dtd">
<svg version="1.1" xmlns="http://www.w3.org/2000/svg" xmlns:xlink="http://www.w3.org/1999/xlink" x="0px" y="0px"
	 viewBox="0 0 1200 1643.104" style="enable-background:new 0 0 1200 1643.104;" xml:space="preserve">
<g id="f4">
	<path style="fill:#FFFFFF;" d="M338.505,817.458c0-2.136-1.732-3.867-3.87-3.867c-2.135,0-3.866,1.732-3.866,3.867
		c0,2.138,1.731,3.869,3.866,3.869C336.773,821.327,338.505,819.596,338.505,817.458"/>
	<path style="fill:#FFFFFF;" d="M298.444,826.852c0-0.763-0.614-1.377-1.373-1.377c-0.762,0-1.377,0.614-1.377,1.377
		c0,0.758,0.615,1.372,1.377,1.372C297.83,828.225,298.444,827.61,298.444,826.852"/>
	<path style="fill:#FFFFFF;" d="M317.31,826.852c0-0.807-0.65-1.459-1.457-1.459c-0.807,0-1.458,0.652-1.458,1.459
		c0,0.802,0.651,1.453,1.458,1.453C316.66,828.306,317.31,827.654,317.31,826.852"/>
	<path style="fill:#FFFFFF;" d="M347.177,836.243c0-1.742-1.41-3.148-3.147-3.148c-1.741,0-3.151,1.405-3.151,3.148
		c0,1.737,1.41,3.146,3.151,3.146C345.767,839.39,347.177,837.98,347.177,836.243"/>
	<path style="fill:#FFFFFF;" d="M357.628,836.243c0-2.324-1.885-4.208-4.208-4.208c-2.326,0-4.207,1.884-4.207,4.208
		c0,2.322,1.881,4.207,4.207,4.207C355.743,840.45,357.628,838.565,357.628,836.243"/>
	<path style="fill:#FFFFFF;" d="M403.294,817.458c0-1.31-1.057-2.372-2.371-2.372c-1.31,0-2.372,1.062-2.372,2.372
		c0,1.315,1.062,2.371,2.372,2.371C402.237,819.829,403.294,818.772,403.294,817.458"/>
	<path style="fill:#FFFFFF;" d="M410.991,817.458c0-0.373-0.303-0.674-0.674-0.674c-0.376,0-0.678,0.301-0.678,0.674
		c0,0.375,0.302,0.676,0.678,0.676C410.688,818.134,410.991,817.833,410.991,817.458"/>
	<path style="fill:#FFFFFF;" d="M413.467,855.024c0-1.74-1.409-3.154-3.149-3.154c-1.745,0-3.154,1.414-3.154,3.154
		c0,1.74,1.409,3.154,3.154,3.154C412.058,858.179,413.467,856.765,413.467,855.024"/>
	<path style="fill:#FFFFFF;" d="M626.276,826.852c0-2.581-2.09-4.672-4.671-4.672c-2.577,0-4.669,2.091-4.669,4.672
		c0,2.576,2.092,4.667,4.669,4.667C624.186,831.519,626.276,829.429,626.276,826.852"/>
	<path style="fill:#FFFFFF;" d="M605.761,855.024c0-1.623-1.313-2.938-2.938-2.938c-1.622,0-2.94,1.315-2.94,2.938
		c0,1.623,1.318,2.941,2.94,2.941C604.447,857.966,605.761,856.647,605.761,855.024"/>
	<path style="fill:#FFFFFF;" d="M665.203,836.243c0-3.114-2.521-5.641-5.638-5.641c-3.113,0-5.635,2.526-5.635,5.641
		c0,3.114,2.521,5.637,5.635,5.637C662.682,841.88,665.203,839.357,665.203,836.243"/>
	<path style="fill:#FFFFFF;" d="M449.71,826.853c0-2.934-2.379-5.312-5.312-5.312s-5.309,2.378-5.309,5.312
		c0,2.931,2.375,5.309,5.309,5.309S449.71,829.784,449.71,826.853"/>
	<path style="fill:#FFFFFF;" d="M726.203,836.241c0-2.471-2.008-4.479-4.478-4.479c-2.472,0-4.478,2.008-4.478,4.479
		c0,2.475,2.006,4.478,4.478,4.478C724.195,840.719,726.203,838.716,726.203,836.241"/>
	<path style="fill:#FFFFFF;" d="M745.327,836.241c0-2.585-2.097-4.681-4.682-4.681c-2.584,0-4.681,2.096-4.681,4.681
		c0,2.584,2.097,4.681,4.681,4.681C743.23,840.922,745.327,838.825,745.327,836.241"/>
	<path style="fill:#FFFFFF;" d="M715.168,845.634c0-1.602-1.303-2.9-2.904-2.9c-1.603,0-2.9,1.299-2.9,2.9
		c0,1.601,1.298,2.9,2.9,2.9C713.865,848.534,715.168,847.235,715.168,845.634"/>
	<path style="fill:#FFFFFF;" d="M724.67,855.026c0-1.631-1.318-2.947-2.945-2.947c-1.626,0-2.943,1.316-2.943,2.947
		c0,1.626,1.317,2.943,2.943,2.943C723.352,857.97,724.67,856.652,724.67,855.026"/>
	<path style="fill:#FFFFFF;" d="M543.734,718.937c0-1.113-0.902-2.01-2.01-2.01c-1.111,0-2.01,0.896-2.01,2.01
		c0,1.107,0.898,2.01,2.01,2.01C542.832,720.947,543.734,720.045,543.734,718.937"/>
	<path style="fill:#FFFFFF;" d="M554.068,728.328c0-1.632-1.322-2.953-2.953-2.953c-1.631,0-2.951,1.321-2.951,2.953
		c0,1.63,1.32,2.951,2.951,2.951C552.746,731.279,554.068,729.958,554.068,728.328"/>
	<path style="fill:#FFFFFF;" d="M647.355,718.937c0-0.719-0.582-1.299-1.299-1.299c-0.719,0-1.299,0.58-1.299,1.299
		c0,0.715,0.58,1.297,1.299,1.297C646.773,720.234,647.355,719.652,647.355,718.937"/>
	<path style="fill:#FFFFFF;" d="M668.957,747.109c0-2.272-1.842-4.116-4.117-4.116c-2.271,0-4.115,1.845-4.115,4.116
		c0,2.275,1.844,4.119,4.115,4.119C667.115,751.228,668.957,749.385,668.957,747.109"/>
	<path style="fill:#FFFFFF;" d="M711.18,728.328c0-1.271-1.029-2.302-2.301-2.302c-1.272,0-2.303,1.03-2.303,2.302
		c0,1.269,1.031,2.301,2.303,2.301C710.15,730.629,711.18,729.598,711.18,728.328"/>
</g>
<g id="Ebene_1">
</g>
</svg>
