<?xml version="1.0" encoding="iso-8859-1"?>
<!-- Generator: Adobe Illustrator 18.0.0, SVG Export Plug-In . SVG Version: 6.00 Build 0)  -->
<!DOCTYPE svg PUBLIC "-//W3C//DTD SVG 1.1//EN" "http://www.w3.org/Graphics/SVG/1.1/DTD/svg11.dtd">
<svg version="1.1" xmlns="http://www.w3.org/2000/svg" xmlns:xlink="http://www.w3.org/1999/xlink" x="0px" y="0px"
	 viewBox="0 0 1200 1643.104" style="enable-background:new 0 0 1200 1643.104;" xml:space="preserve">
<g id="f7">
	<path style="fill:#FFFFFF;" d="M329.157,808.066c0-2.161-1.752-3.913-3.913-3.913c-2.161,0-3.913,1.752-3.913,3.913
		c0,2.165,1.752,3.917,3.913,3.917C327.405,811.983,329.157,810.231,329.157,808.066"/>
	<path style="fill:#FFFFFF;" d="M487.674,855.024c0-1.943-1.575-3.519-3.519-3.519c-1.944,0-3.52,1.576-3.52,3.519
		s1.575,3.52,3.52,3.52C486.099,858.544,487.674,856.968,487.674,855.024"/>
	<path style="fill:#FFFFFF;" d="M632.94,845.634c0-1.071-0.869-1.943-1.94-1.943c-1.076,0-1.945,0.872-1.945,1.943
		c0,1.071,0.869,1.943,1.945,1.943C632.07,847.577,632.94,846.705,632.94,845.634"/>
	<path style="fill:#FFFFFF;" d="M624.815,855.024c0-1.771-1.435-3.207-3.209-3.207c-1.77,0-3.207,1.435-3.207,3.207
		c0,1.771,1.437,3.21,3.207,3.21C623.38,858.234,624.815,856.795,624.815,855.024"/>
	<path style="fill:#FFFFFF;" d="M673.508,855.024c0-2.514-2.037-4.551-4.551-4.551c-2.513,0-4.551,2.037-4.551,4.551
		c0,2.514,2.038,4.551,4.551,4.551C671.471,859.575,673.508,857.538,673.508,855.024"/>
	<path style="fill:#FFFFFF;" d="M811.381,845.634c0-0.686-0.555-1.241-1.242-1.241c-0.687,0-1.241,0.556-1.241,1.241
		c0,0.685,0.555,1.24,1.241,1.24C810.826,846.874,811.381,846.318,811.381,845.634"/>
	<path style="fill:#FFFFFF;" d="M905.727,826.852c0-0.991-0.803-1.792-1.791-1.792c-0.993,0-1.794,0.801-1.794,1.792
		c0,0.989,0.801,1.789,1.794,1.789C904.925,828.641,905.727,827.841,905.727,826.852"/>
	<path style="fill:#FFFFFF;" d="M564.343,817.46c0-0.709-0.574-1.279-1.282-1.279c-0.705,0-1.279,0.57-1.279,1.279
		c0,0.707,0.574,1.277,1.279,1.277C563.769,818.737,564.343,818.167,564.343,817.46"/>
	<path style="fill:#FFFFFF;" d="M536.095,826.852c0-0.587-0.47-1.062-1.058-1.062c-0.583,0-1.058,0.475-1.058,1.062
		c0,0.583,0.475,1.058,1.058,1.058C535.625,827.909,536.095,827.435,536.095,826.852"/>
	<path style="fill:#FFFFFF;" d="M586.92,718.935c0-0.689-0.559-1.247-1.246-1.247s-1.248,0.558-1.248,1.247
		c0,0.688,0.56,1.245,1.248,1.245S586.92,719.623,586.92,718.935"/>
	<path style="fill:#FFFFFF;" d="M579.377,728.205c0-1.369-1.111-2.477-2.481-2.477c-1.369,0-2.477,1.107-2.477,2.477
		c0,1.367,1.107,2.477,2.477,2.477C578.266,730.682,579.377,729.572,579.377,728.205"/>
	<path style="fill:#FFFFFF;" d="M612.307,747.107c0-0.167-0.139-0.303-0.305-0.303c-0.172,0-0.307,0.136-0.307,0.303
		c0,0.17,0.135,0.307,0.307,0.307C612.168,747.414,612.307,747.277,612.307,747.107"/>
</g>
<g id="Ebene_1">
</g>
</svg>
