<?xml version="1.0" encoding="iso-8859-1"?>
<!-- Generator: Adobe Illustrator 18.0.0, SVG Export Plug-In . SVG Version: 6.00 Build 0)  -->
<!DOCTYPE svg PUBLIC "-//W3C//DTD SVG 1.1//EN" "http://www.w3.org/Graphics/SVG/1.1/DTD/svg11.dtd">
<svg version="1.1" xmlns="http://www.w3.org/2000/svg" xmlns:xlink="http://www.w3.org/1999/xlink" x="0px" y="0px"
	 viewBox="0 0 2800 700" style="enable-background:new 0 0 2800 700;" xml:space="preserve">
<g id="m13">
	<path style="fill:#FFFFFF;" d="M1042.594,252.259c0-2.721-2.221-4.947-4.947-4.947c-2.732,0-4.948,2.226-4.948,4.947
		c0,2.739,2.216,4.952,4.948,4.952C1040.373,257.211,1042.594,254.998,1042.594,252.259"/>
	<path style="fill:#FFFFFF;" d="M997.216,274.144c0-1.841-1.481-3.324-3.324-3.324c-1.835,0-3.319,1.483-3.319,3.324
		c0,1.832,1.484,3.319,3.319,3.319C995.735,277.463,997.216,275.976,997.216,274.144"/>
	<path style="fill:#FFFFFF;" d="M1245.182,252.259c0-6.825-5.54-12.352-12.374-12.352c-6.833,0-12.365,5.528-12.365,12.352
		c0,6.834,5.532,12.38,12.365,12.38C1239.642,264.639,1245.182,259.093,1245.182,252.259"/>
	<path style="fill:#FFFFFF;" d="M1510.235,274.144c0-5.872-4.757-10.638-10.629-10.638c-5.879,0-10.634,4.766-10.634,10.638
		c0,5.868,4.755,10.634,10.634,10.634C1505.479,284.778,1510.235,280.012,1510.235,274.144"/>
	<path style="fill:#FFFFFF;" d="M1700.408,208.518c0-2.394-1.943-4.34-4.342-4.34c-2.39,0-4.335,1.945-4.335,4.34
		c0,2.39,1.945,4.34,4.335,4.34C1698.465,212.858,1700.408,210.908,1700.408,208.518"/>
	<path style="fill:#FFFFFF;" d="M1656.841,252.259c0-2.494-2.029-4.526-4.528-4.526s-4.521,2.032-4.521,4.526
		c0,2.508,2.022,4.53,4.521,4.53S1656.841,254.767,1656.841,252.259"/>
	<path style="fill:#FFFFFF;" d="M1759.37,186.643c0-3.705-3-6.698-6.693-6.698c-3.707,0-6.702,2.993-6.702,6.698
		c0,3.691,2.995,6.693,6.702,6.693C1756.37,193.336,1759.37,190.334,1759.37,186.643"/>
	<path style="fill:#FFFFFF;" d="M1735.522,186.643c0-2.603-2.127-4.725-4.734-4.725c-2.607,0-4.712,2.122-4.712,4.725
		c0,2.612,2.104,4.712,4.712,4.712C1733.395,191.354,1735.522,189.255,1735.522,186.643"/>
	<path style="fill:#FFFFFF;" d="M1819.948,230.389c0-0.907-0.744-1.646-1.651-1.646c-0.907,0-1.646,0.739-1.646,1.646
		s0.739,1.655,1.646,1.655C1819.204,232.044,1819.948,231.296,1819.948,230.389"/>
	<path style="fill:#FFFFFF;" d="M1751.375,441.978c0-3.598-2.92-6.512-6.521-6.512c-3.601,0-6.525,2.914-6.525,6.512
		c0,3.605,2.925,6.521,6.525,6.521C1748.455,448.499,1751.375,445.583,1751.375,441.978"/>
	<path style="fill:#FFFFFF;" d="M1486.909,420.157c0-4.528-3.669-8.199-8.192-8.199c-4.526,0-8.192,3.671-8.192,8.199
		c0,4.517,3.666,8.187,8.192,8.187C1483.24,428.345,1486.909,424.674,1486.909,420.157"/>
	<path style="fill:#FFFFFF;" d="M1060.396,420.724c0-3.734-3.03-6.757-6.761-6.757c-3.732,0-6.757,3.022-6.757,6.757
		c0,3.728,3.025,6.754,6.757,6.754C1057.366,427.479,1060.396,424.452,1060.396,420.724"/>
	<path style="fill:#FFFFFF;" d="M1082.53,508.225c0-3.796-3.069-6.861-6.858-6.861c-3.786,0-6.854,3.065-6.854,6.861
		c0,3.791,3.068,6.856,6.854,6.856C1079.461,515.082,1082.53,512.016,1082.53,508.225"/>
	<path style="fill:#FFFFFF;" d="M1872.265,420.498c0-1.843-1.501-3.349-3.356-3.349c-1.85,0-3.36,1.506-3.36,3.349
		c0,1.864,1.51,3.363,3.36,3.363C1870.764,423.86,1872.265,422.362,1872.265,420.498"/>
	<path style="fill:#FFFFFF;" d="M956.954,398.629c0-5.652-4.58-10.237-10.239-10.237c-5.65,0-10.237,4.585-10.237,10.237
		c0,5.659,4.587,10.232,10.237,10.232C952.373,408.862,956.954,404.289,956.954,398.629"/>
	<path style="fill:#FFFFFF;" d="M935.413,420.498c0-5.822-4.734-10.561-10.571-10.561c-5.843,0-10.574,4.739-10.574,10.561
		c0,5.843,4.731,10.579,10.574,10.579C930.679,431.077,935.413,426.341,935.413,420.498"/>
	<path style="fill:#FFFFFF;" d="M971.999,420.498c0-1.87-1.525-3.399-3.411-3.399c-1.88,0-3.403,1.528-3.403,3.399
		c0,1.895,1.523,3.417,3.403,3.417C970.475,423.915,971.999,422.393,971.999,420.498"/>
	<path style="fill:#FFFFFF;" d="M1002.594,486.132c0-6.693-5.426-12.135-12.133-12.135c-6.697,0-12.122,5.441-12.122,12.135
		c0,6.7,5.426,12.135,12.122,12.135C997.168,498.267,1002.594,492.832,1002.594,486.132"/>
	<path style="fill:#FFFFFF;" d="M1216.711,442.387c0-5.566-4.507-10.067-10.069-10.067c-5.554,0-10.056,4.501-10.056,10.067
		c0,5.555,4.502,10.053,10.056,10.053C1212.204,452.44,1216.711,447.941,1216.711,442.387"/>
	<path style="fill:#FFFFFF;" d="M1210.963,464.262c0-2.392-1.928-4.328-4.321-4.328c-2.382,0-4.32,1.936-4.32,4.328
		c0,2.383,1.939,4.322,4.32,4.322C1209.034,468.583,1210.963,466.645,1210.963,464.262"/>
	<path style="fill:#FFFFFF;" d="M1210.667,486.132c0-2.217-1.797-4.02-4.025-4.02c-2.221,0-4.022,1.803-4.022,4.02
		c0,2.224,1.801,4.025,4.022,4.025C1208.87,490.157,1210.667,488.357,1210.667,486.132"/>
	<path style="fill:#FFFFFF;" d="M1290.646,464.262c0-6.829-5.532-12.373-12.367-12.373c-6.837,0-12.375,5.544-12.375,12.373
		c0,6.834,5.538,12.375,12.375,12.375C1285.113,476.637,1290.646,471.095,1290.646,464.262"/>
	<path style="fill:#FFFFFF;" d="M1357.956,464.262c0-5.877-4.757-10.636-10.631-10.636c-5.859,0-10.625,4.759-10.625,10.636
		c0,5.868,4.766,10.634,10.625,10.634C1353.199,474.895,1357.956,470.13,1357.956,464.262"/>
	<path style="fill:#FFFFFF;" d="M1546.515,420.498c0-2.215-1.8-4.018-4.022-4.018c-2.215,0-4.022,1.802-4.022,4.018
		c0,2.227,1.807,4.022,4.022,4.022C1544.715,424.52,1546.515,422.724,1546.515,420.498"/>
	<path style="fill:#FFFFFF;" d="M1572.292,442.387c0-4.387-3.546-7.922-7.927-7.922c-4.374,0-7.922,3.535-7.922,7.922
		c0,4.371,3.548,7.917,7.922,7.917C1568.746,450.304,1572.292,446.758,1572.292,442.387"/>
	<path style="fill:#FFFFFF;" d="M1638.514,442.387c0-4.709-3.821-8.523-8.514-8.523c-4.712,0-8.53,3.813-8.53,8.523
		c0,4.698,3.818,8.514,8.53,8.514C1634.694,450.9,1638.514,447.084,1638.514,442.387"/>
	<path style="fill:#FFFFFF;" d="M1664.246,486.132c0-6.834-5.537-12.375-12.38-12.375c-6.832,0-12.37,5.541-12.37,12.375
		c0,6.836,5.539,12.375,12.37,12.375C1658.709,498.507,1664.246,492.968,1664.246,486.132"/>
</g>
<g id="Ebene_1">
</g>
</svg>
