<?xml version="1.0" encoding="iso-8859-1"?>
<!-- Generator: Adobe Illustrator 18.0.0, SVG Export Plug-In . SVG Version: 6.00 Build 0)  -->
<!DOCTYPE svg PUBLIC "-//W3C//DTD SVG 1.1//EN" "http://www.w3.org/Graphics/SVG/1.1/DTD/svg11.dtd">
<svg version="1.1" xmlns="http://www.w3.org/2000/svg" xmlns:xlink="http://www.w3.org/1999/xlink" x="0px" y="0px"
	 viewBox="0 0 2800 700" style="enable-background:new 0 0 2800 700;" xml:space="preserve">
<g id="m6">
	<path style="fill:#FFFFFF;" d="M1435.386,252.591c0-6.834-5.539-12.375-12.375-12.375c-6.834,0-12.371,5.541-12.371,12.375
		c0,6.838,5.537,12.38,12.371,12.38C1429.847,264.97,1435.386,259.429,1435.386,252.591"/>
	<path style="fill:#FFFFFF;" d="M1387.7,274.47c0-4.662-3.784-8.439-8.437-8.439c-4.655,0-8.438,3.777-8.438,8.439
		c0,4.657,3.783,8.439,8.438,8.439C1383.916,282.909,1387.7,279.127,1387.7,274.47"/>
	<path style="fill:#FFFFFF;" d="M1286.15,208.518c0-5.306-4.292-9.586-9.59-9.586c-5.299,0-9.593,4.281-9.593,9.586
		c0,5.296,4.294,9.582,9.593,9.582C1281.857,218.1,1286.15,213.815,1286.15,208.518"/>
	<path style="fill:#FFFFFF;" d="M1213.786,230.389c0-1.578-1.278-2.857-2.856-2.857c-1.568,0-2.843,1.279-2.843,2.857
		c0,1.583,1.275,2.852,2.843,2.852C1212.509,233.241,1213.786,231.971,1213.786,230.389"/>
	<path style="fill:#FFFFFF;" d="M1481.753,208.518c0-2.222-1.803-4.036-4.024-4.036c-2.229,0-4.027,1.814-4.027,4.036
		c0,2.217,1.798,4.027,4.027,4.027C1479.951,212.545,1481.753,210.736,1481.753,208.518"/>
	<path style="fill:#FFFFFF;" d="M1551.161,230.389c0-4.317-3.501-7.809-7.804-7.809c-4.321,0-7.818,3.492-7.818,7.809
		c0,4.312,3.496,7.809,7.818,7.809C1547.66,238.198,1551.161,234.701,1551.161,230.389"/>
	<path style="fill:#FFFFFF;" d="M1612.594,230.389c0-2.217-1.803-4.018-4.025-4.018c-2.229,0-4.036,1.8-4.036,4.018
		c0,2.227,1.807,4.018,4.036,4.018C1610.792,234.407,1612.594,232.615,1612.594,230.389"/>
	<path style="fill:#FFFFFF;" d="M1612.599,252.259c0-2.217-1.807-4.031-4.029-4.031c-2.229,0-4.036,1.814-4.036,4.031
		c0,2.236,1.807,4.027,4.036,4.027C1610.792,256.286,1612.599,254.495,1612.599,252.259"/>
	<path style="fill:#FFFFFF;" d="M1699.882,252.259c0-2.095-1.703-3.805-3.816-3.805c-2.104,0-3.816,1.71-3.816,3.805
		c0,2.113,1.712,3.818,3.816,3.818C1698.179,256.078,1699.882,254.373,1699.882,252.259"/>
	<path style="fill:#FFFFFF;" d="M1761.052,208.518c0-4.621-3.761-8.375-8.385-8.375c-4.621,0-8.366,3.754-8.366,8.375
		c0,4.616,3.746,8.366,8.366,8.366C1757.291,216.885,1761.052,213.135,1761.052,208.518"/>
	<path style="fill:#FFFFFF;" d="M1704.92,485.733c0-2.106-1.703-3.816-3.811-3.816c-2.109,0-3.818,1.71-3.818,3.816
		c0,2.113,1.71,3.818,3.818,3.818C1703.217,489.551,1704.92,487.846,1704.92,485.733"/>
	<path style="fill:#FFFFFF;" d="M1084.208,398.852c0-4.721-3.818-8.546-8.536-8.546c-4.716,0-8.534,3.825-8.534,8.546
		c0,4.709,3.818,8.536,8.534,8.536C1080.39,407.388,1084.208,403.561,1084.208,398.852"/>
	<path style="fill:#FFFFFF;" d="M1085.917,420.724c0-5.657-4.59-10.241-10.245-10.241c-5.654,0-10.24,4.585-10.24,10.241
		c0,5.648,4.587,10.239,10.24,10.239C1081.327,430.964,1085.917,426.372,1085.917,420.724"/>
	<path style="fill:#FFFFFF;" d="M1087.545,442.604c0-6.562-5.31-11.881-11.873-11.881c-6.563,0-11.872,5.319-11.872,11.881
		c0,6.546,5.309,11.869,11.872,11.869C1082.235,454.474,1087.545,449.15,1087.545,442.604"/>
	<path style="fill:#FFFFFF;" d="M1128.69,508.225c0-4.94-4.001-8.949-8.946-8.949c-4.936,0-8.941,4.009-8.941,8.949
		c0,4.938,4.005,8.942,8.941,8.942C1124.69,517.167,1128.69,513.163,1128.69,508.225"/>
	<path style="fill:#FFFFFF;" d="M1002.5,420.498c0-6.643-5.384-12.026-12.039-12.026c-6.646,0-12.029,5.383-12.029,12.026
		c0,6.655,5.384,12.04,12.029,12.04C997.116,432.537,1002.5,427.152,1002.5,420.498"/>
	<path style="fill:#FFFFFF;" d="M972.672,486.132c0-2.252-1.829-4.083-4.083-4.083c-2.257,0-4.08,1.832-4.08,4.083
		c0,2.256,1.823,4.081,4.08,4.081C970.843,490.214,972.672,488.388,972.672,486.132"/>
	<path style="fill:#FFFFFF;" d="M977.618,508.007c0-4.983-4.042-9.022-9.03-9.022c-4.985,0-9.02,4.038-9.02,9.022
		c0,4.984,4.036,9.026,9.02,9.026C973.576,517.034,977.618,512.991,977.618,508.007"/>
	<path style="fill:#FFFFFF;" d="M1208.626,420.498c0-1.084-0.882-1.966-1.984-1.966c-1.086,0-1.979,0.882-1.979,1.966
		c0,1.102,0.893,1.986,1.979,1.986C1207.744,422.484,1208.626,421.6,1208.626,420.498"/>
	<path style="fill:#FFFFFF;" d="M1230.861,420.498c0-1.283-1.048-2.328-2.342-2.328c-1.286,0-2.331,1.045-2.331,2.328
		c0,1.302,1.045,2.342,2.331,2.342C1229.813,422.84,1230.861,421.799,1230.861,420.498"/>
	<path style="fill:#FFFFFF;" d="M1195.291,486.132c0-5.813-4.707-10.521-10.522-10.521c-5.807,0-10.521,4.707-10.521,10.521
		c0,5.804,4.715,10.52,10.521,10.52C1190.584,496.653,1195.291,491.937,1195.291,486.132"/>
	<path style="fill:#FFFFFF;" d="M1377.62,508.007c0-4.65-3.773-8.412-8.412-8.412c-4.643,0-8.41,3.761-8.41,8.412
		c0,4.644,3.766,8.414,8.41,8.414C1373.848,516.422,1377.62,512.651,1377.62,508.007"/>
	<path style="fill:#FFFFFF;" d="M1661.46,508.007c0-5.301-4.292-9.586-9.593-9.586c-5.294,0-9.582,4.285-9.582,9.586
		c0,5.297,4.288,9.595,9.582,9.595C1657.167,517.603,1661.46,513.304,1661.46,508.007"/>
</g>
<g id="Ebene_1">
</g>
</svg>
