<?xml version="1.0" encoding="iso-8859-1"?>
<!-- Generator: Adobe Illustrator 18.0.0, SVG Export Plug-In . SVG Version: 6.00 Build 0)  -->
<!DOCTYPE svg PUBLIC "-//W3C//DTD SVG 1.1//EN" "http://www.w3.org/Graphics/SVG/1.1/DTD/svg11.dtd">
<svg version="1.1" xmlns="http://www.w3.org/2000/svg" xmlns:xlink="http://www.w3.org/1999/xlink" x="0px" y="0px"
	 viewBox="0 0 2800 700" style="enable-background:new 0 0 2800 700;" xml:space="preserve">
<g id="m8">
	<path style="fill:#FFFFFF;" d="M1424.691,186.965c0-0.925-0.746-1.687-1.68-1.687c-0.93,0-1.682,0.762-1.682,1.687
		c0,0.93,0.753,1.682,1.682,1.682C1423.945,188.647,1424.691,187.895,1424.691,186.965"/>
	<path style="fill:#FFFFFF;" d="M1071.345,164.763c0-6.53-5.292-11.831-11.823-11.831c-6.534,0-11.835,5.301-11.835,11.831
		c0,6.539,5.301,11.831,11.835,11.831C1066.053,176.594,1071.345,171.302,1071.345,164.763"/>
	<path style="fill:#FFFFFF;" d="M1091.505,252.259c0-5.578-4.527-10.094-10.11-10.094c-5.581,0-10.102,4.516-10.102,10.094
		c0,5.587,4.521,10.112,10.102,10.112C1086.978,262.372,1091.505,257.846,1091.505,252.259"/>
	<path style="fill:#FFFFFF;" d="M1213.786,164.763c0-1.574-1.278-2.848-2.856-2.848c-1.582,0-2.853,1.274-2.853,2.848
		c0,1.587,1.272,2.857,2.853,2.857C1212.509,167.62,1213.786,166.35,1213.786,164.763"/>
	<path style="fill:#FFFFFF;" d="M1324.333,186.643c0-2.217-1.801-4.022-4.023-4.022c-2.221,0-4.02,1.805-4.02,4.022
		c0,2.222,1.799,4.018,4.02,4.018C1322.531,190.661,1324.333,188.865,1324.333,186.643"/>
	<path style="fill:#FFFFFF;" d="M1324.339,230.389c0-2.217-1.808-4.018-4.03-4.018c-2.221,0-4.02,1.8-4.02,4.018
		c0,2.227,1.799,4.031,4.02,4.031C1322.531,234.42,1324.339,232.615,1324.339,230.389"/>
	<path style="fill:#FFFFFF;" d="M1212.98,274.144c0-1.143-0.921-2.05-2.05-2.05c-1.131,0-2.048,0.907-2.048,2.05
		c0,1.138,0.917,2.054,2.048,2.054C1212.06,276.198,1212.98,275.282,1212.98,274.144"/>
	<path style="fill:#FFFFFF;" d="M1527.059,274.144c0-3.083-2.492-5.587-5.582-5.587c-3.093,0-5.575,2.503-5.575,5.587
		c0,3.079,2.483,5.582,5.575,5.582C1524.567,279.726,1527.059,277.223,1527.059,274.144"/>
	<path style="fill:#FFFFFF;" d="M1642.31,208.518c0-6.562-5.317-11.876-11.865-11.876c-6.562,0-11.876,5.315-11.876,11.876
		c0,6.561,5.315,11.876,11.876,11.876C1636.993,220.394,1642.31,215.08,1642.31,208.518"/>
	<path style="fill:#FFFFFF;" d="M1804.61,252.259c0-4.516-3.675-8.176-8.188-8.176c-4.516,0-8.18,3.66-8.18,8.176
		c0,4.53,3.664,8.194,8.18,8.194C1800.934,260.454,1804.61,256.79,1804.61,252.259"/>
	<path style="fill:#FFFFFF;" d="M1856.443,442.387c0-5.208-4.208-9.41-9.409-9.41c-5.201,0-9.41,4.201-9.41,9.41
		c0,5.197,4.208,9.403,9.41,9.403C1852.235,451.789,1856.443,447.583,1856.443,442.387"/>
	<path style="fill:#FFFFFF;" d="M1828.752,486.132c0-1.975-1.61-3.594-3.6-3.594c-1.982,0-3.58,1.619-3.58,3.594
		c0,1.984,1.599,3.596,3.58,3.596C1827.142,489.728,1828.752,488.116,1828.752,486.132"/>
	<path style="fill:#FFFFFF;" d="M1188.451,420.498c0-2.027-1.647-3.675-3.682-3.675c-2.029,0-3.679,1.648-3.679,3.675
		c0,2.043,1.649,3.696,3.679,3.696C1186.804,424.193,1188.451,422.541,1188.451,420.498"/>
	<path style="fill:#FFFFFF;" d="M1209.969,508.007c0-1.832-1.485-3.333-3.327-3.333c-1.831,0-3.327,1.501-3.327,3.333
		c0,1.834,1.497,3.326,3.327,3.326C1208.484,511.334,1209.969,509.842,1209.969,508.007"/>
	<path style="fill:#FFFFFF;" d="M1552.09,508.007c0-5.301-4.294-9.586-9.598-9.586c-5.296,0-9.584,4.285-9.584,9.586
		c0,5.297,4.288,9.595,9.584,9.595C1547.796,517.603,1552.09,513.304,1552.09,508.007"/>
	<path style="fill:#FFFFFF;" d="M1877.044,508.007c0-4.503-3.639-8.135-8.135-8.135c-4.489,0-8.135,3.632-8.135,8.135
		c0,4.494,3.646,8.135,8.135,8.135C1873.405,516.143,1877.044,512.501,1877.044,508.007"/>
</g>
<g id="Ebene_1">
</g>
</svg>
