<?xml version="1.0" encoding="iso-8859-1"?>
<!-- Generator: Adobe Illustrator 18.0.0, SVG Export Plug-In . SVG Version: 6.00 Build 0)  -->
<!DOCTYPE svg PUBLIC "-//W3C//DTD SVG 1.1//EN" "http://www.w3.org/Graphics/SVG/1.1/DTD/svg11.dtd">
<svg version="1.1" xmlns="http://www.w3.org/2000/svg" xmlns:xlink="http://www.w3.org/1999/xlink" x="0px" y="0px"
	 viewBox="0 0 2800 700" style="enable-background:new 0 0 2800 700;" xml:space="preserve">
<g id="m9">
	<path style="fill:#FFFFFF;" d="M1435.386,230.715c0-6.829-5.539-12.37-12.375-12.37c-6.825,0-12.366,5.541-12.366,12.37
		c0,6.829,5.542,12.37,12.366,12.37C1429.847,243.086,1435.386,237.544,1435.386,230.715"/>
	<path style="fill:#FFFFFF;" d="M1389.867,252.591c0-5.863-4.752-10.607-10.604-10.607c-5.858,0-10.608,4.743-10.608,10.607
		c0,5.854,4.75,10.607,10.608,10.607C1385.115,263.197,1389.867,258.445,1389.867,252.591"/>
	<path style="fill:#FFFFFF;" d="M1213.786,186.643c0-1.573-1.278-2.857-2.856-2.857c-1.568,0-2.843,1.283-2.843,2.857
		c0,1.573,1.275,2.857,2.843,2.857C1212.509,189.5,1213.786,188.216,1213.786,186.643"/>
	<path style="fill:#FFFFFF;" d="M1245.187,208.518c0-6.838-5.538-12.375-12.378-12.375c-6.837,0-12.374,5.537-12.374,12.375
		c0,6.829,5.537,12.37,12.374,12.37C1239.649,220.889,1245.187,215.347,1245.187,208.518"/>
	<path style="fill:#FFFFFF;" d="M1239.611,274.144c0-3.764-3.039-6.811-6.803-6.811c-3.757,0-6.805,3.047-6.805,6.811
		c0,3.759,3.048,6.806,6.805,6.806C1236.572,280.95,1239.611,277.903,1239.611,274.144"/>
	<path style="fill:#FFFFFF;" d="M1554.036,252.259c0-5.895-4.789-10.67-10.679-10.67c-5.906,0-10.684,4.775-10.684,10.67
		c0,5.904,4.777,10.684,10.684,10.684C1549.247,262.943,1554.036,258.164,1554.036,252.259"/>
	<path style="fill:#FFFFFF;" d="M1612.594,208.518c0-2.222-1.803-4.036-4.025-4.036c-2.229,0-4.036,1.814-4.036,4.036
		c0,2.217,1.807,4.027,4.036,4.027C1610.792,212.545,1612.594,210.736,1612.594,208.518"/>
	<path style="fill:#FFFFFF;" d="M1657.898,274.144c0-3.083-2.49-5.587-5.584-5.587c-3.086,0-5.575,2.503-5.575,5.587
		c0,3.079,2.49,5.582,5.575,5.582C1655.408,279.726,1657.898,277.223,1657.898,274.144"/>
	<path style="fill:#FFFFFF;" d="M1775.284,507.609c0-4.725-3.834-8.557-8.559-8.557c-4.725,0-8.552,3.832-8.552,8.557
		c0,4.723,3.827,8.552,8.552,8.552C1771.45,516.161,1775.284,512.331,1775.284,507.609"/>
	<path style="fill:#FFFFFF;" d="M1439.445,420.157c0-2.483-2-4.485-4.485-4.485c-2.476,0-4.48,2.002-4.48,4.485
		c0,2.471,2.004,4.476,4.48,4.476C1437.445,424.633,1439.445,422.629,1439.445,420.157"/>
	<path style="fill:#FFFFFF;" d="M1468.272,420.157c0-6.326-5.115-11.441-11.432-11.441s-11.434,5.115-11.434,11.441
		c0,6.31,5.117,11.427,11.434,11.427S1468.272,426.468,1468.272,420.157"/>
	<path style="fill:#FFFFFF;" d="M1437.839,442.028c0-1.58-1.292-2.866-2.879-2.866c-1.585,0-2.861,1.286-2.861,2.866
		c0,1.587,1.276,2.866,2.861,2.866C1436.547,444.894,1437.839,443.615,1437.839,442.028"/>
	<path style="fill:#FFFFFF;" d="M1485.472,485.774c0-3.725-3.034-6.75-6.754-6.75c-3.728,0-6.759,3.025-6.759,6.75
		c0,3.736,3.031,6.75,6.759,6.75C1482.438,492.524,1485.472,489.511,1485.472,485.774"/>
	<path style="fill:#FFFFFF;" d="M1133.372,464.475c0-7.528-6.104-13.629-13.628-13.629c-7.525,0-13.629,6.101-13.629,13.629
		c0,7.521,6.104,13.627,13.629,13.627C1127.269,478.102,1133.372,471.996,1133.372,464.475"/>
	<path style="fill:#FFFFFF;" d="M1058.072,508.225c0-2.455-1.988-4.435-4.437-4.435c-2.45,0-4.435,1.98-4.435,4.435
		c0,2.453,1.985,4.435,4.435,4.435C1056.084,512.66,1058.072,510.678,1058.072,508.225"/>
	<path style="fill:#FFFFFF;" d="M995.074,508.007c0-2.551-2.065-4.609-4.613-4.609c-2.536,0-4.605,2.059-4.605,4.609
		c0,2.549,2.069,4.603,4.605,4.603C993.009,512.61,995.074,510.556,995.074,508.007"/>
	<path style="fill:#FFFFFF;" d="M1327.136,508.007c0-0.927-0.757-1.682-1.679-1.682c-0.927,0-1.686,0.755-1.686,1.682
		c0,0.925,0.758,1.68,1.686,1.68C1326.379,509.688,1327.136,508.933,1327.136,508.007"/>
	<path style="fill:#FFFFFF;" d="M1593.054,464.262c0-3.761-3.05-6.809-6.809-6.809c-3.759,0-6.802,3.047-6.802,6.809
		c0,3.755,3.043,6.795,6.802,6.795C1590.005,471.057,1593.054,468.016,1593.054,464.262"/>
</g>
<g id="Ebene_1">
</g>
</svg>
