<?xml version="1.0" encoding="iso-8859-1"?>
<!-- Generator: Adobe Illustrator 18.0.0, SVG Export Plug-In . SVG Version: 6.00 Build 0)  -->
<!DOCTYPE svg PUBLIC "-//W3C//DTD SVG 1.1//EN" "http://www.w3.org/Graphics/SVG/1.1/DTD/svg11.dtd">
<svg version="1.1" xmlns="http://www.w3.org/2000/svg" xmlns:xlink="http://www.w3.org/1999/xlink" x="0px" y="0px"
	 viewBox="0 0 1200 1760.01" style="enable-background:new 0 0 1200 1760.01;" xml:space="preserve">
<g id="n13">
	<path style="fill:#FFFFFF;" d="M494.834,905.314c0-1.74-1.409-3.154-3.149-3.154c-1.745,0-3.154,1.414-3.154,3.154
		c0,1.74,1.409,3.154,3.154,3.154C493.425,908.469,494.834,907.055,494.834,905.314"/>
	<path style="fill:#FFFFFF;" d="M771.453,868.06c0-1.017-0.821-1.838-1.837-1.838c-1.017,0-1.838,0.821-1.838,1.838
		c0,1.016,0.821,1.838,1.838,1.838C770.632,869.898,771.453,869.076,771.453,868.06"/>
	<path style="fill:#FFFFFF;" d="M752.959,886.842c0-1.171-0.954-2.124-2.125-2.124c-1.175,0-2.122,0.953-2.122,2.124
		c0,1.174,0.947,2.124,2.122,2.124C752.005,888.966,752.959,888.016,752.959,886.842"/>
	<path style="fill:#FFFFFF;" d="M764.366,886.842c0-2.287-1.856-4.142-4.142-4.142c-2.289,0-4.141,1.854-4.141,4.142
		c0,2.289,1.852,4.141,4.141,4.141C762.511,890.982,764.366,889.131,764.366,886.842"/>
	<path style="fill:#FFFFFF;" d="M712.034,868.215c0-2.488-2.018-4.51-4.51-4.51c-2.491,0-4.51,2.021-4.51,4.51
		c0,2.492,2.019,4.513,4.51,4.513C710.017,872.727,712.034,870.707,712.034,868.215"/>
	<path style="fill:#FFFFFF;" d="M712.576,877.609c0-2.791-2.261-5.051-5.052-5.051c-2.791,0-5.051,2.26-5.051,5.051
		c0,2.786,2.26,5.047,5.051,5.047C710.315,882.656,712.576,880.396,712.576,877.609"/>
	<path style="fill:#FFFFFF;" d="M737.11,877.609c0-0.781-0.633-1.41-1.414-1.41c-0.775,0-1.409,0.629-1.409,1.41
		c0,0.776,0.634,1.41,1.409,1.41C736.477,879.019,737.11,878.386,737.11,877.609"/>
	<path style="fill:#FFFFFF;" d="M730.426,887c0-2.275-1.845-4.119-4.12-4.119c-2.271,0-4.114,1.844-4.114,4.119
		c0,2.274,1.843,4.115,4.114,4.115C728.581,891.115,730.426,889.274,730.426,887"/>
	<path style="fill:#FFFFFF;" d="M654.947,887.038c0-0.861-0.7-1.558-1.559-1.558c-0.857,0-1.558,0.696-1.558,1.558
		c0,0.858,0.701,1.554,1.558,1.554C654.247,888.592,654.947,887.896,654.947,887.038"/>
	<path style="fill:#FFFFFF;" d="M656.326,905.819c0-1.624-1.315-2.938-2.938-2.938c-1.624,0-2.94,1.313-2.94,2.938
		c0,1.624,1.316,2.941,2.94,2.941C655.012,908.761,656.326,907.443,656.326,905.819"/>
	<path style="fill:#FFFFFF;" d="M345.803,867.732c0-2.492-2.021-4.514-4.514-4.514c-2.495,0-4.517,2.021-4.517,4.514
		c0,2.496,2.021,4.517,4.517,4.517C343.781,872.249,345.803,870.228,345.803,867.732"/>
	<path style="fill:#FFFFFF;" d="M633.651,867.732c0-0.678-0.547-1.23-1.227-1.23c-0.681,0-1.228,0.553-1.228,1.23
		c0,0.682,0.547,1.229,1.228,1.229C633.104,868.962,633.651,868.414,633.651,867.732"/>
	<path style="fill:#FFFFFF;" d="M372.212,877.123c0-1.517-1.229-2.75-2.75-2.75c-1.517,0-2.75,1.233-2.75,2.75
		c0,1.521,1.233,2.75,2.75,2.75C370.982,879.873,372.212,878.643,372.212,877.123"/>
	<path style="fill:#FFFFFF;" d="M409.83,877.123c0-1.546-1.255-2.797-2.802-2.797c-1.546,0-2.801,1.251-2.801,2.797
		c0,1.547,1.255,2.802,2.801,2.802C408.575,879.925,409.83,878.67,409.83,877.123"/>
	<path style="fill:#FFFFFF;" d="M389.885,895.908c0-0.906-0.733-1.638-1.638-1.638c-0.905,0-1.638,0.731-1.638,1.638
		c0,0.906,0.732,1.639,1.638,1.639C389.152,897.547,389.885,896.814,389.885,895.908"/>
	<path style="fill:#FFFFFF;" d="M446.611,877.123c0-2.726-2.209-4.938-4.938-4.938c-2.726,0-4.939,2.213-4.939,4.938
		c0,2.73,2.213,4.94,4.939,4.94C444.402,882.062,446.611,879.853,446.611,877.123"/>
	<path style="fill:#FFFFFF;" d="M933.082,867.732c0-2.209-1.792-3.998-4.001-3.998c-2.209,0-4.001,1.789-4.001,3.998
		c0,2.209,1.792,4.002,4.001,4.002C931.29,871.734,933.082,869.941,933.082,867.732"/>
	<path style="fill:#FFFFFF;" d="M401.261,905.299c0-1.998-1.624-3.622-3.623-3.622c-1.998,0-3.622,1.624-3.622,3.622
		c0,1.999,1.624,3.623,3.622,3.623C399.637,908.922,401.261,907.298,401.261,905.299"/>
	<path style="fill:#FFFFFF;" d="M531.477,886.518c0-2.525-2.044-4.568-4.568-4.568c-2.523,0-4.565,2.043-4.565,4.568
		c0,2.521,2.043,4.564,4.565,4.564C529.433,891.082,531.477,889.039,531.477,886.518"/>
	<path style="fill:#FFFFFF;" d="M518.588,895.908c0-0.592-0.479-1.071-1.071-1.071c-0.589,0-1.07,0.48-1.07,1.071
		c0,0.593,0.481,1.071,1.07,1.071C518.109,896.979,518.588,896.501,518.588,895.908"/>
	<path style="fill:#FFFFFF;" d="M607.365,905.299c0-1.719-1.396-3.113-3.116-3.113c-1.719,0-3.114,1.395-3.114,3.113
		c0,1.72,1.396,3.115,3.114,3.115C605.97,908.414,607.365,907.018,607.365,905.299"/>
	<path style="fill:#FFFFFF;" d="M898.917,877.123c0-1.951-1.58-3.533-3.534-3.533c-1.95,0-3.531,1.582-3.531,3.533
		c0,1.955,1.581,3.534,3.531,3.534C897.337,880.657,898.917,879.078,898.917,877.123"/>
	<path style="fill:#FFFFFF;" d="M999.579,895.906c0-2.725-2.207-4.938-4.939-4.938c-2.725,0-4.938,2.214-4.938,4.938
		c0,2.73,2.214,4.94,4.938,4.94C997.372,900.846,999.579,898.637,999.579,895.906"/>
	<path style="fill:#FFFFFF;" d="M210.727,886.474c0-2.846-2.305-5.153-5.153-5.153c-2.846,0-5.153,2.308-5.153,5.153
		s2.308,5.153,5.153,5.153C208.423,891.627,210.727,889.319,210.727,886.474"/>
	<path style="fill:#FFFFFF;" d="M209.712,895.864c0-2.286-1.852-4.138-4.138-4.138c-2.286,0-4.138,1.852-4.138,4.138
		c0,2.286,1.852,4.138,4.138,4.138C207.86,900.002,209.712,898.15,209.712,895.864"/>
	<path style="fill:#FFFFFF;" d="M208.401,914.646c0-1.557-1.266-2.823-2.827-2.823c-1.56,0-2.823,1.267-2.823,2.823
		c0,1.561,1.263,2.827,2.823,2.827C207.136,917.473,208.401,916.207,208.401,914.646"/>
	<path style="fill:#FFFFFF;" d="M522.417,778.58c0-1.789-1.451-3.24-3.24-3.24c-1.789,0-3.239,1.451-3.239,3.24
		c0,1.789,1.45,3.239,3.239,3.239C520.966,781.819,522.417,780.369,522.417,778.58"/>
	<path style="fill:#FFFFFF;" d="M514.73,787.971c0-2.732-2.213-4.947-4.944-4.947c-2.731,0-4.947,2.216-4.947,4.947
		c0,2.731,2.216,4.943,4.947,4.943C512.518,792.914,514.73,790.702,514.73,787.971"/>
	<path style="fill:#FFFFFF;" d="M539.976,787.971c0-1.115-0.901-2.018-2.018-2.018c-1.114,0-2.017,0.902-2.017,2.018
		c0,1.115,0.902,2.018,2.017,2.018C539.074,789.988,539.976,789.086,539.976,787.971"/>
	<path style="fill:#FFFFFF;" d="M560.764,769.211c0-1.615-1.307-2.926-2.923-2.926c-1.615,0-2.923,1.311-2.923,2.926
		c0,1.613,1.308,2.924,2.923,2.924C559.457,772.135,560.764,770.824,560.764,769.211"/>
	<path style="fill:#FFFFFF;" d="M824.888,797.385c0-2.258-1.828-4.088-4.086-4.088c-2.258,0-4.086,1.83-4.086,4.088
		c0,2.256,1.828,4.086,4.086,4.086C823.06,801.471,824.888,799.641,824.888,797.385"/>
	<path style="fill:#FFFFFF;" d="M438.919,769.211c0-1.141-0.924-2.064-2.06-2.064c-1.142,0-2.062,0.924-2.062,2.064
		c0,1.139,0.921,2.062,2.062,2.062C437.995,771.273,438.919,770.35,438.919,769.211"/>
	<path style="fill:#FFFFFF;" d="M431.27,778.602c0-2.102-1.704-3.806-3.806-3.806c-2.103,0-3.803,1.703-3.803,3.806
		c0,2.102,1.7,3.803,3.803,3.803C429.565,782.405,431.27,780.704,431.27,778.602"/>
	<path style="fill:#FFFFFF;" d="M451.357,787.993c0-2.823-2.289-5.109-5.108-5.109c-2.824,0-5.11,2.286-5.11,5.109
		c0,2.819,2.286,5.11,5.11,5.11C449.068,793.103,451.357,790.812,451.357,787.993"/>
	<path style="fill:#FFFFFF;" d="M773.717,769.075c0-1.064-0.86-1.925-1.924-1.925c-1.063,0-1.925,0.861-1.925,1.925
		c0,1.06,0.862,1.922,1.925,1.922C772.856,770.997,773.717,770.136,773.717,769.075"/>
	<path style="fill:#FFFFFF;" d="M833.829,806.775c0-2.006-1.627-3.638-3.637-3.638c-2.006,0-3.637,1.632-3.637,3.638
		c0,2.01,1.631,3.637,3.637,3.637C832.202,810.412,833.829,808.785,833.829,806.775"/>
	<path style="fill:#FFFFFF;" d="M887.031,769.268c0-0.371-0.306-0.677-0.679-0.677c-0.376,0-0.676,0.306-0.676,0.677
		c0,0.376,0.3,0.678,0.676,0.678C886.726,769.945,887.031,769.643,887.031,769.268"/>
	<path style="fill:#FFFFFF;" d="M608.55,788.055c0-2.287-1.856-4.145-4.145-4.145c-2.29,0-4.146,1.857-4.146,4.145
		c0,2.29,1.855,4.144,4.146,4.144C606.694,792.199,608.55,790.345,608.55,788.055"/>
	<path style="fill:#FFFFFF;" d="M615.387,806.841c0-0.909-0.734-1.644-1.64-1.644c-0.91,0-1.646,0.735-1.646,1.644
		c0,0.906,0.735,1.642,1.646,1.642C614.652,808.482,615.387,807.747,615.387,806.841"/>
	<path style="fill:#FFFFFF;" d="M334.637,797.385c0-1.619-1.308-2.93-2.926-2.93c-1.618,0-2.93,1.31-2.93,2.93
		c0,1.617,1.312,2.929,2.93,2.929C333.329,800.313,334.637,799.002,334.637,797.385"/>
	<path style="fill:#FFFFFF;" d="M393.525,787.924c0-2.287-1.855-4.146-4.146-4.146c-2.29,0-4.145,1.858-4.145,4.146
		c0,2.289,1.855,4.146,4.145,4.146C391.67,792.069,393.525,790.213,393.525,787.924"/>
</g>
<g id="Ebene_1">
</g>
</svg>
