<?xml version="1.0" encoding="iso-8859-1"?>
<!-- Generator: Adobe Illustrator 18.0.0, SVG Export Plug-In . SVG Version: 6.00 Build 0)  -->
<!DOCTYPE svg PUBLIC "-//W3C//DTD SVG 1.1//EN" "http://www.w3.org/Graphics/SVG/1.1/DTD/svg11.dtd">
<svg version="1.1" xmlns="http://www.w3.org/2000/svg" xmlns:xlink="http://www.w3.org/1999/xlink" x="0px" y="0px"
	 viewBox="0 0 1200 1760.01" style="enable-background:new 0 0 1200 1760.01;" xml:space="preserve">
<g id="n14">
	<path style="fill:#FFFFFF;" d="M477.268,877.143c0-2.416-1.958-4.37-4.369-4.37c-2.411,0-4.366,1.954-4.366,4.37
		c0,2.41,1.955,4.365,4.366,4.365C475.31,881.508,477.268,879.553,477.268,877.143"/>
	<path style="fill:#FFFFFF;" d="M475.546,905.314c0-1.461-1.186-2.643-2.648-2.643c-1.458,0-2.642,1.183-2.642,2.643
		c0,1.462,1.185,2.644,2.642,2.644C474.36,907.958,475.546,906.776,475.546,905.314"/>
	<path style="fill:#FFFFFF;" d="M712.037,858.824c0-2.492-2.021-4.514-4.513-4.514c-2.491,0-4.514,2.021-4.514,4.514
		c0,2.492,2.023,4.513,4.514,4.513C710.017,863.337,712.037,861.316,712.037,858.824"/>
	<path style="fill:#FFFFFF;" d="M665.928,877.647c0-1.737-1.41-3.147-3.148-3.147c-1.736,0-3.143,1.41-3.143,3.147
		c0,1.737,1.406,3.143,3.143,3.143C664.518,880.791,665.928,879.385,665.928,877.647"/>
	<path style="fill:#FFFFFF;" d="M676.841,877.647c0-2.581-2.09-4.672-4.671-4.672c-2.577,0-4.667,2.091-4.667,4.672
		c0,2.577,2.09,4.667,4.667,4.667C674.751,882.314,676.841,880.225,676.841,877.647"/>
	<path style="fill:#FFFFFF;" d="M682.731,877.647c0-0.648-0.522-1.171-1.167-1.171c-0.646,0-1.169,0.522-1.169,1.171
		c0,0.645,0.523,1.167,1.169,1.167C682.209,878.814,682.731,878.292,682.731,877.647"/>
	<path style="fill:#FFFFFF;" d="M675.381,905.819c0-1.771-1.437-3.206-3.211-3.206c-1.768,0-3.205,1.435-3.205,3.206
		s1.437,3.21,3.205,3.21C673.944,909.029,675.381,907.59,675.381,905.819"/>
	<path style="fill:#FFFFFF;" d="M408.527,867.732c0-0.828-0.67-1.498-1.499-1.498c-0.828,0-1.498,0.67-1.498,1.498
		c0,0.828,0.67,1.498,1.498,1.498C407.857,869.23,408.527,868.56,408.527,867.732"/>
	<path style="fill:#FFFFFF;" d="M373.577,895.908c0-2.275-1.84-4.115-4.115-4.115c-2.271,0-4.112,1.84-4.112,4.115
		c0,2.271,1.841,4.115,4.112,4.115C371.737,900.023,373.577,898.18,373.577,895.908"/>
	<path style="fill:#FFFFFF;" d="M261.455,858.342c0-1.778-1.44-3.218-3.217-3.218c-1.778,0-3.218,1.44-3.218,3.218
		c0,1.777,1.439,3.217,3.218,3.217C260.016,861.559,261.455,860.119,261.455,858.342"/>
	<path style="fill:#FFFFFF;" d="M446.611,886.516c0-2.725-2.209-4.938-4.938-4.938c-2.726,0-4.939,2.214-4.939,4.938
		c0,2.731,2.213,4.94,4.939,4.94C444.402,891.455,446.611,889.246,446.611,886.516"/>
	<path style="fill:#FFFFFF;" d="M941.69,905.299c0-1.777-1.44-3.217-3.217-3.217c-1.778,0-3.219,1.44-3.219,3.217
		c0,1.778,1.44,3.218,3.219,3.218C940.25,908.517,941.69,907.077,941.69,905.299"/>
	<path style="fill:#FFFFFF;" d="M305.284,867.732c0-0.861-0.7-1.56-1.561-1.56c-0.861,0-1.561,0.699-1.561,1.56
		c0,0.861,0.699,1.561,1.561,1.561C304.584,869.293,305.284,868.594,305.284,867.732"/>
	<path style="fill:#FFFFFF;" d="M298.834,877.123c0-2.484-2.018-4.502-4.502-4.502c-2.488,0-4.502,2.018-4.502,4.502
		c0,2.488,2.014,4.506,4.502,4.506C296.816,881.629,298.834,879.611,298.834,877.123"/>
	<path style="fill:#FFFFFF;" d="M287.694,895.908c0-1.52-1.233-2.753-2.753-2.753c-1.524,0-2.758,1.233-2.758,2.753
		c0,1.52,1.233,2.754,2.758,2.754C286.461,898.662,287.694,897.429,287.694,895.908"/>
	<path style="fill:#FFFFFF;" d="M297.388,905.299c0-1.685-1.369-3.056-3.056-3.056c-1.686,0-3.056,1.37-3.056,3.056
		c0,1.687,1.37,3.056,3.056,3.056C296.019,908.354,297.388,906.985,297.388,905.299"/>
	<path style="fill:#FFFFFF;" d="M370.909,905.299c0-0.798-0.648-1.446-1.447-1.446s-1.446,0.648-1.446,1.446
		c0,0.799,0.647,1.447,1.446,1.447S370.909,906.098,370.909,905.299"/>
	<path style="fill:#FFFFFF;" d="M539.122,877.123c0-1.557-1.263-2.819-2.82-2.819c-1.561,0-2.823,1.263-2.823,2.819
		c0,1.561,1.263,2.824,2.823,2.824C537.859,879.947,539.122,878.684,539.122,877.123"/>
	<path style="fill:#FFFFFF;" d="M831.671,858.342c0-1.119-0.904-2.029-2.027-2.029c-1.119,0-2.029,0.91-2.029,2.029
		c0,1.119,0.91,2.028,2.029,2.028C830.767,860.37,831.671,859.461,831.671,858.342"/>
	<path style="fill:#FFFFFF;" d="M834.216,867.732c0-2.525-2.047-4.568-4.572-4.568c-2.525,0-4.568,2.043-4.568,4.568
		s2.043,4.572,4.568,4.572C832.169,872.305,834.216,870.258,834.216,867.732"/>
	<path style="fill:#FFFFFF;" d="M853.493,867.732c0-2.798-2.267-5.065-5.066-5.065c-2.796,0-5.064,2.268-5.064,5.065
		c0,2.797,2.269,5.065,5.064,5.065C851.227,872.798,853.493,870.529,853.493,867.732"/>
	<path style="fill:#FFFFFF;" d="M822.736,905.299c0-1.372-1.111-2.484-2.483-2.484c-1.374,0-2.485,1.112-2.485,2.484
		c0,1.373,1.111,2.485,2.485,2.485C821.625,907.784,822.736,906.672,822.736,905.299"/>
	<path style="fill:#FFFFFF;" d="M843.148,905.299c0-2.271-1.841-4.115-4.114-4.115c-2.271,0-4.112,1.845-4.112,4.115
		c0,2.271,1.841,4.112,4.112,4.112C841.308,909.411,843.148,907.57,843.148,905.299"/>
	<path style="fill:#FFFFFF;" d="M852.545,905.299c0-2.275-1.845-4.115-4.118-4.115c-2.273,0-4.118,1.84-4.118,4.115
		c0,2.271,1.845,4.115,4.118,4.115C850.7,909.414,852.545,907.57,852.545,905.299"/>
	<path style="fill:#FFFFFF;" d="M889.811,905.299c0-2.109-1.708-3.82-3.819-3.82c-2.11,0-3.822,1.711-3.822,3.82
		c0,2.109,1.712,3.821,3.822,3.821C888.103,909.12,889.811,907.408,889.811,905.299"/>
	<path style="fill:#FFFFFF;" d="M978.78,867.732c0-1.612-1.307-2.923-2.923-2.923c-1.613,0-2.922,1.31-2.922,2.923
		c0,1.616,1.309,2.923,2.922,2.923C977.474,870.655,978.78,869.349,978.78,867.732"/>
	<path style="fill:#FFFFFF;" d="M989.367,858.342c0-2.275-1.844-4.119-4.119-4.119c-2.273,0-4.12,1.844-4.12,4.119
		c0,2.274,1.847,4.119,4.12,4.119C987.523,862.461,989.367,860.616,989.367,858.342"/>
	<path style="fill:#FFFFFF;" d="M996.171,877.123c0-0.843-0.685-1.528-1.53-1.528c-0.845,0-1.53,0.686-1.53,1.528
		c0,0.847,0.686,1.531,1.53,1.531C995.486,878.654,996.171,877.97,996.171,877.123"/>
	<path style="fill:#FFFFFF;" d="M513.987,778.58c0-2.322-1.882-4.204-4.201-4.204c-2.322,0-4.204,1.882-4.204,4.204
		c0,2.318,1.882,4.2,4.204,4.2C512.105,782.78,513.987,780.898,513.987,778.58"/>
	<path style="fill:#FFFFFF;" d="M520.543,797.361c0-0.754-0.611-1.369-1.366-1.369c-0.759,0-1.369,0.615-1.369,1.369
		c0,0.755,0.61,1.369,1.369,1.369C519.932,798.73,520.543,798.116,520.543,797.361"/>
	<path style="fill:#FFFFFF;" d="M840.685,769.211c0-0.606-0.494-1.1-1.102-1.1c-0.604,0-1.097,0.493-1.097,1.1
		c0,0.604,0.493,1.098,1.097,1.098C840.19,770.309,840.685,769.815,840.685,769.211"/>
	<path style="fill:#FFFFFF;" d="M842.849,797.385c0-1.805-1.462-3.266-3.266-3.266c-1.801,0-3.263,1.461-3.263,3.266
		c0,1.803,1.462,3.264,3.263,3.264C841.387,800.648,842.849,799.188,842.849,797.385"/>
	<path style="fill:#FFFFFF;" d="M422.888,787.993c0-2.659-2.155-4.815-4.815-4.815c-2.659,0-4.816,2.156-4.816,4.815
		c0,2.659,2.157,4.815,4.816,4.815C420.732,792.809,422.888,790.652,422.888,787.993"/>
	<path style="fill:#FFFFFF;" d="M438.861,806.775c0-1.106-0.898-2.004-2.003-2.004c-1.108,0-2.007,0.898-2.007,2.004
		c0,1.107,0.898,2.006,2.007,2.006C437.963,808.781,438.861,807.883,438.861,806.775"/>
	<path style="fill:#FFFFFF;" d="M773.025,778.467c0-0.682-0.552-1.233-1.232-1.233c-0.681,0-1.23,0.552-1.23,1.233
		c0,0.681,0.549,1.228,1.23,1.228C772.474,779.695,773.025,779.147,773.025,778.467"/>
	<path style="fill:#FFFFFF;" d="M785.697,787.857c0-2.492-2.019-4.514-4.513-4.514c-2.493,0-4.514,2.021-4.514,4.514
		c0,2.492,2.021,4.513,4.514,4.513C783.679,792.37,785.697,790.35,785.697,787.857"/>
	<path style="fill:#FFFFFF;" d="M693.424,778.602c0-2.268-1.837-4.104-4.102-4.104c-2.267,0-4.103,1.837-4.103,4.104
		c0,2.264,1.837,4.101,4.103,4.101C691.587,782.703,693.424,780.866,693.424,778.602"/>
	<path style="fill:#FFFFFF;" d="M694.477,797.385c0-2.846-2.306-5.154-5.155-5.154c-2.845,0-5.152,2.309-5.152,5.154
		c0,2.845,2.308,5.152,5.152,5.152C692.172,802.537,694.477,800.229,694.477,797.385"/>
	<path style="fill:#FFFFFF;" d="M859.248,797.443c0-0.592-0.477-1.07-1.071-1.07c-0.59,0-1.071,0.479-1.071,1.07
		c0,0.594,0.481,1.072,1.071,1.072C858.771,798.516,859.248,798.037,859.248,797.443"/>
	<path style="fill:#FFFFFF;" d="M869.603,797.443c0-1.122-0.91-2.035-2.036-2.035c-1.123,0-2.031,0.913-2.031,2.035
		c0,1.123,0.908,2.033,2.031,2.033C868.693,799.477,869.603,798.566,869.603,797.443"/>
	<path style="fill:#FFFFFF;" d="M332.542,769.211c0-0.459-0.373-0.83-0.831-0.83c-0.459,0-0.83,0.371-0.83,0.83
		s0.371,0.831,0.83,0.831C332.169,770.042,332.542,769.67,332.542,769.211"/>
	<path style="fill:#FFFFFF;" d="M743.476,769.211c0-0.459-0.372-0.83-0.83-0.83c-0.459,0-0.831,0.371-0.831,0.83
		s0.372,0.831,0.831,0.831C743.103,770.042,743.476,769.67,743.476,769.211"/>
	<path style="fill:#FFFFFF;" d="M744.106,778.602c0-0.809-0.654-1.463-1.462-1.463c-0.809,0-1.464,0.654-1.464,1.463
		c0,0.808,0.655,1.461,1.464,1.461C743.452,780.062,744.106,779.409,744.106,778.602"/>
	<path style="fill:#FFFFFF;" d="M737.163,806.775c0-2.158-1.749-3.913-3.911-3.913c-2.159,0-3.914,1.755-3.914,3.913
		c0,2.162,1.755,3.912,3.914,3.912C735.414,810.688,737.163,808.938,737.163,806.775"/>
	<path style="fill:#FFFFFF;" d="M376.252,787.924c0-3.064-2.487-5.549-5.553-5.549c-3.067,0-5.552,2.484-5.552,5.549
		c0,3.068,2.484,5.552,5.552,5.552C373.765,793.476,376.252,790.992,376.252,787.924"/>
</g>
<g id="Ebene_1">
</g>
</svg>
