<?xml version="1.0" encoding="iso-8859-1"?>
<!-- Generator: Adobe Illustrator 18.0.0, SVG Export Plug-In . SVG Version: 6.00 Build 0)  -->
<!DOCTYPE svg PUBLIC "-//W3C//DTD SVG 1.1//EN" "http://www.w3.org/Graphics/SVG/1.1/DTD/svg11.dtd">
<svg version="1.1" xmlns="http://www.w3.org/2000/svg" xmlns:xlink="http://www.w3.org/1999/xlink" x="0px" y="0px"
	 viewBox="0 0 2800 750" style="enable-background:new 0 0 2800 750;" xml:space="preserve">
<g id="n14">
	<path style="fill:#FFFFFF;" d="M1114.273,455.357c0-5.637-4.568-10.196-10.194-10.196c-5.625,0-10.187,4.559-10.187,10.196
		c0,5.623,4.561,10.184,10.187,10.184C1109.705,465.541,1114.273,460.98,1114.273,455.357"/>
	<path style="fill:#FFFFFF;" d="M1110.256,521.083c0-3.408-2.766-6.167-6.177-6.167c-3.401,0-6.165,2.759-6.165,6.167
		c0,3.411,2.764,6.168,6.165,6.168C1107.49,527.251,1110.256,524.494,1110.256,521.083"/>
	<path style="fill:#FFFFFF;" d="M1662,412.619c0-5.814-4.714-10.531-10.528-10.531c-5.812,0-10.531,4.716-10.531,10.531
		c0,5.814,4.719,10.528,10.531,10.528C1657.286,423.148,1662,418.434,1662,412.619"/>
	<path style="fill:#FFFFFF;" d="M1554.425,456.535c0-4.053-3.29-7.343-7.345-7.343c-4.051,0-7.332,3.29-7.332,7.343
		c0,4.053,3.281,7.334,7.332,7.334C1551.135,463.869,1554.425,460.588,1554.425,456.535"/>
	<path style="fill:#FFFFFF;" d="M1579.886,456.535c0-6.022-4.876-10.9-10.897-10.9c-6.012,0-10.888,4.878-10.888,10.9
		c0,6.012,4.876,10.888,10.888,10.888C1575.01,467.423,1579.886,462.547,1579.886,456.535"/>
	<path style="fill:#FFFFFF;" d="M1593.629,456.535c0-1.513-1.219-2.732-2.722-2.732c-1.508,0-2.727,1.219-2.727,2.732
		c0,1.504,1.219,2.722,2.727,2.722C1592.41,459.257,1593.629,458.039,1593.629,456.535"/>
	<path style="fill:#FFFFFF;" d="M1576.48,522.261c0-4.131-3.352-7.48-7.491-7.48c-4.126,0-7.478,3.349-7.478,7.48
		c0,4.131,3.352,7.489,7.478,7.489C1573.128,529.75,1576.48,526.391,1576.48,522.261"/>
	<path style="fill:#FFFFFF;" d="M953.899,433.403c0-1.932-1.563-3.495-3.497-3.495c-1.932,0-3.495,1.563-3.495,3.495
		c0,1.932,1.563,3.495,3.495,3.495C952.336,436.898,953.899,435.335,953.899,433.403"/>
	<path style="fill:#FFFFFF;" d="M872.359,499.138c0-5.309-4.292-9.601-9.601-9.601c-5.299,0-9.594,4.292-9.594,9.601
		c0,5.299,4.295,9.601,9.594,9.601C868.067,508.739,872.359,504.437,872.359,499.138"/>
	<path style="fill:#FFFFFF;" d="M610.774,411.494c0-4.149-3.358-7.507-7.505-7.507c-4.149,0-7.507,3.358-7.507,7.507
		c0,4.147,3.358,7.505,7.507,7.505C607.415,418.999,610.774,415.64,610.774,411.494"/>
	<path style="fill:#FFFFFF;" d="M1042.751,477.225c0-6.357-5.154-11.522-11.521-11.522c-6.359,0-11.522,5.165-11.522,11.522
		c0,6.37,5.163,11.524,11.522,11.524C1037.597,488.749,1042.751,483.595,1042.751,477.225"/>
	<path style="fill:#FFFFFF;" d="M2197.791,521.047c0-4.147-3.36-7.505-7.505-7.505c-4.149,0-7.51,3.358-7.51,7.505
		c0,4.149,3.361,7.507,7.51,7.507C2194.43,528.554,2197.791,525.195,2197.791,521.047"/>
	<path style="fill:#FFFFFF;" d="M713.029,433.403c0-2.009-1.634-3.641-3.643-3.641c-2.01,0-3.641,1.631-3.641,3.641
		s1.631,3.641,3.641,3.641C711.395,437.043,713.029,435.412,713.029,433.403"/>
	<path style="fill:#FFFFFF;" d="M697.98,455.311c0-5.796-4.707-10.503-10.503-10.503c-5.805,0-10.503,4.707-10.503,10.503
		c0,5.805,4.698,10.512,10.503,10.512C693.273,465.824,697.98,461.117,697.98,455.311"/>
	<path style="fill:#FFFFFF;" d="M671.991,499.138c0-3.545-2.878-6.423-6.423-6.423c-3.557,0-6.434,2.878-6.434,6.423
		c0,3.547,2.878,6.425,6.434,6.425C669.113,505.563,671.991,502.685,671.991,499.138"/>
	<path style="fill:#FFFFFF;" d="M694.606,521.047c0-3.932-3.194-7.129-7.129-7.129c-3.932,0-7.129,3.196-7.129,7.129
		c0,3.935,3.196,7.129,7.129,7.129C691.412,528.176,694.606,524.981,694.606,521.047"/>
	<path style="fill:#FFFFFF;" d="M866.135,521.047c0-1.861-1.513-3.374-3.377-3.374s-3.374,1.513-3.374,3.374
		c0,1.864,1.511,3.377,3.374,3.377S866.135,522.91,866.135,521.047"/>
	<path style="fill:#FFFFFF;" d="M1258.582,455.311c0-3.632-2.946-6.578-6.58-6.578c-3.641,0-6.587,2.946-6.587,6.578
		c0,3.641,2.946,6.589,6.587,6.589C1255.636,461.9,1258.582,458.952,1258.582,455.311"/>
	<path style="fill:#FFFFFF;" d="M1941.11,411.494c0-2.611-2.11-4.734-4.73-4.734c-2.611,0-4.734,2.123-4.734,4.734
		c0,2.611,2.123,4.732,4.734,4.732C1939.001,416.226,1941.11,414.105,1941.11,411.494"/>
	<path style="fill:#FFFFFF;" d="M1947.048,433.403c0-5.892-4.776-10.658-10.667-10.658c-5.892,0-10.658,4.766-10.658,10.658
		s4.766,10.667,10.658,10.667C1942.272,444.07,1947.048,439.294,1947.048,433.403"/>
	<path style="fill:#FFFFFF;" d="M1992.023,433.403c0-6.527-5.288-11.818-11.82-11.818c-6.523,0-11.816,5.29-11.816,11.818
		c0,6.525,5.293,11.818,11.816,11.818C1986.735,445.22,1992.023,439.928,1992.023,433.403"/>
	<path style="fill:#FFFFFF;" d="M1920.266,521.047c0-3.201-2.593-5.796-5.794-5.796c-3.206,0-5.798,2.595-5.798,5.796
		c0,3.203,2.593,5.799,5.798,5.799C1917.673,526.845,1920.266,524.25,1920.266,521.047"/>
	<path style="fill:#FFFFFF;" d="M1967.888,521.047c0-5.297-4.295-9.601-9.599-9.601c-5.3,0-9.594,4.304-9.594,9.601
		c0,5.299,4.295,9.594,9.594,9.594C1963.593,530.641,1967.888,526.346,1967.888,521.047"/>
	<path style="fill:#FFFFFF;" d="M1989.81,521.047c0-5.309-4.304-9.601-9.608-9.601c-5.304,0-9.608,4.292-9.608,9.601
		c0,5.299,4.304,9.601,9.608,9.601C1985.507,530.648,1989.81,526.346,1989.81,521.047"/>
	<path style="fill:#FFFFFF;" d="M2076.755,521.047c0-4.921-3.985-8.913-8.911-8.913c-4.924,0-8.917,3.992-8.917,8.913
		s3.994,8.915,8.917,8.915C2072.77,529.962,2076.755,525.968,2076.755,521.047"/>
	<path style="fill:#FFFFFF;" d="M2284.323,433.403c0-3.762-3.049-6.819-6.819-6.819c-3.764,0-6.817,3.057-6.817,6.819
		c0,3.771,3.053,6.819,6.817,6.819C2281.274,440.222,2284.323,437.173,2284.323,433.403"/>
	<path style="fill:#FFFFFF;" d="M2309.022,411.494c0-5.309-4.302-9.61-9.61-9.61c-5.304,0-9.613,4.302-9.613,9.61
		c0,5.306,4.308,9.61,9.613,9.61C2304.721,421.104,2309.022,416.8,2309.022,411.494"/>
	<path style="fill:#FFFFFF;" d="M2324.896,455.311c0-1.966-1.597-3.566-3.57-3.566c-1.971,0-3.57,1.6-3.57,3.566
		c0,1.975,1.599,3.573,3.57,3.573C2323.299,458.884,2324.896,457.287,2324.896,455.311"/>
	<path style="fill:#FFFFFF;" d="M1199.942,225.407c0-5.418-4.39-9.808-9.802-9.808c-5.418,0-9.808,4.39-9.808,9.808
		c0,5.409,4.391,9.799,9.808,9.799C1195.551,235.206,1199.942,230.815,1199.942,225.407"/>
	<path style="fill:#FFFFFF;" d="M1215.236,269.224c0-1.759-1.426-3.194-3.187-3.194c-1.77,0-3.194,1.435-3.194,3.194
		c0,1.761,1.424,3.194,3.194,3.194C1213.81,272.418,1215.236,270.985,1215.236,269.224"/>
	<path style="fill:#FFFFFF;" d="M1962.14,203.548c0-1.415-1.153-2.565-2.57-2.565c-1.408,0-2.559,1.151-2.559,2.565
		c0,1.41,1.151,2.561,2.559,2.561C1960.987,206.109,1962.14,204.958,1962.14,203.548"/>
	<path style="fill:#FFFFFF;" d="M1967.189,269.279c0-4.21-3.411-7.619-7.619-7.619c-4.201,0-7.612,3.409-7.612,7.619
		c0,4.206,3.411,7.614,7.612,7.614C1963.778,276.893,1967.189,273.484,1967.189,269.279"/>
	<path style="fill:#FFFFFF;" d="M987.403,247.368c0-6.204-5.028-11.235-11.232-11.235c-6.204,0-11.237,5.031-11.237,11.235
		c0,6.204,5.033,11.235,11.237,11.235C982.374,258.602,987.403,253.572,987.403,247.368"/>
	<path style="fill:#FFFFFF;" d="M1024.67,291.187c0-2.579-2.096-4.675-4.673-4.675c-2.586,0-4.682,2.096-4.682,4.675
		c0,2.584,2.096,4.68,4.682,4.68C1022.574,295.867,1024.67,293.771,1024.67,291.187"/>
	<path style="fill:#FFFFFF;" d="M1804.288,225.142c0-1.59-1.287-2.878-2.875-2.878c-1.588,0-2.869,1.287-2.869,2.878
		c0,1.588,1.28,2.866,2.869,2.866C1803.001,228.008,1804.288,226.73,1804.288,225.142"/>
	<path style="fill:#FFFFFF;" d="M1833.852,247.051c0-5.814-4.709-10.531-10.528-10.531c-5.817,0-10.531,4.716-10.531,10.531
		s4.714,10.528,10.531,10.528C1829.143,257.579,1833.852,252.865,1833.852,247.051"/>
	<path style="fill:#FFFFFF;" d="M1618.574,225.459c0-5.29-4.286-9.576-9.569-9.576c-5.288,0-9.574,4.286-9.574,9.576
		c0,5.281,4.286,9.567,9.574,9.567C1614.289,235.026,1618.574,230.74,1618.574,225.459"/>
	<path style="fill:#FFFFFF;" d="M1621.033,269.279c0-6.639-5.379-12.025-12.027-12.025c-6.637,0-12.021,5.386-12.021,12.025
		c0,6.637,5.384,12.021,12.021,12.021C1615.654,281.299,1621.033,275.916,1621.033,269.279"/>
	<path style="fill:#FFFFFF;" d="M2005.449,269.415c0-1.381-1.114-2.497-2.499-2.497c-1.376,0-2.499,1.117-2.499,2.497
		c0,1.385,1.123,2.501,2.499,2.501C2004.335,271.917,2005.449,270.801,2005.449,269.415"/>
	<path style="fill:#FFFFFF;" d="M2029.609,269.415c0-2.618-2.123-4.748-4.75-4.748c-2.62,0-4.739,2.13-4.739,4.748
		c0,2.62,2.119,4.744,4.739,4.744C2027.485,274.159,2029.609,272.035,2029.609,269.415"/>
	<path style="fill:#FFFFFF;" d="M776.622,203.548c0-1.071-0.87-1.936-1.939-1.936c-1.071,0-1.936,0.866-1.936,1.936
		s0.866,1.939,1.936,1.939C775.752,205.487,776.622,204.619,776.622,203.548"/>
	<path style="fill:#FFFFFF;" d="M1735.347,203.548c0-1.071-0.868-1.936-1.937-1.936c-1.071,0-1.939,0.866-1.939,1.936
		s0.868,1.939,1.939,1.939C1734.479,205.487,1735.347,204.619,1735.347,203.548"/>
	<path style="fill:#FFFFFF;" d="M1736.819,225.457c0-1.887-1.526-3.413-3.411-3.413c-1.886,0-3.415,1.527-3.415,3.413
		c0,1.884,1.529,3.408,3.415,3.408C1735.292,228.865,1736.819,227.341,1736.819,225.457"/>
	<path style="fill:#FFFFFF;" d="M1720.62,291.187c0-5.035-4.081-9.129-9.125-9.129c-5.037,0-9.132,4.094-9.132,9.129
		c0,5.044,4.094,9.127,9.132,9.127C1716.539,300.314,1720.62,296.232,1720.62,291.187"/>
	<path style="fill:#FFFFFF;" d="M878.6,247.206c0-7.149-5.803-12.946-12.955-12.946c-7.156,0-12.952,5.796-12.952,12.946
		c0,7.159,5.796,12.953,12.952,12.953C872.796,260.158,878.6,254.365,878.6,247.206"/>
</g>
<g id="Ebene_1">
</g>
</svg>
