<?xml version="1.0" encoding="iso-8859-1"?>
<!-- Generator: Adobe Illustrator 18.0.0, SVG Export Plug-In . SVG Version: 6.00 Build 0)  -->
<!DOCTYPE svg PUBLIC "-//W3C//DTD SVG 1.1//EN" "http://www.w3.org/Graphics/SVG/1.1/DTD/svg11.dtd">
<svg version="1.1" xmlns="http://www.w3.org/2000/svg" xmlns:xlink="http://www.w3.org/1999/xlink" x="0px" y="0px"
	 viewBox="0 0 1200 1760.01" style="enable-background:new 0 0 1200 1760.01;" xml:space="preserve">
<g id="n2">
	<path style="fill:#FFFFFF;" d="M492.357,867.747c0-0.372-0.302-0.673-0.674-0.673c-0.375,0-0.677,0.301-0.677,0.673
		c0,0.376,0.302,0.678,0.677,0.678C492.056,868.425,492.357,868.123,492.357,867.747"/>
	<path style="fill:#FFFFFF;" d="M477.75,886.533c0-2.68-2.172-4.852-4.852-4.852c-2.68,0-4.852,2.172-4.852,4.852
		c0,2.68,2.172,4.852,4.852,4.852C475.578,891.385,477.75,889.213,477.75,886.533"/>
	<path style="fill:#FFFFFF;" d="M752.962,896.232c0-1.174-0.953-2.128-2.128-2.128c-1.178,0-2.132,0.954-2.132,2.128
		c0,1.178,0.954,2.131,2.132,2.131C752.009,898.363,752.962,897.41,752.962,896.232"/>
	<path style="fill:#FFFFFF;" d="M699.859,877.609c0-0.953-0.773-1.727-1.726-1.727c-0.954,0-1.727,0.773-1.727,1.727
		c0,0.953,0.773,1.726,1.727,1.726C699.087,879.335,699.859,878.562,699.859,877.609"/>
	<path style="fill:#FFFFFF;" d="M737.824,887c0-1.175-0.949-2.128-2.128-2.128c-1.174,0-2.123,0.953-2.123,2.128
		c0,1.174,0.949,2.128,2.123,2.128C736.875,889.128,737.824,888.174,737.824,887"/>
	<path style="fill:#FFFFFF;" d="M658.518,896.428c0-2.83-2.297-5.127-5.129-5.127c-2.83,0-5.128,2.297-5.128,5.127
		c0,2.832,2.298,5.129,5.128,5.129C656.221,901.557,658.518,899.26,658.518,896.428"/>
	<path style="fill:#FFFFFF;" d="M676.609,896.428c0-2.451-1.986-4.438-4.44-4.438c-2.451,0-4.435,1.987-4.435,4.438
		c0,2.452,1.984,4.441,4.435,4.441C674.623,900.869,676.609,898.88,676.609,896.428"/>
	<path style="fill:#FFFFFF;" d="M345.803,877.123c0-2.492-2.021-4.514-4.514-4.514c-2.495,0-4.517,2.021-4.517,4.514
		c0,2.496,2.021,4.518,4.517,4.518C343.781,881.641,345.803,879.619,345.803,877.123"/>
	<path style="fill:#FFFFFF;" d="M324.01,886.518c0-0.832-0.673-1.506-1.506-1.506c-0.828,0-1.502,0.674-1.502,1.506
		c0,0.828,0.674,1.502,1.502,1.502C323.337,888.019,324.01,887.346,324.01,886.518"/>
	<path style="fill:#FFFFFF;" d="M323.462,895.908c0-0.529-0.428-0.957-0.958-0.957c-0.526,0-0.953,0.428-0.953,0.957
		c0,0.527,0.427,0.953,0.953,0.953C323.034,896.861,323.462,896.435,323.462,895.908"/>
	<path style="fill:#FFFFFF;" d="M315.157,905.299c0-1.127-0.917-2.039-2.044-2.039c-1.126,0-2.039,0.912-2.039,2.039
		c0,1.127,0.913,2.04,2.039,2.04C314.24,907.339,315.157,906.426,315.157,905.299"/>
	<path style="fill:#FFFFFF;" d="M877.727,858.342c0-0.623-0.505-1.127-1.126-1.127c-0.622,0-1.128,0.504-1.128,1.127
		c0,0.622,0.506,1.127,1.128,1.127C877.223,859.469,877.727,858.964,877.727,858.342"/>
	<path style="fill:#FFFFFF;" d="M868.536,877.123c0-0.729-0.593-1.321-1.326-1.321c-0.733,0-1.325,0.593-1.325,1.321
		c0,0.732,0.593,1.325,1.325,1.325C867.943,878.448,868.536,877.855,868.536,877.123"/>
	<path style="fill:#FFFFFF;" d="M898.757,886.518c0-1.867-1.508-3.375-3.374-3.375c-1.862,0-3.371,1.508-3.371,3.375
		c0,1.863,1.509,3.371,3.371,3.371C897.249,889.889,898.757,888.381,898.757,886.518"/>
	<path style="fill:#FFFFFF;" d="M906.394,895.908c0-0.895-0.723-1.62-1.616-1.62c-0.895,0-1.62,0.726-1.62,1.62
		c0,0.894,0.726,1.62,1.62,1.62C905.671,897.528,906.394,896.803,906.394,895.908"/>
	<path style="fill:#FFFFFF;" d="M209.693,877.082c0-2.275-1.845-4.119-4.119-4.119c-2.274,0-4.119,1.844-4.119,4.119
		s1.845,4.116,4.119,4.116C207.849,881.198,209.693,879.357,209.693,877.082"/>
	<path style="fill:#FFFFFF;" d="M236.887,895.864c0-1.73-1.406-3.137-3.137-3.137c-1.733,0-3.136,1.406-3.136,3.137
		c0,1.733,1.402,3.137,3.136,3.137C235.48,899.001,236.887,897.598,236.887,895.864"/>
	<path style="fill:#FFFFFF;" d="M501.772,787.971c0-0.762-0.618-1.377-1.381-1.377c-0.758,0-1.377,0.615-1.377,1.377
		c0,0.758,0.619,1.377,1.377,1.377C501.154,789.348,501.772,788.728,501.772,787.971"/>
	<path style="fill:#FFFFFF;" d="M531.373,797.361c0-1.549-1.256-2.809-2.806-2.809c-1.549,0-2.809,1.26-2.809,2.809
		c0,1.55,1.26,2.809,2.809,2.809C530.117,800.17,531.373,798.911,531.373,797.361"/>
	<path style="fill:#FFFFFF;" d="M523.19,806.752c0-2.216-1.797-4.013-4.013-4.013c-2.22,0-4.016,1.797-4.016,4.013
		c0,2.217,1.796,4.016,4.016,4.016C521.393,810.768,523.19,808.969,523.19,806.752"/>
	<path style="fill:#FFFFFF;" d="M563.153,787.993c0-2.935-2.378-5.312-5.312-5.312c-2.934,0-5.311,2.377-5.311,5.312
		c0,2.934,2.378,5.312,5.311,5.312C560.775,793.306,563.153,790.927,563.153,787.993"/>
	<path style="fill:#FFFFFF;" d="M418.772,806.775c0-0.387-0.313-0.7-0.699-0.7c-0.387,0-0.7,0.313-0.7,0.7
		c0,0.386,0.314,0.699,0.7,0.699C418.459,807.475,418.772,807.161,418.772,806.775"/>
	<path style="fill:#FFFFFF;" d="M792.308,787.857c0-0.957-0.775-1.73-1.729-1.73c-0.957,0-1.729,0.773-1.729,1.73
		c0,0.953,0.773,1.731,1.729,1.731C791.532,789.588,792.308,788.81,792.308,787.857"/>
	<path style="fill:#FFFFFF;" d="M682.631,769.211c0-1.49-1.211-2.701-2.701-2.701c-1.492,0-2.699,1.211-2.699,2.701
		c0,1.491,1.207,2.699,2.699,2.699C681.42,771.91,682.631,770.702,682.631,769.211"/>
	<path style="fill:#FFFFFF;" d="M674.656,778.602c0-2.275-1.844-4.119-4.119-4.119c-2.273,0-4.12,1.844-4.12,4.119
		s1.847,4.115,4.12,4.115C672.812,782.718,674.656,780.878,674.656,778.602"/>
	<path style="fill:#FFFFFF;" d="M675.691,787.993c0-2.845-2.305-5.153-5.154-5.153c-2.845,0-5.152,2.309-5.152,5.153
		c0,2.846,2.308,5.153,5.152,5.153C673.387,793.146,675.691,790.839,675.691,787.993"/>
	<path style="fill:#FFFFFF;" d="M673.365,816.166c0-1.558-1.266-2.824-2.828-2.824c-1.561,0-2.823,1.267-2.823,2.824
		c0,1.561,1.263,2.826,2.823,2.826C672.1,818.992,673.365,817.727,673.365,816.166"/>
	<path style="fill:#FFFFFF;" d="M870.821,806.835c0-1.796-1.453-3.254-3.254-3.254c-1.796,0-3.251,1.458-3.251,3.254
		s1.455,3.255,3.251,3.255C869.368,810.09,870.821,808.631,870.821,806.835"/>
	<path style="fill:#FFFFFF;" d="M586.742,769.273c0-0.564-0.455-1.022-1.018-1.022c-0.565,0-1.023,0.458-1.023,1.022
		c0,0.562,0.457,1.021,1.023,1.021C586.287,770.295,586.742,769.836,586.742,769.273"/>
	<path style="fill:#FFFFFF;" d="M577.44,778.665c0-0.587-0.471-1.062-1.058-1.062c-0.583,0-1.058,0.475-1.058,1.062
		c0,0.583,0.475,1.058,1.058,1.058C576.969,779.723,577.44,779.248,577.44,778.665"/>
	<path style="fill:#FFFFFF;" d="M362.415,778.534c0-0.587-0.471-1.061-1.058-1.061c-0.583,0-1.058,0.474-1.058,1.061
		c0,0.583,0.475,1.058,1.058,1.058C361.944,779.592,362.415,779.117,362.415,778.534"/>
</g>
<g id="Ebene_1">
</g>
</svg>
