<?xml version="1.0" encoding="iso-8859-1"?>
<!-- Generator: Adobe Illustrator 18.0.0, SVG Export Plug-In . SVG Version: 6.00 Build 0)  -->
<!DOCTYPE svg PUBLIC "-//W3C//DTD SVG 1.1//EN" "http://www.w3.org/Graphics/SVG/1.1/DTD/svg11.dtd">
<svg version="1.1" xmlns="http://www.w3.org/2000/svg" xmlns:xlink="http://www.w3.org/1999/xlink" x="0px" y="0px"
	 viewBox="0 0 2800 750" style="enable-background:new 0 0 2800 750;" xml:space="preserve">
<g id="n5">
	<path style="fill:#FFFFFF;" d="M1131.926,455.355c0-3.279-2.659-5.937-5.935-5.937c-3.272,0-5.931,2.659-5.931,5.937
		c0,3.27,2.659,5.931,5.931,5.931C1129.267,461.285,1131.926,458.624,1131.926,455.355"/>
	<path style="fill:#FFFFFF;" d="M1662.009,478.355c0-5.823-4.723-10.54-10.537-10.54c-5.823,0-10.537,4.716-10.537,10.54
		c0,5.814,4.714,10.528,10.537,10.528C1657.286,488.883,1662.009,484.169,1662.009,478.355"/>
	<path style="fill:#FFFFFF;" d="M1659.683,522.172c0-4.534-3.675-8.211-8.211-8.211c-4.534,0-8.209,3.677-8.209,8.211
		c0,4.534,3.675,8.211,8.209,8.211C1656.008,530.383,1659.683,526.706,1659.683,522.172"/>
	<path style="fill:#FFFFFF;" d="M1702.801,522.172c0-4.149-3.351-7.516-7.512-7.516c-4.149,0-7.512,3.367-7.512,7.516
		c0,4.147,3.363,7.514,7.512,7.514C1699.449,529.686,1702.801,526.319,1702.801,522.172"/>
	<path style="fill:#FFFFFF;" d="M1571.075,434.617c0-1.144-0.934-2.08-2.087-2.08c-1.148,0-2.078,0.936-2.078,2.08
		c0,1.151,0.929,2.085,2.078,2.085C1570.141,436.702,1571.075,435.768,1571.075,434.617"/>
	<path style="fill:#FFFFFF;" d="M822.272,411.494c0-1.845-1.485-3.333-3.333-3.333c-1.845,0-3.34,1.488-3.34,3.333
		c0,1.848,1.495,3.34,3.34,3.34C820.786,414.834,822.272,413.342,822.272,411.494"/>
	<path style="fill:#FFFFFF;" d="M1479.116,477.229c0-1.581-1.283-2.859-2.855-2.859c-1.579,0-2.857,1.278-2.857,2.859
		c0,1.572,1.278,2.852,2.857,2.852C1477.833,480.082,1479.116,478.801,1479.116,477.229"/>
	<path style="fill:#FFFFFF;" d="M1042.751,499.133c0-6.357-5.154-11.521-11.521-11.521c-6.359,0-11.522,5.165-11.522,11.521
		c0,6.37,5.163,11.524,11.522,11.524C1037.597,510.657,1042.751,505.504,1042.751,499.133"/>
	<path style="fill:#FFFFFF;" d="M669.122,455.311c0-1.957-1.588-3.554-3.554-3.554c-1.968,0-3.563,1.597-3.563,3.554
		c0,1.966,1.595,3.563,3.563,3.563C667.535,458.875,669.122,457.277,669.122,455.311"/>
	<path style="fill:#FFFFFF;" d="M754.648,455.311c0-0.788-0.645-1.435-1.444-1.435c-0.791,0-1.433,0.647-1.433,1.435
		c0,0.8,0.643,1.442,1.433,1.442C754.003,456.754,754.648,456.111,754.648,455.311"/>
	<path style="fill:#FFFFFF;" d="M673.126,477.229c0-4.183-3.386-7.566-7.557-7.566c-4.183,0-7.567,3.383-7.567,7.566
		c0,4.174,3.383,7.56,7.567,7.56C669.74,484.789,673.126,481.403,673.126,477.229"/>
	<path style="fill:#FFFFFF;" d="M695.731,499.138c0-4.561-3.693-8.252-8.255-8.252c-4.559,0-8.252,3.691-8.252,8.252
		c0,4.561,3.693,8.252,8.252,8.252C692.038,507.39,695.731,503.699,695.731,499.138"/>
	<path style="fill:#FFFFFF;" d="M742.777,499.138c0-6.338-5.145-11.483-11.483-11.483c-6.338,0-11.474,5.145-11.474,11.483
		s5.135,11.474,11.474,11.474C737.633,510.612,742.777,505.476,742.777,499.138"/>
	<path style="fill:#FFFFFF;" d="M849.892,521.047c0-4.999-4.044-9.043-9.043-9.043c-4.99,0-9.045,4.044-9.045,9.043
		c0,4.99,4.056,9.045,9.045,9.045C845.848,530.092,849.892,526.036,849.892,521.047"/>
	<path style="fill:#FFFFFF;" d="M1255.791,433.403c0-2.087-1.702-3.787-3.789-3.787c-2.094,0-3.787,1.7-3.787,3.787
		c0,2.096,1.693,3.787,3.787,3.787C1254.089,437.189,1255.791,435.499,1255.791,433.403"/>
	<path style="fill:#FFFFFF;" d="M1240.699,455.311c0-5.855-4.748-10.608-10.613-10.608c-5.86,0-10.608,4.753-10.608,10.608
		c0,5.865,4.748,10.615,10.608,10.615C1235.951,465.926,1240.699,461.176,1240.699,455.311"/>
	<path style="fill:#FFFFFF;" d="M1279.22,477.229c0-2.937-2.379-5.318-5.309-5.318c-2.937,0-5.306,2.381-5.306,5.318
		c0,2.93,2.369,5.309,5.306,5.309C1276.841,482.538,1279.22,480.159,1279.22,477.229"/>
	<path style="fill:#FFFFFF;" d="M1286.125,499.138c0-6.749-5.473-12.212-12.214-12.212c-6.74,0-12.212,5.464-12.212,12.212
		c0,6.744,5.473,12.214,12.212,12.214C1280.653,511.352,1286.125,505.882,1286.125,499.138"/>
	<path style="fill:#FFFFFF;" d="M1237.678,521.047c0-4.19-3.392-7.591-7.592-7.591c-4.194,0-7.585,3.402-7.585,7.591
		c0,4.192,3.39,7.591,7.585,7.591C1234.286,528.638,1237.678,525.239,1237.678,521.047"/>
	<path style="fill:#FFFFFF;" d="M1260.428,521.047c0-4.655-3.771-8.425-8.425-8.425c-4.655,0-8.435,3.771-8.435,8.425
		c0,4.657,3.78,8.425,8.435,8.425C1256.657,529.472,1260.428,525.703,1260.428,521.047"/>
	<path style="fill:#FFFFFF;" d="M1962.008,455.311c0-2.041-1.665-3.709-3.718-3.709c-2.044,0-3.711,1.668-3.711,3.709
		c0,2.053,1.668,3.718,3.711,3.718C1960.342,459.03,1962.008,457.364,1962.008,455.311"/>
	<path style="fill:#FFFFFF;" d="M2025.442,433.403c0-0.781-0.638-1.417-1.417-1.417c-0.784,0-1.415,0.636-1.415,1.417
		c0,0.782,0.631,1.417,1.415,1.417C2024.804,434.82,2025.442,434.184,2025.442,433.403"/>
	<path style="fill:#FFFFFF;" d="M2117.854,455.311c0-3.408-2.773-6.174-6.184-6.174c-3.42,0-6.186,2.766-6.186,6.174
		c0,3.418,2.766,6.183,6.186,6.183C2115.082,461.495,2117.854,458.729,2117.854,455.311"/>
	<path style="fill:#FFFFFF;" d="M2095.857,521.047c0-3.367-2.732-6.097-6.104-6.097c-3.365,0-6.101,2.73-6.101,6.097
		c0,3.367,2.736,6.097,6.101,6.097C2093.125,527.143,2095.857,524.414,2095.857,521.047"/>
	<path style="fill:#FFFFFF;" d="M2265.205,455.311c0-5.309-4.304-9.61-9.612-9.61c-5.304,0-9.61,4.301-9.61,9.61
		s4.306,9.61,9.61,9.61C2260.901,464.921,2265.205,460.62,2265.205,455.311"/>
	<path style="fill:#FFFFFF;" d="M2309.022,455.311c0-5.309-4.302-9.61-9.61-9.61c-5.304,0-9.613,4.301-9.613,9.61
		s4.308,9.61,9.613,9.61C2304.721,464.921,2309.022,460.62,2309.022,455.311"/>
	<path style="fill:#FFFFFF;" d="M2267.121,433.403c0-6.359-5.158-11.524-11.529-11.524c-6.354,0-11.522,5.165-11.522,11.524
		c0,6.37,5.167,11.522,11.522,11.522C2261.963,444.924,2267.121,439.773,2267.121,433.403"/>
	<path style="fill:#FFFFFF;" d="M508.726,455.216c0-3.536-2.868-6.414-6.416-6.414c-3.538,0-6.407,2.878-6.407,6.414
		c0,3.541,2.868,6.407,6.407,6.407C505.858,461.622,508.726,458.756,508.726,455.216"/>
	<path style="fill:#FFFFFF;" d="M553.446,477.127c0-4.037-3.272-7.32-7.309-7.32c-4.044,0-7.316,3.283-7.316,7.32
		c0,4.035,3.272,7.316,7.316,7.316C550.174,484.443,553.446,481.162,553.446,477.127"/>
	<path style="fill:#FFFFFF;" d="M1218.859,247.315c0-3.768-3.048-6.819-6.81-6.819c-3.771,0-6.819,3.051-6.819,6.819
		c0,3.762,3.048,6.819,6.819,6.819C1215.811,254.134,1218.859,251.077,1218.859,247.315"/>
	<path style="fill:#FFFFFF;" d="M1201.279,269.224c0-6.149-4.99-11.139-11.139-11.139c-6.156,0-11.139,4.99-11.139,11.139
		c0,6.149,4.983,11.141,11.139,11.141C1196.29,280.365,1201.279,275.373,1201.279,269.224"/>
	<path style="fill:#FFFFFF;" d="M1942.833,225.459c0-2.859-2.315-5.17-5.172-5.17c-2.853,0-5.17,2.31-5.17,5.17
		c0,2.85,2.317,5.17,5.17,5.17C1940.518,230.629,1942.833,228.309,1942.833,225.459"/>
	<path style="fill:#FFFFFF;" d="M1946.091,247.368c0-4.655-3.775-8.432-8.43-8.432s-8.425,3.777-8.425,8.432
		c0,4.655,3.771,8.428,8.425,8.428S1946.091,252.022,1946.091,247.368"/>
	<path style="fill:#FFFFFF;" d="M1942.17,269.279c0-2.493-2.021-4.511-4.509-4.511c-2.493,0-4.504,2.019-4.504,4.511
		c0,2.488,2.012,4.507,4.504,4.507C1940.149,273.785,1942.17,271.767,1942.17,269.279"/>
	<path style="fill:#FFFFFF;" d="M1003.162,247.368c0-2.809-2.276-5.083-5.083-5.083c-2.8,0-5.076,2.274-5.076,5.083
		c0,2.809,2.276,5.085,5.076,5.085C1000.886,252.453,1003.162,250.177,1003.162,247.368"/>
	<path style="fill:#FFFFFF;" d="M1006.582,291.032c0-4.7-3.807-8.503-8.503-8.503c-4.691,0-8.496,3.803-8.496,8.503
		c0,4.696,3.805,8.5,8.496,8.5C1002.775,299.533,1006.582,295.728,1006.582,291.032"/>
	<path style="fill:#FFFFFF;" d="M1025.579,269.279c0-3.085-2.499-5.582-5.582-5.582c-3.094,0-5.593,2.497-5.593,5.582
		c0,3.08,2.499,5.591,5.593,5.591C1023.079,274.87,1025.579,272.359,1025.579,269.279"/>
	<path style="fill:#FFFFFF;" d="M1853.444,203.231c0-4.534-3.677-8.209-8.204-8.209c-4.532,0-8.211,3.675-8.211,8.209
		c0,4.527,3.679,8.202,8.211,8.202C1849.767,211.433,1853.444,207.758,1853.444,203.231"/>
	<path style="fill:#FFFFFF;" d="M1895.097,291.187c0-0.688-0.567-1.244-1.253-1.244c-0.688,0-1.258,0.556-1.258,1.244
		c0,0.695,0.569,1.253,1.258,1.253C1894.53,292.44,1895.097,291.882,1895.097,291.187"/>
	<path style="fill:#FFFFFF;" d="M1574.832,269.279c0-5.336-4.315-9.656-9.653-9.656c-5.329,0-9.653,4.32-9.653,9.656
		c0,5.331,4.324,9.651,9.653,9.651C1570.517,278.93,1574.832,274.61,1574.832,269.279"/>
	<path style="fill:#FFFFFF;" d="M1596.657,313.096c0-5.281-4.276-9.56-9.564-9.56c-5.284,0-9.562,4.279-9.562,9.56
		c0,5.29,4.279,9.565,9.562,9.565C1592.38,322.661,1596.657,318.386,1596.657,313.096"/>
	<path style="fill:#FFFFFF;" d="M1618.784,313.096c0-5.395-4.384-9.774-9.779-9.774c-5.402,0-9.781,4.379-9.781,9.774
		c0,5.4,4.379,9.781,9.781,9.781C1614.401,322.877,1618.784,318.496,1618.784,313.096"/>
	<path style="fill:#FFFFFF;" d="M2056.106,247.509c0-5.163-4.178-9.337-9.33-9.337c-5.151,0-9.337,4.174-9.337,9.337
		c0,5.151,4.185,9.325,9.337,9.325C2051.928,256.834,2056.106,252.66,2056.106,247.509"/>
	<path style="fill:#FFFFFF;" d="M2073.994,247.509c0-2.939-2.376-5.315-5.309-5.315c-2.939,0-5.309,2.376-5.309,5.315
		c0,2.928,2.37,5.306,5.309,5.306C2071.617,252.815,2073.994,250.437,2073.994,247.509"/>
	<path style="fill:#FFFFFF;" d="M2073.894,291.326c0-2.878-2.326-5.213-5.209-5.213c-2.875,0-5.213,2.335-5.213,5.213
		c0,2.878,2.338,5.213,5.213,5.213C2071.567,296.539,2073.894,294.204,2073.894,291.326"/>
	<path style="fill:#FFFFFF;" d="M1423.426,225.605c0-6.926-5.612-12.538-12.535-12.538c-6.929,0-12.54,5.612-12.54,12.538
		c0,6.92,5.611,12.538,12.54,12.538C1417.814,238.143,1423.426,232.524,1423.426,225.605"/>
	<path style="fill:#FFFFFF;" d="M1438.504,247.511c0-3.215-2.604-5.819-5.819-5.819c-3.222,0-5.828,2.604-5.828,5.819
		c0,3.221,2.606,5.826,5.828,5.826C1435.9,253.337,1438.504,250.733,1438.504,247.511"/>
	<path style="fill:#FFFFFF;" d="M1380.169,269.425c0-7.104-5.757-12.864-12.861-12.864c-7.106,0-12.864,5.76-12.864,12.864
		c0,7.104,5.757,12.861,12.864,12.861C1374.412,282.286,1380.169,276.528,1380.169,269.425"/>
	<path style="fill:#FFFFFF;" d="M1438.518,269.425c0-3.228-2.611-5.844-5.833-5.844c-3.231,0-5.844,2.616-5.844,5.844
		c0,3.219,2.613,5.842,5.844,5.842C1435.907,275.266,1438.518,272.644,1438.518,269.425"/>
	<path style="fill:#FFFFFF;" d="M798.743,203.548c0-1.191-0.964-2.155-2.151-2.155c-1.192,0-2.158,0.964-2.158,2.155
		c0,1.187,0.966,2.151,2.158,2.151C797.779,205.699,798.743,204.735,798.743,203.548"/>
	<path style="fill:#FFFFFF;" d="M1737.84,291.187c0-2.449-1.982-4.434-4.429-4.434c-2.449,0-4.44,1.984-4.44,4.434
		c0,2.447,1.991,4.429,4.44,4.429C1735.858,295.616,1737.84,293.634,1737.84,291.187"/>
	<path style="fill:#FFFFFF;" d="M846.295,269.119c0-1.353-1.091-2.442-2.445-2.442c-1.346,0-2.445,1.089-2.445,2.442
		c0,1.344,1.098,2.445,2.445,2.445C845.203,271.564,846.295,270.463,846.295,269.119"/>
	<path style="fill:#FFFFFF;" d="M915.57,291.037c0-3.506-2.836-6.343-6.343-6.343c-3.5,0-6.343,2.837-6.343,6.343
		c0,3.495,2.844,6.334,6.343,6.334C912.734,297.371,915.57,294.532,915.57,291.037"/>
</g>
<g id="Ebene_1">
</g>
</svg>
