<?xml version="1.0" encoding="iso-8859-1"?>
<!-- Generator: Adobe Illustrator 18.0.0, SVG Export Plug-In . SVG Version: 6.00 Build 0)  -->
<!DOCTYPE svg PUBLIC "-//W3C//DTD SVG 1.1//EN" "http://www.w3.org/Graphics/SVG/1.1/DTD/svg11.dtd">
<svg version="1.1" xmlns="http://www.w3.org/2000/svg" xmlns:xlink="http://www.w3.org/1999/xlink" x="0px" y="0px"
	 viewBox="0 0 2800 750" style="enable-background:new 0 0 2800 750;" xml:space="preserve">
<g id="n7">
	<path style="fill:#FFFFFF;" d="M1137.089,521.083c0-6.122-4.967-11.091-11.1-11.091c-6.122,0-11.091,4.969-11.091,11.091
		c0,6.122,4.969,11.089,11.091,11.089C1132.122,532.172,1137.089,527.205,1137.089,521.083"/>
	<path style="fill:#FFFFFF;" d="M1697.921,434.528c0-1.451-1.178-2.629-2.631-2.629c-1.449,0-2.627,1.178-2.627,2.629
		c0,1.451,1.178,2.627,2.627,2.627C1696.743,437.155,1697.921,435.979,1697.921,434.528"/>
	<path style="fill:#FFFFFF;" d="M1632.894,522.172c0-1.838-1.492-3.331-3.331-3.331c-1.841,0-3.331,1.492-3.331,3.331
		c0,1.839,1.49,3.333,3.331,3.333C1631.402,525.505,1632.894,524.011,1632.894,522.172"/>
	<path style="fill:#FFFFFF;" d="M1554.516,478.444c0-4.108-3.331-7.439-7.437-7.439c-4.101,0-7.437,3.331-7.437,7.439
		c0,4.105,3.336,7.439,7.437,7.439C1551.185,485.882,1554.516,482.549,1554.516,478.444"/>
	<path style="fill:#FFFFFF;" d="M1595.427,478.444c0-2.499-2.019-4.527-4.52-4.527c-2.506,0-4.525,2.028-4.525,4.527
		s2.019,4.527,4.525,4.527C1593.408,482.971,1595.427,480.943,1595.427,478.444"/>
	<path style="fill:#FFFFFF;" d="M824.17,499.138c0-2.884-2.342-5.229-5.231-5.229c-2.884,0-5.229,2.344-5.229,5.229
		s2.344,5.231,5.229,5.231C821.827,504.369,824.17,502.022,824.17,499.138"/>
	<path style="fill:#FFFFFF;" d="M984.705,499.138c0-6.844-5.548-12.392-12.392-12.392c-6.846,0-12.394,5.548-12.394,12.392
		s5.548,12.394,12.394,12.394C979.157,511.532,984.705,505.982,984.705,499.138"/>
	<path style="fill:#FFFFFF;" d="M610.774,521.047c0-4.147-3.358-7.505-7.505-7.505c-4.149,0-7.507,3.358-7.507,7.505
		c0,4.149,3.358,7.507,7.507,7.507C607.415,528.554,610.774,525.195,610.774,521.047"/>
	<path style="fill:#FFFFFF;" d="M1042.751,433.403c0-6.359-5.154-11.524-11.521-11.524c-6.359,0-11.522,5.165-11.522,11.524
		c0,6.37,5.163,11.522,11.522,11.522C1037.597,444.924,1042.751,439.773,1042.751,433.403"/>
	<path style="fill:#FFFFFF;" d="M689.623,433.403c0-1.185-0.962-2.146-2.146-2.146c-1.185,0-2.148,0.961-2.148,2.146
		s0.964,2.155,2.148,2.155C688.662,435.558,689.623,434.587,689.623,433.403"/>
	<path style="fill:#FFFFFF;" d="M1441.746,521.047c0-5.145-4.165-9.309-9.312-9.309c-5.131,0-9.309,4.165-9.309,9.309
		s4.179,9.31,9.309,9.31C1437.582,530.356,1441.746,526.191,1441.746,521.047"/>
	<path style="fill:#FFFFFF;" d="M1969.435,477.229c0-6.159-4.99-11.148-11.146-11.148c-6.149,0-11.141,4.99-11.141,11.148
		c0,6.149,4.992,11.139,11.141,11.139C1964.446,488.368,1969.435,483.378,1969.435,477.229"/>
	<path style="fill:#FFFFFF;" d="M2325.607,411.494c0-2.36-1.914-4.279-4.281-4.279c-2.363,0-4.283,1.918-4.283,4.279
		c0,2.36,1.921,4.276,4.283,4.276C2323.693,415.77,2325.607,413.854,2325.607,411.494"/>
	<path style="fill:#FFFFFF;" d="M528.917,433.307c0-2.593-2.103-4.698-4.689-4.698c-2.593,0-4.689,2.105-4.689,4.698
		c0,2.586,2.096,4.689,4.689,4.689C526.814,437.996,528.917,435.893,528.917,433.307"/>
	<path style="fill:#FFFFFF;" d="M536.253,499.035c0-6.641-5.377-12.023-12.025-12.023c-6.639,0-12.023,5.382-12.023,12.023
		c0,6.637,5.384,12.023,12.023,12.023C530.876,511.058,536.253,505.672,536.253,499.035"/>
	<path style="fill:#FFFFFF;" d="M508.683,499.035c0-3.52-2.85-6.372-6.373-6.372c-3.513,0-6.363,2.853-6.363,6.372
		c0,3.52,2.85,6.373,6.363,6.373C505.832,505.408,508.683,502.555,508.683,499.035"/>
	<path style="fill:#FFFFFF;" d="M527.543,564.864c0-1.827-1.485-3.313-3.315-3.313c-1.83,0-3.313,1.486-3.313,3.313
		c0,1.832,1.483,3.317,3.313,3.317C526.058,568.181,527.543,566.696,527.543,564.864"/>
	<path style="fill:#FFFFFF;" d="M1000.881,203.548c0-1.549-1.253-2.802-2.802-2.802c-1.547,0-2.805,1.253-2.805,2.802
		c0,1.549,1.258,2.805,2.805,2.805C999.628,206.353,1000.881,205.097,1000.881,203.548"/>
	<path style="fill:#FFFFFF;" d="M1621.033,247.368c0-6.637-5.379-12.023-12.027-12.023c-6.637,0-12.021,5.386-12.021,12.023
		c0,6.639,5.384,12.023,12.021,12.023C1615.654,259.391,1621.033,254.007,1621.033,247.368"/>
	<path style="fill:#FFFFFF;" d="M1591.043,291.187c0-2.18-1.763-3.946-3.951-3.946c-2.181,0-3.948,1.766-3.948,3.946
		c0,2.185,1.768,3.953,3.948,3.953C1589.279,295.14,1591.043,293.372,1591.043,291.187"/>
	<path style="fill:#FFFFFF;" d="M1397.107,225.605c0-4.427-3.586-8.011-8.006-8.011c-4.429,0-8.008,3.584-8.008,8.011
		c0,4.42,3.579,8.004,8.008,8.004C1393.52,233.609,1397.107,230.025,1397.107,225.605"/>
	<path style="fill:#FFFFFF;" d="M733.545,291.187c0-1.479-1.201-2.68-2.688-2.68c-1.476,0-2.68,1.201-2.68,2.68
		c0,1.485,1.203,2.688,2.68,2.688C732.345,293.876,733.545,292.673,733.545,291.187"/>
</g>
<g id="Ebene_1">
</g>
</svg>
