<?xml version="1.0" encoding="iso-8859-1"?>
<!-- Generator: Adobe Illustrator 18.0.0, SVG Export Plug-In . SVG Version: 6.00 Build 0)  -->
<!DOCTYPE svg PUBLIC "-//W3C//DTD SVG 1.1//EN" "http://www.w3.org/Graphics/SVG/1.1/DTD/svg11.dtd">
<svg version="1.1" xmlns="http://www.w3.org/2000/svg" xmlns:xlink="http://www.w3.org/1999/xlink" x="0px" y="0px"
	 viewBox="0 0 1200 1760.01" style="enable-background:new 0 0 1200 1760.01;" xml:space="preserve">
<g id="n8">
	<path style="fill:#FFFFFF;" d="M501.708,877.143c0-0.35-0.283-0.634-0.634-0.634c-0.35,0-0.632,0.284-0.632,0.634
		c0,0.346,0.282,0.629,0.632,0.629C501.425,877.771,501.708,877.488,501.708,877.143"/>
	<path style="fill:#FFFFFF;" d="M751.942,868.06c0-0.612-0.496-1.11-1.108-1.11s-1.109,0.498-1.109,1.11s0.497,1.107,1.109,1.107
		S751.942,868.672,751.942,868.06"/>
	<path style="fill:#FFFFFF;" d="M752.959,877.451c0-1.175-0.95-2.128-2.125-2.128s-2.128,0.953-2.128,2.128
		c0,1.174,0.953,2.127,2.128,2.127S752.959,878.625,752.959,877.451"/>
	<path style="fill:#FFFFFF;" d="M752.163,905.627c0-0.736-0.596-1.333-1.329-1.333c-0.736,0-1.327,0.597-1.327,1.333
		c0,0.732,0.591,1.328,1.327,1.328C751.567,906.955,752.163,906.359,752.163,905.627"/>
	<path style="fill:#FFFFFF;" d="M417.141,867.732c0-0.397-0.32-0.722-0.721-0.722c-0.398,0-0.722,0.324-0.722,0.722
		c0,0.401,0.323,0.722,0.722,0.722C416.82,868.454,417.141,868.134,417.141,867.732"/>
	<path style="fill:#FFFFFF;" d="M402.191,895.908c0-2.518-2.039-4.554-4.554-4.554c-2.514,0-4.553,2.036-4.553,4.554
		c0,2.515,2.039,4.554,4.553,4.554C400.152,900.462,402.191,898.423,402.191,895.908"/>
	<path style="fill:#FFFFFF;" d="M263.176,895.906c0-2.725-2.209-4.938-4.938-4.938c-2.726,0-4.939,2.214-4.939,4.938
		c0,2.73,2.214,4.94,4.939,4.94C260.967,900.846,263.176,898.637,263.176,895.906"/>
	<path style="fill:#FFFFFF;" d="M420.093,905.299c0-2.027-1.645-3.674-3.673-3.674s-3.671,1.646-3.671,3.674
		c0,2.029,1.643,3.67,3.671,3.67S420.093,907.328,420.093,905.299"/>
	<path style="fill:#FFFFFF;" d="M822.462,867.732c0-1.219-0.991-2.209-2.209-2.209c-1.22,0-2.209,0.99-2.209,2.209
		c0,1.223,0.989,2.209,2.209,2.209C821.471,869.941,822.462,868.955,822.462,867.732"/>
	<path style="fill:#FFFFFF;" d="M853.353,877.123c0-2.721-2.206-4.926-4.927-4.926c-2.719,0-4.924,2.205-4.924,4.926
		s2.205,4.929,4.924,4.929C851.147,882.052,853.353,879.844,853.353,877.123"/>
	<path style="fill:#FFFFFF;" d="M840.857,895.908c0-1.005-0.815-1.822-1.823-1.822c-1.006,0-1.819,0.817-1.819,1.822
		c0,1.006,0.813,1.818,1.819,1.818C840.042,897.727,840.857,896.914,840.857,895.908"/>
	<path style="fill:#FFFFFF;" d="M881.328,877.123c0-2.609-2.117-4.723-4.727-4.723c-2.61,0-4.728,2.113-4.728,4.723
		c0,2.609,2.117,4.727,4.728,4.727C879.211,881.85,881.328,879.732,881.328,877.123"/>
	<path style="fill:#FFFFFF;" d="M899.895,895.908c0-2.492-2.021-4.514-4.513-4.514c-2.489,0-4.51,2.021-4.51,4.514
		c0,2.492,2.021,4.514,4.51,4.514C897.874,900.422,899.895,898.4,899.895,895.908"/>
	<path style="fill:#FFFFFF;" d="M980.796,905.314c0-2.727-2.209-4.939-4.939-4.939c-2.725,0-4.939,2.213-4.939,4.939
		c0,2.73,2.215,4.938,4.939,4.938C978.587,910.253,980.796,908.045,980.796,905.314"/>
	<path style="fill:#FFFFFF;" d="M995.869,905.299c0-0.678-0.554-1.226-1.229-1.226c-0.679,0-1.227,0.548-1.227,1.226
		c0,0.678,0.548,1.227,1.227,1.227C995.315,906.525,995.869,905.977,995.869,905.299"/>
	<path style="fill:#FFFFFF;" d="M217.667,867.691c0-1.49-1.211-2.701-2.702-2.701c-1.49,0-2.698,1.211-2.698,2.701
		c0,1.492,1.208,2.698,2.698,2.698C216.456,870.39,217.667,869.184,217.667,867.691"/>
	<path style="fill:#FFFFFF;" d="M228.549,914.646c0-2.312-1.878-4.189-4.189-4.189c-2.315,0-4.192,1.877-4.192,4.189
		c0,2.315,1.877,4.193,4.192,4.193C226.671,918.839,228.549,916.961,228.549,914.646"/>
	<path style="fill:#FFFFFF;" d="M236.032,916.15c0-0.497-0.404-0.901-0.901-0.901c-0.5,0-0.901,0.404-0.901,0.901
		c0,0.498,0.401,0.903,0.901,0.903C235.628,917.054,236.032,916.648,236.032,916.15"/>
	<path style="fill:#FFFFFF;" d="M420.822,778.602c0-1.521-1.229-2.749-2.749-2.749c-1.517,0-2.746,1.229-2.746,2.749
		c0,1.516,1.229,2.745,2.746,2.745C419.593,781.348,420.822,780.118,420.822,778.602"/>
	<path style="fill:#FFFFFF;" d="M451.557,778.602c0-2.935-2.374-5.312-5.308-5.312c-2.935,0-5.312,2.377-5.312,5.312
		c0,2.931,2.378,5.308,5.312,5.308C449.183,783.91,451.557,781.533,451.557,778.602"/>
	<path style="fill:#FFFFFF;" d="M786.094,769.075c0-2.713-2.196-4.91-4.909-4.91c-2.71,0-4.908,2.197-4.908,4.91
		c0,2.71,2.198,4.907,4.908,4.907C783.897,773.982,786.094,771.785,786.094,769.075"/>
	<path style="fill:#FFFFFF;" d="M691.333,769.211c0-1.111-0.903-2.013-2.011-2.013c-1.11,0-2.01,0.901-2.01,2.013
		c0,1.109,0.899,2.011,2.01,2.011C690.43,771.222,691.333,770.32,691.333,769.211"/>
	<path style="fill:#FFFFFF;" d="M700.995,817.67c0-0.496-0.404-0.9-0.901-0.9c-0.499,0-0.901,0.404-0.901,0.9
		c0,0.5,0.402,0.904,0.901,0.904C700.591,818.574,700.995,818.17,700.995,817.67"/>
	<path style="fill:#FFFFFF;" d="M868.422,769.268c0-0.471-0.383-0.85-0.854-0.85c-0.467,0-0.85,0.379-0.85,0.85
		c0,0.472,0.383,0.851,0.85,0.851C868.039,770.118,868.422,769.739,868.422,769.268"/>
</g>
<g id="Ebene_1">
</g>
</svg>
