<?xml version="1.0" encoding="iso-8859-1"?>
<!-- Generator: Adobe Illustrator 18.0.0, SVG Export Plug-In . SVG Version: 6.00 Build 0)  -->
<!DOCTYPE svg PUBLIC "-//W3C//DTD SVG 1.1//EN" "http://www.w3.org/Graphics/SVG/1.1/DTD/svg11.dtd">
<svg version="1.1" xmlns="http://www.w3.org/2000/svg" xmlns:xlink="http://www.w3.org/1999/xlink" x="0px" y="0px"
	 viewBox="0 0 1200 1760.01" style="enable-background:new 0 0 1200 1760.01;" xml:space="preserve">
<g id="n9">
	<path style="fill:#FFFFFF;" d="M465.047,895.924c0-0.85-0.688-1.535-1.539-1.535c-0.847,0-1.535,0.685-1.535,1.535
		c0,0.851,0.688,1.535,1.535,1.535C464.358,897.459,465.047,896.774,465.047,895.924"/>
	<path style="fill:#FFFFFF;" d="M731.18,877.609c0-2.691-2.182-4.875-4.874-4.875c-2.69,0-4.87,2.184-4.87,4.875
		c0,2.69,2.18,4.869,4.87,4.869C728.998,882.478,731.18,880.3,731.18,877.609"/>
	<path style="fill:#FFFFFF;" d="M737.824,896.391c0-1.174-0.953-2.124-2.128-2.124c-1.169,0-2.123,0.95-2.123,2.124
		c0,1.174,0.954,2.124,2.123,2.124C736.871,898.515,737.824,897.564,737.824,896.391"/>
	<path style="fill:#FFFFFF;" d="M361.496,867.732c0-0.788-0.638-1.424-1.425-1.424c-0.788,0-1.425,0.636-1.425,1.424
		c0,0.788,0.637,1.424,1.425,1.424C360.858,869.156,361.496,868.521,361.496,867.732"/>
	<path style="fill:#FFFFFF;" d="M633.648,877.123c0-0.674-0.55-1.223-1.224-1.223c-0.677,0-1.225,0.549-1.225,1.223
		c0,0.678,0.548,1.227,1.225,1.227C633.099,878.35,633.648,877.801,633.648,877.123"/>
	<path style="fill:#FFFFFF;" d="M345.803,886.518c0-2.496-2.021-4.517-4.514-4.517c-2.495,0-4.517,2.021-4.517,4.517
		c0,2.492,2.021,4.514,4.517,4.514C343.781,891.031,345.803,889.01,345.803,886.518"/>
	<path style="fill:#FFFFFF;" d="M361.897,886.518c0-1.008-0.817-1.826-1.826-1.826c-1.005,0-1.822,0.818-1.822,1.826
		c0,1.005,0.817,1.822,1.822,1.822C361.08,888.34,361.897,887.522,361.897,886.518"/>
	<path style="fill:#FFFFFF;" d="M421.731,886.518c0-2.934-2.378-5.312-5.311-5.312c-2.931,0-5.309,2.379-5.309,5.312
		c0,2.93,2.378,5.309,5.309,5.309C419.353,891.826,421.731,889.447,421.731,886.518"/>
	<path style="fill:#FFFFFF;" d="M608.797,895.908c0-2.51-2.037-4.546-4.548-4.546s-4.545,2.036-4.545,4.546
		c0,2.511,2.034,4.547,4.545,4.547S608.797,898.419,608.797,895.908"/>
	<path style="fill:#FFFFFF;" d="M628.214,895.908c0-2.863-2.318-5.184-5.183-5.184c-2.859,0-5.184,2.32-5.184,5.184
		c0,2.86,2.324,5.184,5.184,5.184C625.896,901.092,628.214,898.768,628.214,895.908"/>
	<path style="fill:#FFFFFF;" d="M633.227,895.908c0-0.445-0.36-0.806-0.803-0.806c-0.443,0-0.804,0.36-0.804,0.806
		c0,0.445,0.36,0.807,0.804,0.807C632.867,896.715,633.227,896.353,633.227,895.908"/>
	<path style="fill:#FFFFFF;" d="M444.89,858.342c0-1.778-1.439-3.218-3.217-3.218c-1.778,0-3.218,1.44-3.218,3.218
		c0,1.777,1.439,3.217,3.218,3.217C443.45,861.559,444.89,860.119,444.89,858.342"/>
	<path style="fill:#FFFFFF;" d="M317.409,877.123c0-2.371-1.921-4.292-4.296-4.292c-2.37,0-4.292,1.921-4.292,4.292
		c0,2.375,1.922,4.296,4.292,4.296C315.488,881.419,317.409,879.498,317.409,877.123"/>
	<path style="fill:#FFFFFF;" d="M518.455,886.518c0-0.52-0.419-0.94-0.938-0.94c-0.515,0-0.935,0.42-0.935,0.94
		c0,0.516,0.421,0.935,0.935,0.935C518.036,887.453,518.455,887.033,518.455,886.518"/>
	<path style="fill:#FFFFFF;" d="M528.943,895.908c0-1.123-0.909-2.035-2.035-2.035c-1.124,0-2.032,0.912-2.032,2.035
		c0,1.123,0.908,2.032,2.032,2.032C528.034,897.94,528.943,897.031,528.943,895.908"/>
	<path style="fill:#FFFFFF;" d="M867.939,895.908c0-0.404-0.329-0.729-0.729-0.729c-0.402,0-0.729,0.324-0.729,0.729
		c0,0.401,0.326,0.728,0.729,0.728C867.61,896.637,867.939,896.31,867.939,895.908"/>
	<path style="fill:#FFFFFF;" d="M979.977,877.123c0-2.275-1.844-4.119-4.119-4.119c-2.274,0-4.12,1.844-4.12,4.119
		s1.846,4.119,4.12,4.119C978.133,881.242,979.977,879.398,979.977,877.123"/>
	<path style="fill:#FFFFFF;" d="M216.659,905.256c0-0.935-0.757-1.692-1.693-1.692c-0.934,0-1.691,0.758-1.691,1.692
		c0,0.936,0.757,1.693,1.691,1.693C215.902,906.949,216.659,906.191,216.659,905.256"/>
	<path style="fill:#FFFFFF;" d="M822.465,769.211c0-0.92-0.743-1.667-1.663-1.667c-0.92,0-1.665,0.747-1.665,1.667
		c0,0.917,0.745,1.665,1.665,1.665C821.722,770.876,822.465,770.128,822.465,769.211"/>
	<path style="fill:#FFFFFF;" d="M832.879,769.211c0-1.482-1.203-2.687-2.687-2.687s-2.683,1.204-2.683,2.687
		c0,1.481,1.199,2.684,2.683,2.684S832.879,770.691,832.879,769.211"/>
	<path style="fill:#FFFFFF;" d="M785.9,778.467c0-2.604-2.114-4.713-4.716-4.713c-2.603,0-4.713,2.109-4.713,4.713
		c0,2.602,2.11,4.711,4.713,4.711C783.786,783.178,785.9,781.068,785.9,778.467"/>
	<path style="fill:#FFFFFF;" d="M878.585,769.268c0-0.895-0.728-1.623-1.623-1.623c-0.898,0-1.622,0.729-1.622,1.623
		c0,0.898,0.724,1.624,1.622,1.624C877.857,770.892,878.585,770.166,878.585,769.268"/>
	<path style="fill:#FFFFFF;" d="M879.781,778.658c0-1.557-1.261-2.818-2.819-2.818c-1.561,0-2.823,1.262-2.823,2.818
		c0,1.56,1.262,2.824,2.823,2.824C878.521,781.482,879.781,780.219,879.781,778.658"/>
	<path style="fill:#FFFFFF;" d="M317.439,778.602c0-2.492-2.021-4.513-4.514-4.513c-2.492,0-4.513,2.021-4.513,4.513
		c0,2.491,2.021,4.513,4.513,4.513C315.418,783.115,317.439,781.094,317.439,778.602"/>
	<path style="fill:#FFFFFF;" d="M317.435,787.993c0-2.493-2.017-4.509-4.51-4.509c-2.488,0-4.51,2.016-4.51,4.509
		c0,2.492,2.022,4.51,4.51,4.51C315.418,792.503,317.435,790.485,317.435,787.993"/>
	<path style="fill:#FFFFFF;" d="M728.37,787.993c0-2.493-2.018-4.509-4.51-4.509c-2.488,0-4.509,2.016-4.509,4.509
		c0,2.492,2.021,4.51,4.509,4.51C726.352,792.503,728.37,790.485,728.37,787.993"/>
	<path style="fill:#FFFFFF;" d="M362.046,806.711c0-0.383-0.31-0.689-0.689-0.689s-0.685,0.307-0.685,0.689
		c0,0.379,0.307,0.685,0.685,0.685S362.046,807.09,362.046,806.711"/>
</g>
<g id="Ebene_1">
</g>
</svg>
