<?xml version="1.0" encoding="iso-8859-1"?>
<!-- Generator: Adobe Illustrator 18.0.0, SVG Export Plug-In . SVG Version: 6.00 Build 0)  -->
<!DOCTYPE svg PUBLIC "-//W3C//DTD SVG 1.1//EN" "http://www.w3.org/Graphics/SVG/1.1/DTD/svg11.dtd">
<svg version="1.1" xmlns="http://www.w3.org/2000/svg" xmlns:xlink="http://www.w3.org/1999/xlink" x="0px" y="0px"
	 viewBox="0 0 2800 750" style="enable-background:new 0 0 2800 750;" xml:space="preserve">
<g id="ne1">
	<path style="fill:#FFFFFF;" d="M1441.317,481.119c0-2.762-2.226-5.006-4.999-5.006c-2.762,0-5,2.244-5,5.006
		c0,2.753,2.238,4.99,5,4.99C1439.091,486.11,1441.317,483.872,1441.317,481.119"/>
	<path style="fill:#FFFFFF;" d="M1846.077,481.092c0-5.839-4.715-10.569-10.551-10.569c-5.839,0-10.556,4.73-10.556,10.569
		c0,5.823,4.717,10.556,10.556,10.556C1841.362,491.648,1846.077,486.915,1846.077,481.092"/>
	<path style="fill:#FFFFFF;" d="M1866.224,524.742c0-4.904-3.968-8.881-8.877-8.881c-4.902,0-8.881,3.977-8.881,8.881
		c0,4.896,3.979,8.882,8.881,8.882C1862.256,533.623,1866.224,529.637,1866.224,524.742"/>
	<path style="fill:#FFFFFF;" d="M2110.211,502.907c0-6.334-5.137-11.474-11.479-11.474c-6.336,0-11.476,5.14-11.476,11.474
		c0,6.352,5.14,11.483,11.476,11.483C2105.073,514.39,2110.211,509.259,2110.211,502.907"/>
	<path style="fill:#FFFFFF;" d="M1561.431,524.746c0-1.832-1.48-3.321-3.323-3.321c-1.826,0-3.31,1.489-3.31,3.321
		c0,1.837,1.484,3.316,3.31,3.316C1559.952,528.063,1561.431,526.583,1561.431,524.746"/>
	<path style="fill:#FFFFFF;" d="M1299.566,437.395c0-1.606-1.296-2.907-2.905-2.907c-1.612,0-2.911,1.301-2.911,2.907
		c0,1.611,1.3,2.911,2.911,2.911C1298.27,440.307,1299.566,439.006,1299.566,437.395"/>
	<path style="fill:#FFFFFF;" d="M997.06,502.88c0-3.298-2.675-5.979-5.972-5.979c-3.289,0-5.959,2.681-5.959,5.979
		c0,3.294,2.67,5.959,5.959,5.959C994.385,508.838,997.06,506.173,997.06,502.88"/>
	<path style="fill:#FFFFFF;" d="M1022.781,502.88c0-5.452-4.416-9.861-9.864-9.861c-5.439,0-9.855,4.409-9.855,9.861
		c0,5.438,4.416,9.854,9.855,9.854C1018.365,512.734,1022.781,508.318,1022.781,502.88"/>
	<path style="fill:#FFFFFF;" d="M1041.063,502.88c0-3.493-2.831-6.33-6.316-6.33c-3.487,0-6.321,2.837-6.321,6.33
		c0,3.488,2.833,6.312,6.321,6.312C1038.232,509.191,1041.063,506.368,1041.063,502.88"/>
	<path style="fill:#FFFFFF;" d="M1088.133,502.88c0-5.384-4.355-9.741-9.734-9.741c-5.383,0-9.737,4.357-9.737,9.741
		c0,5.366,4.354,9.737,9.737,9.737C1083.778,512.616,1088.133,508.246,1088.133,502.88"/>
	<path style="fill:#FFFFFF;" d="M738.745,524.705c0-5.289-4.278-9.569-9.565-9.569c-5.278,0-9.563,4.28-9.563,9.569
		c0,5.275,4.285,9.565,9.563,9.565C734.467,534.27,738.745,529.981,738.745,524.705"/>
	<path style="fill:#FFFFFF;" d="M915.56,524.705c0-5.085-4.125-9.203-9.199-9.203c-5.083,0-9.206,4.117-9.206,9.203
		c0,5.072,4.123,9.198,9.206,9.198C911.434,533.904,915.56,529.777,915.56,524.705"/>
	<path style="fill:#FFFFFF;" d="M934.284,524.705c0-3.375-2.729-6.113-6.099-6.113c-3.372,0-6.109,2.737-6.109,6.113
		c0,3.362,2.737,6.099,6.109,6.099C931.555,530.804,934.284,528.067,934.284,524.705"/>
	<path style="fill:#FFFFFF;" d="M1060.577,524.705c0-2.217-1.796-4.009-4.004-4.009c-2.216,0-4.002,1.792-4.002,4.009
		c0,2.208,1.786,4,4.002,4C1058.781,528.705,1060.577,526.913,1060.577,524.705"/>
	<path style="fill:#FFFFFF;" d="M1354.063,459.221c0-4.757-3.854-8.612-8.621-8.612c-4.757,0-8.617,3.855-8.617,8.612
		c0,4.762,3.859,8.621,8.617,8.621C1350.209,467.842,1354.063,463.983,1354.063,459.221"/>
	<path style="fill:#FFFFFF;" d="M1391.34,524.705c0-1.244-1-2.24-2.241-2.24c-1.244,0-2.25,0.995-2.25,2.24s1.006,2.244,2.25,2.244
		C1390.34,526.949,1391.34,525.95,1391.34,524.705"/>
	<path style="fill:#FFFFFF;" d="M1395.683,207.154c0-1.541-1.25-2.798-2.794-2.798c-1.543,0-2.794,1.258-2.794,2.798
		c0,1.536,1.251,2.787,2.794,2.787C1394.433,209.941,1395.683,208.69,1395.683,207.154"/>
	<path style="fill:#FFFFFF;" d="M1420.287,272.625c0-3.07-2.491-5.556-5.561-5.556c-3.086,0-5.576,2.486-5.576,5.556
		c0,3.07,2.491,5.572,5.576,5.572C1417.796,278.196,1420.287,275.694,1420.287,272.625"/>
	<path style="fill:#FFFFFF;" d="M1443.339,294.448c0-3.742-3.043-6.782-6.798-6.782c-3.751,0-6.791,3.04-6.791,6.782
		c0,3.753,3.04,6.791,6.791,6.791C1440.296,301.239,1443.339,298.201,1443.339,294.448"/>
	<path style="fill:#FFFFFF;" d="M1956.529,228.819c0-4.861-3.948-8.811-8.802-8.811c-4.873,0-8.805,3.95-8.805,8.811
		c0,4.868,3.932,8.809,8.805,8.809C1952.582,237.628,1956.529,233.687,1956.529,228.819"/>
	<path style="fill:#FFFFFF;" d="M1934.082,294.305c0-4.522-3.656-8.182-8.178-8.182c-4.522,0-8.191,3.66-8.191,8.182
		c0,4.509,3.669,8.167,8.191,8.167C1930.426,302.472,1934.082,298.814,1934.082,294.305"/>
	<path style="fill:#FFFFFF;" d="M633.276,293.545c0-4.979,4.03-9.01,9.01-9.01c4.97,0,9.008,4.031,9.008,9.01
		c0,4.975-4.038,9.008-9.008,9.008C637.306,302.554,633.276,298.52,633.276,293.545"/>
	<path style="fill:#FFFFFF;" d="M2065.593,228.378c0-5.434-4.407-9.827-9.838-9.827c-5.432,0-9.843,4.393-9.843,9.827
		c0,5.436,4.411,9.841,9.843,9.841C2061.186,238.218,2065.593,233.814,2065.593,228.378"/>
	<path style="fill:#FFFFFF;" d="M2060.75,250.215c0-2.764-2.228-5.002-4.995-5.002c-2.762,0-5.004,2.237-5.004,5.002
		c0,2.749,2.242,4.997,5.004,4.997C2058.521,255.212,2060.75,252.964,2060.75,250.215"/>
	<path style="fill:#FFFFFF;" d="M2085.32,293.867c0-4.278-3.459-7.744-7.741-7.744c-4.267,0-7.73,3.466-7.73,7.744
		c0,4.276,3.463,7.73,7.73,7.73C2081.861,301.597,2085.32,298.142,2085.32,293.867"/>
	<path style="fill:#FFFFFF;" d="M1172.103,206.907c0-3.534-2.864-6.404-6.397-6.404c-3.545,0-6.399,2.871-6.399,6.404
		c0,3.536,2.854,6.404,6.399,6.404C1169.239,213.312,1172.103,210.443,1172.103,206.907"/>
	<path style="fill:#FFFFFF;" d="M1129.857,228.737c0-4.314-3.49-7.818-7.81-7.818c-4.312,0-7.803,3.504-7.803,7.818
		c0,4.31,3.492,7.814,7.803,7.814C1126.367,236.551,1129.857,233.047,1129.857,228.737"/>
	<path style="fill:#FFFFFF;" d="M1304.144,228.737c0-4.142-3.353-7.499-7.482-7.499c-4.144,0-7.483,3.357-7.483,7.499
		c0,4.129,3.339,7.486,7.483,7.486C1300.791,236.223,1304.144,232.866,1304.144,228.737"/>
	<path style="fill:#FFFFFF;" d="M1828.015,228.737c0-4.165-3.375-7.538-7.538-7.538c-4.149,0-7.524,3.373-7.524,7.538
		c0,4.16,3.375,7.527,7.524,7.527C1824.64,236.264,1828.015,232.898,1828.015,228.737"/>
	<path style="fill:#FFFFFF;" d="M1063.263,185.079c0-3.699-2.993-6.685-6.691-6.685c-3.696,0-6.698,2.986-6.698,6.685
		c0,3.708,3.002,6.696,6.698,6.696C1060.27,191.775,1063.263,188.787,1063.263,185.079"/>
	<path style="fill:#FFFFFF;" d="M1039.732,272.389c0-2.758-2.231-4.984-4.986-4.984c-2.754,0-4.986,2.226-4.986,4.984
		c0,2.751,2.232,4.981,4.986,4.981C1037.501,277.371,1039.732,275.14,1039.732,272.389"/>
	<path style="fill:#FFFFFF;" d="M1068.919,272.389c0-6.82-5.529-12.352-12.346-12.352c-6.818,0-12.347,5.531-12.347,12.352
		c0,6.816,5.529,12.345,12.347,12.345C1063.39,284.734,1068.919,279.205,1068.919,272.389"/>
	<path style="fill:#FFFFFF;" d="M1657.569,272.389c0-2.758-2.237-4.984-4.984-4.984c-2.76,0-4.988,2.226-4.988,4.984
		c0,2.751,2.228,4.981,4.988,4.981C1655.331,277.371,1657.569,275.14,1657.569,272.389"/>
	<path style="fill:#FFFFFF;" d="M2179.478,228.737c0-6.82-5.533-12.352-12.343-12.352c-6.823,0-12.356,5.531-12.356,12.352
		c0,6.821,5.533,12.345,12.356,12.345C2173.944,241.082,2179.478,235.558,2179.478,228.737"/>
	<path style="fill:#FFFFFF;" d="M2431.42,265.345c0-5.798-4.7-10.49-10.503-10.49c-5.794,0-10.481,4.692-10.481,10.49
		c0,5.791,4.687,10.499,10.481,10.499C2426.72,275.844,2431.42,271.136,2431.42,265.345"/>
	<path style="fill:#FFFFFF;" d="M2239.426,243.722c0-5.809,4.692-10.504,10.497-10.504c5.791,0,10.488,4.694,10.488,10.504
		c0,5.787-4.697,10.49-10.488,10.49C2244.118,254.212,2239.426,249.509,2239.426,243.722"/>
</g>
<g id="Ebene_1">
</g>
</svg>
