<?xml version="1.0" encoding="iso-8859-1"?>
<!-- Generator: Adobe Illustrator 18.0.0, SVG Export Plug-In . SVG Version: 6.00 Build 0)  -->
<!DOCTYPE svg PUBLIC "-//W3C//DTD SVG 1.1//EN" "http://www.w3.org/Graphics/SVG/1.1/DTD/svg11.dtd">
<svg version="1.1" xmlns="http://www.w3.org/2000/svg" xmlns:xlink="http://www.w3.org/1999/xlink" x="0px" y="0px"
	 viewBox="0 0 2800 750" style="enable-background:new 0 0 2800 750;" xml:space="preserve">
<g id="ne11">
	<path style="fill:#FFFFFF;" d="M1747.442,437.431c0-2.871-2.332-5.21-5.21-5.21c-2.88,0-5.217,2.339-5.217,5.21
		c0,2.884,2.337,5.214,5.217,5.214C1745.11,442.646,1747.442,440.316,1747.442,437.431"/>
	<path style="fill:#FFFFFF;" d="M1746.458,502.911c0-2.33-1.887-4.235-4.226-4.235c-2.339,0-4.235,1.905-4.235,4.235
		c0,2.335,1.896,4.23,4.235,4.23C1744.571,507.142,1746.458,505.246,1746.458,502.911"/>
	<path style="fill:#FFFFFF;" d="M1815.392,502.911c0-0.937-0.76-1.692-1.69-1.692c-0.934,0-1.703,0.756-1.703,1.692
		s0.769,1.701,1.703,1.701C1814.632,504.613,1815.392,503.848,1815.392,502.911"/>
	<path style="fill:#FFFFFF;" d="M1904.765,502.911c0-2.077-1.681-3.758-3.762-3.758c-2.079,0-3.76,1.681-3.76,3.758
		c0,2.081,1.681,3.764,3.76,3.764C1903.085,506.676,1904.765,504.992,1904.765,502.911"/>
	<path style="fill:#FFFFFF;" d="M2086.476,415.61c0-5.289-4.287-9.572-9.571-9.572c-5.294,0-9.578,4.283-9.578,9.572
		c0,5.282,4.285,9.567,9.578,9.567C2082.189,425.177,2086.476,420.892,2086.476,415.61"/>
	<path style="fill:#FFFFFF;" d="M2044.733,437.431c0-6.332-5.138-11.479-11.479-11.479c-6.336,0-11.481,5.147-11.481,11.479
		c0,6.341,5.144,11.476,11.481,11.476C2039.596,448.908,2044.733,443.772,2044.733,437.431"/>
	<path style="fill:#FFFFFF;" d="M2088.383,524.773c0-6.334-5.131-11.479-11.474-11.479c-6.339,0-11.483,5.144-11.483,11.479
		c0,6.343,5.144,11.479,11.483,11.479C2083.252,536.252,2088.383,531.117,2088.383,524.773"/>
	<path style="fill:#FFFFFF;" d="M1568.154,459.275c0-5.554-4.499-10.044-10.046-10.044c-5.54,0-10.037,4.491-10.037,10.044
		c0,5.54,4.497,10.026,10.037,10.026C1563.655,469.302,1568.154,464.816,1568.154,459.275"/>
	<path style="fill:#FFFFFF;" d="M1546.786,481.097c0-5.805-4.701-10.501-10.497-10.501c-5.798,0-10.501,4.696-10.501,10.501
		c0,5.789,4.703,10.492,10.501,10.492C1542.085,491.589,1546.786,486.886,1546.786,481.097"/>
	<path style="fill:#FFFFFF;" d="M826.052,437.395c0-5.278-4.285-9.567-9.566-9.567c-5.287,0-9.565,4.289-9.565,9.567
		c0,5.287,4.278,9.565,9.565,9.565C821.767,446.96,826.052,442.682,826.052,437.395"/>
	<path style="fill:#FFFFFF;" d="M741.527,459.221c0-6.816-5.527-12.34-12.347-12.34c-6.816,0-12.345,5.524-12.345,12.34
		c0,6.821,5.529,12.343,12.345,12.343C736.001,471.564,741.527,466.042,741.527,459.221"/>
	<path style="fill:#FFFFFF;" d="M805.723,502.88c0-6.119-4.952-11.071-11.058-11.071c-6.12,0-11.074,4.952-11.074,11.071
		c0,6.108,4.953,11.067,11.074,11.067C800.772,513.946,805.723,508.987,805.723,502.88"/>
	<path style="fill:#FFFFFF;" d="M951.473,459.221c0-0.805-0.654-1.466-1.465-1.466c-0.813,0-1.463,0.661-1.463,1.466
		c0,0.81,0.649,1.475,1.463,1.475C950.82,460.696,951.473,460.031,951.473,459.221"/>
	<path style="fill:#FFFFFF;" d="M909.524,502.88c0-1.755-1.42-3.174-3.164-3.174c-1.752,0-3.174,1.418-3.174,3.174
		c0,1.742,1.422,3.163,3.174,3.163C908.104,506.042,909.524,504.622,909.524,502.88"/>
	<path style="fill:#FFFFFF;" d="M1037.93,524.705c0-1.764-1.427-3.185-3.183-3.185c-1.76,0-3.189,1.421-3.189,3.185
		c0,1.76,1.429,3.185,3.189,3.185C1036.502,527.891,1037.93,526.466,1037.93,524.705"/>
	<path style="fill:#FFFFFF;" d="M1392.969,459.221c0-2.129-1.737-3.871-3.87-3.871c-2.14,0-3.875,1.742-3.875,3.871
		c0,2.142,1.735,3.875,3.875,3.875C1391.231,463.096,1392.969,461.363,1392.969,459.221"/>
	<path style="fill:#FFFFFF;" d="M1382.257,272.471c0-6.183-5.013-11.196-11.189-11.196c-6.184,0-11.192,5.013-11.192,11.196
		c0,6.178,5.009,11.189,11.192,11.189C1377.244,283.66,1382.257,278.649,1382.257,272.471"/>
	<path style="fill:#FFFFFF;" d="M1951.046,185.169c0-1.844-1.482-3.323-3.319-3.323c-1.839,0-3.325,1.479-3.325,3.323
		c0,1.837,1.486,3.326,3.325,3.326C1949.564,188.495,1951.046,187.006,1951.046,185.169"/>
	<path style="fill:#FFFFFF;" d="M1936.396,228.819c0-5.796-4.699-10.49-10.492-10.49c-5.798,0-10.497,4.694-10.497,10.49
		c0,5.796,4.699,10.492,10.497,10.492C1931.697,239.311,1936.396,234.615,1936.396,228.819"/>
	<path style="fill:#FFFFFF;" d="M1952.939,272.475c0-2.88-2.344-5.21-5.212-5.21c-2.878,0-5.212,2.33-5.212,5.21
		c0,2.875,2.335,5.208,5.212,5.208C1950.596,277.683,1952.939,275.35,1952.939,272.475"/>
	<path style="fill:#FFFFFF;" d="M658.9,271.724c0-2.875,2.337-5.214,5.21-5.214c2.875,0,5.209,2.339,5.209,5.214
		c0,2.866-2.334,5.208-5.209,5.208C661.237,276.932,658.9,274.59,658.9,271.724"/>
	<path style="fill:#FFFFFF;" d="M656.974,293.545c0-3.941,3.192-7.133,7.136-7.133c3.942,0,7.139,3.192,7.139,7.133
		c0,3.945-3.197,7.135-7.139,7.135C660.166,300.681,656.974,297.491,656.974,293.545"/>
	<path style="fill:#FFFFFF;" d="M402.628,293.867c0-4.647-3.771-8.422-8.417-8.422c-4.647,0-8.42,3.776-8.42,8.422
		c0,4.649,3.773,8.411,8.42,8.411C398.857,302.278,402.628,298.516,402.628,293.867"/>
	<path style="fill:#FFFFFF;" d="M834.821,206.559c0-1.927-1.558-3.486-3.484-3.486c-1.926,0-3.481,1.559-3.481,3.486
		c0,1.925,1.554,3.482,3.481,3.482C833.264,210.04,834.821,208.484,834.821,206.559"/>
	<path style="fill:#FFFFFF;" d="M839.08,293.867c0-4.278-3.462-7.744-7.742-7.744c-4.265,0-7.735,3.466-7.735,7.744
		c0,4.276,3.469,7.73,7.735,7.73C835.617,301.597,839.08,298.142,839.08,293.867"/>
	<path style="fill:#FFFFFF;" d="M861.7,293.867c0-4.717-3.821-8.54-8.536-8.54c-4.715,0-8.531,3.823-8.531,8.54
		c0,4.712,3.816,8.528,8.531,8.528C857.879,302.395,861.7,298.579,861.7,293.867"/>
	<path style="fill:#FFFFFF;" d="M1304.246,272.389c0-4.196-3.393-7.594-7.584-7.594c-4.193,0-7.588,3.398-7.588,7.594
		c0,4.187,3.395,7.585,7.588,7.585C1300.852,279.974,1304.246,276.577,1304.246,272.389"/>
	<path style="fill:#FFFFFF;" d="M995.841,250.561c0-2.624-2.124-4.75-4.753-4.75c-2.615,0-4.747,2.126-4.747,4.75
		c0,2.617,2.132,4.751,4.747,4.751C993.717,255.312,995.841,253.178,995.841,250.561"/>
	<path style="fill:#FFFFFF;" d="M975.445,272.389c0-3.414-2.763-6.185-6.178-6.185c-3.415,0-6.177,2.771-6.177,6.185
		c0,3.407,2.762,6.169,6.177,6.169C972.682,278.558,975.445,275.796,975.445,272.389"/>
	<path style="fill:#FFFFFF;" d="M1041.24,294.211c0-3.581-2.908-6.492-6.494-6.492c-3.59,0-6.499,2.911-6.499,6.492
		c0,3.59,2.909,6.506,6.499,6.506C1038.332,300.717,1041.24,297.801,1041.24,294.211"/>
	<path style="fill:#FFFFFF;" d="M1061.193,294.211c0-2.55-2.07-4.617-4.621-4.617c-2.548,0-4.622,2.068-4.622,4.617
		c0,2.556,2.073,4.613,4.622,4.613C1059.123,298.823,1061.193,296.767,1061.193,294.211"/>
	<path style="fill:#FFFFFF;" d="M1684.473,206.907c0-5.556-4.502-10.055-10.062-10.055c-5.563,0-10.062,4.5-10.062,10.055
		c0,5.563,4.5,10.055,10.062,10.055C1679.971,216.963,1684.473,212.47,1684.473,206.907"/>
	<path style="fill:#FFFFFF;" d="M2179.478,185.079c0-6.821-5.533-12.334-12.343-12.334c-6.823,0-12.356,5.513-12.356,12.334
		c0,6.823,5.533,12.343,12.356,12.343C2173.944,197.422,2179.478,191.902,2179.478,185.079"/>
	<path style="fill:#FFFFFF;" d="M2315.387,218.61c0-3.988-3.228-7.219-7.216-7.219c-3.988,0-7.223,3.23-7.223,7.219
		c0,3.999,3.235,7.225,7.223,7.225C2312.159,225.835,2315.387,222.609,2315.387,218.61"/>
</g>
<g id="Ebene_1">
</g>
</svg>
