<?xml version="1.0" encoding="iso-8859-1"?>
<!-- Generator: Adobe Illustrator 18.0.0, SVG Export Plug-In . SVG Version: 6.00 Build 0)  -->
<!DOCTYPE svg PUBLIC "-//W3C//DTD SVG 1.1//EN" "http://www.w3.org/Graphics/SVG/1.1/DTD/svg11.dtd">
<svg version="1.1" xmlns="http://www.w3.org/2000/svg" xmlns:xlink="http://www.w3.org/1999/xlink" x="0px" y="0px"
	 viewBox="0 0 2800 750" style="enable-background:new 0 0 2800 750;" xml:space="preserve">
<g id="ne12">
	<path style="fill:#FFFFFF;" d="M1464.658,459.284c0-3.592-2.918-6.499-6.513-6.499c-3.597,0-6.506,2.907-6.506,6.499
		c0,3.595,2.909,6.508,6.506,6.508C1461.74,465.793,1464.658,462.879,1464.658,459.284"/>
	<path style="fill:#FFFFFF;" d="M1981.38,502.907c0-6.334-5.126-11.474-11.476-11.474c-6.332,0-11.476,5.14-11.476,11.474
		c0,6.352,5.144,11.483,11.476,11.483C1976.254,514.39,1981.38,509.259,1981.38,502.907"/>
	<path style="fill:#FFFFFF;" d="M1846.507,459.257c0-6.067-4.918-10.981-10.981-10.981c-6.067,0-10.988,4.914-10.988,10.981
		c0,6.069,4.92,10.987,10.988,10.987C1841.589,470.245,1846.507,465.327,1846.507,459.257"/>
	<path style="fill:#FFFFFF;" d="M1907.267,481.092c0-3.466-2.807-6.268-6.264-6.268s-6.262,2.803-6.262,6.268
		c0,3.45,2.805,6.26,6.262,6.26S1907.267,484.542,1907.267,481.092"/>
	<path style="fill:#FFFFFF;" d="M1847.05,502.911c0-6.37-5.151-11.537-11.524-11.537c-6.379,0-11.537,5.167-11.537,11.537
		s5.158,11.542,11.537,11.542C1841.898,514.453,1847.05,509.282,1847.05,502.911"/>
	<path style="fill:#FFFFFF;" d="M2086.476,459.257c0-5.289-4.287-9.572-9.571-9.572c-5.294,0-9.578,4.283-9.578,9.572
		c0,5.289,4.285,9.569,9.578,9.569C2082.189,468.826,2086.476,464.546,2086.476,459.257"/>
	<path style="fill:#FFFFFF;" d="M2101.583,524.742c0-1.575-1.287-2.85-2.862-2.85c-1.57,0-2.842,1.276-2.842,2.85
		c0,1.575,1.271,2.85,2.842,2.85C2100.295,527.592,2101.583,526.316,2101.583,524.742"/>
	<path style="fill:#FFFFFF;" d="M738.75,415.569c0-5.287-4.283-9.562-9.57-9.562c-5.286,0-9.563,4.276-9.563,9.562
		c0,5.289,4.277,9.562,9.563,9.562C734.467,425.132,738.75,420.858,738.75,415.569"/>
	<path style="fill:#FFFFFF;" d="M1236.445,415.569c0-2.911-2.352-5.269-5.268-5.269c-2.909,0-5.271,2.357-5.271,5.269
		c0,2.911,2.362,5.269,5.271,5.269C1234.093,420.838,1236.445,418.481,1236.445,415.569"/>
	<path style="fill:#FFFFFF;" d="M1280.318,415.569c0-3.029-2.456-5.488-5.481-5.488c-3.029,0-5.489,2.459-5.489,5.488
		c0,3.029,2.46,5.49,5.489,5.49C1277.863,421.06,1280.318,418.598,1280.318,415.569"/>
	<path style="fill:#FFFFFF;" d="M1302.835,415.569c0-3.418-2.763-6.173-6.174-6.173c-3.417,0-6.182,2.755-6.182,6.173
		c0,3.414,2.765,6.178,6.182,6.178C1300.072,421.748,1302.835,418.983,1302.835,415.569"/>
	<path style="fill:#FFFFFF;" d="M1285.797,437.395c0-6.054-4.906-10.965-10.96-10.965c-6.06,0-10.967,4.911-10.967,10.965
		c0,6.058,4.907,10.967,10.967,10.967C1280.892,448.362,1285.797,443.453,1285.797,437.395"/>
	<path style="fill:#FFFFFF;" d="M886.057,437.395c0-0.842-0.682-1.536-1.527-1.536c-0.851,0-1.533,0.694-1.533,1.536
		c0,0.848,0.682,1.531,1.533,1.531C885.375,438.927,886.057,438.244,886.057,437.395"/>
	<path style="fill:#FFFFFF;" d="M909.893,437.395c0-1.948-1.585-3.531-3.532-3.531c-1.959,0-3.541,1.583-3.541,3.531
		c0,1.954,1.582,3.545,3.541,3.545C908.308,440.94,909.893,439.35,909.893,437.395"/>
	<path style="fill:#FFFFFF;" d="M1087.859,524.705c0-5.23-4.235-9.465-9.461-9.465c-5.227,0-9.463,4.235-9.463,9.465
		c0,5.221,4.236,9.461,9.463,9.461C1083.624,534.166,1087.859,529.927,1087.859,524.705"/>
	<path style="fill:#FFFFFF;" d="M1327.602,524.705c0-2.203-1.789-3.991-3.986-3.991c-2.197,0-3.977,1.787-3.977,3.991
		c0,2.199,1.78,3.977,3.977,3.977C1325.812,528.682,1327.602,526.904,1327.602,524.705"/>
	<path style="fill:#FFFFFF;" d="M1419.509,207.154c0-2.654-2.145-4.8-4.782-4.8c-2.651,0-4.796,2.147-4.796,4.8
		c0,2.642,2.145,4.791,4.796,4.791C1417.364,211.945,1419.509,209.796,1419.509,207.154"/>
	<path style="fill:#FFFFFF;" d="M1448.873,207.154c0-6.823-5.515-12.336-12.331-12.336c-6.807,0-12.331,5.513-12.331,12.336
		c0,6.805,5.524,12.329,12.331,12.329C1443.357,219.483,1448.873,213.959,1448.873,207.154"/>
	<path style="fill:#FFFFFF;" d="M1397.962,250.803c0-2.8-2.275-5.065-5.073-5.065c-2.789,0-5.055,2.265-5.055,5.065
		c0,2.796,2.266,5.063,5.055,5.063C1395.688,255.866,1397.962,253.599,1397.962,250.803"/>
	<path style="fill:#FFFFFF;" d="M1979.125,228.819c0-5.282-4.291-9.567-9.576-9.567c-5.289,0-9.565,4.285-9.565,9.567
		c0,5.291,4.276,9.574,9.565,9.574C1974.833,238.393,1979.125,234.11,1979.125,228.819"/>
	<path style="fill:#FFFFFF;" d="M610.143,249.898c0-5.698,4.62-10.316,10.318-10.316c5.7,0,10.309,4.617,10.309,10.316
		c0,5.687-4.609,10.307-10.309,10.307C614.763,260.205,610.143,255.586,610.143,249.898"/>
	<path style="fill:#FFFFFF;" d="M423.776,293.867c0-4.278-3.465-7.744-7.741-7.744c-4.269,0-7.733,3.466-7.733,7.744
		c0,4.276,3.465,7.73,7.733,7.73C420.311,301.597,423.776,298.142,423.776,293.867"/>
	<path style="fill:#FFFFFF;" d="M2111.751,250.215c0-6.818-5.531-12.347-12.347-12.347c-6.812,0-12.333,5.529-12.333,12.347
		c0,6.807,5.522,12.336,12.333,12.336C2106.22,262.551,2111.751,257.022,2111.751,250.215"/>
	<path style="fill:#FFFFFF;" d="M1149.083,206.907c0-2.871-2.337-5.205-5.203-5.205c-2.874,0-5.211,2.335-5.211,5.205
		c0,2.871,2.337,5.208,5.211,5.208C1146.746,212.115,1149.083,209.778,1149.083,206.907"/>
	<path style="fill:#FFFFFF;" d="M1262.145,228.737c0-5.047-4.084-9.144-9.144-9.144c-5.045,0-9.136,4.097-9.136,9.144
		c0,5.045,4.091,9.135,9.136,9.135C1258.06,237.872,1262.145,233.782,1262.145,228.737"/>
	<path style="fill:#FFFFFF;" d="M1828.031,272.389c0-4.178-3.375-7.558-7.553-7.558c-4.172,0-7.549,3.38-7.549,7.558
		c0,4.169,3.377,7.553,7.549,7.553C1824.656,279.943,1828.031,276.559,1828.031,272.389"/>
	<path style="fill:#FFFFFF;" d="M999.731,185.079c0-4.764-3.864-8.635-8.643-8.635c-4.763,0-8.63,3.871-8.63,8.635
		c0,4.773,3.867,8.642,8.63,8.642C995.867,193.721,999.731,189.852,999.731,185.079"/>
	<path style="fill:#FFFFFF;" d="M1023.269,185.079c0-5.71-4.64-10.343-10.353-10.343c-5.707,0-10.345,4.633-10.345,10.343
		c0,5.714,4.638,10.349,10.345,10.349C1018.63,195.429,1023.269,190.793,1023.269,185.079"/>
	<path style="fill:#FFFFFF;" d="M980.963,228.737c0-6.458-5.237-11.702-11.696-11.702c-6.459,0-11.693,5.244-11.693,11.702
		c0,6.459,5.235,11.689,11.693,11.689C975.726,240.426,980.963,235.196,980.963,228.737"/>
	<path style="fill:#FFFFFF;" d="M1017.29,272.389c0-2.411-1.957-4.373-4.374-4.373c-2.41,0-4.367,1.961-4.367,4.373
		c0,2.407,1.957,4.357,4.367,4.357C1015.334,276.746,1017.29,274.796,1017.29,272.389"/>
	<path style="fill:#FFFFFF;" d="M1019.074,294.211c0-3.396-2.752-6.16-6.158-6.16c-3.398,0-6.152,2.765-6.152,6.16
		c0,3.405,2.754,6.16,6.152,6.16C1016.322,300.371,1019.074,297.615,1019.074,294.211"/>
	<path style="fill:#FFFFFF;" d="M1598.274,250.561c0-6.164-4.997-11.166-11.166-11.166c-6.162,0-11.162,5.002-11.162,11.166
		c0,6.158,5,11.169,11.162,11.169C1593.276,261.73,1598.274,256.719,1598.274,250.561"/>
	<path style="fill:#FFFFFF;" d="M1636.917,294.211c0-3.396-2.755-6.16-6.158-6.16c-3.405,0-6.155,2.765-6.155,6.16
		c0,3.405,2.751,6.16,6.155,6.16C1634.162,300.371,1636.917,297.615,1636.917,294.211"/>
	<path style="fill:#FFFFFF;" d="M1148.868,294.211c0-2.76-2.231-4.986-4.988-4.986c-2.763,0-4.998,2.226-4.998,4.986
		c0,2.753,2.235,4.988,4.998,4.988C1146.636,299.199,1148.868,296.964,1148.868,294.211"/>
	<path style="fill:#FFFFFF;" d="M2405.882,178.234c0-3.746-3.038-6.78-6.784-6.78c-3.755,0-6.787,3.034-6.787,6.78
		c0,3.751,3.031,6.789,6.787,6.789C2402.844,185.023,2405.882,181.984,2405.882,178.234"/>
	<path style="fill:#FFFFFF;" d="M2264.956,178.234c0-3.746,3.047-6.78,6.793-6.78c3.746,0,6.782,3.034,6.782,6.78
		c0,3.751-3.036,6.789-6.782,6.789C2268.003,185.023,2264.956,181.984,2264.956,178.234"/>
	<path style="fill:#FFFFFF;" d="M2319.699,240.445c0-6.364-5.162-11.522-11.528-11.522c-6.364,0-11.517,5.158-11.517,11.522
		c0,6.352,5.153,11.519,11.517,11.519C2314.536,251.964,2319.699,246.797,2319.699,240.445"/>
	<path style="fill:#FFFFFF;" d="M2381.114,240.445c0-4.124-3.344-7.472-7.454-7.472c-4.128,0-7.472,3.348-7.472,7.472
		c0,4.115,3.344,7.458,7.472,7.458C2377.77,247.903,2381.114,244.559,2381.114,240.445"/>
</g>
<g id="Ebene_1">
</g>
</svg>
