<?xml version="1.0" encoding="iso-8859-1"?>
<!-- Generator: Adobe Illustrator 18.0.0, SVG Export Plug-In . SVG Version: 6.00 Build 0)  -->
<!DOCTYPE svg PUBLIC "-//W3C//DTD SVG 1.1//EN" "http://www.w3.org/Graphics/SVG/1.1/DTD/svg11.dtd">
<svg version="1.1" xmlns="http://www.w3.org/2000/svg" xmlns:xlink="http://www.w3.org/1999/xlink" x="0px" y="0px"
	 viewBox="0 0 2800 750" style="enable-background:new 0 0 2800 750;" xml:space="preserve">
<g id="ne13">
	<path style="fill:#FFFFFF;" d="M1481.643,437.459c0-0.923-0.735-1.679-1.674-1.679c-0.927,0-1.669,0.756-1.669,1.679
		c0,0.937,0.742,1.679,1.669,1.679C1480.908,439.137,1481.643,438.395,1481.643,437.459"/>
	<path style="fill:#FFFFFF;" d="M1492.316,481.119c0-6.825-5.531-12.347-12.347-12.347c-6.805,0-12.331,5.522-12.331,12.347
		c0,6.805,5.527,12.331,12.331,12.331C1486.785,493.451,1492.316,487.924,1492.316,481.119"/>
	<path style="fill:#FFFFFF;" d="M1488.502,524.769c0-4.714-3.819-8.537-8.533-8.537c-4.712,0-8.524,3.823-8.524,8.537
		c0,4.71,3.812,8.524,8.524,8.524C1484.683,533.293,1488.502,529.479,1488.502,524.769"/>
	<path style="fill:#FFFFFF;" d="M1748.784,415.61c0-3.622-2.923-6.556-6.552-6.556c-3.624,0-6.556,2.934-6.556,6.556
		c0,3.617,2.932,6.554,6.556,6.554C1745.861,422.164,1748.784,419.227,1748.784,415.61"/>
	<path style="fill:#FFFFFF;" d="M1767.248,415.61c0-1.767-1.434-3.192-3.188-3.192c-1.76,0-3.192,1.425-3.192,3.192
		c0,1.762,1.432,3.187,3.192,3.187C1765.813,418.797,1767.248,417.372,1767.248,415.61"/>
	<path style="fill:#FFFFFF;" d="M1863.749,415.61c0-3.534-2.869-6.393-6.402-6.393c-3.525,0-6.388,2.859-6.388,6.393
		c0,3.531,2.864,6.393,6.388,6.393C1860.881,422.003,1863.749,419.141,1863.749,415.61"/>
	<path style="fill:#FFFFFF;" d="M1816.783,459.257c0-1.695-1.387-3.07-3.081-3.07c-1.703,0-3.083,1.375-3.083,3.07
		c0,1.703,1.38,3.079,3.083,3.079C1815.397,462.336,1816.783,460.961,1816.783,459.257"/>
	<path style="fill:#FFFFFF;" d="M1562.427,481.097c0-2.382-1.93-4.319-4.319-4.319c-2.377,0-4.309,1.937-4.309,4.319
		c0,2.38,1.932,4.312,4.309,4.312C1560.497,485.408,1562.427,483.476,1562.427,481.097"/>
	<path style="fill:#FFFFFF;" d="M1562.126,502.92c0-2.217-1.803-4.009-4.018-4.009c-2.21,0-4.011,1.792-4.011,4.009
		s1.801,4.013,4.011,4.013C1560.323,506.933,1562.126,505.137,1562.126,502.92"/>
	<path style="fill:#FFFFFF;" d="M1103.814,437.395c0-1.984-1.609-3.595-3.592-3.595c-1.984,0-3.592,1.611-3.592,3.595
		c0,1.991,1.609,3.595,3.592,3.595C1102.205,440.99,1103.814,439.386,1103.814,437.395"/>
	<path style="fill:#FFFFFF;" d="M783.439,481.052c0-5.857-4.751-10.608-10.611-10.608c-5.849,0-10.596,4.75-10.596,10.608
		c0,5.85,4.747,10.605,10.596,10.605C778.689,491.657,783.439,486.902,783.439,481.052"/>
	<path style="fill:#FFFFFF;" d="M800.772,481.052c0-3.377-2.739-6.115-6.106-6.115c-3.381,0-6.12,2.737-6.12,6.115
		c0,3.373,2.74,6.11,6.12,6.11C798.033,487.162,800.772,484.424,800.772,481.052"/>
	<path style="fill:#FFFFFF;" d="M1043.903,481.052c0-5.061-4.099-9.16-9.156-9.16c-5.063,0-9.161,4.099-9.161,9.16
		c0,5.058,4.098,9.16,9.161,9.16C1039.804,490.211,1043.903,486.11,1043.903,481.052"/>
	<path style="fill:#FFFFFF;" d="M1066.652,481.052c0-5.568-4.507-10.083-10.079-10.083c-5.569,0-10.077,4.515-10.077,10.083
		c0,5.561,4.508,10.08,10.077,10.08C1062.144,491.132,1066.652,486.612,1066.652,481.052"/>
	<path style="fill:#FFFFFF;" d="M913.743,459.221c0-4.079-3.301-7.391-7.383-7.391c-4.09,0-7.392,3.312-7.392,7.391
		c0,4.081,3.302,7.391,7.392,7.391C910.443,466.612,913.743,463.302,913.743,459.221"/>
	<path style="fill:#FFFFFF;" d="M953.408,481.052c0-1.88-1.525-3.393-3.399-3.393c-1.873,0-3.394,1.513-3.394,3.393
		c0,1.88,1.521,3.387,3.394,3.387C951.883,484.438,953.408,482.931,953.408,481.052"/>
	<path style="fill:#FFFFFF;" d="M890.671,524.705c0-3.398-2.745-6.144-6.141-6.144c-3.391,0-6.146,2.746-6.146,6.144
		c0,3.384,2.755,6.14,6.146,6.14C887.926,530.845,890.671,528.09,890.671,524.705"/>
	<path style="fill:#FFFFFF;" d="M1369.654,437.395c0-1.323-1.072-2.382-2.391-2.382c-1.305,0-2.379,1.059-2.379,2.382
		c0,1.314,1.073,2.391,2.379,2.391C1368.582,439.786,1369.654,438.709,1369.654,437.395"/>
	<path style="fill:#FFFFFF;" d="M1352.765,481.052c0-4.047-3.278-7.332-7.323-7.332c-4.045,0-7.326,3.285-7.326,7.332
		c0,4.038,3.281,7.327,7.326,7.327C1349.486,488.379,1352.765,485.089,1352.765,481.052"/>
	<path style="fill:#FFFFFF;" d="M1375.451,524.705c0-4.515-3.671-8.18-8.188-8.18c-4.514,0-8.177,3.665-8.177,8.18
		c0,4.515,3.662,8.18,8.177,8.18C1371.78,532.885,1375.451,529.221,1375.451,524.705"/>
	<path style="fill:#FFFFFF;" d="M1448.891,185.319c0-6.814-5.524-12.336-12.349-12.336c-6.812,0-12.336,5.522-12.336,12.336
		c0,6.816,5.524,12.349,12.336,12.349C1443.366,197.668,1448.891,192.135,1448.891,185.319"/>
	<path style="fill:#FFFFFF;" d="M1419.948,228.975c0-2.889-2.348-5.226-5.221-5.226c-2.896,0-5.235,2.337-5.235,5.226
		c0,2.884,2.339,5.23,5.235,5.23C1417.6,234.205,1419.948,231.859,1419.948,228.975"/>
	<path style="fill:#FFFFFF;" d="M1397.975,272.625c0-2.808-2.276-5.081-5.083-5.081c-2.804,0-5.075,2.273-5.075,5.081
		c0,2.803,2.271,5.083,5.075,5.083C1395.699,277.708,1397.975,275.427,1397.975,272.625"/>
	<path style="fill:#FFFFFF;" d="M1401.357,294.305c0-4.69-3.786-8.481-8.467-8.481c-4.673,0-8.461,3.791-8.461,8.481
		c0,4.671,3.788,8.456,8.461,8.456C1397.571,302.762,1401.357,298.977,1401.357,294.305"/>
	<path style="fill:#FFFFFF;" d="M1954.862,294.305c0-3.952-3.19-7.144-7.135-7.144c-3.948,0-7.135,3.192-7.135,7.144
		c0,3.941,3.188,7.133,7.135,7.133C1951.672,301.438,1954.862,298.246,1954.862,294.305"/>
	<path style="fill:#FFFFFF;" d="M376.193,272.036c0-2.099-1.701-3.803-3.805-3.803c-2.108,0-3.809,1.703-3.809,3.803
		c0,2.106,1.7,3.807,3.809,3.807C374.492,275.844,376.193,274.142,376.193,272.036"/>
	<path style="fill:#FFFFFF;" d="M863.778,228.378c0-5.855-4.747-10.61-10.614-10.61c-5.86,0-10.618,4.755-10.618,10.61
		c0,5.873,4.757,10.621,10.618,10.621C859.03,238.999,863.778,234.25,863.778,228.378"/>
	<path style="fill:#FFFFFF;" d="M1280.773,206.907c0-3.278-2.664-5.94-5.936-5.94c-3.287,0-5.934,2.663-5.934,5.94
		c0,3.28,2.647,5.943,5.934,5.943C1278.109,212.85,1280.773,210.187,1280.773,206.907"/>
	<path style="fill:#FFFFFF;" d="M1132.468,250.561c0-5.751-4.663-10.413-10.421-10.413c-5.749,0-10.412,4.662-10.412,10.413
		c0,5.746,4.662,10.413,10.412,10.413C1127.804,260.974,1132.468,256.307,1132.468,250.561"/>
	<path style="fill:#FFFFFF;" d="M1824.529,250.561c0-2.23-1.812-4.045-4.052-4.045c-2.235,0-4.047,1.814-4.047,4.045
		c0,2.231,1.812,4.045,4.047,4.045C1822.717,254.606,1824.529,252.792,1824.529,250.561"/>
	<path style="fill:#FFFFFF;" d="M1654.705,206.907c0-1.172-0.952-2.117-2.12-2.117c-1.172,0-2.117,0.946-2.117,2.117
		c0,1.17,0.946,2.118,2.117,2.118C1653.752,209.025,1654.705,208.077,1654.705,206.907"/>
	<path style="fill:#FFFFFF;" d="M1612.557,294.211c0-2.004-1.624-3.631-3.629-3.631c-2,0-3.629,1.627-3.629,3.631
		c0,1.998,1.629,3.626,3.629,3.626C1610.933,297.837,1612.557,296.208,1612.557,294.211"/>
	<path style="fill:#FFFFFF;" d="M1748.6,206.907c0-6.823-5.524-12.345-12.345-12.345c-6.832,0-12.347,5.522-12.347,12.345
		c0,6.825,5.515,12.35,12.347,12.35C1743.076,219.257,1748.6,213.732,1748.6,206.907"/>
	<path style="fill:#FFFFFF;" d="M1748.6,228.737c0-6.82-5.524-12.352-12.345-12.352c-6.832,0-12.347,5.531-12.347,12.352
		c0,6.821,5.515,12.345,12.347,12.345C1743.076,241.082,1748.6,235.558,1748.6,228.737"/>
	<path style="fill:#FFFFFF;" d="M2239.435,178.234c0-5.789,4.692-10.485,10.488-10.485c5.791,0,10.488,4.697,10.488,10.485
		c0,5.803-4.697,10.488-10.488,10.488C2244.127,188.721,2239.435,184.036,2239.435,178.234"/>
	<path style="fill:#FFFFFF;" d="M2239.435,308.996c0-5.787,4.692-10.476,10.488-10.476c5.791,0,10.479,4.69,10.479,10.476
		c0,5.791-4.688,10.488-10.479,10.488C2244.127,319.484,2239.435,314.788,2239.435,308.996"/>
	<path style="fill:#FFFFFF;" d="M2360.007,284.101c0-4.52-3.669-8.185-8.185-8.185s-8.185,3.665-8.185,8.185
		c0,4.511,3.669,8.169,8.185,8.169S2360.007,288.612,2360.007,284.101"/>
	<path style="fill:#FFFFFF;" d="M531.321,206.477c0-1.063-0.869-1.932-1.932-1.932c-1.071,0-1.938,0.869-1.938,1.932
		c0,1.061,0.866,1.93,1.938,1.93C530.453,208.407,531.321,207.538,531.321,206.477"/>
	<path style="fill:#FFFFFF;" d="M520.674,228.303c0-7.18-5.818-13.003-12.994-13.003c-7.184,0-13.006,5.823-13.006,13.003
		c0,7.178,5.822,12.992,13.006,12.992C514.856,241.295,520.674,235.481,520.674,228.303"/>
	<path style="fill:#FFFFFF;" d="M578.601,250.129c0-3.206-2.597-5.803-5.798-5.803c-3.209,0-5.805,2.597-5.805,5.803
		c0,3.203,2.596,5.798,5.805,5.798C576.004,255.927,578.601,253.332,578.601,250.129"/>
	<path style="fill:#FFFFFF;" d="M557.411,293.781c0-3.486-2.829-6.314-6.319-6.314c-3.484,0-6.319,2.828-6.319,6.314
		s2.836,6.316,6.319,6.316C554.583,300.097,557.411,297.267,557.411,293.781"/>
	<path style="fill:#FFFFFF;" d="M576.616,293.781c0-2.111-1.708-3.816-3.813-3.816c-2.113,0-3.822,1.706-3.822,3.816
		c0,2.115,1.709,3.819,3.822,3.819C574.908,297.599,576.616,295.896,576.616,293.781"/>
</g>
<g id="Ebene_1">
</g>
</svg>
