<?xml version="1.0" encoding="iso-8859-1"?>
<!-- Generator: Adobe Illustrator 18.0.0, SVG Export Plug-In . SVG Version: 6.00 Build 0)  -->
<!DOCTYPE svg PUBLIC "-//W3C//DTD SVG 1.1//EN" "http://www.w3.org/Graphics/SVG/1.1/DTD/svg11.dtd">
<svg version="1.1" xmlns="http://www.w3.org/2000/svg" xmlns:xlink="http://www.w3.org/1999/xlink" x="0px" y="0px"
	 viewBox="0 0 2800 750" style="enable-background:new 0 0 2800 750;" xml:space="preserve">
<g id="ne2">
	<path style="fill:#FFFFFF;" d="M1418.299,502.943c0-2.108-1.694-3.807-3.803-3.807c-2.102,0-3.807,1.699-3.807,3.807
		c0,2.104,1.706,3.805,3.807,3.805C1416.604,506.748,1418.299,505.047,1418.299,502.943"/>
	<path style="fill:#FFFFFF;" d="M1977.383,415.61c0-4.133-3.346-7.481-7.479-7.481c-4.135,0-7.472,3.348-7.472,7.481
		c0,4.128,3.337,7.477,7.472,7.477C1974.037,423.087,1977.383,419.739,1977.383,415.61"/>
	<path style="fill:#FFFFFF;" d="M1977.383,524.742c0-4.131-3.346-7.479-7.479-7.479c-4.135,0-7.472,3.348-7.472,7.479
		c0,4.126,3.337,7.484,7.472,7.484C1974.037,532.225,1977.383,528.868,1977.383,524.742"/>
	<path style="fill:#FFFFFF;" d="M1703.711,437.431c0-2.834-2.298-5.133-5.133-5.133c-2.825,0-5.135,2.298-5.135,5.133
		c0,2.844,2.31,5.138,5.135,5.138C1701.413,442.569,1703.711,440.275,1703.711,437.431"/>
	<path style="fill:#FFFFFF;" d="M2082.741,481.092c0-3.228-2.617-5.839-5.836-5.839c-3.221,0-5.83,2.611-5.83,5.839
		c0,3.215,2.608,5.823,5.83,5.823C2080.123,486.915,2082.741,484.307,2082.741,481.092"/>
	<path style="fill:#FFFFFF;" d="M994.725,437.395c0-1.998-1.623-3.636-3.636-3.636c-1.999,0-3.63,1.638-3.63,3.636
		c0,2.009,1.631,3.635,3.63,3.635C993.102,441.031,994.725,439.404,994.725,437.395"/>
	<path style="fill:#FFFFFF;" d="M1242.079,437.395c0-6.02-4.877-10.89-10.901-10.89c-6.016,0-10.891,4.87-10.891,10.89
		c0,6.022,4.875,10.899,10.891,10.899C1237.202,448.294,1242.079,443.417,1242.079,437.395"/>
	<path style="fill:#FFFFFF;" d="M781.255,459.221c0-4.649-3.769-8.418-8.427-8.418c-4.644,0-8.418,3.769-8.418,8.418
		c0,4.651,3.773,8.422,8.418,8.422C777.487,467.643,781.255,463.872,781.255,459.221"/>
	<path style="fill:#FFFFFF;" d="M1002.947,459.221c0-6.549-5.301-11.849-11.858-11.849c-6.542,0-11.854,5.3-11.854,11.849
		c0,6.552,5.312,11.856,11.854,11.856C997.645,471.077,1002.947,465.773,1002.947,459.221"/>
	<path style="fill:#FFFFFF;" d="M709.511,481.052c0-1.201-0.965-2.165-2.156-2.165c-1.197,0-2.161,0.964-2.161,2.165
		c0,1.194,0.965,2.158,2.161,2.158C708.546,483.21,709.511,482.246,709.511,481.052"/>
	<path style="fill:#FFFFFF;" d="M1000.418,481.052c0-5.151-4.178-9.325-9.329-9.325c-5.14,0-9.313,4.174-9.313,9.325
		c0,5.144,4.174,9.318,9.313,9.318C996.239,490.369,1000.418,486.196,1000.418,481.052"/>
	<path style="fill:#FFFFFF;" d="M1017.509,481.052c0-2.536-2.054-4.59-4.592-4.59c-2.532,0-4.584,2.054-4.584,4.59
		c0,2.534,2.052,4.586,4.584,4.586C1015.454,485.637,1017.509,483.585,1017.509,481.052"/>
	<path style="fill:#FFFFFF;" d="M709.521,502.88c0-1.199-0.967-2.167-2.166-2.167c-1.197,0-2.161,0.968-2.161,2.167
		c0,1.185,0.965,2.163,2.161,2.163C708.555,505.042,709.521,504.065,709.521,502.88"/>
	<path style="fill:#FFFFFF;" d="M778.484,502.88c0-3.124-2.529-5.656-5.656-5.656c-3.118,0-5.653,2.531-5.653,5.656
		c0,3.122,2.535,5.651,5.653,5.651C775.955,508.531,778.484,506.001,778.484,502.88"/>
	<path style="fill:#FFFFFF;" d="M866.705,481.052c0-2.215-1.787-4.013-4.002-4.013c-2.208,0-4.003,1.799-4.003,4.013
		c0,2.208,1.795,4.006,4.003,4.006C864.918,485.058,866.705,483.259,866.705,481.052"/>
	<path style="fill:#FFFFFF;" d="M939.674,481.052c0-6.352-5.142-11.499-11.489-11.499c-6.349,0-11.497,5.147-11.497,11.499
		c0,6.345,5.148,11.492,11.497,11.492C934.532,492.544,939.674,487.397,939.674,481.052"/>
	<path style="fill:#FFFFFF;" d="M1401.732,228.975c0-4.882-3.957-8.847-8.843-8.847c-4.886,0-8.838,3.966-8.838,8.847
		c0,4.884,3.951,8.843,8.838,8.843C1397.776,237.818,1401.732,233.859,1401.732,228.975"/>
	<path style="fill:#FFFFFF;" d="M1382.257,250.803c0-6.185-5.013-11.193-11.189-11.193c-6.184,0-11.192,5.009-11.192,11.193
		c0,6.174,5.009,11.189,11.192,11.189C1377.244,261.992,1382.257,256.977,1382.257,250.803"/>
	<path style="fill:#FFFFFF;" d="M1936.396,206.998c0-5.798-4.699-10.494-10.492-10.494c-5.798,0-10.497,4.696-10.497,10.494
		s4.699,10.49,10.497,10.49C1931.697,217.488,1936.396,212.796,1936.396,206.998"/>
	<path style="fill:#FFFFFF;" d="M448.478,228.378c0-5.855-4.751-10.61-10.618-10.61c-5.861,0-10.618,4.755-10.618,10.61
		c0,5.873,4.756,10.621,10.618,10.621C443.727,238.999,448.478,234.25,448.478,228.378"/>
	<path style="fill:#FFFFFF;" d="M791.497,272.036c0-2.099-1.703-3.803-3.808-3.803s-3.807,1.703-3.807,3.803
		c0,2.106,1.702,3.807,3.807,3.807S791.497,274.142,791.497,272.036"/>
	<path style="fill:#FFFFFF;" d="M820.096,272.036c0-5.85-4.74-10.578-10.585-10.578c-5.84,0-10.579,4.728-10.579,10.578
		c0,5.845,4.739,10.582,10.579,10.582C815.356,282.619,820.096,277.882,820.096,272.036"/>
	<path style="fill:#FFFFFF;" d="M865.507,272.036c0-6.809-5.526-12.345-12.344-12.345c-6.817,0-12.345,5.536-12.345,12.345
		c0,6.825,5.528,12.349,12.345,12.349C859.982,284.386,865.507,278.861,865.507,272.036"/>
	<path style="fill:#FFFFFF;" d="M1198.686,228.737c0-6.169-5.001-11.168-11.158-11.168c-6.158,0-11.154,4.999-11.154,11.168
		c0,6.16,4.996,11.157,11.154,11.157C1193.686,239.895,1198.686,234.897,1198.686,228.737"/>
	<path style="fill:#FFFFFF;" d="M1281.299,228.737c0-3.579-2.89-6.477-6.462-6.477c-3.578,0-6.478,2.898-6.478,6.477
		c0,3.577,2.9,6.472,6.478,6.472C1278.409,235.21,1281.299,232.314,1281.299,228.737"/>
	<path style="fill:#FFFFFF;" d="M1198.058,250.561c0-5.818-4.713-10.531-10.531-10.531c-5.816,0-10.533,4.712-10.533,10.531
		c0,5.819,4.717,10.531,10.533,10.531C1193.345,261.092,1198.058,256.38,1198.058,250.561"/>
	<path style="fill:#FFFFFF;" d="M1152.542,272.389c0-4.782-3.879-8.671-8.662-8.671c-4.79,0-8.67,3.889-8.67,8.671
		c0,4.78,3.88,8.66,8.67,8.66C1148.663,281.049,1152.542,277.169,1152.542,272.389"/>
	<path style="fill:#FFFFFF;" d="M1281.337,272.389c0-3.599-2.91-6.511-6.5-6.511c-3.596,0-6.512,2.911-6.512,6.511
		c0,3.592,2.916,6.504,6.512,6.504C1278.427,278.893,1281.337,275.982,1281.337,272.389"/>
	<path style="fill:#FFFFFF;" d="M1616.539,206.907c0-4.192-3.407-7.599-7.61-7.599c-4.201,0-7.601,3.407-7.601,7.599
		c0,4.194,3.4,7.597,7.601,7.597C1613.132,214.504,1616.539,211.101,1616.539,206.907"/>
	<path style="fill:#FFFFFF;" d="M1593.288,272.389c0-3.414-2.765-6.185-6.18-6.185s-6.18,2.771-6.18,6.185
		c0,3.407,2.765,6.169,6.18,6.169S1593.288,275.796,1593.288,272.389"/>
	<path style="fill:#FFFFFF;" d="M1619.692,272.389c0-5.947-4.814-10.766-10.764-10.766c-5.931,0-10.759,4.819-10.759,10.766
		c0,5.941,4.828,10.759,10.759,10.759C1614.878,283.148,1619.692,278.33,1619.692,272.389"/>
	<path style="fill:#FFFFFF;" d="M1848.022,294.211c0-3.147-2.556-5.703-5.721-5.703c-3.145,0-5.703,2.556-5.703,5.703
		c0,3.156,2.558,5.712,5.703,5.712C1845.466,299.923,1848.022,297.366,1848.022,294.211"/>
	<path style="fill:#FFFFFF;" d="M2431.42,221.89c0-5.796-4.7-10.494-10.503-10.494c-5.794,0-10.481,4.699-10.481,10.494
		c0,5.798,4.687,10.492,10.481,10.492C2426.72,232.382,2431.42,227.688,2431.42,221.89"/>
	<path style="fill:#FFFFFF;" d="M2337.322,240.445c0-4.047-3.278-7.332-7.325-7.332c-4.045,0-7.325,3.285-7.325,7.332
		c0,4.04,3.28,7.325,7.325,7.325C2334.043,247.77,2337.322,244.485,2337.322,240.445"/>
	<path style="fill:#FFFFFF;" d="M563.584,228.303c0-6.897-5.591-12.492-12.491-12.492c-6.902,0-12.493,5.594-12.493,12.492
		c0,6.893,5.591,12.49,12.493,12.49C557.993,240.793,563.584,235.196,563.584,228.303"/>
	<path style="fill:#FFFFFF;" d="M488.405,271.95c0-1.344-1.088-2.432-2.437-2.432c-1.339,0-2.435,1.088-2.435,2.432
		c0,1.346,1.096,2.441,2.435,2.441C487.317,274.391,488.405,273.296,488.405,271.95"/>
</g>
<g id="Ebene_1">
</g>
</svg>
