<?xml version="1.0" encoding="iso-8859-1"?>
<!-- Generator: Adobe Illustrator 18.0.0, SVG Export Plug-In . SVG Version: 6.00 Build 0)  -->
<!DOCTYPE svg PUBLIC "-//W3C//DTD SVG 1.1//EN" "http://www.w3.org/Graphics/SVG/1.1/DTD/svg11.dtd">
<svg version="1.1" xmlns="http://www.w3.org/2000/svg" xmlns:xlink="http://www.w3.org/1999/xlink" x="0px" y="0px"
	 viewBox="0 0 2800 750" style="enable-background:new 0 0 2800 750;" xml:space="preserve">
<g id="ne3">
	<path style="fill:#FFFFFF;" d="M1731.532,502.911c0-6.151-4.981-11.13-11.13-11.13c-6.14,0-11.13,4.979-11.13,11.13
		c0,6.149,4.99,11.139,11.13,11.139C1726.55,514.05,1731.532,509.06,1731.532,502.911"/>
	<path style="fill:#FFFFFF;" d="M2038.071,415.61c0-2.663-2.158-4.823-4.816-4.823c-2.663,0-4.821,2.161-4.821,4.823
		c0,2.658,2.158,4.816,4.821,4.816C2035.913,420.426,2038.071,418.268,2038.071,415.61"/>
	<path style="fill:#FFFFFF;" d="M823.976,415.569c0-4.133-3.357-7.488-7.49-7.488c-4.13,0-7.487,3.355-7.487,7.488
		c0,4.131,3.357,7.49,7.487,7.49C820.619,423.06,823.976,419.7,823.976,415.569"/>
	<path style="fill:#FFFFFF;" d="M1111.661,459.221c0-6.314-5.116-11.429-11.439-11.429c-6.315,0-11.437,5.115-11.437,11.429
		c0,6.321,5.122,11.438,11.437,11.438C1106.545,470.659,1111.661,465.542,1111.661,459.221"/>
	<path style="fill:#FFFFFF;" d="M1277.42,481.052c0-1.436-1.157-2.595-2.583-2.595c-1.432,0-2.597,1.158-2.597,2.595
		c0,1.432,1.165,2.588,2.597,2.588C1276.263,483.64,1277.42,482.483,1277.42,481.052"/>
	<path style="fill:#FFFFFF;" d="M1335.141,481.052c0-6.364-5.161-11.517-11.525-11.517c-6.366,0-11.524,5.153-11.524,11.517
		c0,6.359,5.158,11.519,11.524,11.519C1329.979,492.571,1335.141,487.411,1335.141,481.052"/>
	<path style="fill:#FFFFFF;" d="M1354.381,524.705c0-4.941-4.003-8.94-8.939-8.94c-4.938,0-8.94,4-8.94,8.94
		c0,4.927,4.002,8.936,8.94,8.936C1350.378,533.641,1354.381,529.632,1354.381,524.705"/>
	<path style="fill:#FFFFFF;" d="M1978.561,294.305c0-4.986-4.027-9.015-9.013-9.015c-4.968,0-9.008,4.029-9.008,9.015
		c0,4.968,4.04,8.999,9.008,8.999C1974.535,303.305,1978.561,299.273,1978.561,294.305"/>
	<path style="fill:#FFFFFF;" d="M636.983,271.724c0-2.93,2.378-5.309,5.304-5.309c2.925,0,5.296,2.38,5.296,5.309
		c0,2.92-2.371,5.291-5.296,5.291C639.36,277.016,636.983,274.645,636.983,271.724"/>
	<path style="fill:#FFFFFF;" d="M446.395,293.867c0-4.717-3.82-8.54-8.535-8.54c-4.713,0-8.53,3.823-8.53,8.54
		c0,4.712,3.816,8.528,8.53,8.528C442.576,302.395,446.395,298.579,446.395,293.867"/>
	<path style="fill:#FFFFFF;" d="M1211.146,228.737c0-0.991-0.809-1.789-1.795-1.789c-0.981,0-1.785,0.798-1.785,1.789
		c0,0.98,0.804,1.78,1.785,1.78C1210.338,230.518,1211.146,229.717,1211.146,228.737"/>
	<path style="fill:#FFFFFF;" d="M1681.105,185.079c0-3.699-2.993-6.685-6.694-6.685c-3.694,0-6.703,2.986-6.703,6.685
		c0,3.708,3.009,6.696,6.703,6.696C1678.112,191.775,1681.105,188.787,1681.105,185.079"/>
	<path style="fill:#FFFFFF;" d="M1190.216,294.211c0-1.48-1.207-2.683-2.689-2.683c-1.479,0-2.688,1.203-2.688,2.683
		c0,1.491,1.208,2.681,2.688,2.681C1189.009,296.891,1190.216,295.701,1190.216,294.211"/>
	<path style="fill:#FFFFFF;" d="M2179.478,206.907c0-6.823-5.533-12.345-12.343-12.345c-6.823,0-12.356,5.522-12.356,12.345
		c0,6.825,5.533,12.35,12.356,12.35C2173.944,219.257,2179.478,213.732,2179.478,206.907"/>
	<path style="fill:#FFFFFF;" d="M2239.426,265.345c0-5.798,4.692-10.49,10.497-10.49c5.791,0,10.488,4.692,10.488,10.49
		c0,5.791-4.697,10.499-10.488,10.499C2244.118,275.844,2239.426,271.136,2239.426,265.345"/>
	<path style="fill:#FFFFFF;" d="M2264.956,308.648c0-3.746,3.047-6.775,6.793-6.775c3.746,0,6.782,3.029,6.782,6.775
		c0,3.749-3.036,6.789-6.782,6.789C2268.003,315.437,2264.956,312.397,2264.956,308.648"/>
	<path style="fill:#FFFFFF;" d="M2338.62,218.61c0-4.755-3.859-8.615-8.624-8.615c-4.76,0-8.615,3.859-8.615,8.615
		c0,4.764,3.855,8.619,8.615,8.619C2334.761,227.229,2338.62,223.374,2338.62,218.61"/>
	<path style="fill:#FFFFFF;" d="M2338.941,284.101c0-4.945-4.007-8.952-8.945-8.952c-4.934,0-8.94,4.006-8.94,8.952
		c0,4.927,4.007,8.933,8.94,8.933C2334.935,293.034,2338.941,289.028,2338.941,284.101"/>
</g>
<g id="Ebene_1">
</g>
</svg>
