<?xml version="1.0" encoding="iso-8859-1"?>
<!-- Generator: Adobe Illustrator 18.0.0, SVG Export Plug-In . SVG Version: 6.00 Build 0)  -->
<!DOCTYPE svg PUBLIC "-//W3C//DTD SVG 1.1//EN" "http://www.w3.org/Graphics/SVG/1.1/DTD/svg11.dtd">
<svg version="1.1" xmlns="http://www.w3.org/2000/svg" xmlns:xlink="http://www.w3.org/1999/xlink" x="0px" y="0px"
	 viewBox="0 0 2800 750" style="enable-background:new 0 0 2800 750;" xml:space="preserve">
<g id="ne4">
	<path style="fill:#FFFFFF;" d="M1815.112,437.431c0-0.774-0.634-1.412-1.409-1.412c-0.783,0-1.418,0.638-1.418,1.412
		c0,0.78,0.636,1.414,1.418,1.414C1814.478,438.845,1815.112,438.212,1815.112,437.431"/>
	<path style="fill:#FFFFFF;" d="M1546.786,502.92c0-5.8-4.701-10.497-10.497-10.497c-5.798,0-10.501,4.697-10.501,10.497
		c0,5.787,4.703,10.497,10.501,10.497C1542.085,513.417,1546.786,508.707,1546.786,502.92"/>
	<path style="fill:#FFFFFF;" d="M1217.069,415.569c0-4.253-3.454-7.717-7.718-7.717c-4.257,0-7.716,3.464-7.716,7.717
		c0,4.26,3.459,7.716,7.716,7.716C1213.614,423.286,1217.069,419.829,1217.069,415.569"/>
	<path style="fill:#FFFFFF;" d="M1282.864,459.221c0-4.431-3.596-8.024-8.028-8.024c-4.442,0-8.038,3.592-8.038,8.024
		c0,4.439,3.596,8.029,8.038,8.029C1279.268,467.25,1282.864,463.66,1282.864,459.221"/>
	<path style="fill:#FFFFFF;" d="M929.751,437.395c0-0.864-0.701-1.563-1.565-1.563c-0.871,0-1.576,0.699-1.576,1.563
		c0,0.875,0.705,1.575,1.576,1.575C929.049,438.97,929.751,438.271,929.751,437.395"/>
	<path style="fill:#FFFFFF;" d="M895.795,481.052c0-6.228-5.04-11.271-11.265-11.271c-6.222,0-11.271,5.043-11.271,11.271
		c0,6.221,5.048,11.268,11.271,11.268C890.755,492.32,895.795,487.273,895.795,481.052"/>
	<path style="fill:#FFFFFF;" d="M1377.548,459.221c0-5.671-4.601-10.275-10.285-10.275c-5.667,0-10.273,4.604-10.273,10.275
		c0,5.678,4.606,10.282,10.273,10.282C1372.947,469.503,1377.548,464.899,1377.548,459.221"/>
	<path style="fill:#FFFFFF;" d="M1952.351,206.998c0-2.561-2.068-4.626-4.624-4.626c-2.561,0-4.633,2.065-4.633,4.626
		c0,2.552,2.072,4.622,4.633,4.622C1950.283,211.619,1952.351,209.549,1952.351,206.998"/>
	<path style="fill:#FFFFFF;" d="M675.446,206.242c0-5.789,4.695-10.488,10.489-10.488c5.8,0,10.498,4.699,10.498,10.488
		c0,5.803-4.698,10.497-10.498,10.497C680.141,216.739,675.446,212.045,675.446,206.242"/>
	<path style="fill:#FFFFFF;" d="M632.714,228.063c0-5.275,4.286-9.562,9.573-9.562c5.287,0,9.573,4.287,9.573,9.562
		c0,5.287-4.286,9.578-9.573,9.578C637,237.642,632.714,233.35,632.714,228.063"/>
	<path style="fill:#FFFFFF;" d="M854.84,206.559c0-0.928-0.744-1.681-1.676-1.681c-0.924,0-1.679,0.753-1.679,1.681
		c0,0.93,0.755,1.672,1.679,1.672C854.095,208.231,854.84,207.489,854.84,206.559"/>
	<path style="fill:#FFFFFF;" d="M1826.083,206.907c0-3.09-2.502-5.597-5.606-5.597c-3.086,0-5.592,2.506-5.592,5.597
		c0,3.093,2.506,5.601,5.592,5.601C1823.581,212.508,1826.083,210,1826.083,206.907"/>
	<path style="fill:#FFFFFF;" d="M1873.359,228.737c0-5.101-4.131-9.232-9.225-9.232s-9.225,4.131-9.225,9.232
		c0,5.088,4.131,9.221,9.225,9.221S1873.359,233.825,1873.359,228.737"/>
	<path style="fill:#FFFFFF;" d="M1264.987,250.561c0-6.61-5.365-11.971-11.986-11.971c-6.614,0-11.973,5.361-11.973,11.971
		c0,6.61,5.359,11.981,11.973,11.981C1259.622,262.542,1264.987,257.171,1264.987,250.561"/>
	<path style="fill:#FFFFFF;" d="M1170.485,272.389c0-2.647-2.141-4.782-4.78-4.782c-2.643,0-4.793,2.136-4.793,4.782
		c0,2.638,2.149,4.789,4.793,4.789C1168.344,277.178,1170.485,275.027,1170.485,272.389"/>
	<path style="fill:#FFFFFF;" d="M1198.693,272.389c0-6.164-4.995-11.169-11.165-11.169c-6.168,0-11.163,5.004-11.163,11.169
		c0,6.164,4.995,11.162,11.163,11.162C1193.698,283.551,1198.693,278.554,1198.693,272.389"/>
	<path style="fill:#FFFFFF;" d="M1806.597,272.389c0-4.391-3.545-7.94-7.94-7.94c-4.389,0-7.943,3.549-7.943,7.94
		c0,4.384,3.554,7.936,7.943,7.936C1803.052,280.325,1806.597,276.773,1806.597,272.389"/>
	<path style="fill:#FFFFFF;" d="M1045.427,250.552c0-5.889-4.783-10.673-10.68-10.673c-5.903,0-10.684,4.785-10.684,10.673
		c0,5.905,4.781,10.689,10.684,10.689C1040.643,261.241,1045.427,256.457,1045.427,250.552"/>
	<path style="fill:#FFFFFF;" d="M1617.57,185.079c0-4.764-3.868-8.635-8.642-8.635c-4.764,0-8.628,3.871-8.628,8.635
		c0,4.773,3.864,8.642,8.628,8.642C1613.702,193.721,1617.57,189.852,1617.57,185.079"/>
	<path style="fill:#FFFFFF;" d="M1659.084,294.211c0-3.581-2.912-6.492-6.499-6.492s-6.501,2.911-6.501,6.492
		c0,3.59,2.914,6.506,6.501,6.506S1659.084,297.801,1659.084,294.211"/>
	<path style="fill:#FFFFFF;" d="M576.97,228.303c0-2.303-1.872-4.165-4.167-4.165c-2.304,0-4.167,1.862-4.167,4.165
		c0,2.296,1.863,4.16,4.167,4.16C575.098,232.463,576.97,230.599,576.97,228.303"/>
	<path style="fill:#FFFFFF;" d="M488.405,250.129c0-1.344-1.088-2.443-2.437-2.443c-1.339,0-2.435,1.099-2.435,2.443
		c0,1.341,1.096,2.432,2.435,2.432C487.317,252.561,488.405,251.47,488.405,250.129"/>
	<path style="fill:#FFFFFF;" d="M520.49,271.95c0-7.074-5.736-12.806-12.81-12.806c-7.076,0-12.814,5.732-12.814,12.806
		c0,7.079,5.738,12.816,12.814,12.816C514.754,284.766,520.49,279.029,520.49,271.95"/>
</g>
<g id="Ebene_1">
</g>
</svg>
