<?xml version="1.0" encoding="iso-8859-1"?>
<!-- Generator: Adobe Illustrator 18.0.0, SVG Export Plug-In . SVG Version: 6.00 Build 0)  -->
<!DOCTYPE svg PUBLIC "-//W3C//DTD SVG 1.1//EN" "http://www.w3.org/Graphics/SVG/1.1/DTD/svg11.dtd">
<svg version="1.1" xmlns="http://www.w3.org/2000/svg" xmlns:xlink="http://www.w3.org/1999/xlink" x="0px" y="0px"
	 viewBox="0 0 2800 750" style="enable-background:new 0 0 2800 750;" xml:space="preserve">
<g id="ne5">
	<path style="fill:#FFFFFF;" d="M1465.891,524.769c0-4.28-3.463-7.746-7.746-7.746c-4.269,0-7.732,3.466-7.732,7.746
		c0,4.28,3.463,7.737,7.732,7.737C1462.428,532.506,1465.891,529.049,1465.891,524.769"/>
	<path style="fill:#FFFFFF;" d="M1724.302,481.092c0-2.16-1.742-3.9-3.9-3.9c-2.154,0-3.9,1.739-3.9,3.9
		c0,2.145,1.746,3.898,3.9,3.898C1722.56,484.99,1724.302,483.237,1724.302,481.092"/>
	<path style="fill:#FFFFFF;" d="M1768.148,481.092c0-2.269-1.83-4.097-4.088-4.097c-2.269,0-4.092,1.828-4.092,4.097
		c0,2.256,1.823,4.088,4.092,4.088C1766.318,485.18,1768.148,483.348,1768.148,481.092"/>
	<path style="fill:#FFFFFF;" d="M1838.141,415.61c0-1.448-1.172-2.617-2.615-2.617c-1.448,0-2.617,1.17-2.617,2.617
		c0,1.443,1.17,2.622,2.617,2.622C1836.969,418.232,1838.141,417.053,1838.141,415.61"/>
	<path style="fill:#FFFFFF;" d="M1887.018,481.092c0-4.337-3.506-7.852-7.85-7.852c-4.325,0-7.832,3.516-7.832,7.852
		c0,4.328,3.506,7.834,7.832,7.834C1883.512,488.926,1887.018,485.42,1887.018,481.092"/>
	<path style="fill:#FFFFFF;" d="M2102.992,415.61c0-2.351-1.907-4.26-4.271-4.26c-2.348,0-4.26,1.909-4.26,4.26
		c0,2.35,1.911,4.255,4.26,4.255C2101.085,419.865,2102.992,417.961,2102.992,415.61"/>
	<path style="fill:#FFFFFF;" d="M2082.578,502.911c0-3.135-2.538-5.674-5.674-5.674c-3.14,0-5.681,2.538-5.681,5.674
		c0,3.144,2.541,5.683,5.681,5.683C2080.04,508.594,2082.578,506.056,2082.578,502.911"/>
	<path style="fill:#FFFFFF;" d="M2110.211,481.088c0-6.337-5.137-11.481-11.479-11.481c-6.336,0-11.476,5.144-11.476,11.481
		c0,6.341,5.14,11.479,11.476,11.479C2105.073,492.566,2110.211,487.429,2110.211,481.088"/>
	<path style="fill:#FFFFFF;" d="M761.143,437.395c0-5.595-4.535-10.142-10.137-10.142c-5.597,0-10.138,4.547-10.138,10.142
		c0,5.603,4.541,10.135,10.138,10.135C756.608,447.53,761.143,442.999,761.143,437.395"/>
	<path style="fill:#FFFFFF;" d="M709.292,524.705c0-1.072-0.865-1.941-1.936-1.941c-1.067,0-1.932,0.869-1.932,1.941
		c0,1.063,0.865,1.932,1.932,1.932C708.427,526.637,709.292,525.769,709.292,524.705"/>
	<path style="fill:#FFFFFF;" d="M863.943,524.705c0-0.692-0.555-1.244-1.24-1.244c-0.685,0-1.24,0.552-1.24,1.244
		c0,0.683,0.554,1.244,1.24,1.244C863.387,525.95,863.943,525.389,863.943,524.705"/>
	<path style="fill:#FFFFFF;" d="M1396.559,481.052c0-4.12-3.346-7.463-7.46-7.463c-4.124,0-7.469,3.343-7.469,7.463
		c0,4.119,3.345,7.458,7.469,7.458C1393.213,488.51,1396.559,485.171,1396.559,481.052"/>
	<path style="fill:#FFFFFF;" d="M638.041,249.898c0-2.344,1.901-4.239,4.245-4.239c2.334,0,4.235,1.896,4.235,4.239
		c0,2.332-1.901,4.228-4.235,4.228C639.943,254.126,638.041,252.231,638.041,249.898"/>
	<path style="fill:#FFFFFF;" d="M399.207,250.215c0-2.764-2.233-5.002-4.995-5.002c-2.765,0-5.005,2.237-5.005,5.002
		c0,2.749,2.241,4.997,5.005,4.997C396.974,255.212,399.207,252.964,399.207,250.215"/>
	<path style="fill:#FFFFFF;" d="M2081.062,206.559c0-1.927-1.552-3.486-3.484-3.486c-1.923,0-3.484,1.559-3.484,3.486
		c0,1.925,1.561,3.482,3.484,3.482C2079.51,210.04,2081.062,208.484,2081.062,206.559"/>
	<path style="fill:#FFFFFF;" d="M1036.863,206.907c0-1.172-0.952-2.117-2.116-2.117c-1.17,0-2.118,0.946-2.118,2.117
		c0,1.17,0.948,2.118,2.118,2.118C1035.911,209.025,1036.863,208.077,1036.863,206.907"/>
	<path style="fill:#FFFFFF;" d="M2179.478,250.561c0-6.814-5.533-12.347-12.343-12.347c-6.823,0-12.356,5.533-12.356,12.347
		c0,6.818,5.533,12.343,12.356,12.343C2173.944,262.904,2179.478,257.379,2179.478,250.561"/>
	<path style="fill:#FFFFFF;" d="M560.728,250.129c0-5.318-4.315-9.644-9.635-9.644c-5.322,0-9.634,4.325-9.634,9.644
		c0,5.316,4.312,9.63,9.634,9.63C556.413,259.759,560.728,255.445,560.728,250.129"/>
	<path style="fill:#FFFFFF;" d="M487.569,293.781c0-0.885-0.72-1.593-1.602-1.593c-0.88,0-1.594,0.708-1.594,1.593
		c0,0.882,0.714,1.595,1.594,1.595C486.849,295.375,487.569,294.663,487.569,293.781"/>
	<path style="fill:#FFFFFF;" d="M516.089,293.781c0-4.642-3.768-8.404-8.409-8.404c-4.644,0-8.41,3.762-8.41,8.404
		c0,4.644,3.766,8.404,8.41,8.404C512.321,302.185,516.089,298.425,516.089,293.781"/>
</g>
<g id="Ebene_1">
</g>
</svg>
