<?xml version="1.0" encoding="iso-8859-1"?>
<!-- Generator: Adobe Illustrator 18.0.0, SVG Export Plug-In . SVG Version: 6.00 Build 0)  -->
<!DOCTYPE svg PUBLIC "-//W3C//DTD SVG 1.1//EN" "http://www.w3.org/Graphics/SVG/1.1/DTD/svg11.dtd">
<svg version="1.1" xmlns="http://www.w3.org/2000/svg" xmlns:xlink="http://www.w3.org/1999/xlink" x="0px" y="0px"
	 viewBox="0 0 2800 750" style="enable-background:new 0 0 2800 750;" xml:space="preserve">
<g id="ne7">
	<path style="fill:#FFFFFF;" d="M1446.165,459.284c0-5.434-4.407-9.832-9.847-9.832c-5.422,0-9.836,4.398-9.836,9.832
		c0,5.429,4.414,9.836,9.836,9.836C1441.758,469.121,1446.165,464.714,1446.165,459.284"/>
	<path style="fill:#FFFFFF;" d="M1446.907,502.943c0-5.855-4.739-10.583-10.589-10.583c-5.841,0-10.573,4.728-10.573,10.583
		c0,5.841,4.733,10.582,10.573,10.582C1442.167,513.526,1446.907,508.784,1446.907,502.943"/>
	<path style="fill:#FFFFFF;" d="M1957.369,437.431c0-5.133-4.163-9.284-9.293-9.284s-9.3,4.151-9.3,9.284c0,5.138,4.169,9.3,9.3,9.3
		S1957.369,442.569,1957.369,437.431"/>
	<path style="fill:#FFFFFF;" d="M1775.509,459.257c0-6.323-5.12-11.447-11.449-11.447c-6.318,0-11.447,5.124-11.447,11.447
		c0,6.325,5.128,11.456,11.447,11.456C1770.39,470.713,1775.509,465.582,1775.509,459.257"/>
	<path style="fill:#FFFFFF;" d="M1773.627,524.742c0-5.289-4.285-9.565-9.567-9.565c-5.282,0-9.572,4.276-9.572,9.565
		c0,5.276,4.289,9.56,9.572,9.56C1769.343,534.302,1773.627,530.017,1773.627,524.742"/>
	<path style="fill:#FFFFFF;" d="M1890.292,437.431c0-6.137-4.97-11.112-11.123-11.112c-6.135,0-11.11,4.975-11.11,11.112
		c0,6.144,4.975,11.123,11.11,11.123C1885.322,448.555,1890.292,443.576,1890.292,437.431"/>
	<path style="fill:#FFFFFF;" d="M1907.166,459.257c0-3.398-2.762-6.149-6.162-6.149c-3.398,0-6.158,2.751-6.158,6.149
		c0,3.4,2.76,6.155,6.158,6.155C1904.404,465.413,1907.166,462.657,1907.166,459.257"/>
	<path style="fill:#FFFFFF;" d="M1885.254,524.742c0-3.357-2.717-6.076-6.085-6.076c-3.353,0-6.067,2.719-6.067,6.076
		c0,3.353,2.714,6.072,6.067,6.072C1882.537,530.813,1885.254,528.094,1885.254,524.742"/>
	<path style="fill:#FFFFFF;" d="M2102.282,459.257c0-1.952-1.586-3.552-3.561-3.552c-1.957,0-3.547,1.599-3.547,3.552
		c0,1.97,1.59,3.558,3.547,3.558C2100.696,462.816,2102.282,461.228,2102.282,459.257"/>
	<path style="fill:#FFFFFF;" d="M2040.736,524.742c0-4.131-3.355-7.479-7.481-7.479c-4.14,0-7.479,3.348-7.479,7.479
		c0,4.126,3.339,7.484,7.479,7.484C2037.381,532.225,2040.736,528.868,2040.736,524.742"/>
	<path style="fill:#FFFFFF;" d="M1546.772,459.275c0-5.807-4.697-10.49-10.483-10.49c-5.798,0-10.488,4.683-10.488,10.49
		c0,5.784,4.69,10.492,10.488,10.492C1542.076,469.768,1546.772,465.06,1546.772,459.275"/>
	<path style="fill:#FFFFFF;" d="M1584.687,459.275c0-2.626-2.122-4.748-4.751-4.748c-2.62,0-4.739,2.122-4.739,4.748
		c0,2.613,2.12,4.748,4.739,4.748C1582.565,464.024,1584.687,461.888,1584.687,459.275"/>
	<path style="fill:#FFFFFF;" d="M798.359,415.569c0-2.043-1.651-3.699-3.693-3.699c-2.047,0-3.709,1.656-3.709,3.699
		c0,2.045,1.662,3.708,3.709,3.708C796.707,419.277,798.359,417.614,798.359,415.569"/>
	<path style="fill:#FFFFFF;" d="M799.17,437.395c0-2.486-2.016-4.504-4.504-4.504c-2.504,0-4.521,2.018-4.521,4.504
		c0,2.486,2.017,4.509,4.521,4.509C797.154,441.904,799.17,439.881,799.17,437.395"/>
	<path style="fill:#FFFFFF;" d="M1059.431,437.395c0-1.575-1.283-2.857-2.858-2.857c-1.581,0-2.864,1.283-2.864,2.857
		c0,1.588,1.283,2.866,2.864,2.866C1058.148,440.262,1059.431,438.983,1059.431,437.395"/>
	<path style="fill:#FFFFFF;" d="M741.527,481.052c0-6.816-5.527-12.354-12.347-12.354c-6.816,0-12.345,5.538-12.345,12.354
		c0,6.82,5.529,12.345,12.345,12.345C736.001,493.396,741.527,487.872,741.527,481.052"/>
	<path style="fill:#FFFFFF;" d="M1082.933,481.052c0-2.504-2.028-4.545-4.535-4.545c-2.505,0-4.537,2.04-4.537,4.545
		c0,2.511,2.031,4.536,4.537,4.536C1080.905,485.587,1082.933,483.563,1082.933,481.052"/>
	<path style="fill:#FFFFFF;" d="M1108.676,481.052c0-4.671-3.785-8.454-8.454-8.454c-4.662,0-8.446,3.782-8.446,8.454
		c0,4.665,3.784,8.449,8.446,8.449C1104.891,489.501,1108.676,485.716,1108.676,481.052"/>
	<path style="fill:#FFFFFF;" d="M1063.992,502.88c0-4.099-3.322-7.425-7.419-7.425c-4.097,0-7.418,3.326-7.418,7.425
		c0,4.095,3.321,7.416,7.418,7.416C1060.669,510.295,1063.992,506.974,1063.992,502.88"/>
	<path style="fill:#FFFFFF;" d="M1265.347,502.88c0-6.818-5.528-12.352-12.346-12.352c-6.809,0-12.333,5.533-12.333,12.352
		c0,6.823,5.523,12.343,12.333,12.343C1259.819,515.222,1265.347,509.702,1265.347,502.88"/>
	<path style="fill:#FFFFFF;" d="M894.682,459.221c0-5.603-4.542-10.148-10.152-10.148c-5.605,0-10.157,4.545-10.157,10.148
		c0,5.61,4.553,10.153,10.157,10.153C890.139,469.374,894.682,464.831,894.682,459.221"/>
	<path style="fill:#FFFFFF;" d="M913.155,481.052c0-3.755-3.047-6.803-6.795-6.803c-3.756,0-6.802,3.047-6.802,6.803
		c0,3.748,3.046,6.796,6.802,6.796C910.108,487.847,913.155,484.8,913.155,481.052"/>
	<path style="fill:#FFFFFF;" d="M935.15,502.88c0-3.85-3.124-6.968-6.965-6.968c-3.849,0-6.964,3.117-6.964,6.968
		c0,3.841,3.115,6.968,6.964,6.968C932.026,509.847,935.15,506.721,935.15,502.88"/>
	<path style="fill:#FFFFFF;" d="M1262.569,524.705c0-5.28-4.281-9.556-9.568-9.556c-5.274,0-9.556,4.276-9.556,9.556
		c0,5.275,4.281,9.56,9.556,9.56C1258.288,534.265,1262.569,529.981,1262.569,524.705"/>
	<path style="fill:#FFFFFF;" d="M1376.897,481.052c0-5.316-4.31-9.633-9.634-9.633c-5.314,0-9.622,4.316-9.622,9.633
		c0,5.312,4.308,9.626,9.622,9.626C1372.587,490.677,1376.897,486.363,1376.897,481.052"/>
	<path style="fill:#FFFFFF;" d="M1377.451,228.975c0-3.531-2.855-6.384-6.383-6.384c-3.532,0-6.387,2.853-6.387,6.384
		c0,3.525,2.855,6.379,6.387,6.379C1374.596,235.355,1377.451,232.5,1377.451,228.975"/>
	<path style="fill:#FFFFFF;" d="M1419.378,294.448c0-2.566-2.083-4.651-4.651-4.651c-2.577,0-4.667,2.086-4.667,4.651
		c0,2.577,2.09,4.662,4.667,4.662C1417.294,299.111,1419.378,297.025,1419.378,294.448"/>
	<path style="fill:#FFFFFF;" d="M1934.082,185.169c0-4.52-3.656-8.18-8.178-8.18c-4.522,0-8.191,3.66-8.191,8.18
		c0,4.52,3.669,8.178,8.191,8.178C1930.426,193.347,1934.082,189.689,1934.082,185.169"/>
	<path style="fill:#FFFFFF;" d="M660.791,184.416c0-1.841,1.48-3.323,3.319-3.323c1.838,0,3.329,1.482,3.329,3.323
		c0,1.839-1.491,3.323-3.329,3.323C662.271,187.739,660.791,186.255,660.791,184.416"/>
	<path style="fill:#FFFFFF;" d="M638.974,206.242c0-1.83,1.481-3.31,3.312-3.31c1.829,0,3.312,1.48,3.312,3.31
		s-1.483,3.307-3.312,3.307C640.455,209.549,638.974,208.072,638.974,206.242"/>
	<path style="fill:#FFFFFF;" d="M404.048,228.378c0-5.434-4.405-9.827-9.836-9.827c-5.433,0-9.84,4.393-9.84,9.827
		c0,5.436,4.407,9.841,9.84,9.841C399.643,238.218,404.048,233.814,404.048,228.378"/>
	<path style="fill:#FFFFFF;" d="M423.641,250.215c0-4.205-3.404-7.61-7.607-7.61c-4.202,0-7.604,3.405-7.604,7.61
		c0,4.192,3.402,7.599,7.604,7.599C420.237,257.814,423.641,254.407,423.641,250.215"/>
	<path style="fill:#FFFFFF;" d="M450.204,250.215c0-6.818-5.527-12.347-12.344-12.347c-6.813,0-12.338,5.529-12.338,12.347
		c0,6.807,5.526,12.336,12.338,12.336C444.677,262.551,450.204,257.022,450.204,250.215"/>
	<path style="fill:#FFFFFF;" d="M819.351,228.378c0-5.434-4.405-9.827-9.84-9.827c-5.432,0-9.836,4.393-9.836,9.827
		c0,5.436,4.405,9.841,9.836,9.841C814.946,238.218,819.351,233.814,819.351,228.378"/>
	<path style="fill:#FFFFFF;" d="M837.85,228.378c0-3.588-2.918-6.497-6.513-6.497c-3.595,0-6.51,2.909-6.51,6.497
		c0,3.597,2.915,6.515,6.51,6.515C834.932,234.893,837.85,231.975,837.85,228.378"/>
	<path style="fill:#FFFFFF;" d="M817.932,293.867c0-4.647-3.772-8.422-8.42-8.422c-4.643,0-8.417,3.776-8.417,8.422
		c0,4.649,3.773,8.411,8.417,8.411C814.159,302.278,817.932,298.516,817.932,293.867"/>
	<path style="fill:#FFFFFF;" d="M2084.089,228.378c0-3.588-2.914-6.497-6.51-6.497c-3.588,0-6.509,2.909-6.509,6.497
		c0,3.597,2.921,6.515,6.509,6.515C2081.175,234.893,2084.089,231.975,2084.089,228.378"/>
	<path style="fill:#FFFFFF;" d="M2110.023,228.378c0-5.855-4.746-10.61-10.619-10.61c-5.859,0-10.616,4.755-10.616,10.61
		c0,5.873,4.757,10.621,10.616,10.621C2105.277,238.999,2110.023,234.25,2110.023,228.378"/>
	<path style="fill:#FFFFFF;" d="M2085.184,250.215c0-4.205-3.402-7.61-7.605-7.61c-4.199,0-7.605,3.405-7.605,7.61
		c0,4.192,3.407,7.599,7.605,7.599C2081.782,257.814,2085.184,254.407,2085.184,250.215"/>
	<path style="fill:#FFFFFF;" d="M1848.244,206.907c0-3.273-2.66-5.934-5.943-5.934c-3.264,0-5.929,2.66-5.929,5.934
		c0,3.271,2.665,5.938,5.929,5.938C1845.584,212.845,1848.244,210.178,1848.244,206.907"/>
	<path style="fill:#FFFFFF;" d="M980.429,250.561c0-6.164-4.993-11.166-11.162-11.166c-6.159,0-11.165,5.002-11.165,11.166
		c0,6.158,5.006,11.169,11.165,11.169C975.436,261.73,980.429,256.719,980.429,250.561"/>
	<path style="fill:#FFFFFF;" d="M1598.799,228.737c0-6.458-5.23-11.702-11.691-11.702c-6.461,0-11.703,5.244-11.703,11.702
		c0,6.459,5.242,11.689,11.703,11.689C1593.568,240.426,1598.799,235.196,1598.799,228.737"/>
	<path style="fill:#FFFFFF;" d="M1686.753,250.561c0-6.814-5.529-12.338-12.343-12.338c-6.816,0-12.338,5.524-12.338,12.338
		c0,6.814,5.522,12.334,12.338,12.334C1681.225,262.895,1686.753,257.375,1686.753,250.561"/>
	<path style="fill:#FFFFFF;" d="M1743.047,294.211c0-3.744-3.04-6.789-6.791-6.789c-3.755,0-6.803,3.045-6.803,6.789
		c0,3.753,3.047,6.793,6.803,6.793C1740.006,301.004,1743.047,297.964,1743.047,294.211"/>
</g>
<g id="Ebene_1">
</g>
</svg>
