<?xml version="1.0" encoding="iso-8859-1"?>
<!-- Generator: Adobe Illustrator 18.0.0, SVG Export Plug-In . SVG Version: 6.00 Build 0)  -->
<!DOCTYPE svg PUBLIC "-//W3C//DTD SVG 1.1//EN" "http://www.w3.org/Graphics/SVG/1.1/DTD/svg11.dtd">
<svg version="1.1" xmlns="http://www.w3.org/2000/svg" xmlns:xlink="http://www.w3.org/1999/xlink" x="0px" y="0px"
	 viewBox="0 0 2800 750" style="enable-background:new 0 0 2800 750;" xml:space="preserve">
<g id="ne8">
	<path style="fill:#FFFFFF;" d="M1882.851,415.61c0-2.027-1.638-3.667-3.683-3.667c-2.022,0-3.669,1.64-3.669,3.667
		s1.647,3.667,3.669,3.667C1881.214,419.277,1882.851,417.637,1882.851,415.61"/>
	<path style="fill:#FFFFFF;" d="M1839.982,524.742c0-2.466-1.995-4.456-4.457-4.456c-2.452,0-4.448,1.991-4.448,4.456
		c0,2.452,1.995,4.457,4.448,4.457C1837.987,529.198,1839.982,527.194,1839.982,524.742"/>
	<path style="fill:#FFFFFF;" d="M2064.652,459.257c0-5.289-4.289-9.572-9.578-9.572s-9.572,4.283-9.572,9.572
		c0,5.289,4.283,9.569,9.572,9.569S2064.652,464.546,2064.652,459.257"/>
	<path style="fill:#FFFFFF;" d="M1539.954,437.44c0-2.029-1.638-3.672-3.665-3.672c-2.036,0-3.672,1.642-3.672,3.672
		c0,2.036,1.636,3.676,3.672,3.676C1538.316,441.117,1539.954,439.476,1539.954,437.44"/>
	<path style="fill:#FFFFFF;" d="M758.473,415.569c0-4.119-3.344-7.47-7.467-7.47c-4.124,0-7.471,3.35-7.471,7.47
		c0,4.124,3.347,7.472,7.471,7.472C755.129,423.042,758.473,419.693,758.473,415.569"/>
	<path style="fill:#FFFFFF;" d="M709.521,437.395c0-1.197-0.967-2.165-2.166-2.165c-1.197,0-2.161,0.968-2.161,2.165
		c0,1.194,0.965,2.165,2.161,2.165C708.555,439.56,709.521,438.59,709.521,437.395"/>
	<path style="fill:#FFFFFF;" d="M826.052,502.88c0-5.289-4.285-9.56-9.566-9.56c-5.287,0-9.565,4.271-9.565,9.56
		c0,5.271,4.278,9.56,9.565,9.56C821.767,512.44,826.052,508.151,826.052,502.88"/>
	<path style="fill:#FFFFFF;" d="M823.976,524.705c0-4.14-3.357-7.492-7.49-7.492c-4.14,0-7.487,3.353-7.487,7.492
		c0,4.126,3.347,7.488,7.487,7.488C820.619,532.193,823.976,528.832,823.976,524.705"/>
	<path style="fill:#FFFFFF;" d="M864.21,459.221c0-0.835-0.675-1.497-1.507-1.497c-0.831,0-1.498,0.663-1.498,1.497
		c0,0.833,0.666,1.507,1.498,1.507C863.534,460.728,864.21,460.054,864.21,459.221"/>
	<path style="fill:#FFFFFF;" d="M1348.566,437.395c0-1.728-1.395-3.124-3.124-3.124c-1.717,0-3.124,1.396-3.124,3.124
		c0,1.733,1.407,3.115,3.124,3.115C1347.171,440.51,1348.566,439.128,1348.566,437.395"/>
	<path style="fill:#FFFFFF;" d="M1448.882,228.975c0-6.816-5.515-12.345-12.34-12.345c-6.812,0-12.336,5.529-12.336,12.345
		c0,6.805,5.524,12.338,12.336,12.338C1443.366,241.313,1448.882,235.78,1448.882,228.975"/>
	<path style="fill:#FFFFFF;" d="M1372.691,294.448c0-0.896-0.729-1.627-1.623-1.627c-0.902,0-1.629,0.731-1.629,1.627
		c0,0.9,0.726,1.624,1.629,1.624C1371.962,296.072,1372.691,295.348,1372.691,294.448"/>
	<path style="fill:#FFFFFF;" d="M1972.86,206.998c0-1.835-1.475-3.321-3.312-3.321c-1.832,0-3.31,1.486-3.31,3.321
		c0,1.823,1.477,3.303,3.31,3.303C1971.385,210.301,1972.86,208.821,1972.86,206.998"/>
	<path style="fill:#FFFFFF;" d="M655.306,228.063c0-4.855,3.945-8.798,8.803-8.798c4.87,0,8.803,3.943,8.803,8.798
		c0,4.871-3.934,8.809-8.803,8.809C659.252,236.873,655.306,232.934,655.306,228.063"/>
	<path style="fill:#FFFFFF;" d="M610.895,271.724c0-5.287,4.281-9.562,9.566-9.562c5.279,0,9.556,4.276,9.556,9.562
		c0,5.273-4.277,9.565-9.556,9.565C615.176,281.289,610.895,276.997,610.895,271.724"/>
	<path style="fill:#FFFFFF;" d="M419.517,206.559c0-1.927-1.556-3.486-3.483-3.486c-1.923,0-3.481,1.559-3.481,3.486
		c0,1.925,1.559,3.482,3.481,3.482C417.96,210.04,419.517,208.484,419.517,206.559"/>
	<path style="fill:#FFFFFF;" d="M2107.947,293.867c0-4.717-3.823-8.54-8.542-8.54c-4.71,0-8.529,3.823-8.529,8.54
		c0,4.712,3.819,8.528,8.529,8.528C2104.123,302.395,2107.947,298.579,2107.947,293.867"/>
	<path style="fill:#FFFFFF;" d="M1300.709,250.561c0-2.24-1.815-4.054-4.047-4.054c-2.242,0-4.055,1.814-4.055,4.054
		c0,2.231,1.813,4.045,4.055,4.045C1298.893,254.606,1300.709,252.792,1300.709,250.561"/>
	<path style="fill:#FFFFFF;" d="M1211.066,272.389c0-0.95-0.77-1.713-1.715-1.713c-0.939,0-1.708,0.762-1.708,1.713
		c0,0.934,0.769,1.708,1.708,1.708C1210.296,274.097,1211.066,273.323,1211.066,272.389"/>
	<path style="fill:#FFFFFF;" d="M1873.228,272.389c0-5.024-4.081-9.087-9.094-9.087c-5.018,0-9.092,4.063-9.092,9.087
		c0,5.018,4.074,9.094,9.092,9.094C1869.147,281.483,1873.228,277.407,1873.228,272.389"/>
	<path style="fill:#FFFFFF;" d="M1663.267,185.079c0-5.891-4.789-10.678-10.682-10.678c-5.9,0-10.682,4.787-10.682,10.678
		c0,5.909,4.782,10.689,10.682,10.689C1658.478,195.768,1663.267,190.988,1663.267,185.079"/>
	<path style="fill:#FFFFFF;" d="M1679.035,294.211c0-2.55-2.074-4.617-4.624-4.617s-4.62,2.068-4.62,4.617
		c0,2.556,2.07,4.613,4.62,4.613S1679.035,296.767,1679.035,294.211"/>
	<path style="fill:#FFFFFF;" d="M2362.106,218.61c0-5.665-4.611-10.275-10.284-10.275c-5.671,0-10.275,4.611-10.275,10.275
		c0,5.687,4.604,10.286,10.275,10.286C2357.496,228.896,2362.106,224.297,2362.106,218.61"/>
	<path style="fill:#FFFFFF;" d="M2375.901,284.101c0-1.249-1.009-2.249-2.242-2.249c-1.242,0-2.253,1-2.253,2.249
		c0,1.231,1.011,2.231,2.253,2.231C2374.892,286.331,2375.901,285.331,2375.901,284.101"/>
	<path style="fill:#FFFFFF;" d="M554.072,206.477c0-1.649-1.33-2.975-2.979-2.975c-1.641,0-2.973,1.326-2.973,2.975
		c0,1.645,1.331,2.97,2.973,2.97C552.742,209.448,554.072,208.122,554.072,206.477"/>
</g>
<g id="Ebene_1">
</g>
</svg>
