<?xml version="1.0" encoding="iso-8859-1"?>
<!-- Generator: Adobe Illustrator 18.0.0, SVG Export Plug-In . SVG Version: 6.00 Build 0)  -->
<!DOCTYPE svg PUBLIC "-//W3C//DTD SVG 1.1//EN" "http://www.w3.org/Graphics/SVG/1.1/DTD/svg11.dtd">
<svg version="1.1" xmlns="http://www.w3.org/2000/svg" xmlns:xlink="http://www.w3.org/1999/xlink" x="0px" y="0px"
	 viewBox="0 0 1200 3404.104" style="enable-background:new 0 0 1200 3404.104;" xml:space="preserve">
<g id="_x30_1_x5F_snow_x5F_small1">
	<path style="fill:#FFFFFF;" d="M964.872,2542.104c0-0.976-0.79-1.767-1.767-1.767c-0.974,0-1.768,0.791-1.768,1.767
		s0.794,1.768,1.768,1.768C964.082,2543.871,964.872,2543.079,964.872,2542.104"/>
	<path style="fill:#FFFFFF;" d="M909.676,2923.355c0-0.976-0.787-1.764-1.762-1.764c-0.974,0-1.762,0.788-1.762,1.764
		c0,0.972,0.788,1.76,1.762,1.76C908.889,2925.115,909.676,2924.327,909.676,2923.355"/>
	<path style="fill:#FFFFFF;" d="M159.818,2815.407c0-1.219-0.986-2.205-2.205-2.205c-1.218,0-2.204,0.986-2.204,2.205
		s0.986,2.205,2.204,2.205C158.831,2817.612,159.818,2816.626,159.818,2815.407"/>
	<path style="fill:#FFFFFF;" d="M484.116,1408.34c0-0.617-0.502-1.121-1.121-1.121c-0.619,0-1.121,0.504-1.121,1.121
		c0,0.619,0.502,1.123,1.121,1.123C483.614,1409.463,484.116,1408.959,484.116,1408.34"/>
	<path style="fill:#FFFFFF;" d="M938.888,828.353c0-0.467-0.379-0.846-0.846-0.846c-0.469,0-0.846,0.379-0.846,0.846
		c0,0.465,0.377,0.842,0.846,0.842C938.509,829.194,938.888,828.818,938.888,828.353"/>
	<path style="fill:#FFFFFF;" d="M1169.439,792.755c0-0.467-0.379-0.846-0.846-0.846c-0.469,0-0.846,0.379-0.846,0.846
		c0,0.465,0.377,0.842,0.846,0.842C1169.061,793.597,1169.439,793.22,1169.439,792.755"/>
	<path style="fill:#FFFFFF;" d="M187.704,703.36c0-0.69-0.56-1.247-1.246-1.247c-0.688,0-1.248,0.558-1.248,1.247
		c0,0.688,0.559,1.245,1.248,1.245C187.145,704.605,187.704,704.047,187.704,703.36"/>
	<path style="fill:#FFFFFF;" d="M817.213,1063.209c0-0.926-0.75-1.678-1.676-1.678c-0.926,0-1.678,0.752-1.678,1.678
		c0,0.922,0.752,1.676,1.678,1.676C816.463,1064.885,817.213,1064.131,817.213,1063.209"/>
	<path style="fill:#FFFFFF;" d="M437.401,1121.103c0-0.81-0.658-1.467-1.47-1.467c-0.812,0-1.468,0.656-1.468,1.467
		c0,0.812,0.656,1.471,1.468,1.471C436.743,1122.573,437.401,1121.914,437.401,1121.103"/>
	<path style="fill:#FFFFFF;" d="M707.102,1377.839c0-0.617-0.502-1.121-1.121-1.121c-0.619,0-1.121,0.504-1.121,1.121
		c0,0.619,0.502,1.123,1.121,1.123C706.601,1378.962,707.102,1378.458,707.102,1377.839"/>
	<path style="fill:#FFFFFF;" d="M1080.715,983.527c0-0.467-0.379-0.846-0.846-0.846c-0.469,0-0.846,0.379-0.846,0.846
		c0,0.465,0.377,0.842,0.846,0.842C1080.336,984.369,1080.715,983.992,1080.715,983.527"/>
	<path style="fill:#FFFFFF;" d="M735.95,1222.478c0-0.617-0.502-1.121-1.121-1.121s-1.121,0.504-1.121,1.121
		c0,0.619,0.502,1.123,1.121,1.123S735.95,1223.097,735.95,1222.478"/>
	<path style="fill:#FFFFFF;" d="M1158.715,1067.039c0-0.689-0.56-1.247-1.246-1.247c-0.688,0-1.248,0.558-1.248,1.247
		c0,0.688,0.56,1.245,1.248,1.245C1158.155,1068.284,1158.715,1067.727,1158.715,1067.039"/>
	<path style="fill:#FFFFFF;" d="M152.533,2227.961c0-0.73-0.595-1.322-1.325-1.322c-0.731,0-1.322,0.592-1.322,1.322
		s0.591,1.322,1.322,1.322C151.938,2229.283,152.533,2228.691,152.533,2227.961"/>
	<path style="fill:#FFFFFF;" d="M902.953,2191.82c0-0.926-0.75-1.678-1.676-1.678c-0.926,0-1.678,0.752-1.678,1.678
		c0,0.922,0.752,1.676,1.678,1.676C902.203,2193.496,902.953,2192.742,902.953,2191.82"/>
	<path style="fill:#FFFFFF;" d="M964.215,1599.875c0-0.146-0.113-0.264-0.26-0.264c-0.143,0-0.26,0.117-0.26,0.264
		c0,0.143,0.117,0.26,0.26,0.26C964.102,1600.135,964.215,1600.018,964.215,1599.875"/>
	<path style="fill:#FFFFFF;" d="M436.225,1174.07c0-0.976-0.787-1.764-1.762-1.764c-0.973,0-1.762,0.788-1.762,1.764
		c0,0.972,0.789,1.76,1.762,1.76C435.438,1175.83,436.225,1175.042,436.225,1174.07"/>
	<path style="fill:#FFFFFF;" d="M154.147,1491.101c0-0.811-0.658-1.467-1.47-1.467c-0.812,0-1.468,0.656-1.468,1.467
		c0,0.812,0.656,1.471,1.468,1.471C153.489,1492.571,154.147,1491.912,154.147,1491.101"/>
	<path style="fill:#FFFFFF;" d="M878.453,1363.028c0-0.467-0.379-0.846-0.846-0.846c-0.469,0-0.846,0.379-0.846,0.846
		c0,0.465,0.377,0.842,0.846,0.842C878.074,1363.87,878.453,1363.493,878.453,1363.028"/>
	<path style="fill:#FFFFFF;" d="M320.07,1203.633c0-0.617-0.502-1.121-1.121-1.121c-0.619,0-1.121,0.504-1.121,1.121
		c0,0.619,0.502,1.123,1.121,1.123C319.568,1204.756,320.07,1204.252,320.07,1203.633"/>
	<path style="fill:#FFFFFF;" d="M343.82,2193.444c0-0.69-0.56-1.247-1.246-1.247c-0.688,0-1.248,0.558-1.248,1.247
		c0,0.688,0.56,1.245,1.248,1.245C343.26,2194.688,343.82,2194.131,343.82,2193.444"/>
	<path style="fill:#FFFFFF;" d="M52.525,2250.042c0-0.689-0.56-1.247-1.246-1.247c-0.688,0-1.248,0.558-1.248,1.247
		c0,0.688,0.56,1.245,1.248,1.245C51.966,2251.287,52.525,2250.729,52.525,2250.042"/>
	<path style="fill:#FFFFFF;" d="M1068.539,1300.406c0-0.975-0.787-1.764-1.762-1.764c-0.973,0-1.762,0.788-1.762,1.764
		c0,0.972,0.789,1.76,1.762,1.76C1067.752,1302.166,1068.539,1301.378,1068.539,1300.406"/>
	<path style="fill:#FFFFFF;" d="M988.307,1356.818c0-0.73-0.594-1.322-1.324-1.322c-0.732,0-1.322,0.592-1.322,1.322
		c0,0.73,0.59,1.322,1.322,1.322C987.713,1358.14,988.307,1357.548,988.307,1356.818"/>
	<path style="fill:#FFFFFF;" d="M777.232,1586.026c0-0.168-0.139-0.305-0.307-0.305c-0.17,0-0.307,0.137-0.307,0.305
		c0,0.17,0.137,0.306,0.307,0.306C777.094,1586.332,777.232,1586.196,777.232,1586.026"/>
	<path style="fill:#FFFFFF;" d="M340.001,1381.806c0-0.73-0.595-1.322-1.325-1.322c-0.731,0-1.322,0.592-1.322,1.322
		c0,0.73,0.591,1.322,1.322,1.322C339.406,1383.128,340.001,1382.536,340.001,1381.806"/>
	<path style="fill:#FFFFFF;" d="M707.102,2104.13c0-0.617-0.502-1.121-1.121-1.121c-0.619,0-1.121,0.504-1.121,1.121
		c0,0.619,0.502,1.123,1.121,1.123C706.601,2105.253,707.102,2104.749,707.102,2104.13"/>
	<path style="fill:#FFFFFF;" d="M564.841,2113.454c0-0.73-0.595-1.322-1.325-1.322c-0.731,0-1.322,0.592-1.322,1.322
		s0.591,1.322,1.322,1.322C564.247,2114.777,564.841,2114.185,564.841,2113.454"/>
	<path style="fill:#FFFFFF;" d="M126.845,2006.784c0-0.617-0.502-1.121-1.121-1.121c-0.619,0-1.121,0.504-1.121,1.121
		c0,0.619,0.502,1.123,1.121,1.123C126.343,2007.907,126.845,2007.404,126.845,2006.784"/>
	<path style="fill:#FFFFFF;" d="M502.931,2162.844c0-0.617-0.502-1.121-1.121-1.121c-0.619,0-1.121,0.504-1.121,1.121
		c0,0.619,0.502,1.123,1.121,1.123C502.429,2163.967,502.931,2163.463,502.931,2162.844"/>
	<path style="fill:#FFFFFF;" d="M907.582,2104.285c0-0.617-0.502-1.121-1.121-1.121c-0.619,0-1.121,0.504-1.121,1.121
		c0,0.619,0.502,1.123,1.121,1.123C907.08,2105.408,907.582,2104.905,907.582,2104.285"/>
	<path style="fill:#FFFFFF;" d="M340.001,2108.097c0-0.73-0.595-1.322-1.325-1.322c-0.731,0-1.322,0.592-1.322,1.322
		s0.591,1.322,1.322,1.322C339.406,2109.419,340.001,2108.827,340.001,2108.097"/>
	<path style="fill:#FFFFFF;" d="M1038.464,951.876c0-0.467-0.379-0.846-0.846-0.846c-0.469,0-0.846,0.379-0.846,0.846
		c0,0.465,0.377,0.842,0.846,0.842C1038.085,952.718,1038.464,952.341,1038.464,951.876"/>
	<path style="fill:#FFFFFF;" d="M506.133,749.581c0-0.617-0.502-1.121-1.121-1.121c-0.619,0-1.121,0.504-1.121,1.121
		c0,0.619,0.502,1.123,1.121,1.123C505.631,750.704,506.133,750.2,506.133,749.581"/>
	<path style="fill:#FFFFFF;" d="M1147.13,1027.278c0-0.467-0.379-0.846-0.846-0.846c-0.469,0-0.846,0.379-0.846,0.846
		c0,0.465,0.377,0.842,0.846,0.842C1146.751,1028.12,1147.13,1027.743,1147.13,1027.278"/>
	<path style="fill:#FFFFFF;" d="M838.185,697.09c0-0.926-0.75-1.678-1.676-1.678c-0.926,0-1.678,0.752-1.678,1.678
		c0,0.922,0.752,1.676,1.678,1.676C837.435,698.766,838.185,698.012,838.185,697.09"/>
	<path style="fill:#FFFFFF;" d="M891.063,1130.216c0-1.368-1.111-2.477-2.479-2.477c-1.369,0-2.478,1.108-2.478,2.477
		c0,1.368,1.108,2.477,2.478,2.477C889.952,1132.693,891.063,1131.584,891.063,1130.216"/>
	<path style="fill:#FFFFFF;" d="M52.587,1013.826c0-0.69-0.56-1.247-1.246-1.247c-0.688,0-1.248,0.558-1.248,1.247
		c0,0.688,0.56,1.245,1.248,1.245C52.027,1015.071,52.587,1014.514,52.587,1013.826"/>
	<path style="fill:#FFFFFF;" d="M187.578,840.859c0-0.617-0.502-1.121-1.121-1.121c-0.619,0-1.121,0.504-1.121,1.121
		c0,0.619,0.502,1.123,1.121,1.123C187.076,841.982,187.578,841.479,187.578,840.859"/>
	<path style="fill:#FFFFFF;" d="M135.976,1042.424c0-0.81-0.658-1.467-1.47-1.467c-0.812,0-1.468,0.656-1.468,1.467
		c0,0.812,0.656,1.471,1.468,1.471C135.318,1043.895,135.976,1043.235,135.976,1042.424"/>
	<path style="fill:#FFFFFF;" d="M301.899,734.956c0-0.617-0.502-1.121-1.121-1.121c-0.619,0-1.121,0.504-1.121,1.121
		c0,0.619,0.502,1.123,1.121,1.123C301.397,736.079,301.899,735.575,301.899,734.956"/>
	<path style="fill:#FFFFFF;" d="M43.251,1147.98c0-0.617-0.502-1.121-1.121-1.121c-0.619,0-1.121,0.504-1.121,1.121
		c0,0.619,0.502,1.123,1.121,1.123C42.75,1149.103,43.251,1148.599,43.251,1147.98"/>
	<path style="fill:#FFFFFF;" d="M464.091,923.805c0-0.617-0.502-1.121-1.121-1.121c-0.619,0-1.121,0.504-1.121,1.121
		c0,0.619,0.502,1.123,1.121,1.123C463.589,924.928,464.091,924.424,464.091,923.805"/>
	<path style="fill:#FFFFFF;" d="M322.042,824.74c0-0.73-0.595-1.322-1.325-1.322c-0.731,0-1.322,0.592-1.322,1.322
		c0,0.73,0.591,1.322,1.322,1.322C321.447,826.063,322.042,825.471,322.042,824.74"/>
	<path style="fill:#FFFFFF;" d="M1027.441,1095.251c0-0.467-0.379-0.846-0.846-0.846c-0.469,0-0.846,0.379-0.846,0.846
		c0,0.465,0.377,0.842,0.846,0.842C1027.062,1096.093,1027.441,1095.716,1027.441,1095.251"/>
	<path style="fill:#FFFFFF;" d="M321.83,933.129c0-0.73-0.595-1.322-1.325-1.322c-0.731,0-1.322,0.592-1.322,1.322
		c0,0.731,0.591,1.322,1.322,1.322C321.235,934.451,321.83,933.859,321.83,933.129"/>
	<path style="fill:#FFFFFF;" d="M56.612,384.816c0-0.69-0.56-1.247-1.246-1.247c-0.688,0-1.248,0.558-1.248,1.247
		c0,0.688,0.56,1.245,1.248,1.245C56.052,386.062,56.612,385.504,56.612,384.816"/>
	<path style="fill:#FFFFFF;" d="M862.798,563.163c0-0.168-0.139-0.305-0.307-0.305c-0.17,0-0.307,0.137-0.307,0.305
		c0,0.17,0.137,0.306,0.307,0.306C862.659,563.469,862.798,563.333,862.798,563.163"/>
	<path style="fill:#FFFFFF;" d="M721.227,529.212c0-0.168-0.139-0.305-0.307-0.305c-0.17,0-0.307,0.137-0.307,0.305
		c0,0.17,0.137,0.306,0.307,0.306C721.088,529.518,721.227,529.382,721.227,529.212"/>
	<path style="fill:#FFFFFF;" d="M755.631,508.837c0-0.168-0.139-0.305-0.307-0.305c-0.17,0-0.307,0.137-0.307,0.305
		c0,0.17,0.137,0.306,0.307,0.306C755.492,509.143,755.631,509.007,755.631,508.837"/>
	<path style="fill:#FFFFFF;" d="M157.166,557.833c0-0.689-0.56-1.247-1.246-1.247c-0.688,0-1.248,0.558-1.248,1.247
		c0,0.688,0.56,1.245,1.248,1.245C156.606,559.078,157.166,558.52,157.166,557.833"/>
	<path style="fill:#FFFFFF;" d="M604.44,353.191c0-0.617-0.502-1.121-1.121-1.121c-0.619,0-1.121,0.504-1.121,1.121
		c0,0.619,0.502,1.123,1.121,1.123C603.938,354.314,604.44,353.811,604.44,353.191"/>
	<path style="fill:#FFFFFF;" d="M60.758,713.97c0-0.73-0.595-1.322-1.325-1.322c-0.731,0-1.322,0.592-1.322,1.322
		c0,0.731,0.591,1.322,1.322,1.322C60.164,715.293,60.758,714.701,60.758,713.97"/>
	<path style="fill:#FFFFFF;" d="M871.597,539.487c0-0.146-0.113-0.264-0.26-0.264c-0.143,0-0.26,0.117-0.26,0.264
		c0,0.143,0.117,0.26,0.26,0.26C871.483,539.747,871.597,539.63,871.597,539.487"/>
	<path style="fill:#FFFFFF;" d="M462.178,362.516c0-0.73-0.595-1.322-1.325-1.322c-0.731,0-1.322,0.592-1.322,1.322
		s0.591,1.322,1.322,1.322C461.583,363.838,462.178,363.246,462.178,362.516"/>
	<path style="fill:#FFFFFF;" d="M551.773,364.198c0-0.467-0.379-0.846-0.846-0.846c-0.469,0-0.846,0.379-0.846,0.846
		c0,0.465,0.377,0.842,0.846,0.842C551.394,365.04,551.773,364.663,551.773,364.198"/>
	<path style="fill:#FFFFFF;" d="M913.035,423.568c0-0.168-0.139-0.305-0.307-0.305c-0.17,0-0.307,0.137-0.307,0.305
		c0,0.17,0.137,0.306,0.307,0.306C912.896,423.874,913.035,423.738,913.035,423.568"/>
	<path style="fill:#FFFFFF;" d="M203.643,374.861c0-0.81-0.658-1.467-1.47-1.467c-0.812,0-1.468,0.656-1.468,1.467
		c0,0.812,0.656,1.471,1.468,1.471C202.984,376.332,203.643,375.672,203.643,374.861"/>
	<path style="fill:#FFFFFF;" d="M1097.562,403.139c0-0.168-0.139-0.305-0.307-0.305c-0.17,0-0.307,0.137-0.307,0.305
		c0,0.17,0.137,0.306,0.307,0.306C1097.424,403.444,1097.562,403.309,1097.562,403.139"/>
	<path style="fill:#FFFFFF;" d="M980.775,227.118c0-0.617-0.502-1.121-1.121-1.121c-0.619,0-1.121,0.504-1.121,1.121
		c0,0.619,0.502,1.123,1.121,1.123C980.273,228.241,980.775,227.737,980.775,227.118"/>
	<path style="fill:#FFFFFF;" d="M923.662,310.151c0-0.467-0.379-0.846-0.846-0.846c-0.469,0-0.846,0.379-0.846,0.846
		c0,0.465,0.377,0.842,0.846,0.842C923.283,310.993,923.662,310.616,923.662,310.151"/>
	<path style="fill:#FFFFFF;" d="M936.34,603.863c0-0.467-0.379-0.846-0.846-0.846c-0.469,0-0.846,0.379-0.846,0.846
		c0,0.465,0.377,0.842,0.846,0.842C935.961,604.705,936.34,604.328,936.34,603.863"/>
	<path style="fill:#FFFFFF;" d="M866.822,641.741c0-0.467-0.379-0.846-0.846-0.846c-0.469,0-0.846,0.379-0.846,0.846
		c0,0.465,0.377,0.842,0.846,0.842C866.443,642.583,866.822,642.206,866.822,641.741"/>
	<path style="fill:#FFFFFF;" d="M1045.852,546.097c0-0.467-0.379-0.846-0.846-0.846c-0.469,0-0.846,0.379-0.846,0.846
		c0,0.465,0.377,0.842,0.846,0.842C1045.473,546.939,1045.852,546.562,1045.852,546.097"/>
	<path style="fill:#FFFFFF;" d="M1198.783,180.141c0-0.467-0.379-0.846-0.846-0.846c-0.469,0-0.846,0.379-0.846,0.846
		c0,0.465,0.377,0.842,0.846,0.842C1198.404,180.982,1198.783,180.606,1198.783,180.141"/>
	<path style="fill:#FFFFFF;" d="M60.98,733.061c0-0.617-0.502-1.121-1.121-1.121c-0.619,0-1.121,0.504-1.121,1.121
		c0,0.619,0.502,1.123,1.121,1.123C60.478,734.184,60.98,733.68,60.98,733.061"/>
	<path style="fill:#FFFFFF;" d="M22,691.83c0-0.976-0.787-1.764-1.762-1.764c-0.973,0-1.762,0.788-1.762,1.764
		c0,0.972,0.789,1.76,1.762,1.76C21.213,693.59,22,692.802,22,691.83"/>
	<path style="fill:#FFFFFF;" d="M938.888,1907.15c0-0.467-0.379-0.846-0.846-0.846c-0.469,0-0.846,0.379-0.846,0.846
		c0,0.465,0.377,0.842,0.846,0.842C938.509,1907.991,938.888,1907.615,938.888,1907.15"/>
	<path style="fill:#FFFFFF;" d="M187.704,1782.157c0-0.689-0.56-1.247-1.246-1.247c-0.688,0-1.248,0.558-1.248,1.247
		c0,0.688,0.559,1.245,1.248,1.245C187.145,1783.402,187.704,1782.844,187.704,1782.157"/>
	<path style="fill:#FFFFFF;" d="M387.984,1647.357c0-0.811-0.658-1.467-1.47-1.467c-0.812,0-1.468,0.656-1.468,1.467
		c0,0.812,0.656,1.471,1.468,1.471C387.326,1648.827,387.984,1648.168,387.984,1647.357"/>
	<path style="fill:#FFFFFF;" d="M142.502,1888.789c0-1.219-0.986-2.205-2.205-2.205c-1.218,0-2.204,0.986-2.204,2.205
		c0,1.219,0.986,2.205,2.204,2.205C141.516,1890.994,142.502,1890.008,142.502,1888.789"/>
	<path style="fill:#FFFFFF;" d="M322.042,1903.537c0-0.73-0.595-1.322-1.325-1.322c-0.731,0-1.322,0.592-1.322,1.322
		c0,0.731,0.591,1.322,1.322,1.322C321.447,1904.86,322.042,1904.268,322.042,1903.537"/>
	<path style="fill:#FFFFFF;" d="M1170.857,1754.455c0-0.467-0.379-0.846-0.846-0.846c-0.469,0-0.846,0.379-0.846,0.846
		c0,0.465,0.377,0.842,0.846,0.842C1170.479,1755.297,1170.857,1754.92,1170.857,1754.455"/>
	<path style="fill:#FFFFFF;" d="M634.497,1725.567c0-0.467-0.379-0.846-0.846-0.846c-0.469,0-0.846,0.379-0.846,0.846
		c0,0.465,0.377,0.842,0.846,0.842C634.118,1726.408,634.497,1726.031,634.497,1725.567"/>
	<path style="fill:#FFFFFF;" d="M465.997,1681.155c0-0.689-0.56-1.247-1.246-1.247c-0.689,0-1.248,0.558-1.248,1.247
		c0,0.688,0.56,1.245,1.248,1.245C465.438,1682.4,465.997,1681.842,465.997,1681.155"/>
	<path style="fill:#FFFFFF;" d="M62.372,1627.703c0-0.811-0.658-1.467-1.47-1.467c-0.812,0-1.468,0.656-1.468,1.467
		c0,0.812,0.656,1.471,1.468,1.471C61.714,1629.174,62.372,1628.514,62.372,1627.703"/>
	<path style="fill:#FFFFFF;" d="M336.913,1569.803c0-0.73-0.595-1.322-1.325-1.322c-0.731,0-1.322,0.592-1.322,1.322
		c0,0.73,0.591,1.322,1.322,1.322C336.318,1571.125,336.913,1570.533,336.913,1569.803"/>
	<path style="fill:#FFFFFF;" d="M880.152,1771.866c0-0.467-0.379-0.846-0.846-0.846c-0.469,0-0.846,0.379-0.846,0.846
		c0,0.465,0.377,0.842,0.846,0.842C879.773,1772.708,880.152,1772.331,880.152,1771.866"/>
	<path style="fill:#FFFFFF;" d="M848.746,1762.49c0-0.168-0.139-0.305-0.307-0.305c-0.17,0-0.307,0.137-0.307,0.305
		c0,0.17,0.137,0.306,0.307,0.306C848.607,1762.796,848.746,1762.66,848.746,1762.49"/>
	<path style="fill:#FFFFFF;" d="M3.477,389.413c0-0.811-0.658-1.467-1.47-1.467c-0.812,0-1.468,0.656-1.468,1.467
		c0,0.811,0.656,1.471,1.468,1.471C2.818,390.883,3.477,390.224,3.477,389.413"/>
	<path style="fill:#FFFFFF;" d="M135.804,166.671c0-0.73-0.595-1.322-1.325-1.322c-0.731,0-1.322,0.592-1.322,1.322
		c0,0.73,0.591,1.322,1.322,1.322C135.209,167.994,135.804,167.402,135.804,166.671"/>
	<path style="fill:#FFFFFF;" d="M220.952,240.38c0-0.467-0.379-0.846-0.846-0.846c-0.469,0-0.846,0.379-0.846,0.846
		c0,0.465,0.377,0.842,0.846,0.842C220.573,241.222,220.952,240.845,220.952,240.38"/>
	<path style="fill:#FFFFFF;" d="M32.141,316.273c0-0.168-0.139-0.305-0.307-0.305c-0.17,0-0.307,0.137-0.307,0.305
		c0,0.17,0.137,0.306,0.307,0.306C32.002,316.579,32.141,316.443,32.141,316.273"/>
	<path style="fill:#FFFFFF;" d="M320.373,1985.179c0-0.168-0.139-0.305-0.307-0.305c-0.17,0-0.307,0.137-0.307,0.305
		c0,0.17,0.137,0.306,0.307,0.306C320.235,1985.485,320.373,1985.349,320.373,1985.179"/>
	<path style="fill:#FFFFFF;" d="M367.555,1935.025c0-0.146-0.113-0.264-0.26-0.264c-0.143,0-0.26,0.117-0.26,0.264
		c0,0.142,0.117,0.26,0.26,0.26C367.442,1935.285,367.555,1935.167,367.555,1935.025"/>
</g>
<g id="Ebene_1">
</g>
</svg>
