<?xml version="1.0" encoding="iso-8859-1"?>
<!-- Generator: Adobe Illustrator 18.0.0, SVG Export Plug-In . SVG Version: 6.00 Build 0)  -->
<!DOCTYPE svg PUBLIC "-//W3C//DTD SVG 1.1//EN" "http://www.w3.org/Graphics/SVG/1.1/DTD/svg11.dtd">
<svg version="1.1" xmlns="http://www.w3.org/2000/svg" xmlns:xlink="http://www.w3.org/1999/xlink" x="0px" y="0px"
	 viewBox="0 0 1200 3404.104" style="enable-background:new 0 0 1200 3404.104;" xml:space="preserve">
<g id="_x30_1_x5F_snow_x5F_small2">
	<path style="fill:#FFFFFF;" d="M280,2490.805c0-0.689-0.56-1.247-1.246-1.247c-0.689,0-1.248,0.558-1.248,1.247
		c0,0.688,0.56,1.245,1.248,1.245C279.44,2492.05,280,2491.492,280,2490.805"/>
	<path style="fill:#FFFFFF;" d="M732.1,2569.6c0-0.926-0.749-1.678-1.675-1.678c-0.927,0-1.679,0.752-1.679,1.678
		c0,0.922,0.752,1.676,1.679,1.676C731.351,2571.275,732.1,2570.521,732.1,2569.6"/>
	<path style="fill:#FFFFFF;" d="M414.991,2317.838c0-0.617-0.502-1.121-1.121-1.121c-0.619,0-1.121,0.504-1.121,1.121
		c0,0.619,0.502,1.123,1.121,1.123C414.489,2318.961,414.991,2318.457,414.991,2317.838"/>
	<path style="fill:#FFFFFF;" d="M97.238,3241.1c0-0.617-0.502-1.121-1.121-1.121c-0.619,0-1.121,0.504-1.121,1.121
		c0,0.619,0.502,1.123,1.121,1.123C96.736,3242.223,97.238,3241.719,97.238,3241.1"/>
	<path style="fill:#FFFFFF;" d="M757.185,3095.671c0-0.29-0.238-0.525-0.529-0.525c-0.291,0-0.527,0.236-0.527,0.525
		c0,0.291,0.236,0.527,0.527,0.527C756.947,3096.198,757.185,3095.962,757.185,3095.671"/>
	<path style="fill:#FFFFFF;" d="M385.857,2213.867c0-0.811-0.658-1.467-1.47-1.467c-0.811,0-1.468,0.656-1.468,1.467
		c0,0.812,0.656,1.471,1.468,1.471C385.199,2215.338,385.857,2214.679,385.857,2213.867"/>
	<path style="fill:#FFFFFF;" d="M442.26,720.186c0-0.617-0.502-1.121-1.121-1.121c-0.619,0-1.121,0.504-1.121,1.121
		c0,0.619,0.502,1.123,1.121,1.123C441.758,721.309,442.26,720.805,442.26,720.186"/>
	<path style="fill:#FFFFFF;" d="M387.984,568.56c0-0.811-0.658-1.467-1.47-1.467c-0.812,0-1.468,0.656-1.468,1.467
		c0,0.811,0.656,1.471,1.468,1.471C387.326,570.03,387.984,569.371,387.984,568.56"/>
	<path style="fill:#FFFFFF;" d="M371.001,862.359c0-0.731-0.595-1.322-1.325-1.322c-0.732,0-1.322,0.592-1.322,1.322
		c0,0.73,0.591,1.322,1.322,1.322C370.407,863.682,371.001,863.09,371.001,862.359"/>
	<path style="fill:#FFFFFF;" d="M416.448,799.943c0-0.617-0.502-1.121-1.121-1.121c-0.619,0-1.121,0.504-1.121,1.121
		c0,0.619,0.502,1.123,1.121,1.123C415.946,801.065,416.448,800.562,416.448,799.943"/>
	<path style="fill:#FFFFFF;" d="M460.055,1221.356c0-1.368-1.111-2.476-2.479-2.476c-1.369,0-2.478,1.108-2.478,2.476
		c0,1.368,1.108,2.477,2.478,2.477C458.943,1223.833,460.055,1222.725,460.055,1221.356"/>
	<path style="fill:#FFFFFF;" d="M720.307,1119.624c0-0.81-0.658-1.467-1.471-1.467c-0.81,0-1.467,0.656-1.467,1.467
		c0,0.812,0.656,1.471,1.467,1.471C719.648,1121.095,720.307,1120.436,720.307,1119.624"/>
	<path style="fill:#FFFFFF;" d="M522.003,2250.968c0-0.689-0.56-1.247-1.246-1.247c-0.688,0-1.248,0.558-1.248,1.247
		c0,0.688,0.56,1.245,1.248,1.245C521.443,2252.213,522.003,2251.655,522.003,2250.968"/>
	<path style="fill:#FFFFFF;" d="M1161.85,1552.154c0-0.467-0.379-0.846-0.846-0.846c-0.469,0-0.846,0.379-0.846,0.846
		c0,0.465,0.377,0.842,0.846,0.842C1161.471,1552.996,1161.85,1552.619,1161.85,1552.154"/>
	<path style="fill:#FFFFFF;" d="M551.865,1574.323c0-0.81-0.658-1.467-1.47-1.467c-0.812,0-1.468,0.656-1.468,1.467
		c0,0.812,0.656,1.471,1.468,1.471C551.207,1575.794,551.865,1575.135,551.865,1574.323"/>
	<path style="fill:#FFFFFF;" d="M649.989,1460.872c0-0.467-0.379-0.846-0.846-0.846c-0.469,0-0.846,0.379-0.846,0.846
		c0,0.465,0.377,0.842,0.846,0.842C649.61,1461.714,649.989,1461.337,649.989,1460.872"/>
	<path style="fill:#FFFFFF;" d="M987.117,1438.431c0-0.467-0.379-0.846-0.846-0.846c-0.469,0-0.846,0.379-0.846,0.846
		c0,0.465,0.377,0.842,0.846,0.842C986.738,1439.273,987.117,1438.896,987.117,1438.431"/>
	<path style="fill:#FFFFFF;" d="M340.212,1293.417c0-0.731-0.595-1.322-1.325-1.322c-0.731,0-1.322,0.592-1.322,1.322
		c0,0.73,0.591,1.322,1.322,1.322C339.618,1294.739,340.212,1294.148,340.212,1293.417"/>
	<path style="fill:#FFFFFF;" d="M70.632,2424.296c0-0.617-0.502-1.121-1.121-1.121c-0.619,0-1.121,0.504-1.121,1.121
		c0,0.619,0.502,1.123,1.121,1.123C70.13,2425.419,70.632,2424.915,70.632,2424.296"/>
	<path style="fill:#FFFFFF;" d="M94.562,2270.466c0-0.811-0.658-1.467-1.47-1.467c-0.811,0-1.468,0.656-1.468,1.467
		c0,0.812,0.656,1.471,1.468,1.471C93.904,2271.937,94.562,2271.277,94.562,2270.466"/>
	<path style="fill:#FFFFFF;" d="M786.031,1562.351c0-0.146-0.113-0.264-0.26-0.264c-0.143,0-0.26,0.117-0.26,0.264
		c0,0.143,0.117,0.26,0.26,0.26C785.918,1562.61,786.031,1562.493,786.031,1562.351"/>
	<path style="fill:#FFFFFF;" d="M502.931,1436.553c0-0.617-0.502-1.121-1.121-1.121c-0.619,0-1.121,0.504-1.121,1.121
		c0,0.619,0.502,1.123,1.121,1.123C502.429,1437.676,502.931,1437.172,502.931,1436.553"/>
	<path style="fill:#FFFFFF;" d="M1130.568,1347.493c0-0.617-0.502-1.121-1.121-1.121s-1.121,0.504-1.121,1.121
		c0,0.619,0.502,1.123,1.121,1.123S1130.568,1348.112,1130.568,1347.493"/>
	<path style="fill:#FFFFFF;" d="M844.336,1446.081c0-1.219-0.986-2.205-2.205-2.205c-1.219,0-2.205,0.986-2.205,2.205
		c0,1.219,0.986,2.205,2.205,2.205C843.35,1448.286,844.336,1447.3,844.336,1446.081"/>
	<path style="fill:#FFFFFF;" d="M1073.455,1430.526c0-0.467-0.379-0.846-0.846-0.846c-0.469,0-0.846,0.379-0.846,0.846
		c0,0.465,0.377,0.842,0.846,0.842C1073.076,1431.368,1073.455,1430.991,1073.455,1430.526"/>
	<path style="fill:#FFFFFF;" d="M806.73,1395.699c0-0.617-0.502-1.121-1.121-1.121c-0.619,0-1.121,0.504-1.121,1.121
		c0,0.619,0.502,1.123,1.121,1.123C806.228,1396.822,806.73,1396.318,806.73,1395.699"/>
	<path style="fill:#FFFFFF;" d="M498.253,1967.448c0-0.617-0.502-1.121-1.121-1.121c-0.619,0-1.121,0.504-1.121,1.121
		c0,0.619,0.502,1.123,1.121,1.123C497.751,1968.572,498.253,1968.068,498.253,1967.448"/>
	<path style="fill:#FFFFFF;" d="M704.769,2032.401c0-0.975-0.787-1.764-1.762-1.764c-0.973,0-1.762,0.788-1.762,1.764
		c0,0.972,0.789,1.76,1.762,1.76C703.982,2034.161,704.769,2033.373,704.769,2032.401"/>
	<path style="fill:#FFFFFF;" d="M1068.539,2026.697c0-0.975-0.787-1.764-1.762-1.764c-0.973,0-1.762,0.788-1.762,1.764
		c0,0.972,0.789,1.76,1.762,1.76C1067.752,2028.457,1068.539,2027.669,1068.539,2026.697"/>
	<path style="fill:#FFFFFF;" d="M364.944,794.517c0-0.976-0.787-1.764-1.762-1.764c-0.973,0-1.762,0.788-1.762,1.764
		c0,0.972,0.789,1.76,1.762,1.76C364.157,796.276,364.944,795.488,364.944,794.517"/>
	<path style="fill:#FFFFFF;" d="M585.161,1044.362c0-0.467-0.379-0.846-0.846-0.846c-0.469,0-0.846,0.379-0.846,0.846
		c0,0.465,0.377,0.842,0.846,0.842C584.782,1045.204,585.161,1044.827,585.161,1044.362"/>
	<path style="fill:#FFFFFF;" d="M823.67,910.778c0-0.467-0.379-0.846-0.846-0.846c-0.469,0-0.846,0.379-0.846,0.846
		c0,0.465,0.377,0.842,0.846,0.842C823.291,911.62,823.67,911.243,823.67,910.778"/>
	<path style="fill:#FFFFFF;" d="M1170.857,675.658c0-0.467-0.379-0.846-0.846-0.846c-0.469,0-0.846,0.379-0.846,0.846
		c0,0.465,0.377,0.842,0.846,0.842C1170.479,676.5,1170.857,676.123,1170.857,675.658"/>
	<path style="fill:#FFFFFF;" d="M527.875,521.47c0-0.146-0.113-0.264-0.26-0.264c-0.143,0-0.26,0.117-0.26,0.264
		c0,0.143,0.117,0.26,0.26,0.26C527.761,521.73,527.875,521.612,527.875,521.47"/>
	<path style="fill:#FFFFFF;" d="M634.497,646.77c0-0.467-0.379-0.846-0.846-0.846c-0.469,0-0.846,0.379-0.846,0.846
		c0,0.465,0.377,0.842,0.846,0.842C634.118,647.611,634.497,647.234,634.497,646.77"/>
	<path style="fill:#FFFFFF;" d="M730.025,505.536c0-0.147-0.113-0.264-0.26-0.264c-0.143,0-0.26,0.117-0.26,0.264
		c0,0.143,0.117,0.26,0.26,0.26C729.912,505.796,730.025,505.679,730.025,505.536"/>
	<path style="fill:#FFFFFF;" d="M364.465,2408.569c0-0.463-0.374-0.839-0.837-0.839c-0.466,0-0.841,0.376-0.841,0.839
		c0,0.465,0.375,0.84,0.841,0.84C364.091,2409.408,364.465,2409.033,364.465,2408.569"/>
	<path style="fill:#FFFFFF;" d="M666.621,3239.139c0-0.463-0.374-0.839-0.837-0.839c-0.466,0-0.841,0.376-0.841,0.839
		c0,0.465,0.375,0.84,0.841,0.84C666.247,3239.979,666.621,3239.604,666.621,3239.139"/>
	<path style="fill:#FFFFFF;" d="M944.441,432.944c0-0.467-0.379-0.846-0.846-0.846c-0.469,0-0.846,0.379-0.846,0.846
		c0,0.465,0.377,0.842,0.846,0.842C944.062,433.786,944.441,433.409,944.441,432.944"/>
	<path style="fill:#FFFFFF;" d="M693.095,225.032c0-0.976-0.787-1.764-1.762-1.764c-0.973,0-1.762,0.788-1.762,1.764
		c0,0.972,0.789,1.76,1.762,1.76C692.308,226.792,693.095,226.004,693.095,225.032"/>
	<path style="fill:#FFFFFF;" d="M1105.844,495.34c0-0.467-0.379-0.846-0.846-0.846c-0.469,0-0.846,0.379-0.846,0.846
		c0,0.465,0.377,0.842,0.846,0.842C1105.465,496.182,1105.844,495.805,1105.844,495.34"/>
	<path style="fill:#FFFFFF;" d="M358.516,512.117c0-0.168-0.139-0.305-0.307-0.305c-0.17,0-0.307,0.137-0.307,0.305
		c0,0.17,0.137,0.306,0.307,0.306C358.377,512.423,358.516,512.287,358.516,512.117"/>
	<path style="fill:#FFFFFF;" d="M62.372,548.906c0-0.811-0.658-1.467-1.47-1.467c-0.812,0-1.468,0.656-1.468,1.467
		c0,0.812,0.656,1.471,1.468,1.471C61.714,550.377,62.372,549.717,62.372,548.906"/>
	<path style="fill:#FFFFFF;" d="M931.111,381.616c0-0.467-0.379-0.846-0.846-0.846c-0.469,0-0.846,0.379-0.846,0.846
		c0,0.465,0.377,0.842,0.846,0.842C930.732,382.458,931.111,382.081,931.111,381.616"/>
	<path style="fill:#FFFFFF;" d="M927.66,457.815c0-0.467-0.379-0.846-0.846-0.846c-0.469,0-0.846,0.379-0.846,0.846
		c0,0.465,0.377,0.842,0.846,0.842C927.281,458.657,927.66,458.28,927.66,457.815"/>
	<path style="fill:#FFFFFF;" d="M269.243,383.068c0-0.617-0.502-1.121-1.121-1.121c-0.619,0-1.121,0.504-1.121,1.121
		c0,0.619,0.502,1.123,1.121,1.123C268.741,384.191,269.243,383.688,269.243,383.068"/>
	<path style="fill:#FFFFFF;" d="M1123.143,354.592c0-0.147-0.113-0.264-0.26-0.264c-0.143,0-0.26,0.117-0.26,0.264
		c0,0.143,0.117,0.26,0.26,0.26C1123.029,354.852,1123.143,354.734,1123.143,354.592"/>
	<path style="fill:#FFFFFF;" d="M872.195,391.436c0-0.81-0.658-1.467-1.47-1.467c-0.812,0-1.468,0.656-1.468,1.467
		c0,0.812,0.656,1.471,1.468,1.471C871.537,392.906,872.195,392.247,872.195,391.436"/>
	<path style="fill:#FFFFFF;" d="M259.107,441.241c0-0.467-0.379-0.846-0.846-0.846c-0.469,0-0.846,0.379-0.846,0.846
		c0,0.465,0.377,0.842,0.846,0.842C258.728,442.083,259.107,441.706,259.107,441.241"/>
	<path style="fill:#FFFFFF;" d="M1106.361,379.463c0-0.146-0.113-0.264-0.26-0.264c-0.143,0-0.26,0.117-0.26,0.264
		c0,0.143,0.117,0.26,0.26,0.26C1106.248,379.723,1106.361,379.606,1106.361,379.463"/>
	<path style="fill:#FFFFFF;" d="M1172.955,454.05c0-0.926-0.75-1.678-1.676-1.678s-1.678,0.752-1.678,1.678
		c0,0.922,0.752,1.676,1.678,1.676S1172.955,454.972,1172.955,454.05"/>
	<path style="fill:#FFFFFF;" d="M815.922,240.922c0-0.617-0.502-1.121-1.121-1.121c-0.619,0-1.121,0.504-1.121,1.121
		c0,0.619,0.502,1.123,1.121,1.123C815.42,242.045,815.922,241.541,815.922,240.922"/>
	<path style="fill:#FFFFFF;" d="M1045.006,679.266c0-0.467-0.379-0.846-0.846-0.846c-0.469,0-0.846,0.379-0.846,0.846
		c0,0.465,0.377,0.842,0.846,0.842C1044.627,680.107,1045.006,679.731,1045.006,679.266"/>
	<path style="fill:#FFFFFF;" d="M839.922,655.522c0-0.147-0.113-0.264-0.26-0.264c-0.143,0-0.26,0.117-0.26,0.264
		c0,0.143,0.117,0.26,0.26,0.26C839.809,655.781,839.922,655.664,839.922,655.522"/>
	<path style="fill:#FFFFFF;" d="M848.746,683.693c0-0.168-0.139-0.305-0.307-0.305c-0.17,0-0.307,0.137-0.307,0.305
		c0,0.17,0.137,0.306,0.307,0.306C848.607,683.999,848.746,683.863,848.746,683.693"/>
	<path style="fill:#FFFFFF;" d="M803.317,641.737c0-0.811-0.658-1.467-1.47-1.467c-0.812,0-1.468,0.656-1.468,1.467
		c0,0.812,0.656,1.471,1.468,1.471C802.659,643.208,803.317,642.549,803.317,641.737"/>
	<path style="fill:#FFFFFF;" d="M651.641,610.292c0-0.811-0.658-1.467-1.47-1.467c-0.812,0-1.468,0.656-1.468,1.467
		c0,0.812,0.656,1.471,1.468,1.471C650.982,611.762,651.641,611.103,651.641,610.292"/>
	<path style="fill:#FFFFFF;" d="M913.035,563.443c0-0.617-0.502-1.121-1.121-1.121c-0.619,0-1.121,0.504-1.121,1.121
		c0,0.619,0.502,1.123,1.121,1.123C912.533,564.565,913.035,564.062,913.035,563.443"/>
	<path style="fill:#FFFFFF;" d="M983.941,528.316c0-0.617-0.502-1.121-1.121-1.121c-0.619,0-1.121,0.504-1.121,1.121
		c0,0.619,0.502,1.123,1.121,1.123C983.439,529.439,983.941,528.936,983.941,528.316"/>
	<path style="fill:#FFFFFF;" d="M799.141,265.793c0-0.617-0.502-1.121-1.121-1.121c-0.619,0-1.121,0.504-1.121,1.121
		c0,0.619,0.502,1.123,1.121,1.123C798.639,266.916,799.141,266.412,799.141,265.793"/>
	<path style="fill:#FFFFFF;" d="M283.995,324.991c0-0.73-0.595-1.322-1.325-1.322c-0.731,0-1.322,0.592-1.322,1.322
		s0.591,1.322,1.322,1.322C283.4,326.314,283.995,325.722,283.995,324.991"/>
	<path style="fill:#FFFFFF;" d="M44.72,456.204c0-0.811-0.658-1.467-1.47-1.467s-1.468,0.656-1.468,1.467
		c0,0.811,0.656,1.471,1.468,1.471S44.72,457.016,44.72,456.204"/>
	<path style="fill:#FFFFFF;" d="M1169.439,1871.552c0-0.467-0.379-0.846-0.846-0.846c-0.469,0-0.846,0.379-0.846,0.846
		c0,0.465,0.377,0.842,0.846,0.842C1169.061,1872.394,1169.439,1872.017,1169.439,1871.552"/>
	<path style="fill:#FFFFFF;" d="M746.807,1559.462c0-0.146-0.113-0.264-0.26-0.264c-0.143,0-0.26,0.117-0.26,0.264
		c0,0.143,0.117,0.26,0.26,0.26C746.693,1559.722,746.807,1559.605,746.807,1559.462"/>
	<path style="fill:#FFFFFF;" d="M416.448,1878.74c0-0.617-0.502-1.121-1.121-1.121c-0.619,0-1.121,0.504-1.121,1.121
		c0,0.619,0.502,1.123,1.121,1.123C415.946,1879.862,416.448,1879.359,416.448,1878.74"/>
	<path style="fill:#FFFFFF;" d="M506.133,1828.378c0-0.617-0.502-1.121-1.121-1.121c-0.619,0-1.121,0.504-1.121,1.121
		c0,0.619,0.502,1.123,1.121,1.123C505.631,1829.501,506.133,1828.997,506.133,1828.378"/>
	<path style="fill:#FFFFFF;" d="M838.185,1775.887c0-0.926-0.75-1.678-1.676-1.678c-0.926,0-1.678,0.752-1.678,1.678
		c0,0.922,0.752,1.676,1.678,1.676C837.435,1777.563,838.185,1776.809,838.185,1775.887"/>
	<path style="fill:#FFFFFF;" d="M301.899,1813.753c0-0.617-0.502-1.121-1.121-1.121c-0.619,0-1.121,0.504-1.121,1.121
		c0,0.619,0.502,1.123,1.121,1.123C301.397,1814.876,301.899,1814.372,301.899,1813.753"/>
	<path style="fill:#FFFFFF;" d="M571.416,1742.063c0-0.467-0.379-0.846-0.846-0.846c-0.469,0-0.846,0.379-0.846,0.846
		c0,0.465,0.377,0.842,0.846,0.842C571.037,1742.905,571.416,1742.528,571.416,1742.063"/>
	<path style="fill:#FFFFFF;" d="M157.166,1636.63c0-0.689-0.56-1.247-1.246-1.247c-0.688,0-1.248,0.558-1.248,1.247
		c0,0.688,0.56,1.245,1.248,1.245C156.606,1637.875,157.166,1637.317,157.166,1636.63"/>
	<path style="fill:#FFFFFF;" d="M871.597,1618.284c0-0.146-0.113-0.264-0.26-0.264c-0.143,0-0.26,0.117-0.26,0.264
		c0,0.143,0.117,0.26,0.26,0.26C871.483,1618.544,871.597,1618.427,871.597,1618.284"/>
	<path style="fill:#FFFFFF;" d="M1105.844,1574.137c0-0.467-0.379-0.846-0.846-0.846c-0.469,0-0.846,0.379-0.846,0.846
		c0,0.465,0.377,0.842,0.846,0.842C1105.465,1574.979,1105.844,1574.602,1105.844,1574.137"/>
	<path style="fill:#FFFFFF;" d="M349.691,1562.742c0-0.147-0.113-0.264-0.26-0.264c-0.142,0-0.26,0.117-0.26,0.264
		c0,0.143,0.117,0.26,0.26,0.26C349.578,1563.002,349.691,1562.885,349.691,1562.742"/>
	<path style="fill:#FFFFFF;" d="M936.34,1682.66c0-0.467-0.379-0.846-0.846-0.846c-0.469,0-0.846,0.379-0.846,0.846
		c0,0.465,0.377,0.842,0.846,0.842C935.961,1683.502,936.34,1683.125,936.34,1682.66"/>
	<path style="fill:#FFFFFF;" d="M1045.006,1758.063c0-0.467-0.379-0.846-0.846-0.846c-0.469,0-0.846,0.379-0.846,0.846
		c0,0.465,0.377,0.842,0.846,0.842C1044.627,1758.905,1045.006,1758.528,1045.006,1758.063"/>
	<path style="fill:#FFFFFF;" d="M1058.854,1693.514c0-0.146-0.113-0.264-0.26-0.264c-0.143,0-0.26,0.117-0.26,0.264
		c0,0.143,0.117,0.26,0.26,0.26C1058.74,1693.774,1058.854,1693.656,1058.854,1693.514"/>
	<path style="fill:#FFFFFF;" d="M1037.557,1686.598c0-0.467-0.379-0.846-0.846-0.846c-0.469,0-0.846,0.379-0.846,0.846
		c0,0.465,0.377,0.842,0.846,0.842C1037.178,1687.44,1037.557,1687.063,1037.557,1686.598"/>
	<path style="fill:#FFFFFF;" d="M651.641,1689.089c0-0.811-0.658-1.467-1.47-1.467c-0.812,0-1.468,0.656-1.468,1.467
		c0,0.811,0.656,1.471,1.468,1.471C650.982,1690.559,651.641,1689.9,651.641,1689.089"/>
	<path style="fill:#FFFFFF;" d="M1042.072,1718.385c0-0.146-0.113-0.264-0.26-0.264c-0.143,0-0.26,0.117-0.26,0.264
		c0,0.143,0.117,0.26,0.26,0.26C1041.959,1718.645,1042.072,1718.528,1042.072,1718.385"/>
	<path style="fill:#FFFFFF;" d="M1067.678,1721.686c0-0.168-0.139-0.305-0.307-0.305c-0.17,0-0.307,0.137-0.307,0.305
		c0,0.17,0.137,0.306,0.307,0.306C1067.539,1721.991,1067.678,1721.856,1067.678,1721.686"/>
	<path style="fill:#FFFFFF;" d="M169.485,321.665c0-0.81-0.658-1.467-1.47-1.467c-0.811,0-1.468,0.656-1.468,1.467
		c0,0.812,0.656,1.471,1.468,1.471C168.827,323.135,169.485,322.476,169.485,321.665"/>
	<path style="fill:#FFFFFF;" d="M55.079,187.848c0-0.617-0.502-1.121-1.121-1.121c-0.619,0-1.121,0.504-1.121,1.121
		c0,0.619,0.502,1.123,1.121,1.123C54.577,188.971,55.079,188.467,55.079,187.848"/>
	<path style="fill:#FFFFFF;" d="M278.065,157.347c0-0.617-0.502-1.121-1.121-1.121c-0.619,0-1.121,0.504-1.121,1.121
		c0,0.619,0.502,1.123,1.121,1.123C277.563,158.47,278.065,157.966,278.065,157.347"/>
	<path style="fill:#FFFFFF;" d="M356.866,374.187c0-0.926-0.75-1.678-1.676-1.678c-0.926,0-1.678,0.752-1.678,1.678
		c0,0.922,0.752,1.676,1.678,1.676C356.116,375.863,356.866,375.109,356.866,374.187"/>
	<path style="fill:#FFFFFF;" d="M274.614,233.546c0-0.617-0.502-1.121-1.121-1.121c-0.619,0-1.121,0.504-1.121,1.121
		c0,0.619,0.502,1.123,1.121,1.123C274.112,234.669,274.614,234.166,274.614,233.546"/>
</g>
<g id="Ebene_1">
</g>
</svg>
