<?xml version="1.0" encoding="iso-8859-1"?>
<!-- Generator: Adobe Illustrator 18.0.0, SVG Export Plug-In . SVG Version: 6.00 Build 0)  -->
<!DOCTYPE svg PUBLIC "-//W3C//DTD SVG 1.1//EN" "http://www.w3.org/Graphics/SVG/1.1/DTD/svg11.dtd">
<svg version="1.1" xmlns="http://www.w3.org/2000/svg" xmlns:xlink="http://www.w3.org/1999/xlink" x="0px" y="0px"
	 viewBox="0 0 1200 1643.104" style="enable-background:new 0 0 1200 1643.104;" xml:space="preserve">
<g id="_x30_1snow_x5F_big2">
	<path style="fill:#FFFFFF;" d="M868.352,718.643c0-2.953-2.396-5.35-5.349-5.35c-2.954,0-5.347,2.396-5.347,5.35
		c0,2.954,2.393,5.347,5.347,5.347C865.956,723.99,868.352,721.598,868.352,718.643"/>
	<path style="fill:#FFFFFF;" d="M129.195,991.019c0-3.113-2.521-5.641-5.638-5.641c-3.113,0-5.635,2.527-5.635,5.641
		c0,3.115,2.521,5.637,5.635,5.637C126.674,996.656,129.195,994.135,129.195,991.019"/>
	<path style="fill:#FFFFFF;" d="M1202.439,530.753c0-2.953-2.395-5.35-5.348-5.35c-2.955,0-5.348,2.396-5.348,5.35
		c0,2.954,2.393,5.347,5.348,5.347C1200.045,536.1,1202.439,533.707,1202.439,530.753"/>
	<path style="fill:#FFFFFF;" d="M98.136,592.038c0-3.113-2.521-5.641-5.638-5.641c-3.113,0-5.635,2.527-5.635,5.641
		c0,3.115,2.521,5.637,5.635,5.637C95.615,597.675,98.136,595.153,98.136,592.038"/>
	<path style="fill:#FFFFFF;" d="M1152.331,228.709c0-2.996-2.424-5.421-5.414-5.421c-2.996,0-5.42,2.425-5.42,5.421
		c0,2.99,2.424,5.416,5.42,5.416C1149.907,234.125,1152.331,231.699,1152.331,228.709"/>
	<path style="fill:#FFFFFF;" d="M834.123,1340.343c0-2.805-2.271-5.075-5.077-5.075c-2.805,0-5.073,2.271-5.073,5.075
		s2.268,5.076,5.073,5.076C831.852,1345.419,834.123,1343.147,834.123,1340.343"/>
	<path style="fill:#FFFFFF;" d="M1039.414,820.33c0-2.996-2.424-5.421-5.414-5.421c-2.996,0-5.42,2.425-5.42,5.421
		c0,2.99,2.424,5.416,5.42,5.416C1036.99,825.746,1039.414,823.32,1039.414,820.33"/>
</g>
<g id="Ebene_1">
</g>
</svg>
