<?xml version="1.0" encoding="iso-8859-1"?>
<!-- Generator: Adobe Illustrator 18.0.0, SVG Export Plug-In . SVG Version: 6.00 Build 0)  -->
<!DOCTYPE svg PUBLIC "-//W3C//DTD SVG 1.1//EN" "http://www.w3.org/Graphics/SVG/1.1/DTD/svg11.dtd">
<svg version="1.1" xmlns="http://www.w3.org/2000/svg" xmlns:xlink="http://www.w3.org/1999/xlink" x="0px" y="0px"
	 viewBox="0 0 1200 3404.104" style="enable-background:new 0 0 1200 3404.104;" xml:space="preserve">
<g id="_x30_2_x5F_snow_x5F_mid3">
	<path style="fill:#FFFFFF;" d="M782.808,2323.432c0-2.468-2-4.471-4.471-4.471c-2.467,0-4.471,2.003-4.471,4.471
		c0,2.47,2.004,4.47,4.471,4.47C780.808,2327.901,782.808,2325.901,782.808,2323.432"/>
	<path style="fill:#FFFFFF;" d="M568.735,3354.633c0-1.833-1.486-3.319-3.318-3.319c-1.834,0-3.32,1.486-3.32,3.319
		s1.486,3.319,3.32,3.319C567.249,3357.952,568.735,3356.466,568.735,3354.633"/>
	<path style="fill:#FFFFFF;" d="M545.837,2761.87c0-2.805-2.272-5.075-5.077-5.075c-2.805,0-5.073,2.271-5.073,5.075
		s2.269,5.076,5.073,5.076C543.565,2766.946,545.837,2764.675,545.837,2761.87"/>
	<path style="fill:#FFFFFF;" d="M276.644,2213.463c0-2.325-1.887-4.214-4.213-4.214c-2.329,0-4.214,1.889-4.214,4.214
		c0,2.328,1.885,4.214,4.214,4.214C274.757,2217.677,276.644,2215.791,276.644,2213.463"/>
	<path style="fill:#FFFFFF;" d="M685.451,1539.208c0-1.976-1.604-3.576-3.578-3.576c-1.975,0-3.576,1.601-3.576,3.576
		c0,1.977,1.602,3.578,3.576,3.578C683.848,1542.786,685.451,1541.186,685.451,1539.208"/>
	<path style="fill:#FFFFFF;" d="M508.043,2358.674c0-1.673-1.355-3.028-3.029-3.028c-1.676,0-3.033,1.355-3.033,3.028
		c0,1.675,1.357,3.03,3.033,3.03C506.688,2361.704,508.043,2360.349,508.043,2358.674"/>
	<path style="fill:#FFFFFF;" d="M418.722,1505.261c0-2.059-1.672-3.73-3.73-3.73c-2.062,0-3.73,1.672-3.73,3.73
		c0,2.062,1.668,3.732,3.73,3.732C417.05,1508.992,418.722,1507.323,418.722,1505.261"/>
	<path style="fill:#FFFFFF;" d="M189.547,1559.35c0-2.16-1.747-3.91-3.909-3.91c-2.161,0-3.908,1.75-3.908,3.91
		c0,2.156,1.747,3.909,3.908,3.909C187.8,1563.259,189.547,1561.506,189.547,1559.35"/>
	<path style="fill:#FFFFFF;" d="M1097,2424.299c0-2.484-2.016-4.498-4.5-4.498c-2.48,0-4.494,2.014-4.494,4.498
		c0,2.48,2.014,4.494,4.494,4.494C1094.984,2428.793,1097,2426.779,1097,2424.299"/>
	<path style="fill:#FFFFFF;" d="M801.849,767.997c0-2.468-2-4.471-4.471-4.471c-2.467,0-4.471,2.003-4.471,4.471
		c0,2.47,2.004,4.47,4.471,4.47C799.849,772.467,801.849,770.467,801.849,767.997"/>
	<path style="fill:#FFFFFF;" d="M282.589,871.022c0-2.059-1.672-3.731-3.73-3.731c-2.062,0-3.73,1.672-3.73,3.731
		c0,2.062,1.668,3.731,3.73,3.731C280.917,874.753,282.589,873.084,282.589,871.022"/>
	<path style="fill:#FFFFFF;" d="M523.388,587.833c0-2.325-1.887-4.214-4.213-4.214c-2.329,0-4.214,1.889-4.214,4.214
		c0,2.328,1.885,4.214,4.214,4.214C521.501,592.047,523.388,590.161,523.388,587.833"/>
	<path style="fill:#FFFFFF;" d="M202.616,538.715c0-2.16-1.747-3.91-3.909-3.91c-2.161,0-3.908,1.75-3.908,3.91
		c0,2.156,1.747,3.909,3.908,3.909C200.869,542.624,202.616,540.871,202.616,538.715"/>
	<path style="fill:#FFFFFF;" d="M1034.372,851.287c0-2.873-2.33-5.204-5.207-5.204c-2.873,0-5.203,2.331-5.203,5.204
		c0,2.876,2.33,5.206,5.203,5.206C1032.042,856.493,1034.372,854.163,1034.372,851.287"/>
	<path style="fill:#FFFFFF;" d="M1014.562,1297.631c0-2.468-2-4.471-4.471-4.471c-2.467,0-4.471,2.003-4.471,4.471
		c0,2.47,2.004,4.47,4.471,4.47C1012.562,1302.101,1014.562,1300.101,1014.562,1297.631"/>
	<path style="fill:#FFFFFF;" d="M590.956,1012.953c0-2.325-1.887-4.214-4.213-4.214c-2.329,0-4.214,1.889-4.214,4.214
		c0,2.328,1.885,4.214,4.214,4.214C589.069,1017.167,590.956,1015.281,590.956,1012.953"/>
	<path style="fill:#FFFFFF;" d="M1015.331,1364.354c0-2.873-2.332-5.204-5.207-5.204c-2.873,0-5.205,2.331-5.205,5.204
		c0,2.876,2.332,5.206,5.205,5.206C1012.999,1369.56,1015.331,1367.23,1015.331,1364.354"/>
	<path style="fill:#FFFFFF;" d="M636.477,920.501c0-2.059-1.672-3.731-3.73-3.731c-2.062,0-3.731,1.672-3.731,3.731
		c0,2.062,1.668,3.731,3.731,3.731C634.805,924.232,636.477,922.564,636.477,920.501"/>
	<path style="fill:#FFFFFF;" d="M267.085,1013.334c0-2.16-1.747-3.91-3.909-3.91c-2.161,0-3.908,1.75-3.908,3.91
		c0,2.156,1.747,3.909,3.908,3.909C265.337,1017.243,267.085,1015.49,267.085,1013.334"/>
	<path style="fill:#FFFFFF;" d="M1028.262,1415.6c0-2.468-2-4.471-4.471-4.471c-2.467,0-4.471,2.003-4.471,4.471
		c0,2.47,2.004,4.47,4.471,4.47C1026.262,1420.069,1028.262,1418.069,1028.262,1415.6"/>
	<path style="fill:#FFFFFF;" d="M667.457,1503.11c0-1.975-1.604-3.576-3.578-3.576c-1.977,0-3.576,1.601-3.576,3.576
		c0,1.978,1.6,3.578,3.576,3.578C665.853,1506.689,667.457,1505.088,667.457,1503.11"/>
	<path style="fill:#FFFFFF;" d="M574.301,1495.803c0-2.059-1.672-3.73-3.73-3.73c-2.062,0-3.731,1.672-3.731,3.73
		c0,2.062,1.668,3.732,3.731,3.732C572.629,1499.534,574.301,1497.865,574.301,1495.803"/>
	<path style="fill:#FFFFFF;" d="M637.44,1128.747c0-2.325-1.887-4.214-4.213-4.214c-2.328,0-4.213,1.889-4.213,4.214
		c0,2.328,1.885,4.214,4.213,4.214C635.554,1132.961,637.44,1131.075,637.44,1128.747"/>
	<path style="fill:#FFFFFF;" d="M911.904,1019.42c0-0.168-0.139-0.305-0.307-0.305c-0.17,0-0.307,0.137-0.307,0.305
		c0,0.17,0.137,0.306,0.307,0.306C911.766,1019.726,911.904,1019.59,911.904,1019.42"/>
	<path style="fill:#FFFFFF;" d="M917.032,987.556c0-2.059-1.672-3.731-3.73-3.731c-2.062,0-3.73,1.672-3.73,3.731
		c0,2.062,1.668,3.731,3.73,3.731C915.36,991.287,917.032,989.618,917.032,987.556"/>
	<path style="fill:#FFFFFF;" d="M360.697,1166.66c0-2.16-1.747-3.91-3.909-3.91c-2.161,0-3.908,1.75-3.908,3.91
		c0,2.156,1.747,3.909,3.908,3.909C358.95,1170.569,360.697,1168.817,360.697,1166.66"/>
	<path style="fill:#FFFFFF;" d="M59.835,1263.416c0-2.468-2-4.471-4.471-4.471c-2.467,0-4.471,2.003-4.471,4.471
		c0,2.47,2.004,4.47,4.471,4.47C57.835,1267.886,59.835,1265.886,59.835,1263.416"/>
	<path style="fill:#FFFFFF;" d="M164.058,2301.343c0-2.341-1.898-4.241-4.241-4.241c-2.341,0-4.238,1.9-4.238,4.241
		s1.898,4.238,4.238,4.238C162.159,2305.581,164.058,2303.684,164.058,2301.343"/>
	<path style="fill:#FFFFFF;" d="M919.432,1571.838c0-1.976-1.604-3.576-3.578-3.576c-1.975,0-3.576,1.601-3.576,3.576
		c0,1.977,1.602,3.578,3.576,3.578C917.828,1575.416,919.432,1573.815,919.432,1571.838"/>
	<path style="fill:#FFFFFF;" d="M807.048,1452.258c0-2.059-1.672-3.731-3.73-3.731c-2.062,0-3.731,1.672-3.731,3.731
		c0,2.062,1.668,3.731,3.731,3.731C805.376,1455.989,807.048,1454.32,807.048,1452.258"/>
	<path style="fill:#FFFFFF;" d="M233.926,1289.43c0-2.059-1.672-3.73-3.73-3.73c-2.062,0-3.73,1.672-3.73,3.73
		c0,2.062,1.668,3.731,3.73,3.731C232.254,1293.161,233.926,1291.492,233.926,1289.43"/>
	<path style="fill:#FFFFFF;" d="M836.801,1195.67c0-2.468-2-4.471-4.471-4.471c-2.467,0-4.471,2.003-4.471,4.471
		c0,2.47,2.004,4.47,4.471,4.47C834.801,1200.14,836.801,1198.14,836.801,1195.67"/>
	<path style="fill:#FFFFFF;" d="M363.804,1351.996c0-2.059-1.672-3.731-3.73-3.731c-2.062,0-3.73,1.672-3.73,3.731
		c0,2.062,1.668,3.731,3.73,3.731C362.132,1355.728,363.804,1354.059,363.804,1351.996"/>
	<path style="fill:#FFFFFF;" d="M291.249,1206.682c0-1.368-1.111-2.476-2.479-2.476c-1.369,0-2.478,1.108-2.478,2.476
		c0,1.368,1.108,2.477,2.478,2.477C290.138,1209.158,291.249,1208.05,291.249,1206.682"/>
	<path style="fill:#FFFFFF;" d="M731.035,1441.629c0-2.325-1.887-4.214-4.213-4.214c-2.33,0-4.215,1.889-4.215,4.214
		c0,2.328,1.885,4.214,4.215,4.214C729.148,1445.843,731.035,1443.957,731.035,1441.629"/>
	<path style="fill:#FFFFFF;" d="M929.551,2001.58c0-2.468-2-4.471-4.471-4.471c-2.467,0-4.471,2.003-4.471,4.471
		c0,2.47,2.004,4.47,4.471,4.47C927.551,2006.05,929.551,2004.05,929.551,2001.58"/>
	<path style="fill:#FFFFFF;" d="M214.232,2118.26c0-2.059-1.672-3.73-3.73-3.73c-2.062,0-3.73,1.672-3.73,3.73
		c0,2.062,1.668,3.731,3.73,3.731C212.561,2121.991,214.232,2120.323,214.232,2118.26"/>
	<path style="fill:#FFFFFF;" d="M233.926,2015.721c0-2.059-1.672-3.73-3.73-3.73c-2.062,0-3.73,1.672-3.73,3.73
		c0,2.062,1.668,3.731,3.73,3.731C232.254,2019.452,233.926,2017.783,233.926,2015.721"/>
	<path style="fill:#FFFFFF;" d="M666.189,2151.296c0-2.325-1.887-4.214-4.213-4.214c-2.328,0-4.213,1.889-4.213,4.214
		c0,2.328,1.885,4.214,4.213,4.214C664.303,2155.51,666.189,2153.624,666.189,2151.296"/>
	<path style="fill:#FFFFFF;" d="M731.035,2167.92c0-2.325-1.887-4.214-4.213-4.214c-2.33,0-4.215,1.889-4.215,4.214
		c0,2.328,1.885,4.214,4.215,4.214C729.148,2172.134,731.035,2170.248,731.035,2167.92"/>
	<path style="fill:#FFFFFF;" d="M466.002,2023.922c0-2.325-1.887-4.214-4.213-4.214c-2.328,0-4.213,1.889-4.213,4.214
		c0,2.328,1.885,4.214,4.213,4.214C464.115,2028.136,466.002,2026.25,466.002,2023.922"/>
	<path style="fill:#FFFFFF;" d="M931.106,933.714c0-2.468-2-4.471-4.471-4.471c-2.467,0-4.471,2.003-4.471,4.471
		c0,2.47,2.004,4.47,4.471,4.47C929.106,938.184,931.106,936.184,931.106,933.714"/>
	<path style="fill:#FFFFFF;" d="M77.427,1079.445c0-2.325-1.887-4.214-4.213-4.214c-2.329,0-4.214,1.889-4.214,4.214
		c0,2.328,1.885,4.214,4.214,4.214C75.54,1083.659,77.427,1081.773,77.427,1079.445"/>
	<path style="fill:#FFFFFF;" d="M536.694,1027.904c0-1.976-1.604-3.576-3.578-3.576c-1.975,0-3.576,1.601-3.576,3.576
		c0,1.977,1.602,3.578,3.576,3.578C535.091,1031.483,536.694,1029.882,536.694,1027.904"/>
	<path style="fill:#FFFFFF;" d="M618.755,833.543c0-1.976-1.604-3.576-3.578-3.576c-1.977,0-3.576,1.601-3.576,3.576
		c0,1.977,1.6,3.578,3.576,3.578C617.151,837.121,618.755,835.521,618.755,833.543"/>
	<path style="fill:#FFFFFF;" d="M371.672,887.05c0-2.059-1.672-3.73-3.731-3.73c-2.062,0-3.73,1.672-3.73,3.73
		c0,2.062,1.668,3.731,3.73,3.731C370,890.781,371.672,889.112,371.672,887.05"/>
	<path style="fill:#FFFFFF;" d="M124.331,908.946c0-1.219-0.986-2.205-2.205-2.205c-1.218,0-2.204,0.986-2.204,2.205
		c0,1.219,0.986,2.205,2.204,2.205C123.345,911.151,124.331,910.165,124.331,908.946"/>
	<path style="fill:#FFFFFF;" d="M15.667,833.544c0-1.219-0.986-2.205-2.205-2.205c-1.218,0-2.204,0.986-2.204,2.205
		s0.986,2.205,2.204,2.205C14.681,835.749,15.667,834.763,15.667,833.544"/>
	<path style="fill:#FFFFFF;" d="M629.445,482.394c0-1.975-1.604-3.576-3.578-3.576s-3.576,1.601-3.576,3.576
		c0,1.978,1.602,3.578,3.576,3.578S629.445,484.371,629.445,482.394"/>
	<path style="fill:#FFFFFF;" d="M86.361,502.356c0-2.16-1.747-3.91-3.909-3.91c-2.161,0-3.908,1.75-3.908,3.91
		c0,2.156,1.747,3.909,3.908,3.909C84.614,506.266,86.361,504.513,86.361,502.356"/>
	<path style="fill:#FFFFFF;" d="M910.864,265.136c0-2.468-2-4.471-4.471-4.471c-2.467,0-4.471,2.003-4.471,4.471
		c0,2.47,2.004,4.47,4.471,4.47C908.864,269.606,910.864,267.606,910.864,265.136"/>
	<path style="fill:#FFFFFF;" d="M480.845,273.706c0-1.975-1.604-3.576-3.578-3.576c-1.976,0-3.576,1.601-3.576,3.576
		c0,1.978,1.601,3.578,3.576,3.578C479.241,277.284,480.845,275.684,480.845,273.706"/>
	<path style="fill:#FFFFFF;" d="M1035.612,28.854c0-2.996-2.424-5.421-5.414-5.421c-2.996,0-5.42,2.425-5.42,5.421
		c0,2.99,2.424,5.416,5.42,5.416C1033.188,34.27,1035.612,31.844,1035.612,28.854"/>
	<path style="fill:#FFFFFF;" d="M710.675,12.627c0-0.926-0.75-1.678-1.676-1.678c-0.926,0-1.678,0.752-1.678,1.678
		c0,0.922,0.752,1.676,1.678,1.676C709.925,14.303,710.675,13.549,710.675,12.627"/>
	<path style="fill:#FFFFFF;" d="M129.632,47.694c0-2.341-1.898-4.241-4.241-4.241c-2.341,0-4.238,1.9-4.238,4.241
		c0,2.341,1.898,4.238,4.238,4.238C127.734,51.933,129.632,50.035,129.632,47.694"/>
	<path style="fill:#FFFFFF;" d="M282.883,12.483c0-2.16-1.747-3.91-3.909-3.91c-2.161,0-3.908,1.75-3.908,3.91
		c0,2.156,1.747,3.909,3.908,3.909C281.136,16.393,282.883,14.64,282.883,12.483"/>
	<path style="fill:#FFFFFF;" d="M788.367,405.715c0-2.325-1.887-4.214-4.213-4.214c-2.328,0-4.213,1.889-4.213,4.214
		c0,2.328,1.885,4.214,4.213,4.214C786.48,409.929,788.367,408.043,788.367,405.715"/>
	<path style="fill:#FFFFFF;" d="M315.132,428.27c0-1.219-0.986-2.205-2.205-2.205c-1.218,0-2.204,0.986-2.204,2.205
		c0,1.219,0.986,2.205,2.204,2.205C314.146,430.475,315.132,429.488,315.132,428.27"/>
	<path style="fill:#FFFFFF;" d="M1177.169,212.616c0-2.325-1.887-4.214-4.213-4.214c-2.33,0-4.215,1.889-4.215,4.214
		c0,2.328,1.885,4.214,4.215,4.214C1175.282,216.83,1177.169,214.944,1177.169,212.616"/>
	<path style="fill:#FFFFFF;" d="M863.426,515.023c0-1.976-1.604-3.576-3.578-3.576c-1.975,0-3.576,1.601-3.576,3.576
		c0,1.978,1.602,3.578,3.576,3.578C861.822,518.602,863.426,517.001,863.426,515.023"/>
	<path style="fill:#FFFFFF;" d="M770.271,507.716c0-2.059-1.672-3.73-3.73-3.73c-2.063,0-3.731,1.672-3.731,3.73
		c0,2.062,1.668,3.732,3.731,3.732C768.6,511.447,770.271,509.778,770.271,507.716"/>
	<path style="fill:#FFFFFF;" d="M380.219,97.256c0-0.976-0.787-1.764-1.762-1.764c-0.973,0-1.762,0.788-1.762,1.764
		c0,0.972,0.789,1.76,1.762,1.76C379.432,99.016,380.219,98.228,380.219,97.256"/>
	<path style="fill:#FFFFFF;" d="M264.064,126.818c0-0.617-0.502-1.121-1.121-1.121c-0.619,0-1.121,0.504-1.121,1.121
		c0,0.619,0.502,1.123,1.121,1.123C263.562,127.941,264.064,127.438,264.064,126.818"/>
	<path style="fill:#FFFFFF;" d="M514.421,91.871c0-2.873-2.332-5.204-5.207-5.204c-2.873,0-5.205,2.331-5.205,5.204
		c0,2.876,2.332,5.206,5.205,5.206C512.089,97.077,514.421,94.747,514.421,91.871"/>
	<path style="fill:#FFFFFF;" d="M780.795,118.856c0-2.468-2-4.471-4.471-4.471c-2.467,0-4.471,2.003-4.471,4.471
		c0,2.47,2.004,4.47,4.471,4.47C778.795,123.325,780.795,121.325,780.795,118.856"/>
	<path style="fill:#FFFFFF;" d="M282.551,708.776c0-1.976-1.604-3.576-3.578-3.576c-1.977,0-3.576,1.601-3.576,3.576
		c0,1.977,1.6,3.578,3.576,3.578C280.948,712.355,282.551,710.754,282.551,708.776"/>
	<path style="fill:#FFFFFF;" d="M235.244,129.867c0-1.368-1.111-2.477-2.48-2.477c-1.369,0-2.478,1.108-2.478,2.477
		c0,1.368,1.108,2.477,2.478,2.477C234.132,132.344,235.244,131.235,235.244,129.867"/>
	<path style="fill:#FFFFFF;" d="M239.345,342.871c0-2.325-1.887-4.214-4.213-4.214c-2.33,0-4.215,1.889-4.215,4.214
		c0,2.328,1.885,4.214,4.215,4.214C237.458,347.085,239.345,345.199,239.345,342.871"/>
	<path style="fill:#FFFFFF;" d="M405.686,1559.199c0-2.468-2-4.471-4.471-4.471c-2.467,0-4.471,2.003-4.471,4.471
		c0,2.47,2.004,4.47,4.471,4.47C403.686,1563.669,405.686,1561.669,405.686,1559.199"/>
	<path style="fill:#FFFFFF;" d="M296.722,1940.936c0-2.16-1.747-3.91-3.909-3.91c-2.161,0-3.908,1.75-3.908,3.91
		c0,2.156,1.747,3.909,3.908,3.909C294.975,1944.845,296.722,1943.092,296.722,1940.936"/>
	<path style="fill:#FFFFFF;" d="M790.337,1930.73c0-2.953-2.394-5.35-5.348-5.35c-2.955,0-5.348,2.396-5.348,5.35
		c0,2.954,2.393,5.347,5.348,5.347C787.942,1936.076,790.337,1933.684,790.337,1930.73"/>
	<path style="fill:#FFFFFF;" d="M744.825,1928.452c0-1.976-1.604-3.576-3.578-3.576s-3.576,1.601-3.576,3.576
		c0,1.978,1.602,3.578,3.576,3.578S744.825,1930.43,744.825,1928.452"/>
	<path style="fill:#FFFFFF;" d="M874.768,1881.836c0-2.468-2-4.471-4.471-4.471c-2.467,0-4.471,2.003-4.471,4.471
		c0,2.47,2.004,4.47,4.471,4.47C872.768,1886.306,874.768,1884.306,874.768,1881.836"/>
	<path style="fill:#FFFFFF;" d="M669.716,1819.347c0-2.468-2-4.471-4.471-4.471c-2.467,0-4.471,2.003-4.471,4.471
		c0,2.47,2.004,4.47,4.471,4.47C667.716,1823.817,669.716,1821.817,669.716,1819.347"/>
	<path style="fill:#FFFFFF;" d="M160.705,1633.32c0-1.368-1.111-2.477-2.479-2.477c-1.369,0-2.478,1.108-2.478,2.477
		c0,1.368,1.108,2.476,2.478,2.476C159.594,1635.796,160.705,1634.688,160.705,1633.32"/>
	<path style="fill:#FFFFFF;" d="M848.604,1633.32c0-2.325-1.887-4.214-4.213-4.214c-2.33,0-4.215,1.889-4.215,4.214
		c0,2.328,1.885,4.214,4.215,4.214C846.718,1637.533,848.604,1635.648,848.604,1633.32"/>
	<path style="fill:#FFFFFF;" d="M770.271,1586.513c0-2.059-1.672-3.731-3.73-3.731c-2.063,0-3.731,1.672-3.731,3.731
		c0,2.062,1.668,3.731,3.731,3.731C768.6,1590.244,770.271,1588.575,770.271,1586.513"/>
	<path style="fill:#FFFFFF;" d="M535.587,1687.44c0-2.325-1.887-4.214-4.213-4.214c-2.33,0-4.215,1.889-4.215,4.214
		c0,2.328,1.885,4.214,4.215,4.214C533.7,1691.653,535.587,1689.768,535.587,1687.44"/>
	<path style="fill:#FFFFFF;" d="M409.996,220.816c0-2.325-1.887-4.214-4.213-4.214c-2.328,0-4.213,1.889-4.213,4.214
		c0,2.328,1.885,4.214,4.213,4.214C408.109,225.03,409.996,223.145,409.996,220.816"/>
	<path style="fill:#FFFFFF;" d="M311.834,61.491c0-2.514-2.037-4.55-4.551-4.55c-2.513,0-4.551,2.036-4.551,4.55
		s2.038,4.551,4.551,4.551C309.797,66.042,311.834,64.005,311.834,61.491"/>
</g>
<g id="Ebene_1">
</g>
</svg>
