<?xml version="1.0" encoding="iso-8859-1"?>
<!-- Generator: Adobe Illustrator 18.0.0, SVG Export Plug-In . SVG Version: 6.00 Build 0)  -->
<!DOCTYPE svg PUBLIC "-//W3C//DTD SVG 1.1//EN" "http://www.w3.org/Graphics/SVG/1.1/DTD/svg11.dtd">
<svg version="1.1" xmlns="http://www.w3.org/2000/svg" xmlns:xlink="http://www.w3.org/1999/xlink" x="0px" y="0px"
	 viewBox="0 0 1200 1760.01" style="enable-background:new 0 0 1200 1760.01;" xml:space="preserve">
<g id="_x30_2snow_x5F_mid4">
	<path style="fill:#FFFFFF;" d="M102.376,1609.393c0-2.341-1.898-4.241-4.241-4.241c-2.341,0-4.238,1.901-4.238,4.241
		c0,2.341,1.897,4.238,4.238,4.238C100.478,1613.632,102.376,1611.734,102.376,1609.393"/>
	<path style="fill:#FFFFFF;" d="M333.16,693.623c0-1.368-1.111-2.477-2.479-2.477c-1.369,0-2.478,1.108-2.478,2.477
		c0,1.368,1.108,2.477,2.478,2.477C332.048,696.1,333.16,694.991,333.16,693.623"/>
	<path style="fill:#FFFFFF;" d="M448.62,498.624c0-2.059-1.672-3.73-3.73-3.73c-2.062,0-3.73,1.672-3.73,3.73
		c0,2.062,1.668,3.731,3.73,3.731C446.948,502.356,448.62,500.687,448.62,498.624"/>
	<path style="fill:#FFFFFF;" d="M979.226,1167.664c0-2.996-2.424-5.421-5.414-5.421c-2.996,0-5.42,2.425-5.42,5.421
		c0,2.99,2.424,5.416,5.42,5.416C976.802,1173.08,979.226,1170.654,979.226,1167.664"/>
	<path style="fill:#FFFFFF;" d="M332.203,1015.143c0-0.69-0.56-1.247-1.246-1.247c-0.688,0-1.248,0.558-1.248,1.247
		c0,0.688,0.56,1.245,1.248,1.245C331.644,1016.388,332.203,1015.83,332.203,1015.143"/>
	<path style="fill:#FFFFFF;" d="M790.337,851.933c0-2.953-2.394-5.35-5.348-5.35c-2.955,0-5.348,2.396-5.348,5.35
		c0,2.954,2.393,5.347,5.348,5.347C787.942,857.279,790.337,854.887,790.337,851.933"/>
	<path style="fill:#FFFFFF;" d="M765.616,979.521c0-0.168-0.139-0.305-0.307-0.305c-0.17,0-0.307,0.137-0.307,0.305
		c0,0.17,0.137,0.306,0.307,0.306C765.477,979.827,765.616,979.691,765.616,979.521"/>
	<path style="fill:#FFFFFF;" d="M873.586,878.272c0-2.468-2-4.471-4.471-4.471c-2.467,0-4.471,2.003-4.471,4.471
		c0,2.47,2.004,4.47,4.471,4.47C871.586,882.742,873.586,880.742,873.586,878.272"/>
	<path style="fill:#FFFFFF;" d="M772.896,1128.746c0-1.976-1.603-3.576-3.578-3.576c-1.975,0-3.576,1.601-3.576,3.576
		c0,1.978,1.602,3.578,3.576,3.578C771.293,1132.324,772.896,1130.724,772.896,1128.746"/>
	<path style="fill:#FFFFFF;" d="M272.721,1319.681c0-3.113-2.522-5.641-5.638-5.641c-3.113,0-5.635,2.527-5.635,5.641
		c0,3.115,2.522,5.637,5.635,5.637C270.199,1325.317,272.721,1322.796,272.721,1319.681"/>
	<path style="fill:#FFFFFF;" d="M826.277,1564.53c0-2.059-1.672-3.73-3.73-3.73c-2.062,0-3.73,1.672-3.73,3.73
		c0,2.062,1.668,3.731,3.73,3.731C824.605,1568.262,826.277,1566.593,826.277,1564.53"/>
	<path style="fill:#FFFFFF;" d="M121.195,989.34c0-2.805-2.271-5.075-5.077-5.075c-2.805,0-5.073,2.271-5.073,5.075
		s2.269,5.076,5.073,5.076C118.923,994.416,121.195,992.144,121.195,989.34"/>
	<path style="fill:#FFFFFF;" d="M752.925,1359.828c0-2.325-1.887-4.214-4.213-4.214c-2.328,0-4.213,1.889-4.213,4.214
		c0,2.328,1.885,4.214,4.213,4.214C751.038,1364.042,752.925,1362.156,752.925,1359.828"/>
	<path style="fill:#FFFFFF;" d="M212.021,1339.745c0-1.219-0.986-2.205-2.205-2.205c-1.218,0-2.204,0.986-2.204,2.205
		s0.986,2.205,2.204,2.205C211.035,1341.95,212.021,1340.964,212.021,1339.745"/>
	<path style="fill:#FFFFFF;" d="M245.137,1476.582c0-2.325-1.887-4.214-4.213-4.214c-2.329,0-4.214,1.889-4.214,4.214
		c0,2.328,1.885,4.214,4.214,4.214C243.25,1480.796,245.137,1478.91,245.137,1476.582"/>
	<path style="fill:#FFFFFF;" d="M507.268,1501.684c0-1.976-1.603-3.576-3.578-3.576c-1.975,0-3.576,1.601-3.576,3.576
		c0,1.978,1.602,3.578,3.576,3.578C505.664,1505.262,507.268,1503.661,507.268,1501.684"/>
	<path style="fill:#FFFFFF;" d="M651.955,1173.354c0-2.468-2-4.471-4.471-4.471c-2.467,0-4.471,2.003-4.471,4.471
		c0,2.47,2.004,4.47,4.471,4.47C649.955,1177.823,651.955,1175.823,651.955,1173.354"/>
	<path style="fill:#FFFFFF;" d="M391.824,1456.16c0-1.975-1.603-3.576-3.578-3.576c-1.977,0-3.576,1.601-3.576,3.576
		c0,1.978,1.6,3.578,3.576,3.578C390.221,1459.738,391.824,1458.138,391.824,1456.16"/>
	<path style="fill:#FFFFFF;" d="M82.452,1128.221c0-2.341-1.898-4.241-4.241-4.241c-2.341,0-4.238,1.9-4.238,4.241
		s1.897,4.238,4.238,4.238C80.554,1132.459,82.452,1130.562,82.452,1128.221"/>
	<path style="fill:#FFFFFF;" d="M1168.594,869.699c0-2.873-2.332-5.204-5.207-5.204c-2.873,0-5.205,2.331-5.205,5.204
		c0,2.876,2.332,5.206,5.205,5.206C1166.262,874.905,1168.594,872.575,1168.594,869.699"/>
	<path style="fill:#FFFFFF;" d="M120.758,1408.885c0-2.805-2.271-5.075-5.077-5.075c-2.805,0-5.073,2.271-5.073,5.075
		c0,2.805,2.269,5.076,5.073,5.076C118.486,1413.961,120.758,1411.689,120.758,1408.885"/>
	<path style="fill:#FFFFFF;" d="M666.189,1425.005c0-2.325-1.887-4.214-4.213-4.214c-2.328,0-4.213,1.889-4.213,4.214
		c0,2.328,1.885,4.214,4.213,4.214C664.303,1429.219,666.189,1427.333,666.189,1425.005"/>
	<path style="fill:#FFFFFF;" d="M648.654,1585.132c0-2.059-1.672-3.73-3.731-3.73c-2.062,0-3.73,1.672-3.73,3.73
		c0,2.062,1.668,3.731,3.73,3.731C646.982,1588.863,648.654,1587.194,648.654,1585.132"/>
	<path style="fill:#FFFFFF;" d="M157.51,1186.488c0-0.976-0.787-1.764-1.762-1.764c-0.973,0-1.762,0.788-1.762,1.764
		c0,0.972,0.789,1.76,1.762,1.76C156.723,1188.248,157.51,1187.46,157.51,1186.488"/>
	<path style="fill:#FFFFFF;" d="M33.838,1302.221c0-1.219-0.986-2.205-2.205-2.205c-1.218,0-2.204,0.986-2.204,2.205
		c0,1.219,0.986,2.205,2.204,2.205C32.852,1304.426,33.838,1303.439,33.838,1302.221"/>
	<path style="fill:#FFFFFF;" d="M540.621,979.031c0-1.976-1.604-3.576-3.578-3.576c-1.976,0-3.576,1.601-3.576,3.576
		c0,1.978,1.601,3.578,3.576,3.578C539.017,982.609,540.621,981.009,540.621,979.031"/>
	<path style="fill:#FFFFFF;" d="M418.261,906.741c0-2.059-1.672-3.73-3.73-3.73c-2.062,0-3.73,1.672-3.73,3.73
		c0,2.062,1.668,3.731,3.73,3.731C416.589,910.473,418.261,908.804,418.261,906.741"/>
	<path style="fill:#FFFFFF;" d="M982.741,721.964c0-2.996-2.424-5.421-5.414-5.421c-2.996,0-5.42,2.425-5.42,5.421
		c0,2.99,2.424,5.416,5.42,5.416C980.317,727.38,982.741,724.954,982.741,721.964"/>
	<path style="fill:#FFFFFF;" d="M782.707,1016.909c0-1.976-1.604-3.576-3.578-3.576c-1.977,0-3.576,1.601-3.576,3.576
		c0,1.977,1.6,3.578,3.576,3.578C781.103,1020.487,782.707,1018.887,782.707,1016.909"/>
	<path style="fill:#FFFFFF;" d="M1145.5,708.82c0-2.996-2.424-5.421-5.414-5.421c-2.996,0-5.42,2.425-5.42,5.421
		c0,2.99,2.424,5.416,5.42,5.416C1143.076,714.236,1145.5,711.81,1145.5,708.82"/>
	<path style="fill:#FFFFFF;" d="M758.179,904.393c0-2.325-1.887-4.214-4.213-4.214c-2.328,0-4.213,1.889-4.213,4.214
		c0,2.328,1.885,4.214,4.213,4.214C756.292,908.606,758.179,906.721,758.179,904.393"/>
	<path style="fill:#FFFFFF;" d="M196.061,943.292c0-2.059-1.672-3.731-3.73-3.731c-2.062,0-3.73,1.672-3.73,3.731
		c0,2.062,1.668,3.731,3.73,3.731C194.39,947.023,196.061,945.354,196.061,943.292"/>
	<path style="fill:#FFFFFF;" d="M274.177,977.36c0-1.976-1.603-3.576-3.578-3.576c-1.976,0-3.576,1.601-3.576,3.576
		c0,1.978,1.601,3.578,3.576,3.578C272.574,980.938,274.177,979.338,274.177,977.36"/>
	<path style="fill:#FFFFFF;" d="M215.755,820.753c0-2.059-1.672-3.73-3.731-3.73c-2.062,0-3.73,1.672-3.73,3.73
		c0,2.062,1.668,3.732,3.73,3.732C214.083,824.484,215.755,822.815,215.755,820.753"/>
	<path style="fill:#FFFFFF;" d="M273.079,738.005c0-1.368-1.111-2.477-2.479-2.477c-1.369,0-2.478,1.108-2.478,2.477
		c0,1.368,1.108,2.477,2.478,2.477C271.967,740.481,273.079,739.373,273.079,738.005"/>
	<path style="fill:#FFFFFF;" d="M701.873,917.579c0-2.325-1.887-4.214-4.213-4.214c-2.328,0-4.213,1.889-4.213,4.214
		c0,2.328,1.885,4.214,4.213,4.214C699.986,921.793,701.873,919.907,701.873,917.579"/>
	<path style="fill:#FFFFFF;" d="M1064.431,1012.688c0-2.873-2.33-5.204-5.207-5.204c-2.873,0-5.203,2.331-5.203,5.204
		c0,2.876,2.33,5.206,5.203,5.206C1062.101,1017.894,1064.431,1015.564,1064.431,1012.688"/>
	<path style="fill:#FFFFFF;" d="M389.648,1215.668c0-2.514-2.037-4.55-4.551-4.55c-2.513,0-4.551,2.036-4.551,4.55
		c0,2.514,2.038,4.551,4.551,4.551C387.611,1220.219,389.648,1218.182,389.648,1215.668"/>
	<path style="fill:#FFFFFF;" d="M46.37,552.579c0-2.341-1.898-4.241-4.241-4.241c-2.341,0-4.238,1.9-4.238,4.241
		c0,2.341,1.898,4.238,4.238,4.238C44.472,556.817,46.37,554.92,46.37,552.579"/>
	<path style="fill:#FFFFFF;" d="M1031.943,945.559c0-2.953-2.395-5.35-5.348-5.35c-2.955,0-5.348,2.396-5.348,5.35
		c0,2.954,2.393,5.347,5.348,5.347C1029.549,950.905,1031.943,948.513,1031.943,945.559"/>
	<path style="fill:#FFFFFF;" d="M414.838,362.515c0-2.059-1.672-3.73-3.73-3.73c-2.062,0-3.73,1.672-3.73,3.73
		c0,2.062,1.668,3.732,3.73,3.732C413.166,366.247,414.838,364.578,414.838,362.515"/>
	<path style="fill:#FFFFFF;" d="M518.295,438.988c0-2.059-1.672-3.73-3.73-3.73c-2.062,0-3.73,1.672-3.73,3.73
		c0,2.062,1.668,3.731,3.73,3.731C516.623,442.72,518.295,441.051,518.295,438.988"/>
	<path style="fill:#FFFFFF;" d="M480.998,235.12c0-2.059-1.672-3.73-3.73-3.73c-2.062,0-3.73,1.672-3.73,3.73
		c0,2.062,1.668,3.731,3.73,3.731C479.326,238.851,480.998,237.182,480.998,235.12"/>
	<path style="fill:#FFFFFF;" d="M1144.277,104.256c0-2.996-2.424-5.421-5.414-5.421c-2.996,0-5.42,2.425-5.42,5.421
		c0,2.99,2.424,5.416,5.42,5.416C1141.854,109.672,1144.277,107.246,1144.277,104.256"/>
	<path style="fill:#FFFFFF;" d="M384.862,13.73c0-0.69-0.56-1.247-1.246-1.247c-0.689,0-1.248,0.558-1.248,1.247
		c0,0.688,0.56,1.245,1.248,1.245C384.302,14.976,384.862,14.418,384.862,13.73"/>
	<path style="fill:#FFFFFF;" d="M1040.985,231.601c0-2.325-1.887-4.214-4.213-4.214c-2.328,0-4.213,1.889-4.213,4.214
		c0,2.328,1.885,4.214,4.213,4.214C1039.099,235.814,1040.985,233.929,1040.985,231.601"/>
	<path style="fill:#FFFFFF;" d="M848.604,554.522c0-2.325-1.887-4.214-4.213-4.214c-2.33,0-4.215,1.889-4.215,4.214
		c0,2.328,1.885,4.214,4.215,4.214C846.718,558.736,848.604,556.851,848.604,554.522"/>
	<path style="fill:#FFFFFF;" d="M565.754,216.347c0-2.468-2-4.471-4.471-4.471c-2.467,0-4.471,2.003-4.471,4.471
		c0,2.47,2.004,4.47,4.471,4.47C563.754,220.816,565.754,218.816,565.754,216.347"/>
	<path style="fill:#FFFFFF;" d="M156.015,262.931c0-1.219-0.986-2.205-2.205-2.205c-1.218,0-2.204,0.986-2.204,2.205
		c0,1.219,0.986,2.205,2.204,2.205C155.029,265.136,156.015,264.149,156.015,262.931"/>
	<path style="fill:#FFFFFF;" d="M631.881,132.412c0-2.468-2-4.471-4.471-4.471c-2.467,0-4.471,2.003-4.471,4.471
		c0,2.47,2.004,4.47,4.471,4.47C629.881,136.882,631.881,134.882,631.881,132.412"/>
	<path style="fill:#FFFFFF;" d="M324.602,333.369c0-1.976-1.603-3.576-3.578-3.576c-1.976,0-3.576,1.601-3.576,3.576
		c0,1.978,1.601,3.578,3.576,3.578C322.999,336.947,324.602,335.347,324.602,333.369"/>
	<path style="fill:#FFFFFF;" d="M177.92,212.615c0-2.059-1.672-3.73-3.73-3.73c-2.062,0-3.73,1.672-3.73,3.73
		c0,2.062,1.668,3.732,3.73,3.732C176.248,216.347,177.92,214.678,177.92,212.615"/>
	<path style="fill:#FFFFFF;" d="M55.365,813.723c0-2.059-1.672-3.73-3.73-3.73c-2.062,0-3.73,1.672-3.73,3.73
		c0,2.062,1.668,3.732,3.73,3.732C53.693,817.454,55.365,815.785,55.365,813.723"/>
	<path style="fill:#FFFFFF;" d="M310.7,135.134c0-0.976-0.787-1.764-1.762-1.764c-0.973,0-1.762,0.788-1.762,1.764
		c0,0.972,0.789,1.76,1.762,1.76C309.913,136.893,310.7,136.105,310.7,135.134"/>
	<path style="fill:#FFFFFF;" d="M60.942,320.198c0-1.219-0.986-2.205-2.205-2.205c-1.218,0-2.204,0.986-2.204,2.205
		c0,1.219,0.986,2.205,2.204,2.205C59.956,322.403,60.942,321.416,60.942,320.198"/>
	<path style="fill:#FFFFFF;" d="M605.369,550.309c0-2.325-1.887-4.214-4.213-4.214c-2.33,0-4.215,1.889-4.215,4.214
		c0,2.328,1.885,4.214,4.215,4.214C603.482,554.522,605.369,552.637,605.369,550.309"/>
	<path style="fill:#FFFFFF;" d="M523.388,1666.63c0-2.325-1.887-4.214-4.213-4.214c-2.329,0-4.214,1.889-4.214,4.214
		c0,2.328,1.885,4.214,4.214,4.214C521.501,1670.844,523.388,1668.958,523.388,1666.63"/>
	<path style="fill:#FFFFFF;" d="M605.369,1629.106c0-2.325-1.887-4.214-4.213-4.214c-2.33,0-4.215,1.889-4.215,4.214
		c0,2.328,1.885,4.214,4.215,4.214C603.482,1633.319,605.369,1631.434,605.369,1629.106"/>
	<path style="fill:#FFFFFF;" d="M202.036,59.731c0-0.976-0.787-1.764-1.762-1.764c-0.973,0-1.762,0.788-1.762,1.764
		c0,0.972,0.789,1.76,1.762,1.76C201.248,61.491,202.036,60.703,202.036,59.731"/>
	<path style="fill:#FFFFFF;" d="M155.477,169.488c0-2.805-2.271-5.075-5.077-5.075c-2.805,0-5.073,2.27-5.073,5.075
		s2.268,5.076,5.073,5.076C153.205,174.564,155.477,172.293,155.477,169.488"/>
</g>
<g id="Ebene_1">
</g>
</svg>
