<?xml version="1.0" encoding="iso-8859-1"?>
<!-- Generator: Adobe Illustrator 18.0.0, SVG Export Plug-In . SVG Version: 6.00 Build 0)  -->
<!DOCTYPE svg PUBLIC "-//W3C//DTD SVG 1.1//EN" "http://www.w3.org/Graphics/SVG/1.1/DTD/svg11.dtd">
<svg version="1.1" xmlns="http://www.w3.org/2000/svg" xmlns:xlink="http://www.w3.org/1999/xlink" x="0px" y="0px"
	 viewBox="0 0 1200 1760.01" style="enable-background:new 0 0 1200 1760.01;" xml:space="preserve">
<g id="_x30_2snow_x5F_big3">
	<path style="fill:#FFFFFF;" d="M1060.291,310.995c0-2.953-2.395-5.35-5.348-5.35c-2.955,0-5.348,2.396-5.348,5.35
		c0,2.954,2.393,5.347,5.348,5.347C1057.896,316.341,1060.291,313.949,1060.291,310.995"/>
	<path style="fill:#FFFFFF;" d="M3.546,1097.056c0-3.113-2.521-5.641-5.638-5.641c-3.113,0-5.635,2.527-5.635,5.641
		c0,3.115,2.521,5.637,5.635,5.637C1.025,1102.692,3.546,1100.171,3.546,1097.056"/>
	<path style="fill:#FFFFFF;" d="M1133.948,974.81c0-2.873-2.33-5.204-5.207-5.204c-2.873,0-5.203,2.331-5.203,5.204
		c0,2.876,2.33,5.206,5.203,5.206C1131.618,980.017,1133.948,977.686,1133.948,974.81"/>
	<path style="fill:#FFFFFF;" d="M917.12,592.046c0-2.873-2.332-5.204-5.207-5.204c-2.873,0-5.205,2.331-5.205,5.204
		c0,2.876,2.332,5.206,5.205,5.206C914.788,597.252,917.12,594.922,917.12,592.046"/>
	<path style="fill:#FFFFFF;" d="M871.394,454.74c0-2.996-2.424-5.421-5.414-5.421c-2.996,0-5.42,2.425-5.42,5.421
		c0,2.99,2.424,5.416,5.42,5.416C868.97,460.156,871.394,457.73,871.394,454.74"/>
	<path style="fill:#FFFFFF;" d="M416.296,548.909c0-2.953-2.395-5.35-5.348-5.35c-2.955,0-5.348,2.396-5.348,5.35
		c0,2.954,2.393,5.347,5.348,5.347C413.901,554.256,416.296,551.863,416.296,548.909"/>
	<path style="fill:#FFFFFF;" d="M646.679,602.289c-0.038-2.953-2.463-5.318-5.416-5.28c-2.955,0.038-5.316,2.465-5.278,5.418
		c0.037,2.954,2.461,5.315,5.415,5.277C644.352,607.666,646.716,605.243,646.679,602.289"/>
	<path style="fill:#FFFFFF;" d="M201.44,266.849c-0.038-2.953-2.463-5.318-5.416-5.28c-2.955,0.037-5.316,2.465-5.278,5.418
		c0.037,2.954,2.461,5.315,5.415,5.277C199.114,272.226,201.477,269.803,201.44,266.849"/>
	<path style="fill:#FFFFFF;" d="M788.758,265.135c0-2.873-2.33-5.204-5.207-5.204c-2.873,0-5.203,2.331-5.203,5.204
		c0,2.876,2.33,5.206,5.203,5.206C786.428,270.341,788.758,268.011,788.758,265.135"/>
	<path style="fill:#FFFFFF;" d="M130.127,725.827c0-3.113-2.521-5.641-5.638-5.641c-3.113,0-5.635,2.527-5.635,5.641
		c0,3.115,2.521,5.637,5.635,5.637C127.605,731.464,130.127,728.942,130.127,725.827"/>
	<path style="fill:#FFFFFF;" d="M226.575,648.49c0-2.805-2.271-5.075-5.077-5.075c-2.805,0-5.073,2.271-5.073,5.075
		s2.269,5.076,5.073,5.076C224.304,653.566,226.575,651.295,226.575,648.49"/>
	<path style="fill:#FFFFFF;" d="M1002.803,1564.6c0-2.996-2.424-5.421-5.414-5.421c-2.996,0-5.42,2.425-5.42,5.421
		c0,2.99,2.424,5.417,5.42,5.417C1000.379,1570.016,1002.803,1567.59,1002.803,1564.6"/>
	<path style="fill:#FFFFFF;" d="M226.575,1727.287c0-2.805-2.271-5.075-5.077-5.075c-2.805,0-5.073,2.27-5.073,5.075
		c0,2.805,2.269,5.076,5.073,5.076C224.304,1732.363,226.575,1730.092,226.575,1727.287"/>
</g>
<g id="Ebene_1">
</g>
</svg>
