<?xml version="1.0" encoding="iso-8859-1"?>
<!-- Generator: Adobe Illustrator 18.0.0, SVG Export Plug-In . SVG Version: 6.00 Build 0)  -->
<!DOCTYPE svg PUBLIC "-//W3C//DTD SVG 1.1//EN" "http://www.w3.org/Graphics/SVG/1.1/DTD/svg11.dtd">
<svg version="1.1" xmlns="http://www.w3.org/2000/svg" xmlns:xlink="http://www.w3.org/1999/xlink" x="0px" y="0px"
	 viewBox="0 0 1200 3404.104" style="enable-background:new 0 0 1200 3404.104;" xml:space="preserve">
<g id="_x30_3_x5F_snow_x5F_big3">
	<path style="fill:#FFFFFF;" d="M17,2370.363c0-3.113-2.521-5.641-5.638-5.641c-3.113,0-5.635,2.527-5.635,5.641
		c0,3.115,2.521,5.637,5.635,5.637C14.479,2376,17,2373.479,17,2370.363"/>
	<path style="fill:#FFFFFF;" d="M915.023,2302.178c0-2.953-2.394-5.35-5.348-5.35c-2.955,0-5.348,2.396-5.348,5.35
		c0,2.954,2.393,5.347,5.348,5.347C912.629,2307.524,915.023,2305.132,915.023,2302.178"/>
	<path style="fill:#FFFFFF;" d="M1060.291,310.995c0-2.953-2.395-5.35-5.348-5.35c-2.955,0-5.348,2.397-5.348,5.35
		c0,2.954,2.393,5.347,5.348,5.347C1057.896,316.341,1060.291,313.949,1060.291,310.995"/>
	<path style="fill:#FFFFFF;" d="M705.938,2384.628c0-2.805-2.271-5.075-5.077-5.075c-2.805,0-5.073,2.271-5.073,5.075
		s2.268,5.076,5.073,5.076C703.667,2389.704,705.938,2387.433,705.938,2384.628"/>
	<path style="fill:#FFFFFF;" d="M3.546,1097.056c0-3.113-2.521-5.641-5.638-5.641c-3.113,0-5.635,2.527-5.635,5.641
		c0,3.115,2.521,5.637,5.635,5.637C1.025,1102.693,3.546,1100.171,3.546,1097.056"/>
	<path style="fill:#FFFFFF;" d="M29,2144.252c0-3.113-2.521-5.641-5.638-5.641c-3.113,0-5.635,2.527-5.635,5.641
		c0,3.115,2.521,5.637,5.635,5.637C26.479,2149.889,29,2147.367,29,2144.252"/>
	<path style="fill:#FFFFFF;" d="M1133.948,974.811c0-2.873-2.33-5.204-5.207-5.204c-2.873,0-5.203,2.331-5.203,5.204
		c0,2.876,2.33,5.206,5.203,5.206C1131.618,980.017,1133.948,977.687,1133.948,974.811"/>
	<path style="fill:#FFFFFF;" d="M917.12,592.046c0-2.873-2.332-5.204-5.207-5.204c-2.873,0-5.205,2.331-5.205,5.204
		c0,2.876,2.332,5.206,5.205,5.206C914.788,597.252,917.12,594.922,917.12,592.046"/>
	<path style="fill:#FFFFFF;" d="M871.394,454.74c0-2.996-2.424-5.421-5.414-5.421c-2.996,0-5.42,2.425-5.42,5.421
		c0,2.99,2.424,5.416,5.42,5.416C868.97,460.156,871.394,457.73,871.394,454.74"/>
	<path style="fill:#FFFFFF;" d="M416.296,548.909c0-2.953-2.395-5.35-5.348-5.35c-2.955,0-5.348,2.396-5.348,5.35
		c0,2.954,2.393,5.347,5.348,5.347C413.901,554.256,416.296,551.863,416.296,548.909"/>
	<path style="fill:#FFFFFF;" d="M646.679,602.289c-0.038-2.953-2.463-5.318-5.416-5.28c-2.955,0.038-5.316,2.465-5.278,5.418
		c0.037,2.954,2.461,5.316,5.415,5.277C644.352,607.666,646.716,605.243,646.679,602.289"/>
	<path style="fill:#FFFFFF;" d="M201.44,266.849c-0.038-2.953-2.463-5.318-5.416-5.28c-2.955,0.038-5.316,2.465-5.278,5.418
		c0.037,2.954,2.461,5.315,5.415,5.277C199.114,272.226,201.477,269.803,201.44,266.849"/>
	<path style="fill:#FFFFFF;" d="M788.758,265.135c0-2.873-2.33-5.204-5.207-5.204c-2.873,0-5.203,2.331-5.203,5.204
		c0,2.876,2.33,5.206,5.203,5.206C786.428,270.341,788.758,268.011,788.758,265.135"/>
	<path style="fill:#FFFFFF;" d="M810.814,2575.908c0-2.873-2.331-5.204-5.207-5.204c-2.873,0-5.204,2.331-5.204,5.204
		c0,2.876,2.331,5.206,5.204,5.206C808.483,2581.115,810.814,2578.784,810.814,2575.908"/>
	<path style="fill:#FFFFFF;" d="M130.127,725.827c0-3.113-2.521-5.641-5.638-5.641c-3.113,0-5.635,2.527-5.635,5.641
		c0,3.115,2.521,5.637,5.635,5.637C127.605,731.464,130.127,728.943,130.127,725.827"/>
	<path style="fill:#FFFFFF;" d="M863.112,2215.338c0-2.325-1.887-4.214-4.213-4.214c-2.33,0-4.215,1.889-4.215,4.214
		c0,2.328,1.885,4.214,4.215,4.214C861.226,2219.552,863.112,2217.666,863.112,2215.338"/>
	<path style="fill:#FFFFFF;" d="M955.262,2187.63c0-2.953-2.394-5.35-5.348-5.35c-2.955,0-5.348,2.397-5.348,5.35
		c0,2.954,2.393,5.347,5.348,5.347C952.867,2192.977,955.262,2190.584,955.262,2187.63"/>
	<path style="fill:#FFFFFF;" d="M226.575,648.49c0-2.805-2.271-5.075-5.077-5.075c-2.805,0-5.073,2.271-5.073,5.075
		s2.269,5.076,5.073,5.076C224.304,653.566,226.575,651.295,226.575,648.49"/>
	<path style="fill:#FFFFFF;" d="M1002.803,1564.6c0-2.996-2.424-5.421-5.414-5.421c-2.996,0-5.42,2.425-5.42,5.421
		c0,2.99,2.424,5.417,5.42,5.417C1000.379,1570.016,1002.803,1567.59,1002.803,1564.6"/>
	<path style="fill:#FFFFFF;" d="M708.355,1782.157c0-2.953-2.395-5.35-5.348-5.35c-2.955,0-5.348,2.396-5.348,5.35
		c0,2.954,2.393,5.347,5.348,5.347C705.961,1787.504,708.355,1785.111,708.355,1782.157"/>
	<path style="fill:#FFFFFF;" d="M130.127,1804.624c0-3.113-2.521-5.641-5.638-5.641c-3.113,0-5.635,2.527-5.635,5.641
		c0,3.115,2.521,5.637,5.635,5.637C127.605,1810.261,130.127,1807.74,130.127,1804.624"/>
	<path style="fill:#FFFFFF;" d="M226.575,1727.287c0-2.805-2.271-5.075-5.077-5.075c-2.805,0-5.073,2.271-5.073,5.075
		c0,2.805,2.269,5.076,5.073,5.076C224.304,1732.364,226.575,1730.092,226.575,1727.287"/>
	<path style="fill:#FFFFFF;" d="M835.751,2776.369c0-2.468-2-4.471-4.471-4.471c-2.467,0-4.471,2.003-4.471,4.471
		c0,2.47,2.004,4.47,4.471,4.47C833.751,2780.839,835.751,2778.839,835.751,2776.369"/>
</g>
<g id="Ebene_1">
</g>
</svg>
