<?xml version="1.0" encoding="iso-8859-1"?>
<!-- Generator: Adobe Illustrator 18.0.0, SVG Export Plug-In . SVG Version: 6.00 Build 0)  -->
<!DOCTYPE svg PUBLIC "-//W3C//DTD SVG 1.1//EN" "http://www.w3.org/Graphics/SVG/1.1/DTD/svg11.dtd">
<svg version="1.1" xmlns="http://www.w3.org/2000/svg" xmlns:xlink="http://www.w3.org/1999/xlink" x="0px" y="0px"
	 viewBox="0 0 1200 3404.104" style="enable-background:new 0 0 1200 3404.104;" xml:space="preserve">
<g id="_x30_3_x5F_snow_x5F_big2">
	<path style="fill:#FFFFFF;" d="M868.352,2479.644c0-2.953-2.396-5.35-5.349-5.35c-2.954,0-5.347,2.396-5.347,5.35
		c0,2.954,2.393,5.347,5.347,5.347C865.956,2484.99,868.352,2482.598,868.352,2479.644"/>
	<path style="fill:#FFFFFF;" d="M129.195,2752.02c0-3.113-2.521-5.641-5.638-5.641c-3.113,0-5.635,2.527-5.635,5.641
		c0,3.115,2.521,5.637,5.635,5.637C126.674,2757.656,129.195,2755.135,129.195,2752.02"/>
	<path style="fill:#FFFFFF;" d="M1202.439,2291.753c0-2.953-2.395-5.35-5.348-5.35c-2.955,0-5.348,2.396-5.348,5.35
		c0,2.954,2.393,5.347,5.348,5.347C1200.045,2297.1,1202.439,2294.707,1202.439,2291.753"/>
	<path style="fill:#FFFFFF;" d="M98.136,2353.038c0-3.113-2.521-5.641-5.638-5.641c-3.113,0-5.635,2.527-5.635,5.641
		c0,3.115,2.521,5.637,5.635,5.637C95.615,2358.675,98.136,2356.153,98.136,2353.038"/>
	<path style="fill:#FFFFFF;" d="M1002.803,485.803c0-2.996-2.424-5.421-5.414-5.421c-2.996,0-5.42,2.425-5.42,5.421
		c0,2.99,2.424,5.416,5.42,5.416C1000.379,491.219,1002.803,488.793,1002.803,485.803"/>
	<path style="fill:#FFFFFF;" d="M1152.331,1989.709c0-2.996-2.424-5.421-5.414-5.421c-2.996,0-5.42,2.425-5.42,5.421
		c0,2.99,2.424,5.416,5.42,5.416C1149.907,1995.125,1152.331,1992.699,1152.331,1989.709"/>
	<path style="fill:#FFFFFF;" d="M10.829,969.284c0-3.113-2.521-5.641-5.638-5.641c-3.113,0-5.635,2.527-5.635,5.641
		c0,3.115,2.521,5.637,5.635,5.637C8.308,974.921,10.829,972.399,10.829,969.284"/>
	<path style="fill:#FFFFFF;" d="M913.16,504.138c0-2.873-2.332-5.204-5.207-5.204c-2.873,0-5.205,2.331-5.205,5.204
		c0,2.876,2.332,5.206,5.205,5.206C910.828,509.344,913.16,507.014,913.16,504.138"/>
	<path style="fill:#FFFFFF;" d="M1182.375,528.316c0-2.873-2.332-5.204-5.207-5.204c-2.873,0-5.205,2.331-5.205,5.204
		c0,2.876,2.332,5.206,5.205,5.206C1180.043,533.523,1182.375,531.193,1182.375,528.316"/>
	<path style="fill:#FFFFFF;" d="M1105.309,794.741c0-2.996-2.424-5.421-5.414-5.421c-2.996,0-5.42,2.425-5.42,5.421
		c0,2.99,2.424,5.416,5.42,5.416C1102.885,800.157,1105.309,797.732,1105.309,794.741"/>
	<path style="fill:#FFFFFF;" d="M339.531,635.903c0-2.514-2.037-4.55-4.551-4.55c-2.513,0-4.551,2.036-4.551,4.55
		c0,2.514,2.038,4.551,4.551,4.551C337.494,640.454,339.531,638.417,339.531,635.903"/>
	<path style="fill:#FFFFFF;" d="M1014.562,409.929c0-2.468-2-4.471-4.471-4.471c-2.467,0-4.471,2.003-4.471,4.471
		c0,2.47,2.004,4.47,4.471,4.47C1012.562,414.399,1014.562,412.399,1014.562,409.929"/>
	<path style="fill:#FFFFFF;" d="M1165.301,363.353c0-2.468-2-4.471-4.471-4.471c-2.467,0-4.471,2.003-4.471,4.471
		c0,2.47,2.004,4.47,4.471,4.47C1163.301,367.822,1165.301,365.822,1165.301,363.353"/>
	<path style="fill:#FFFFFF;" d="M196.093,329.151c0-3.113-2.521-5.641-5.638-5.641c-3.113,0-5.635,2.527-5.635,5.641
		c0,3.115,2.521,5.637,5.635,5.637C193.571,334.788,196.093,332.267,196.093,329.151"/>
	<path style="fill:#FFFFFF;" d="M1027.328,581.687c0-2.953-2.395-5.35-5.348-5.35c-2.955,0-5.348,2.397-5.348,5.35
		c0,2.954,2.393,5.347,5.348,5.347C1024.934,587.034,1027.328,584.641,1027.328,581.687"/>
	<path style="fill:#FFFFFF;" d="M1202.297,302.195c0-2.873-2.33-5.204-5.207-5.204c-2.873,0-5.203,2.331-5.203,5.204
		c0,2.876,2.33,5.206,5.203,5.206C1199.967,307.401,1202.297,305.071,1202.297,302.195"/>
	<path style="fill:#FFFFFF;" d="M783.694,302.129c-0.038-2.953-2.463-5.318-5.416-5.28c-2.955,0.038-5.316,2.465-5.278,5.418
		c0.037,2.954,2.461,5.315,5.415,5.277C781.368,307.506,783.731,305.083,783.694,302.129"/>
	<path style="fill:#FFFFFF;" d="M783.553,203.226c0-2.873-2.33-5.204-5.207-5.204c-2.873,0-5.203,2.331-5.203,5.204
		c0,2.876,2.33,5.206,5.203,5.206C781.223,208.432,783.553,206.102,783.553,203.226"/>
	<path style="fill:#FFFFFF;" d="M834.123,3101.343c0-2.805-2.271-5.075-5.077-5.075c-2.805,0-5.073,2.271-5.073,5.075
		s2.268,5.076,5.073,5.076C831.852,3106.419,834.123,3104.147,834.123,3101.343"/>
	<path style="fill:#FFFFFF;" d="M1039.414,2581.33c0-2.996-2.424-5.421-5.414-5.421c-2.996,0-5.42,2.425-5.42,5.421
		c0,2.99,2.424,5.416,5.42,5.416C1036.99,2586.746,1039.414,2584.32,1039.414,2581.33"/>
	<path style="fill:#FFFFFF;" d="M1182.375,1607.114c0-2.873-2.332-5.204-5.207-5.204c-2.873,0-5.205,2.331-5.205,5.204
		c0,2.876,2.332,5.206,5.205,5.206C1180.043,1612.32,1182.375,1609.99,1182.375,1607.114"/>
	<path style="fill:#FFFFFF;" d="M760.224,338.885c0-2.873-2.332-5.204-5.207-5.204c-2.873,0-5.205,2.331-5.205,5.204
		c0,2.876,2.332,5.206,5.205,5.206C757.892,344.091,760.224,341.761,760.224,338.885"/>
	<path style="fill:#FFFFFF;" d="M940.461,354.851c0-2.873-2.332-5.204-5.207-5.204c-2.873,0-5.205,2.331-5.205,5.204
		c0,2.876,2.332,5.206,5.205,5.206C938.129,360.057,940.461,357.727,940.461,354.851"/>
</g>
<g id="Ebene_1">
</g>
</svg>
