<?xml version="1.0" encoding="iso-8859-1"?>
<!-- Generator: Adobe Illustrator 18.0.0, SVG Export Plug-In . SVG Version: 6.00 Build 0)  -->
<!DOCTYPE svg PUBLIC "-//W3C//DTD SVG 1.1//EN" "http://www.w3.org/Graphics/SVG/1.1/DTD/svg11.dtd">
<svg version="1.1" xmlns="http://www.w3.org/2000/svg" xmlns:xlink="http://www.w3.org/1999/xlink" x="0px" y="0px"
	 viewBox="0 0 1200 1643.104" style="enable-background:new 0 0 1200 1643.104;" xml:space="preserve">
<g id="f12">
	<path style="fill:#FFFFFF;" d="M338.901,826.852c0-2.356-1.91-4.268-4.267-4.268c-2.353,0-4.263,1.911-4.263,4.268
		c0,2.352,1.91,4.263,4.263,4.263C336.991,831.115,338.901,829.204,338.901,826.852"/>
	<path style="fill:#FFFFFF;" d="M326.702,845.634c0-0.807-0.652-1.459-1.458-1.459c-0.807,0-1.458,0.652-1.458,1.459
		c0,0.806,0.651,1.457,1.458,1.457C326.05,847.091,326.702,846.439,326.702,845.634"/>
	<path style="fill:#FFFFFF;" d="M349.139,845.634c0-2.824-2.286-5.113-5.109-5.113c-2.823,0-5.112,2.289-5.112,5.113
		c0,2.823,2.289,5.113,5.112,5.113C346.852,850.747,349.139,848.457,349.139,845.634"/>
	<path style="fill:#FFFFFF;" d="M308.748,855.024c0-1.263-1.022-2.287-2.286-2.287c-1.263,0-2.289,1.024-2.289,2.287
		s1.026,2.289,2.289,2.289C307.726,857.313,308.748,856.287,308.748,855.024"/>
	<path style="fill:#FFFFFF;" d="M415.261,836.243c0-2.732-2.213-4.948-4.943-4.948c-2.732,0-4.947,2.216-4.947,4.948
		c0,2.73,2.216,4.943,4.947,4.943C413.048,841.186,415.261,838.974,415.261,836.243"/>
	<path style="fill:#FFFFFF;" d="M394.179,855.024c0-1.461-1.185-2.643-2.646-2.643c-1.458,0-2.643,1.182-2.643,2.643
		s1.185,2.643,2.643,2.643C392.993,857.667,394.179,856.485,394.179,855.024"/>
	<path style="fill:#FFFFFF;" d="M496.583,826.852c0-1.68-1.358-3.037-3.037-3.037c-1.675,0-3.037,1.357-3.037,3.037
		c0,1.675,1.362,3.033,3.037,3.033C495.225,829.886,496.583,828.527,496.583,826.852"/>
	<path style="fill:#FFFFFF;" d="M506.157,855.024c0-1.778-1.439-3.221-3.221-3.221c-1.777,0-3.222,1.442-3.222,3.221
		c0,1.777,1.444,3.221,3.222,3.221C504.718,858.245,506.157,856.802,506.157,855.024"/>
	<path style="fill:#FFFFFF;" d="M514.058,855.024c0-0.953-0.773-1.727-1.731-1.727c-0.953,0-1.725,0.774-1.725,1.727
		c0,0.953,0.772,1.727,1.725,1.727C513.284,856.751,514.058,855.977,514.058,855.024"/>
	<path style="fill:#FFFFFF;" d="M832.161,826.852c0-1.789-1.449-3.24-3.237-3.24c-1.789,0-3.24,1.451-3.24,3.24
		c0,1.788,1.451,3.238,3.24,3.238C830.712,830.091,832.161,828.641,832.161,826.852"/>
	<path style="fill:#FFFFFF;" d="M841.319,855.024c0-1.66-1.346-3.004-3.005-3.004c-1.661,0-3.005,1.344-3.005,3.004
		c0,1.66,1.344,3.004,3.005,3.004C839.974,858.028,841.319,856.685,841.319,855.024"/>
	<path style="fill:#FFFFFF;" d="M898.739,836.241c0-2.287-1.855-4.146-4.146-4.146c-2.29,0-4.144,1.858-4.144,4.146
		c0,2.289,1.854,4.145,4.144,4.145C896.884,840.386,898.739,838.53,898.739,836.241"/>
	<path style="fill:#FFFFFF;" d="M867.261,855.027c0-0.382-0.31-0.688-0.689-0.688s-0.687,0.307-0.687,0.688
		c0,0.38,0.308,0.686,0.687,0.686S867.261,855.407,867.261,855.027"/>
	<path style="fill:#FFFFFF;" d="M732.31,817.458c0-0.621-0.505-1.122-1.123-1.122c-0.621,0-1.12,0.501-1.12,1.122
		s0.499,1.121,1.12,1.121C731.805,818.579,732.31,818.079,732.31,817.458"/>
	<path style="fill:#FFFFFF;" d="M726.194,845.634c0-2.467-2.002-4.47-4.47-4.47c-2.466,0-4.469,2.003-4.469,4.47
		c0,2.468,2.003,4.47,4.469,4.47C724.192,850.103,726.194,848.102,726.194,845.634"/>
	<path style="fill:#FFFFFF;" d="M545.84,747.109c0-2.272-1.844-4.112-4.115-4.112c-2.275,0-4.115,1.841-4.115,4.112
		c0,2.275,1.84,4.115,4.115,4.115C543.996,751.225,545.84,749.385,545.84,747.109"/>
	<path style="fill:#FFFFFF;" d="M544.051,756.504c0-1.285-1.041-2.327-2.326-2.327c-1.285,0-2.326,1.042-2.326,2.327
		c0,1.28,1.041,2.322,2.326,2.322C543.01,758.826,544.051,757.784,544.051,756.504"/>
	<path style="fill:#FFFFFF;" d="M481.189,709.545c0-1.292-1.045-2.338-2.334-2.338c-1.291,0-2.34,1.046-2.34,2.338
		c0,1.291,1.049,2.336,2.34,2.336C480.145,711.881,481.189,710.836,481.189,709.545"/>
	<path style="fill:#FFFFFF;" d="M493.664,747.113c0-2.994-2.426-5.42-5.416-5.42c-2.996,0-5.42,2.426-5.42,5.42
		c0,2.99,2.424,5.416,5.42,5.416C491.238,752.529,493.664,750.103,493.664,747.113"/>
	<path style="fill:#FFFFFF;" d="M642.082,718.939c0-2.996-2.424-5.421-5.414-5.421c-2.996,0-5.42,2.425-5.42,5.421
		c0,2.99,2.424,5.415,5.42,5.415C639.658,724.354,642.082,721.93,642.082,718.939"/>
	<path style="fill:#FFFFFF;" d="M658.777,728.328c0-1.841-1.492-3.332-3.328-3.332c-1.842,0-3.332,1.491-3.332,3.332
		c0,1.84,1.49,3.331,3.332,3.331C657.285,731.659,658.777,730.168,658.777,728.328"/>
	<path style="fill:#FFFFFF;" d="M728.504,728.328c0-0.465-0.379-0.84-0.844-0.84c-0.463,0-0.838,0.375-0.838,0.84
		c0,0.463,0.375,0.839,0.838,0.839C728.125,729.167,728.504,728.791,728.504,728.328"/>
	<path style="fill:#FFFFFF;" d="M712.49,737.718c0-1.995-1.615-3.61-3.611-3.61c-1.994,0-3.611,1.615-3.611,3.61
		c0,1.995,1.617,3.612,3.611,3.612C710.875,741.33,712.49,739.713,712.49,737.718"/>
	<path style="fill:#FFFFFF;" d="M712.842,756.504c0-2.19-1.773-3.965-3.963-3.965s-3.965,1.774-3.965,3.965
		c0,2.184,1.775,3.963,3.965,3.963S712.842,758.687,712.842,756.504"/>
	<path style="fill:#FFFFFF;" d="M721.191,756.506c0-1.62-1.309-2.93-2.922-2.93c-1.613,0-2.922,1.31-2.922,2.93
		c0,1.612,1.309,2.922,2.922,2.922C719.883,759.428,721.191,758.118,721.191,756.506"/>
	<path style="fill:#FFFFFF;" d="M607.695,728.205c0-2.468-2-4.471-4.471-4.471c-2.467,0-4.471,2.003-4.471,4.471
		c0,2.471,2.004,4.471,4.471,4.471C605.695,732.676,607.695,730.676,607.695,728.205"/>
	<path style="fill:#FFFFFF;" d="M595.572,747.107c0-0.616-0.502-1.121-1.121-1.121c-0.619,0-1.121,0.505-1.121,1.121
		c0,0.619,0.502,1.123,1.121,1.123C595.07,748.23,595.572,747.727,595.572,747.107"/>
</g>
<g id="Ebene_1">
</g>
</svg>
