<?xml version="1.0" encoding="iso-8859-1"?>
<!-- Generator: Adobe Illustrator 18.0.0, SVG Export Plug-In . SVG Version: 6.00 Build 0)  -->
<!DOCTYPE svg PUBLIC "-//W3C//DTD SVG 1.1//EN" "http://www.w3.org/Graphics/SVG/1.1/DTD/svg11.dtd">
<svg version="1.1" xmlns="http://www.w3.org/2000/svg" xmlns:xlink="http://www.w3.org/1999/xlink" x="0px" y="0px"
	 viewBox="0 0 1200 1643.104" style="enable-background:new 0 0 1200 1643.104;" xml:space="preserve">
<g id="f2">
	<path style="fill:#FFFFFF;" d="M309.447,808.066c0-1.649-1.336-2.985-2.985-2.985c-1.648,0-2.984,1.336-2.984,2.985
		s1.336,2.985,2.984,2.985C308.111,811.052,309.447,809.716,309.447,808.066"/>
	<path style="fill:#FFFFFF;" d="M356.435,845.634c0-1.664-1.351-3.016-3.016-3.016c-1.667,0-3.015,1.352-3.015,3.016
		c0,1.664,1.348,3.015,3.015,3.015C355.084,848.648,356.435,847.298,356.435,845.634"/>
	<path style="fill:#FFFFFF;" d="M395.901,826.852c0-2.416-1.958-4.37-4.369-4.37c-2.412,0-4.366,1.954-4.366,4.37
		c0,2.41,1.954,4.365,4.366,4.365C393.943,831.218,395.901,829.263,395.901,826.852"/>
	<path style="fill:#FFFFFF;" d="M402.284,845.634c0-0.751-0.607-1.363-1.361-1.363c-0.751,0-1.358,0.612-1.358,1.363
		c0,0.75,0.607,1.361,1.358,1.361C401.677,846.995,402.284,846.384,402.284,845.634"/>
	<path style="fill:#FFFFFF;" d="M405.68,855.024c0-2.625-2.129-4.754-4.758-4.754c-2.624,0-4.753,2.129-4.753,4.754
		c0,2.624,2.129,4.753,4.753,4.753C403.551,859.777,405.68,857.648,405.68,855.024"/>
	<path style="fill:#FFFFFF;" d="M488.671,845.634c0-2.496-2.024-4.518-4.516-4.518c-2.496,0-4.518,2.021-4.518,4.518
		c0,2.492,2.021,4.517,4.518,4.517C486.646,850.15,488.671,848.126,488.671,845.634"/>
	<path style="fill:#FFFFFF;" d="M663.242,826.852c0-2.032-1.644-3.68-3.677-3.68c-2.03,0-3.674,1.648-3.674,3.68
		c0,2.027,1.644,3.675,3.674,3.675C661.599,830.527,663.242,828.88,663.242,826.852"/>
	<path style="fill:#FFFFFF;" d="M839.079,817.458c0-0.424-0.341-0.766-0.765-0.766c-0.424,0-0.767,0.342-0.767,0.766
		c0,0.423,0.343,0.77,0.767,0.77C838.738,818.227,839.079,817.881,839.079,817.458"/>
	<path style="fill:#FFFFFF;" d="M823.733,826.852c0-2.324-1.882-4.205-4.2-4.205c-2.324,0-4.205,1.881-4.205,4.205
		c0,2.318,1.881,4.199,4.205,4.199C821.852,831.052,823.733,829.171,823.733,826.852"/>
	<path style="fill:#FFFFFF;" d="M824.307,845.634c0-2.637-2.138-4.774-4.773-4.774c-2.641,0-4.775,2.138-4.775,4.774
		c0,2.635,2.135,4.774,4.775,4.774C822.169,850.408,824.307,848.268,824.307,845.634"/>
	<path style="fill:#FFFFFF;" d="M449.71,845.634c0-2.934-2.379-5.312-5.312-5.312s-5.312,2.379-5.312,5.312
		c0,2.934,2.378,5.311,5.312,5.311S449.71,848.567,449.71,845.634"/>
	<path style="fill:#FFFFFF;" d="M897.311,855.027c0-1.502-1.216-2.718-2.719-2.718c-1.498,0-2.72,1.216-2.72,2.718
		c0,1.499,1.222,2.716,2.72,2.716C896.096,857.743,897.311,856.526,897.311,855.027"/>
	<path style="fill:#FFFFFF;" d="M557.151,826.852c0-1.898-1.535-3.434-3.43-3.434c-1.898,0-3.434,1.536-3.434,3.434
		c0,1.896,1.535,3.431,3.434,3.431C555.616,830.282,557.151,828.747,557.151,826.852"/>
	<path style="fill:#FFFFFF;" d="M715.168,826.852c0-1.603-1.303-2.903-2.904-2.903c-1.603,0-2.9,1.301-2.9,2.903
		c0,1.602,1.298,2.901,2.9,2.901C713.865,829.753,715.168,828.454,715.168,826.852"/>
	<path style="fill:#FFFFFF;" d="M534.459,737.718c0-1.17-0.955-2.124-2.125-2.124c-1.174,0-2.123,0.954-2.123,2.124
		c0,1.175,0.949,2.124,2.123,2.124C533.504,739.842,534.459,738.893,534.459,737.718"/>
	<path style="fill:#FFFFFF;" d="M533.662,756.504c0-0.736-0.596-1.333-1.328-1.333c-0.736,0-1.328,0.597-1.328,1.333
		c0,0.732,0.592,1.328,1.328,1.328C533.066,757.832,533.662,757.236,533.662,756.504"/>
	<path style="fill:#FFFFFF;" d="M646.918,709.545c0-0.477-0.385-0.863-0.861-0.863c-0.477,0-0.863,0.387-0.863,0.863
		c0,0.475,0.387,0.861,0.863,0.861C646.533,710.406,646.918,710.019,646.918,709.545"/>
	<path style="fill:#FFFFFF;" d="M608.572,737.72c0-2.953-2.395-5.35-5.348-5.35c-2.955,0-5.348,2.396-5.348,5.35
		c0,2.954,2.392,5.347,5.348,5.347C606.178,743.066,608.572,740.674,608.572,737.72"/>
</g>
<g id="Ebene_1">
</g>
</svg>
