<?xml version="1.0" encoding="iso-8859-1"?>
<!-- Generator: Adobe Illustrator 18.0.0, SVG Export Plug-In . SVG Version: 6.00 Build 0)  -->
<!DOCTYPE svg PUBLIC "-//W3C//DTD SVG 1.1//EN" "http://www.w3.org/Graphics/SVG/1.1/DTD/svg11.dtd">
<svg version="1.1" xmlns="http://www.w3.org/2000/svg" xmlns:xlink="http://www.w3.org/1999/xlink" x="0px" y="0px"
	 viewBox="0 0 2800 700" style="enable-background:new 0 0 2800 700;" xml:space="preserve">
<g id="f2">
	<path style="fill:#FFFFFF;" d="M722.742,397.377c0-3.848-3.117-6.965-6.965-6.965c-3.846,0-6.963,3.117-6.963,6.965
		s3.117,6.965,6.963,6.965C719.625,404.342,722.742,401.225,722.742,397.377"/>
	<path style="fill:#FFFFFF;" d="M832.367,485.023c0-3.882-3.153-7.036-7.036-7.036c-3.889,0-7.033,3.153-7.033,7.036
		c0,3.882,3.144,7.033,7.033,7.033C829.214,492.056,832.367,488.905,832.367,485.023"/>
	<path style="fill:#FFFFFF;" d="M924.443,441.206c0-5.637-4.568-10.196-10.194-10.196c-5.628,0-10.187,4.559-10.187,10.196
		c0,5.623,4.559,10.184,10.187,10.184C919.874,451.39,924.443,446.829,924.443,441.206"/>
	<path style="fill:#FFFFFF;" d="M939.334,485.023c0-1.752-1.417-3.181-3.176-3.181c-1.752,0-3.169,1.428-3.169,3.181
		c0,1.75,1.417,3.176,3.169,3.176C937.917,488.199,939.334,486.773,939.334,485.023"/>
	<path style="fill:#FFFFFF;" d="M947.256,506.932c0-6.124-4.967-11.091-11.1-11.091c-6.122,0-11.089,4.967-11.089,11.091
		c0,6.122,4.967,11.089,11.089,11.089C942.289,518.02,947.256,513.054,947.256,506.932"/>
	<path style="fill:#FFFFFF;" d="M1140.878,485.023c0-5.824-4.723-10.54-10.535-10.54c-5.823,0-10.54,4.716-10.54,10.54
		c0,5.814,4.716,10.537,10.54,10.537C1136.155,495.56,1140.878,490.837,1140.878,485.023"/>
	<path style="fill:#FFFFFF;" d="M1548.16,441.206c0-4.741-3.835-8.585-8.578-8.585c-4.737,0-8.571,3.844-8.571,8.585
		c0,4.73,3.835,8.573,8.571,8.573C1544.325,449.779,1548.16,445.936,1548.16,441.206"/>
	<path style="fill:#FFFFFF;" d="M1958.394,419.288c0-0.989-0.795-1.786-1.784-1.786c-0.989,0-1.789,0.797-1.789,1.786
		c0,0.987,0.8,1.795,1.789,1.795C1957.599,421.083,1958.394,420.274,1958.394,419.288"/>
	<path style="fill:#FFFFFF;" d="M1922.592,441.206c0-5.422-4.39-9.81-9.799-9.81c-5.422,0-9.811,4.388-9.811,9.81
		c0,5.409,4.388,9.797,9.811,9.797C1918.202,451.003,1922.592,446.614,1922.592,441.206"/>
	<path style="fill:#FFFFFF;" d="M1923.929,485.023c0-6.152-4.987-11.139-11.137-11.139c-6.161,0-11.141,4.987-11.141,11.139
		c0,6.147,4.981,11.139,11.141,11.139C1918.942,496.162,1923.929,491.17,1923.929,485.023"/>
	<path style="fill:#FFFFFF;" d="M1049.98,485.023c0-6.844-5.55-12.394-12.394-12.394c-6.844,0-12.392,5.55-12.392,12.394
		s5.548,12.392,12.392,12.392C1044.43,497.415,1049.98,491.867,1049.98,485.023"/>
	<path style="fill:#FFFFFF;" d="M2094.253,506.938c0-3.504-2.836-6.341-6.343-6.341c-3.495,0-6.345,2.837-6.345,6.341
		c0,3.497,2.85,6.336,6.345,6.336C2091.416,513.275,2094.253,510.436,2094.253,506.938"/>
	<path style="fill:#FFFFFF;" d="M1300.645,441.203c0-4.427-3.582-8.011-8.002-8.011c-4.429,0-8.011,3.584-8.011,8.011
		c0,4.422,3.581,8.004,8.011,8.004C1297.064,449.207,1300.645,445.626,1300.645,441.203"/>
	<path style="fill:#FFFFFF;" d="M1669.305,441.203c0-3.739-3.04-6.774-6.776-6.774c-3.739,0-6.767,3.035-6.767,6.774
		c0,3.739,3.028,6.769,6.767,6.769C1666.265,447.972,1669.305,444.942,1669.305,441.203"/>
	<path style="fill:#FFFFFF;" d="M1247.703,233.251c0-2.73-2.228-4.956-4.958-4.956c-2.739,0-4.953,2.226-4.953,4.956
		c0,2.741,2.215,4.955,4.953,4.955C1245.475,238.206,1247.703,235.991,1247.703,233.251"/>
	<path style="fill:#FFFFFF;" d="M1245.844,277.079c0-1.718-1.39-3.11-3.099-3.11c-1.718,0-3.099,1.392-3.099,3.11
		c0,1.709,1.381,3.099,3.099,3.099C1244.454,280.178,1245.844,278.788,1245.844,277.079"/>
	<path style="fill:#FFFFFF;" d="M1510.074,167.522c0-1.112-0.898-2.014-2.01-2.014c-1.112,0-2.014,0.902-2.014,2.014
		c0,1.107,0.902,2.009,2.014,2.009C1509.177,169.532,1510.074,168.629,1510.074,167.522"/>
	<path style="fill:#FFFFFF;" d="M1420.612,233.255c0-6.89-5.587-12.481-12.476-12.481c-6.894,0-12.476,5.591-12.476,12.481
		c0,6.892,5.582,12.474,12.476,12.474C1415.026,245.729,1420.612,240.147,1420.612,233.255"/>
</g>
<g id="Ebene_1">
</g>
</svg>
