<?xml version="1.0" encoding="iso-8859-1"?>
<!-- Generator: Adobe Illustrator 18.0.0, SVG Export Plug-In . SVG Version: 6.00 Build 0)  -->
<!DOCTYPE svg PUBLIC "-//W3C//DTD SVG 1.1//EN" "http://www.w3.org/Graphics/SVG/1.1/DTD/svg11.dtd">
<svg version="1.1" xmlns="http://www.w3.org/2000/svg" xmlns:xlink="http://www.w3.org/1999/xlink" x="0px" y="0px"
	 viewBox="0 0 1200 1643.104" style="enable-background:new 0 0 1200 1643.104;" xml:space="preserve">
<g id="f3">
	<path style="fill:#FFFFFF;" d="M365.774,808.066c0-1.634-1.325-2.963-2.964-2.963c-1.638,0-2.963,1.329-2.963,2.963
		c0,1.638,1.325,2.964,2.963,2.964C364.449,811.03,365.774,809.704,365.774,808.066"/>
	<path style="fill:#FFFFFF;" d="M392.191,817.458c0-0.361-0.295-0.656-0.659-0.656c-0.361,0-0.655,0.295-0.655,0.656
		c0,0.363,0.294,0.658,0.655,0.658C391.896,818.116,392.191,817.821,392.191,817.458"/>
	<path style="fill:#FFFFFF;" d="M383.68,845.634c0-0.851-0.689-1.535-1.539-1.535c-0.847,0-1.534,0.685-1.534,1.535
		c0,0.85,0.688,1.535,1.534,1.535C382.991,847.169,383.68,846.483,383.68,845.634"/>
	<path style="fill:#FFFFFF;" d="M613.964,817.458c0-0.964-0.783-1.75-1.749-1.75c-0.968,0-1.751,0.786-1.751,1.75
		c0,0.967,0.783,1.752,1.751,1.752C613.181,819.21,613.964,818.425,613.964,817.458"/>
	<path style="fill:#FFFFFF;" d="M843.052,836.243c0-2.617-2.121-4.738-4.737-4.738c-2.617,0-4.737,2.121-4.737,4.738
		c0,2.617,2.12,4.737,4.737,4.737C840.931,840.98,843.052,838.86,843.052,836.243"/>
	<path style="fill:#FFFFFF;" d="M449.205,808.066c0-2.653-2.153-4.808-4.808-4.808s-4.808,2.154-4.808,4.808
		c0,2.658,2.153,4.812,4.808,4.812S449.205,810.725,449.205,808.066"/>
	<path style="fill:#FFFFFF;" d="M776.603,808.097c0-1.135-0.92-2.055-2.058-2.055c-1.134,0-2.053,0.92-2.053,2.055
		c0,1.137,0.919,2.058,2.053,2.058C775.684,810.154,776.603,809.233,776.603,808.097"/>
	<path style="fill:#FFFFFF;" d="M785.17,808.097c0-0.678-0.552-1.231-1.228-1.231c-0.683,0-1.233,0.553-1.233,1.231
		c0,0.681,0.551,1.232,1.233,1.232C784.618,809.329,785.17,808.777,785.17,808.097"/>
	<path style="fill:#FFFFFF;" d="M786.837,845.663c0-1.602-1.299-2.897-2.895-2.897c-1.604,0-2.902,1.295-2.902,2.897
		c0,1.602,1.299,2.897,2.902,2.897C785.538,848.56,786.837,847.265,786.837,845.663"/>
	<path style="fill:#FFFFFF;" d="M876.932,817.46c0-0.565-0.454-1.023-1.018-1.023c-0.564,0-1.021,0.458-1.021,1.023
		c0,0.562,0.458,1.021,1.021,1.021C876.477,818.481,876.932,818.022,876.932,817.46"/>
	<path style="fill:#FFFFFF;" d="M535.727,855.027c0-0.382-0.31-0.688-0.689-0.688c-0.378,0-0.685,0.307-0.685,0.688
		c0,0.38,0.307,0.686,0.685,0.686C535.417,855.713,535.727,855.407,535.727,855.027"/>
	<path style="fill:#FFFFFF;" d="M574.043,855.027c0-0.909-0.735-1.643-1.641-1.643c-0.909,0-1.644,0.734-1.644,1.643
		c0,0.906,0.735,1.642,1.644,1.642C573.308,856.669,574.043,855.934,574.043,855.027"/>
	<path style="fill:#FFFFFF;" d="M715.168,836.241c0-1.602-1.303-2.9-2.904-2.9c-1.603,0-2.9,1.299-2.9,2.9
		c0,1.602,1.298,2.903,2.9,2.903C713.865,839.144,715.168,837.843,715.168,836.241"/>
	<path style="fill:#FFFFFF;" d="M668.957,737.718c0-2.271-1.848-4.112-4.117-4.112c-2.271,0-4.113,1.842-4.113,4.112
		c0,2.272,1.842,4.116,4.113,4.116C667.109,741.834,668.957,739.99,668.957,737.718"/>
	<path style="fill:#FFFFFF;" d="M667.168,756.504c0-1.285-1.045-2.327-2.328-2.327c-1.285,0-2.328,1.042-2.328,2.327
		c0,1.28,1.043,2.322,2.328,2.322C666.123,758.826,667.168,757.784,667.168,756.504"/>
</g>
<g id="Ebene_1">
</g>
</svg>
