<?xml version="1.0" encoding="iso-8859-1"?>
<!-- Generator: Adobe Illustrator 18.0.0, SVG Export Plug-In . SVG Version: 6.00 Build 0)  -->
<!DOCTYPE svg PUBLIC "-//W3C//DTD SVG 1.1//EN" "http://www.w3.org/Graphics/SVG/1.1/DTD/svg11.dtd">
<svg version="1.1" xmlns="http://www.w3.org/2000/svg" xmlns:xlink="http://www.w3.org/1999/xlink" x="0px" y="0px"
	 viewBox="0 0 1200 1643.104" style="enable-background:new 0 0 1200 1643.104;" xml:space="preserve">
<g id="f6">
	<path style="fill:#FFFFFF;" d="M310.247,817.458c0-2.092-1.693-3.785-3.785-3.785c-2.091,0-3.787,1.693-3.787,3.785
		c0,2.094,1.696,3.787,3.787,3.787C308.554,821.245,310.247,819.552,310.247,817.458"/>
	<path style="fill:#FFFFFF;" d="M345.38,826.852c0-0.752-0.603-1.355-1.351-1.355c-0.751,0-1.354,0.604-1.354,1.355
		c0,0.746,0.603,1.351,1.354,1.351C344.776,828.203,345.38,827.599,345.38,826.852"/>
	<path style="fill:#FFFFFF;" d="M358.315,826.852c0-2.707-2.189-4.9-4.896-4.9c-2.705,0-4.899,2.193-4.899,4.9
		c0,2.701,2.194,4.895,4.899,4.895C356.126,831.747,358.315,829.554,358.315,826.852"/>
	<path style="fill:#FFFFFF;" d="M310.31,845.634c0-2.124-1.723-3.848-3.848-3.848c-2.123,0-3.847,1.724-3.847,3.848
		c0,2.124,1.724,3.847,3.847,3.847C308.587,849.48,310.31,847.758,310.31,845.634"/>
	<path style="fill:#FFFFFF;" d="M355.047,855.024c0-0.898-0.729-1.627-1.627-1.627c-0.897,0-1.627,0.729-1.627,1.627
		s0.729,1.627,1.627,1.627C354.318,856.651,355.047,855.923,355.047,855.024"/>
	<path style="fill:#FFFFFF;" d="M396.145,845.634c0-2.548-2.065-4.613-4.612-4.613c-2.548,0-4.613,2.065-4.613,4.613
		c0,2.547,2.065,4.612,4.613,4.612C394.079,850.246,396.145,848.181,396.145,845.634"/>
	<path style="fill:#FFFFFF;" d="M476.487,817.458c0-0.951-0.77-1.724-1.724-1.724c-0.953,0-1.727,0.772-1.727,1.724
		c0,0.953,0.773,1.727,1.727,1.727C475.718,819.185,476.487,818.411,476.487,817.458"/>
	<path style="fill:#FFFFFF;" d="M476.49,845.634c0-0.953-0.772-1.727-1.726-1.727c-0.953,0-1.727,0.773-1.727,1.727
		c0,0.953,0.773,1.726,1.727,1.726C475.718,847.36,476.49,846.587,476.49,845.634"/>
	<path style="fill:#FFFFFF;" d="M604.381,836.243c0-0.861-0.7-1.557-1.559-1.557c-0.857,0-1.556,0.695-1.556,1.557
		c0,0.857,0.699,1.553,1.556,1.553C603.681,837.796,604.381,837.101,604.381,836.243"/>
	<path style="fill:#FFFFFF;" d="M632.935,836.243c0-1.072-0.865-1.94-1.935-1.94c-1.076,0-1.94,0.868-1.94,1.94
		c0,1.07,0.863,1.939,1.94,1.939C632.07,838.183,632.935,837.313,632.935,836.243"/>
	<path style="fill:#FFFFFF;" d="M688.577,855.024c0-0.464-0.374-0.84-0.837-0.84c-0.466,0-0.841,0.376-0.841,0.84
		c0,0.464,0.375,0.84,0.841,0.84C688.203,855.864,688.577,855.488,688.577,855.024"/>
	<path style="fill:#FFFFFF;" d="M832.935,855.024c0-2.217-1.796-4.013-4.012-4.013c-2.22,0-4.018,1.796-4.018,4.013
		s1.798,4.016,4.018,4.016C831.14,859.04,832.935,857.241,832.935,855.024"/>
	<path style="fill:#FFFFFF;" d="M779.262,826.882c0-2.604-2.112-4.712-4.716-4.712c-2.603,0-4.711,2.108-4.711,4.712
		c0,2.602,2.108,4.711,4.711,4.711C777.149,831.593,779.262,829.483,779.262,826.882"/>
	<path style="fill:#FFFFFF;" d="M776.185,855.054c0-0.902-0.733-1.635-1.64-1.635c-0.902,0-1.635,0.732-1.635,1.635
		c0,0.906,0.732,1.639,1.635,1.639C775.452,856.692,776.185,855.96,776.185,855.054"/>
	<path style="fill:#FFFFFF;" d="M886.087,817.46c0-0.459-0.375-0.831-0.833-0.831c-0.46,0-0.833,0.372-0.833,0.831
		c0,0.457,0.373,0.829,0.833,0.829C885.712,818.289,886.087,817.917,886.087,817.46"/>
	<path style="fill:#FFFFFF;" d="M574.897,836.241c0-1.377-1.118-2.494-2.495-2.494c-1.382,0-2.498,1.117-2.498,2.494
		c0,1.381,1.116,2.497,2.498,2.497C573.779,838.738,574.897,837.622,574.897,836.241"/>
	<path style="fill:#FFFFFF;" d="M547.997,855.027c0-2-1.62-3.618-3.616-3.618c-1.998,0-3.619,1.618-3.619,3.618
		c0,1.997,1.621,3.614,3.619,3.614C546.377,858.642,547.997,857.024,547.997,855.027"/>
	<path style="fill:#FFFFFF;" d="M714.169,855.026c0-1.055-0.852-1.906-1.905-1.906c-1.051,0-1.903,0.852-1.903,1.906
		c0,1.051,0.853,1.902,1.903,1.902C713.316,856.929,714.169,856.077,714.169,855.026"/>
	<path style="fill:#FFFFFF;" d="M744.487,855.026c0-2.123-1.719-3.842-3.842-3.842c-2.119,0-3.837,1.719-3.837,3.842
		c0,2.119,1.718,3.838,3.837,3.838C742.769,858.864,744.487,857.145,744.487,855.026"/>
	<path style="fill:#FFFFFF;" d="M502.15,709.547c0-2.493-2.022-4.514-4.514-4.514s-4.514,2.021-4.514,4.514
		c0,2.49,2.022,4.509,4.514,4.509S502.15,712.037,502.15,709.547"/>
	<path style="fill:#FFFFFF;" d="M719.484,747.11c0-0.671-0.545-1.214-1.215-1.214c-0.672,0-1.213,0.543-1.213,1.214
		c0,0.671,0.541,1.215,1.213,1.215C718.939,748.325,719.484,747.781,719.484,747.11"/>
	<path style="fill:#FFFFFF;" d="M588.992,756.502c0-1.833-1.486-3.319-3.318-3.319c-1.834,0-3.32,1.486-3.32,3.319
		c0,1.832,1.486,3.318,3.32,3.318C587.506,759.82,588.992,758.334,588.992,756.502"/>
</g>
<g id="Ebene_1">
</g>
</svg>
