<?xml version="1.0" encoding="iso-8859-1"?>
<!-- Generator: Adobe Illustrator 18.0.0, SVG Export Plug-In . SVG Version: 6.00 Build 0)  -->
<!DOCTYPE svg PUBLIC "-//W3C//DTD SVG 1.1//EN" "http://www.w3.org/Graphics/SVG/1.1/DTD/svg11.dtd">
<svg version="1.1" xmlns="http://www.w3.org/2000/svg" xmlns:xlink="http://www.w3.org/1999/xlink" x="0px" y="0px"
	 viewBox="0 0 2800 700" style="enable-background:new 0 0 2800 700;" xml:space="preserve">
<g id="f6">
	<path style="fill:#FFFFFF;" d="M724.607,419.288c0-4.88-3.951-8.831-8.831-8.831c-4.878,0-8.835,3.951-8.835,8.831
		c0,4.885,3.958,8.835,8.835,8.835C720.657,428.123,724.607,424.173,724.607,419.288"/>
	<path style="fill:#FFFFFF;" d="M806.574,441.206c0-1.754-1.408-3.162-3.151-3.162c-1.752,0-3.16,1.408-3.16,3.162
		c0,1.741,1.408,3.151,3.16,3.151C805.166,444.357,806.574,442.946,806.574,441.206"/>
	<path style="fill:#FFFFFF;" d="M836.753,441.206c0-6.316-5.108-11.433-11.421-11.433c-6.311,0-11.431,5.117-11.431,11.433
		c0,6.302,5.119,11.419,11.431,11.419C831.645,452.625,836.753,447.508,836.753,441.206"/>
	<path style="fill:#FFFFFF;" d="M724.753,485.023c0-4.955-4.019-8.977-8.977-8.977c-4.953,0-8.975,4.021-8.975,8.977
		s4.021,8.974,8.975,8.974C720.734,493.998,724.753,489.978,724.753,485.023"/>
	<path style="fill:#FFFFFF;" d="M829.127,506.932c0-2.096-1.7-3.796-3.796-3.796c-2.094,0-3.796,1.7-3.796,3.796
		c0,2.096,1.702,3.796,3.796,3.796C827.428,510.728,829.127,509.028,829.127,506.932"/>
	<path style="fill:#FFFFFF;" d="M925.01,485.023c0-5.944-4.819-10.763-10.761-10.763c-5.944,0-10.763,4.819-10.763,10.763
		c0,5.942,4.819,10.761,10.763,10.761C920.191,495.784,925.01,490.965,925.01,485.023"/>
	<path style="fill:#FFFFFF;" d="M1112.453,419.288c0-2.219-1.795-4.021-4.021-4.021c-2.224,0-4.028,1.802-4.028,4.021
		c0,2.224,1.804,4.028,4.028,4.028C1110.657,423.316,1112.453,421.511,1112.453,419.288"/>
	<path style="fill:#FFFFFF;" d="M1112.459,485.023c0-2.224-1.802-4.028-4.028-4.028c-2.224,0-4.028,1.805-4.028,4.028
		c0,2.224,1.804,4.028,4.028,4.028C1110.657,489.051,1112.459,487.247,1112.459,485.023"/>
	<path style="fill:#FFFFFF;" d="M1410.834,463.114c0-2.01-1.634-3.632-3.636-3.632c-1.998,0-3.63,1.622-3.63,3.632
		c0,2,1.631,3.622,3.63,3.622C1409.2,466.737,1410.834,465.115,1410.834,463.114"/>
	<path style="fill:#FFFFFF;" d="M1477.453,463.114c0-2.502-2.019-4.527-4.516-4.527c-2.511,0-4.525,2.026-4.525,4.527
		c0,2.497,2.014,4.525,4.525,4.525C1475.434,467.639,1477.453,465.611,1477.453,463.114"/>
	<path style="fill:#FFFFFF;" d="M1607.267,506.932c0-1.082-0.873-1.959-1.953-1.959c-1.087,0-1.962,0.877-1.962,1.959
		c0,1.082,0.875,1.96,1.962,1.96C1606.394,508.891,1607.267,508.014,1607.267,506.932"/>
	<path style="fill:#FFFFFF;" d="M1944.061,506.932c0-5.172-4.19-9.362-9.359-9.362c-5.179,0-9.373,4.19-9.373,9.362
		s4.194,9.369,9.373,9.369C1939.871,516.3,1944.061,512.104,1944.061,506.932"/>
	<path style="fill:#FFFFFF;" d="M1818.838,441.274c0-6.074-4.928-10.993-11.002-10.993c-6.072,0-10.991,4.919-10.991,10.993
		c0,6.07,4.919,10.991,10.991,10.991C1813.91,452.265,1818.838,447.344,1818.838,441.274"/>
	<path style="fill:#FFFFFF;" d="M1811.661,507c0-2.105-1.711-3.814-3.825-3.814c-2.105,0-3.814,1.709-3.814,3.814
		c0,2.114,1.709,3.823,3.814,3.823C1809.95,510.823,1811.661,509.115,1811.661,507"/>
	<path style="fill:#FFFFFF;" d="M2068.065,419.292c0-1.071-0.875-1.939-1.943-1.939c-1.073,0-1.943,0.868-1.943,1.939
		c0,1.066,0.87,1.934,1.943,1.934C2067.19,421.227,2068.065,420.359,2068.065,419.292"/>
	<path style="fill:#FFFFFF;" d="M1342.048,463.11c0-3.212-2.609-5.819-5.821-5.819c-3.224,0-5.828,2.606-5.828,5.819
		c0,3.222,2.604,5.826,5.828,5.826C1339.439,468.936,1342.048,466.331,1342.048,463.11"/>
	<path style="fill:#FFFFFF;" d="M1279.288,506.938c0-4.666-3.78-8.441-8.437-8.441c-4.662,0-8.444,3.775-8.444,8.441
		c0,4.659,3.782,8.432,8.444,8.432C1275.508,515.371,1279.288,511.598,1279.288,506.938"/>
	<path style="fill:#FFFFFF;" d="M1666.974,506.936c0-2.461-1.989-4.447-4.445-4.447c-2.452,0-4.441,1.987-4.441,4.447
		c0,2.451,1.989,4.438,4.441,4.438C1664.985,511.375,1666.974,509.388,1666.974,506.936"/>
	<path style="fill:#FFFFFF;" d="M1737.708,506.936c0-4.953-4.01-8.963-8.963-8.963c-4.944,0-8.952,4.01-8.952,8.963
		c0,4.944,4.008,8.954,8.952,8.954C1733.698,515.89,1737.708,511.88,1737.708,506.936"/>
	<path style="fill:#FFFFFF;" d="M1172.326,167.527c0-5.817-4.716-10.531-10.531-10.531c-5.814,0-10.531,4.714-10.531,10.531
		c0,5.81,4.716,10.519,10.531,10.519C1167.609,178.046,1172.326,173.337,1172.326,167.527"/>
	<path style="fill:#FFFFFF;" d="M1679.375,255.164c0-1.565-1.271-2.832-2.834-2.832c-1.567,0-2.83,1.267-2.83,2.832
		c0,1.565,1.262,2.834,2.83,2.834C1678.104,257.998,1679.375,256.729,1679.375,255.164"/>
	<path style="fill:#FFFFFF;" d="M1374.931,277.075c0-4.276-3.468-7.744-7.742-7.744c-4.279,0-7.746,3.468-7.746,7.744
		c0,4.274,3.468,7.742,7.746,7.742C1371.464,284.817,1374.931,281.349,1374.931,277.075"/>
</g>
<g id="Ebene_1">
</g>
</svg>
