<?xml version="1.0" encoding="iso-8859-1"?>
<!-- Generator: Adobe Illustrator 18.0.0, SVG Export Plug-In . SVG Version: 6.00 Build 0)  -->
<!DOCTYPE svg PUBLIC "-//W3C//DTD SVG 1.1//EN" "http://www.w3.org/Graphics/SVG/1.1/DTD/svg11.dtd">
<svg version="1.1" xmlns="http://www.w3.org/2000/svg" xmlns:xlink="http://www.w3.org/1999/xlink" x="0px" y="0px"
	 viewBox="0 0 2800 700" style="enable-background:new 0 0 2800 700;" xml:space="preserve">
<g id="f8">
	<path style="fill:#FFFFFF;" d="M851.646,419.288c0-2.433-1.966-4.406-4.406-4.406c-2.438,0-4.413,1.973-4.413,4.406
		c0,2.438,1.975,4.413,4.413,4.413C849.68,423.701,851.646,421.726,851.646,419.288"/>
	<path style="fill:#FFFFFF;" d="M896.35,463.114c0-2.215-1.796-4.012-4.012-4.012c-2.214,0-4.01,1.798-4.01,4.012
		c0,2.215,1.795,4.01,4.01,4.01C894.555,467.124,896.35,465.329,896.35,463.114"/>
	<path style="fill:#FFFFFF;" d="M925.568,463.114c0-6.252-5.067-11.321-11.319-11.321c-6.254,0-11.319,5.069-11.319,11.321
		c0,6.252,5.065,11.319,11.319,11.319C920.501,474.433,925.568,469.366,925.568,463.114"/>
	<path style="fill:#FFFFFF;" d="M1185.531,441.206c0-6.279-5.094-11.374-11.371-11.374c-6.279,0-11.362,5.094-11.362,11.374
		c0,6.277,5.083,11.36,11.362,11.36C1180.437,452.566,1185.531,447.483,1185.531,441.206"/>
	<path style="fill:#FFFFFF;" d="M1414.704,441.206c0-4.149-3.356-7.516-7.507-7.516c-4.144,0-7.503,3.367-7.503,7.516
		c0,4.138,3.358,7.505,7.503,7.505C1411.349,448.71,1414.704,445.343,1414.704,441.206"/>
	<path style="fill:#FFFFFF;" d="M1462.249,463.114c0-6.211-5.021-11.235-11.23-11.235c-6.202,0-11.237,5.024-11.237,11.235
		c0,6.197,5.035,11.232,11.237,11.232C1457.228,474.347,1462.249,469.311,1462.249,463.114"/>
	<path style="fill:#FFFFFF;" d="M1419.163,485.023c0-6.605-5.359-11.966-11.966-11.966c-6.603,0-11.962,5.361-11.962,11.966
		c0,6.603,5.359,11.961,11.962,11.961C1413.805,496.984,1419.163,491.626,1419.163,485.023"/>
	<path style="fill:#FFFFFF;" d="M1609.425,441.206c0-2.278-1.837-4.115-4.11-4.115c-2.271,0-4.11,1.836-4.11,4.115
		c0,2.265,1.839,4.106,4.11,4.106C1607.588,445.311,1609.425,443.47,1609.425,441.206"/>
	<path style="fill:#FFFFFF;" d="M1565.614,463.114c0-2.278-1.843-4.124-4.121-4.124c-2.271,0-4.124,1.845-4.124,4.124
		c0,2.274,1.852,4.122,4.124,4.122C1563.771,467.236,1565.614,465.388,1565.614,463.114"/>
	<path style="fill:#FFFFFF;" d="M1918.493,506.932c0-3.153-2.559-5.705-5.701-5.705c-3.151,0-5.712,2.552-5.712,5.705
		c0,3.153,2.561,5.703,5.712,5.703C1915.935,512.634,1918.493,510.085,1918.493,506.932"/>
	<path style="fill:#FFFFFF;" d="M1041.678,419.402c0-2.265-1.829-4.096-4.092-4.096c-2.263,0-4.092,1.832-4.092,4.096
		c0,2.256,1.829,4.09,4.092,4.09C1039.848,423.491,1041.678,421.657,1041.678,419.402"/>
	<path style="fill:#FFFFFF;" d="M1790.422,419.365c0-2.483-2.012-4.493-4.497-4.493c-2.479,0-4.486,2.01-4.486,4.493
		c0,2.472,2.007,4.482,4.486,4.482C1788.41,423.847,1790.422,421.837,1790.422,419.365"/>
	<path style="fill:#FFFFFF;" d="M2025.002,441.203c0-1.37-1.103-2.477-2.467-2.477c-1.362,0-2.467,1.107-2.467,2.477
		c0,1.36,1.105,2.467,2.467,2.467C2023.899,443.671,2025.002,442.564,2025.002,441.203"/>
	<path style="fill:#FFFFFF;" d="M2057.378,441.203c0-7.211-5.844-13.053-13.048-13.053c-7.211,0-13.051,5.842-13.051,13.053
		c0,7.204,5.84,13.048,13.051,13.048C2051.534,454.251,2057.378,448.407,2057.378,441.203"/>
	<path style="fill:#FFFFFF;" d="M2100.45,441.203c0-6.926-5.612-12.538-12.54-12.538c-6.926,0-12.538,5.612-12.538,12.538
		c0,6.919,5.612,12.538,12.538,12.538C2094.838,453.741,2100.45,448.123,2100.45,441.203"/>
	<path style="fill:#FFFFFF;" d="M2052.773,506.938c0-4.666-3.784-8.441-8.444-8.441c-4.659,0-8.441,3.775-8.441,8.441
		c0,4.659,3.782,8.432,8.441,8.432C2048.989,515.371,2052.773,511.598,2052.773,506.938"/>
	<path style="fill:#FFFFFF;" d="M1249.592,419.292c0-0.294-0.239-0.54-0.54-0.54c-0.292,0-0.529,0.246-0.529,0.54
		c0,0.292,0.237,0.538,0.529,0.538C1249.353,419.83,1249.592,419.584,1249.592,419.292"/>
	<path style="fill:#FFFFFF;" d="M1326.969,441.203c0-6.926-5.612-12.538-12.538-12.538c-6.928,0-12.54,5.612-12.54,12.538
		c0,6.919,5.612,12.538,12.54,12.538C1321.358,453.741,1326.969,448.123,1326.969,441.203"/>
	<path style="fill:#FFFFFF;" d="M1324.101,463.11c0-5.336-4.327-9.672-9.669-9.672c-5.343,0-9.669,4.336-9.669,9.672
		c0,5.341,4.327,9.669,9.669,9.669C1319.774,472.779,1324.101,468.45,1324.101,463.11"/>
	<path style="fill:#FFFFFF;" d="M1283.71,485.023c0-7.104-5.757-12.864-12.859-12.864c-7.106,0-12.866,5.76-12.866,12.864
		s5.76,12.861,12.866,12.861C1277.953,497.884,1283.71,492.127,1283.71,485.023"/>
	<path style="fill:#FFFFFF;" d="M1693.152,397.374c0-4.721-3.82-8.551-8.551-8.551c-4.728,0-8.548,3.83-8.548,8.551
		c0,4.725,3.821,8.558,8.548,8.558C1689.331,405.932,1693.152,402.1,1693.152,397.374"/>
	<path style="fill:#FFFFFF;" d="M1123.423,211.344c0-3.012-2.438-5.457-5.445-5.457c-3.021,0-5.459,2.445-5.459,5.457
		c0,3.008,2.438,5.454,5.459,5.454C1120.985,216.798,1123.423,214.352,1123.423,211.344"/>
	<path style="fill:#FFFFFF;" d="M1152.527,233.257c0-6.985-5.66-12.645-12.636-12.645c-6.99,0-12.645,5.66-12.645,12.645
		c0,6.976,5.655,12.636,12.645,12.636C1146.867,245.893,1152.527,240.234,1152.527,233.257"/>
	<path style="fill:#FFFFFF;" d="M1496.268,167.527c0-5.591-4.529-10.118-10.107-10.118c-5.596,0-10.121,4.527-10.121,10.118
		c0,5.577,4.525,10.107,10.121,10.107C1491.738,177.633,1496.268,173.104,1496.268,167.527"/>
	<path style="fill:#FFFFFF;" d="M1612.769,211.344c0-1.084-0.875-1.959-1.968-1.959c-1.075,0-1.955,0.875-1.955,1.959
		c0,1.08,0.88,1.957,1.955,1.957C1611.894,213.301,1612.769,212.424,1612.769,211.344"/>
	<path style="fill:#FFFFFF;" d="M1687.294,233.251c0-5.935-4.821-10.742-10.754-10.742c-5.937,0-10.754,4.807-10.754,10.742
		c0,5.935,4.816,10.754,10.754,10.754C1682.473,244.004,1687.294,239.186,1687.294,233.251"/>
	<path style="fill:#FFFFFF;" d="M1356.609,233.255c0-5.461-4.429-9.895-9.897-9.895c-5.459,0-9.888,4.434-9.888,9.895
		s4.429,9.888,9.888,9.888C1352.179,243.143,1356.609,238.716,1356.609,233.255"/>
	<path style="fill:#FFFFFF;" d="M1374.261,255.157c0-3.901-3.167-7.063-7.072-7.063c-3.91,0-7.072,3.162-7.072,7.063
		c0,3.91,3.162,7.072,7.072,7.072C1371.094,262.229,1374.261,259.067,1374.261,255.157"/>
	<path style="fill:#FFFFFF;" d="M1420.284,255.157c0-6.703-5.441-12.141-12.148-12.141c-6.703,0-12.144,5.439-12.144,12.141
		c0,6.712,5.441,12.148,12.144,12.148C1414.844,267.305,1420.284,261.869,1420.284,255.157"/>
	<path style="fill:#FFFFFF;" d="M1347.946,277.075c0-0.679-0.556-1.228-1.235-1.228s-1.23,0.549-1.23,1.228
		c0,0.679,0.552,1.226,1.23,1.226S1347.946,277.754,1347.946,277.075"/>
	<path style="fill:#FFFFFF;" d="M1411.563,277.075c0-1.891-1.536-3.424-3.427-3.424c-1.896,0-3.427,1.533-3.427,3.424
		c0,1.891,1.531,3.431,3.427,3.431C1410.027,280.506,1411.563,278.966,1411.563,277.075"/>
</g>
<g id="Ebene_1">
</g>
</svg>
