<?xml version="1.0" encoding="iso-8859-1"?>
<!-- Generator: Adobe Illustrator 18.0.0, SVG Export Plug-In . SVG Version: 6.00 Build 0)  -->
<!DOCTYPE svg PUBLIC "-//W3C//DTD SVG 1.1//EN" "http://www.w3.org/Graphics/SVG/1.1/DTD/svg11.dtd">
<svg version="1.1" xmlns="http://www.w3.org/2000/svg" xmlns:xlink="http://www.w3.org/1999/xlink" x="0px" y="0px"
	 viewBox="0 0 1200 1643.104" style="enable-background:new 0 0 1200 1643.104;" xml:space="preserve">
<g id="f8">
	<path style="fill:#FFFFFF;" d="M364.699,817.458c0-1.043-0.843-1.889-1.889-1.889c-1.045,0-1.892,0.846-1.892,1.889
		c0,1.045,0.847,1.892,1.892,1.892C363.856,819.35,364.699,818.503,364.699,817.458"/>
	<path style="fill:#FFFFFF;" d="M383.86,836.243c0-0.949-0.77-1.72-1.72-1.72c-0.949,0-1.719,0.771-1.719,1.72
		c0,0.949,0.769,1.719,1.719,1.719C383.091,837.962,383.86,837.192,383.86,836.243"/>
	<path style="fill:#FFFFFF;" d="M396.384,836.243c0-2.68-2.172-4.853-4.852-4.853c-2.681,0-4.852,2.173-4.852,4.853
		c0,2.68,2.171,4.852,4.852,4.852C394.212,841.095,396.384,838.923,396.384,836.243"/>
	<path style="fill:#FFFFFF;" d="M507.81,826.852c0-2.691-2.183-4.875-4.874-4.875c-2.691,0-4.87,2.184-4.87,4.875
		c0,2.69,2.179,4.869,4.87,4.869C505.627,831.722,507.81,829.543,507.81,826.852"/>
	<path style="fill:#FFFFFF;" d="M606.04,826.852c0-1.778-1.438-3.222-3.218-3.222c-1.776,0-3.216,1.443-3.216,3.222
		c0,1.773,1.44,3.217,3.216,3.217C604.602,830.069,606.04,828.626,606.04,826.852"/>
	<path style="fill:#FFFFFF;" d="M626.419,836.243c0-2.662-2.152-4.815-4.813-4.815c-2.658,0-4.816,2.153-4.816,4.815
		c0,2.656,2.158,4.814,4.816,4.814C624.267,841.058,626.419,838.899,626.419,836.243"/>
	<path style="fill:#FFFFFF;" d="M607.951,845.634c0-2.831-2.297-5.129-5.129-5.129c-2.83,0-5.127,2.298-5.127,5.129
		c0,2.83,2.297,5.127,5.127,5.127C605.654,850.761,607.951,848.464,607.951,845.634"/>
	<path style="fill:#FFFFFF;" d="M689.502,826.852c0-0.977-0.787-1.764-1.762-1.764c-0.974,0-1.762,0.787-1.762,1.764
		c0,0.971,0.788,1.76,1.762,1.76C688.715,828.612,689.502,827.823,689.502,826.852"/>
	<path style="fill:#FFFFFF;" d="M670.724,836.243c0-0.977-0.79-1.768-1.767-1.768c-0.974,0-1.768,0.791-1.768,1.768
		c0,0.975,0.794,1.767,1.768,1.767C669.934,838.01,670.724,837.218,670.724,836.243"/>
	<path style="fill:#FFFFFF;" d="M821.977,855.024c0-1.352-1.097-2.445-2.443-2.445c-1.351,0-2.448,1.094-2.448,2.445
		s1.098,2.444,2.448,2.444C820.88,857.469,821.977,856.376,821.977,855.024"/>
	<path style="fill:#FFFFFF;" d="M446.151,817.507c0-0.971-0.784-1.756-1.754-1.756c-0.97,0-1.754,0.785-1.754,1.756
		c0,0.967,0.784,1.753,1.754,1.753C445.367,819.26,446.151,818.474,446.151,817.507"/>
	<path style="fill:#FFFFFF;" d="M767.082,817.491c0-1.064-0.862-1.926-1.928-1.926c-1.062,0-1.923,0.861-1.923,1.926
		c0,1.06,0.86,1.921,1.923,1.921C766.22,819.412,767.082,818.551,767.082,817.491"/>
	<path style="fill:#FFFFFF;" d="M867.629,826.852c0-0.587-0.473-1.062-1.058-1.062c-0.584,0-1.058,0.475-1.058,1.062
		c0,0.583,0.474,1.058,1.058,1.058C867.156,827.909,867.629,827.435,867.629,826.852"/>
	<path style="fill:#FFFFFF;" d="M881.506,826.852c0-3.091-2.505-5.595-5.593-5.595c-3.091,0-5.594,2.504-5.594,5.595
		c0,3.088,2.503,5.593,5.594,5.593C879.001,832.444,881.506,829.939,881.506,826.852"/>
	<path style="fill:#FFFFFF;" d="M899.968,826.852c0-2.969-2.405-5.374-5.375-5.374c-2.969,0-5.374,2.405-5.374,5.374
		c0,2.966,2.405,5.374,5.374,5.374C897.562,832.226,899.968,829.817,899.968,826.852"/>
	<path style="fill:#FFFFFF;" d="M879.532,855.027c0-2-1.622-3.618-3.619-3.618s-3.618,1.618-3.618,3.618
		c0,1.997,1.621,3.614,3.618,3.614S879.532,857.024,879.532,855.027"/>
	<path style="fill:#FFFFFF;" d="M535.269,817.46c0-0.126-0.103-0.232-0.232-0.232c-0.125,0-0.227,0.106-0.227,0.232
		c0,0.125,0.102,0.23,0.227,0.23C535.166,817.69,535.269,817.585,535.269,817.46"/>
	<path style="fill:#FFFFFF;" d="M568.435,826.852c0-2.969-2.405-5.374-5.374-5.374c-2.97,0-5.375,2.405-5.375,5.374
		c0,2.966,2.405,5.374,5.375,5.374C566.029,832.226,568.435,829.817,568.435,826.852"/>
	<path style="fill:#FFFFFF;" d="M567.205,836.241c0-2.287-1.854-4.146-4.145-4.146c-2.29,0-4.144,1.858-4.144,4.146
		c0,2.289,1.854,4.145,4.144,4.145C565.351,840.386,567.205,838.53,567.205,836.241"/>
	<path style="fill:#FFFFFF;" d="M549.893,845.634c0-3.045-2.468-5.514-5.512-5.514c-3.046,0-5.515,2.469-5.515,5.514
		c0,3.045,2.469,5.513,5.515,5.513C547.425,851.146,549.893,848.679,549.893,845.634"/>
	<path style="fill:#FFFFFF;" d="M725.39,808.065c0-2.023-1.638-3.665-3.665-3.665c-2.026,0-3.664,1.642-3.664,3.665
		c0,2.025,1.638,3.668,3.664,3.668C723.752,811.733,725.39,810.091,725.39,808.065"/>
	<path style="fill:#FFFFFF;" d="M481.189,728.328c0-1.291-1.045-2.339-2.334-2.339c-1.295,0-2.34,1.048-2.34,2.339
		c0,1.289,1.045,2.338,2.34,2.338C480.145,730.666,481.189,729.617,481.189,728.328"/>
	<path style="fill:#FFFFFF;" d="M493.664,737.721c0-2.994-2.426-5.42-5.416-5.42c-2.996,0-5.42,2.426-5.42,5.42
		c0,2.99,2.424,5.416,5.42,5.416C491.238,743.137,493.664,740.711,493.664,737.721"/>
	<path style="fill:#FFFFFF;" d="M641,709.547c0-2.397-1.941-4.337-4.332-4.337c-2.399,0-4.338,1.94-4.338,4.337
		c0,2.391,1.939,4.332,4.338,4.332C639.059,713.879,641,711.937,641,709.547"/>
	<path style="fill:#FFFFFF;" d="M690.935,728.328c0-0.465-0.375-0.84-0.844-0.84c-0.461,0-0.838,0.375-0.838,0.84
		c0,0.463,0.377,0.839,0.838,0.839C690.56,729.167,690.935,728.791,690.935,728.328"/>
	<path style="fill:#FFFFFF;" d="M722.879,737.718c0-2.544-2.066-4.604-4.609-4.604c-2.545,0-4.609,2.06-4.609,4.604
		c0,2.544,2.064,4.609,4.609,4.609C720.812,742.327,722.879,740.262,722.879,737.718"/>
	<path style="fill:#FFFFFF;" d="M581.139,737.72c0-2.341-1.898-4.241-4.242-4.241c-2.34,0-4.238,1.9-4.238,4.241
		s1.898,4.238,4.238,4.238C579.24,741.958,581.139,740.06,581.139,737.72"/>
	<path style="fill:#FFFFFF;" d="M588.705,747.107c0-1.672-1.357-3.027-3.031-3.027c-1.676,0-3.031,1.355-3.031,3.027
		c0,1.676,1.355,3.031,3.031,3.031C587.348,750.139,588.705,748.783,588.705,747.107"/>
	<path style="fill:#FFFFFF;" d="M608.432,747.107c0-2.873-2.332-5.204-5.207-5.204c-2.873,0-5.205,2.331-5.205,5.204
		c0,2.877,2.332,5.207,5.205,5.207C606.1,752.314,608.432,749.984,608.432,747.107"/>
	<path style="fill:#FFFFFF;" d="M577.426,756.502c0-0.291-0.238-0.526-0.529-0.526s-0.527,0.235-0.527,0.526
		c0,0.291,0.236,0.525,0.527,0.525S577.426,756.793,577.426,756.502"/>
	<path style="fill:#FFFFFF;" d="M604.693,756.502c0-0.81-0.658-1.468-1.469-1.468c-0.812,0-1.469,0.657-1.469,1.468
		c0,0.811,0.656,1.471,1.469,1.471C604.035,757.973,604.693,757.312,604.693,756.502"/>
</g>
<g id="Ebene_1">
</g>
</svg>
