<?xml version="1.0" encoding="iso-8859-1"?>
<!-- Generator: Adobe Illustrator 18.0.0, SVG Export Plug-In . SVG Version: 6.00 Build 0)  -->
<!DOCTYPE svg PUBLIC "-//W3C//DTD SVG 1.1//EN" "http://www.w3.org/Graphics/SVG/1.1/DTD/svg11.dtd">
<svg version="1.1" xmlns="http://www.w3.org/2000/svg" xmlns:xlink="http://www.w3.org/1999/xlink" x="0px" y="0px"
	 viewBox="0 0 1200 1643.104" style="enable-background:new 0 0 1200 1643.104;" xml:space="preserve">
<g id="f9">
	<path style="fill:#FFFFFF;" d="M299.575,817.458c0-1.385-1.119-2.504-2.504-2.504c-1.384,0-2.507,1.119-2.507,2.504
		c0,1.383,1.123,2.506,2.507,2.506C298.456,819.964,299.575,818.841,299.575,817.458"/>
	<path style="fill:#FFFFFF;" d="M311.248,826.852c0-2.647-2.142-4.789-4.786-4.789c-2.643,0-4.788,2.142-4.788,4.789
		c0,2.643,2.146,4.785,4.788,4.785C309.105,831.638,311.248,829.495,311.248,826.852"/>
	<path style="fill:#FFFFFF;" d="M319.84,855.024c0-2.201-1.785-3.986-3.986-3.986c-2.202,0-3.987,1.785-3.987,3.986
		c0,2.201,1.785,3.986,3.987,3.986C318.055,859.011,319.84,857.226,319.84,855.024"/>
	<path style="fill:#FFFFFF;" d="M420.342,826.852c0-0.35-0.284-0.634-0.634-0.634c-0.35,0-0.633,0.284-0.633,0.634
		c0,0.346,0.283,0.629,0.633,0.629C420.058,827.481,420.342,827.198,420.342,826.852"/>
	<path style="fill:#FFFFFF;" d="M488.665,817.458c0-2.489-2.019-4.51-4.51-4.51c-2.493,0-4.51,2.021-4.51,4.51
		c0,2.492,2.017,4.512,4.51,4.512C486.646,821.97,488.665,819.95,488.665,817.458"/>
	<path style="fill:#FFFFFF;" d="M494.684,817.458c0-0.626-0.509-1.139-1.138-1.139c-0.63,0-1.138,0.513-1.138,1.139
		c0,0.629,0.508,1.141,1.138,1.141C494.175,818.599,494.684,818.087,494.684,817.458"/>
	<path style="fill:#FFFFFF;" d="M489.206,826.852c0-2.791-2.261-5.051-5.051-5.051c-2.791,0-5.051,2.26-5.051,5.051
		c0,2.786,2.26,5.047,5.051,5.047C486.945,831.899,489.206,829.639,489.206,826.852"/>
	<path style="fill:#FFFFFF;" d="M514.455,836.243c0-1.175-0.95-2.128-2.128-2.128c-1.174,0-2.124,0.953-2.124,2.128
		c0,1.174,0.95,2.127,2.124,2.127C513.505,838.37,514.455,837.417,514.455,836.243"/>
	<path style="fill:#FFFFFF;" d="M507.056,845.634c0-2.275-1.845-4.115-4.119-4.115c-2.271,0-4.115,1.84-4.115,4.115
		c0,2.275,1.844,4.115,4.115,4.115C505.211,849.749,507.056,847.909,507.056,845.634"/>
	<path style="fill:#FFFFFF;" d="M632.663,855.024c0-0.92-0.747-1.664-1.663-1.664c-0.922,0-1.669,0.744-1.669,1.664
		s0.747,1.668,1.669,1.668C631.916,856.692,632.663,855.944,632.663,855.024"/>
	<path style="fill:#FFFFFF;" d="M670.282,817.458c0-0.73-0.595-1.323-1.325-1.323c-0.731,0-1.322,0.593-1.322,1.323
		c0,0.731,0.591,1.322,1.322,1.322C669.688,818.78,670.282,818.188,670.282,817.458"/>
	<path style="fill:#FFFFFF;" d="M848.558,826.852c0-0.477-0.382-0.858-0.852-0.858s-0.854,0.382-0.854,0.858
		c0,0.471,0.384,0.853,0.854,0.853S848.558,827.323,848.558,826.852"/>
	<path style="fill:#FFFFFF;" d="M830.288,845.634c0-0.755-0.61-1.37-1.364-1.37c-0.76,0-1.37,0.615-1.37,1.37
		c0,0.754,0.61,1.369,1.37,1.369C829.678,847.003,830.288,846.388,830.288,845.634"/>
	<path style="fill:#FFFFFF;" d="M848.869,845.634c0-0.641-0.522-1.164-1.164-1.164s-1.16,0.523-1.16,1.164
		c0,0.641,0.519,1.163,1.16,1.163S848.869,846.274,848.869,845.634"/>
	<path style="fill:#FFFFFF;" d="M449.71,836.289c0-2.935-2.379-5.312-5.312-5.312s-5.312,2.377-5.312,5.312
		c0,2.933,2.378,5.312,5.312,5.312S449.71,839.223,449.71,836.289"/>
	<path style="fill:#FFFFFF;" d="M779.457,817.491c0-2.713-2.198-4.911-4.911-4.911c-2.709,0-4.907,2.198-4.907,4.911
		c0,2.709,2.198,4.906,4.907,4.906C777.259,822.397,779.457,820.2,779.457,817.491"/>
	<path style="fill:#FFFFFF;" d="M787.456,817.491c0-1.944-1.575-3.519-3.515-3.519c-1.944,0-3.52,1.575-3.52,3.519
		c0,1.94,1.575,3.515,3.52,3.515C785.881,821.006,787.456,819.431,787.456,817.491"/>
	<path style="fill:#FFFFFF;" d="M786.639,855.054c0-1.49-1.206-2.697-2.697-2.697c-1.492,0-2.702,1.207-2.702,2.697
		c0,1.49,1.21,2.702,2.702,2.702C785.433,857.756,786.639,856.544,786.639,855.054"/>
	<path style="fill:#FFFFFF;" d="M895.875,817.46c0-0.709-0.573-1.279-1.282-1.279c-0.704,0-1.277,0.57-1.277,1.279
		c0,0.707,0.573,1.277,1.277,1.277C895.302,818.737,895.875,818.167,895.875,817.46"/>
	<path style="fill:#FFFFFF;" d="M867.62,836.241c0-0.576-0.469-1.048-1.049-1.048c-0.577,0-1.049,0.472-1.049,1.048
		c0,0.58,0.472,1.047,1.049,1.047C867.151,837.288,867.62,836.821,867.62,836.241"/>
	<path style="fill:#FFFFFF;" d="M881.466,836.241c0-3.064-2.488-5.549-5.553-5.549c-3.069,0-5.553,2.484-5.553,5.549
		c0,3.068,2.483,5.553,5.553,5.553C878.977,841.794,881.466,839.31,881.466,836.241"/>
	<path style="fill:#FFFFFF;" d="M881.427,845.634c0-3.045-2.47-5.514-5.514-5.514c-3.046,0-5.514,2.469-5.514,5.514
		c0,3.045,2.468,5.513,5.514,5.513C878.957,851.146,881.427,848.679,881.427,845.634"/>
	<path style="fill:#FFFFFF;" d="M545.398,817.46c0-0.565-0.455-1.023-1.018-1.023c-0.564,0-1.023,0.458-1.023,1.023
		c0,0.562,0.459,1.021,1.023,1.021C544.943,818.481,545.398,818.022,545.398,817.46"/>
	<path style="fill:#FFFFFF;" d="M549.932,836.241c0-3.064-2.487-5.549-5.551-5.549c-3.069,0-5.554,2.484-5.554,5.549
		c0,3.068,2.484,5.553,5.554,5.553C547.444,841.794,549.932,839.31,549.932,836.241"/>
	<path style="fill:#FFFFFF;" d="M567.202,845.634c0-2.287-1.855-4.139-4.142-4.139c-2.287,0-4.14,1.852-4.14,4.139
		c0,2.287,1.852,4.139,4.14,4.139C565.347,849.772,567.202,847.921,567.202,845.634"/>
	<path style="fill:#FFFFFF;" d="M565.778,855.027c0-1.502-1.216-2.718-2.718-2.718c-1.5,0-2.719,1.216-2.719,2.718
		c0,1.499,1.219,2.716,2.719,2.716C564.562,857.743,565.778,856.526,565.778,855.027"/>
	<path style="fill:#FFFFFF;" d="M715.168,817.458c0-1.602-1.303-2.9-2.904-2.9c-1.603,0-2.9,1.299-2.9,2.9
		c0,1.602,1.298,2.9,2.9,2.9C713.865,820.358,715.168,819.06,715.168,817.458"/>
	<path style="fill:#FFFFFF;" d="M745.755,845.632c0-2.584-2.097-4.68-4.682-4.68c-2.584,0-4.681,2.096-4.681,4.68
		c0,2.584,2.097,4.681,4.681,4.681C743.658,850.312,745.755,848.216,745.755,845.632"/>
	<path style="fill:#FFFFFF;" d="M552.953,718.937c0-1.017-0.822-1.839-1.838-1.839c-1.016,0-1.836,0.822-1.836,1.839
		c0,1.016,0.82,1.837,1.836,1.837C552.131,720.774,552.953,719.953,552.953,718.937"/>
	<path style="fill:#FFFFFF;" d="M534.463,747.109c0-1.174-0.955-2.128-2.129-2.128c-1.178,0-2.131,0.954-2.131,2.128
		c0,1.178,0.953,2.131,2.131,2.131C533.508,749.24,534.463,748.287,534.463,747.109"/>
	<path style="fill:#FFFFFF;" d="M481.189,718.937c0-1.294-1.045-2.339-2.334-2.339c-1.295,0-2.34,1.045-2.34,2.339
		c0,1.289,1.045,2.338,2.34,2.338C480.145,721.275,481.189,720.227,481.189,718.937"/>
	<path style="fill:#FFFFFF;" d="M501.752,728.328c0-2.271-1.844-4.115-4.115-4.115c-2.272,0-4.115,1.844-4.115,4.115
		s1.844,4.115,4.115,4.115C499.908,732.443,501.752,730.6,501.752,728.328"/>
	<path style="fill:#FFFFFF;" d="M481.189,747.109c0-1.289-1.045-2.336-2.334-2.336c-1.295,0-2.34,1.047-2.34,2.336
		c0,1.293,1.045,2.338,2.34,2.338C480.145,749.447,481.189,748.402,481.189,747.109"/>
	<path style="fill:#FFFFFF;" d="M642.082,737.721c0-2.995-2.424-5.42-5.414-5.42c-2.996,0-5.42,2.425-5.42,5.42
		c0,2.99,2.424,5.416,5.42,5.416C639.658,743.137,642.082,740.711,642.082,737.721"/>
	<path style="fill:#FFFFFF;" d="M668.443,728.328c0-1.992-1.611-3.604-3.604-3.604c-1.988,0-3.604,1.611-3.604,3.604
		c0,1.991,1.615,3.604,3.604,3.604C666.832,731.932,668.443,730.319,668.443,728.328"/>
	<path style="fill:#FFFFFF;" d="M709.598,747.109c0-0.397-0.322-0.72-0.719-0.72c-0.398,0-0.721,0.323-0.721,0.72
		c0,0.396,0.322,0.719,0.721,0.719C709.275,747.828,709.598,747.506,709.598,747.109"/>
	<path style="fill:#FFFFFF;" d="M704.428,737.718c0-2.728-2.213-4.94-4.939-4.94c-2.732,0-4.94,2.213-4.94,4.94
		c0,2.729,2.207,4.94,4.94,4.94C702.215,742.658,704.428,740.446,704.428,737.718"/>
	<path style="fill:#FFFFFF;" d="M596.125,718.935c0-0.925-0.748-1.678-1.674-1.678c-0.928,0-1.68,0.753-1.68,1.678
		c0,0.923,0.752,1.676,1.68,1.676C595.377,720.611,596.125,719.858,596.125,718.935"/>
	<path style="fill:#FFFFFF;" d="M587.69,737.72c0-1.114-0.902-2.015-2.016-2.015c-1.115,0-2.016,0.9-2.016,2.015
		c0,1.114,0.9,2.015,2.016,2.015C586.787,739.734,587.69,738.834,587.69,737.72"/>
</g>
<g id="Ebene_1">
</g>
</svg>
