<?xml version="1.0" encoding="iso-8859-1"?>
<!-- Generator: Adobe Illustrator 18.0.0, SVG Export Plug-In . SVG Version: 6.00 Build 0)  -->
<!DOCTYPE svg PUBLIC "-//W3C//DTD SVG 1.1//EN" "http://www.w3.org/Graphics/SVG/1.1/DTD/svg11.dtd">
<svg version="1.1" xmlns="http://www.w3.org/2000/svg" xmlns:xlink="http://www.w3.org/1999/xlink" x="0px" y="0px"
	 viewBox="0 0 2800 700" style="enable-background:new 0 0 2800 700;" xml:space="preserve">
<g id="m10">
	<path style="fill:#FFFFFF;" d="M1433.654,208.84c0-5.877-4.761-10.647-10.643-10.647c-5.868,0-10.643,4.77-10.643,10.647
		c0,5.881,4.775,10.638,10.643,10.638C1428.893,219.478,1433.654,214.721,1433.654,208.84"/>
	<path style="fill:#FFFFFF;" d="M1361.203,252.591c0-2.109-1.705-3.814-3.812-3.814c-2.111,0-3.815,1.705-3.815,3.814
		c0,2.118,1.704,3.818,3.815,3.818C1359.498,256.409,1361.203,254.708,1361.203,252.591"/>
	<path style="fill:#FFFFFF;" d="M1067.23,230.389c0-4.262-3.447-7.709-7.708-7.709c-4.264,0-7.709,3.446-7.709,7.709
		c0,4.267,3.445,7.714,7.709,7.714C1063.782,238.102,1067.23,234.656,1067.23,230.389"/>
	<path style="fill:#FFFFFF;" d="M996.446,252.259c0-1.401-1.138-2.544-2.554-2.544c-1.406,0-2.548,1.143-2.548,2.544
		c0,1.406,1.143,2.553,2.548,2.553C995.308,254.812,996.446,253.665,996.446,252.259"/>
	<path style="fill:#FFFFFF;" d="M1064.47,252.259c0-2.721-2.212-4.947-4.948-4.947c-2.734,0-4.95,2.226-4.95,4.947
		c0,2.739,2.215,4.956,4.95,4.956C1062.258,257.216,1064.47,254.998,1064.47,252.259"/>
	<path style="fill:#FFFFFF;" d="M1526.002,252.259c0-2.494-2.027-4.526-4.526-4.526c-2.505,0-4.526,2.032-4.526,4.526
		c0,2.508,2.02,4.53,4.526,4.53C1523.975,256.79,1526.002,254.767,1526.002,252.259"/>
	<path style="fill:#FFFFFF;" d="M1657.451,186.643c0-2.834-2.297-5.147-5.138-5.147c-2.832,0-5.142,2.313-5.142,5.147
		s2.31,5.129,5.142,5.129C1655.154,191.772,1657.451,189.477,1657.451,186.643"/>
	<path style="fill:#FFFFFF;" d="M1684.652,208.518c0-5.782-4.682-10.466-10.461-10.466c-5.782,0-10.462,4.684-10.462,10.466
		c0,5.777,4.68,10.457,10.462,10.457C1679.97,218.975,1684.652,214.295,1684.652,208.518"/>
	<path style="fill:#FFFFFF;" d="M1640.668,230.389c0-5.646-4.582-10.226-10.223-10.226c-5.655,0-10.224,4.58-10.224,10.226
		s4.569,10.226,10.224,10.226C1636.086,240.615,1640.668,236.034,1640.668,230.389"/>
	<path style="fill:#FFFFFF;" d="M1759.32,230.389c0-3.669-2.979-6.648-6.643-6.648c-3.676,0-6.65,2.979-6.65,6.648
		c0,3.673,2.975,6.643,6.65,6.643C1756.341,237.032,1759.32,234.062,1759.32,230.389"/>
	<path style="fill:#FFFFFF;" d="M1748.337,420.103c0-1.929-1.555-3.492-3.483-3.492c-1.927,0-3.492,1.562-3.492,3.492
		c0,1.934,1.564,3.487,3.492,3.487C1746.781,423.59,1748.337,422.037,1748.337,420.103"/>
	<path style="fill:#FFFFFF;" d="M1849.7,420.498c0-1.469-1.197-2.66-2.666-2.66c-1.474,0-2.671,1.19-2.671,2.66
		c0,1.476,1.197,2.685,2.671,2.685C1848.503,423.182,1849.7,421.974,1849.7,420.498"/>
	<path style="fill:#FFFFFF;" d="M1894.507,464.262c0-2.061-1.664-3.734-3.718-3.734c-2.063,0-3.723,1.673-3.723,3.734
		c0,2.054,1.66,3.723,3.723,3.723C1892.843,467.985,1894.507,466.316,1894.507,464.262"/>
	<path style="fill:#FFFFFF;" d="M927.892,398.629c0-1.68-1.361-3.056-3.051-3.056c-1.691,0-3.055,1.376-3.055,3.056
		c0,1.691,1.364,3.059,3.055,3.059C926.531,401.688,927.892,400.321,927.892,398.629"/>
	<path style="fill:#FFFFFF;" d="M927.892,508.007c0-1.694-1.361-3.054-3.051-3.054c-1.691,0-3.055,1.36-3.055,3.054
		c0,1.689,1.364,3.052,3.055,3.052C926.531,511.059,927.892,509.697,927.892,508.007"/>
	<path style="fill:#FFFFFF;" d="M1372.981,420.498c0-2.077-1.688-3.768-3.773-3.768c-2.089,0-3.78,1.691-3.78,3.768
		c0,2.097,1.69,3.784,3.78,3.784C1371.293,424.282,1372.981,422.595,1372.981,420.498"/>
	<path style="fill:#FFFFFF;" d="M1403.267,486.132c0-6.732-5.455-12.185-12.185-12.185c-6.734,0-12.186,5.453-12.186,12.185
		c0,6.732,5.452,12.18,12.186,12.18C1397.812,498.313,1403.267,492.864,1403.267,486.132"/>
	<path style="fill:#FFFFFF;" d="M1661.988,442.387c0-5.594-4.537-10.117-10.121-10.117c-5.575,0-10.112,4.523-10.112,10.117
		c0,5.58,4.537,10.112,10.112,10.112C1657.451,452.499,1661.988,447.966,1661.988,442.387"/>
	<path style="fill:#FFFFFF;" d="M1554.861,464.262c0-6.829-5.537-12.373-12.368-12.373c-6.836,0-12.373,5.544-12.373,12.373
		c0,6.834,5.537,12.375,12.373,12.375C1549.324,476.637,1554.861,471.095,1554.861,464.262"/>
	<path style="fill:#FFFFFF;" d="M1615.854,486.132c0-4.269-3.462-7.734-7.729-7.734c-4.283,0-7.732,3.465-7.732,7.734
		c0,4.274,3.449,7.738,7.732,7.738C1612.392,493.871,1615.854,490.406,1615.854,486.132"/>
</g>
<g id="Ebene_1">
</g>
</svg>
