<?xml version="1.0" encoding="iso-8859-1"?>
<!-- Generator: Adobe Illustrator 18.0.0, SVG Export Plug-In . SVG Version: 6.00 Build 0)  -->
<!DOCTYPE svg PUBLIC "-//W3C//DTD SVG 1.1//EN" "http://www.w3.org/Graphics/SVG/1.1/DTD/svg11.dtd">
<svg version="1.1" xmlns="http://www.w3.org/2000/svg" xmlns:xlink="http://www.w3.org/1999/xlink" x="0px" y="0px"
	 viewBox="0 0 2800 700" style="enable-background:new 0 0 2800 700;" xml:space="preserve">
<g id="m2">
	<path style="fill:#FFFFFF;" d="M1404.628,186.965c0-1.936-1.567-3.487-3.487-3.487c-1.936,0-3.496,1.551-3.496,3.487
		c0,1.927,1.56,3.492,3.496,3.492C1403.061,190.457,1404.628,188.892,1404.628,186.965"/>
	<path style="fill:#FFFFFF;" d="M1046.437,164.763c0-4.843-3.935-8.784-8.791-8.784c-4.852,0-8.788,3.94-8.788,8.784
		c0,4.861,3.936,8.784,8.788,8.784C1042.502,173.547,1046.437,169.624,1046.437,164.763"/>
	<path style="fill:#FFFFFF;" d="M1107.986,274.144c0-2.603-2.111-4.712-4.717-4.712c-2.598,0-4.707,2.109-4.707,4.712
		s2.109,4.712,4.707,4.712C1105.875,278.855,1107.986,276.747,1107.986,274.144"/>
	<path style="fill:#FFFFFF;" d="M1309.627,164.763c0-6.172-5.008-11.182-11.194-11.182c-6.177,0-11.188,5.011-11.188,11.182
		c0,6.176,5.011,11.187,11.188,11.187C1304.619,175.95,1309.627,170.939,1309.627,164.763"/>
	<path style="fill:#FFFFFF;" d="M1213.786,208.518c0-1.583-1.278-2.857-2.856-2.857c-1.568,0-2.843,1.274-2.843,2.857
		c0,1.573,1.275,2.857,2.843,2.857C1212.509,211.375,1213.786,210.092,1213.786,208.518"/>
	<path style="fill:#FFFFFF;" d="M1324.333,208.518c0-2.222-1.801-4.018-4.023-4.018c-2.221,0-4.02,1.796-4.02,4.018
		c0,2.217,1.799,4.018,4.02,4.018C1322.531,212.536,1324.333,210.736,1324.333,208.518"/>
	<path style="fill:#FFFFFF;" d="M1553.809,208.518c0-5.782-4.675-10.466-10.453-10.466c-5.782,0-10.471,4.684-10.471,10.466
		c0,5.777,4.689,10.457,10.471,10.457C1549.134,218.975,1553.809,214.295,1553.809,208.518"/>
	<path style="fill:#FFFFFF;" d="M1510.104,296.023c0-5.809-4.696-10.516-10.498-10.516c-5.809,0-10.521,4.707-10.521,10.516
		c0,5.8,4.711,10.498,10.521,10.498C1505.408,306.521,1510.104,301.823,1510.104,296.023"/>
	<path style="fill:#FFFFFF;" d="M1681.995,230.389c0-4.317-3.492-7.809-7.804-7.809c-4.317,0-7.813,3.492-7.813,7.809
		c0,4.312,3.496,7.809,7.813,7.809C1678.503,238.198,1681.995,234.701,1681.995,230.389"/>
	<path style="fill:#FFFFFF;" d="M1786.154,296.023c0-6.412-5.203-11.6-11.609-11.6s-11.597,5.188-11.597,11.6
		c0,6.408,5.192,11.591,11.597,11.591S1786.154,302.431,1786.154,296.023"/>
	<path style="fill:#FFFFFF;" d="M1467.356,463.903c0-5.804-4.7-10.504-10.516-10.504c-5.807,0-10.511,4.7-10.511,10.504
		c0,5.804,4.705,10.516,10.511,10.516C1462.656,474.419,1467.356,469.708,1467.356,463.903"/>
	<path style="fill:#FFFFFF;" d="M1467.283,485.774c0-5.759-4.671-10.434-10.443-10.434c-5.764,0-10.437,4.675-10.437,10.434
		c0,5.764,4.673,10.448,10.437,10.448C1462.613,496.222,1467.283,491.538,1467.283,485.774"/>
	<path style="fill:#FFFFFF;" d="M1460.649,507.649c0-2.1-1.701-3.802-3.809-3.802c-2.104,0-3.809,1.703-3.809,3.802
		c0,2.116,1.705,3.816,3.809,3.816C1458.948,511.465,1460.649,509.765,1460.649,507.649"/>
	<path style="fill:#FFFFFF;" d="M1120.739,420.724c0-0.547-0.442-0.993-0.994-0.993c-0.545,0-0.99,0.446-0.99,0.993
		c0,0.544,0.444,0.986,0.99,0.986C1120.297,421.711,1120.739,421.269,1120.739,420.724"/>
	<path style="fill:#FFFFFF;" d="M1192.968,508.007c0-4.528-3.671-8.201-8.199-8.201c-4.529,0-8.199,3.673-8.199,8.201
		s3.67,8.201,8.199,8.201C1189.297,516.209,1192.968,512.535,1192.968,508.007"/>
	<path style="fill:#FFFFFF;" d="M1283.906,420.498c0-3.108-2.519-5.627-5.628-5.627c-3.111,0-5.643,2.519-5.643,5.627
		c0,3.124,2.533,5.643,5.643,5.643C1281.387,426.141,1283.906,423.622,1283.906,420.498"/>
	<path style="fill:#FFFFFF;" d="M1287.86,508.007c0-5.301-4.284-9.586-9.582-9.586c-5.301,0-9.595,4.285-9.595,9.586
		c0,5.297,4.294,9.595,9.595,9.595C1283.576,517.603,1287.86,513.304,1287.86,508.007"/>
	<path style="fill:#FFFFFF;" d="M1392.654,420.498c0-0.866-0.708-1.555-1.571-1.555c-0.866,0-1.569,0.689-1.569,1.555
		c0,0.871,0.703,1.574,1.569,1.574C1391.946,422.071,1392.654,421.368,1392.654,420.498"/>
	<path style="fill:#FFFFFF;" d="M1357.924,442.387c0-5.859-4.739-10.6-10.6-10.6c-5.842,0-10.596,4.741-10.596,10.6
		c0,5.841,4.755,10.593,10.596,10.593C1353.185,452.98,1357.924,448.227,1357.924,442.387"/>
	<path style="fill:#FFFFFF;" d="M1396.384,464.262c0-2.938-2.378-5.312-5.301-5.312c-2.93,0-5.315,2.374-5.315,5.312
		c0,2.916,2.385,5.301,5.315,5.301C1394.005,469.563,1396.384,467.177,1396.384,464.262"/>
	<path style="fill:#FFFFFF;" d="M1354.897,508.007c0-4.176-3.386-7.564-7.573-7.564c-4.173,0-7.557,3.387-7.557,7.564
		c0,4.183,3.384,7.571,7.557,7.571C1351.511,515.578,1354.897,512.191,1354.897,508.007"/>
	<path style="fill:#FFFFFF;" d="M1617.548,442.387c0-5.208-4.222-9.423-9.423-9.423c-5.206,0-9.425,4.215-9.425,9.423
		c0,5.197,4.219,9.425,9.425,9.425C1613.326,451.812,1617.548,447.583,1617.548,442.387"/>
	<path style="fill:#FFFFFF;" d="M1855.414,508.007c0-4.637-3.759-8.38-8.38-8.38c-4.63,0-8.378,3.743-8.378,8.38
		c0,4.628,3.748,8.382,8.378,8.382C1851.655,516.39,1855.414,512.635,1855.414,508.007"/>
	<path style="fill:#FFFFFF;" d="M1894.371,508.007c0-1.982-1.605-3.587-3.582-3.587c-1.982,0-3.587,1.605-3.587,3.587
		c0,1.98,1.605,3.582,3.587,3.582C1892.766,511.59,1894.371,509.987,1894.371,508.007"/>
</g>
<g id="Ebene_1">
</g>
</svg>
