<?xml version="1.0" encoding="iso-8859-1"?>
<!-- Generator: Adobe Illustrator 18.0.0, SVG Export Plug-In . SVG Version: 6.00 Build 0)  -->
<!DOCTYPE svg PUBLIC "-//W3C//DTD SVG 1.1//EN" "http://www.w3.org/Graphics/SVG/1.1/DTD/svg11.dtd">
<svg version="1.1" xmlns="http://www.w3.org/2000/svg" xmlns:xlink="http://www.w3.org/1999/xlink" x="0px" y="0px"
	 viewBox="0 0 2800 700" style="enable-background:new 0 0 2800 700;" xml:space="preserve">
<g id="m3">
	<path style="fill:#FFFFFF;" d="M1017.728,186.643c0-1.088-0.875-1.959-1.957-1.959c-1.079,0-1.953,0.871-1.953,1.959
		c0,1.079,0.874,1.964,1.953,1.964C1016.853,188.606,1017.728,187.722,1017.728,186.643"/>
	<path style="fill:#FFFFFF;" d="M1085.332,274.144c0-2.177-1.761-3.936-3.937-3.936c-2.168,0-3.935,1.759-3.935,3.936
		c0,2.172,1.767,3.936,3.935,3.936C1083.571,278.08,1085.332,276.316,1085.332,274.144"/>
	<path style="fill:#FFFFFF;" d="M1245.182,164.763c0-6.829-5.54-12.366-12.374-12.366c-6.833,0-12.365,5.537-12.365,12.366
		c0,6.838,5.532,12.37,12.365,12.37C1239.642,177.134,1245.182,171.602,1245.182,164.763"/>
	<path style="fill:#FFFFFF;" d="M1309.645,252.259c0-6.176-5.02-11.196-11.212-11.196c-6.187,0-11.202,5.02-11.202,11.196
		c0,6.19,5.014,11.205,11.202,11.205C1304.625,263.465,1309.645,258.449,1309.645,252.259"/>
	<path style="fill:#FFFFFF;" d="M1322.94,274.144c0-1.456-1.172-2.63-2.631-2.63c-1.451,0-2.632,1.174-2.632,2.63
		c0,1.451,1.181,2.639,2.632,2.639C1321.768,276.783,1322.94,275.595,1322.94,274.144"/>
	<path style="fill:#FFFFFF;" d="M1752.615,507.609c0-4.288-3.48-7.766-7.761-7.766c-4.281,0-7.754,3.478-7.754,7.766
		c0,4.292,3.474,7.752,7.754,7.752C1749.135,515.36,1752.615,511.901,1752.615,507.609"/>
	<path style="fill:#FFFFFF;" d="M1481.588,398.271c0-1.571-1.29-2.861-2.87-2.861c-1.58,0-2.866,1.29-2.866,2.861
		c0,1.589,1.286,2.877,2.866,2.877C1480.297,401.148,1481.588,399.861,1481.588,398.271"/>
	<path style="fill:#FFFFFF;" d="M1060.396,442.604c0-3.734-3.03-6.761-6.761-6.761c-3.732,0-6.757,3.027-6.757,6.761
		c0,3.734,3.025,6.759,6.757,6.759C1057.366,449.363,1060.396,446.338,1060.396,442.604"/>
	<path style="fill:#FFFFFF;" d="M1060.396,464.475c0-3.734-3.03-6.761-6.761-6.761c-3.732,0-6.757,3.027-6.757,6.761
		c0,3.732,3.025,6.761,6.757,6.761C1057.366,471.236,1060.396,468.207,1060.396,464.475"/>
	<path style="fill:#FFFFFF;" d="M1086.102,464.475c0-5.759-4.673-10.427-10.43-10.427c-5.754,0-10.426,4.669-10.426,10.427
		c0,5.764,4.673,10.43,10.426,10.43C1081.429,474.904,1086.102,470.238,1086.102,464.475"/>
	<path style="fill:#FFFFFF;" d="M1195.283,442.387c0-5.813-4.711-10.509-10.514-10.509c-5.807,0-10.51,4.696-10.51,10.509
		c0,5.802,4.704,10.511,10.51,10.511C1190.572,452.898,1195.283,448.189,1195.283,442.387"/>
	<path style="fill:#FFFFFF;" d="M1399.259,442.387c0-4.521-3.659-8.192-8.176-8.192c-4.519,0-8.182,3.671-8.182,8.192
		c0,4.517,3.663,8.178,8.182,8.178C1395.599,450.565,1399.259,446.903,1399.259,442.387"/>
</g>
<g id="Ebene_1">
</g>
</svg>
