<?xml version="1.0" encoding="iso-8859-1"?>
<!-- Generator: Adobe Illustrator 18.0.0, SVG Export Plug-In . SVG Version: 6.00 Build 0)  -->
<!DOCTYPE svg PUBLIC "-//W3C//DTD SVG 1.1//EN" "http://www.w3.org/Graphics/SVG/1.1/DTD/svg11.dtd">
<svg version="1.1" xmlns="http://www.w3.org/2000/svg" xmlns:xlink="http://www.w3.org/1999/xlink" x="0px" y="0px"
	 viewBox="0 0 2800 700" style="enable-background:new 0 0 2800 700;" xml:space="preserve">
<g id="m4">
	<path style="fill:#FFFFFF;" d="M1068.953,186.643c0-5.215-4.22-9.432-9.431-9.432c-5.215,0-9.433,4.217-9.433,9.432
		s4.218,9.432,9.433,9.432C1064.732,196.075,1068.953,191.858,1068.953,186.643"/>
	<path style="fill:#FFFFFF;" d="M1086.387,186.643c0-2.748-2.24-4.993-4.993-4.993c-2.751,0-4.982,2.245-4.982,4.993
		c0,2.752,2.231,4.979,4.982,4.979C1084.147,191.622,1086.387,189.395,1086.387,186.643"/>
	<path style="fill:#FFFFFF;" d="M1304.658,274.144c0-3.437-2.785-6.222-6.225-6.222c-3.434,0-6.224,2.784-6.224,6.222
		c0,3.428,2.79,6.217,6.224,6.217C1301.872,280.361,1304.658,277.572,1304.658,274.144"/>
	<path style="fill:#FFFFFF;" d="M1511.473,208.518c0-6.562-5.324-11.876-11.867-11.876c-6.562,0-11.881,5.315-11.881,11.876
		c0,6.561,5.319,11.876,11.881,11.876C1506.15,220.394,1511.473,215.08,1511.473,208.518"/>
	<path style="fill:#FFFFFF;" d="M1547.905,274.144c0-2.521-2.043-4.562-4.548-4.562c-2.512,0-4.562,2.041-4.562,4.562
		c0,2.517,2.05,4.553,4.562,4.553C1545.862,278.697,1547.905,276.661,1547.905,274.144"/>
	<path style="fill:#FFFFFF;" d="M1678.911,186.643c0-2.603-2.113-4.721-4.721-4.721c-2.596,0-4.709,2.118-4.709,4.721
		c0,2.598,2.113,4.707,4.709,4.707C1676.798,191.35,1678.911,189.241,1678.911,186.643"/>
	<path style="fill:#FFFFFF;" d="M1678.746,274.144c0-2.521-2.043-4.562-4.555-4.562c-2.512,0-4.553,2.041-4.553,4.562
		c0,2.517,2.041,4.553,4.553,4.553C1676.703,278.697,1678.746,276.661,1678.746,274.144"/>
	<path style="fill:#FFFFFF;" d="M1823.02,186.643c0-2.603-2.118-4.725-4.723-4.725c-2.612,0-4.716,2.122-4.716,4.725
		c0,2.612,2.104,4.712,4.716,4.712C1820.903,191.354,1823.02,189.255,1823.02,186.643"/>
	<path style="fill:#FFFFFF;" d="M1804.802,208.518c0-4.621-3.764-8.375-8.38-8.375c-4.625,0-8.371,3.754-8.371,8.375
		c0,4.616,3.746,8.366,8.371,8.366C1801.039,216.885,1804.802,213.135,1804.802,208.518"/>
	<path style="fill:#FFFFFF;" d="M1732.844,441.978c0-5.446-4.421-9.854-9.865-9.854c-5.444,0-9.858,4.408-9.858,9.854
		c0,5.441,4.415,9.865,9.858,9.865C1728.423,451.844,1732.844,447.42,1732.844,441.978"/>
	<path style="fill:#FFFFFF;" d="M936.44,464.262c0-6.421-5.198-11.613-11.599-11.613c-6.415,0-11.611,5.192-11.611,11.613
		c0,6.403,5.196,11.6,11.611,11.6C931.242,475.861,936.44,470.665,936.44,464.262"/>
	<path style="fill:#FFFFFF;" d="M951.602,486.132c0-2.705-2.188-4.888-4.887-4.888c-2.7,0-4.887,2.183-4.887,4.888
		c0,2.698,2.187,4.888,4.887,4.888C949.413,491.021,951.602,488.831,951.602,486.132"/>
	<path style="fill:#FFFFFF;" d="M1378.524,464.262c0-5.145-4.171-9.314-9.315-9.314c-5.144,0-9.32,4.17-9.32,9.314
		c0,5.142,4.176,9.312,9.32,9.312C1374.353,473.574,1378.524,469.404,1378.524,464.262"/>
	<path style="fill:#FFFFFF;" d="M1589.705,420.498c0-1.9-1.551-3.448-3.46-3.448c-1.918,0-3.462,1.549-3.462,3.448
		c0,1.923,1.544,3.467,3.462,3.467C1588.154,423.964,1589.705,422.42,1589.705,420.498"/>
	<path style="fill:#FFFFFF;" d="M1614.231,508.007c0-3.369-2.734-6.108-6.106-6.108c-3.381,0-6.113,2.739-6.113,6.108
		c0,3.372,2.732,6.113,6.113,6.113C1611.497,514.12,1614.231,511.379,1614.231,508.007"/>
</g>
<g id="Ebene_1">
</g>
</svg>
