<?xml version="1.0" encoding="iso-8859-1"?>
<!-- Generator: Adobe Illustrator 18.0.0, SVG Export Plug-In . SVG Version: 6.00 Build 0)  -->
<!DOCTYPE svg PUBLIC "-//W3C//DTD SVG 1.1//EN" "http://www.w3.org/Graphics/SVG/1.1/DTD/svg11.dtd">
<svg version="1.1" xmlns="http://www.w3.org/2000/svg" xmlns:xlink="http://www.w3.org/1999/xlink" x="0px" y="0px"
	 viewBox="0 0 1200 1760.01" style="enable-background:new 0 0 1200 1760.01;" xml:space="preserve">
<g id="n1">
	<path style="fill:#FFFFFF;" d="M483.651,895.924c0-0.752-0.608-1.362-1.362-1.362c-0.751,0-1.358,0.61-1.358,1.362
		c0,0.751,0.607,1.361,1.358,1.361C483.044,897.285,483.651,896.675,483.651,895.924"/>
	<path style="fill:#FFFFFF;" d="M494.377,895.924c0-1.488-1.205-2.693-2.693-2.693c-1.487,0-2.696,1.205-2.696,2.693
		c0,1.487,1.209,2.692,2.696,2.692C493.172,898.616,494.377,897.411,494.377,895.924"/>
	<path style="fill:#FFFFFF;" d="M772.568,877.451c0-1.631-1.322-2.953-2.952-2.953c-1.631,0-2.953,1.322-2.953,2.953
		c0,1.631,1.322,2.951,2.953,2.951C771.246,880.402,772.568,879.082,772.568,877.451"/>
	<path style="fill:#FFFFFF;" d="M762.553,905.627c0-1.285-1.044-2.326-2.328-2.326c-1.284,0-2.325,1.041-2.325,2.326
		c0,1.281,1.041,2.322,2.325,2.322C761.509,907.949,762.553,906.908,762.553,905.627"/>
	<path style="fill:#FFFFFF;" d="M699.864,858.824c0-0.958-0.773-1.73-1.73-1.73c-0.958,0-1.733,0.772-1.733,1.73
		c0,0.956,0.775,1.733,1.733,1.733C699.091,860.558,699.864,859.78,699.864,858.824"/>
	<path style="fill:#FFFFFF;" d="M737.428,905.781c0-0.953-0.774-1.727-1.731-1.727c-0.953,0-1.726,0.773-1.726,1.727
		c0,0.953,0.772,1.727,1.726,1.727C736.653,907.508,737.428,906.734,737.428,905.781"/>
	<path style="fill:#FFFFFF;" d="M656.606,877.647c0-1.778-1.438-3.222-3.218-3.222c-1.778,0-3.217,1.443-3.217,3.222
		c0,1.773,1.439,3.217,3.217,3.217C655.168,880.864,656.606,879.421,656.606,877.647"/>
	<path style="fill:#FFFFFF;" d="M676.985,887.038c0-2.661-2.153-4.815-4.816-4.815c-2.658,0-4.814,2.154-4.814,4.815
		c0,2.657,2.156,4.814,4.814,4.814C674.832,891.852,676.985,889.695,676.985,887.038"/>
	<path style="fill:#FFFFFF;" d="M683.506,896.428c0-1.07-0.869-1.943-1.941-1.943c-1.074,0-1.943,0.873-1.943,1.943
		c0,1.072,0.869,1.944,1.943,1.944C682.637,898.372,683.506,897.5,683.506,896.428"/>
	<path style="fill:#FFFFFF;" d="M627.147,858.342c0-2.275-1.841-4.116-4.116-4.116c-2.271,0-4.115,1.841-4.115,4.116
		s1.845,4.115,4.115,4.115C625.307,862.457,627.147,860.617,627.147,858.342"/>
	<path style="fill:#FFFFFF;" d="M628.343,867.732c0-2.934-2.378-5.312-5.311-5.312c-2.934,0-5.311,2.379-5.311,5.312
		s2.377,5.312,5.311,5.312C625.965,873.045,628.343,870.666,628.343,867.732"/>
	<path style="fill:#FFFFFF;" d="M263.176,867.732c0-2.726-2.209-4.939-4.938-4.939c-2.726,0-4.939,2.214-4.939,4.939
		c0,2.731,2.214,4.939,4.939,4.939C260.967,872.671,263.176,870.463,263.176,867.732"/>
	<path style="fill:#FFFFFF;" d="M849.797,858.342c0-0.759-0.614-1.373-1.37-1.373c-0.756,0-1.372,0.614-1.372,1.373
		c0,0.758,0.616,1.373,1.372,1.373C849.183,859.715,849.797,859.1,849.797,858.342"/>
	<path style="fill:#FFFFFF;" d="M907.471,886.518c0-1.491-1.207-2.695-2.693-2.695c-1.491,0-2.694,1.204-2.694,2.695
		c0,1.488,1.203,2.695,2.694,2.695C906.264,889.213,907.471,888.006,907.471,886.518"/>
	<path style="fill:#FFFFFF;" d="M887.519,895.908c0-0.843-0.685-1.527-1.526-1.527c-0.845,0-1.528,0.685-1.528,1.527
		c0,0.844,0.684,1.527,1.528,1.527C886.834,897.435,887.519,896.752,887.519,895.908"/>
	<path style="fill:#FFFFFF;" d="M968.539,858.342c0-1.145-0.927-2.072-2.073-2.072c-1.143,0-2.072,0.928-2.072,2.072
		c0,1.144,0.929,2.072,2.072,2.072C967.612,860.414,968.539,859.486,968.539,858.342"/>
	<path style="fill:#FFFFFF;" d="M979.977,858.342c0-2.275-1.844-4.119-4.119-4.119c-2.274,0-4.12,1.844-4.12,4.119
		c0,2.274,1.846,4.119,4.12,4.119C978.133,862.461,979.977,860.616,979.977,858.342"/>
	<path style="fill:#FFFFFF;" d="M987.692,895.908c0-1.352-1.092-2.444-2.442-2.444c-1.353,0-2.446,1.093-2.446,2.444
		c0,1.352,1.094,2.445,2.446,2.445C986.601,898.353,987.692,897.26,987.692,895.908"/>
	<path style="fill:#FFFFFF;" d="M969.685,905.299c0-1.777-1.438-3.217-3.219-3.217c-1.777,0-3.218,1.44-3.218,3.217
		c0,1.778,1.44,3.218,3.218,3.218C968.246,908.517,969.685,907.077,969.685,905.299"/>
	<path style="fill:#FFFFFF;" d="M234.427,867.69c0-0.375-0.304-0.679-0.678-0.679c-0.375,0-0.679,0.304-0.679,0.679
		c0,0.374,0.304,0.677,0.679,0.677C234.123,868.367,234.427,868.064,234.427,867.69"/>
	<path style="fill:#FFFFFF;" d="M236.887,877.082c0-1.733-1.402-3.139-3.137-3.139c-1.733,0-3.14,1.405-3.14,3.139
		c0,1.731,1.406,3.137,3.14,3.137C235.484,880.219,236.887,878.812,236.887,877.082"/>
	<path style="fill:#FFFFFF;" d="M229.514,886.474c0-2.846-2.305-5.153-5.154-5.153c-2.846,0-5.153,2.308-5.153,5.153
		s2.308,5.153,5.153,5.153C227.209,891.627,229.514,889.319,229.514,886.474"/>
	<path style="fill:#FFFFFF;" d="M533.117,778.58c0-2.514-2.035-4.551-4.55-4.551c-2.514,0-4.55,2.037-4.55,4.551
		c0,2.51,2.036,4.55,4.55,4.55C531.082,783.13,533.117,781.09,533.117,778.58"/>
	<path style="fill:#FFFFFF;" d="M512.23,806.752c0-1.352-1.097-2.444-2.444-2.444c-1.352,0-2.448,1.093-2.448,2.444
		c0,1.352,1.097,2.445,2.448,2.445C511.134,809.197,512.23,808.103,512.23,806.752"/>
	<path style="fill:#FFFFFF;" d="M813.365,797.385c0-1.08-0.875-1.955-1.954-1.955s-1.954,0.875-1.954,1.955
		c0,1.078,0.875,1.954,1.954,1.954S813.365,798.463,813.365,797.385"/>
	<path style="fill:#FFFFFF;" d="M560.764,806.775c0-1.613-1.311-2.92-2.923-2.92c-1.611,0-2.923,1.307-2.923,2.92
		c0,1.615,1.311,2.922,2.923,2.922C559.453,809.697,560.764,808.391,560.764,806.775"/>
	<path style="fill:#FFFFFF;" d="M793.476,797.248c0-1.602-1.301-2.897-2.898-2.897c-1.602,0-2.9,1.296-2.9,2.897
		c0,1.602,1.299,2.896,2.9,2.896C792.175,800.144,793.476,798.85,793.476,797.248"/>
	<path style="fill:#FFFFFF;" d="M822.734,806.775c0-1.065-0.866-1.93-1.933-1.93c-1.068,0-1.929,0.865-1.929,1.93
		c0,1.067,0.86,1.932,1.929,1.932C821.868,808.707,822.734,807.843,822.734,806.775"/>
	<path style="fill:#FFFFFF;" d="M682.679,778.602c0-1.517-1.23-2.75-2.749-2.75c-1.518,0-2.748,1.233-2.748,2.75
		s1.231,2.746,2.748,2.746C681.449,781.349,682.679,780.119,682.679,778.602"/>
	<path style="fill:#FFFFFF;" d="M701.851,778.602c0-1.733-1.403-3.14-3.138-3.14c-1.733,0-3.14,1.406-3.14,3.14
		c0,1.729,1.406,3.136,3.14,3.136C700.447,781.738,701.851,780.332,701.851,778.602"/>
	<path style="fill:#FFFFFF;" d="M682.661,797.385c0-1.51-1.223-2.732-2.731-2.732c-1.507,0-2.731,1.223-2.731,2.732
		c0,1.508,1.224,2.73,2.731,2.73C681.438,800.115,682.661,798.893,682.661,797.385"/>
	<path style="fill:#FFFFFF;" d="M859.273,778.658c0-0.604-0.488-1.093-1.097-1.093c-0.603,0-1.093,0.489-1.093,1.093
		c0,0.607,0.49,1.098,1.093,1.098C858.785,779.756,859.273,779.266,859.273,778.658"/>
	<path style="fill:#FFFFFF;" d="M859.115,788.054c0-0.519-0.42-0.938-0.938-0.938c-0.514,0-0.935,0.419-0.935,0.938
		c0,0.515,0.421,0.935,0.935,0.935C858.695,788.988,859.115,788.568,859.115,788.054"/>
	<path style="fill:#FFFFFF;" d="M872.136,788.054c0-2.526-2.042-4.568-4.568-4.568c-2.521,0-4.563,2.042-4.563,4.568
		c0,2.522,2.042,4.565,4.563,4.565C870.094,792.618,872.136,790.575,872.136,788.054"/>
	<path style="fill:#FFFFFF;" d="M591.315,778.665c0-3.091-2.503-5.595-5.591-5.595c-3.091,0-5.596,2.504-5.596,5.595
		c0,3.087,2.505,5.592,5.596,5.592C588.812,784.257,591.315,781.752,591.315,778.665"/>
	<path style="fill:#FFFFFF;" d="M615.539,778.665c0-0.991-0.805-1.792-1.792-1.792c-0.993,0-1.794,0.801-1.794,1.792
		c0,0.988,0.801,1.79,1.794,1.79C614.734,780.455,615.539,779.653,615.539,778.665"/>
	<path style="fill:#FFFFFF;" d="M577.431,788.055c0-0.576-0.469-1.049-1.049-1.049c-0.576,0-1.047,0.473-1.047,1.049
		c0,0.58,0.471,1.048,1.047,1.048C576.962,789.102,577.431,788.635,577.431,788.055"/>
	<path style="fill:#FFFFFF;" d="M608.546,797.447c0-2.287-1.854-4.139-4.141-4.139c-2.287,0-4.14,1.852-4.14,4.139
		c0,2.286,1.853,4.139,4.14,4.139C606.691,801.586,608.546,799.733,608.546,797.447"/>
	<path style="fill:#FFFFFF;" d="M346.654,787.924c0-3.064-2.487-5.549-5.552-5.549c-3.068,0-5.553,2.484-5.553,5.549
		c0,3.068,2.484,5.552,5.553,5.552C344.167,793.476,346.654,790.992,346.654,787.924"/>
	<path style="fill:#FFFFFF;" d="M725.075,769.211c0-0.672-0.545-1.214-1.215-1.214c-0.67,0-1.212,0.542-1.212,1.214
		c0,0.67,0.542,1.212,1.212,1.212C724.53,770.423,725.075,769.881,725.075,769.211"/>
	<path style="fill:#FFFFFF;" d="M735.348,797.385c0-1.158-0.936-2.096-2.096-2.096c-1.157,0-2.097,0.938-2.097,2.096
		c0,1.156,0.939,2.094,2.097,2.094C734.412,799.478,735.348,798.541,735.348,797.385"/>
	<path style="fill:#FFFFFF;" d="M757.627,778.534c0-3.091-2.503-5.595-5.59-5.595c-3.091,0-5.597,2.504-5.597,5.595
		c0,3.088,2.506,5.593,5.597,5.593C755.124,784.127,757.627,781.622,757.627,778.534"/>
	<path style="fill:#FFFFFF;" d="M757.548,797.316c0-3.045-2.467-5.514-5.511-5.514c-3.046,0-5.516,2.469-5.516,5.514
		c0,3.045,2.47,5.513,5.516,5.513C755.081,802.829,757.548,800.361,757.548,797.316"/>
	<path style="fill:#FFFFFF;" d="M755.653,806.711c0-2.001-1.621-3.619-3.616-3.619c-1.997,0-3.619,1.618-3.619,3.619
		c0,1.996,1.622,3.614,3.619,3.614C754.032,810.325,755.653,808.707,755.653,806.711"/>
	<path style="fill:#FFFFFF;" d="M400.515,778.534c0-0.991-0.805-1.792-1.793-1.792c-0.991,0-1.792,0.801-1.792,1.792
		c0,0.989,0.801,1.789,1.792,1.789C399.71,780.323,400.515,779.523,400.515,778.534"/>
	<path style="fill:#FFFFFF;" d="M362.405,787.924c0-0.576-0.468-1.048-1.048-1.048c-0.577,0-1.048,0.472-1.048,1.048
		c0,0.58,0.471,1.047,1.048,1.047C361.938,788.971,362.405,788.504,362.405,787.924"/>
	<path style="fill:#FFFFFF;" d="M401.216,787.924c0-1.377-1.117-2.494-2.494-2.494c-1.381,0-2.497,1.117-2.497,2.494
		c0,1.381,1.116,2.497,2.497,2.497C400.099,790.421,401.216,789.305,401.216,787.924"/>
</g>
<g id="Ebene_1">
</g>
</svg>
