<?xml version="1.0" encoding="iso-8859-1"?>
<!-- Generator: Adobe Illustrator 18.0.0, SVG Export Plug-In . SVG Version: 6.00 Build 0)  -->
<!DOCTYPE svg PUBLIC "-//W3C//DTD SVG 1.1//EN" "http://www.w3.org/Graphics/SVG/1.1/DTD/svg11.dtd">
<svg version="1.1" xmlns="http://www.w3.org/2000/svg" xmlns:xlink="http://www.w3.org/1999/xlink" x="0px" y="0px"
	 viewBox="0 0 1200 1760.01" style="enable-background:new 0 0 1200 1760.01;" xml:space="preserve">
<g id="n10">
	<path style="fill:#FFFFFF;" d="M485.212,886.533c0-1.613-1.307-2.924-2.923-2.924c-1.612,0-2.919,1.31-2.919,2.924
		c0,1.611,1.307,2.919,2.919,2.919C483.905,889.452,485.212,888.144,485.212,886.533"/>
	<path style="fill:#FFFFFF;" d="M477.511,895.924c0-2.548-2.064-4.613-4.612-4.613c-2.547,0-4.612,2.065-4.612,4.613
		c0,2.547,2.065,4.612,4.612,4.612C475.446,900.536,477.511,898.471,477.511,895.924"/>
	<path style="fill:#FFFFFF;" d="M762.234,868.06c0-1.112-0.901-2.011-2.01-2.011c-1.111,0-2.009,0.898-2.009,2.011
		c0,1.107,0.898,2.01,2.009,2.01C761.333,870.07,762.234,869.168,762.234,868.06"/>
	<path style="fill:#FFFFFF;" d="M719.952,877.609c0-1.68-1.358-3.037-3.037-3.037c-1.674,0-3.037,1.357-3.037,3.037
		c0,1.675,1.363,3.033,3.037,3.033C718.594,880.643,719.952,879.284,719.952,877.609"/>
	<path style="fill:#FFFFFF;" d="M664.528,868.252c0-0.963-0.781-1.75-1.749-1.75c-0.966,0-1.749,0.787-1.749,1.75
		c0,0.968,0.783,1.754,1.749,1.754C663.747,870.006,664.528,869.22,664.528,868.252"/>
	<path style="fill:#FFFFFF;" d="M628.347,877.123c0-2.934-2.382-5.312-5.315-5.312c-2.934,0-5.311,2.378-5.311,5.312
		s2.377,5.316,5.311,5.316C625.965,882.439,628.347,880.057,628.347,877.123"/>
	<path style="fill:#FFFFFF;" d="M444.89,905.299c0-1.777-1.439-3.217-3.217-3.217c-1.778,0-3.218,1.44-3.218,3.217
		c0,1.778,1.439,3.218,3.218,3.218C443.45,908.517,444.89,907.077,444.89,905.299"/>
	<path style="fill:#FFFFFF;" d="M941.69,858.342c0-1.778-1.44-3.218-3.217-3.218c-1.778,0-3.219,1.44-3.219,3.218
		c0,1.777,1.44,3.217,3.219,3.217C940.25,861.559,941.69,860.119,941.69,858.342"/>
	<path style="fill:#FFFFFF;" d="M943.412,877.123c0-2.726-2.209-4.938-4.938-4.938c-2.727,0-4.938,2.213-4.938,4.938
		c0,2.73,2.212,4.94,4.938,4.94C941.203,882.062,943.412,879.853,943.412,877.123"/>
	<path style="fill:#FFFFFF;" d="M943.412,895.906c0-2.725-2.209-4.938-4.938-4.938c-2.727,0-4.938,2.214-4.938,4.938
		c0,2.73,2.212,4.94,4.938,4.94C941.203,900.846,943.412,898.637,943.412,895.906"/>
	<path style="fill:#FFFFFF;" d="M306.936,877.123c0-1.774-1.439-3.209-3.214-3.209c-1.775,0-3.214,1.435-3.214,3.209
		c0,1.774,1.439,3.214,3.214,3.214C305.497,880.337,306.936,878.897,306.936,877.123"/>
	<path style="fill:#FFFFFF;" d="M317.7,886.518c0-2.536-2.054-4.59-4.587-4.59c-2.532,0-4.587,2.054-4.587,4.59
		c0,2.533,2.055,4.587,4.587,4.587C315.646,891.104,317.7,889.051,317.7,886.518"/>
	<path style="fill:#FFFFFF;" d="M307.548,905.299c0-2.113-1.712-3.824-3.825-3.824c-2.113,0-3.821,1.711-3.821,3.824
		c0,2.113,1.708,3.825,3.821,3.825C305.836,909.124,307.548,907.412,307.548,905.299"/>
	<path style="fill:#FFFFFF;" d="M353.751,905.299c0-1.697-1.374-3.07-3.071-3.07c-1.696,0-3.069,1.373-3.069,3.07
		c0,1.697,1.373,3.07,3.069,3.07C352.377,908.369,353.751,906.996,353.751,905.299"/>
	<path style="fill:#FFFFFF;" d="M518.238,905.299c0-0.396-0.324-0.721-0.722-0.721c-0.398,0-0.718,0.324-0.718,0.721
		c0,0.398,0.32,0.722,0.718,0.722C517.914,906.021,518.238,905.697,518.238,905.299"/>
	<path style="fill:#FFFFFF;" d="M841.854,858.342c0-1.557-1.26-2.82-2.82-2.82c-1.557,0-2.821,1.264-2.821,2.82
		c0,1.557,1.265,2.82,2.821,2.82C840.595,861.162,841.854,859.898,841.854,858.342"/>
	<path style="fill:#FFFFFF;" d="M896.965,858.342c0-0.873-0.706-1.579-1.582-1.579c-0.873,0-1.58,0.706-1.58,1.579
		c0,0.872,0.707,1.579,1.58,1.579C896.259,859.921,896.965,859.214,896.965,858.342"/>
	<path style="fill:#FFFFFF;" d="M868.771,886.518c0-0.865-0.698-1.561-1.56-1.561c-0.861,0-1.561,0.695-1.561,1.561
		c0,0.861,0.699,1.557,1.561,1.557C868.072,888.074,868.771,887.379,868.771,886.518"/>
	<path style="fill:#FFFFFF;" d="M999.579,886.516c0-2.725-2.207-4.938-4.939-4.938c-2.725,0-4.938,2.214-4.938,4.938
		c0,2.731,2.214,4.94,4.938,4.94C997.372,891.455,999.579,889.246,999.579,886.516"/>
	<path style="fill:#FFFFFF;" d="M229.514,905.232c0-2.846-2.305-5.154-5.154-5.154c-2.846,0-5.153,2.309-5.153,5.154
		s2.308,5.154,5.153,5.154C227.209,910.387,229.514,908.078,229.514,905.232"/>
	<path style="fill:#FFFFFF;" d="M539.121,797.361c0-0.64-0.523-1.163-1.163-1.163c-0.64,0-1.159,0.523-1.159,1.163
		c0,0.641,0.52,1.164,1.159,1.164C538.599,798.525,539.121,798.002,539.121,797.361"/>
	<path style="fill:#FFFFFF;" d="M563.153,797.385c0-2.935-2.378-5.312-5.312-5.312c-2.934,0-5.311,2.378-5.311,5.312
		c0,2.934,2.378,5.31,5.311,5.31C560.775,802.695,563.153,800.318,563.153,797.385"/>
	<path style="fill:#FFFFFF;" d="M451.56,759.817c0-2.935-2.378-5.309-5.311-5.309c-2.935,0-5.312,2.374-5.312,5.309
		c0,2.934,2.378,5.312,5.312,5.312C449.183,765.129,451.56,762.751,451.56,759.817"/>
	<path style="fill:#FFFFFF;" d="M451.554,769.211c0-2.934-2.375-5.308-5.305-5.308c-2.931,0-5.309,2.374-5.309,5.308
		c0,2.931,2.378,5.306,5.309,5.306C449.179,774.517,451.554,772.142,451.554,769.211"/>
	<path style="fill:#FFFFFF;" d="M793.204,778.467c0-1.451-1.18-2.625-2.626-2.625c-1.45,0-2.629,1.174-2.629,2.625
		c0,1.449,1.179,2.625,2.629,2.625C792.024,781.092,793.204,779.916,793.204,778.467"/>
	<path style="fill:#FFFFFF;" d="M785.669,797.248c0-2.475-2.008-4.48-4.484-4.48c-2.476,0-4.482,2.006-4.482,4.48
		c0,2.474,2.006,4.482,4.482,4.482C783.661,801.73,785.669,799.722,785.669,797.248"/>
	<path style="fill:#FFFFFF;" d="M793.276,806.639c0-1.491-1.207-2.699-2.698-2.699c-1.49,0-2.7,1.208-2.7,2.699
		c0,1.49,1.21,2.702,2.7,2.702C792.069,809.341,793.276,808.129,793.276,806.639"/>
	<path style="fill:#FFFFFF;" d="M701.851,797.385c0-1.73-1.406-3.137-3.138-3.137c-1.733,0-3.136,1.406-3.136,3.137
		c0,1.733,1.402,3.136,3.136,3.136C700.444,800.521,701.851,799.118,701.851,797.385"/>
	<path style="fill:#FFFFFF;" d="M889.857,778.658c0-1.932-1.567-3.504-3.505-3.504c-1.936,0-3.504,1.572-3.504,3.504
		c0,1.938,1.567,3.506,3.504,3.506C888.29,782.164,889.857,780.596,889.857,778.658"/>
	<path style="fill:#FFFFFF;" d="M333.172,778.602c0-0.809-0.653-1.463-1.461-1.463c-0.809,0-1.464,0.654-1.464,1.463
		c0,0.808,0.655,1.461,1.464,1.461C332.519,780.062,333.172,779.409,333.172,778.602"/>
</g>
<g id="Ebene_1">
</g>
</svg>
