<?xml version="1.0" encoding="iso-8859-1"?>
<!-- Generator: Adobe Illustrator 18.0.0, SVG Export Plug-In . SVG Version: 6.00 Build 0)  -->
<!DOCTYPE svg PUBLIC "-//W3C//DTD SVG 1.1//EN" "http://www.w3.org/Graphics/SVG/1.1/DTD/svg11.dtd">
<svg version="1.1" xmlns="http://www.w3.org/2000/svg" xmlns:xlink="http://www.w3.org/1999/xlink" x="0px" y="0px"
	 viewBox="0 0 1200 1760.01" style="enable-background:new 0 0 1200 1760.01;" xml:space="preserve">
<g id="n11">
	<path style="fill:#FFFFFF;" d="M484.661,867.747c0-1.309-1.057-2.371-2.372-2.371c-1.309,0-2.371,1.062-2.371,2.371
		c0,1.315,1.062,2.372,2.371,2.372C483.604,870.119,484.661,869.062,484.661,867.747"/>
	<path style="fill:#FFFFFF;" d="M502.532,886.533c0-0.807-0.651-1.462-1.458-1.462c-0.806,0-1.461,0.655-1.461,1.462
		c0,0.806,0.655,1.457,1.461,1.457C501.881,887.99,502.532,887.339,502.532,886.533"/>
	<path style="fill:#FFFFFF;" d="M765.173,877.451c0-2.732-2.217-4.948-4.948-4.948c-2.735,0-4.947,2.216-4.947,4.948
		c0,2.73,2.212,4.947,4.947,4.947C762.956,882.398,765.173,880.182,765.173,877.451"/>
	<path style="fill:#FFFFFF;" d="M699.857,868.215c0-0.95-0.771-1.724-1.724-1.724c-0.954,0-1.727,0.773-1.727,1.724
		c0,0.953,0.773,1.727,1.727,1.727C699.087,869.941,699.857,869.168,699.857,868.215"/>
	<path style="fill:#FFFFFF;" d="M683.229,905.819c0-0.92-0.747-1.664-1.665-1.664c-0.92,0-1.667,0.744-1.667,1.664
		c0,0.921,0.747,1.667,1.667,1.667C682.482,907.486,683.229,906.74,683.229,905.819"/>
	<path style="fill:#FFFFFF;" d="M628.347,886.518c0-2.934-2.382-5.315-5.315-5.315c-2.934,0-5.311,2.382-5.311,5.315
		s2.377,5.312,5.311,5.312C625.965,891.83,628.347,889.451,628.347,886.518"/>
	<path style="fill:#FFFFFF;" d="M596.674,895.908c0-1.005-0.813-1.818-1.814-1.818c-1.005,0-1.818,0.813-1.818,1.818
		c0,1.002,0.813,1.815,1.818,1.815C595.86,897.724,596.674,896.91,596.674,895.908"/>
	<path style="fill:#FFFFFF;" d="M263.176,877.123c0-2.726-2.209-4.938-4.938-4.938c-2.726,0-4.939,2.213-4.939,4.938
		c0,2.73,2.214,4.94,4.939,4.94C260.967,882.062,263.176,879.853,263.176,877.123"/>
	<path style="fill:#FFFFFF;" d="M527.762,867.732c0-0.471-0.383-0.851-0.853-0.851c-0.468,0-0.852,0.38-0.852,0.851
		s0.384,0.85,0.852,0.85C527.379,868.582,527.762,868.203,527.762,867.732"/>
	<path style="fill:#FFFFFF;" d="M537.837,895.908c0-0.85-0.689-1.539-1.535-1.539c-0.851,0-1.539,0.69-1.539,1.539
		c0,0.851,0.688,1.539,1.539,1.539C537.148,897.447,537.837,896.759,537.837,895.908"/>
	<path style="fill:#FFFFFF;" d="M850.188,886.518c0-0.975-0.788-1.764-1.762-1.764c-0.975,0-1.762,0.789-1.762,1.764
		c0,0.972,0.787,1.76,1.762,1.76C849.4,888.277,850.188,887.489,850.188,886.518"/>
	<path style="fill:#FFFFFF;" d="M833.764,905.299c0-2.275-1.847-4.119-4.12-4.119c-2.271,0-4.116,1.844-4.116,4.119
		s1.845,4.115,4.116,4.115C831.917,909.414,833.764,907.574,833.764,905.299"/>
	<path style="fill:#FFFFFF;" d="M888.745,858.342c0-1.521-1.232-2.75-2.753-2.75c-1.516,0-2.75,1.229-2.75,2.75
		c0,1.519,1.234,2.749,2.75,2.749C887.513,861.091,888.745,859.861,888.745,858.342"/>
	<path style="fill:#FFFFFF;" d="M888.643,867.732c0-1.461-1.187-2.65-2.65-2.65c-1.462,0-2.651,1.19-2.651,2.65
		c0,1.465,1.19,2.65,2.651,2.65C887.456,870.383,888.643,869.197,888.643,867.732"/>
	<path style="fill:#FFFFFF;" d="M900.167,867.732c0-2.643-2.141-4.781-4.784-4.781c-2.64,0-4.782,2.139-4.782,4.781
		c0,2.643,2.143,4.785,4.782,4.785C898.026,872.518,900.167,870.375,900.167,867.732"/>
	<path style="fill:#FFFFFF;" d="M881.563,895.908c0-2.742-2.22-4.966-4.962-4.966c-2.743,0-4.964,2.224-4.964,4.966
		c0,2.739,2.221,4.963,4.964,4.963C879.344,900.871,881.563,898.647,881.563,895.908"/>
	<path style="fill:#FFFFFF;" d="M987.759,886.518c0-1.388-1.123-2.511-2.509-2.511c-1.387,0-2.509,1.123-2.509,2.511
		c0,1.385,1.122,2.507,2.509,2.507C986.636,889.024,987.759,887.902,987.759,886.518"/>
	<path style="fill:#FFFFFF;" d="M216.388,924.08c0-0.783-0.637-1.42-1.421-1.42c-0.784,0-1.421,0.637-1.421,1.42
		c0,0.785,0.637,1.422,1.421,1.422C215.751,925.502,216.388,924.865,216.388,924.08"/>
	<path style="fill:#FFFFFF;" d="M538.812,778.58c0-0.475-0.383-0.857-0.854-0.857c-0.471,0-0.854,0.383-0.854,0.857
		c0,0.471,0.383,0.854,0.854,0.854C538.43,779.434,538.812,779.051,538.812,778.58"/>
	<path style="fill:#FFFFFF;" d="M562.648,759.817c0-2.654-2.153-4.808-4.808-4.808c-2.653,0-4.808,2.153-4.808,4.808
		c0,2.657,2.154,4.812,4.808,4.812C560.495,764.629,562.648,762.475,562.648,759.817"/>
	<path style="fill:#FFFFFF;" d="M439.107,778.602c0-1.245-1.009-2.249-2.249-2.249c-1.244,0-2.25,1.004-2.25,2.249
		c0,1.241,1.006,2.249,2.25,2.249C438.099,780.852,439.107,779.844,439.107,778.602"/>
	<path style="fill:#FFFFFF;" d="M429.65,797.385c0-1.209-0.979-2.188-2.186-2.188c-1.205,0-2.184,0.979-2.184,2.188
		c0,1.207,0.978,2.187,2.184,2.187C428.672,799.571,429.65,798.592,429.65,797.385"/>
	<path style="fill:#FFFFFF;" d="M451.554,797.385c0-2.931-2.375-5.306-5.305-5.306c-2.931,0-5.309,2.375-5.309,5.306
		c0,2.93,2.378,5.309,5.309,5.309C449.179,802.693,451.554,800.314,451.554,797.385"/>
	<path style="fill:#FFFFFF;" d="M782.822,806.639c0-0.902-0.733-1.635-1.638-1.635c-0.902,0-1.635,0.732-1.635,1.635
		c0,0.905,0.732,1.639,1.635,1.639C782.089,808.277,782.822,807.544,782.822,806.639"/>
	<path style="fill:#FFFFFF;" d="M694.477,806.752c0-2.846-2.306-5.154-5.155-5.154c-2.845,0-5.152,2.309-5.152,5.154
		s2.308,5.154,5.152,5.154C692.172,811.906,694.477,809.598,694.477,806.752"/>
	<path style="fill:#FFFFFF;" d="M858.898,806.835c0-0.397-0.323-0.722-0.722-0.722c-0.397,0-0.717,0.324-0.717,0.722
		c0,0.397,0.319,0.722,0.717,0.722C858.575,807.557,858.898,807.232,858.898,806.835"/>
	<path style="fill:#FFFFFF;" d="M605.688,769.273c0-0.709-0.575-1.279-1.282-1.279c-0.706,0-1.279,0.57-1.279,1.279
		c0,0.707,0.573,1.278,1.279,1.278C605.112,770.552,605.688,769.98,605.688,769.273"/>
	<path style="fill:#FFFFFF;" d="M577.431,797.447c0-0.58-0.469-1.048-1.049-1.048c-0.576,0-1.047,0.468-1.047,1.048
		c0,0.576,0.471,1.048,1.047,1.048C576.962,798.495,577.431,798.023,577.431,797.447"/>
	<path style="fill:#FFFFFF;" d="M333.61,806.775c0-1.05-0.85-1.9-1.9-1.9c-1.049,0-1.902,0.851-1.902,1.9
		c0,1.049,0.853,1.898,1.902,1.898C332.761,808.674,333.61,807.824,333.61,806.775"/>
	<path style="fill:#FFFFFF;" d="M752.958,769.211c0-0.511-0.413-0.924-0.923-0.924c-0.511,0-0.923,0.413-0.923,0.924
		c0,0.509,0.412,0.922,0.923,0.922C752.545,770.133,752.958,769.72,752.958,769.211"/>
	<path style="fill:#FFFFFF;" d="M745.571,797.385c0-1.619-1.309-2.93-2.927-2.93c-1.618,0-2.93,1.31-2.93,2.93
		c0,1.617,1.312,2.929,2.93,2.929C744.263,800.313,745.571,799.002,745.571,797.385"/>
	<path style="fill:#FFFFFF;" d="M725.012,806.775c0-0.634-0.516-1.148-1.151-1.148c-0.634,0-1.148,0.515-1.148,1.148
		c0,0.637,0.515,1.152,1.148,1.152C724.496,807.928,725.012,807.412,725.012,806.775"/>
	<path style="fill:#FFFFFF;" d="M371.718,769.143c0-0.565-0.455-1.021-1.019-1.021s-1.021,0.457-1.021,1.021
		c0,0.562,0.458,1.021,1.021,1.021S371.718,769.705,371.718,769.143"/>
</g>
<g id="Ebene_1">
</g>
</svg>
