<?xml version="1.0" encoding="iso-8859-1"?>
<!-- Generator: Adobe Illustrator 18.0.0, SVG Export Plug-In . SVG Version: 6.00 Build 0)  -->
<!DOCTYPE svg PUBLIC "-//W3C//DTD SVG 1.1//EN" "http://www.w3.org/Graphics/SVG/1.1/DTD/svg11.dtd">
<svg version="1.1" xmlns="http://www.w3.org/2000/svg" xmlns:xlink="http://www.w3.org/1999/xlink" x="0px" y="0px"
	 viewBox="0 0 2800 750" style="enable-background:new 0 0 2800 750;" xml:space="preserve">
<g id="n3">
	<path style="fill:#FFFFFF;" d="M1633.589,478.355c0-2.224-1.802-4.028-4.026-4.028c-2.226,0-4.028,1.805-4.028,4.028
		c0,2.224,1.802,4.028,4.028,4.028C1631.787,482.383,1633.589,480.578,1633.589,478.355"/>
	<path style="fill:#FFFFFF;" d="M805.241,411.494c0-4.534-3.675-8.211-8.211-8.211c-4.534,0-8.218,3.677-8.218,8.211
		c0,4.534,3.684,8.211,8.218,8.211C801.566,419.705,805.241,416.028,805.241,411.494"/>
	<path style="fill:#FFFFFF;" d="M1478.722,411.494c0-1.358-1.11-2.456-2.461-2.456c-1.353,0-2.454,1.098-2.454,2.456
		c0,1.358,1.1,2.456,2.454,2.456C1477.612,413.95,1478.722,412.852,1478.722,411.494"/>
	<path style="fill:#FFFFFF;" d="M823.586,433.403c0-2.561-2.078-4.639-4.648-4.639c-2.565,0-4.646,2.078-4.646,4.639
		c0,2.568,2.08,4.648,4.646,4.648C821.508,438.05,823.586,435.97,823.586,433.403"/>
	<path style="fill:#FFFFFF;" d="M982.971,455.311c0-5.883-4.766-10.658-10.658-10.658c-5.885,0-10.66,4.776-10.66,10.658
		c0,5.892,4.776,10.658,10.66,10.658C978.205,465.969,982.971,461.203,982.971,455.311"/>
	<path style="fill:#FFFFFF;" d="M958.039,477.229c0-4.215-3.42-7.635-7.637-7.635c-4.217,0-7.635,3.42-7.635,7.635
		c0,4.208,3.417,7.628,7.635,7.628C954.619,484.857,958.039,481.437,958.039,477.229"/>
	<path style="fill:#FFFFFF;" d="M807.56,499.138c0-5.821-4.716-10.537-10.53-10.537c-5.821,0-10.537,4.716-10.537,10.537
		c0,5.814,4.716,10.531,10.537,10.531C802.844,509.668,807.56,504.952,807.56,499.138"/>
	<path style="fill:#FFFFFF;" d="M846.174,499.138c0-2.937-2.388-5.324-5.325-5.324c-2.937,0-5.315,2.388-5.315,5.324
		s2.378,5.315,5.315,5.315C843.786,504.453,846.174,502.075,846.174,499.138"/>
	<path style="fill:#FFFFFF;" d="M805.241,521.047c0-4.534-3.675-8.211-8.211-8.211c-4.534,0-8.218,3.677-8.218,8.211
		c0,4.534,3.684,8.211,8.218,8.211C801.566,529.258,805.241,525.581,805.241,521.047"/>
	<path style="fill:#FFFFFF;" d="M1210.734,455.311c0-1.408-1.142-2.552-2.559-2.552c-1.408,0-2.549,1.144-2.549,2.552
		c0,1.417,1.141,2.559,2.549,2.559C1209.593,457.87,1210.734,456.729,1210.734,455.311"/>
	<path style="fill:#FFFFFF;" d="M1215.571,203.489c0-1.941-1.581-3.522-3.522-3.522c-1.948,0-3.529,1.581-3.529,3.522
		c0,1.95,1.581,3.532,3.529,3.532C1213.99,207.02,1215.571,205.439,1215.571,203.489"/>
	<path style="fill:#FFFFFF;" d="M1897.371,225.459c0-1.948-1.579-3.529-3.527-3.529c-1.953,0-3.531,1.581-3.531,3.529
		c0,1.948,1.579,3.529,3.531,3.529C1895.792,228.988,1897.371,227.407,1897.371,225.459"/>
	<path style="fill:#FFFFFF;" d="M987.403,269.119c0-6.204-5.028-11.235-11.232-11.235c-6.204,0-11.237,5.031-11.237,11.235
		c0,6.204,5.033,11.235,11.237,11.235C982.374,280.354,987.403,275.323,987.403,269.119"/>
	<path style="fill:#FFFFFF;" d="M1417.229,291.34c0-3.506-2.832-6.341-6.338-6.341c-3.5,0-6.345,2.834-6.345,6.341
		c0,3.497,2.846,6.336,6.345,6.336C1414.397,297.676,1417.229,294.837,1417.229,291.34"/>
	<path style="fill:#FFFFFF;" d="M761.895,291.187c0-5.035-4.083-9.129-9.129-9.129c-5.033,0-9.127,4.094-9.127,9.129
		c0,5.044,4.094,9.127,9.127,9.127C757.812,300.314,761.895,296.232,761.895,291.187"/>
	<path style="fill:#FFFFFF;" d="M809.456,269.119c0-7.104-5.76-12.864-12.861-12.864c-7.106,0-12.863,5.76-12.863,12.864
		s5.757,12.861,12.863,12.861C803.696,281.98,809.456,276.223,809.456,269.119"/>
	<path style="fill:#FFFFFF;" d="M878.693,225.3c0-7.211-5.844-13.053-13.048-13.053c-7.211,0-13.053,5.842-13.053,13.053
		c0,7.204,5.842,13.048,13.053,13.048C872.849,238.348,878.693,232.504,878.693,225.3"/>
	<path style="fill:#FFFFFF;" d="M918.89,269.119c0-5.336-4.327-9.656-9.663-9.656c-5.336,0-9.656,4.32-9.656,9.656
		c0,5.336,4.32,9.656,9.656,9.656C914.563,278.775,918.89,274.455,918.89,269.119"/>
	<path style="fill:#FFFFFF;" d="M936.857,269.119c0-3.228-2.613-5.842-5.835-5.842c-3.228,0-5.842,2.613-5.842,5.842
		c0,3.219,2.613,5.842,5.842,5.842C934.244,274.961,936.857,272.339,936.857,269.119"/>
	<path style="fill:#FFFFFF;" d="M934.85,291.037c0-2.123-1.713-3.837-3.828-3.837c-2.124,0-3.837,1.713-3.837,3.837
		c0,2.112,1.713,3.828,3.837,3.828C933.137,294.865,934.85,293.149,934.85,291.037"/>
</g>
<g id="Ebene_1">
</g>
</svg>
