<?xml version="1.0" encoding="iso-8859-1"?>
<!-- Generator: Adobe Illustrator 18.0.0, SVG Export Plug-In . SVG Version: 6.00 Build 0)  -->
<!DOCTYPE svg PUBLIC "-//W3C//DTD SVG 1.1//EN" "http://www.w3.org/Graphics/SVG/1.1/DTD/svg11.dtd">
<svg version="1.1" xmlns="http://www.w3.org/2000/svg" xmlns:xlink="http://www.w3.org/1999/xlink" x="0px" y="0px"
	 viewBox="0 0 1200 1760.01" style="enable-background:new 0 0 1200 1760.01;" xml:space="preserve">
<g id="n4">
	<path style="fill:#FFFFFF;" d="M496.083,877.143c0-2.431-1.97-4.403-4.399-4.403c-2.43,0-4.402,1.973-4.402,4.403
		c0,2.429,1.973,4.398,4.402,4.398C494.113,881.541,496.083,879.571,496.083,877.143"/>
	<path style="fill:#FFFFFF;" d="M354.468,877.123c0-2.091-1.696-3.788-3.788-3.788c-2.094,0-3.787,1.697-3.787,3.788
		c0,2.095,1.693,3.791,3.787,3.791C352.771,880.914,354.468,879.218,354.468,877.123"/>
	<path style="fill:#FFFFFF;" d="M373.901,886.518c0-2.451-1.988-4.44-4.44-4.44s-4.435,1.988-4.435,4.44
		c0,2.448,1.984,4.435,4.435,4.435S373.901,888.966,373.901,886.518"/>
	<path style="fill:#FFFFFF;" d="M399.788,886.518c0-1.19-0.961-2.153-2.15-2.153c-1.19,0-2.153,0.964-2.153,2.153
		c0,1.185,0.964,2.149,2.153,2.149C398.827,888.667,399.788,887.703,399.788,886.518"/>
	<path style="fill:#FFFFFF;" d="M263.176,886.516c0-2.725-2.209-4.938-4.938-4.938c-2.726,0-4.939,2.214-4.939,4.938
		c0,2.731,2.214,4.94,4.939,4.94C260.967,891.455,263.176,889.246,263.176,886.516"/>
	<path style="fill:#FFFFFF;" d="M943.412,886.516c0-2.725-2.209-4.938-4.938-4.938c-2.727,0-4.938,2.214-4.938,4.938
		c0,2.731,2.212,4.94,4.938,4.94C941.203,891.455,943.412,889.246,943.412,886.516"/>
	<path style="fill:#FFFFFF;" d="M546.37,867.732c0-0.372-0.306-0.678-0.678-0.678c-0.375,0-0.677,0.306-0.677,0.678
		c0,0.375,0.302,0.678,0.677,0.678C546.065,868.41,546.37,868.107,546.37,867.732"/>
	<path style="fill:#FFFFFF;" d="M540.3,886.518c0-2.213-1.789-4.002-3.998-4.002c-2.208,0-4.001,1.789-4.001,4.002
		c0,2.209,1.793,3.998,4.001,3.998C538.511,890.516,540.3,888.727,540.3,886.518"/>
	<path style="fill:#FFFFFF;" d="M547.924,905.299c0-1.233-0.998-2.234-2.231-2.234c-1.232,0-2.234,1.001-2.234,2.234
		s1.002,2.234,2.234,2.234C546.926,907.533,547.924,906.532,547.924,905.299"/>
	<path style="fill:#FFFFFF;" d="M906.131,867.732c0-0.747-0.607-1.354-1.354-1.354c-0.751,0-1.354,0.607-1.354,1.354
		c0,0.75,0.604,1.356,1.354,1.356C905.524,869.088,906.131,868.482,906.131,867.732"/>
	<path style="fill:#FFFFFF;" d="M878.519,905.299c0-1.06-0.858-1.918-1.918-1.918c-1.057,0-1.915,0.857-1.915,1.918
		c0,1.057,0.858,1.918,1.915,1.918C877.661,907.217,878.519,906.355,878.519,905.299"/>
	<path style="fill:#FFFFFF;" d="M990.188,905.314c0-2.727-2.207-4.939-4.938-4.939c-2.725,0-4.938,2.213-4.938,4.939
		c0,2.73,2.213,4.938,4.938,4.938C987.981,910.253,990.188,908.045,990.188,905.314"/>
	<path style="fill:#FFFFFF;" d="M510.412,769.185c0-0.346-0.28-0.625-0.626-0.625c-0.35,0-0.629,0.279-0.629,0.625
		c0,0.35,0.279,0.629,0.629,0.629C510.132,769.814,510.412,769.535,510.412,769.185"/>
	<path style="fill:#FFFFFF;" d="M531.572,806.752c0-1.66-1.345-3.004-3.005-3.004c-1.66,0-3.004,1.344-3.004,3.004
		c0,1.66,1.344,3.004,3.004,3.004C530.227,809.756,531.572,808.412,531.572,806.752"/>
	<path style="fill:#FFFFFF;" d="M844.391,787.993c0-2.654-2.149-4.808-4.808-4.808c-2.654,0-4.808,2.153-4.808,4.808
		s2.153,4.808,4.808,4.808C842.241,792.801,844.391,790.647,844.391,787.993"/>
	<path style="fill:#FFFFFF;" d="M595.897,769.273c0-0.459-0.374-0.831-0.832-0.831c-0.46,0-0.833,0.372-0.833,0.831
		c0,0.457,0.373,0.829,0.833,0.829C595.523,770.102,595.897,769.73,595.897,769.273"/>
	<path style="fill:#FFFFFF;" d="M589.342,806.841c0-2-1.621-3.618-3.617-3.618c-1.997,0-3.618,1.618-3.618,3.618
		c0,1.997,1.621,3.615,3.618,3.615C587.721,810.456,589.342,808.838,589.342,806.841"/>
	<path style="fill:#FFFFFF;" d="M314.141,769.211c0-0.672-0.543-1.214-1.214-1.214c-0.669,0-1.212,0.542-1.212,1.214
		c0,0.67,0.543,1.212,1.212,1.212C313.598,770.423,314.141,769.881,314.141,769.211"/>
	<path style="fill:#FFFFFF;" d="M333.173,787.993c0-0.808-0.655-1.462-1.462-1.462c-0.808,0-1.461,0.654-1.461,1.462
		c0,0.806,0.653,1.461,1.461,1.461C332.518,789.454,333.173,788.799,333.173,787.993"/>
	<path style="fill:#FFFFFF;" d="M346.694,778.534c0-3.091-2.505-5.595-5.592-5.595c-3.091,0-5.596,2.504-5.596,5.595
		c0,3.088,2.505,5.593,5.596,5.593C344.189,784.127,346.694,781.622,346.694,778.534"/>
	<path style="fill:#FFFFFF;" d="M744.106,787.993c0-0.808-0.654-1.462-1.461-1.462c-0.808,0-1.461,0.654-1.461,1.462
		c0,0.806,0.653,1.461,1.461,1.461C743.452,789.454,744.106,788.799,744.106,787.993"/>
	<path style="fill:#FFFFFF;" d="M757.588,787.924c0-3.064-2.487-5.549-5.551-5.549c-3.069,0-5.554,2.484-5.554,5.549
		c0,3.068,2.484,5.552,5.554,5.552C755.101,793.476,757.588,790.992,757.588,787.924"/>
	<path style="fill:#FFFFFF;" d="M394.754,778.534c0-2.968-2.405-5.374-5.374-5.374c-2.969,0-5.374,2.406-5.374,5.374
		c0,2.966,2.405,5.374,5.374,5.374C392.349,783.908,394.754,781.5,394.754,778.534"/>
	<path style="fill:#FFFFFF;" d="M376.212,797.316c0-3.045-2.468-5.514-5.513-5.514s-5.514,2.469-5.514,5.514
		c0,3.045,2.469,5.513,5.514,5.513S376.212,800.361,376.212,797.316"/>
</g>
<g id="Ebene_1">
</g>
</svg>
