<?xml version="1.0" encoding="iso-8859-1"?>
<!-- Generator: Adobe Illustrator 18.0.0, SVG Export Plug-In . SVG Version: 6.00 Build 0)  -->
<!DOCTYPE svg PUBLIC "-//W3C//DTD SVG 1.1//EN" "http://www.w3.org/Graphics/SVG/1.1/DTD/svg11.dtd">
<svg version="1.1" xmlns="http://www.w3.org/2000/svg" xmlns:xlink="http://www.w3.org/1999/xlink" x="0px" y="0px"
	 viewBox="0 0 1200 1760.01" style="enable-background:new 0 0 1200 1760.01;" xml:space="preserve">
<g id="n5">
	<path style="fill:#FFFFFF;" d="M484.834,877.142c0-1.405-1.14-2.545-2.544-2.545c-1.402,0-2.542,1.14-2.542,2.545
		c0,1.401,1.14,2.542,2.542,2.542C483.694,879.684,484.834,878.543,484.834,877.142"/>
	<path style="fill:#FFFFFF;" d="M712.041,887c0-2.496-2.024-4.518-4.517-4.518c-2.496,0-4.517,2.022-4.517,4.518
		c0,2.492,2.02,4.513,4.517,4.513C710.017,891.513,712.041,889.492,712.041,887"/>
	<path style="fill:#FFFFFF;" d="M711.044,905.781c0-1.943-1.575-3.52-3.52-3.52c-1.943,0-3.518,1.576-3.518,3.52
		c0,1.943,1.575,3.52,3.518,3.52C709.469,909.301,711.044,907.725,711.044,905.781"/>
	<path style="fill:#FFFFFF;" d="M729.525,905.781c0-1.778-1.437-3.222-3.22-3.222c-1.778,0-3.22,1.443-3.22,3.222
		c0,1.777,1.441,3.221,3.22,3.221C728.089,909.002,729.525,907.559,729.525,905.781"/>
	<path style="fill:#FFFFFF;" d="M673.064,868.253c0-0.49-0.4-0.892-0.895-0.892c-0.492,0-0.891,0.401-0.891,0.892
		c0,0.493,0.398,0.894,0.891,0.894C672.664,869.146,673.064,868.746,673.064,868.253"/>
	<path style="fill:#FFFFFF;" d="M352.108,858.342c0-0.791-0.637-1.429-1.429-1.429c-0.791,0-1.432,0.638-1.432,1.429
		c0,0.792,0.641,1.432,1.432,1.432C351.472,859.773,352.108,859.134,352.108,858.342"/>
	<path style="fill:#FFFFFF;" d="M633.648,886.518c0-0.678-0.55-1.226-1.224-1.226c-0.677,0-1.225,0.548-1.225,1.226
		c0,0.674,0.548,1.223,1.225,1.223C633.099,887.74,633.648,887.191,633.648,886.518"/>
	<path style="fill:#FFFFFF;" d="M446.611,895.906c0-2.725-2.209-4.938-4.938-4.938c-2.726,0-4.939,2.214-4.939,4.938
		c0,2.73,2.213,4.94,4.939,4.94C444.402,900.846,446.611,898.637,446.611,895.906"/>
	<path style="fill:#FFFFFF;" d="M286.465,877.123c0-0.839-0.681-1.523-1.523-1.523c-0.844,0-1.527,0.685-1.527,1.523
		c0,0.843,0.684,1.527,1.527,1.527C285.784,878.65,286.465,877.966,286.465,877.123"/>
	<path style="fill:#FFFFFF;" d="M323.123,877.123c0-0.338-0.276-0.615-0.619-0.615c-0.339,0-0.614,0.277-0.614,0.615
		c0,0.343,0.275,0.618,0.614,0.618C322.847,877.741,323.123,877.466,323.123,877.123"/>
	<path style="fill:#FFFFFF;" d="M288.181,886.518c0-1.793-1.451-3.243-3.239-3.243c-1.793,0-3.243,1.45-3.243,3.243
		c0,1.789,1.45,3.24,3.243,3.24C286.729,889.758,288.181,888.307,288.181,886.518"/>
	<path style="fill:#FFFFFF;" d="M297.87,895.908c0-1.955-1.583-3.537-3.538-3.537c-1.954,0-3.537,1.582-3.537,3.537
		c0,1.955,1.583,3.537,3.537,3.537C296.287,899.445,297.87,897.863,297.87,895.908"/>
	<path style="fill:#FFFFFF;" d="M318.035,895.908c0-2.717-2.205-4.922-4.922-4.922s-4.918,2.205-4.918,4.922
		s2.201,4.918,4.918,4.918S318.035,898.625,318.035,895.908"/>
	<path style="fill:#FFFFFF;" d="M363.947,905.299c0-2.143-1.733-3.876-3.876-3.876c-2.139,0-3.877,1.733-3.877,3.876
		c0,2.139,1.738,3.877,3.877,3.877C362.214,909.176,363.947,907.438,363.947,905.299"/>
	<path style="fill:#FFFFFF;" d="M537.926,867.732c0-0.894-0.729-1.623-1.624-1.623c-0.897,0-1.623,0.729-1.623,1.623
		c0,0.898,0.726,1.623,1.623,1.623C537.196,869.355,537.926,868.631,537.926,867.732"/>
	<path style="fill:#FFFFFF;" d="M531.457,877.123c0-2.51-2.035-4.547-4.549-4.547c-2.512,0-4.547,2.037-4.547,4.547
		c0,2.514,2.035,4.55,4.547,4.55C529.422,881.673,531.457,879.637,531.457,877.123"/>
	<path style="fill:#FFFFFF;" d="M547.968,886.518c0-1.259-1.02-2.279-2.275-2.279c-1.259,0-2.274,1.021-2.274,2.279
		c0,1.256,1.016,2.275,2.274,2.275C546.948,888.793,547.968,887.773,547.968,886.518"/>
	<path style="fill:#FFFFFF;" d="M550.928,895.908c0-2.893-2.346-5.234-5.235-5.234c-2.889,0-5.234,2.342-5.234,5.234
		c0,2.891,2.346,5.235,5.234,5.235C548.582,901.143,550.928,898.799,550.928,895.908"/>
	<path style="fill:#FFFFFF;" d="M530.162,905.299c0-1.796-1.454-3.254-3.254-3.254c-1.798,0-3.251,1.458-3.251,3.254
		c0,1.797,1.453,3.254,3.251,3.254C528.708,908.553,530.162,907.096,530.162,905.299"/>
	<path style="fill:#FFFFFF;" d="M539.913,905.299c0-1.995-1.616-3.611-3.611-3.611c-1.995,0-3.615,1.616-3.615,3.611
		c0,1.996,1.62,3.611,3.615,3.611C538.297,908.91,539.913,907.295,539.913,905.299"/>
	<path style="fill:#FFFFFF;" d="M840.628,877.123c0-0.875-0.714-1.59-1.594-1.59c-0.876,0-1.591,0.715-1.591,1.59
		c0,0.88,0.715,1.594,1.591,1.594C839.914,878.717,840.628,878.003,840.628,877.123"/>
	<path style="fill:#FFFFFF;" d="M867.817,867.732c0-0.335-0.273-0.607-0.607-0.607c-0.336,0-0.607,0.272-0.607,0.607
		c0,0.335,0.271,0.607,0.607,0.607C867.544,868.34,867.817,868.067,867.817,867.732"/>
	<path style="fill:#FFFFFF;" d="M907.428,877.123c0-1.461-1.188-2.646-2.65-2.646c-1.466,0-2.651,1.186-2.651,2.646
		c0,1.465,1.185,2.65,2.651,2.65C906.239,879.773,907.428,878.588,907.428,877.123"/>
	<path style="fill:#FFFFFF;" d="M897.999,905.299c0-1.443-1.171-2.613-2.616-2.613c-1.442,0-2.615,1.17-2.615,2.613
		c0,1.443,1.173,2.613,2.615,2.613C896.828,907.912,897.999,906.742,897.999,905.299"/>
	<path style="fill:#FFFFFF;" d="M970.586,877.123c0-2.275-1.845-4.119-4.12-4.119c-2.273,0-4.119,1.844-4.119,4.119
		s1.846,4.119,4.119,4.119C968.741,881.242,970.586,879.398,970.586,877.123"/>
	<path style="fill:#FFFFFF;" d="M989.367,877.123c0-2.275-1.844-4.119-4.119-4.119c-2.273,0-4.12,1.844-4.12,4.119
		s1.847,4.119,4.12,4.119C987.523,881.242,989.367,879.398,989.367,877.123"/>
	<path style="fill:#FFFFFF;" d="M971.407,867.732c0-2.726-2.211-4.939-4.941-4.939c-2.724,0-4.938,2.214-4.938,4.939
		c0,2.731,2.215,4.939,4.938,4.939C969.196,872.671,971.407,870.463,971.407,867.732"/>
	<path style="fill:#FFFFFF;" d="M217.715,877.082c0-1.516-1.229-2.749-2.75-2.749c-1.517,0-2.746,1.233-2.746,2.749
		c0,1.518,1.229,2.746,2.746,2.746C216.485,879.828,217.715,878.6,217.715,877.082"/>
	<path style="fill:#FFFFFF;" d="M236.883,886.474c0-1.73-1.402-3.138-3.133-3.138c-1.733,0-3.136,1.407-3.136,3.138
		c0,1.729,1.402,3.136,3.136,3.136C235.48,889.609,236.883,888.203,236.883,886.474"/>
	<path style="fill:#FFFFFF;" d="M522.096,787.971c0-1.615-1.307-2.923-2.919-2.923c-1.616,0-2.923,1.308-2.923,2.923
		c0,1.612,1.307,2.923,2.923,2.923C520.789,790.893,522.096,789.583,522.096,787.971"/>
	<path style="fill:#FFFFFF;" d="M514.56,797.361c0-2.636-2.139-4.774-4.774-4.774c-2.639,0-4.774,2.139-4.774,4.774
		c0,2.636,2.136,4.775,4.774,4.775C512.422,802.137,514.56,799.997,514.56,797.361"/>
	<path style="fill:#FFFFFF;" d="M832.409,778.602c0-1.226-0.992-2.216-2.217-2.216c-1.223,0-2.216,0.99-2.216,2.216
		c0,1.222,0.993,2.216,2.216,2.216C831.417,780.818,832.409,779.824,832.409,778.602"/>
	<path style="fill:#FFFFFF;" d="M833.806,787.993c0-1.995-1.618-3.614-3.613-3.614s-3.611,1.619-3.611,3.614
		c0,1.995,1.616,3.612,3.611,3.612S833.806,789.988,833.806,787.993"/>
	<path style="fill:#FFFFFF;" d="M832.125,797.385c0-1.068-0.866-1.934-1.933-1.934c-1.068,0-1.931,0.865-1.931,1.934
		c0,1.066,0.862,1.932,1.931,1.932C831.259,799.316,832.125,798.451,832.125,797.385"/>
	<path style="fill:#FFFFFF;" d="M429.643,787.993c0-1.204-0.976-2.179-2.179-2.179c-1.2,0-2.176,0.975-2.176,2.179
		s0.976,2.18,2.176,2.18C428.667,790.173,429.643,789.197,429.643,787.993"/>
	<path style="fill:#FFFFFF;" d="M431.108,806.709c0-2.015-1.632-3.645-3.645-3.645c-2.011,0-3.642,1.63-3.642,3.645
		c0,2.013,1.631,3.643,3.642,3.643C429.477,810.352,431.108,808.722,431.108,806.709"/>
	<path style="fill:#FFFFFF;" d="M439.251,797.385c0-1.322-1.071-2.393-2.393-2.393c-1.326,0-2.398,1.07-2.398,2.393
		c0,1.32,1.071,2.396,2.398,2.396C438.18,799.781,439.251,798.705,439.251,797.385"/>
	<path style="fill:#FFFFFF;" d="M794.095,769.075c0-1.943-1.576-3.519-3.517-3.519c-1.942,0-3.519,1.575-3.519,3.519
		c0,1.94,1.577,3.516,3.519,3.516C792.519,772.591,794.095,771.016,794.095,769.075"/>
	<path style="fill:#FFFFFF;" d="M811.948,806.775c0-0.295-0.243-0.533-0.537-0.533c-0.295,0-0.539,0.238-0.539,0.533
		c0,0.298,0.244,0.537,0.539,0.537C811.705,807.312,811.948,807.073,811.948,806.775"/>
	<path style="fill:#FFFFFF;" d="M674.675,797.385c0-2.287-1.85-4.139-4.138-4.139c-2.284,0-4.138,1.852-4.138,4.139
		c0,2.285,1.854,4.137,4.138,4.137C672.825,801.521,674.675,799.67,674.675,797.385"/>
	<path style="fill:#FFFFFF;" d="M684.029,816.166c0-2.264-1.833-4.098-4.1-4.098c-2.265,0-4.099,1.834-4.099,4.098
		c0,2.268,1.834,4.1,4.099,4.1C682.196,820.266,684.029,818.434,684.029,816.166"/>
	<path style="fill:#FFFFFF;" d="M693.514,816.166c0-2.312-1.879-4.189-4.191-4.189c-2.315,0-4.192,1.877-4.192,4.189
		c0,2.315,1.877,4.192,4.192,4.192C691.635,820.358,693.514,818.48,693.514,816.166"/>
	<path style="fill:#FFFFFF;" d="M880.961,788.054c0-2.213-1.791-4.002-3.999-4.002c-2.208,0-4.002,1.789-4.002,4.002
		c0,2.208,1.794,3.997,4.002,3.997C879.17,792.051,880.961,790.262,880.961,788.054"/>
	<path style="fill:#FFFFFF;" d="M888.628,788.054c0-1.26-1.018-2.278-2.275-2.278c-1.26,0-2.275,1.018-2.275,2.278
		c0,1.255,1.016,2.274,2.275,2.274C887.609,790.328,888.628,789.309,888.628,788.054"/>
	<path style="fill:#FFFFFF;" d="M888.585,806.835c0-1.233-0.997-2.234-2.233-2.234c-1.232,0-2.234,1.001-2.234,2.234
		s1.002,2.234,2.234,2.234C887.588,809.069,888.585,808.068,888.585,806.835"/>
	<path style="fill:#FFFFFF;" d="M609.778,778.665c0-2.969-2.405-5.374-5.373-5.374c-2.97,0-5.375,2.405-5.375,5.374
		c0,2.966,2.405,5.374,5.375,5.374C607.373,784.039,609.778,781.631,609.778,778.665"/>
	<path style="fill:#FFFFFF;" d="M616.241,788.055c0-1.378-1.116-2.494-2.494-2.494c-1.381,0-2.498,1.116-2.498,2.494
		c0,1.381,1.117,2.497,2.498,2.497C615.125,790.552,616.241,789.435,616.241,788.055"/>
	<path style="fill:#FFFFFF;" d="M591.237,797.447c0-3.045-2.468-5.514-5.513-5.514c-3.046,0-5.514,2.469-5.514,5.514
		c0,3.045,2.468,5.513,5.514,5.513C588.769,802.96,591.237,800.492,591.237,797.447"/>
	<path style="fill:#FFFFFF;" d="M616.247,797.447c0-1.384-1.119-2.505-2.5-2.505c-1.385,0-2.505,1.121-2.505,2.505
		c0,1.38,1.12,2.504,2.505,2.504C615.128,799.951,616.247,798.827,616.247,797.447"/>
	<path style="fill:#FFFFFF;" d="M342.023,769.211c0-0.511-0.413-0.924-0.922-0.924c-0.511,0-0.925,0.413-0.925,0.924
		c0,0.509,0.414,0.922,0.925,0.922C341.61,770.133,342.023,769.72,342.023,769.211"/>
	<path style="fill:#FFFFFF;" d="M744.544,806.775c0-1.05-0.85-1.9-1.898-1.9c-1.05,0-1.903,0.851-1.903,1.9
		c0,1.049,0.854,1.898,1.903,1.898C743.694,808.674,744.544,807.824,744.544,806.775"/>
	<path style="fill:#FFFFFF;" d="M362.405,797.316c0-0.58-0.468-1.047-1.048-1.047c-0.577,0-1.048,0.467-1.048,1.047
		c0,0.576,0.471,1.048,1.048,1.048C361.938,798.364,362.405,797.893,362.405,797.316"/>
	<path style="fill:#FFFFFF;" d="M392.099,806.711c0-1.503-1.216-2.719-2.719-2.719c-1.5,0-2.719,1.216-2.719,2.719
		c0,1.498,1.219,2.715,2.719,2.715C390.883,809.426,392.099,808.209,392.099,806.711"/>
</g>
<g id="Ebene_1">
</g>
</svg>
