<?xml version="1.0" encoding="iso-8859-1"?>
<!-- Generator: Adobe Illustrator 18.0.0, SVG Export Plug-In . SVG Version: 6.00 Build 0)  -->
<!DOCTYPE svg PUBLIC "-//W3C//DTD SVG 1.1//EN" "http://www.w3.org/Graphics/SVG/1.1/DTD/svg11.dtd">
<svg version="1.1" xmlns="http://www.w3.org/2000/svg" xmlns:xlink="http://www.w3.org/1999/xlink" x="0px" y="0px"
	 viewBox="0 0 2800 750" style="enable-background:new 0 0 2800 750;" xml:space="preserve">
<g id="n6">
	<path style="fill:#FFFFFF;" d="M1633.589,500.263c0-2.224-1.802-4.028-4.026-4.028c-2.226,0-4.028,1.804-4.028,4.028
		c0,2.224,1.802,4.028,4.028,4.028C1631.787,504.292,1633.589,502.487,1633.589,500.263"/>
	<path style="fill:#FFFFFF;" d="M850.459,455.311c0-5.299-4.304-9.601-9.61-9.601c-5.309,0-9.612,4.302-9.612,9.601
		c0,5.309,4.304,9.61,9.612,9.61C846.156,464.921,850.459,460.62,850.459,455.311"/>
	<path style="fill:#FFFFFF;" d="M2201.807,433.403c0-6.359-5.154-11.524-11.522-11.524c-6.361,0-11.521,5.165-11.521,11.524
		c0,6.37,5.16,11.522,11.521,11.522C2196.654,444.924,2201.807,439.773,2201.807,433.403"/>
	<path style="fill:#FFFFFF;" d="M1918.842,499.138c0-2.413-1.957-4.372-4.37-4.372c-2.413,0-4.365,1.959-4.365,4.372
		c0,2.415,1.953,4.365,4.365,4.365C1916.885,503.503,1918.842,501.553,1918.842,499.138"/>
	<path style="fill:#FFFFFF;" d="M2056.53,477.229c0-5.858-4.737-10.606-10.594-10.606c-5.858,0-10.597,4.748-10.597,10.606
		c0,5.848,4.739,10.599,10.597,10.599C2051.793,487.828,2056.53,483.078,2056.53,477.229"/>
	<path style="fill:#FFFFFF;" d="M533.797,455.216c0-5.29-4.288-9.574-9.569-9.574c-5.29,0-9.576,4.283-9.576,9.574
		c0,5.284,4.286,9.569,9.576,9.569C529.509,464.785,533.797,460.499,533.797,455.216"/>
	<path style="fill:#FFFFFF;" d="M511.879,542.853c0-5.281-4.276-9.558-9.569-9.558c-5.283,0-9.558,4.276-9.558,9.558
		c0,5.293,4.274,9.567,9.558,9.567C507.603,552.42,511.879,548.145,511.879,542.853"/>
	<path style="fill:#FFFFFF;" d="M1235.744,203.489c0-0.989-0.797-1.786-1.786-1.786c-0.987,0-1.786,0.797-1.786,1.786
		c0,0.989,0.8,1.796,1.786,1.796C1234.946,205.284,1235.744,204.478,1235.744,203.489"/>
	<path style="fill:#FFFFFF;" d="M1895.088,203.548c0-0.695-0.558-1.244-1.244-1.244c-0.688,0-1.244,0.549-1.244,1.244
		c0,0.688,0.556,1.24,1.244,1.24C1894.53,204.787,1895.088,204.236,1895.088,203.548"/>
	<path style="fill:#FFFFFF;" d="M1314.648,225.459c0-6.846-5.548-12.392-12.394-12.392c-6.844,0-12.385,5.546-12.385,12.392
		c0,6.837,5.541,12.383,12.385,12.383C1309.1,237.842,1314.648,232.296,1314.648,225.459"/>
	<path style="fill:#FFFFFF;" d="M1925.955,225.459c0-5.634-4.57-10.205-10.202-10.205c-5.635,0-10.203,4.57-10.203,10.205
		c0,5.635,4.568,10.203,10.203,10.203C1921.384,235.661,1925.955,231.093,1925.955,225.459"/>
	<path style="fill:#FFFFFF;" d="M1970.372,225.459c0-5.967-4.835-10.804-10.802-10.804c-5.963,0-10.797,4.837-10.797,10.804
		c0,5.96,4.834,10.806,10.797,10.806C1965.537,236.265,1970.372,231.419,1970.372,225.459"/>
	<path style="fill:#FFFFFF;" d="M1828.124,181.316c0-2.647-2.148-4.794-4.8-4.794c-2.65,0-4.794,2.146-4.794,4.794
		c0,2.652,2.144,4.8,4.794,4.8C1825.976,186.116,1828.124,183.968,1828.124,181.316"/>
	<path style="fill:#FFFFFF;" d="M1632.493,203.548c0-0.875-0.708-1.583-1.579-1.583c-0.875,0-1.583,0.709-1.583,1.583
		c0,0.87,0.708,1.581,1.583,1.581C1631.784,205.129,1632.493,204.418,1632.493,203.548"/>
	<path style="fill:#FFFFFF;" d="M2035.476,225.589c0-5.855-4.748-10.606-10.617-10.606c-5.853,0-10.606,4.75-10.606,10.606
		c0,5.867,4.753,10.617,10.606,10.617C2030.728,236.206,2035.476,231.455,2035.476,225.589"/>
	<path style="fill:#FFFFFF;" d="M2050.363,269.415c0-1.982-1.609-3.588-3.586-3.588c-1.982,0-3.588,1.606-3.588,3.588
		c0,1.987,1.606,3.591,3.588,3.591C2048.754,273.006,2050.363,271.402,2050.363,269.415"/>
	<path style="fill:#FFFFFF;" d="M2055.202,291.326c0-4.655-3.771-8.423-8.425-8.423c-4.652,0-8.434,3.768-8.434,8.423
		c0,4.655,3.782,8.423,8.434,8.423C2051.431,299.749,2055.202,295.981,2055.202,291.326"/>
	<path style="fill:#FFFFFF;" d="M1700.115,225.459c0-5.814-4.718-10.528-10.53-10.528c-5.814,0-10.528,4.714-10.528,10.528
		c0,5.812,4.714,10.528,10.528,10.528C1695.396,235.987,1700.115,231.271,1700.115,225.459"/>
	<path style="fill:#FFFFFF;" d="M895.443,225.3c0-4.427-3.584-8.011-8.004-8.011c-4.427,0-8.011,3.584-8.011,8.011
		c0,4.422,3.584,8.004,8.011,8.004C891.859,233.303,895.443,229.722,895.443,225.3"/>
	<path style="fill:#FFFFFF;" d="M874.086,291.037c0-4.668-3.782-8.444-8.441-8.444s-8.441,3.775-8.441,8.444
		c0,4.657,3.782,8.432,8.441,8.432S874.086,295.694,874.086,291.037"/>
</g>
<g id="Ebene_1">
</g>
</svg>
