<?xml version="1.0" encoding="iso-8859-1"?>
<!-- Generator: Adobe Illustrator 18.0.0, SVG Export Plug-In . SVG Version: 6.00 Build 0)  -->
<!DOCTYPE svg PUBLIC "-//W3C//DTD SVG 1.1//EN" "http://www.w3.org/Graphics/SVG/1.1/DTD/svg11.dtd">
<svg version="1.1" xmlns="http://www.w3.org/2000/svg" xmlns:xlink="http://www.w3.org/1999/xlink" x="0px" y="0px"
	 viewBox="0 0 1200 1760.01" style="enable-background:new 0 0 1200 1760.01;" xml:space="preserve">
<g id="n6">
	<path style="fill:#FFFFFF;" d="M699.859,896.391c0-0.953-0.773-1.727-1.726-1.727c-0.954,0-1.727,0.773-1.727,1.727
		c0,0.953,0.773,1.727,1.727,1.727C699.087,898.117,699.859,897.344,699.859,896.391"/>
	<path style="fill:#FFFFFF;" d="M364.19,877.123c0-2.271-1.845-4.115-4.119-4.115c-2.275,0-4.12,1.844-4.12,4.115
		c0,2.275,1.845,4.119,4.12,4.119C362.346,881.242,364.19,879.398,364.19,877.123"/>
	<path style="fill:#FFFFFF;" d="M943.412,867.732c0-2.726-2.209-4.939-4.938-4.939c-2.727,0-4.938,2.214-4.938,4.939
		c0,2.731,2.212,4.939,4.938,4.939C941.203,872.671,943.412,870.463,943.412,867.732"/>
	<path style="fill:#FFFFFF;" d="M822.126,895.908c0-1.034-0.839-1.874-1.873-1.874c-1.034,0-1.871,0.84-1.871,1.874
		c0,1.035,0.837,1.871,1.871,1.871C821.287,897.779,822.126,896.943,822.126,895.908"/>
	<path style="fill:#FFFFFF;" d="M881.143,886.518c0-2.511-2.03-4.546-4.541-4.546c-2.511,0-4.542,2.035-4.542,4.546
		c0,2.507,2.031,4.543,4.542,4.543C879.112,891.06,881.143,889.024,881.143,886.518"/>
	<path style="fill:#FFFFFF;" d="M228.461,877.082c0-2.268-1.838-4.104-4.102-4.104c-2.268,0-4.104,1.836-4.104,4.104
		c0,2.265,1.837,4.102,4.104,4.102C226.623,881.184,228.461,879.347,228.461,877.082"/>
	<path style="fill:#FFFFFF;" d="M219.066,914.646c0-2.264-1.833-4.097-4.102-4.097c-2.265,0-4.097,1.833-4.097,4.097
		c0,2.269,1.832,4.101,4.097,4.101C217.233,918.746,219.066,916.914,219.066,914.646"/>
	<path style="fill:#FFFFFF;" d="M529.333,769.185c0-0.424-0.342-0.766-0.766-0.766c-0.423,0-0.766,0.342-0.766,0.766
		c0,0.424,0.343,0.77,0.766,0.77C528.991,769.955,529.333,769.609,529.333,769.185"/>
	<path style="fill:#FFFFFF;" d="M811.944,769.211c0-0.298-0.239-0.533-0.533-0.533c-0.295,0-0.533,0.235-0.533,0.533
		c0,0.295,0.238,0.531,0.533,0.531C811.705,769.742,811.944,769.506,811.944,769.211"/>
	<path style="fill:#FFFFFF;" d="M563.153,778.602c0-2.935-2.378-5.312-5.312-5.312c-2.934,0-5.309,2.377-5.309,5.312
		c0,2.931,2.375,5.308,5.309,5.308C560.775,783.91,563.153,781.533,563.153,778.602"/>
	<path style="fill:#FFFFFF;" d="M825.175,778.602c0-2.415-1.959-4.374-4.373-4.374c-2.415,0-4.373,1.959-4.373,4.374
		c0,2.415,1.958,4.373,4.373,4.373C823.216,782.976,825.175,781.018,825.175,778.602"/>
	<path style="fill:#FFFFFF;" d="M844.213,778.602c0-2.558-2.072-4.631-4.63-4.631c-2.556,0-4.628,2.073-4.628,4.631
		c0,2.555,2.072,4.632,4.628,4.632C842.141,783.234,844.213,781.157,844.213,778.602"/>
	<path style="fill:#FFFFFF;" d="M783.242,759.682c0-1.135-0.921-2.055-2.058-2.055c-1.136,0-2.055,0.92-2.055,2.055
		c0,1.137,0.919,2.058,2.055,2.058C782.321,761.739,783.242,760.818,783.242,759.682"/>
	<path style="fill:#FFFFFF;" d="M699.39,769.211c0-0.375-0.304-0.679-0.677-0.679c-0.375,0-0.679,0.304-0.679,0.679
		c0,0.373,0.304,0.678,0.679,0.678C699.086,769.889,699.39,769.584,699.39,769.211"/>
	<path style="fill:#FFFFFF;" d="M872.118,778.658c0-2.51-2.035-4.546-4.551-4.546c-2.509,0-4.546,2.036-4.546,4.546
		c0,2.515,2.037,4.551,4.546,4.551C870.083,783.209,872.118,781.173,872.118,778.658"/>
	<path style="fill:#FFFFFF;" d="M878.499,797.443c0-0.85-0.689-1.538-1.537-1.538c-0.85,0-1.538,0.688-1.538,1.538
		c0,0.852,0.689,1.539,1.538,1.539C877.81,798.982,878.499,798.295,878.499,797.443"/>
	<path style="fill:#FFFFFF;" d="M880.573,806.835c0-1.995-1.616-3.61-3.611-3.61c-1.994,0-3.615,1.615-3.615,3.61
		c0,1.995,1.621,3.61,3.615,3.61C878.957,810.445,880.573,808.83,880.573,806.835"/>
	<path style="fill:#FFFFFF;" d="M728.374,778.602c0-2.492-2.022-4.513-4.514-4.513c-2.492,0-4.513,2.021-4.513,4.513
		c0,2.491,2.021,4.513,4.513,4.513C726.352,783.115,728.374,781.094,728.374,778.602"/>
	<path style="fill:#FFFFFF;" d="M383.472,778.534c0-1.898-1.536-3.434-3.431-3.434c-1.897,0-3.434,1.536-3.434,3.434
		c0,1.896,1.536,3.431,3.434,3.431C381.935,781.965,383.472,780.43,383.472,778.534"/>
	<path style="fill:#FFFFFF;" d="M374.317,806.711c0-2.001-1.621-3.619-3.618-3.619s-3.618,1.618-3.618,3.619
		c0,1.996,1.621,3.614,3.618,3.614S374.317,808.707,374.317,806.711"/>
</g>
<g id="Ebene_1">
</g>
</svg>
