<?xml version="1.0" encoding="iso-8859-1"?>
<!-- Generator: Adobe Illustrator 18.0.0, SVG Export Plug-In . SVG Version: 6.00 Build 0)  -->
<!DOCTYPE svg PUBLIC "-//W3C//DTD SVG 1.1//EN" "http://www.w3.org/Graphics/SVG/1.1/DTD/svg11.dtd">
<svg version="1.1" xmlns="http://www.w3.org/2000/svg" xmlns:xlink="http://www.w3.org/1999/xlink" x="0px" y="0px"
	 viewBox="0 0 2800 750" style="enable-background:new 0 0 2800 750;" xml:space="preserve">
<g id="n8">
	<path style="fill:#FFFFFF;" d="M1171.294,455.357c0-0.816-0.661-1.479-1.479-1.479c-0.816,0-1.474,0.663-1.474,1.479
		c0,0.807,0.658,1.467,1.474,1.467C1170.633,456.824,1171.294,456.163,1171.294,455.357"/>
	<path style="fill:#FFFFFF;" d="M1755.101,434.166c0-1.429-1.157-2.591-2.586-2.591c-1.429,0-2.588,1.162-2.588,2.591
		s1.16,2.584,2.588,2.584C1753.943,436.75,1755.101,435.594,1755.101,434.166"/>
	<path style="fill:#FFFFFF;" d="M1757.473,456.077c0-2.741-2.217-4.965-4.958-4.965s-4.964,2.224-4.964,4.965
		c0,2.739,2.224,4.962,4.964,4.962S1757.473,458.815,1757.473,456.077"/>
	<path style="fill:#FFFFFF;" d="M1755.616,521.812c0-1.718-1.39-3.11-3.101-3.11c-1.718,0-3.096,1.392-3.096,3.11
		c0,1.709,1.379,3.099,3.096,3.099C1754.226,524.911,1755.616,523.521,1755.616,521.812"/>
	<path style="fill:#FFFFFF;" d="M973.994,433.403c0-0.927-0.747-1.684-1.681-1.684c-0.93,0-1.684,0.757-1.684,1.684
		c0,0.936,0.754,1.684,1.684,1.684C973.247,435.086,973.994,434.339,973.994,433.403"/>
	<path style="fill:#FFFFFF;" d="M939.117,499.138c0-5.874-4.757-10.624-10.624-10.624c-5.865,0-10.622,4.75-10.622,10.624
		c0,5.867,4.757,10.624,10.622,10.624C934.36,509.762,939.117,505.005,939.117,499.138"/>
	<path style="fill:#FFFFFF;" d="M614.788,499.133c0-6.357-5.154-11.521-11.519-11.521c-6.359,0-11.524,5.165-11.524,11.521
		c0,6.37,5.165,11.524,11.524,11.524C609.635,510.657,614.788,505.504,614.788,499.133"/>
	<path style="fill:#FFFFFF;" d="M980.882,521.047c0-4.73-3.837-8.571-8.569-8.571s-8.564,3.841-8.564,8.571
		c0,4.734,3.832,8.562,8.564,8.562S980.882,525.781,980.882,521.047"/>
	<path style="fill:#FFFFFF;" d="M1919.626,433.403c0-2.843-2.313-5.154-5.154-5.154c-2.846,0-5.154,2.31-5.154,5.154
		c0,2.853,2.308,5.154,5.154,5.154C1917.313,438.556,1919.626,436.255,1919.626,433.403"/>
	<path style="fill:#FFFFFF;" d="M1991.697,455.311c0-6.348-5.147-11.492-11.494-11.492c-6.343,0-11.488,5.144-11.488,11.492
		s5.145,11.499,11.488,11.499C1986.55,466.81,1991.697,461.659,1991.697,455.311"/>
	<path style="fill:#FFFFFF;" d="M1962.543,499.138c0-2.344-1.902-4.251-4.254-4.251c-2.347,0-4.245,1.907-4.245,4.251
		c0,2.347,1.898,4.242,4.245,4.242C1960.641,503.38,1962.543,501.485,1962.543,499.138"/>
	<path style="fill:#FFFFFF;" d="M2056.963,455.311c0-6.088-4.94-11.018-11.027-11.018c-6.09,0-11.03,4.93-11.03,11.018
		c0,6.088,4.939,11.027,11.03,11.027C2052.023,466.339,2056.963,461.399,2056.963,455.311"/>
	<path style="fill:#FFFFFF;" d="M2100.281,499.138c0-5.814-4.716-10.531-10.528-10.531c-5.807,0-10.521,4.716-10.521,10.531
		c0,5.814,4.714,10.531,10.521,10.531C2095.565,509.668,2100.281,504.952,2100.281,499.138"/>
	<path style="fill:#FFFFFF;" d="M2289.025,521.083c0-6.361-5.154-11.524-11.522-11.524c-6.356,0-11.524,5.163-11.524,11.524
		c0,6.37,5.167,11.522,11.524,11.522C2283.872,532.605,2289.025,527.453,2289.025,521.083"/>
	<path style="fill:#FFFFFF;" d="M2324.192,521.047c0-1.581-1.292-2.859-2.866-2.859c-1.583,0-2.861,1.278-2.861,2.859
		c0,1.581,1.278,2.862,2.861,2.862C2322.9,523.908,2324.192,522.628,2324.192,521.047"/>
	<path style="fill:#FFFFFF;" d="M508.614,433.307c0-3.477-2.825-6.302-6.304-6.302c-3.477,0-6.295,2.825-6.295,6.302
		c0,3.481,2.818,6.295,6.295,6.295C505.789,439.602,508.614,436.788,508.614,433.307"/>
	<path style="fill:#FFFFFF;" d="M534.002,542.853c0-5.393-4.381-9.772-9.774-9.772c-5.402,0-9.781,4.379-9.781,9.772
		c0,5.402,4.379,9.783,9.781,9.783C529.621,552.636,534.002,548.255,534.002,542.853"/>
	<path style="fill:#FFFFFF;" d="M551.461,546.364c0-1.16-0.943-2.103-2.103-2.103c-1.167,0-2.103,0.943-2.103,2.103
		c0,1.162,0.937,2.107,2.103,2.107C550.518,548.471,551.461,547.526,551.461,546.364"/>
	<path style="fill:#FFFFFF;" d="M982.584,225.459c0-3.547-2.868-6.414-6.414-6.414c-3.538,0-6.407,2.866-6.407,6.414
		c0,3.536,2.868,6.404,6.407,6.404C979.716,231.863,982.584,228.995,982.584,225.459"/>
	<path style="fill:#FFFFFF;" d="M1054.288,225.459c0-6.846-5.539-12.392-12.383-12.392c-6.846,0-12.394,5.546-12.394,12.392
		c0,6.837,5.548,12.383,12.394,12.383C1048.75,237.842,1054.288,232.296,1054.288,225.459"/>
	<path style="fill:#FFFFFF;" d="M1834.777,203.231c0-6.329-5.124-11.456-11.453-11.456c-6.323,0-11.451,5.126-11.451,11.456
		c0,6.322,5.128,11.449,11.451,11.449C1829.653,214.68,1834.777,209.554,1834.777,203.231"/>
	<path style="fill:#FFFFFF;" d="M1613.697,203.548c0-2.593-2.108-4.696-4.691-4.696c-2.591,0-4.689,2.103-4.689,4.696
		c0,2.588,2.098,4.691,4.689,4.691C1611.589,208.239,1613.697,206.136,1613.697,203.548"/>
	<path style="fill:#FFFFFF;" d="M1636.239,316.605c0-1.157-0.943-2.101-2.103-2.101c-1.164,0-2.103,0.943-2.103,2.101
		c0,1.167,0.938,2.11,2.103,2.11C1635.295,318.714,1636.239,317.771,1636.239,316.605"/>
	<path style="fill:#FFFFFF;" d="M2026.852,203.68c0-1.098-0.893-1.982-1.994-1.982c-1.089,0-1.982,0.884-1.982,1.982
		c0,1.1,0.893,1.984,1.982,1.984C2025.959,205.665,2026.852,204.78,2026.852,203.68"/>
</g>
<g id="Ebene_1">
</g>
</svg>
