<?xml version="1.0" encoding="iso-8859-1"?>
<!-- Generator: Adobe Illustrator 18.0.0, SVG Export Plug-In . SVG Version: 6.00 Build 0)  -->
<!DOCTYPE svg PUBLIC "-//W3C//DTD SVG 1.1//EN" "http://www.w3.org/Graphics/SVG/1.1/DTD/svg11.dtd">
<svg version="1.1" xmlns="http://www.w3.org/2000/svg" xmlns:xlink="http://www.w3.org/1999/xlink" x="0px" y="0px"
	 viewBox="0 0 2800 750" style="enable-background:new 0 0 2800 750;" xml:space="preserve">
<g id="ne10">
	<path style="fill:#FFFFFF;" d="M1731.034,437.431c0-5.868-4.764-10.614-10.632-10.614c-5.868,0-10.619,4.746-10.619,10.614
		c0,5.873,4.751,10.63,10.619,10.63C1726.27,448.062,1731.034,443.304,1731.034,437.431"/>
	<path style="fill:#FFFFFF;" d="M1702.928,502.911c0-2.393-1.945-4.355-4.35-4.355s-4.346,1.961-4.346,4.355
		c0,2.407,1.941,4.352,4.346,4.352S1702.928,505.318,1702.928,502.911"/>
	<path style="fill:#FFFFFF;" d="M1863.507,437.431c0-3.393-2.753-6.155-6.16-6.155c-3.398,0-6.16,2.762-6.16,6.155
		c0,3.405,2.762,6.158,6.16,6.158C1860.754,443.589,1863.507,440.836,1863.507,437.431"/>
	<path style="fill:#FFFFFF;" d="M1904.155,437.431c0-1.733-1.414-3.147-3.151-3.147c-1.74,0-3.144,1.414-3.144,3.147
		c0,1.746,1.405,3.151,3.144,3.151C1902.741,440.583,1904.155,439.178,1904.155,437.431"/>
	<path style="fill:#FFFFFF;" d="M1860.899,502.911c0-1.955-1.593-3.547-3.552-3.547c-1.957,0-3.547,1.593-3.547,3.547
		c0,1.963,1.591,3.552,3.547,3.552C1859.306,506.463,1860.899,504.875,1860.899,502.911"/>
	<path style="fill:#FFFFFF;" d="M1582.271,437.44c0-1.283-1.05-2.328-2.334-2.328c-1.287,0-2.335,1.045-2.335,2.328
		c0,1.294,1.047,2.332,2.335,2.332C1581.221,439.773,1582.271,438.734,1582.271,437.44"/>
	<path style="fill:#FFFFFF;" d="M866.262,502.88c0-1.973-1.591-3.561-3.559-3.561c-1.969,0-3.561,1.588-3.561,3.561
		c0,1.959,1.591,3.556,3.561,3.556C864.671,506.436,866.262,504.839,866.262,502.88"/>
	<path style="fill:#FFFFFF;" d="M1022.481,524.705c0-5.28-4.278-9.569-9.565-9.569c-5.281,0-9.559,4.289-9.559,9.569
		c0,5.275,4.278,9.56,9.559,9.56C1018.203,534.265,1022.481,529.981,1022.481,524.705"/>
	<path style="fill:#FFFFFF;" d="M1330.838,459.221c0-3.984-3.236-7.223-7.222-7.223c-3.986,0-7.221,3.239-7.221,7.223
		c0,3.995,3.235,7.219,7.221,7.219C1327.602,466.44,1330.838,463.216,1330.838,459.221"/>
	<path style="fill:#FFFFFF;" d="M1448.425,250.803c0-6.563-5.325-11.881-11.883-11.881c-6.563,0-11.87,5.318-11.87,11.881
		c0,6.549,5.307,11.87,11.87,11.87C1443.099,262.673,1448.425,257.352,1448.425,250.803"/>
	<path style="fill:#FFFFFF;" d="M1936.396,250.652c0-5.803-4.699-10.499-10.492-10.499c-5.798,0-10.497,4.696-10.497,10.499
		c0,5.791,4.699,10.485,10.497,10.485C1931.697,261.137,1936.396,256.443,1936.396,250.652"/>
	<path style="fill:#FFFFFF;" d="M1936.396,272.475c0-5.798-4.699-10.497-10.492-10.497c-5.798,0-10.497,4.699-10.497,10.497
		c0,5.791,4.699,10.49,10.497,10.49C1931.697,282.965,1936.396,278.266,1936.396,272.475"/>
	<path style="fill:#FFFFFF;" d="M1994.736,294.305c0-1.864-1.502-3.377-3.359-3.377c-1.859,0-3.366,1.513-3.366,3.377
		c0,1.848,1.507,3.355,3.366,3.355C1993.234,297.66,1994.736,296.154,1994.736,294.305"/>
	<path style="fill:#FFFFFF;" d="M677.755,293.545c0-4.518,3.664-8.178,8.18-8.178s8.188,3.66,8.188,8.178
		c0,4.515-3.672,8.178-8.188,8.178S677.755,298.061,677.755,293.545"/>
	<path style="fill:#FFFFFF;" d="M617.096,293.545c0-1.859,1.507-3.359,3.364-3.359c1.857,0,3.363,1.5,3.363,3.359
		c0,1.853-1.505,3.359-3.363,3.359C618.603,296.905,617.096,295.398,617.096,293.545"/>
	<path style="fill:#FFFFFF;" d="M422.545,228.378c0-3.588-2.916-6.497-6.511-6.497c-3.594,0-6.51,2.909-6.51,6.497
		c0,3.597,2.916,6.515,6.51,6.515C419.629,234.893,422.545,231.975,422.545,228.378"/>
	<path style="fill:#FFFFFF;" d="M404.792,272.036c0-5.85-4.739-10.578-10.58-10.578c-5.845,0-10.587,4.728-10.587,10.578
		c0,5.845,4.743,10.582,10.587,10.582C400.053,282.619,404.792,277.882,404.792,272.036"/>
	<path style="fill:#FFFFFF;" d="M814.51,250.215c0-2.764-2.232-5.002-4.998-5.002c-2.761,0-5.004,2.237-5.004,5.002
		c0,2.749,2.243,4.997,5.004,4.997C812.278,255.212,814.51,252.964,814.51,250.215"/>
	<path style="fill:#FFFFFF;" d="M2037.739,272.036c0-2.099-1.699-3.803-3.807-3.803c-2.104,0-3.805,1.703-3.805,3.803
		c0,2.106,1.701,3.807,3.805,3.807C2036.04,275.844,2037.739,274.142,2037.739,272.036"/>
	<path style="fill:#FFFFFF;" d="M1190.29,206.907c0-1.525-1.23-2.769-2.762-2.769c-1.529,0-2.771,1.244-2.771,2.769
		c0,1.527,1.242,2.767,2.771,2.767C1189.06,209.674,1190.29,208.434,1190.29,206.907"/>
	<path style="fill:#FFFFFF;" d="M1806.461,228.737c0-4.314-3.502-7.809-7.805-7.809c-4.31,0-7.796,3.495-7.796,7.809
		c0,4.303,3.486,7.791,7.796,7.791C1802.959,236.529,1806.461,233.04,1806.461,228.737"/>
	<path style="fill:#FFFFFF;" d="M1148.86,250.561c0-2.753-2.233-4.979-4.98-4.979c-2.755,0-4.988,2.226-4.988,4.979
		c0,2.753,2.233,4.979,4.988,4.979C1146.627,255.54,1148.86,253.314,1148.86,250.561"/>
	<path style="fill:#FFFFFF;" d="M995.292,228.737c0-2.323-1.883-4.201-4.204-4.201c-2.315,0-4.19,1.878-4.19,4.201
		c0,2.319,1.874,4.192,4.19,4.192C993.409,232.929,995.292,231.056,995.292,228.737"/>
	<path style="fill:#FFFFFF;" d="M1001.852,272.389c0-5.947-4.814-10.766-10.764-10.766c-5.934,0-10.759,4.819-10.759,10.766
		c0,5.941,4.825,10.759,10.759,10.759C997.038,283.148,1001.852,278.33,1001.852,272.389"/>
	<path style="fill:#FFFFFF;" d="M994.718,294.211c0-2.004-1.623-3.631-3.63-3.631c-1.999,0-3.624,1.627-3.624,3.631
		c0,1.998,1.625,3.626,3.624,3.626C993.095,297.837,994.718,296.208,994.718,294.211"/>
	<path style="fill:#FFFFFF;" d="M1613.132,228.737c0-2.323-1.885-4.201-4.203-4.201c-2.321,0-4.185,1.878-4.185,4.201
		c0,2.319,1.864,4.192,4.185,4.192C1611.248,232.929,1613.132,231.056,1613.132,228.737"/>
	<path style="fill:#FFFFFF;" d="M1686.758,272.389c0-6.82-5.529-12.352-12.347-12.352c-6.816,0-12.347,5.531-12.347,12.352
		c0,6.816,5.531,12.345,12.347,12.345C1681.229,284.734,1686.758,279.205,1686.758,272.389"/>
	<path style="fill:#FFFFFF;" d="M1748.6,250.561c0-6.814-5.524-12.347-12.345-12.347c-6.832,0-12.347,5.533-12.347,12.347
		c0,6.818,5.515,12.343,12.347,12.343C1743.076,262.904,1748.6,257.379,1748.6,250.561"/>
	<path style="fill:#FFFFFF;" d="M2319.382,262.27c0-6.194-5.018-11.207-11.211-11.207c-6.194,0-11.207,5.013-11.207,11.207
		c0,6.185,5.013,11.207,11.207,11.207C2314.365,273.477,2319.382,268.455,2319.382,262.27"/>
	<path style="fill:#FFFFFF;" d="M510.046,206.477c0-1.314-1.058-2.378-2.366-2.378c-1.312,0-2.375,1.063-2.375,2.378
		c0,1.31,1.063,2.373,2.375,2.373C508.988,208.85,510.046,207.787,510.046,206.477"/>
	<path style="fill:#FFFFFF;" d="M578.617,271.95c0-3.21-2.605-5.816-5.814-5.816c-3.216,0-5.82,2.606-5.82,5.816
		c0,3.208,2.604,5.823,5.82,5.823C576.013,277.773,578.617,275.158,578.617,271.95"/>
</g>
<g id="Ebene_1">
</g>
</svg>
