<?xml version="1.0" encoding="iso-8859-1"?>
<!-- Generator: Adobe Illustrator 18.0.0, SVG Export Plug-In . SVG Version: 6.00 Build 0)  -->
<!DOCTYPE svg PUBLIC "-//W3C//DTD SVG 1.1//EN" "http://www.w3.org/Graphics/SVG/1.1/DTD/svg11.dtd">
<svg version="1.1" xmlns="http://www.w3.org/2000/svg" xmlns:xlink="http://www.w3.org/1999/xlink" x="0px" y="0px"
	 viewBox="0 0 2800 750" style="enable-background:new 0 0 2800 750;" xml:space="preserve">
<g id="ne9">
	<path style="fill:#FFFFFF;" d="M1465.744,481.119c0-4.201-3.398-7.608-7.599-7.608c-4.196,0-7.599,3.407-7.599,7.608
		c0,4.192,3.402,7.594,7.599,7.594C1462.346,488.714,1465.744,485.311,1465.744,481.119"/>
	<path style="fill:#FFFFFF;" d="M1981.38,459.257c0-6.332-5.126-11.479-11.476-11.479c-6.332,0-11.476,5.147-11.476,11.479
		c0,6.341,5.144,11.476,11.476,11.476C1976.254,470.734,1981.38,465.598,1981.38,459.257"/>
	<path style="fill:#FFFFFF;" d="M1725.116,415.61c0-2.604-2.099-4.715-4.714-4.715c-2.597,0-4.708,2.111-4.708,4.715
		c0,2.599,2.111,4.714,4.708,4.714C1723.017,420.324,1725.116,418.209,1725.116,415.61"/>
	<path style="fill:#FFFFFF;" d="M1775.839,437.431c0-6.502-5.28-11.77-11.779-11.77c-6.504,0-11.775,5.269-11.775,11.77
		c0,6.504,5.271,11.777,11.775,11.777C1770.559,449.209,1775.839,443.935,1775.839,437.431"/>
	<path style="fill:#FFFFFF;" d="M1751.792,524.742c0-5.275-4.276-9.565-9.56-9.565c-5.282,0-9.56,4.289-9.56,9.565
		c0,5.276,4.278,9.556,9.56,9.556C1747.517,534.297,1751.792,530.017,1751.792,524.742"/>
	<path style="fill:#FFFFFF;" d="M1846.362,437.431c0-5.988-4.85-10.836-10.836-10.836c-5.995,0-10.841,4.848-10.841,10.836
		c0,5.99,4.846,10.841,10.841,10.841C1841.512,448.272,1846.362,443.422,1846.362,437.431"/>
	<path style="fill:#FFFFFF;" d="M1887.385,459.257c0-4.536-3.669-8.214-8.216-8.214c-4.527,0-8.198,3.678-8.198,8.214
		c0,4.542,3.672,8.209,8.198,8.209C1883.716,467.467,1887.385,463.8,1887.385,459.257"/>
	<path style="fill:#FFFFFF;" d="M1817.329,481.092c0-2.016-1.631-3.629-3.626-3.629c-2.004,0-3.631,1.613-3.631,3.629
		c0,1.995,1.626,3.617,3.631,3.617C1815.698,484.71,1817.329,483.088,1817.329,481.092"/>
	<path style="fill:#FFFFFF;" d="M709.292,415.569c0-1.07-0.865-1.936-1.936-1.936c-1.067,0-1.94,0.866-1.94,1.936
		c0,1.07,0.873,1.932,1.94,1.932C708.427,417.501,709.292,416.639,709.292,415.569"/>
	<path style="fill:#FFFFFF;" d="M756.019,459.221c0-2.767-2.241-5.009-5.013-5.009c-2.763,0-5.006,2.242-5.006,5.009
		c0,2.771,2.243,5.011,5.006,5.011C753.778,464.232,756.019,461.992,756.019,459.221"/>
	<path style="fill:#FFFFFF;" d="M826.052,459.221c0-5.28-4.285-9.556-9.566-9.556c-5.287,0-9.565,4.276-9.565,9.556
		c0,5.285,4.278,9.56,9.565,9.56C821.767,468.781,826.052,464.506,826.052,459.221"/>
	<path style="fill:#FFFFFF;" d="M1044.443,459.221c0-5.357-4.336-9.693-9.696-9.693c-5.354,0-9.698,4.337-9.698,9.693
		c0,5.353,4.345,9.7,9.698,9.7C1040.107,468.921,1044.443,464.574,1044.443,459.221"/>
	<path style="fill:#FFFFFF;" d="M1235.573,481.052c0-2.427-1.968-4.396-4.395-4.396c-2.425,0-4.398,1.968-4.398,4.396
		c0,2.425,1.973,4.389,4.398,4.389C1233.604,485.44,1235.573,483.476,1235.573,481.052"/>
	<path style="fill:#FFFFFF;" d="M741.527,502.88c0-6.818-5.527-12.352-12.347-12.352c-6.816,0-12.337,5.533-12.337,12.352
		c0,6.809,5.521,12.334,12.337,12.334C736.001,515.213,741.527,509.689,741.527,502.88"/>
	<path style="fill:#FFFFFF;" d="M803.845,524.705c0-5.081-4.115-9.189-9.179-9.189c-5.075,0-9.19,4.108-9.19,9.189
		c0,5.067,4.115,9.18,9.19,9.18C799.73,533.886,803.845,529.773,803.845,524.705"/>
	<path style="fill:#FFFFFF;" d="M895.249,502.88c0-5.916-4.801-10.721-10.719-10.721c-5.916,0-10.716,4.805-10.716,10.721
		c0,5.923,4.8,10.714,10.716,10.714C890.448,513.593,895.249,508.802,895.249,502.88"/>
	<path style="fill:#FFFFFF;" d="M1448.873,272.625c0-6.809-5.515-12.329-12.331-12.329c-6.807,0-12.331,5.52-12.331,12.329
		c0,6.811,5.524,12.336,12.331,12.336C1443.357,284.96,1448.873,279.436,1448.873,272.625"/>
	<path style="fill:#FFFFFF;" d="M1974.856,272.475c0-2.925-2.38-5.298-5.307-5.298c-2.927,0-5.293,2.373-5.293,5.298
		c0,2.92,2.366,5.294,5.293,5.294C1972.476,277.769,1974.856,275.396,1974.856,272.475"/>
	<path style="fill:#FFFFFF;" d="M2066.335,272.036c0-5.85-4.735-10.578-10.58-10.578c-5.839,0-10.581,4.728-10.581,10.578
		c0,5.845,4.742,10.582,10.581,10.582C2061.6,282.619,2066.335,277.882,2066.335,272.036"/>
	<path style="fill:#FFFFFF;" d="M2111.751,272.036c0-6.809-5.531-12.345-12.347-12.345c-6.821,0-12.343,5.536-12.343,12.345
		c0,6.825,5.522,12.349,12.343,12.349C2106.22,284.386,2111.751,278.861,2111.751,272.036"/>
	<path style="fill:#FFFFFF;" d="M1302.221,206.907c0-3.077-2.491-5.565-5.559-5.565c-3.077,0-5.565,2.488-5.565,5.565
		c0,3.079,2.488,5.567,5.565,5.567C1299.73,212.474,1302.221,209.986,1302.221,206.907"/>
	<path style="fill:#FFFFFF;" d="M1152.542,228.737c0-4.789-3.879-8.669-8.662-8.669c-4.79,0-8.67,3.88-8.67,8.669
		c0,4.782,3.88,8.658,8.67,8.658C1148.663,237.395,1152.542,233.52,1152.542,228.737"/>
	<path style="fill:#FFFFFF;" d="M1809.069,250.561c0-5.751-4.662-10.413-10.413-10.413c-5.751,0-10.402,4.662-10.402,10.413
		c0,5.746,4.651,10.4,10.402,10.4C1804.407,260.961,1809.069,256.307,1809.069,250.561"/>
	<path style="fill:#FFFFFF;" d="M1129.996,272.389c0-4.396-3.562-7.949-7.949-7.949c-4.387,0-7.938,3.554-7.938,7.949
		c0,4.384,3.551,7.945,7.938,7.945C1126.434,280.334,1129.996,276.773,1129.996,272.389"/>
	<path style="fill:#FFFFFF;" d="M1326.263,272.389c0-4.296-3.483-7.78-7.776-7.78c-4.303,0-7.781,3.484-7.781,7.78
		c0,4.291,3.478,7.775,7.781,7.775C1322.78,280.164,1326.263,276.681,1326.263,272.389"/>
	<path style="fill:#FFFFFF;" d="M2239.426,287.166c0-5.787,4.692-10.481,10.497-10.481c5.791,0,10.488,4.694,10.488,10.481
		c0,5.798-4.697,10.494-10.488,10.494C2244.118,297.66,2239.426,292.964,2239.426,287.166"/>
	<path style="fill:#FFFFFF;" d="M560.719,271.95c0-5.309-4.312-9.617-9.626-9.617c-5.313,0-9.618,4.307-9.618,9.617
		c0,5.318,4.305,9.619,9.618,9.619C556.407,281.569,560.719,277.269,560.719,271.95"/>
</g>
<g id="Ebene_1">
</g>
</svg>
