<?xml version="1.0" encoding="iso-8859-1"?>
<!-- Generator: Adobe Illustrator 18.0.0, SVG Export Plug-In . SVG Version: 6.00 Build 0)  -->
<!DOCTYPE svg PUBLIC "-//W3C//DTD SVG 1.1//EN" "http://www.w3.org/Graphics/SVG/1.1/DTD/svg11.dtd">
<svg version="1.1" xmlns="http://www.w3.org/2000/svg" xmlns:xlink="http://www.w3.org/1999/xlink" x="0px" y="0px"
	 viewBox="0 0 2800 10000" style="enable-background:new 0 0 2800 10000;" xml:space="preserve">
<g id="snow_x5F_mid1">
	<path style="fill:#FFFFFF;" d="M1436.023,7920.378c0-5.425-4.402-9.831-9.829-9.831c-5.434,0-9.831,4.406-9.831,9.831
		c0,5.432,4.397,9.831,9.831,9.831C1431.621,7930.209,1436.023,7925.81,1436.023,7920.378"/>
	<path style="fill:#FFFFFF;" d="M560.695,9440.011c0-3.857-3.128-6.983-6.983-6.983c-3.864,0-6.992,3.126-6.992,6.983
		c0,3.863,3.128,6.992,6.992,6.992C557.567,9447.003,560.695,9443.874,560.695,9440.011"/>
	<path style="fill:#FFFFFF;" d="M546.72,8163.379c0-5.461-4.429-9.895-9.895-9.895c-5.461,0-9.888,4.434-9.888,9.895
		c0,5.461,4.427,9.888,9.888,9.888C542.291,8173.267,546.72,8168.84,546.72,8163.379"/>
	<path style="fill:#FFFFFF;" d="M985.337,7757.453c0-4.609-3.741-8.344-8.348-8.344c-4.609,0-8.343,3.734-8.343,8.344
		c0,4.613,3.734,8.348,8.343,8.348C981.596,7765.801,985.337,7762.066,985.337,7757.453"/>
	<path style="fill:#FFFFFF;" d="M2632.595,8719.454c0-5.796-4.7-10.494-10.499-10.494c-5.787,0-10.483,4.698-10.483,10.494
		c0,5.787,4.696,10.485,10.483,10.485C2627.895,8729.939,2632.595,8725.241,2632.595,8719.454"/>
	<path style="fill:#FFFFFF;" d="M1024.264,8034.789c0-5.758-4.666-10.431-10.43-10.431c-5.755,0-10.43,4.673-10.43,10.431
		c0,5.762,4.675,10.428,10.43,10.428C1019.598,8045.216,1024.264,8040.55,1024.264,8034.789"/>
	<path style="fill:#FFFFFF;" d="M1104.208,7271.442c0-5.865-4.753-10.615-10.617-10.615c-5.862,0-10.617,4.75-10.617,10.615
		c0,5.864,4.755,10.617,10.617,10.617C1099.456,7282.06,1104.208,7277.307,1104.208,7271.442"/>
	<path style="fill:#FFFFFF;" d="M2463.673,4860.741c0-3.192-2.593-5.778-5.785-5.778c-3.194,0-5.78,2.586-5.78,5.778
		c0,3.192,2.586,5.778,5.78,5.778C2461.08,4866.519,2463.673,4863.933,2463.673,4860.741"/>
	<path style="fill:#FFFFFF;" d="M1464.181,3750.876c0-5.425-4.402-9.831-9.829-9.831c-5.434,0-9.831,4.406-9.831,9.831
		c0,5.432,4.397,9.831,9.831,9.831C1459.78,3760.708,1464.181,3756.308,1464.181,3750.876"/>
	<path style="fill:#FFFFFF;" d="M947.272,3253.423c0-5.757-4.666-10.43-10.43-10.43c-5.755,0-10.43,4.673-10.43,10.43
		c0,5.763,4.675,10.429,10.43,10.429C942.605,3263.852,947.272,3259.186,947.272,3253.423"/>
	<path style="fill:#FFFFFF;" d="M1718.806,3902.661c0-6.703-5.441-12.141-12.148-12.141c-6.703,0-12.144,5.438-12.144,12.141
		c0,6.71,5.441,12.146,12.144,12.146C1713.366,3914.807,1718.806,3909.371,1718.806,3902.661"/>
	<path style="fill:#FFFFFF;" d="M2369.518,3198.752c0-6.703-5.441-12.141-12.148-12.141c-6.703,0-12.144,5.439-12.144,12.141
		c0,6.71,5.441,12.146,12.144,12.146C2364.077,3210.898,2369.518,3205.462,2369.518,3198.752"/>
	<path style="fill:#FFFFFF;" d="M663.218,3974.418c0-6.543-5.299-11.841-11.845-11.841c-6.543,0-11.836,5.297-11.836,11.841
		s5.292,11.843,11.836,11.843C657.919,3986.261,663.218,3980.961,663.218,3974.418"/>
	<path style="fill:#FFFFFF;" d="M1527.934,4042.22c0-5.425-4.402-9.831-9.829-9.831c-5.432,0-9.829,4.406-9.829,9.831
		c0,5.431,4.397,9.831,9.829,9.831C1523.533,4052.051,1527.934,4047.651,1527.934,4042.22"/>
	<path style="fill:#FFFFFF;" d="M2468.508,2736.436c0-5.865-4.753-10.615-10.617-10.615c-5.862,0-10.617,4.75-10.617,10.615
		s4.755,10.617,10.617,10.617C2463.755,2747.053,2468.508,2742.3,2468.508,2736.436"/>
	<path style="fill:#FFFFFF;" d="M1394.994,3899.654c0-5.865-4.753-10.615-10.617-10.615c-5.862,0-10.617,4.75-10.617,10.615
		c0,5.864,4.755,10.617,10.617,10.617C1390.242,3910.271,1394.994,3905.518,1394.994,3899.654"/>
	<path style="fill:#FFFFFF;" d="M1019.001,5294.871c0-4.803-3.9-8.703-8.703-8.703c-4.812,0-8.703,3.9-8.703,8.703
		c0,4.812,3.892,8.706,8.703,8.706C1015.101,5303.577,1019.001,5299.683,1019.001,5294.871"/>
	<path style="fill:#FFFFFF;" d="M2801.098,4888.111c0-6.99-5.655-12.647-12.631-12.647c-6.99,0-12.645,5.657-12.645,12.647
		c0,6.977,5.655,12.636,12.645,12.636C2795.443,4900.747,2801.098,4895.087,2801.098,4888.111"/>
	<path style="fill:#FFFFFF;" d="M1763.594,5035.412c0-5.758-4.666-10.431-10.43-10.431c-5.755,0-10.43,4.673-10.43,10.431
		c0,5.762,4.675,10.428,10.43,10.428C1758.928,5045.839,1763.594,5041.173,1763.594,5035.412"/>
	<path style="fill:#FFFFFF;" d="M1344.291,4273.373c0-1.44-1.171-2.616-2.615-2.616c-1.444,0-2.616,1.176-2.616,2.616
		c0,1.444,1.171,2.62,2.616,2.62C1343.12,4275.993,1344.291,4274.817,1344.291,4273.373"/>
	<path style="fill:#FFFFFF;" d="M782.041,5741.072c0-5.04-4.076-9.123-9.12-9.123c-5.042,0-9.118,4.083-9.118,9.123
		c0,5.03,4.076,9.12,9.118,9.12C777.966,5750.192,782.041,5746.103,782.041,5741.072"/>
	<path style="fill:#FFFFFF;" d="M1235.963,4866.517c0-5.864-4.753-10.615-10.617-10.615c-5.862,0-10.617,4.75-10.617,10.615
		c0,5.865,4.755,10.617,10.617,10.617C1231.21,4877.134,1235.963,4872.381,1235.963,4866.517"/>
	<path style="fill:#FFFFFF;" d="M27.301,5683.106c0-5.04-4.076-9.123-9.12-9.123c-5.042,0-9.118,4.083-9.118,9.123
		c0,5.031,4.076,9.121,9.118,9.121C23.224,5692.227,27.301,5688.137,27.301,5683.106"/>
	<path style="fill:#FFFFFF;" d="M1511.396,5201.062c0-5.757-4.666-10.43-10.43-10.43c-5.755,0-10.43,4.673-10.43,10.43
		c0,5.762,4.675,10.428,10.43,10.428C1506.73,5211.49,1511.396,5206.824,1511.396,5201.062"/>
	<path style="fill:#FFFFFF;" d="M62.007,4911.747c0-5.461-4.429-9.895-9.895-9.895c-5.461,0-9.888,4.433-9.888,9.895
		s4.427,9.888,9.888,9.888C57.578,4921.635,62.007,4917.208,62.007,4911.747"/>
	<path style="fill:#FFFFFF;" d="M290.464,4911.747c0-5.461-4.429-9.895-9.895-9.895c-5.461,0-9.888,4.433-9.888,9.895
		s4.427,9.888,9.888,9.888C286.035,4921.635,290.464,4917.208,290.464,4911.747"/>
	<path style="fill:#FFFFFF;" d="M2526.542,5542.05c0-6.703-5.436-12.141-12.148-12.141c-6.703,0-12.139,5.438-12.139,12.141
		c0,6.71,5.436,12.146,12.139,12.146C2521.106,5554.196,2526.542,5548.76,2526.542,5542.05"/>
	<path style="fill:#FFFFFF;" d="M1017.388,5419.611c0-5.757-4.666-10.43-10.43-10.43c-5.755,0-10.43,4.673-10.43,10.43
		c0,5.762,4.675,10.428,10.43,10.428C1012.722,5430.04,1017.388,5425.374,1017.388,5419.611"/>
	<path style="fill:#FFFFFF;" d="M494.185,5040.301c0-6.543-5.299-11.841-11.845-11.841c-6.543,0-11.836,5.297-11.836,11.841
		s5.293,11.843,11.836,11.843C488.886,5052.144,494.185,5046.844,494.185,5040.301"/>
	<path style="fill:#FFFFFF;" d="M1087.99,5160.052c0-5.425-4.402-9.832-9.829-9.832c-5.432,0-9.829,4.407-9.829,9.832
		c0,5.432,4.397,9.831,9.829,9.831C1083.588,5169.883,1087.99,5165.483,1087.99,5160.052"/>
	<path style="fill:#FFFFFF;" d="M1304.472,7157.994c0-4.609-3.741-8.343-8.348-8.343c-4.609,0-8.343,3.734-8.343,8.343
		c0,4.614,3.734,8.348,8.343,8.348C1300.731,7166.342,1304.472,7162.607,1304.472,7157.994"/>
	<path style="fill:#FFFFFF;" d="M637.057,6905.961c0-7.263-5.883-13.16-13.153-13.16c-7.263,0-13.146,5.896-13.146,13.16
		c0,7.268,5.883,13.151,13.146,13.151C631.174,6919.112,637.057,6913.229,637.057,6905.961"/>
	<path style="fill:#FFFFFF;" d="M1939.144,6854.516c0-5.864-4.753-10.615-10.617-10.615c-5.864,0-10.617,4.75-10.617,10.615
		s4.753,10.617,10.617,10.617C1934.392,6865.133,1939.144,6860.38,1939.144,6854.516"/>
	<path style="fill:#FFFFFF;" d="M140.387,6774.694c0-5.757-4.666-10.43-10.43-10.43c-5.755,0-10.43,4.673-10.43,10.43
		c0,5.762,4.675,10.428,10.43,10.428C135.721,6785.122,140.387,6780.456,140.387,6774.694"/>
	<path style="fill:#FFFFFF;" d="M1757.393,6999.627c0-5.425-4.402-9.831-9.829-9.831c-5.432,0-9.829,4.406-9.829,9.831
		c0,5.432,4.397,9.832,9.829,9.832C1752.991,7009.458,1757.393,7005.059,1757.393,6999.627"/>
	<path style="fill:#FFFFFF;" d="M1511.396,6895.529c0-5.757-4.666-10.43-10.43-10.43c-5.755,0-10.43,4.673-10.43,10.43
		c0,5.762,4.675,10.428,10.43,10.428C1506.73,6905.957,1511.396,6901.291,1511.396,6895.529"/>
	<path style="fill:#FFFFFF;" d="M754.946,7206.924c0-4.609-3.741-8.343-8.348-8.343c-4.609,0-8.343,3.734-8.343,8.343
		c0,4.614,3.734,8.348,8.343,8.348C751.205,7215.272,754.946,7211.538,754.946,7206.924"/>
	<path style="fill:#FFFFFF;" d="M2041.657,4006.149c0-5.758-4.666-10.43-10.43-10.43c-5.755,0-10.43,4.673-10.43,10.43
		c0,5.762,4.675,10.428,10.43,10.428C2036.991,4016.577,2041.657,4011.911,2041.657,4006.149"/>
	<path style="fill:#FFFFFF;" d="M2327.73,3978.444c0-6.703-5.441-12.141-12.148-12.141c-6.703,0-12.144,5.438-12.144,12.141
		c0,6.71,5.441,12.146,12.144,12.146C2322.289,3990.59,2327.73,3985.154,2327.73,3978.444"/>
	<path style="fill:#FFFFFF;" d="M2486.646,3786.24c0-5.865-4.753-10.615-10.617-10.615s-10.617,4.75-10.617,10.615
		c0,5.864,4.753,10.617,10.617,10.617S2486.646,3792.104,2486.646,3786.24"/>
	<path style="fill:#FFFFFF;" d="M453.049,4164.864c0-2.843-2.301-5.145-5.145-5.145c-2.841,0-5.142,2.301-5.142,5.145
		s2.301,5.145,5.142,5.145C450.747,4170.008,453.049,4167.707,453.049,4164.864"/>
	<path style="fill:#FFFFFF;" d="M1365.141,3637.083c0-5.864-4.753-10.615-10.617-10.615c-5.862,0-10.617,4.75-10.617,10.615
		c0,5.865,4.755,10.617,10.617,10.617C1360.388,3647.7,1365.141,3642.947,1365.141,3637.083"/>
	<path style="fill:#FFFFFF;" d="M738.649,2583.717c0-5.865-4.753-10.615-10.617-10.615c-5.862,0-10.617,4.75-10.617,10.615
		s4.755,10.617,10.617,10.617C733.896,2594.334,738.649,2589.582,738.649,2583.717"/>
	<path style="fill:#FFFFFF;" d="M1563.263,3860.359c0-5.758-4.666-10.43-10.43-10.43c-5.755,0-10.43,4.673-10.43,10.43
		c0,5.762,4.675,10.428,10.43,10.428C1558.597,3870.787,1563.263,3866.121,1563.263,3860.359"/>
	<path style="fill:#FFFFFF;" d="M403.337,4449.224c0-6.543-5.299-11.841-11.845-11.841c-6.543,0-11.836,5.297-11.836,11.841
		s5.293,11.843,11.836,11.843C398.038,4461.066,403.337,4455.767,403.337,4449.224"/>
	<path style="fill:#FFFFFF;" d="M1225.402,4226.66c0-5.425-4.402-9.831-9.829-9.831c-5.436,0-9.833,4.406-9.833,9.831
		c0,5.432,4.397,9.831,9.833,9.831C1221.001,4236.491,1225.402,4232.091,1225.402,4226.66"/>
	<path style="fill:#FFFFFF;" d="M397.739,4601.63c0-5.04-4.076-9.123-9.12-9.123c-5.042,0-9.118,4.083-9.118,9.123
		c0,5.031,4.076,9.12,9.118,9.12C393.663,4610.75,397.739,4606.661,397.739,4601.63"/>
	<path style="fill:#FFFFFF;" d="M1045.597,4066.609c0-5.425-4.402-9.831-9.829-9.831c-5.432,0-9.829,4.406-9.829,9.831
		c0,5.432,4.397,9.831,9.829,9.831C1041.195,4076.441,1045.597,4072.041,1045.597,4066.609"/>
	<path style="fill:#FFFFFF;" d="M375.72,3426.349c0-3.192-2.593-5.778-5.785-5.778c-3.194,0-5.78,2.586-5.78,5.778
		c0,3.192,2.586,5.778,5.78,5.778C373.127,3432.127,375.72,3429.541,375.72,3426.349"/>
	<path style="fill:#FFFFFF;" d="M711.811,2347.24c0-3.192-2.593-5.778-5.785-5.778c-3.194,0-5.78,2.586-5.78,5.778
		c0,3.192,2.586,5.778,5.78,5.778C709.218,2353.018,711.811,2350.432,711.811,2347.24"/>
	<path style="fill:#FFFFFF;" d="M1616.663,2434.511c0-6.703-5.441-12.142-12.148-12.142c-6.703,0-12.144,5.439-12.144,12.142
		c0,6.71,5.441,12.146,12.144,12.146C1611.222,2446.657,1616.663,2441.22,1616.663,2434.511"/>
	<path style="fill:#FFFFFF;" d="M965.33,2523.157c0-3.192-2.593-5.778-5.785-5.778c-3.194,0-5.78,2.586-5.78,5.778
		c0,3.192,2.586,5.778,5.78,5.778C962.737,2528.935,965.33,2526.349,965.33,2523.157"/>
	<path style="fill:#FFFFFF;" d="M2325.208,2151.096c0-6.89-5.587-12.481-12.477-12.481c-6.894,0-12.476,5.591-12.476,12.481
		c0,6.892,5.582,12.474,12.476,12.474C2319.621,2163.57,2325.208,2157.988,2325.208,2151.096"/>
	<path style="fill:#FFFFFF;" d="M1093.237,2231.379c0-1.891-1.536-3.422-3.429-3.422c-1.894,0-3.424,1.531-3.424,3.422
		c0,1.893,1.531,3.431,3.424,3.431C1091.701,2234.81,1093.237,2233.272,1093.237,2231.379"/>
	<path style="fill:#FFFFFF;" d="M1522.419,2804.225c0-5.864-4.753-10.615-10.617-10.615c-5.865,0-10.617,4.751-10.617,10.615
		c0,5.865,4.753,10.617,10.617,10.617C1517.666,2814.842,1522.419,2810.089,1522.419,2804.225"/>
	<path style="fill:#FFFFFF;" d="M1743.431,3495.728c0-5.425-4.402-9.831-9.829-9.831c-5.436,0-9.833,4.406-9.833,9.831
		c0,5.432,4.397,9.831,9.833,9.831C1739.029,3505.559,1743.431,3501.159,1743.431,3495.728"/>
	<path style="fill:#FFFFFF;" d="M1586.563,2903.258c0-5.425-4.402-9.831-9.829-9.831c-5.432,0-9.829,4.406-9.829,9.831
		c0,5.431,4.397,9.831,9.829,9.831C1582.162,2913.089,1586.563,2908.69,1586.563,2903.258"/>
	<path style="fill:#FFFFFF;" d="M2645.158,2783.337c0-6.703-5.436-12.141-12.148-12.141c-6.703,0-12.139,5.438-12.139,12.141
		c0,6.71,5.436,12.146,12.139,12.146C2639.722,2795.483,2645.158,2790.046,2645.158,2783.337"/>
	<path style="fill:#FFFFFF;" d="M231.955,2783.338c0-4.803-3.901-8.703-8.703-8.703c-4.812,0-8.703,3.9-8.703,8.703
		c0,4.812,3.892,8.706,8.703,8.706C228.055,2792.043,231.955,2788.15,231.955,2783.338"/>
	<path style="fill:#FFFFFF;" d="M2254.725,2288.313c0-6.99-5.655-12.647-12.631-12.647c-6.99,0-12.645,5.657-12.645,12.647
		c0,6.977,5.655,12.636,12.645,12.636C2249.07,2300.949,2254.725,2295.289,2254.725,2288.313"/>
	<path style="fill:#FFFFFF;" d="M981.829,2452.004c0-5.864-4.753-10.615-10.617-10.615c-5.862,0-10.617,4.75-10.617,10.615
		c0,5.865,4.755,10.617,10.617,10.617C977.076,2462.621,981.829,2457.868,981.829,2452.004"/>
	<path style="fill:#FFFFFF;" d="M1250.334,3552.614c0-5.425-4.402-9.831-9.829-9.831c-5.436,0-9.833,4.406-9.833,9.831
		c0,5.431,4.397,9.831,9.833,9.831C1245.933,3562.445,1250.334,3558.045,1250.334,3552.614"/>
	<path style="fill:#FFFFFF;" d="M894.646,3102.131c0-5.758-4.666-10.43-10.43-10.43c-5.755,0-10.43,4.673-10.43,10.43
		c0,5.762,4.675,10.428,10.43,10.428C889.98,3112.559,894.646,3107.893,894.646,3102.131"/>
	<path style="fill:#FFFFFF;" d="M369.478,6164.412c0-5.461-4.429-9.895-9.895-9.895c-5.461,0-9.888,4.434-9.888,9.895
		c0,5.461,4.427,9.888,9.888,9.888C365.049,6174.3,369.478,6169.874,369.478,6164.412"/>
	<path style="fill:#FFFFFF;" d="M2369.518,5715.63c0-6.703-5.441-12.142-12.148-12.142c-6.703,0-12.144,5.439-12.144,12.142
		c0,6.71,5.441,12.146,12.144,12.146C2364.077,5727.776,2369.518,5722.34,2369.518,5715.63"/>
	<path style="fill:#FFFFFF;" d="M858.284,6690.137c0-5.757-4.666-10.43-10.43-10.43c-5.755,0-10.43,4.673-10.43,10.43
		c0,5.764,4.675,10.43,10.43,10.43C853.618,6700.566,858.284,6695.9,858.284,6690.137"/>
	<path style="fill:#FFFFFF;" d="M473.499,5906.347c0-5.04-4.076-9.122-9.12-9.122c-5.042,0-9.118,4.083-9.118,9.122
		c0,5.031,4.076,9.121,9.118,9.121C469.423,5915.467,473.499,5911.377,473.499,5906.347"/>
	<path style="fill:#FFFFFF;" d="M1210.271,6284.147c0-5.865-4.753-10.615-10.617-10.615c-5.862,0-10.617,4.75-10.617,10.615
		c0,5.864,4.755,10.617,10.617,10.617C1205.518,6294.764,1210.271,6290.011,1210.271,6284.147"/>
	<path style="fill:#FFFFFF;" d="M2729.913,6087.481c0-5.757-4.666-10.43-10.43-10.43c-5.755,0-10.43,4.673-10.43,10.43
		c0,5.762,4.675,10.428,10.43,10.428C2725.247,6097.909,2729.913,6093.243,2729.913,6087.481"/>
	<path style="fill:#FFFFFF;" d="M672.622,5906.345c0-5.865-4.753-10.615-10.617-10.615c-5.865,0-10.617,4.75-10.617,10.615
		c0,5.864,4.753,10.617,10.617,10.617C667.869,5916.962,672.622,5912.209,672.622,5906.345"/>
	<path style="fill:#FFFFFF;" d="M2486.646,6303.118c0-5.864-4.753-10.615-10.617-10.615s-10.617,4.751-10.617,10.615
		s4.753,10.617,10.617,10.617S2486.646,6308.982,2486.646,6303.118"/>
	<path style="fill:#FFFFFF;" d="M2211.374,6196.215c0-5.757-4.666-10.43-10.43-10.43c-5.755,0-10.43,4.673-10.43,10.43
		c0,5.762,4.675,10.428,10.43,10.428C2206.708,6206.643,2211.374,6201.977,2211.374,6196.215"/>
	<path style="fill:#FFFFFF;" d="M1171.949,6206.642c0-5.865-4.753-10.615-10.617-10.615c-5.862,0-10.617,4.75-10.617,10.615
		s4.755,10.617,10.617,10.617C1167.196,6217.259,1171.949,6212.506,1171.949,6206.642"/>
	<path style="fill:#FFFFFF;" d="M108.972,5938.693c0-5.461-4.429-9.895-9.895-9.895c-5.461,0-9.888,4.434-9.888,9.895
		c0,5.461,4.427,9.888,9.888,9.888C104.543,5948.581,108.972,5944.154,108.972,5938.693"/>
	<path style="fill:#FFFFFF;" d="M202.272,5821.521c0-5.04-4.076-9.122-9.12-9.122c-5.042,0-9.118,4.083-9.118,9.122
		c0,5.031,4.076,9.121,9.118,9.121C198.196,5830.642,202.272,5826.552,202.272,5821.521"/>
	<path style="fill:#FFFFFF;" d="M1743.431,6012.605c0-5.425-4.402-9.831-9.829-9.831c-5.436,0-9.833,4.406-9.833,9.831
		c0,5.432,4.397,9.831,9.833,9.831C1739.029,6022.436,1743.431,6018.037,1743.431,6012.605"/>
	<path style="fill:#FFFFFF;" d="M1938.666,6128.16c0-5.425-4.402-9.831-9.829-9.831c-5.436,0-9.834,4.406-9.834,9.831
		c0,5.432,4.397,9.831,9.834,9.831C1934.264,6137.991,1938.666,6133.592,1938.666,6128.16"/>
	<path style="fill:#FFFFFF;" d="M2015.196,5851.074c0-4.609-3.741-8.343-8.348-8.343c-4.607,0-8.343,3.734-8.343,8.343
		c0,4.614,3.736,8.348,8.343,8.348C2011.455,5859.422,2015.196,5855.688,2015.196,5851.074"/>
	<path style="fill:#FFFFFF;" d="M651.378,5792.358c0-5.04-4.076-9.123-9.12-9.123c-5.042,0-9.118,4.083-9.118,9.123
		c0,5.031,4.076,9.12,9.118,9.12C647.302,5801.479,651.378,5797.389,651.378,5792.358"/>
	<path style="fill:#FFFFFF;" d="M659.992,6303.107c0-4.609-3.741-8.343-8.348-8.343c-4.611,0-8.343,3.734-8.343,8.343
		c0,4.614,3.732,8.348,8.343,8.348C656.251,6311.456,659.992,6307.721,659.992,6303.107"/>
	<path style="fill:#FFFFFF;" d="M2496.851,8428.981c0-3.903-3.165-7.065-7.07-7.065c-3.91,0-7.074,3.162-7.074,7.065
		c0,3.907,3.164,7.069,7.074,7.069C2493.686,8436.051,2496.851,8432.889,2496.851,8428.981"/>
	<path style="fill:#FFFFFF;" d="M600.448,7749.109c0-4.803-3.901-8.703-8.703-8.703c-4.812,0-8.703,3.9-8.703,8.703
		c0,4.812,3.891,8.706,8.703,8.706C596.548,7757.815,600.448,7753.921,600.448,7749.109"/>
	<path style="fill:#FFFFFF;" d="M1546.446,8909.756c0-4.803-3.901-8.703-8.703-8.703c-4.812,0-8.703,3.9-8.703,8.703
		c0,4.812,3.891,8.706,8.703,8.706C1542.546,8918.462,1546.446,8914.568,1546.446,8909.756"/>
	<path style="fill:#FFFFFF;" d="M297.631,9259.243c0-4.739-3.835-8.585-8.578-8.585c-4.737,0-8.571,3.846-8.571,8.585
		c0,4.732,3.834,8.575,8.571,8.575C293.797,9267.818,297.631,9263.976,297.631,9259.243"/>
	<path style="fill:#FFFFFF;" d="M174.988,8054.339c0-5.04-4.076-9.123-9.12-9.123c-5.042,0-9.118,4.083-9.118,9.123
		c0,5.031,4.076,9.121,9.118,9.121C170.912,8063.459,174.988,8059.37,174.988,8054.339"/>
	<path style="fill:#FFFFFF;" d="M1492.647,8297.128c0-2.276-1.836-4.114-4.11-4.114c-2.271,0-4.11,1.838-4.11,4.114
		c0,2.267,1.839,4.105,4.11,4.105C1490.811,8301.233,1492.647,8299.395,1492.647,8297.128"/>
	<path style="fill:#FFFFFF;" d="M2247.75,9738.585c0-3.902-3.165-7.065-7.07-7.065c-3.91,0-7.074,3.163-7.074,7.065
		c0,3.907,3.165,7.069,7.074,7.069C2244.586,9745.654,2247.75,9742.492,2247.75,9738.585"/>
	<path style="fill:#FFFFFF;" d="M526.937,9025.62c0-5.338-4.327-9.665-9.669-9.665c-5.338,0-9.667,4.327-9.667,9.665
		c0,5.341,4.329,9.667,9.667,9.667C522.61,9035.287,526.937,9030.961,526.937,9025.62"/>
	<path style="fill:#FFFFFF;" d="M1115.18,4136.897c0-4.609-3.741-8.343-8.348-8.343c-4.609,0-8.343,3.734-8.343,8.343
		c0,4.614,3.734,8.348,8.343,8.348C1111.439,4145.245,1115.18,4141.511,1115.18,4136.897"/>
	<path style="fill:#FFFFFF;" d="M369.478,3647.535c0-5.461-4.429-9.895-9.895-9.895c-5.461,0-9.888,4.434-9.888,9.895
		s4.427,9.888,9.888,9.888C365.049,3657.423,369.478,3652.996,369.478,3647.535"/>
	<path style="fill:#FFFFFF;" d="M1638.638,3188.625c0-4.609-3.741-8.343-8.348-8.343s-8.344,3.734-8.344,8.343
		c0,4.614,3.737,8.348,8.344,8.348S1638.638,3193.239,1638.638,3188.625"/>
	<path style="fill:#FFFFFF;" d="M1210.271,3767.269c0-5.865-4.753-10.615-10.617-10.615c-5.862,0-10.617,4.75-10.617,10.615
		c0,5.865,4.755,10.617,10.617,10.617C1205.518,3777.886,1210.271,3773.134,1210.271,3767.269"/>
	<path style="fill:#FFFFFF;" d="M2169.468,5107.927c0-5.757-4.666-10.43-10.43-10.43c-5.755,0-10.43,4.673-10.43,10.43
		c0,5.762,4.675,10.428,10.43,10.428C2164.802,5118.355,2169.468,5113.689,2169.468,5107.927"/>
	<path style="fill:#FFFFFF;" d="M1304.472,5463.527c0-4.609-3.741-8.343-8.348-8.343c-4.609,0-8.343,3.734-8.343,8.343
		c0,4.614,3.734,8.348,8.343,8.348C1300.731,5471.875,1304.472,5468.141,1304.472,5463.527"/>
	<path style="fill:#FFFFFF;" d="M1807.53,4362.653c0-0.342-0.264-0.615-0.606-0.615c-0.333,0-0.606,0.273-0.606,0.615
		c0,0.333,0.273,0.606,0.606,0.606C1807.266,4363.259,1807.53,4362.985,1807.53,4362.653"/>
	<path style="fill:#FFFFFF;" d="M262.347,4072.175c0-5.757-4.666-10.43-10.43-10.43c-5.755,0-10.43,4.673-10.43,10.43
		c0,5.762,4.675,10.428,10.43,10.428C257.681,4082.604,262.347,4077.938,262.347,4072.175"/>
	<path style="fill:#FFFFFF;" d="M433.89,4756.151c0-5.461-4.429-9.895-9.895-9.895c-5.461,0-9.888,4.434-9.888,9.895
		c0,5.461,4.427,9.888,9.888,9.888C429.461,4766.039,433.89,4761.612,433.89,4756.151"/>
	<path style="fill:#FFFFFF;" d="M1738.496,4114.906c0-4.609-3.741-8.343-8.348-8.343s-8.343,3.734-8.343,8.343
		c0,4.614,3.737,8.348,8.343,8.348S1738.496,4119.52,1738.496,4114.906"/>
	<path style="fill:#FFFFFF;" d="M2061.05,4538.569c0-0.341-0.264-0.615-0.606-0.615c-0.333,0-0.606,0.273-0.606,0.615
		c0,0.333,0.273,0.606,0.606,0.606C2060.786,4539.175,2061.05,4538.902,2061.05,4538.569"/>
	<path style="fill:#FFFFFF;" d="M2411.432,5024.981c0-5.757-4.666-10.43-10.43-10.43c-5.755,0-10.43,4.673-10.43,10.43
		c0,5.762,4.675,10.428,10.43,10.428C2406.766,5035.409,2411.432,5030.743,2411.432,5024.981"/>
	<path style="fill:#FFFFFF;" d="M689.116,4844.521c0-5.461-4.429-9.895-9.895-9.895c-5.461,0-9.888,4.434-9.888,9.895
		c0,5.461,4.427,9.888,9.888,9.888C684.687,4854.41,689.116,4849.982,689.116,4844.521"/>
	<path style="fill:#FFFFFF;" d="M2117.72,5574.116c0-5.425-4.402-9.831-9.829-9.831c-5.431,0-9.829,4.406-9.829,9.831
		c0,5.432,4.397,9.831,9.829,9.831C2113.318,5583.947,2117.72,5579.548,2117.72,5574.116"/>
	<path style="fill:#FFFFFF;" d="M1939.144,5160.049c0-5.865-4.753-10.615-10.617-10.615c-5.864,0-10.617,4.75-10.617,10.615
		c0,5.864,4.753,10.617,10.617,10.617C1934.392,5170.667,1939.144,5165.914,1939.144,5160.049"/>
	<path style="fill:#FFFFFF;" d="M152.227,4253.282c0-6.543-5.299-11.84-11.845-11.84c-6.543,0-11.836,5.297-11.836,11.84
		s5.293,11.843,11.836,11.843C146.928,4265.125,152.227,4259.826,152.227,4253.282"/>
	<path style="fill:#FFFFFF;" d="M500.601,5380.146c0-4.803-3.901-8.703-8.703-8.703c-4.812,0-8.703,3.9-8.703,8.703
		c0,4.812,3.892,8.706,8.703,8.706C496.701,5388.851,500.601,5384.958,500.601,5380.146"/>
	<path style="fill:#FFFFFF;" d="M754.946,5512.457c0-4.609-3.741-8.343-8.348-8.343c-4.609,0-8.343,3.734-8.343,8.343
		c0,4.614,3.734,8.348,8.343,8.348C751.205,5520.805,754.946,5517.071,754.946,5512.457"/>
	<path style="fill:#FFFFFF;" d="M333.252,5300.016c0-2.843-2.301-5.145-5.144-5.145c-2.841,0-5.142,2.301-5.142,5.145
		c0,2.844,2.301,5.145,5.142,5.145C330.951,5305.16,333.252,5302.859,333.252,5300.016"/>
	<path style="fill:#FFFFFF;" d="M1389.051,4985.488c0-5.865-4.753-10.615-10.617-10.615c-5.862,0-10.617,4.75-10.617,10.615
		c0,5.864,4.755,10.617,10.617,10.617C1384.299,4996.105,1389.051,4991.353,1389.051,4985.488"/>
	<path style="fill:#FFFFFF;" d="M440.133,5648.411c0-5.04-4.076-9.123-9.12-9.123c-5.042,0-9.118,4.083-9.118,9.123
		c0,5.031,4.076,9.121,9.118,9.121C436.057,5657.532,440.133,5653.442,440.133,5648.411"/>
	<path style="fill:#FFFFFF;" d="M602.81,4784.234c0-2.276-1.836-4.115-4.11-4.115c-2.269,0-4.11,1.838-4.11,4.115
		c0,2.267,1.841,4.105,4.11,4.105C600.973,4788.339,602.81,4786.501,602.81,4784.234"/>
	<path style="fill:#FFFFFF;" d="M2369.597,7010.185c0-6.703-5.441-12.141-12.148-12.141c-6.703,0-12.144,5.438-12.144,12.141
		c0,6.71,5.441,12.146,12.144,12.146C2364.156,7022.331,2369.597,7016.895,2369.597,7010.185"/>
	<path style="fill:#FFFFFF;" d="M2411.432,6719.448c0-5.758-4.666-10.431-10.43-10.431c-5.755,0-10.43,4.673-10.43,10.431
		c0,5.762,4.675,10.428,10.43,10.428C2406.766,6729.876,2411.432,6725.21,2411.432,6719.448"/>
	<path style="fill:#FFFFFF;" d="M495.442,6952.773c0-2.844-2.301-5.145-5.145-5.145c-2.841,0-5.142,2.301-5.142,5.145
		c0,2.843,2.301,5.145,5.142,5.145C493.141,6957.917,495.442,6955.616,495.442,6952.773"/>
	<path style="fill:#FFFFFF;" d="M333.252,6994.482c0-2.843-2.301-5.144-5.144-5.144c-2.841,0-5.142,2.301-5.142,5.144
		c0,2.844,2.301,5.145,5.142,5.145C330.951,6999.627,333.252,6997.326,333.252,6994.482"/>
	<path style="fill:#FFFFFF;" d="M494.185,6734.768c0-6.543-5.299-11.84-11.845-11.84c-6.543,0-11.836,5.297-11.836,11.84
		s5.293,11.843,11.836,11.843C488.886,6746.611,494.185,6741.311,494.185,6734.768"/>
	<path style="fill:#FFFFFF;" d="M79.734,6865.227c0-2.843-2.301-5.145-5.145-5.145c-2.841,0-5.142,2.301-5.142,5.145
		s2.301,5.145,5.142,5.145C77.432,6870.371,79.734,6868.07,79.734,6865.227"/>
	<path style="fill:#FFFFFF;" d="M986.17,4778.169c0-4.803-3.901-8.704-8.703-8.704c-4.812,0-8.703,3.9-8.703,8.704
		c0,4.812,3.892,8.705,8.703,8.705C982.269,4786.874,986.17,4782.98,986.17,4778.169"/>
	<path style="fill:#FFFFFF;" d="M2729.913,3570.604c0-5.757-4.666-10.43-10.43-10.43c-5.755,0-10.43,4.673-10.43,10.43
		c0,5.762,4.675,10.428,10.43,10.428C2725.247,3581.031,2729.913,3576.365,2729.913,3570.604"/>
	<path style="fill:#FFFFFF;" d="M1270.782,4764.806c0-4.803-3.901-8.703-8.703-8.703c-4.812,0-8.703,3.9-8.703,8.703
		c0,4.812,3.891,8.706,8.703,8.706C1266.881,4773.512,1270.782,4769.618,1270.782,4764.806"/>
	<path style="fill:#FFFFFF;" d="M546.551,4319.359c0-7.263-5.883-13.16-13.153-13.16c-7.263,0-13.146,5.896-13.146,13.16
		c0,7.268,5.883,13.151,13.146,13.151C540.669,4332.51,546.551,4326.627,546.551,4319.359"/>
	<path style="fill:#FFFFFF;" d="M2033.854,4500.993c0-5.425-4.402-9.832-9.829-9.832c-5.432,0-9.829,4.407-9.829,9.832
		c0,5.432,4.397,9.831,9.829,9.831C2029.452,4510.824,2033.854,4506.424,2033.854,4500.993"/>
	<path style="fill:#FFFFFF;" d="M2577.498,4228.154c0-5.865-4.752-10.615-10.617-10.615c-5.865,0-10.617,4.75-10.617,10.615
		s4.753,10.617,10.617,10.617C2572.745,4238.771,2577.498,4234.019,2577.498,4228.154"/>
	<path style="fill:#FFFFFF;" d="M672.622,3389.467c0-5.865-4.753-10.615-10.617-10.615c-5.865,0-10.617,4.75-10.617,10.615
		c0,5.864,4.753,10.617,10.617,10.617C667.869,3400.084,672.622,3395.332,672.622,3389.467"/>
	<path style="fill:#FFFFFF;" d="M97.994,3986.785c0-5.757-4.666-10.43-10.431-10.43c-5.755,0-10.43,4.673-10.43,10.43
		c0,5.762,4.675,10.428,10.43,10.428C93.327,3997.213,97.994,3992.547,97.994,3986.785"/>
	<path style="fill:#FFFFFF;" d="M2211.374,3679.337c0-5.757-4.666-10.43-10.43-10.43c-5.755,0-10.43,4.673-10.43,10.43
		c0,5.762,4.675,10.428,10.43,10.428C2206.708,3689.765,2211.374,3685.099,2211.374,3679.337"/>
	<path style="fill:#FFFFFF;" d="M1171.949,3689.764c0-5.865-4.753-10.615-10.617-10.615c-5.862,0-10.617,4.75-10.617,10.615
		c0,5.865,4.755,10.617,10.617,10.617C1167.196,3700.381,1171.949,3695.629,1171.949,3689.764"/>
	<path style="fill:#FFFFFF;" d="M858.539,4275.995c0-5.757-4.666-10.43-10.43-10.43c-5.755,0-10.43,4.673-10.43,10.43
		c0,5.762,4.675,10.428,10.43,10.428C853.872,4286.423,858.539,4281.757,858.539,4275.995"/>
	<path style="fill:#FFFFFF;" d="M451.792,3946.859c0-6.543-5.299-11.841-11.845-11.841c-6.543,0-11.836,5.297-11.836,11.841
		s5.293,11.843,11.836,11.843C446.492,3958.702,451.792,3953.402,451.792,3946.859"/>
	<path style="fill:#FFFFFF;" d="M883.916,3616.214c0-5.425-4.402-9.831-9.829-9.831c-5.434,0-9.831,4.406-9.831,9.831
		c0,5.431,4.397,9.831,9.831,9.831C879.514,3626.045,883.916,3621.646,883.916,3616.214"/>
	<path style="fill:#FFFFFF;" d="M1316.618,4123.252c0-6.703-5.441-12.142-12.148-12.142c-6.703,0-12.144,5.438-12.144,12.142
		c0,6.709,5.441,12.146,12.144,12.146C1311.177,4135.398,1316.618,4129.961,1316.618,4123.252"/>
	<path style="fill:#FFFFFF;" d="M881.062,3908.359c0-4.803-3.901-8.703-8.703-8.703c-4.812,0-8.703,3.9-8.703,8.703
		c0,4.812,3.891,8.706,8.703,8.706C877.162,3917.065,881.062,3913.171,881.062,3908.359"/>
	<path style="fill:#FFFFFF;" d="M1173.808,2997.935c0-4.609-3.741-8.343-8.348-8.343c-4.609,0-8.343,3.734-8.343,8.343
		c0,4.614,3.734,8.348,8.343,8.348C1170.067,3006.283,1173.808,3002.549,1173.808,2997.935"/>
	<path style="fill:#FFFFFF;" d="M1032.57,2516.044c0-1.44-1.171-2.616-2.616-2.616c-1.445,0-2.616,1.176-2.616,2.616
		c0,1.444,1.171,2.62,2.616,2.62C1031.399,2518.664,1032.57,2517.489,1032.57,2516.044"/>
	<path style="fill:#FFFFFF;" d="M1544.626,3111.958c0-4.609-3.741-8.344-8.348-8.344c-4.611,0-8.344,3.734-8.344,8.344
		c0,4.614,3.732,8.348,8.344,8.348C1540.885,3120.306,1544.626,3116.572,1544.626,3111.958"/>
	<path style="fill:#FFFFFF;" d="M1953.457,2348.491c0-2.16-1.75-3.914-3.91-3.914s-3.914,1.754-3.914,3.914
		c0,2.151,1.754,3.91,3.914,3.91S1953.457,2350.642,1953.457,2348.491"/>
	<path style="fill:#FFFFFF;" d="M556.745,2419.815c0-5.461-4.429-9.895-9.895-9.895c-5.461,0-9.888,4.434-9.888,9.895
		s4.427,9.888,9.888,9.888C552.315,2429.703,556.745,2425.276,556.745,2419.815"/>
	<path style="fill:#FFFFFF;" d="M1938.666,3611.282c0-5.425-4.402-9.831-9.829-9.831c-5.436,0-9.834,4.406-9.834,9.831
		c0,5.432,4.397,9.831,9.834,9.831C1934.264,3621.114,1938.666,3616.714,1938.666,3611.282"/>
	<path style="fill:#FFFFFF;" d="M1484.427,315.2c0-5.425-4.402-9.831-9.829-9.831c-5.434,0-9.831,4.406-9.831,9.831
		c0,5.432,4.397,9.831,9.831,9.831C1480.026,325.031,1484.427,320.632,1484.427,315.2"/>
	<path style="fill:#FFFFFF;" d="M1739.052,466.984c0-6.703-5.441-12.141-12.148-12.141c-6.703,0-12.144,5.439-12.144,12.141
		c0,6.71,5.441,12.146,12.144,12.146C1733.612,479.131,1739.052,473.694,1739.052,466.984"/>
	<path style="fill:#FFFFFF;" d="M683.464,538.742c0-6.543-5.299-11.841-11.845-11.841c-6.543,0-11.836,5.297-11.836,11.841
		c0,6.544,5.292,11.843,11.836,11.843C678.165,550.584,683.464,545.285,683.464,538.742"/>
	<path style="fill:#FFFFFF;" d="M1548.18,606.543c0-5.425-4.402-9.831-9.829-9.831c-5.432,0-9.829,4.406-9.829,9.831
		c0,5.432,4.397,9.831,9.829,9.831C1543.779,616.374,1548.18,611.975,1548.18,606.543"/>
	<path style="fill:#FFFFFF;" d="M1415.24,463.977c0-5.865-4.753-10.615-10.617-10.615c-5.862,0-10.617,4.75-10.617,10.615
		c0,5.864,4.755,10.617,10.617,10.617C1410.488,474.594,1415.24,469.842,1415.24,463.977"/>
	<path style="fill:#FFFFFF;" d="M1364.537,837.697c0-1.44-1.171-2.616-2.616-2.616s-2.616,1.176-2.616,2.616
		c0,1.445,1.171,2.62,2.616,2.62S1364.537,839.141,1364.537,837.697"/>
	<path style="fill:#FFFFFF;" d="M2061.903,570.472c0-5.758-4.666-10.43-10.43-10.43c-5.755,0-10.43,4.673-10.43,10.43
		c0,5.762,4.675,10.428,10.43,10.428C2057.237,580.9,2061.903,576.234,2061.903,570.472"/>
	<path style="fill:#FFFFFF;" d="M2347.976,542.768c0-6.703-5.441-12.141-12.148-12.141c-6.703,0-12.144,5.438-12.144,12.141
		c0,6.71,5.441,12.146,12.144,12.146C2342.535,554.913,2347.976,549.477,2347.976,542.768"/>
	<path style="fill:#FFFFFF;" d="M2506.892,350.564c0-5.865-4.753-10.615-10.617-10.615c-5.865,0-10.617,4.751-10.617,10.615
		c0,5.864,4.752,10.617,10.617,10.617C2502.139,361.181,2506.892,356.428,2506.892,350.564"/>
	<path style="fill:#FFFFFF;" d="M473.295,729.188c0-2.844-2.301-5.145-5.145-5.145c-2.841,0-5.142,2.301-5.142,5.145
		c0,2.843,2.301,5.144,5.142,5.144C470.993,734.332,473.295,732.031,473.295,729.188"/>
	<path style="fill:#FFFFFF;" d="M1385.387,201.406c0-5.864-4.753-10.615-10.617-10.615c-5.862,0-10.617,4.751-10.617,10.615
		c0,5.865,4.755,10.617,10.617,10.617C1380.635,212.023,1385.387,207.271,1385.387,201.406"/>
	<path style="fill:#FFFFFF;" d="M1583.509,424.682c0-5.757-4.666-10.43-10.43-10.43c-5.755,0-10.43,4.673-10.43,10.43
		c0,5.762,4.675,10.428,10.43,10.428C1578.843,435.11,1583.509,430.444,1583.509,424.682"/>
	<path style="fill:#FFFFFF;" d="M423.583,1013.547c0-6.543-5.299-11.841-11.845-11.841c-6.543,0-11.836,5.297-11.836,11.841
		c0,6.543,5.293,11.843,11.836,11.843C418.284,1025.39,423.583,1020.091,423.583,1013.547"/>
	<path style="fill:#FFFFFF;" d="M1245.648,790.983c0-5.425-4.402-9.831-9.829-9.831c-5.436,0-9.833,4.406-9.833,9.831
		c0,5.432,4.397,9.831,9.833,9.831C1241.247,800.814,1245.648,796.415,1245.648,790.983"/>
	<path style="fill:#FFFFFF;" d="M417.985,1165.953c0-5.04-4.076-9.122-9.12-9.122c-5.042,0-9.118,4.083-9.118,9.122
		c0,5.031,4.076,9.12,9.118,9.12C413.909,1175.074,417.985,1170.984,417.985,1165.953"/>
	<path style="fill:#FFFFFF;" d="M1065.843,630.933c0-5.425-4.402-9.831-9.829-9.831c-5.432,0-9.829,4.406-9.829,9.831
		c0,5.432,4.397,9.831,9.829,9.831C1061.441,640.764,1065.843,636.365,1065.843,630.933"/>
	<path style="fill:#FFFFFF;" d="M1763.677,60.051c0-5.425-4.402-9.831-9.829-9.831c-5.436,0-9.833,4.406-9.833,9.831
		c0,5.432,4.397,9.831,9.833,9.831C1759.275,69.882,1763.677,65.483,1763.677,60.051"/>
	<path style="fill:#FFFFFF;" d="M1270.58,116.937c0-5.425-4.402-9.831-9.829-9.831c-5.436,0-9.833,4.406-9.833,9.831
		c0,5.432,4.397,9.831,9.833,9.831C1266.179,126.768,1270.58,122.369,1270.58,116.937"/>
	<path style="fill:#FFFFFF;" d="M1135.426,701.22c0-4.609-3.741-8.343-8.348-8.343c-4.609,0-8.343,3.734-8.343,8.343
		c0,4.614,3.734,8.348,8.343,8.348C1131.685,709.568,1135.426,705.834,1135.426,701.22"/>
	<path style="fill:#FFFFFF;" d="M389.724,211.858c0-5.461-4.429-9.895-9.895-9.895c-5.461,0-9.888,4.434-9.888,9.895
		s4.427,9.888,9.888,9.888C385.295,221.746,389.724,217.319,389.724,211.858"/>
	<path style="fill:#FFFFFF;" d="M1230.517,331.593c0-5.865-4.753-10.615-10.617-10.615c-5.862,0-10.617,4.75-10.617,10.615
		s4.755,10.617,10.617,10.617C1225.764,342.21,1230.517,337.458,1230.517,331.593"/>
	<path style="fill:#FFFFFF;" d="M1827.776,926.976c0-0.342-0.264-0.615-0.606-0.615c-0.333,0-0.606,0.273-0.606,0.615
		c0,0.333,0.273,0.606,0.606,0.606C1827.512,927.583,1827.776,927.309,1827.776,926.976"/>
	<path style="fill:#FFFFFF;" d="M282.593,636.499c0-5.757-4.666-10.43-10.43-10.43c-5.755,0-10.43,4.673-10.43,10.43
		c0,5.762,4.675,10.428,10.43,10.428C277.927,646.927,282.593,642.261,282.593,636.499"/>
	<path style="fill:#FFFFFF;" d="M454.136,1320.474c0-5.461-4.429-9.895-9.895-9.895c-5.461,0-9.888,4.434-9.888,9.895
		s4.427,9.888,9.888,9.888C449.707,1330.362,454.136,1325.936,454.136,1320.474"/>
	<path style="fill:#FFFFFF;" d="M1758.742,679.23c0-4.609-3.741-8.343-8.348-8.343s-8.343,3.734-8.343,8.343
		c0,4.614,3.737,8.348,8.343,8.348S1758.742,683.843,1758.742,679.23"/>
	<path style="fill:#FFFFFF;" d="M2081.296,1102.893c0-0.342-0.264-0.615-0.606-0.615c-0.333,0-0.606,0.273-0.606,0.615
		c0,0.333,0.273,0.606,0.606,0.606C2081.032,1103.499,2081.296,1103.226,2081.296,1102.893"/>
	<path style="fill:#FFFFFF;" d="M172.473,817.606c0-6.544-5.299-11.841-11.845-11.841c-6.543,0-11.836,5.297-11.836,11.841
		c0,6.543,5.293,11.843,11.836,11.843C167.174,829.449,172.473,824.149,172.473,817.606"/>
	<path style="fill:#FFFFFF;" d="M2750.159,134.927c0-5.757-4.666-10.43-10.43-10.43c-5.755,0-10.43,4.673-10.43,10.43
		c0,5.762,4.675,10.428,10.43,10.428C2745.493,145.355,2750.159,140.689,2750.159,134.927"/>
	<path style="fill:#FFFFFF;" d="M566.797,883.683c0-7.263-5.883-13.16-13.153-13.16c-7.263,0-13.146,5.896-13.146,13.16
		c0,7.268,5.883,13.151,13.146,13.151C560.915,896.834,566.797,890.951,566.797,883.683"/>
	<path style="fill:#FFFFFF;" d="M2054.1,1065.316c0-5.425-4.402-9.831-9.829-9.831c-5.432,0-9.829,4.406-9.829,9.831
		c0,5.432,4.397,9.831,9.829,9.831C2049.698,1075.147,2054.1,1070.748,2054.1,1065.316"/>
	<path style="fill:#FFFFFF;" d="M2597.744,792.478c0-5.865-4.753-10.615-10.617-10.615s-10.617,4.75-10.617,10.615
		s4.753,10.617,10.617,10.617S2597.744,798.343,2597.744,792.478"/>
	<path style="fill:#FFFFFF;" d="M118.24,551.108c0-5.757-4.666-10.43-10.431-10.43c-5.755,0-10.43,4.673-10.43,10.43
		c0,5.762,4.675,10.428,10.43,10.428C113.574,561.537,118.24,556.87,118.24,551.108"/>
	<path style="fill:#FFFFFF;" d="M2231.62,243.661c0-5.757-4.666-10.43-10.43-10.43c-5.755,0-10.43,4.673-10.43,10.43
		c0,5.762,4.675,10.428,10.43,10.428C2226.954,254.089,2231.62,249.423,2231.62,243.661"/>
	<path style="fill:#FFFFFF;" d="M1192.195,254.088c0-5.865-4.753-10.615-10.617-10.615c-5.862,0-10.617,4.75-10.617,10.615
		s4.755,10.617,10.617,10.617C1187.442,264.705,1192.195,259.952,1192.195,254.088"/>
	<path style="fill:#FFFFFF;" d="M878.785,840.319c0-5.757-4.666-10.43-10.43-10.43c-5.755,0-10.43,4.673-10.43,10.43
		c0,5.762,4.675,10.428,10.43,10.428C874.118,850.747,878.785,846.081,878.785,840.319"/>
	<path style="fill:#FFFFFF;" d="M472.038,511.183c0-6.543-5.299-11.841-11.845-11.841c-6.543,0-11.836,5.297-11.836,11.841
		c0,6.543,5.293,11.843,11.836,11.843C466.739,523.025,472.038,517.726,472.038,511.183"/>
	<path style="fill:#FFFFFF;" d="M904.162,180.538c0-5.425-4.402-9.831-9.829-9.831c-5.434,0-9.831,4.406-9.831,9.831
		c0,5.432,4.397,9.831,9.831,9.831C899.76,190.369,904.162,185.969,904.162,180.538"/>
	<path style="fill:#FFFFFF;" d="M1336.864,687.575c0-6.703-5.441-12.141-12.148-12.141c-6.703,0-12.144,5.439-12.144,12.141
		c0,6.71,5.441,12.146,12.144,12.146C1331.423,699.721,1336.864,694.285,1336.864,687.575"/>
	<path style="fill:#FFFFFF;" d="M901.308,472.683c0-4.803-3.901-8.703-8.703-8.703c-4.812,0-8.703,3.901-8.703,8.703
		c0,4.812,3.891,8.706,8.703,8.706C897.408,481.388,901.308,477.495,901.308,472.683"/>
	<path style="fill:#FFFFFF;" d="M1958.912,175.606c0-5.425-4.402-9.831-9.829-9.831c-5.436,0-9.833,4.406-9.833,9.831
		c0,5.432,4.397,9.831,9.833,9.831C1954.51,185.437,1958.912,181.038,1958.912,175.606"/>
	<path style="fill:#FFFFFF;" d="M651.378,3275.481c0-5.04-4.076-9.123-9.12-9.123c-5.042,0-9.118,4.083-9.118,9.123
		c0,5.031,4.076,9.12,9.118,9.12C647.302,3284.601,651.378,3280.511,651.378,3275.481"/>
	<path style="fill:#FFFFFF;" d="M1144.018,2363.633c0-5.865-4.753-10.615-10.617-10.615c-5.862,0-10.617,4.75-10.617,10.615
		s4.755,10.617,10.617,10.617C1139.266,2374.25,1144.018,2369.498,1144.018,2363.633"/>
	<path style="fill:#FFFFFF;" d="M442.038,3111.961c0-5.425-4.402-9.831-9.829-9.831c-5.434,0-9.831,4.406-9.831,9.831
		c0,5.431,4.397,9.831,9.831,9.831C437.636,3121.792,442.038,3117.392,442.038,3111.961"/>
	<path style="fill:#FFFFFF;" d="M1053.6,3170.523c0-4.609-3.741-8.343-8.348-8.343s-8.343,3.734-8.343,8.343
		c0,4.614,3.737,8.348,8.343,8.348S1053.6,3175.137,1053.6,3170.523"/>
	<path style="fill:#FFFFFF;" d="M141.036,2332.269c0-5.461-4.429-9.895-9.895-9.895c-5.461,0-9.888,4.434-9.888,9.895
		c0,5.461,4.427,9.888,9.888,9.888C136.607,2342.157,141.036,2337.73,141.036,2332.269"/>
	<path style="fill:#FFFFFF;" d="M1454.473,2522.881c0-6.703-5.441-12.141-12.148-12.141c-6.703,0-12.144,5.438-12.144,12.141
		c0,6.71,5.441,12.146,12.144,12.146C1449.033,2535.027,1454.473,2529.591,1454.473,2522.881"/>
	<path style="fill:#FFFFFF;" d="M1448.347,3010.622c0-5.425-4.402-9.831-9.829-9.831c-5.432,0-9.829,4.406-9.829,9.831
		c0,5.432,4.397,9.831,9.829,9.831C1443.945,3020.454,1448.347,3016.054,1448.347,3010.622"/>
	<path style="fill:#FFFFFF;" d="M873.188,2774.635c0-5.757-4.666-10.43-10.43-10.43c-5.755,0-10.43,4.673-10.43,10.43
		c0,5.762,4.675,10.428,10.43,10.428C868.522,2785.064,873.188,2780.398,873.188,2774.635"/>
	<path style="fill:#FFFFFF;" d="M1569.856,3317.146c0-4.609-3.741-8.343-8.348-8.343s-8.343,3.734-8.343,8.343
		c0,4.614,3.737,8.348,8.343,8.348S1569.856,3321.76,1569.856,3317.146"/>
	<path style="fill:#FFFFFF;" d="M1382.154,3229.601c0-4.803-3.901-8.703-8.703-8.703c-4.812,0-8.703,3.901-8.703,8.703
		c0,4.812,3.891,8.706,8.703,8.706C1378.253,3238.307,1382.154,3234.413,1382.154,3229.601"/>
	<path style="fill:#FFFFFF;" d="M1483.181,1633.656c0-5.425-4.402-9.831-9.829-9.831c-5.434,0-9.831,4.406-9.831,9.831
		c0,5.432,4.397,9.831,9.831,9.831C1478.78,1643.487,1483.181,1639.088,1483.181,1633.656"/>
	<path style="fill:#FFFFFF;" d="M966.272,1136.203c0-5.757-4.666-10.43-10.43-10.43c-5.755,0-10.43,4.673-10.43,10.43
		c0,5.763,4.675,10.429,10.43,10.429C961.605,1146.632,966.272,1141.966,966.272,1136.203"/>
	<path style="fill:#FFFFFF;" d="M1737.806,1785.441c0-6.703-5.441-12.141-12.148-12.141c-6.703,0-12.144,5.438-12.144,12.141
		c0,6.71,5.441,12.146,12.144,12.146C1732.366,1797.587,1737.806,1792.151,1737.806,1785.441"/>
	<path style="fill:#FFFFFF;" d="M682.218,1857.198c0-6.543-5.299-11.841-11.845-11.841c-6.543,0-11.836,5.297-11.836,11.841
		s5.292,11.843,11.836,11.843C676.919,1869.041,682.218,1863.741,682.218,1857.198"/>
	<path style="fill:#FFFFFF;" d="M1546.934,1924.999c0-5.425-4.402-9.831-9.829-9.831c-5.432,0-9.829,4.406-9.829,9.831
		c0,5.432,4.397,9.831,9.829,9.831C1542.533,1934.831,1546.934,1930.431,1546.934,1924.999"/>
	<path style="fill:#FFFFFF;" d="M1413.994,1782.433c0-5.865-4.753-10.615-10.617-10.615c-5.862,0-10.617,4.75-10.617,10.615
		c0,5.864,4.755,10.617,10.617,10.617C1409.242,1793.051,1413.994,1788.298,1413.994,1782.433"/>
	<path style="fill:#FFFFFF;" d="M1363.291,2156.153c0-1.44-1.171-2.615-2.615-2.615c-1.444,0-2.616,1.176-2.616,2.615
		c0,1.445,1.171,2.62,2.616,2.62C1362.12,2158.773,1363.291,2157.597,1363.291,2156.153"/>
	<path style="fill:#FFFFFF;" d="M2060.657,1888.928c0-5.757-4.666-10.43-10.43-10.43c-5.755,0-10.43,4.673-10.43,10.43
		c0,5.762,4.675,10.428,10.43,10.428C2055.991,1899.356,2060.657,1894.69,2060.657,1888.928"/>
	<path style="fill:#FFFFFF;" d="M2346.73,1861.224c0-6.703-5.441-12.141-12.148-12.141c-6.703,0-12.144,5.438-12.144,12.141
		c0,6.71,5.441,12.146,12.144,12.146C2341.289,1873.37,2346.73,1867.933,2346.73,1861.224"/>
	<path style="fill:#FFFFFF;" d="M2505.646,1669.02c0-5.865-4.753-10.615-10.617-10.615s-10.617,4.751-10.617,10.615
		c0,5.864,4.753,10.617,10.617,10.617S2505.646,1674.884,2505.646,1669.02"/>
	<path style="fill:#FFFFFF;" d="M472.049,2047.644c0-2.844-2.301-5.145-5.145-5.145c-2.841,0-5.142,2.301-5.142,5.145
		c0,2.843,2.301,5.144,5.142,5.144C469.747,2052.788,472.049,2050.487,472.049,2047.644"/>
	<path style="fill:#FFFFFF;" d="M1384.141,1519.862c0-5.864-4.753-10.615-10.617-10.615c-5.862,0-10.617,4.75-10.617,10.615
		c0,5.865,4.755,10.617,10.617,10.617C1379.388,1530.48,1384.141,1525.727,1384.141,1519.862"/>
	<path style="fill:#FFFFFF;" d="M1582.263,1743.138c0-5.757-4.666-10.43-10.43-10.43c-5.755,0-10.43,4.673-10.43,10.43
		c0,5.762,4.675,10.428,10.43,10.428C1577.597,1753.566,1582.263,1748.9,1582.263,1743.138"/>
	<path style="fill:#FFFFFF;" d="M422.337,2332.003c0-6.543-5.299-11.841-11.845-11.841c-6.543,0-11.836,5.297-11.836,11.841
		c0,6.544,5.293,11.843,11.836,11.843C417.038,2343.846,422.337,2338.547,422.337,2332.003"/>
	<path style="fill:#FFFFFF;" d="M1244.402,2109.44c0-5.425-4.402-9.831-9.829-9.831c-5.436,0-9.833,4.406-9.833,9.831
		c0,5.431,4.397,9.831,9.833,9.831C1240.001,2119.271,1244.402,2114.871,1244.402,2109.44"/>
	<path style="fill:#FFFFFF;" d="M416.739,2484.41c0-5.04-4.076-9.122-9.12-9.122c-5.042,0-9.118,4.083-9.118,9.122
		c0,5.031,4.076,9.12,9.118,9.12C412.663,2493.53,416.739,2489.44,416.739,2484.41"/>
	<path style="fill:#FFFFFF;" d="M1064.597,1949.389c0-5.425-4.402-9.831-9.829-9.831c-5.432,0-9.829,4.406-9.829,9.831
		c0,5.432,4.397,9.831,9.829,9.831C1060.195,1959.22,1064.597,1954.821,1064.597,1949.389"/>
	<path style="fill:#FFFFFF;" d="M394.72,1309.129c0-3.192-2.593-5.778-5.785-5.778c-3.194,0-5.78,2.586-5.78,5.778
		c0,3.192,2.586,5.778,5.78,5.778C392.127,1314.907,394.72,1312.321,394.72,1309.129"/>
	<path style="fill:#FFFFFF;" d="M1762.431,1378.507c0-5.425-4.402-9.831-9.829-9.831c-5.436,0-9.833,4.406-9.833,9.831
		c0,5.432,4.397,9.831,9.833,9.831C1758.029,1388.338,1762.431,1383.939,1762.431,1378.507"/>
	<path style="fill:#FFFFFF;" d="M1269.334,1435.394c0-5.425-4.402-9.831-9.829-9.831c-5.436,0-9.833,4.406-9.833,9.831
		c0,5.432,4.397,9.831,9.833,9.831C1264.933,1445.224,1269.334,1440.825,1269.334,1435.394"/>
	<path style="fill:#FFFFFF;" d="M1134.18,2019.677c0-4.609-3.741-8.343-8.348-8.343c-4.609,0-8.343,3.734-8.343,8.343
		c0,4.614,3.734,8.348,8.343,8.348C1130.439,2028.025,1134.18,2024.29,1134.18,2019.677"/>
	<path style="fill:#FFFFFF;" d="M388.478,1530.314c0-5.461-4.429-9.895-9.895-9.895c-5.461,0-9.888,4.434-9.888,9.895
		s4.427,9.888,9.888,9.888C384.049,1540.203,388.478,1535.776,388.478,1530.314"/>
	<path style="fill:#FFFFFF;" d="M1229.271,1650.049c0-5.865-4.753-10.615-10.617-10.615c-5.862,0-10.617,4.75-10.617,10.615
		c0,5.865,4.755,10.617,10.617,10.617C1224.518,1660.666,1229.271,1655.914,1229.271,1650.049"/>
	<path style="fill:#FFFFFF;" d="M1826.53,2245.433c0-0.342-0.264-0.615-0.606-0.615c-0.333,0-0.606,0.273-0.606,0.615
		c0,0.333,0.273,0.606,0.606,0.606C1826.266,2246.039,1826.53,2245.765,1826.53,2245.433"/>
	<path style="fill:#FFFFFF;" d="M281.347,1954.955c0-5.757-4.666-10.43-10.43-10.43c-5.755,0-10.43,4.673-10.43,10.43
		c0,5.762,4.675,10.428,10.43,10.428C276.681,1965.383,281.347,1960.717,281.347,1954.955"/>
	<path style="fill:#FFFFFF;" d="M1757.496,1997.686c0-4.609-3.741-8.344-8.348-8.344s-8.343,3.734-8.343,8.344
		c0,4.614,3.737,8.348,8.343,8.348S1757.496,2002.3,1757.496,1997.686"/>
	<path style="fill:#FFFFFF;" d="M2080.05,2421.349c0-0.342-0.264-0.615-0.606-0.615c-0.333,0-0.606,0.273-0.606,0.615
		c0,0.333,0.273,0.606,0.606,0.606C2079.786,2421.955,2080.05,2421.682,2080.05,2421.349"/>
	<path style="fill:#FFFFFF;" d="M171.227,2136.062c0-6.544-5.299-11.841-11.845-11.841c-6.543,0-11.836,5.297-11.836,11.841
		c0,6.543,5.293,11.843,11.836,11.843C165.928,2147.905,171.227,2142.606,171.227,2136.062"/>
	<path style="fill:#FFFFFF;" d="M2748.913,1453.383c0-5.757-4.666-10.43-10.43-10.43c-5.755,0-10.43,4.673-10.43,10.43
		c0,5.762,4.675,10.428,10.43,10.428C2744.247,1463.811,2748.913,1459.145,2748.913,1453.383"/>
	<path style="fill:#FFFFFF;" d="M565.551,2202.139c0-7.263-5.883-13.16-13.153-13.16c-7.263,0-13.146,5.896-13.146,13.16
		c0,7.268,5.883,13.151,13.146,13.151C559.669,2215.29,565.551,2209.407,565.551,2202.139"/>
	<path style="fill:#FFFFFF;" d="M2052.854,2383.772c0-5.425-4.402-9.831-9.829-9.831c-5.432,0-9.829,4.406-9.829,9.831
		c0,5.432,4.397,9.831,9.829,9.831C2048.452,2393.604,2052.854,2389.204,2052.854,2383.772"/>
	<path style="fill:#FFFFFF;" d="M2596.498,2110.934c0-5.865-4.752-10.615-10.617-10.615c-5.865,0-10.617,4.75-10.617,10.615
		s4.753,10.617,10.617,10.617C2591.745,2121.551,2596.498,2116.799,2596.498,2110.934"/>
	<path style="fill:#FFFFFF;" d="M691.622,1272.247c0-5.865-4.753-10.615-10.617-10.615c-5.865,0-10.617,4.75-10.617,10.615
		c0,5.864,4.753,10.617,10.617,10.617C686.869,1282.864,691.622,1278.111,691.622,1272.247"/>
	<path style="fill:#FFFFFF;" d="M116.994,1869.564c0-5.757-4.666-10.43-10.431-10.43c-5.755,0-10.43,4.673-10.43,10.43
		c0,5.762,4.675,10.428,10.43,10.428C112.327,1879.993,116.994,1875.327,116.994,1869.564"/>
	<path style="fill:#FFFFFF;" d="M2230.374,1562.117c0-5.757-4.666-10.43-10.43-10.43c-5.755,0-10.43,4.673-10.43,10.43
		c0,5.762,4.675,10.428,10.43,10.428C2225.708,1572.545,2230.374,1567.879,2230.374,1562.117"/>
	<path style="fill:#FFFFFF;" d="M1190.949,1572.544c0-5.865-4.753-10.615-10.617-10.615c-5.862,0-10.617,4.75-10.617,10.615
		c0,5.865,4.755,10.617,10.617,10.617C1186.196,1583.161,1190.949,1578.408,1190.949,1572.544"/>
	<path style="fill:#FFFFFF;" d="M877.539,2158.775c0-5.757-4.666-10.43-10.43-10.43c-5.755,0-10.43,4.673-10.43,10.43
		c0,5.762,4.675,10.428,10.43,10.428C872.872,2169.203,877.539,2164.537,877.539,2158.775"/>
	<path style="fill:#FFFFFF;" d="M470.792,1829.639c0-6.543-5.299-11.841-11.845-11.841c-6.543,0-11.836,5.297-11.836,11.841
		s5.293,11.843,11.836,11.843C465.492,1841.481,470.792,1836.182,470.792,1829.639"/>
	<path style="fill:#FFFFFF;" d="M902.916,1498.994c0-5.425-4.402-9.831-9.829-9.831c-5.434,0-9.831,4.406-9.831,9.831
		c0,5.432,4.397,9.831,9.831,9.831C898.514,1508.825,902.916,1504.425,902.916,1498.994"/>
	<path style="fill:#FFFFFF;" d="M1335.618,2006.031c0-6.703-5.441-12.141-12.148-12.141c-6.703,0-12.144,5.439-12.144,12.141
		c0,6.71,5.441,12.146,12.144,12.146C1330.177,2018.178,1335.618,2012.741,1335.618,2006.031"/>
	<path style="fill:#FFFFFF;" d="M900.062,1791.139c0-4.803-3.901-8.703-8.703-8.703c-4.812,0-8.703,3.901-8.703,8.703
		c0,4.812,3.891,8.706,8.703,8.706C896.162,1799.845,900.062,1795.951,900.062,1791.139"/>
	<path style="fill:#FFFFFF;" d="M1957.666,1494.062c0-5.425-4.402-9.831-9.829-9.831c-5.436,0-9.834,4.406-9.834,9.831
		c0,5.432,4.397,9.831,9.834,9.831C1953.264,1503.893,1957.666,1499.494,1957.666,1494.062"/>
	<path style="fill:#FFFFFF;" d="M670.378,1158.26c0-5.04-4.076-9.122-9.12-9.122c-5.042,0-9.118,4.083-9.118,9.122
		c0,5.031,4.076,9.12,9.118,9.12C666.302,1167.381,670.378,1163.291,670.378,1158.26"/>
	<path style="fill:#FFFFFF;" d="M1588.856,1199.926c0-4.609-3.741-8.343-8.348-8.343s-8.343,3.734-8.343,8.343
		c0,4.614,3.737,8.348,8.343,8.348S1588.856,1204.54,1588.856,1199.926"/>
	<path style="fill:#FFFFFF;" d="M1401.154,1112.381c0-4.803-3.901-8.703-8.703-8.703c-4.812,0-8.703,3.901-8.703,8.703
		c0,4.812,3.891,8.705,8.703,8.705C1397.253,1121.087,1401.154,1117.193,1401.154,1112.381"/>
	<path style="fill:#FFFFFF;" d="M778.064,6267.754c0-3.192-2.593-5.778-5.785-5.778c-3.194,0-5.78,2.586-5.78,5.778
		c0,3.192,2.586,5.778,5.78,5.778C775.471,6273.532,778.064,6270.946,778.064,6267.754"/>
	<path style="fill:#FFFFFF;" d="M1464.181,6267.754c0-5.425-4.402-9.831-9.829-9.831c-5.434,0-9.831,4.406-9.831,9.831
		c0,5.432,4.397,9.831,9.831,9.831C1459.78,6277.585,1464.181,6273.186,1464.181,6267.754"/>
	<path style="fill:#FFFFFF;" d="M1047.437,5812.814c0-4.803-3.901-8.703-8.703-8.703c-4.812,0-8.703,3.9-8.703,8.703
		c0,4.812,3.891,8.706,8.703,8.706C1043.537,5821.52,1047.437,5817.626,1047.437,5812.814"/>
	<path style="fill:#FFFFFF;" d="M1527.934,6559.097c0-5.425-4.402-9.831-9.829-9.831c-5.432,0-9.829,4.406-9.829,9.831
		c0,5.432,4.397,9.831,9.829,9.831C1523.533,6568.928,1527.934,6564.529,1527.934,6559.097"/>
	<path style="fill:#FFFFFF;" d="M2414.021,6635.591c0-6.703-5.436-12.142-12.148-12.142c-6.703,0-12.139,5.439-12.139,12.142
		c0,6.71,5.436,12.146,12.139,12.146C2408.584,6647.737,2414.021,6642.301,2414.021,6635.591"/>
	<path style="fill:#FFFFFF;" d="M1394.994,6416.531c0-5.865-4.753-10.615-10.617-10.615c-5.862,0-10.617,4.75-10.617,10.615
		c0,5.864,4.755,10.617,10.617,10.617C1390.242,6427.148,1394.994,6422.396,1394.994,6416.531"/>
	<path style="fill:#FFFFFF;" d="M97.994,6503.662c0-5.757-4.666-10.43-10.431-10.43c-5.755,0-10.43,4.673-10.43,10.43
		c0,5.762,4.675,10.428,10.43,10.428C93.327,6514.09,97.994,6509.424,97.994,6503.662"/>
	<path style="fill:#FFFFFF;" d="M1365.141,6153.96c0-5.864-4.753-10.615-10.617-10.615c-5.862,0-10.617,4.75-10.617,10.615
		c0,5.865,4.755,10.617,10.617,10.617C1360.388,6164.577,1365.141,6159.825,1365.141,6153.96"/>
	<path style="fill:#FFFFFF;" d="M504.155,6564.353c0-4.803-3.901-8.703-8.703-8.703c-4.812,0-8.703,3.9-8.703,8.703
		c0,4.812,3.892,8.706,8.703,8.706C500.254,6573.059,504.155,6569.165,504.155,6564.353"/>
	<path style="fill:#FFFFFF;" d="M1444.369,6594.193c0-4.609-3.741-8.343-8.348-8.343c-4.612,0-8.344,3.734-8.344,8.343
		c0,4.614,3.732,8.348,8.344,8.348C1440.628,6602.541,1444.369,6598.807,1444.369,6594.193"/>
	<path style="fill:#FFFFFF;" d="M883.916,6133.092c0-5.425-4.402-9.832-9.829-9.832c-5.434,0-9.831,4.407-9.831,9.832
		c0,5.431,4.397,9.831,9.831,9.831C879.514,6142.923,883.916,6138.523,883.916,6133.092"/>
	<path style="fill:#FFFFFF;" d="M1469.31,5774.947c0-4.609-3.741-8.343-8.348-8.343c-4.607,0-8.343,3.734-8.343,8.343
		c0,4.614,3.737,8.348,8.343,8.348C1465.569,5783.295,1469.31,5779.561,1469.31,5774.947"/>
	<path style="fill:#FFFFFF;" d="M1382.154,5746.479c0-4.803-3.901-8.704-8.703-8.704c-4.812,0-8.703,3.901-8.703,8.704
		c0,4.812,3.891,8.706,8.703,8.706C1378.253,5755.185,1382.154,5751.291,1382.154,5746.479"/>
	<path style="fill:#FFFFFF;" d="M309.469,3182.82c0-5.04-4.076-9.123-9.12-9.123c-5.042,0-9.118,4.083-9.118,9.123
		c0,5.031,4.076,9.12,9.118,9.12C305.392,3191.94,309.469,3187.851,309.469,3182.82"/>
</g>
<g id="Ebene_1">
</g>
</svg>
