<?xml version="1.0" encoding="iso-8859-1"?>
<!-- Generator: Adobe Illustrator 18.0.0, SVG Export Plug-In . SVG Version: 6.00 Build 0)  -->
<!DOCTYPE svg PUBLIC "-//W3C//DTD SVG 1.1//EN" "http://www.w3.org/Graphics/SVG/1.1/DTD/svg11.dtd">
<svg version="1.1" xmlns="http://www.w3.org/2000/svg" xmlns:xlink="http://www.w3.org/1999/xlink" x="0px" y="0px"
	 viewBox="0 0 1200 1643.104" style="enable-background:new 0 0 1200 1643.104;" xml:space="preserve">
<g id="_x30_1snow_x5F_big3">
	<path style="fill:#FFFFFF;" d="M17,609.363c0-3.113-2.521-5.641-5.638-5.641c-3.113,0-5.635,2.527-5.635,5.641
		c0,3.115,2.521,5.637,5.635,5.637C14.479,615,17,612.478,17,609.363"/>
	<path style="fill:#FFFFFF;" d="M915.023,541.178c0-2.953-2.394-5.35-5.348-5.35c-2.955,0-5.348,2.396-5.348,5.35
		c0,2.954,2.393,5.347,5.348,5.347C912.629,546.524,915.023,544.132,915.023,541.178"/>
	<path style="fill:#FFFFFF;" d="M705.938,623.628c0-2.805-2.271-5.075-5.077-5.075c-2.805,0-5.073,2.271-5.073,5.075
		s2.268,5.076,5.073,5.076C703.667,628.704,705.938,626.433,705.938,623.628"/>
	<path style="fill:#FFFFFF;" d="M29,383.252c0-3.113-2.521-5.641-5.638-5.641c-3.113,0-5.635,2.527-5.635,5.641
		c0,3.115,2.521,5.637,5.635,5.637C26.479,388.889,29,386.367,29,383.252"/>
	<path style="fill:#FFFFFF;" d="M810.814,814.908c0-2.873-2.331-5.204-5.207-5.204c-2.873,0-5.204,2.331-5.204,5.204
		c0,2.876,2.331,5.206,5.204,5.206C808.483,820.114,810.814,817.784,810.814,814.908"/>
	<path style="fill:#FFFFFF;" d="M863.112,454.338c0-2.325-1.887-4.214-4.213-4.214c-2.33,0-4.215,1.889-4.215,4.214
		c0,2.328,1.885,4.214,4.215,4.214C861.226,458.552,863.112,456.666,863.112,454.338"/>
	<path style="fill:#FFFFFF;" d="M955.262,426.63c0-2.953-2.394-5.35-5.348-5.35c-2.955,0-5.348,2.396-5.348,5.35
		c0,2.954,2.393,5.347,5.348,5.347C952.867,431.977,955.262,429.584,955.262,426.63"/>
	<path style="fill:#FFFFFF;" d="M708.355,21.157c0-2.953-2.395-5.35-5.348-5.35c-2.955,0-5.348,2.397-5.348,5.35
		c0,2.954,2.393,5.347,5.348,5.347C705.961,26.504,708.355,24.111,708.355,21.157"/>
	<path style="fill:#FFFFFF;" d="M130.127,43.624c0-3.113-2.521-5.641-5.638-5.641c-3.113,0-5.635,2.527-5.635,5.641
		c0,3.115,2.521,5.637,5.635,5.637C127.605,49.261,130.127,46.739,130.127,43.624"/>
	<path style="fill:#FFFFFF;" d="M835.751,1015.369c0-2.468-2-4.471-4.471-4.471c-2.467,0-4.471,2.003-4.471,4.471
		c0,2.47,2.004,4.47,4.471,4.47C833.751,1019.839,835.751,1017.839,835.751,1015.369"/>
</g>
<g id="Ebene_1">
</g>
</svg>
