<?xml version="1.0" encoding="iso-8859-1"?>
<!-- Generator: Adobe Illustrator 18.0.0, SVG Export Plug-In . SVG Version: 6.00 Build 0)  -->
<!DOCTYPE svg PUBLIC "-//W3C//DTD SVG 1.1//EN" "http://www.w3.org/Graphics/SVG/1.1/DTD/svg11.dtd">
<svg version="1.1" xmlns="http://www.w3.org/2000/svg" xmlns:xlink="http://www.w3.org/1999/xlink" x="0px" y="0px"
	 viewBox="0 0 1200 1643.104" style="enable-background:new 0 0 1200 1643.104;" xml:space="preserve">
<g id="_x30_1snow_x5F_mid2">
	<path style="fill:#FFFFFF;" d="M615.178,719.776c0-2.325-1.887-4.214-4.213-4.214c-2.329,0-4.214,1.889-4.214,4.214
		c0,2.328,1.885,4.214,4.214,4.214C613.291,723.99,615.178,722.104,615.178,719.776"/>
	<path style="fill:#FFFFFF;" d="M239.99,1371.129c0-1.653-1.341-2.993-2.993-2.993c-1.656,0-2.997,1.34-2.997,2.993
		c0,1.656,1.341,2.997,2.997,2.997C238.649,1374.126,239.99,1372.785,239.99,1371.129"/>
	<path style="fill:#FFFFFF;" d="M234,823.933c0-2.341-1.898-4.241-4.241-4.241c-2.341,0-4.238,1.9-4.238,4.241
		s1.898,4.238,4.238,4.238C232.102,828.171,234,826.273,234,823.933"/>
	<path style="fill:#FFFFFF;" d="M422.002,649.942c0-1.976-1.603-3.576-3.578-3.576c-1.976,0-3.576,1.601-3.576,3.576
		c0,1.977,1.601,3.578,3.576,3.578C420.399,653.52,422.002,651.92,422.002,649.942"/>
	<path style="fill:#FFFFFF;" d="M1128.059,1062.28c0-2.484-2.015-4.498-4.5-4.498c-2.48,0-4.493,2.014-4.493,4.498
		c0,2.48,2.013,4.494,4.493,4.494C1126.044,1066.774,1128.059,1064.761,1128.059,1062.28"/>
	<path style="fill:#FFFFFF;" d="M4.144,1189.368c0-2.288-1.854-4.143-4.145-4.143c-2.288,0-4.144,1.854-4.144,4.143
		c0,2.289,1.855,4.144,4.144,4.144C2.29,1193.512,4.144,1191.657,4.144,1189.368"/>
	<path style="fill:#FFFFFF;" d="M438.688,768.815c0-2.468-2-4.471-4.471-4.471c-2.467,0-4.471,2.003-4.471,4.471
		c0,2.47,2.004,4.47,4.471,4.47C436.688,773.285,438.688,771.285,438.688,768.815"/>
	<path style="fill:#FFFFFF;" d="M472.954,441.626c0-2.514-2.037-4.55-4.551-4.55c-2.513,0-4.551,2.036-4.551,4.55
		c0,2.514,2.038,4.551,4.551,4.551C470.916,446.177,472.954,444.14,472.954,441.626"/>
	<path style="fill:#FFFFFF;" d="M558.792,392.999c0-1.976-1.604-3.576-3.578-3.576c-1.976,0-3.576,1.601-3.576,3.576
		c0,1.978,1.601,3.578,3.576,3.578C557.188,396.577,558.792,394.977,558.792,392.999"/>
	<path style="fill:#FFFFFF;" d="M272.721,284.972c0-3.113-2.522-5.641-5.638-5.641c-3.113,0-5.635,2.527-5.635,5.641
		c0,3.115,2.522,5.637,5.635,5.637C270.199,290.608,272.721,288.087,272.721,284.972"/>
	<path style="fill:#FFFFFF;" d="M830.828,262.921c0-2.514-2.037-4.55-4.551-4.55c-2.514,0-4.551,2.036-4.551,4.55
		c0,2.514,2.037,4.551,4.551,4.551C828.791,267.472,830.828,265.435,830.828,262.921"/>
	<path style="fill:#FFFFFF;" d="M59.835,228.707c0-2.468-2-4.471-4.471-4.471c-2.467,0-4.471,2.003-4.471,4.471
		c0,2.47,2.004,4.47,4.471,4.47C57.835,233.177,59.835,231.177,59.835,228.707"/>
	<path style="fill:#FFFFFF;" d="M752.925,325.119c0-2.325-1.887-4.214-4.213-4.214c-2.328,0-4.213,1.889-4.213,4.214
		c0,2.328,1.885,4.214,4.213,4.214C751.038,329.333,752.925,327.447,752.925,325.119"/>
	<path style="fill:#FFFFFF;" d="M647.484,280.5c0-2.468-2-4.471-4.471-4.471c-2.467,0-4.471,2.003-4.471,4.471
		c0,2.47,2.004,4.47,4.471,4.47C645.484,284.97,647.484,282.97,647.484,280.5"/>
	<path style="fill:#FFFFFF;" d="M323.251,413.972c0-1.976-1.604-3.576-3.578-3.576c-1.976,0-3.576,1.601-3.576,3.576
		c0,1.978,1.601,3.578,3.576,3.578C321.647,417.55,323.251,415.949,323.251,413.972"/>
	<path style="fill:#FFFFFF;" d="M367.544,192.464c0-2.468-2-4.471-4.471-4.471c-2.467,0-4.471,2.003-4.471,4.471
		c0,2.47,2.004,4.47,4.471,4.47C365.544,196.934,367.544,194.934,367.544,192.464"/>
	<path style="fill:#FFFFFF;" d="M518.415,18.446c0-2.514-2.037-4.55-4.551-4.55c-2.513,0-4.551,2.036-4.551,4.55
		s2.038,4.551,4.551,4.551C516.377,22.997,518.415,20.96,518.415,18.446"/>
	<path style="fill:#FFFFFF;" d="M1065.501,26.578c0-2.514-2.037-4.55-4.551-4.55s-4.551,2.036-4.551,4.55
		c0,2.514,2.037,4.551,4.551,4.551S1065.501,29.091,1065.501,26.578"/>
	<path style="fill:#FFFFFF;" d="M282.551,26.573c0-1.976-1.604-3.576-3.578-3.576c-1.977,0-3.576,1.601-3.576,3.576
		c0,1.977,1.6,3.578,3.576,3.578C280.948,30.151,282.551,28.551,282.551,26.573"/>
</g>
<g id="Ebene_1">
</g>
</svg>
