<?xml version="1.0" encoding="iso-8859-1"?>
<!-- Generator: Adobe Illustrator 18.0.0, SVG Export Plug-In . SVG Version: 6.00 Build 0)  -->
<!DOCTYPE svg PUBLIC "-//W3C//DTD SVG 1.1//EN" "http://www.w3.org/Graphics/SVG/1.1/DTD/svg11.dtd">
<svg version="1.1" xmlns="http://www.w3.org/2000/svg" xmlns:xlink="http://www.w3.org/1999/xlink" x="0px" y="0px"
	 viewBox="0 0 1200 1643.104" style="enable-background:new 0 0 1200 1643.104;" xml:space="preserve">
<g id="_x30_1snow_x5F_mid4">
	<path style="fill:#FFFFFF;" d="M1032.157,1151.156c0-1.975-1.604-3.576-3.578-3.576c-1.976,0-3.576,1.601-3.576,3.576
		c0,1.978,1.601,3.578,3.576,3.578C1030.554,1154.734,1032.157,1153.134,1032.157,1151.156"/>
	<path style="fill:#FFFFFF;" d="M781.987,1059.247c0-1.673-1.356-3.028-3.03-3.028c-1.676,0-3.032,1.356-3.032,3.028
		c0,1.675,1.356,3.03,3.032,3.03C780.631,1062.277,781.987,1060.922,781.987,1059.247"/>
	<path style="fill:#FFFFFF;" d="M434.217,852.467c0-2.514-2.037-4.55-4.551-4.55c-2.513,0-4.551,2.036-4.551,4.55
		c0,2.514,2.038,4.551,4.551,4.551C432.18,857.018,434.217,854.98,434.217,852.467"/>
	<path style="fill:#FFFFFF;" d="M598.919,609.361c0-2.325-1.887-4.214-4.213-4.214c-2.328,0-4.213,1.889-4.213,4.214
		c0,2.328,1.885,4.214,4.213,4.214C597.033,613.575,598.919,611.689,598.919,609.361"/>
	<path style="fill:#FFFFFF;" d="M1014.562,262.922c0-2.468-2-4.471-4.471-4.471c-2.467,0-4.471,2.003-4.471,4.471
		c0,2.47,2.004,4.47,4.471,4.47C1012.562,267.392,1014.562,265.392,1014.562,262.922"/>
	<path style="fill:#FFFFFF;" d="M436.432,320.709c0-2.059-1.672-3.73-3.73-3.73c-2.062,0-3.73,1.672-3.73,3.73
		c0,2.062,1.668,3.731,3.73,3.731C434.76,324.44,436.432,322.772,436.432,320.709"/>
	<path style="fill:#FFFFFF;" d="M1028.262,380.891c0-2.468-2-4.471-4.471-4.471c-2.467,0-4.471,2.003-4.471,4.471
		c0,2.47,2.004,4.47,4.471,4.47C1026.262,385.36,1028.262,383.36,1028.262,380.891"/>
	<path style="fill:#FFFFFF;" d="M755.583,209.498c0-2.468-2-4.471-4.471-4.471c-2.467,0-4.471,2.003-4.471,4.471
		c0,2.47,2.004,4.47,4.471,4.47C753.583,213.968,755.583,211.968,755.583,209.498"/>
	<path style="fill:#FFFFFF;" d="M807.048,417.549c0-2.059-1.672-3.73-3.73-3.73c-2.062,0-3.731,1.672-3.731,3.73
		c0,2.062,1.668,3.731,3.731,3.731C805.376,421.28,807.048,419.611,807.048,417.549"/>
	<path style="fill:#FFFFFF;" d="M363.804,317.287c0-2.059-1.672-3.73-3.73-3.73c-2.062,0-3.73,1.672-3.73,3.73
		c0,2.062,1.668,3.731,3.73,3.731C362.132,321.019,363.804,319.35,363.804,317.287"/>
	<path style="fill:#FFFFFF;" d="M120.758,374.176c0-2.805-2.271-5.075-5.077-5.075c-2.805,0-5.073,2.27-5.073,5.075
		c0,2.805,2.269,5.076,5.073,5.076C118.486,379.252,120.758,376.98,120.758,374.176"/>
	<path style="fill:#FFFFFF;" d="M435.74,374.176c0-2.468-2-4.471-4.471-4.471c-2.467,0-4.471,2.003-4.471,4.471
		c0,2.47,2.004,4.47,4.471,4.47C433.74,378.646,435.74,376.646,435.74,374.176"/>
	<path style="fill:#FFFFFF;" d="M380.579,138.526c0-2.059-1.672-3.73-3.73-3.73c-2.062,0-3.73,1.672-3.73,3.73
		c0,2.062,1.668,3.731,3.73,3.731C378.907,142.257,380.579,140.588,380.579,138.526"/>
	<path style="fill:#FFFFFF;" d="M410.478,210.687c0-2.059-1.672-3.73-3.73-3.73c-2.062,0-3.73,1.672-3.73,3.73
		c0,2.062,1.668,3.731,3.73,3.731C408.806,214.418,410.478,212.749,410.478,210.687"/>
	<path style="fill:#FFFFFF;" d="M112.111,149.137c0-2.468-2-4.471-4.471-4.471c-2.467,0-4.471,2.003-4.471,4.471
		c0,2.47,2.004,4.47,4.471,4.47C110.111,153.607,112.111,151.607,112.111,149.137"/>
	<path style="fill:#FFFFFF;" d="M997.386,108.961c0-2.873-2.332-5.204-5.207-5.204c-2.873,0-5.205,2.331-5.205,5.204
		c0,2.876,2.332,5.206,5.205,5.206C995.054,114.167,997.386,111.837,997.386,108.961"/>
	<path style="fill:#FFFFFF;" d="M1145.5,26.617c0-2.996-2.424-5.421-5.414-5.421c-2.996,0-5.42,2.425-5.42,5.421
		c0,2.99,2.424,5.416,5.42,5.416C1143.076,32.033,1145.5,29.607,1145.5,26.617"/>
	<path style="fill:#FFFFFF;" d="M193.311,95.423c0-2.805-2.271-5.075-5.077-5.075c-2.805,0-5.073,2.271-5.073,5.075
		s2.269,5.076,5.073,5.076C191.04,100.499,193.311,98.228,193.311,95.423"/>
	<path style="fill:#FFFFFF;" d="M15.667,151.341c0-1.219-0.986-2.205-2.205-2.205c-1.218,0-2.204,0.986-2.204,2.205
		c0,1.219,0.986,2.205,2.204,2.205C14.681,153.546,15.667,152.56,15.667,151.341"/>
	<path style="fill:#FFFFFF;" d="M55.365,131.52c0-2.059-1.672-3.73-3.73-3.73c-2.062,0-3.73,1.672-3.73,3.73
		c0,2.062,1.668,3.731,3.73,3.731C53.693,135.251,55.365,133.582,55.365,131.52"/>
</g>
<g id="Ebene_1">
</g>
</svg>
