<?xml version="1.0" encoding="iso-8859-1"?>
<!-- Generator: Adobe Illustrator 18.0.0, SVG Export Plug-In . SVG Version: 6.00 Build 0)  -->
<!DOCTYPE svg PUBLIC "-//W3C//DTD SVG 1.1//EN" "http://www.w3.org/Graphics/SVG/1.1/DTD/svg11.dtd">
<svg version="1.1" xmlns="http://www.w3.org/2000/svg" xmlns:xlink="http://www.w3.org/1999/xlink" x="0px" y="0px"
	 viewBox="0 0 1200 1643.104" style="enable-background:new 0 0 1200 1643.104;" xml:space="preserve">
<g id="_x30_1snow_x5F_mid1">
	<path style="fill:#FFFFFF;" d="M1069.875,937.776c0-1.673-1.356-3.028-3.03-3.028c-1.676,0-3.032,1.355-3.032,3.028
		c0,1.675,1.356,3.03,3.032,3.03C1068.519,940.807,1069.875,939.451,1069.875,937.776"/>
	<path style="fill:#FFFFFF;" d="M257.029,646.366c0-2.059-1.672-3.73-3.73-3.73c-2.062,0-3.73,1.672-3.73,3.73
		c0,2.062,1.668,3.731,3.73,3.731C255.357,650.098,257.029,648.429,257.029,646.366"/>
	<path style="fill:#FFFFFF;" d="M662.508,1143.849c0-2.059-1.672-3.73-3.731-3.73c-2.062,0-3.73,1.672-3.73,3.73
		c0,2.062,1.668,3.732,3.73,3.732C660.836,1147.58,662.508,1145.911,662.508,1143.849"/>
	<path style="fill:#FFFFFF;" d="M127.234,1293.647c0-2.031-1.644-3.68-3.677-3.68c-2.03,0-3.674,1.648-3.674,3.68
		c0,2.028,1.644,3.676,3.674,3.676C125.591,1297.323,127.234,1295.676,127.234,1293.647"/>
	<path style="fill:#FFFFFF;" d="M74.666,777.195c0-2.16-1.747-3.91-3.909-3.91c-2.161,0-3.908,1.75-3.908,3.91
		c0,2.156,1.747,3.909,3.908,3.909C72.919,781.104,74.666,779.352,74.666,777.195"/>
	<path style="fill:#FFFFFF;" d="M639.448,881.261c0-0.976-0.787-1.764-1.762-1.764c-0.974,0-1.762,0.788-1.762,1.764
		c0,0.972,0.788,1.76,1.762,1.76C638.661,883.02,639.448,882.232,639.448,881.261"/>
	<path style="fill:#FFFFFF;" d="M963.104,1499.105c0-1.673-1.357-3.028-3.03-3.028c-1.676,0-3.032,1.356-3.032,3.028
		c0,1.675,1.356,3.03,3.032,3.03C961.748,1502.136,963.104,1500.78,963.104,1499.105"/>
	<path style="fill:#FFFFFF;" d="M225.52,1193.511c0-2.288-1.854-4.142-4.144-4.142c-2.288,0-4.144,1.854-4.144,4.142
		c0,2.289,1.855,4.144,4.144,4.144C223.666,1197.654,225.52,1195.8,225.52,1193.511"/>
	<path style="fill:#FFFFFF;" d="M1015.331,329.645c0-2.873-2.332-5.204-5.207-5.204c-2.873,0-5.205,2.331-5.205,5.204
		c0,2.876,2.332,5.206,5.205,5.206C1012.999,334.851,1015.331,332.521,1015.331,329.645"/>
	<path style="fill:#FFFFFF;" d="M1033.263,205.027c0-2.468-2-4.471-4.471-4.471c-2.467,0-4.471,2.003-4.471,4.471
		c0,2.47,2.004,4.47,4.471,4.47C1031.263,209.497,1033.263,207.497,1033.263,205.027"/>
	<path style="fill:#FFFFFF;" d="M212.021,305.036c0-1.219-0.986-2.205-2.205-2.205c-1.218,0-2.204,0.986-2.204,2.205
		c0,1.219,0.986,2.205,2.204,2.205C211.035,307.241,212.021,306.255,212.021,305.036"/>
	<path style="fill:#FFFFFF;" d="M142.502,322.914c0-1.219-0.986-2.205-2.205-2.205c-1.218,0-2.204,0.986-2.204,2.205
		c0,1.219,0.986,2.205,2.204,2.205C141.516,325.119,142.502,324.133,142.502,322.914"/>
	<path style="fill:#FFFFFF;" d="M211.482,211.594c0-2.805-2.271-5.075-5.077-5.075c-2.805,0-5.073,2.27-5.073,5.075
		s2.269,5.076,5.073,5.076C209.211,216.67,211.482,214.398,211.482,211.594"/>
	<path style="fill:#FFFFFF;" d="M33.838,267.512c0-1.219-0.986-2.205-2.205-2.205c-1.218,0-2.204,0.986-2.204,2.205
		c0,1.219,0.986,2.205,2.204,2.205C32.852,269.717,33.838,268.73,33.838,267.512"/>
	<path style="fill:#FFFFFF;" d="M333.16,11.42c0-1.368-1.111-2.476-2.479-2.476c-1.369,0-2.478,1.108-2.478,2.476
		c0,1.368,1.108,2.477,2.478,2.477C332.048,13.897,333.16,12.788,333.16,11.42"/>
	<path style="fill:#FFFFFF;" d="M627.247,11.42c0-2.325-1.887-4.214-4.213-4.214c-2.329,0-4.214,1.889-4.214,4.214
		c0,2.328,1.885,4.214,4.214,4.214C625.36,15.634,627.247,13.748,627.247,11.42"/>
	<path style="fill:#FFFFFF;" d="M654.573,136.297c0-2.325-1.887-4.214-4.213-4.214c-2.328,0-4.213,1.889-4.213,4.214
		c0,2.328,1.885,4.214,4.213,4.214C652.686,140.511,654.573,138.625,654.573,136.297"/>
	<path style="fill:#FFFFFF;" d="M1034.372,169.084c0-2.873-2.33-5.204-5.207-5.204c-2.873,0-5.203,2.331-5.203,5.204
		c0,2.876,2.33,5.206,5.203,5.206C1032.042,174.29,1034.372,171.96,1034.372,169.084"/>
	<path style="fill:#FFFFFF;" d="M597.592,75.19c0-2.514-2.037-4.55-4.551-4.55c-2.513,0-4.551,2.036-4.551,4.55
		c0,2.514,2.038,4.551,4.551,4.551C595.555,79.74,597.592,77.703,597.592,75.19"/>
	<path style="fill:#FFFFFF;" d="M41.665,112.536c0-2.468-2-4.471-4.471-4.471c-2.467,0-4.471,2.003-4.471,4.471
		c0,2.47,2.004,4.47,4.471,4.47C39.665,117.006,41.665,115.006,41.665,112.536"/>
	<path style="fill:#FFFFFF;" d="M215.755,138.55c0-2.059-1.672-3.73-3.731-3.73c-2.062,0-3.73,1.672-3.73,3.73
		c0,2.062,1.668,3.731,3.73,3.731C214.083,142.281,215.755,140.612,215.755,138.55"/>
	<path style="fill:#FFFFFF;" d="M618.755,151.34c0-1.976-1.604-3.576-3.578-3.576c-1.977,0-3.576,1.601-3.576,3.576
		c0,1.977,1.6,3.578,3.576,3.578C617.151,154.918,618.755,153.317,618.755,151.34"/>
</g>
<g id="Ebene_1">
</g>
</svg>
