<?xml version="1.0" encoding="iso-8859-1"?>
<!-- Generator: Adobe Illustrator 18.0.0, SVG Export Plug-In . SVG Version: 6.00 Build 0)  -->
<!DOCTYPE svg PUBLIC "-//W3C//DTD SVG 1.1//EN" "http://www.w3.org/Graphics/SVG/1.1/DTD/svg11.dtd">
<svg version="1.1" xmlns="http://www.w3.org/2000/svg" xmlns:xlink="http://www.w3.org/1999/xlink" x="0px" y="0px"
	 viewBox="0 0 1200 1643.104" style="enable-background:new 0 0 1200 1643.104;" xml:space="preserve">
<g id="_x30_1snow_x5F_big4">
	<path style="fill:#FFFFFF;" d="M1046.39,1044.703c0-2.873-2.331-5.204-5.207-5.204c-2.873,0-5.204,2.331-5.204,5.204
		c0,2.876,2.331,5.206,5.204,5.206C1044.059,1049.909,1046.39,1047.579,1046.39,1044.703"/>
	<path style="fill:#FFFFFF;" d="M1015.33,645.722c0-2.873-2.33-5.204-5.207-5.204c-2.873,0-5.203,2.331-5.203,5.204
		c0,2.876,2.33,5.206,5.203,5.206C1013,650.928,1015.33,648.598,1015.33,645.722"/>
	<path style="fill:#FFFFFF;" d="M579.134,451.231c0-2.953-2.395-5.35-5.348-5.35c-2.955,0-5.348,2.396-5.348,5.35
		c0,2.954,2.393,5.347,5.348,5.347C576.739,456.578,579.134,454.185,579.134,451.231"/>
	<path style="fill:#FFFFFF;" d="M881.119,401.844c0-2.873-2.332-5.204-5.207-5.204c-2.873,0-5.205,2.331-5.205,5.204
		c0,2.876,2.332,5.206,5.205,5.206C878.787,407.05,881.119,404.72,881.119,401.844"/>
	<path style="fill:#FFFFFF;" d="M1069.636,302.83c0-2.873-2.33-5.204-5.207-5.204c-2.873,0-5.203,2.331-5.203,5.204
		c0,2.876,2.33,5.206,5.203,5.206C1067.306,308.036,1069.636,305.706,1069.636,302.83"/>
	<path style="fill:#FFFFFF;" d="M1197.161,797.036c0-2.996-2.424-5.421-5.414-5.421c-2.996,0-5.42,2.425-5.42,5.421
		c0,2.99,2.424,5.416,5.42,5.416C1194.737,802.452,1197.161,800.026,1197.161,797.036"/>
	<path style="fill:#FFFFFF;" d="M1145.569,858.696c0-2.996-2.424-5.421-5.414-5.421c-2.996,0-5.42,2.425-5.42,5.421
		c0,2.99,2.424,5.416,5.42,5.416C1143.146,864.112,1145.569,861.686,1145.569,858.696"/>
	<path style="fill:#FFFFFF;" d="M545.854,132.082c0-2.873-2.332-5.204-5.207-5.204c-2.873,0-5.205,2.331-5.205,5.204
		c0,2.876,2.332,5.206,5.205,5.206C543.522,137.288,545.854,134.958,545.854,132.082"/>
	<path style="fill:#FFFFFF;" d="M885.405,1000.871c0-2.325-1.887-4.214-4.213-4.214c-2.329,0-4.214,1.889-4.214,4.214
		c0,2.328,1.885,4.214,4.214,4.214C883.519,1005.085,885.405,1003.199,885.405,1000.871"/>
</g>
<g id="Ebene_1">
</g>
</svg>
