<?xml version="1.0" encoding="iso-8859-1"?>
<!-- Generator: Adobe Illustrator 18.0.0, SVG Export Plug-In . SVG Version: 6.00 Build 0)  -->
<!DOCTYPE svg PUBLIC "-//W3C//DTD SVG 1.1//EN" "http://www.w3.org/Graphics/SVG/1.1/DTD/svg11.dtd">
<svg version="1.1" xmlns="http://www.w3.org/2000/svg" xmlns:xlink="http://www.w3.org/1999/xlink" x="0px" y="0px"
	 viewBox="0 0 1200 1643.104" style="enable-background:new 0 0 1200 1643.104;" xml:space="preserve">
<g id="_x30_1snow_x5F_small2">
	<path style="fill:#FFFFFF;" d="M280,729.805c0-0.69-0.56-1.247-1.246-1.247c-0.689,0-1.248,0.558-1.248,1.247
		c0,0.688,0.56,1.245,1.248,1.245C279.44,731.05,280,730.492,280,729.805"/>
	<path style="fill:#FFFFFF;" d="M732.1,808.6c0-0.926-0.749-1.678-1.675-1.678c-0.927,0-1.679,0.752-1.679,1.678
		c0,0.922,0.752,1.676,1.679,1.676C731.351,810.275,732.1,809.521,732.1,808.6"/>
	<path style="fill:#FFFFFF;" d="M414.991,556.838c0-0.617-0.502-1.121-1.121-1.121c-0.619,0-1.121,0.504-1.121,1.121
		c0,0.619,0.502,1.123,1.121,1.123C414.489,557.961,414.991,557.457,414.991,556.838"/>
	<path style="fill:#FFFFFF;" d="M97.238,1480.1c0-0.617-0.502-1.121-1.121-1.121c-0.619,0-1.121,0.504-1.121,1.121
		c0,0.619,0.502,1.123,1.121,1.123C96.736,1481.223,97.238,1480.719,97.238,1480.1"/>
	<path style="fill:#FFFFFF;" d="M757.185,1334.671c0-0.29-0.238-0.525-0.529-0.525c-0.291,0-0.527,0.235-0.527,0.525
		c0,0.291,0.236,0.527,0.527,0.527C756.947,1335.198,757.185,1334.962,757.185,1334.671"/>
	<path style="fill:#FFFFFF;" d="M385.857,452.867c0-0.811-0.658-1.467-1.47-1.467c-0.811,0-1.468,0.656-1.468,1.467
		c0,0.811,0.656,1.471,1.468,1.471C385.199,454.338,385.857,453.679,385.857,452.867"/>
	<path style="fill:#FFFFFF;" d="M522.003,489.968c0-0.69-0.56-1.247-1.246-1.247c-0.688,0-1.248,0.558-1.248,1.247
		c0,0.688,0.56,1.245,1.248,1.245C521.443,491.213,522.003,490.655,522.003,489.968"/>
	<path style="fill:#FFFFFF;" d="M70.632,663.296c0-0.617-0.502-1.121-1.121-1.121c-0.619,0-1.121,0.504-1.121,1.121
		c0,0.619,0.502,1.123,1.121,1.123C70.13,664.419,70.632,663.915,70.632,663.296"/>
	<path style="fill:#FFFFFF;" d="M94.562,509.466c0-0.81-0.658-1.467-1.47-1.467c-0.811,0-1.468,0.656-1.468,1.467
		c0,0.811,0.656,1.471,1.468,1.471C93.904,510.936,94.562,510.277,94.562,509.466"/>
	<path style="fill:#FFFFFF;" d="M498.253,206.448c0-0.617-0.502-1.121-1.121-1.121c-0.619,0-1.121,0.504-1.121,1.121
		c0,0.619,0.502,1.123,1.121,1.123C497.751,207.571,498.253,207.068,498.253,206.448"/>
	<path style="fill:#FFFFFF;" d="M704.769,271.401c0-0.975-0.787-1.764-1.762-1.764c-0.973,0-1.762,0.788-1.762,1.764
		c0,0.972,0.789,1.76,1.762,1.76C703.982,273.161,704.769,272.373,704.769,271.401"/>
	<path style="fill:#FFFFFF;" d="M1068.539,265.697c0-0.975-0.787-1.764-1.762-1.764c-0.973,0-1.762,0.788-1.762,1.764
		c0,0.972,0.789,1.76,1.762,1.76C1067.752,267.457,1068.539,266.669,1068.539,265.697"/>
	<path style="fill:#FFFFFF;" d="M364.465,647.568c0-0.463-0.374-0.839-0.837-0.839c-0.466,0-0.841,0.376-0.841,0.839
		c0,0.465,0.375,0.84,0.841,0.84C364.091,648.408,364.465,648.033,364.465,647.568"/>
	<path style="fill:#FFFFFF;" d="M666.621,1478.139c0-0.463-0.374-0.839-0.837-0.839c-0.466,0-0.841,0.376-0.841,0.839
		c0,0.465,0.375,0.84,0.841,0.84C666.247,1478.979,666.621,1478.604,666.621,1478.139"/>
	<path style="fill:#FFFFFF;" d="M1169.439,110.552c0-0.467-0.379-0.846-0.846-0.846c-0.469,0-0.846,0.379-0.846,0.846
		c0,0.465,0.377,0.842,0.846,0.842C1169.061,111.394,1169.439,111.017,1169.439,110.552"/>
	<path style="fill:#FFFFFF;" d="M416.448,117.739c0-0.617-0.502-1.121-1.121-1.121c-0.619,0-1.121,0.504-1.121,1.121
		c0,0.619,0.502,1.123,1.121,1.123C415.946,118.862,416.448,118.358,416.448,117.739"/>
	<path style="fill:#FFFFFF;" d="M506.133,67.378c0-0.617-0.502-1.121-1.121-1.121c-0.619,0-1.121,0.504-1.121,1.121
		c0,0.619,0.502,1.123,1.121,1.123C505.631,68.501,506.133,67.997,506.133,67.378"/>
	<path style="fill:#FFFFFF;" d="M838.185,14.887c0-0.926-0.75-1.678-1.676-1.678c-0.926,0-1.678,0.752-1.678,1.678
		c0,0.922,0.752,1.676,1.678,1.676C837.435,16.563,838.185,15.809,838.185,14.887"/>
	<path style="fill:#FFFFFF;" d="M301.899,52.753c0-0.617-0.502-1.121-1.121-1.121c-0.619,0-1.121,0.504-1.121,1.121
		c0,0.619,0.502,1.123,1.121,1.123C301.397,53.876,301.899,53.372,301.899,52.753"/>
</g>
<g id="Ebene_1">
</g>
</svg>
