<?xml version="1.0" encoding="iso-8859-1"?>
<!-- Generator: Adobe Illustrator 18.0.0, SVG Export Plug-In . SVG Version: 6.00 Build 0)  -->
<!DOCTYPE svg PUBLIC "-//W3C//DTD SVG 1.1//EN" "http://www.w3.org/Graphics/SVG/1.1/DTD/svg11.dtd">
<svg version="1.1" xmlns="http://www.w3.org/2000/svg" xmlns:xlink="http://www.w3.org/1999/xlink" x="0px" y="0px"
	 viewBox="0 0 1200 1643.104" style="enable-background:new 0 0 1200 1643.104;" xml:space="preserve">
<g id="_x30_1snow_x5F_small4">
	<path style="fill:#FFFFFF;" d="M722.212,670.508c0-0.146-0.114-0.264-0.26-0.264c-0.143,0-0.26,0.117-0.26,0.264
		c0,0.143,0.117,0.26,0.26,0.26C722.098,670.768,722.212,670.65,722.212,670.508"/>
	<path style="fill:#FFFFFF;" d="M373.788,840.839c0-1.368-1.111-2.477-2.479-2.477c-1.369,0-2.478,1.108-2.478,2.477
		c0,1.368,1.108,2.477,2.478,2.477C372.676,843.315,373.788,842.207,373.788,840.839"/>
	<path style="fill:#FFFFFF;" d="M524.97,1371.131c0-1.113-0.901-2.015-2.015-2.015c-1.115,0-2.016,0.901-2.016,2.015
		c0,1.115,0.9,2.016,2.016,2.016C524.069,1373.146,524.97,1372.246,524.97,1371.131"/>
	<path style="fill:#FFFFFF;" d="M919.846,622.787c0-0.467-0.379-0.846-0.846-0.846c-0.469,0-0.846,0.379-0.846,0.846
		c0,0.465,0.377,0.842,0.846,0.842C919.467,623.629,919.846,623.252,919.846,622.787"/>
	<path style="fill:#FFFFFF;" d="M370.76,1465.196c0-1.331-1.078-2.412-2.412-2.412c-1.331,0-2.412,1.081-2.412,2.412
		c0,1.332,1.081,2.412,2.412,2.412C369.682,1467.608,370.76,1466.528,370.76,1465.196"/>
	<path style="fill:#FFFFFF;" d="M339.009,1088.017c0-0.639-0.521-1.16-1.16-1.16c-0.641,0-1.16,0.521-1.16,1.16
		c0,0.643,0.52,1.16,1.16,1.16C338.488,1089.177,339.009,1088.659,339.009,1088.017"/>
	<path style="fill:#FFFFFF;" d="M430.749,1078.112c0-0.463-0.374-0.839-0.837-0.839c-0.466,0-0.841,0.376-0.841,0.839
		c0,0.465,0.375,0.84,0.841,0.84C430.375,1078.952,430.749,1078.577,430.749,1078.112"/>
	<path style="fill:#FFFFFF;" d="M336.613,647.568c0-0.639-0.52-1.16-1.16-1.16c-0.641,0-1.16,0.522-1.16,1.16
		c0,0.643,0.52,1.16,1.16,1.16C336.093,648.728,336.613,648.211,336.613,647.568"/>
	<path style="fill:#FFFFFF;" d="M484.116,373.631c0-0.617-0.502-1.121-1.121-1.121c-0.619,0-1.121,0.504-1.121,1.121
		c0,0.619,0.502,1.123,1.121,1.123C483.614,374.754,484.116,374.25,484.116,373.631"/>
	<path style="fill:#FFFFFF;" d="M878.453,328.319c0-0.467-0.379-0.846-0.846-0.846c-0.469,0-0.846,0.379-0.846,0.846
		c0,0.465,0.377,0.842,0.846,0.842C878.074,329.161,878.453,328.784,878.453,328.319"/>
	<path style="fill:#FFFFFF;" d="M528.919,305.605c0-0.617-0.502-1.121-1.121-1.121c-0.619,0-1.121,0.504-1.121,1.121
		c0,0.619,0.502,1.123,1.121,1.123C528.417,306.729,528.919,306.225,528.919,305.605"/>
	<path style="fill:#FFFFFF;" d="M844.336,411.372c0-1.219-0.986-2.205-2.205-2.205c-1.219,0-2.205,0.986-2.205,2.205
		c0,1.219,0.986,2.205,2.205,2.205C843.35,413.577,844.336,412.591,844.336,411.372"/>
	<path style="fill:#FFFFFF;" d="M988.307,322.108c0-0.73-0.594-1.322-1.324-1.322c-0.732,0-1.322,0.592-1.322,1.322
		c0,0.73,0.59,1.322,1.322,1.322C987.713,323.431,988.307,322.839,988.307,322.108"/>
	<path style="fill:#FFFFFF;" d="M1073.455,395.818c0-0.467-0.379-0.846-0.846-0.846c-0.469,0-0.846,0.379-0.846,0.846
		c0,0.465,0.377,0.842,0.846,0.842C1073.076,396.659,1073.455,396.282,1073.455,395.818"/>
	<path style="fill:#FFFFFF;" d="M952.385,275.26c0-0.617-0.502-1.121-1.121-1.121c-0.619,0-1.121,0.504-1.121,1.121
		c0,0.619,0.502,1.123,1.121,1.123C951.883,276.383,952.385,275.879,952.385,275.26"/>
	<path style="fill:#FFFFFF;" d="M806.73,360.99c0-0.617-0.502-1.121-1.121-1.121c-0.619,0-1.121,0.504-1.121,1.121
		c0,0.619,0.502,1.123,1.121,1.123C806.228,362.113,806.73,361.609,806.73,360.99"/>
	<path style="fill:#FFFFFF;" d="M2.718,441.564c0-0.689-0.56-1.247-1.246-1.247c-0.688,0-1.248,0.558-1.248,1.247
		c0,0.688,0.56,1.245,1.248,1.245C2.159,442.81,2.718,442.252,2.718,441.564"/>
	<path style="fill:#FFFFFF;" d="M451.262,93.326c0-1.368-1.111-2.477-2.479-2.477c-1.369,0-2.478,1.108-2.478,2.477
		c0,1.368,1.108,2.477,2.478,2.477C450.15,95.803,451.262,94.694,451.262,93.326"/>
	<path style="fill:#FFFFFF;" d="M348.535,61.068c0-0.976-0.787-1.764-1.762-1.764c-0.973,0-1.762,0.788-1.762,1.764
		c0,0.972,0.789,1.76,1.762,1.76C347.748,62.828,348.535,62.04,348.535,61.068"/>
	<path style="fill:#FFFFFF;" d="M1117.584,105.179c0-0.467-0.379-0.846-0.846-0.846c-0.469,0-0.846,0.379-0.846,0.846
		c0,0.465,0.377,0.842,0.846,0.842C1117.205,106.021,1117.584,105.644,1117.584,105.179"/>
	<path style="fill:#FFFFFF;" d="M261.188,34.557c0-0.976-0.787-1.763-1.762-1.763c-0.973,0-1.762,0.788-1.762,1.763
		c0,0.972,0.789,1.76,1.762,1.76C260.4,36.317,261.188,35.529,261.188,34.557"/>
	<path style="fill:#FFFFFF;" d="M60.758,31.767c0-0.73-0.595-1.322-1.325-1.322c-0.731,0-1.322,0.592-1.322,1.322
		s0.591,1.322,1.322,1.322C60.164,33.089,60.758,32.498,60.758,31.767"/>
	<path style="fill:#FFFFFF;" d="M60.98,50.857c0-0.617-0.502-1.121-1.121-1.121c-0.619,0-1.121,0.504-1.121,1.121
		c0,0.619,0.502,1.123,1.121,1.123C60.478,51.981,60.98,51.477,60.98,50.857"/>
	<path style="fill:#FFFFFF;" d="M22,9.627c0-0.976-0.787-1.764-1.762-1.764c-0.973,0-1.762,0.788-1.762,1.764
		c0,0.972,0.789,1.76,1.762,1.76C21.213,11.387,22,10.599,22,9.627"/>
	<path style="fill:#FFFFFF;" d="M311.549,196.007c0-0.146-0.113-0.264-0.26-0.264c-0.143,0-0.26,0.117-0.26,0.264
		c0,0.143,0.117,0.26,0.26,0.26C311.436,196.267,311.549,196.15,311.549,196.007"/>
</g>
<g id="Ebene_1">
</g>
</svg>
