<?xml version="1.0" encoding="iso-8859-1"?>
<!-- Generator: Adobe Illustrator 18.0.0, SVG Export Plug-In . SVG Version: 6.00 Build 0)  -->
<!DOCTYPE svg PUBLIC "-//W3C//DTD SVG 1.1//EN" "http://www.w3.org/Graphics/SVG/1.1/DTD/svg11.dtd">
<svg version="1.1" xmlns="http://www.w3.org/2000/svg" xmlns:xlink="http://www.w3.org/1999/xlink" x="0px" y="0px"
	 viewBox="0 0 1200 1643.104" style="enable-background:new 0 0 1200 1643.104;" xml:space="preserve">
<g id="_x30_1snow_x5F_mid3">
	<path style="fill:#FFFFFF;" d="M782.808,562.432c0-2.468-2-4.471-4.471-4.471c-2.467,0-4.471,2.003-4.471,4.471
		c0,2.47,2.004,4.47,4.471,4.47C780.808,566.901,782.808,564.901,782.808,562.432"/>
	<path style="fill:#FFFFFF;" d="M568.735,1593.633c0-1.833-1.486-3.319-3.318-3.319c-1.834,0-3.32,1.486-3.32,3.319
		s1.486,3.319,3.32,3.319C567.249,1596.952,568.735,1595.466,568.735,1593.633"/>
	<path style="fill:#FFFFFF;" d="M545.837,1000.87c0-2.805-2.272-5.075-5.077-5.075c-2.805,0-5.073,2.271-5.073,5.075
		s2.269,5.076,5.073,5.076C543.565,1005.946,545.837,1003.675,545.837,1000.87"/>
	<path style="fill:#FFFFFF;" d="M276.644,452.463c0-2.325-1.887-4.214-4.213-4.214c-2.329,0-4.214,1.889-4.214,4.214
		c0,2.328,1.885,4.214,4.214,4.214C274.757,456.677,276.644,454.791,276.644,452.463"/>
	<path style="fill:#FFFFFF;" d="M508.043,597.674c0-1.673-1.355-3.028-3.029-3.028c-1.676,0-3.033,1.356-3.033,3.028
		c0,1.675,1.357,3.03,3.033,3.03C506.688,600.704,508.043,599.349,508.043,597.674"/>
	<path style="fill:#FFFFFF;" d="M1097,663.299c0-2.484-2.016-4.498-4.5-4.498c-2.48,0-4.494,2.014-4.494,4.498
		c0,2.48,2.014,4.494,4.494,4.494C1094.984,667.793,1097,665.779,1097,663.299"/>
	<path style="fill:#FFFFFF;" d="M164.058,540.343c0-2.341-1.898-4.241-4.241-4.241c-2.341,0-4.238,1.9-4.238,4.241
		c0,2.341,1.898,4.238,4.238,4.238C162.159,544.581,164.058,542.684,164.058,540.343"/>
	<path style="fill:#FFFFFF;" d="M929.551,240.58c0-2.468-2-4.471-4.471-4.471c-2.467,0-4.471,2.003-4.471,4.471
		c0,2.47,2.004,4.47,4.471,4.47C927.551,245.05,929.551,243.05,929.551,240.58"/>
	<path style="fill:#FFFFFF;" d="M214.232,357.26c0-2.059-1.672-3.73-3.73-3.73c-2.062,0-3.73,1.672-3.73,3.73
		c0,2.062,1.668,3.732,3.73,3.732C212.561,360.991,214.232,359.322,214.232,357.26"/>
	<path style="fill:#FFFFFF;" d="M233.926,254.721c0-2.059-1.672-3.73-3.73-3.73c-2.062,0-3.73,1.672-3.73,3.73
		c0,2.062,1.668,3.731,3.73,3.731C232.254,258.452,233.926,256.783,233.926,254.721"/>
	<path style="fill:#FFFFFF;" d="M666.189,390.296c0-2.325-1.887-4.214-4.213-4.214c-2.328,0-4.213,1.889-4.213,4.214
		c0,2.328,1.885,4.214,4.213,4.214C664.303,394.51,666.189,392.624,666.189,390.296"/>
	<path style="fill:#FFFFFF;" d="M731.035,406.92c0-2.325-1.887-4.214-4.213-4.214c-2.33,0-4.215,1.889-4.215,4.214
		c0,2.328,1.885,4.214,4.215,4.214C729.148,411.134,731.035,409.248,731.035,406.92"/>
	<path style="fill:#FFFFFF;" d="M466.002,262.922c0-2.325-1.887-4.214-4.213-4.214c-2.328,0-4.213,1.889-4.213,4.214
		c0,2.328,1.885,4.214,4.213,4.214C464.115,267.136,466.002,265.25,466.002,262.922"/>
	<path style="fill:#FFFFFF;" d="M296.722,179.936c0-2.16-1.747-3.91-3.909-3.91c-2.161,0-3.908,1.75-3.908,3.91
		c0,2.156,1.747,3.909,3.908,3.909C294.975,183.845,296.722,182.092,296.722,179.936"/>
	<path style="fill:#FFFFFF;" d="M790.337,169.73c0-2.953-2.394-5.35-5.348-5.35c-2.955,0-5.348,2.396-5.348,5.35
		c0,2.954,2.393,5.347,5.348,5.347C787.942,175.076,790.337,172.684,790.337,169.73"/>
	<path style="fill:#FFFFFF;" d="M744.825,167.452c0-1.976-1.604-3.576-3.578-3.576s-3.576,1.601-3.576,3.576
		c0,1.978,1.602,3.578,3.576,3.578S744.825,169.43,744.825,167.452"/>
	<path style="fill:#FFFFFF;" d="M874.768,120.836c0-2.468-2-4.471-4.471-4.471c-2.467,0-4.471,2.003-4.471,4.471
		c0,2.47,2.004,4.47,4.471,4.47C872.768,125.306,874.768,123.306,874.768,120.836"/>
	<path style="fill:#FFFFFF;" d="M669.716,58.347c0-2.468-2-4.471-4.471-4.471c-2.467,0-4.471,2.003-4.471,4.471
		c0,2.47,2.004,4.47,4.471,4.47C667.716,62.816,669.716,60.816,669.716,58.347"/>
</g>
<g id="Ebene_1">
</g>
</svg>
