<?xml version="1.0" encoding="iso-8859-1"?>
<!-- Generator: Adobe Illustrator 18.0.0, SVG Export Plug-In . SVG Version: 6.00 Build 0)  -->
<!DOCTYPE svg PUBLIC "-//W3C//DTD SVG 1.1//EN" "http://www.w3.org/Graphics/SVG/1.1/DTD/svg11.dtd">
<svg version="1.1" xmlns="http://www.w3.org/2000/svg" xmlns:xlink="http://www.w3.org/1999/xlink" x="0px" y="0px"
	 viewBox="0 0 1200 1760.01" style="enable-background:new 0 0 1200 1760.01;" xml:space="preserve">
<g id="_x30_2snow_x5F_small4">
	<path style="fill:#FFFFFF;" d="M583.88,1578.284c0-0.146-0.113-0.264-0.26-0.264c-0.143,0-0.26,0.117-0.26,0.264
		c0,0.142,0.117,0.26,0.26,0.26C583.767,1578.544,583.88,1578.427,583.88,1578.284"/>
	<path style="fill:#FFFFFF;" d="M251.419,1594.242c0-1.368-1.111-2.477-2.479-2.477c-1.369,0-2.478,1.108-2.478,2.477
		c0,1.368,1.108,2.476,2.478,2.476C250.308,1596.719,251.419,1595.61,251.419,1594.242"/>
	<path style="fill:#FFFFFF;" d="M746.807,480.665c0-0.146-0.113-0.264-0.26-0.264c-0.143,0-0.26,0.117-0.26,0.264
		c0,0.143,0.117,0.26,0.26,0.26C746.693,480.925,746.807,480.808,746.807,480.665"/>
	<path style="fill:#FFFFFF;" d="M1056.635,1400.553c0-0.467-0.379-0.846-0.846-0.846c-0.469,0-0.846,0.379-0.846,0.846
		c0,0.465,0.377,0.842,0.846,0.842C1056.256,1401.395,1056.635,1401.018,1056.635,1400.553"/>
	<path style="fill:#FFFFFF;" d="M498.253,1241.157c0-0.617-0.502-1.121-1.121-1.121c-0.619,0-1.121,0.504-1.121,1.121
		c0,0.619,0.502,1.123,1.121,1.123C497.751,1242.28,498.253,1241.776,498.253,1241.157"/>
	<path style="fill:#FFFFFF;" d="M360.768,1168.804c0-1.368-1.111-2.477-2.479-2.477c-1.369,0-2.478,1.108-2.478,2.477
		c0,1.368,1.108,2.477,2.478,2.477C359.657,1171.28,360.768,1170.172,360.768,1168.804"/>
	<path style="fill:#FFFFFF;" d="M935.438,904.552c0-0.467-0.379-0.846-0.846-0.846c-0.469,0-0.846,0.379-0.846,0.846
		c0,0.465,0.377,0.842,0.846,0.842C935.059,905.393,935.438,905.017,935.438,904.552"/>
	<path style="fill:#FFFFFF;" d="M1165.301,1475.955c0-0.467-0.379-0.846-0.846-0.846c-0.469,0-0.846,0.379-0.846,0.846
		c0,0.465,0.377,0.842,0.846,0.842C1164.922,1476.797,1165.301,1476.42,1165.301,1475.955"/>
	<path style="fill:#FFFFFF;" d="M482.609,1138.304c0-0.811-0.658-1.467-1.47-1.467c-0.811,0-1.468,0.656-1.468,1.467
		c0,0.812,0.656,1.471,1.468,1.471C481.951,1139.774,482.609,1139.115,482.609,1138.304"/>
	<path style="fill:#FFFFFF;" d="M1129.864,1162.749c0-0.617-0.502-1.121-1.121-1.121s-1.121,0.504-1.121,1.121
		c0,0.619,0.502,1.123,1.121,1.123S1129.864,1163.368,1129.864,1162.749"/>
	<path style="fill:#FFFFFF;" d="M700.373,1149.228c0-0.689-0.56-1.247-1.246-1.247c-0.689,0-1.248,0.558-1.248,1.247
		c0,0.688,0.56,1.245,1.248,1.245C699.813,1150.473,700.373,1149.915,700.373,1149.228"/>
	<path style="fill:#FFFFFF;" d="M704.769,1306.11c0-0.975-0.787-1.764-1.762-1.764c-0.973,0-1.762,0.788-1.762,1.764
		c0,0.972,0.789,1.76,1.762,1.76C703.982,1307.87,704.769,1307.082,704.769,1306.11"/>
	<path style="fill:#FFFFFF;" d="M420.87,1476.427c0-1.219-0.986-2.205-2.205-2.205c-1.218,0-2.204,0.986-2.204,2.205
		c0,1.219,0.986,2.205,2.204,2.205C419.883,1478.632,420.87,1477.646,420.87,1476.427"/>
	<path style="fill:#FFFFFF;" d="M70.758,1462.503c0-0.689-0.56-1.247-1.246-1.247c-0.689,0-1.248,0.558-1.248,1.247
		c0,0.688,0.559,1.245,1.248,1.245C70.198,1463.748,70.758,1463.19,70.758,1462.503"/>
	<path style="fill:#FFFFFF;" d="M366.706,1211.948c0-0.976-0.787-1.764-1.762-1.764c-0.973,0-1.762,0.788-1.762,1.764
		c0,0.972,0.789,1.76,1.762,1.76C365.919,1213.708,366.706,1212.92,366.706,1211.948"/>
	<path style="fill:#FFFFFF;" d="M938.317,1240.035c0-0.617-0.502-1.121-1.121-1.121c-0.619,0-1.121,0.504-1.121,1.121
		c0,0.619,0.502,1.123,1.121,1.123C937.815,1241.158,938.317,1240.654,938.317,1240.035"/>
	<path style="fill:#FFFFFF;" d="M1034.365,1255.353c0-0.617-0.502-1.121-1.121-1.121s-1.121,0.504-1.121,1.121
		c0,0.619,0.502,1.123,1.121,1.123S1034.365,1255.972,1034.365,1255.353"/>
	<path style="fill:#FFFFFF;" d="M230.77,1051.351c0-0.689-0.56-1.247-1.246-1.247c-0.689,0-1.248,0.558-1.248,1.247
		c0,0.688,0.559,1.245,1.248,1.245C230.21,1052.596,230.77,1052.038,230.77,1051.351"/>
	<path style="fill:#FFFFFF;" d="M451.262,775.529c0-1.368-1.111-2.477-2.479-2.477c-1.369,0-2.478,1.108-2.478,2.477
		c0,1.368,1.108,2.477,2.478,2.477C450.15,778.006,451.262,776.897,451.262,775.529"/>
	<path style="fill:#FFFFFF;" d="M673.291,1021.126c0-0.617-0.502-1.121-1.121-1.121c-0.619,0-1.121,0.504-1.121,1.121
		c0,0.619,0.502,1.123,1.121,1.123C672.789,1022.249,673.291,1021.745,673.291,1021.126"/>
	<path style="fill:#FFFFFF;" d="M500.013,970.653c0-0.73-0.595-1.322-1.325-1.322c-0.732,0-1.322,0.592-1.322,1.322
		c0,0.731,0.591,1.322,1.322,1.322C499.418,971.976,500.013,971.384,500.013,970.653"/>
	<path style="fill:#FFFFFF;" d="M1128.606,644.007c0-0.467-0.379-0.846-0.846-0.846c-0.469,0-0.846,0.379-0.846,0.846
		c0,0.465,0.377,0.842,0.846,0.842C1128.228,644.849,1128.606,644.472,1128.606,644.007"/>
	<path style="fill:#FFFFFF;" d="M1117.584,787.382c0-0.467-0.379-0.846-0.846-0.846c-0.469,0-0.846,0.379-0.846,0.846
		c0,0.465,0.377,0.842,0.846,0.842C1117.205,788.224,1117.584,787.847,1117.584,787.382"/>
	<path style="fill:#FFFFFF;" d="M571.416,663.266c0-0.467-0.379-0.846-0.846-0.846c-0.469,0-0.846,0.379-0.846,0.846
		c0,0.465,0.377,0.842,0.846,0.842C571.037,664.108,571.416,663.731,571.416,663.266"/>
	<path style="fill:#FFFFFF;" d="M536.699,549.642c0-0.168-0.139-0.305-0.307-0.305c-0.17,0-0.307,0.137-0.307,0.305
		c0,0.17,0.137,0.306,0.307,0.306C536.56,549.947,536.699,549.811,536.699,549.642"/>
	<path style="fill:#FFFFFF;" d="M465.997,602.357c0-0.689-0.56-1.247-1.246-1.247c-0.689,0-1.248,0.558-1.248,1.247
		c0,0.688,0.56,1.245,1.248,1.245C465.438,603.602,465.997,603.045,465.997,602.357"/>
	<path style="fill:#FFFFFF;" d="M756.695,618.757c0-0.926-0.75-1.678-1.676-1.678c-0.926,0-1.678,0.752-1.678,1.678
		c0,0.922,0.752,1.676,1.678,1.676C755.945,620.433,756.695,619.679,756.695,618.757"/>
	<path style="fill:#FFFFFF;" d="M1000.629,343.738c0-0.467-0.379-0.846-0.846-0.846c-0.469,0-0.846,0.379-0.846,0.846
		c0,0.465,0.377,0.842,0.846,0.842C1000.25,344.58,1000.629,344.203,1000.629,343.738"/>
	<path style="fill:#FFFFFF;" d="M1109.295,419.141c0-0.467-0.379-0.846-0.846-0.846c-0.469,0-0.846,0.379-0.846,0.846
		c0,0.465,0.377,0.842,0.846,0.842C1108.916,419.982,1109.295,419.605,1109.295,419.141"/>
	<path style="fill:#FFFFFF;" d="M683.24,570.031c0-0.926-0.75-1.678-1.676-1.678c-0.926,0-1.678,0.752-1.678,1.678
		c0,0.922,0.752,1.676,1.678,1.676C682.49,571.707,683.24,570.953,683.24,570.031"/>
	<path style="fill:#FFFFFF;" d="M349.691,483.945c0-0.147-0.113-0.264-0.26-0.264c-0.142,0-0.26,0.117-0.26,0.264
		c0,0.143,0.117,0.26,0.26,0.26C349.578,484.205,349.691,484.088,349.691,483.945"/>
	<path style="fill:#FFFFFF;" d="M149.743,232.722c0-0.617-0.502-1.121-1.121-1.121c-0.619,0-1.121,0.504-1.121,1.121
		c0,0.619,0.502,1.123,1.121,1.123C149.241,233.845,149.743,233.341,149.743,232.722"/>
	<path style="fill:#FFFFFF;" d="M426.256,315.667c0-0.617-0.502-1.121-1.121-1.121c-0.619,0-1.121,0.504-1.121,1.121
		c0,0.619,0.502,1.123,1.121,1.123C425.754,316.79,426.256,316.286,426.256,315.667"/>
	<path style="fill:#FFFFFF;" d="M336.913,491.006c0-0.73-0.595-1.322-1.325-1.322c-0.731,0-1.322,0.592-1.322,1.322
		c0,0.73,0.591,1.322,1.322,1.322C336.318,492.328,336.913,491.736,336.913,491.006"/>
	<path style="fill:#FFFFFF;" d="M904.211,395.396c0-0.147-0.113-0.264-0.26-0.264c-0.143,0-0.26,0.117-0.26,0.264
		c0,0.143,0.117,0.26,0.26,0.26C904.098,395.656,904.211,395.539,904.211,395.396"/>
	<path style="fill:#FFFFFF;" d="M1101.846,347.676c0-0.467-0.379-0.846-0.846-0.846c-0.469,0-0.846,0.379-0.846,0.846
		c0,0.465,0.377,0.842,0.846,0.842C1101.467,348.518,1101.846,348.141,1101.846,347.676"/>
	<path style="fill:#FFFFFF;" d="M262.559,365.041c0-0.467-0.379-0.846-0.846-0.846c-0.469,0-0.846,0.379-0.846,0.846
		c0,0.465,0.377,0.842,0.846,0.842C262.18,365.883,262.559,365.506,262.559,365.041"/>
	<path style="fill:#FFFFFF;" d="M235.658,378.822c0-0.146-0.113-0.264-0.26-0.264c-0.143,0-0.26,0.117-0.26,0.264
		c0,0.142,0.117,0.26,0.26,0.26C235.545,379.081,235.658,378.964,235.658,378.822"/>
	<path style="fill:#FFFFFF;" d="M244.482,406.994c0-0.168-0.139-0.305-0.307-0.305c-0.17,0-0.307,0.137-0.307,0.305
		c0,0.171,0.137,0.306,0.307,0.306C244.344,407.299,244.482,407.164,244.482,406.994"/>
	<path style="fill:#FFFFFF;" d="M1037.557,607.801c0-0.467-0.379-0.846-0.846-0.846c-0.469,0-0.846,0.379-0.846,0.846
		c0,0.465,0.377,0.842,0.846,0.842C1037.178,608.643,1037.557,608.266,1037.557,607.801"/>
	<path style="fill:#FFFFFF;" d="M1067.678,642.889c0-0.168-0.139-0.305-0.307-0.305c-0.17,0-0.307,0.137-0.307,0.305
		c0,0.17,0.137,0.306,0.307,0.306C1067.539,643.194,1067.678,643.059,1067.678,642.889"/>
	<path style="fill:#FFFFFF;" d="M46.473,617.665c0-0.976-0.787-1.764-1.762-1.764c-0.973,0-1.762,0.788-1.762,1.764
		c0,0.972,0.789,1.76,1.762,1.76C45.686,619.425,46.473,618.637,46.473,617.665"/>
	<path style="fill:#FFFFFF;" d="M133.083,611.414c0-0.617-0.502-1.121-1.121-1.121c-0.619,0-1.121,0.504-1.121,1.121
		c0,0.619,0.502,1.124,1.121,1.124C132.581,612.538,133.083,612.034,133.083,611.414"/>
	<path style="fill:#FFFFFF;" d="M424.649,1758.251c0-0.976-0.787-1.764-1.762-1.764c-0.973,0-1.762,0.788-1.762,1.764
		c0,0.972,0.789,1.76,1.762,1.76C423.862,1760.01,424.649,1759.222,424.649,1758.251"/>
	<path style="fill:#FFFFFF;" d="M268.81,1662.416c0-1.368-1.111-2.476-2.479-2.476c-1.369,0-2.478,1.108-2.478,2.476
		c0,1.368,1.108,2.477,2.478,2.477C267.699,1664.893,268.81,1663.784,268.81,1662.416"/>
	<path style="fill:#FFFFFF;" d="M536.699,1628.439c0-0.168-0.139-0.305-0.307-0.305c-0.17,0-0.307,0.137-0.307,0.305
		c0,0.17,0.137,0.306,0.307,0.306C536.56,1628.744,536.699,1628.609,536.699,1628.439"/>
	<path style="fill:#FFFFFF;" d="M329.851,1664.054c0-0.811-0.658-1.467-1.47-1.467c-0.811,0-1.468,0.656-1.468,1.467
		c0,0.812,0.656,1.471,1.468,1.471C329.193,1665.525,329.851,1664.865,329.851,1664.054"/>
	<path style="fill:#FFFFFF;" d="M755.631,1587.634c0-0.168-0.139-0.305-0.307-0.305c-0.17,0-0.307,0.137-0.307,0.305
		c0,0.17,0.137,0.306,0.307,0.306C755.492,1587.94,755.631,1587.804,755.631,1587.634"/>
	<path style="fill:#FFFFFF;" d="M683.24,1648.828c0-0.926-0.75-1.678-1.676-1.678c-0.926,0-1.678,0.752-1.678,1.678
		c0,0.922,0.752,1.676,1.678,1.676C682.49,1650.504,683.24,1649.75,683.24,1648.828"/>
	<path style="fill:#FFFFFF;" d="M842.333,1555.081c0-0.689-0.56-1.247-1.246-1.247c-0.688,0-1.248,0.558-1.248,1.247
		c0,0.688,0.56,1.245,1.248,1.245C841.773,1556.326,842.333,1555.769,842.333,1555.081"/>
	<path style="fill:#FFFFFF;" d="M866.822,1720.538c0-0.467-0.379-0.846-0.846-0.846c-0.469,0-0.846,0.379-0.846,0.846
		c0,0.465,0.377,0.842,0.846,0.842C866.443,1721.38,866.822,1721.003,866.822,1720.538"/>
	<path style="fill:#FFFFFF;" d="M1045.852,1624.894c0-0.467-0.379-0.846-0.846-0.846c-0.469,0-0.846,0.379-0.846,0.846
		c0,0.465,0.377,0.842,0.846,0.842C1045.473,1625.735,1045.852,1625.359,1045.852,1624.894"/>
	<path style="fill:#FFFFFF;" d="M803.317,1720.534c0-0.811-0.658-1.467-1.47-1.467c-0.812,0-1.468,0.656-1.468,1.467
		c0,0.812,0.656,1.471,1.468,1.471C802.659,1722.005,803.317,1721.346,803.317,1720.534"/>
	<path style="fill:#FFFFFF;" d="M210.324,353.797c0-0.168-0.139-0.305-0.307-0.305c-0.17,0-0.307,0.137-0.307,0.305
		c0,0.17,0.137,0.306,0.307,0.306C210.186,354.103,210.324,353.967,210.324,353.797"/>
	<path style="fill:#FFFFFF;" d="M139.623,406.513c0-0.69-0.56-1.247-1.246-1.247c-0.688,0-1.248,0.558-1.248,1.247
		c0,0.688,0.56,1.245,1.248,1.245C139.063,407.758,139.623,407.201,139.623,406.513"/>
	<path style="fill:#FFFFFF;" d="M216.036,90.26c0-0.976-0.787-1.764-1.762-1.764c-0.973,0-1.762,0.788-1.762,1.764
		c0,0.972,0.789,1.76,1.762,1.76C215.248,92.02,216.036,91.232,216.036,90.26"/>
	<path style="fill:#FFFFFF;" d="M23.317,288.101c0-0.146-0.113-0.264-0.26-0.264c-0.142,0-0.26,0.117-0.26,0.264
		c0,0.143,0.117,0.26,0.26,0.26C23.204,288.361,23.317,288.244,23.317,288.101"/>
	<path style="fill:#FFFFFF;" d="M99.881,119.823c0-0.617-0.502-1.121-1.121-1.121c-0.619,0-1.121,0.504-1.121,1.121
		c0,0.619,0.502,1.123,1.121,1.123C99.379,120.946,99.881,120.442,99.881,119.823"/>
	<path style="fill:#FFFFFF;" d="M414.521,1568.932c0-0.168-0.139-0.305-0.307-0.305c-0.17,0-0.307,0.137-0.307,0.305
		c0,0.17,0.137,0.306,0.307,0.306C414.383,1569.237,414.521,1569.102,414.521,1568.932"/>
</g>
<g id="Ebene_1">
</g>
</svg>
