<?xml version="1.0" encoding="iso-8859-1"?>
<!-- Generator: Adobe Illustrator 18.0.0, SVG Export Plug-In . SVG Version: 6.00 Build 0)  -->
<!DOCTYPE svg PUBLIC "-//W3C//DTD SVG 1.1//EN" "http://www.w3.org/Graphics/SVG/1.1/DTD/svg11.dtd">
<svg version="1.1" xmlns="http://www.w3.org/2000/svg" xmlns:xlink="http://www.w3.org/1999/xlink" x="0px" y="0px"
	 viewBox="0 0 1200 1760.01" style="enable-background:new 0 0 1200 1760.01;" xml:space="preserve">
<g id="_x30_2snow_x5F_mid2">
	<path style="fill:#FFFFFF;" d="M1055.654,1169.339c0-1.368-1.111-2.477-2.479-2.477c-1.369,0-2.478,1.108-2.478,2.477
		s1.108,2.477,2.478,2.477C1054.543,1171.815,1055.654,1170.707,1055.654,1169.339"/>
	<path style="fill:#FFFFFF;" d="M627.247,693.623c0-2.325-1.887-4.214-4.213-4.214c-2.329,0-4.214,1.889-4.214,4.214
		c0,2.328,1.885,4.214,4.214,4.214C625.36,697.837,627.247,695.951,627.247,693.623"/>
	<path style="fill:#FFFFFF;" d="M405.686,480.402c0-2.468-2-4.471-4.471-4.471c-2.467,0-4.471,2.003-4.471,4.471
		c0,2.47,2.004,4.47,4.471,4.47C403.686,484.872,405.686,482.872,405.686,480.402"/>
	<path style="fill:#FFFFFF;" d="M736.386,758.682c0-2.873-2.332-5.204-5.207-5.204c-2.873,0-5.205,2.331-5.205,5.204
		c0,2.876,2.332,5.206,5.205,5.206C734.054,763.888,736.386,761.558,736.386,758.682"/>
	<path style="fill:#FFFFFF;" d="M1015.297,456.969c0-2.873-2.332-5.204-5.207-5.204c-2.873,0-5.205,2.331-5.205,5.204
		c0,2.876,2.332,5.206,5.205,5.206C1012.965,462.175,1015.297,459.845,1015.297,456.969"/>
	<path style="fill:#FFFFFF;" d="M283.934,789.438c0-2.805-2.271-5.075-5.077-5.075c-2.805,0-5.073,2.271-5.073,5.075
		s2.268,5.076,5.073,5.076C281.663,794.515,283.934,792.243,283.934,789.438"/>
	<path style="fill:#FFFFFF;" d="M654.573,818.5c0-2.325-1.887-4.214-4.213-4.214c-2.328,0-4.213,1.889-4.213,4.214
		c0,2.328,1.885,4.214,4.213,4.214C652.686,822.714,654.573,820.828,654.573,818.5"/>
	<path style="fill:#FFFFFF;" d="M1057.727,258.808c0-2.514-2.037-4.55-4.551-4.55c-2.513,0-4.551,2.036-4.551,4.55
		s2.038,4.551,4.551,4.551C1055.689,263.359,1057.727,261.322,1057.727,258.808"/>
	<path style="fill:#FFFFFF;" d="M597.592,757.393c0-2.514-2.037-4.55-4.551-4.55c-2.513,0-4.551,2.036-4.551,4.55
		c0,2.514,2.038,4.551,4.551,4.551C595.555,761.943,597.592,759.906,597.592,757.393"/>
	<path style="fill:#FFFFFF;" d="M436.432,1355.418c0-2.059-1.672-3.73-3.73-3.73c-2.062,0-3.73,1.672-3.73,3.73
		c0,2.062,1.668,3.731,3.73,3.731C434.76,1359.149,436.432,1357.48,436.432,1355.418"/>
	<path style="fill:#FFFFFF;" d="M1200.283,1181.07c0-2.996-2.424-5.421-5.414-5.421c-2.996,0-5.42,2.425-5.42,5.421
		c0,2.99,2.424,5.416,5.42,5.416C1197.859,1186.486,1200.283,1184.06,1200.283,1181.07"/>
	<path style="fill:#FFFFFF;" d="M755.583,1244.207c0-2.468-2-4.471-4.471-4.471c-2.467,0-4.471,2.003-4.471,4.471
		c0,2.47,2.004,4.47,4.471,4.47C753.583,1248.677,755.583,1246.677,755.583,1244.207"/>
	<path style="fill:#FFFFFF;" d="M575.859,917.578c0-0.617-0.502-1.121-1.121-1.121s-1.121,0.504-1.121,1.121
		c0,0.619,0.502,1.123,1.121,1.123S575.859,918.197,575.859,917.578"/>
	<path style="fill:#FFFFFF;" d="M334.865,1546.671c0-2.16-1.747-3.91-3.909-3.91c-2.161,0-3.908,1.75-3.908,3.91
		c0,2.156,1.747,3.909,3.908,3.909C333.118,1550.58,334.865,1548.827,334.865,1546.671"/>
	<path style="fill:#FFFFFF;" d="M529.427,1171.814c0-2.514-2.037-4.55-4.551-4.55c-2.513,0-4.551,2.036-4.551,4.55
		c0,2.514,2.038,4.551,4.551,4.551C527.39,1176.365,529.427,1174.328,529.427,1171.814"/>
	<path style="fill:#FFFFFF;" d="M11.364,1521.825c0-2.16-1.747-3.91-3.909-3.91c-2.161,0-3.908,1.75-3.908,3.91
		c0,2.156,1.747,3.909,3.908,3.909C9.617,1525.734,11.364,1523.981,11.364,1521.825"/>
	<path style="fill:#FFFFFF;" d="M647.484,1315.209c0-2.468-2-4.471-4.471-4.471c-2.467,0-4.471,2.003-4.471,4.471
		c0,2.47,2.004,4.47,4.471,4.47C645.484,1319.679,647.484,1317.679,647.484,1315.209"/>
	<path style="fill:#FFFFFF;" d="M26.24,1191.201c0-2.341-1.898-4.241-4.241-4.241c-2.341,0-4.238,1.9-4.238,4.241
		c0,2.341,1.897,4.238,4.238,4.238C24.341,1195.439,26.24,1193.542,26.24,1191.201"/>
	<path style="fill:#FFFFFF;" d="M124.162,1191.201c0-2.341-1.898-4.241-4.241-4.241c-2.341,0-4.238,1.9-4.238,4.241
		c0,2.341,1.897,4.238,4.238,4.238C122.264,1195.439,124.162,1193.542,124.162,1191.201"/>
	<path style="fill:#FFFFFF;" d="M1082.602,1461.365c0-2.873-2.33-5.204-5.207-5.204c-2.873,0-5.203,2.331-5.203,5.204
		c0,2.876,2.33,5.206,5.203,5.206C1080.271,1466.571,1082.602,1464.241,1082.602,1461.365"/>
	<path style="fill:#FFFFFF;" d="M435.74,1408.885c0-2.468-2-4.471-4.471-4.471c-2.467,0-4.471,2.003-4.471,4.471
		c0,2.47,2.004,4.47,4.471,4.47C433.74,1413.354,435.74,1411.354,435.74,1408.885"/>
	<path style="fill:#FFFFFF;" d="M211.482,1246.303c0-2.805-2.271-5.075-5.077-5.075c-2.805,0-5.073,2.27-5.073,5.075
		c0,2.805,2.269,5.076,5.073,5.076C209.211,1251.379,211.482,1249.107,211.482,1246.303"/>
	<path style="fill:#FFFFFF;" d="M466.002,1297.631c0-2.325-1.887-4.214-4.213-4.214c-2.328,0-4.213,1.889-4.213,4.214
		c0,2.328,1.885,4.214,4.213,4.214C464.115,1301.845,466.002,1299.959,466.002,1297.631"/>
	<path style="fill:#FFFFFF;" d="M874.768,803.039c0-2.468-2-4.471-4.471-4.471c-2.467,0-4.471,2.003-4.471,4.471
		c0,2.47,2.004,4.47,4.471,4.47C872.768,807.509,874.768,805.509,874.768,803.039"/>
	<path style="fill:#FFFFFF;" d="M997.386,791.164c0-2.873-2.332-5.204-5.207-5.204c-2.873,0-5.205,2.331-5.205,5.204
		c0,2.876,2.332,5.206,5.205,5.206C995.054,796.37,997.386,794.04,997.386,791.164"/>
	<path style="fill:#FFFFFF;" d="M1065.501,708.781c0-2.514-2.037-4.55-4.551-4.55s-4.551,2.036-4.551,4.55
		c0,2.514,2.037,4.551,4.551,4.551S1065.501,711.294,1065.501,708.781"/>
	<path style="fill:#FFFFFF;" d="M193.85,871.068c0-1.219-0.986-2.205-2.205-2.205c-1.218,0-2.204,0.986-2.204,2.205
		s0.986,2.205,2.204,2.205C192.864,873.273,193.85,872.287,193.85,871.068"/>
	<path style="fill:#FFFFFF;" d="M584.796,644.848c0-2.514-2.037-4.55-4.551-4.55c-2.513,0-4.551,2.036-4.551,4.55
		c0,2.514,2.038,4.551,4.551,4.551C582.759,649.399,584.796,647.362,584.796,644.848"/>
	<path style="fill:#FFFFFF;" d="M316.266,193.349c0-2.514-2.037-4.55-4.551-4.55c-2.513,0-4.551,2.036-4.551,4.55
		s2.038,4.551,4.551,4.551C314.228,197.9,316.266,195.863,316.266,193.349"/>
	<path style="fill:#FFFFFF;" d="M669.716,740.55c0-2.468-2-4.471-4.471-4.471c-2.467,0-4.471,2.003-4.471,4.471
		c0,2.47,2.004,4.47,4.471,4.47C667.716,745.019,669.716,743.019,669.716,740.55"/>
	<path style="fill:#FFFFFF;" d="M172.542,992.952c0-2.805-2.271-5.075-5.077-5.075c-2.805,0-5.073,2.271-5.073,5.075
		c0,2.805,2.269,5.076,5.073,5.076C170.271,998.028,172.542,995.757,172.542,992.952"/>
	<path style="fill:#FFFFFF;" d="M524.9,897.556c0-2.325-1.887-4.214-4.213-4.214c-2.33,0-4.215,1.889-4.215,4.214
		c0,2.328,1.885,4.214,4.215,4.214C523.014,901.769,524.9,899.884,524.9,897.556"/>
	<path style="fill:#FFFFFF;" d="M170.143,1058.277c0-2.16-1.747-3.91-3.909-3.91c-2.161,0-3.908,1.75-3.908,3.91
		c0,2.156,1.747,3.909,3.908,3.909C168.396,1062.187,170.143,1060.434,170.143,1058.277"/>
	<path style="fill:#FFFFFF;" d="M447.831,828.954c0-2.325-1.887-4.214-4.213-4.214c-2.328,0-4.213,1.889-4.213,4.214
		c0,2.328,1.885,4.214,4.213,4.214C445.944,833.168,447.831,831.282,447.831,828.954"/>
	<path style="fill:#FFFFFF;" d="M160.705,554.522c0-1.368-1.111-2.477-2.479-2.477c-1.369,0-2.478,1.108-2.478,2.477
		c0,1.368,1.108,2.477,2.478,2.477C159.594,556.999,160.705,555.891,160.705,554.522"/>
	<path style="fill:#FFFFFF;" d="M304.762,91.989c0-1.368-1.111-2.477-2.48-2.477c-1.369,0-2.477,1.108-2.477,2.477
		c0,1.368,1.108,2.477,2.477,2.477C303.651,94.466,304.762,93.357,304.762,91.989"/>
	<path style="fill:#FFFFFF;" d="M692.604,129.395c0-2.873-2.332-5.204-5.207-5.204c-2.873,0-5.205,2.331-5.205,5.204
		c0,2.876,2.332,5.206,5.205,5.206C690.272,134.602,692.604,132.271,692.604,129.395"/>
	<path style="fill:#FFFFFF;" d="M413.427,167.392c0-1.368-1.111-2.477-2.479-2.477c-1.369,0-2.478,1.108-2.478,2.477
		c0,1.368,1.108,2.477,2.478,2.477C412.315,169.868,413.427,168.76,413.427,167.392"/>
	<path style="fill:#FFFFFF;" d="M996.305,7.917c0-2.953-2.395-5.35-5.348-5.35c-2.955,0-5.348,2.397-5.348,5.35
		c0,2.954,2.393,5.347,5.348,5.347C993.91,13.264,996.305,10.871,996.305,7.917"/>
	<path style="fill:#FFFFFF;" d="M468.251,42.328c0-0.811-0.658-1.467-1.47-1.467c-0.812,0-1.468,0.656-1.468,1.467
		c0,0.812,0.656,1.471,1.468,1.471C467.593,43.799,468.251,43.14,468.251,42.328"/>
	<path style="fill:#FFFFFF;" d="M652.209,287.864c0-2.514-2.037-4.55-4.551-4.55c-2.514,0-4.551,2.036-4.551,4.55
		c0,2.514,2.037,4.551,4.551,4.551C650.172,292.415,652.209,290.378,652.209,287.864"/>
	<path style="fill:#FFFFFF;" d="M746.94,584.26c0-2.325-1.887-4.214-4.213-4.214c-2.33,0-4.215,1.889-4.215,4.214
		c0,2.328,1.885,4.214,4.215,4.214C745.054,588.474,746.94,586.588,746.94,584.26"/>
	<path style="fill:#FFFFFF;" d="M679.703,330.312c0-2.325-1.887-4.214-4.213-4.214c-2.328,0-4.213,1.889-4.213,4.214
		c0,2.328,1.885,4.214,4.213,4.214C677.816,334.526,679.703,332.641,679.703,330.312"/>
	<path style="fill:#FFFFFF;" d="M1133.443,278.911c0-2.873-2.33-5.204-5.207-5.204c-2.873,0-5.203,2.331-5.203,5.204
		c0,2.876,2.33,5.206,5.203,5.206C1131.113,284.117,1133.443,281.787,1133.443,278.911"/>
	<path style="fill:#FFFFFF;" d="M99.084,278.912c0-2.059-1.672-3.73-3.73-3.73c-2.062,0-3.73,1.672-3.73,3.73
		c0,2.062,1.668,3.731,3.73,3.731C97.412,282.643,99.084,280.974,99.084,278.912"/>
	<path style="fill:#FFFFFF;" d="M966.094,66.731c0-2.996-2.424-5.421-5.414-5.421c-2.996,0-5.42,2.425-5.42,5.421
		c0,2.99,2.424,5.416,5.42,5.416C963.67,72.147,966.094,69.722,966.094,66.731"/>
	<path style="fill:#FFFFFF;" d="M420.498,136.893c0-2.514-2.037-4.55-4.551-4.55c-2.513,0-4.551,2.036-4.551,4.55
		c0,2.514,2.038,4.551,4.551,4.551C418.461,141.444,420.498,139.407,420.498,136.893"/>
	<path style="fill:#FFFFFF;" d="M535.587,608.643c0-2.325-1.887-4.214-4.213-4.214c-2.33,0-4.215,1.889-4.215,4.214
		c0,2.328,1.885,4.214,4.215,4.214C533.7,612.856,535.587,610.971,535.587,608.643"/>
	<path style="fill:#FFFFFF;" d="M383.13,415.554c0-2.468-2-4.471-4.471-4.471c-2.467,0-4.471,2.003-4.471,4.471
		c0,2.47,2.004,4.47,4.471,4.47C381.13,420.024,383.13,418.024,383.13,415.554"/>
	<path style="fill:#FFFFFF;" d="M158.03,1728.125c0-2.341-1.898-4.241-4.241-4.241c-2.341,0-4.238,1.9-4.238,4.241
		c0,2.341,1.898,4.238,4.238,4.238C156.131,1732.363,158.03,1730.466,158.03,1728.125"/>
	<path style="fill:#FFFFFF;" d="M1015.297,1535.766c0-2.873-2.332-5.204-5.207-5.204c-2.873,0-5.205,2.331-5.205,5.204
		c0,2.876,2.332,5.206,5.205,5.206C1012.965,1540.972,1015.297,1538.642,1015.297,1535.766"/>
	<path style="fill:#FFFFFF;" d="M202.616,1617.512c0-2.16-1.747-3.91-3.909-3.91c-2.161,0-3.908,1.75-3.908,3.91
		c0,2.156,1.747,3.909,3.908,3.909C200.869,1621.421,202.616,1619.668,202.616,1617.512"/>
	<path style="fill:#FFFFFF;" d="M1169.771,1695.151c0-2.468-2-4.471-4.471-4.471c-2.467,0-4.471,2.003-4.471,4.471
		c0,2.47,2.004,4.47,4.471,4.47C1167.771,1699.62,1169.771,1697.62,1169.771,1695.151"/>
	<path style="fill:#FFFFFF;" d="M287.965,1617.511c0-2.514-2.037-4.55-4.551-4.55c-2.514,0-4.551,2.036-4.551,4.55
		s2.037,4.551,4.551,4.551C285.928,1622.062,287.965,1620.025,287.965,1617.511"/>
	<path style="fill:#FFFFFF;" d="M947.513,1741.756c0-2.468-2-4.471-4.471-4.471c-2.467,0-4.471,2.003-4.471,4.471
		c0,2.47,2.004,4.47,4.471,4.47C945.513,1746.226,947.513,1744.226,947.513,1741.756"/>
	<path style="fill:#FFFFFF;" d="M501.989,1746.226c0-2.514-2.037-4.55-4.551-4.55c-2.513,0-4.551,2.036-4.551,4.55
		s2.038,4.551,4.551,4.551C499.952,1750.776,501.989,1748.739,501.989,1746.226"/>
	<path style="fill:#FFFFFF;" d="M46.37,1631.376c0-2.341-1.898-4.241-4.241-4.241c-2.341,0-4.238,1.9-4.238,4.241
		s1.898,4.238,4.238,4.238C44.472,1635.614,46.37,1633.717,46.37,1631.376"/>
	<path style="fill:#FFFFFF;" d="M86.361,1581.153c0-2.16-1.747-3.91-3.909-3.91c-2.161,0-3.908,1.75-3.908,3.91
		c0,2.156,1.747,3.909,3.908,3.909C84.614,1585.063,86.361,1583.31,86.361,1581.153"/>
	<path style="fill:#FFFFFF;" d="M746.94,1663.057c0-2.325-1.887-4.214-4.213-4.214c-2.33,0-4.215,1.889-4.215,4.214
		c0,2.328,1.885,4.214,4.215,4.214C745.054,1667.271,746.94,1665.385,746.94,1663.057"/>
	<path style="fill:#FFFFFF;" d="M830.623,1712.586c0-2.325-1.887-4.214-4.213-4.214c-2.33,0-4.215,1.889-4.215,4.214
		c0,2.328,1.885,4.214,4.215,4.214C828.736,1716.8,830.623,1714.915,830.623,1712.586"/>
	<path style="fill:#FFFFFF;" d="M863.426,1593.82c0-1.976-1.604-3.576-3.578-3.576c-1.975,0-3.576,1.6-3.576,3.576
		c0,1.978,1.602,3.578,3.576,3.578C861.822,1597.399,863.426,1595.798,863.426,1593.82"/>
	<path style="fill:#FFFFFF;" d="M278.859,1568.653c0-2.16-1.747-3.91-3.909-3.91c-2.161,0-3.908,1.75-3.908,3.91
		c0,2.156,1.747,3.909,3.908,3.909C277.112,1572.563,278.859,1570.81,278.859,1568.653"/>
</g>
<g id="Ebene_1">
</g>
</svg>
