<?xml version="1.0" encoding="iso-8859-1"?>
<!-- Generator: Adobe Illustrator 18.0.0, SVG Export Plug-In . SVG Version: 6.00 Build 0)  -->
<!DOCTYPE svg PUBLIC "-//W3C//DTD SVG 1.1//EN" "http://www.w3.org/Graphics/SVG/1.1/DTD/svg11.dtd">
<svg version="1.1" xmlns="http://www.w3.org/2000/svg" xmlns:xlink="http://www.w3.org/1999/xlink" x="0px" y="0px"
	 viewBox="0 0 1200 1760.01" style="enable-background:new 0 0 1200 1760.01;" xml:space="preserve">
<g id="_x30_2snow_x5F_mid1">
	<path style="fill:#FFFFFF;" d="M477.656,859.081c0-1.976-1.604-3.576-3.578-3.576c-1.976,0-3.576,1.601-3.576,3.576
		c0,1.978,1.6,3.578,3.576,3.578C476.053,862.659,477.656,861.059,477.656,859.081"/>
	<path style="fill:#FFFFFF;" d="M158.03,649.328c0-2.341-1.898-4.241-4.241-4.241c-2.341,0-4.238,1.9-4.238,4.241
		c0,2.341,1.898,4.238,4.238,4.238C156.131,653.566,158.03,651.669,158.03,649.328"/>
	<path style="fill:#FFFFFF;" d="M702.023,452.628c0-1.976-1.604-3.576-3.578-3.576c-1.975,0-3.576,1.601-3.576,3.576
		c0,1.978,1.602,3.578,3.576,3.578C700.42,456.206,702.023,454.605,702.023,452.628"/>
	<path style="fill:#FFFFFF;" d="M518.415,700.649c0-2.514-2.037-4.55-4.551-4.55c-2.513,0-4.551,2.036-4.551,4.55
		c0,2.514,2.038,4.551,4.551,4.551C516.377,705.2,518.415,703.163,518.415,700.649"/>
	<path style="fill:#FFFFFF;" d="M929.551,1275.289c0-2.468-2-4.471-4.471-4.471c-2.467,0-4.471,2.003-4.471,4.471
		c0,2.47,2.004,4.47,4.471,4.47C927.551,1279.759,929.551,1277.759,929.551,1275.289"/>
	<path style="fill:#FFFFFF;" d="M558.792,1427.708c0-1.976-1.604-3.576-3.578-3.576c-1.976,0-3.576,1.601-3.576,3.576
		c0,1.977,1.601,3.578,3.576,3.578C557.188,1431.286,558.792,1429.685,558.792,1427.708"/>
	<path style="fill:#FFFFFF;" d="M774.415,955.846c0-0.147-0.113-0.264-0.26-0.264c-0.143,0-0.26,0.117-0.26,0.264
		c0,0.143,0.117,0.26,0.26,0.26C774.302,956.105,774.415,955.988,774.415,955.846"/>
	<path style="fill:#FFFFFF;" d="M112.111,831.34c0-2.468-2-4.471-4.471-4.471c-2.467,0-4.471,2.003-4.471,4.471
		c0,2.47,2.004,4.47,4.471,4.47C110.111,835.81,112.111,833.81,112.111,831.34"/>
	<path style="fill:#FFFFFF;" d="M185.638,1124.509c0-2.341-1.898-4.241-4.241-4.241c-2.341,0-4.238,1.9-4.238,4.241
		s1.898,4.238,4.238,4.238C183.74,1128.747,185.638,1126.85,185.638,1124.509"/>
	<path style="fill:#FFFFFF;" d="M744.825,849.655c0-1.976-1.604-3.576-3.578-3.576s-3.576,1.601-3.576,3.576
		c0,1.977,1.602,3.578,3.576,3.578S744.825,851.633,744.825,849.655"/>
	<path style="fill:#FFFFFF;" d="M883.08,1031.248c0-0.146-0.113-0.264-0.26-0.264c-0.143,0-0.26,0.117-0.26,0.264
		c0,0.143,0.117,0.26,0.26,0.26C882.967,1031.508,883.08,1031.391,883.08,1031.248"/>
	<path style="fill:#FFFFFF;" d="M1033.263,1239.736c0-2.468-2-4.471-4.471-4.471c-2.467,0-4.471,2.003-4.471,4.471
		c0,2.47,2.004,4.47,4.471,4.47C1031.263,1244.206,1033.263,1242.206,1033.263,1239.736"/>
	<path style="fill:#FFFFFF;" d="M295.035,1162.387c0-2.341-1.898-4.241-4.241-4.241c-2.341,0-4.238,1.9-4.238,4.241
		s1.897,4.238,4.238,4.238C293.136,1166.625,295.035,1164.728,295.035,1162.387"/>
	<path style="fill:#FFFFFF;" d="M907.37,1475.109c0-2.325-1.887-4.214-4.213-4.214c-2.328,0-4.213,1.889-4.213,4.214
		c0,2.328,1.885,4.214,4.213,4.214C905.483,1479.323,907.37,1477.438,907.37,1475.109"/>
	<path style="fill:#FFFFFF;" d="M830.828,1297.63c0-2.514-2.037-4.55-4.551-4.55c-2.514,0-4.551,2.036-4.551,4.55
		c0,2.514,2.037,4.551,4.551,4.551C828.791,1302.181,830.828,1300.143,830.828,1297.63"/>
	<path style="fill:#FFFFFF;" d="M64.911,908.967c0-2.805-2.271-5.075-5.077-5.075c-2.805,0-5.073,2.271-5.073,5.075
		s2.269,5.076,5.073,5.076C62.639,914.043,64.911,911.771,64.911,908.967"/>
	<path style="fill:#FFFFFF;" d="M214.232,1391.969c0-2.059-1.672-3.73-3.73-3.73c-2.062,0-3.73,1.672-3.73,3.73
		c0,2.062,1.668,3.732,3.73,3.732C212.561,1395.7,214.232,1394.031,214.232,1391.969"/>
	<path style="fill:#FFFFFF;" d="M323.251,1448.681c0-1.976-1.604-3.576-3.578-3.576c-1.976,0-3.576,1.601-3.576,3.576
		c0,1.978,1.601,3.578,3.576,3.578C321.647,1452.259,323.251,1450.658,323.251,1448.681"/>
	<path style="fill:#FFFFFF;" d="M142.502,1357.623c0-1.219-0.986-2.205-2.205-2.205c-1.218,0-2.204,0.986-2.204,2.205
		c0,1.219,0.986,2.205,2.204,2.205C141.516,1359.828,142.502,1358.842,142.502,1357.623"/>
	<path style="fill:#FFFFFF;" d="M595.044,1222.809c0-2.514-2.037-4.55-4.551-4.55c-2.513,0-4.551,2.036-4.551,4.55
		s2.038,4.551,4.551,4.551C593.007,1227.359,595.044,1225.322,595.044,1222.809"/>
	<path style="fill:#FFFFFF;" d="M188.314,1506.954c0-2.16-1.747-3.91-3.909-3.91c-2.161,0-3.908,1.75-3.908,3.91
		c0,2.156,1.747,3.909,3.908,3.909C186.567,1510.863,188.314,1509.11,188.314,1506.954"/>
	<path style="fill:#FFFFFF;" d="M258.042,1136.546c0-0.976-0.787-1.764-1.762-1.764c-0.973,0-1.762,0.788-1.762,1.764
		c0,0.972,0.789,1.76,1.762,1.76C257.254,1138.306,258.042,1137.518,258.042,1136.546"/>
	<path style="fill:#FFFFFF;" d="M422.359,1133.946c0-2.059-1.672-3.73-3.73-3.73c-2.062,0-3.73,1.672-3.73,3.73
		c0,2.062,1.668,3.731,3.73,3.731C420.688,1137.678,422.359,1136.009,422.359,1133.946"/>
	<path style="fill:#FFFFFF;" d="M1169.771,616.353c0-2.468-2-4.471-4.471-4.471c-2.467,0-4.471,2.003-4.471,4.471
		c0,2.47,2.004,4.47,4.471,4.47C1167.771,620.823,1169.771,618.823,1169.771,616.353"/>
	<path style="fill:#FFFFFF;" d="M544.351,1128.219c0-2.059-1.672-3.73-3.73-3.73c-2.062,0-3.731,1.672-3.731,3.73
		c0,2.062,1.668,3.732,3.731,3.732C542.679,1131.95,544.351,1130.281,544.351,1128.219"/>
	<path style="fill:#FFFFFF;" d="M233.928,937.289c0-3.113-2.521-5.641-5.638-5.641c-3.113,0-5.635,2.527-5.635,5.641
		c0,3.115,2.521,5.637,5.635,5.637C231.406,942.926,233.928,940.404,233.928,937.289"/>
	<path style="fill:#FFFFFF;" d="M871.423,1015.142c0-2.325-1.887-4.214-4.213-4.214c-2.328,0-4.213,1.889-4.213,4.214
		c0,2.328,1.885,4.214,4.213,4.214C869.536,1019.355,871.423,1017.47,871.423,1015.142"/>
	<path style="fill:#FFFFFF;" d="M1104.442,898.196c0-2.514-2.037-4.55-4.551-4.55s-4.551,2.036-4.551,4.55
		c0,2.514,2.037,4.551,4.551,4.551S1104.442,900.71,1104.442,898.196"/>
	<path style="fill:#FFFFFF;" d="M287.965,538.714c0-2.514-2.037-4.55-4.551-4.55c-2.514,0-4.551,2.036-4.551,4.55
		c0,2.514,2.037,4.551,4.551,4.551C285.928,543.265,287.965,541.227,287.965,538.714"/>
	<path style="fill:#FFFFFF;" d="M41.665,794.739c0-2.468-2-4.471-4.471-4.471c-2.467,0-4.471,2.003-4.471,4.471
		c0,2.47,2.004,4.47,4.471,4.47C39.665,799.209,41.665,797.209,41.665,794.739"/>
	<path style="fill:#FFFFFF;" d="M947.513,662.959c0-2.468-2-4.471-4.471-4.471c-2.467,0-4.471,2.003-4.471,4.471
		c0,2.47,2.004,4.47,4.471,4.47C945.513,667.429,947.513,665.429,947.513,662.959"/>
	<path style="fill:#FFFFFF;" d="M501.989,667.429c0-2.514-2.037-4.55-4.551-4.55c-2.513,0-4.551,2.036-4.551,4.55
		c0,2.514,2.038,4.551,4.551,4.551C499.952,671.979,501.989,669.942,501.989,667.429"/>
	<path style="fill:#FFFFFF;" d="M367.653,918.702c0-2.468-2-4.471-4.471-4.471c-2.467,0-4.471,2.003-4.471,4.471
		c0,2.47,2.004,4.47,4.471,4.47C365.653,923.172,367.653,921.172,367.653,918.702"/>
	<path style="fill:#FFFFFF;" d="M193.311,777.626c0-2.805-2.271-5.075-5.077-5.075c-2.805,0-5.073,2.271-5.073,5.075
		s2.269,5.076,5.073,5.076C191.04,782.702,193.311,780.431,193.311,777.626"/>
	<path style="fill:#FFFFFF;" d="M378.531,635.903c0-2.325-1.887-4.214-4.213-4.214c-2.329,0-4.214,1.889-4.214,4.214
		c0,2.328,1.885,4.214,4.214,4.214C376.644,640.117,378.531,638.231,378.531,635.903"/>
	<path style="fill:#FFFFFF;" d="M563.998,853.232c0-2.873-2.332-5.204-5.207-5.204c-2.873,0-5.205,2.331-5.205,5.204
		c0,2.876,2.332,5.206,5.205,5.206C561.665,858.438,563.998,856.108,563.998,853.232"/>
	<path style="fill:#FFFFFF;" d="M377.308,761.124c0-2.059-1.672-3.73-3.73-3.73c-2.062,0-3.73,1.672-3.73,3.73
		c0,2.062,1.668,3.732,3.73,3.732C375.636,764.855,377.308,763.186,377.308,761.124"/>
	<path style="fill:#FFFFFF;" d="M502.786,370.893c0-1.976-1.603-3.576-3.578-3.576c-1.976,0-3.576,1.601-3.576,3.576
		c0,1.978,1.601,3.578,3.576,3.578C501.182,374.472,502.786,372.871,502.786,370.893"/>
	<path style="fill:#FFFFFF;" d="M442.248,164.343c0-0.617-0.502-1.121-1.121-1.121c-0.619,0-1.121,0.504-1.121,1.121
		c0,0.619,0.502,1.123,1.121,1.123C441.746,165.466,442.248,164.962,442.248,164.343"/>
	<path style="fill:#FFFFFF;" d="M661.727,419.767c0-1.976-1.603-3.576-3.578-3.576c-1.976,0-3.576,1.601-3.576,3.576
		c0,1.978,1.6,3.578,3.576,3.578C660.124,423.345,661.727,421.744,661.727,419.767"/>
	<path style="fill:#FFFFFF;" d="M836.963,92.525c0-0.926-0.75-1.678-1.676-1.678c-0.926,0-1.678,0.752-1.678,1.678
		c0,0.922,0.752,1.676,1.678,1.676C836.213,94.201,836.963,93.447,836.963,92.525"/>
	<path style="fill:#FFFFFF;" d="M238.297,123.097c0-2.341-1.898-4.241-4.241-4.241c-2.341,0-4.238,1.9-4.238,4.241
		s1.897,4.238,4.238,4.238C236.398,127.335,238.297,125.437,238.297,123.097"/>
	<path style="fill:#FFFFFF;" d="M830.623,633.789c0-2.325-1.887-4.214-4.213-4.214c-2.33,0-4.215,1.889-4.215,4.214
		c0,2.328,1.885,4.214,4.215,4.214C828.736,638.003,830.623,636.118,830.623,633.789"/>
	<path style="fill:#FFFFFF;" d="M278.859,489.856c0-2.16-1.747-3.91-3.909-3.91c-2.161,0-3.908,1.75-3.908,3.91
		c0,2.156,1.747,3.909,3.908,3.909C277.112,493.766,278.859,492.013,278.859,489.856"/>
	<path style="fill:#FFFFFF;" d="M490.017,99.016c0-2.514-2.037-4.55-4.551-4.55c-2.513,0-4.551,2.036-4.551,4.55
		s2.038,4.551,4.551,4.551C487.98,103.566,490.017,101.529,490.017,99.016"/>
	<path style="fill:#FFFFFF;" d="M189.131,419.768c0-2.325-1.887-4.214-4.213-4.214c-2.329,0-4.214,1.889-4.214,4.214
		c0,2.328,1.885,4.214,4.214,4.214C187.244,423.981,189.131,422.096,189.131,419.768"/>
	<path style="fill:#FFFFFF;" d="M451.262,444.869c0-1.976-1.603-3.576-3.578-3.576c-1.975,0-3.576,1.601-3.576,3.576
		c0,1.978,1.602,3.578,3.576,3.578C449.658,448.447,451.262,446.847,451.262,444.869"/>
	<path style="fill:#FFFFFF;" d="M60.114,85.572c0-2.341-1.898-4.241-4.241-4.241c-2.341,0-4.238,1.9-4.238,4.241
		c0,2.341,1.897,4.238,4.238,4.238C58.215,89.81,60.114,87.913,60.114,85.572"/>
	<path style="fill:#FFFFFF;" d="M623.086,167.273c0-2.873-2.332-5.204-5.207-5.204c-2.873,0-5.205,2.331-5.205,5.204
		c0,2.876,2.332,5.206,5.205,5.206C620.754,172.479,623.086,170.149,623.086,167.273"/>
	<path style="fill:#FFFFFF;" d="M620.46,376.331c0-2.325-1.887-4.214-4.213-4.214c-2.328,0-4.213,1.889-4.213,4.214
		c0,2.328,1.885,4.214,4.213,4.214C618.573,380.545,620.46,378.66,620.46,376.331"/>
	<path style="fill:#FFFFFF;" d="M373.933,275.182c0-2.468-2-4.471-4.471-4.471c-2.467,0-4.471,2.003-4.471,4.471
		c0,2.47,2.004,4.47,4.471,4.47C371.933,279.651,373.933,277.651,373.933,275.182"/>
	<path style="fill:#FFFFFF;" d="M672.542,507.715c0-1.976-1.604-3.576-3.578-3.576s-3.576,1.6-3.576,3.576
		c0,1.978,1.602,3.578,3.576,3.578S672.542,509.693,672.542,507.715"/>
	<path style="fill:#FFFFFF;" d="M592.088,470.191c0-2.059-1.672-3.73-3.731-3.73c-2.062,0-3.73,1.672-3.73,3.73
		c0,2.062,1.668,3.731,3.73,3.731C590.416,473.923,592.088,472.254,592.088,470.191"/>
	<path style="fill:#FFFFFF;" d="M448.62,1577.422c0-2.059-1.672-3.731-3.73-3.731c-2.062,0-3.73,1.672-3.73,3.731
		c0,2.062,1.668,3.731,3.73,3.731C446.948,1581.153,448.62,1579.484,448.62,1577.422"/>
	<path style="fill:#FFFFFF;" d="M584.796,1723.645c0-2.514-2.037-4.55-4.551-4.55c-2.513,0-4.551,2.036-4.551,4.55
		c0,2.514,2.038,4.551,4.551,4.551C582.759,1728.196,584.796,1726.159,584.796,1723.645"/>
	<path style="fill:#FFFFFF;" d="M378.531,1714.7c0-2.325-1.887-4.214-4.213-4.214c-2.329,0-4.214,1.889-4.214,4.214
		c0,2.328,1.885,4.214,4.214,4.214C376.644,1718.914,378.531,1717.028,378.531,1714.7"/>
	<path style="fill:#FFFFFF;" d="M629.445,1561.19c0-1.975-1.604-3.576-3.578-3.576s-3.576,1.601-3.576,3.576
		c0,1.978,1.602,3.578,3.576,3.578S629.445,1563.168,629.445,1561.19"/>
	<path style="fill:#FFFFFF;" d="M592.088,1548.988c0-2.059-1.672-3.73-3.731-3.73c-2.062,0-3.73,1.672-3.73,3.73
		c0,2.062,1.668,3.731,3.73,3.731C590.416,1552.72,592.088,1551.051,592.088,1548.988"/>
	<path style="fill:#FFFFFF;" d="M132.308,450.14c0-2.16-1.747-3.91-3.909-3.91c-2.161,0-3.908,1.75-3.908,3.91
		c0,2.156,1.747,3.909,3.908,3.909C130.561,454.049,132.308,452.296,132.308,450.14"/>
</g>
<g id="Ebene_1">
</g>
</svg>
