<?xml version="1.0" encoding="utf-8"?>
<!-- Generator: Adobe Illustrator 18.0.0, SVG Export Plug-In . SVG Version: 6.00 Build 0)  -->
<!DOCTYPE svg PUBLIC "-//W3C//DTD SVG 1.1//EN" "http://www.w3.org/Graphics/SVG/1.1/DTD/svg11.dtd">
<svg version="1.1" id="schnee_x5F_klein" xmlns="http://www.w3.org/2000/svg" xmlns:xlink="http://www.w3.org/1999/xlink" x="0px"
	 y="0px" viewBox="0 0 1200 1702.1" enable-background="new 0 0 1200 1702.1" xml:space="preserve">
<path fill="#FFFFFF" d="M280,788.8c0-0.7-0.6-1.2-1.2-1.2c-0.7,0-1.2,0.6-1.2,1.2c0,0.7,0.6,1.2,1.2,1.2
	C279.4,790,280,789.4,280,788.8"/>
<path fill="#FFFFFF" d="M732.1,867.5c0-0.9-0.7-1.7-1.7-1.7c-0.9,0-1.7,0.8-1.7,1.7c0,0.9,0.8,1.7,1.7,1.7
	C731.4,869.2,732.1,868.5,732.1,867.5"/>
<path fill="#FFFFFF" d="M722.2,729.5c0-0.1-0.1-0.3-0.3-0.3c-0.1,0-0.3,0.1-0.3,0.3c0,0.1,0.1,0.3,0.3,0.3
	C722.1,729.7,722.2,729.6,722.2,729.5"/>
<path fill="#FFFFFF" d="M373.8,899.8c0-1.4-1.1-2.5-2.5-2.5c-1.4,0-2.5,1.1-2.5,2.5c0,1.4,1.1,2.5,2.5,2.5
	C372.7,902.3,373.8,901.2,373.8,899.8"/>
<path fill="#FFFFFF" d="M525,1430.1c0-1.1-0.9-2-2-2c-1.1,0-2,0.9-2,2c0,1.1,0.9,2,2,2C524.1,1432.1,525,1431.2,525,1430.1"/>
<path fill="#FFFFFF" d="M919.8,681.7c0-0.5-0.4-0.8-0.8-0.8c-0.5,0-0.8,0.4-0.8,0.8c0,0.5,0.4,0.8,0.8,0.8
	C919.5,682.6,919.8,682.2,919.8,681.7"/>
<path fill="#FFFFFF" d="M415,615.8c0-0.6-0.5-1.1-1.1-1.1c-0.6,0-1.1,0.5-1.1,1.1c0,0.6,0.5,1.1,1.1,1.1
	C414.5,616.9,415,616.4,415,615.8"/>
<path fill="#FFFFFF" d="M97.2,1539c0-0.6-0.5-1.1-1.1-1.1c-0.6,0-1.1,0.5-1.1,1.1c0,0.6,0.5,1.1,1.1,1.1
	C96.7,1540.2,97.2,1539.7,97.2,1539"/>
<path fill="#FFFFFF" d="M731,757.6c0-0.2-0.1-0.3-0.3-0.3c-0.2,0-0.3,0.1-0.3,0.3c0,0.2,0.1,0.3,0.3,0.3
	C730.9,757.9,731,757.8,731,757.6"/>
<path fill="#FFFFFF" d="M757.2,1393.6c0-0.3-0.2-0.5-0.5-0.5c-0.3,0-0.5,0.2-0.5,0.5c0,0.3,0.2,0.5,0.5,0.5
	C756.9,1394.1,757.2,1393.9,757.2,1393.6"/>
<path fill="#FFFFFF" d="M363.4,817.4c0-0.8-0.7-1.5-1.5-1.5c-0.8,0-1.5,0.7-1.5,1.5c0,0.8,0.7,1.5,1.5,1.5
	C362.7,818.8,363.4,818.2,363.4,817.4"/>
<path fill="#FFFFFF" d="M1091.3,1316.6c0-1-0.8-1.8-1.8-1.8c-1,0-1.8,0.8-1.8,1.8s0.8,1.8,1.8,1.8
	C1090.5,1318.4,1091.3,1317.6,1091.3,1316.6"/>
<path fill="#FFFFFF" d="M964.9,840.1c0-1-0.8-1.8-1.8-1.8c-1,0-1.8,0.8-1.8,1.8c0,1,0.8,1.8,1.8,1.8
	C964.1,841.8,964.9,841,964.9,840.1"/>
<path fill="#FFFFFF" d="M1002.3,1148.6c0-0.9-0.7-1.7-1.7-1.7c-0.9,0-1.7,0.8-1.7,1.7c0,0.9,0.8,1.7,1.7,1.7
	C1001.6,1150.3,1002.3,1149.6,1002.3,1148.6"/>
<path fill="#FFFFFF" d="M909.7,1221.3c0-1-0.8-1.8-1.8-1.8c-1,0-1.8,0.8-1.8,1.8c0,1,0.8,1.8,1.8,1.8
	C908.9,1223.1,909.7,1222.3,909.7,1221.3"/>
<path fill="#FFFFFF" d="M159.8,1113.4c0-1.2-1-2.2-2.2-2.2c-1.2,0-2.2,1-2.2,2.2c0,1.2,1,2.2,2.2,2.2
	C158.8,1115.6,159.8,1114.6,159.8,1113.4"/>
<path fill="#FFFFFF" d="M412.5,1099.5c0-0.7-0.6-1.3-1.3-1.3c-0.7,0-1.3,0.6-1.3,1.3c0,0.7,0.6,1.3,1.3,1.3
	C411.9,1100.8,412.5,1100.2,412.5,1099.5"/>
<path fill="#FFFFFF" d="M370.8,1524.1c0-1.3-1.1-2.4-2.4-2.4c-1.3,0-2.4,1.1-2.4,2.4c0,1.3,1.1,2.4,2.4,2.4
	C369.7,1526.6,370.8,1525.5,370.8,1524.1"/>
<path fill="#FFFFFF" d="M410.1,1267.6c0-1.1-0.9-2-2-2c-1.1,0-2,0.9-2,2s0.9,2,2,2C409.2,1269.6,410.1,1268.7,410.1,1267.6"/>
<path fill="#FFFFFF" d="M339,1147c0-0.6-0.5-1.2-1.2-1.2c-0.6,0-1.2,0.5-1.2,1.2c0,0.6,0.5,1.2,1.2,1.2
	C338.5,1148.1,339,1147.6,339,1147"/>
<path fill="#FFFFFF" d="M430.7,1137.1c0-0.5-0.4-0.8-0.8-0.8c-0.5,0-0.8,0.4-0.8,0.8c0,0.5,0.4,0.8,0.8,0.8
	C430.4,1137.9,430.7,1137.5,430.7,1137.1"/>
<path fill="#FFFFFF" d="M771,916c0-0.9-0.8-1.7-1.7-1.7c-0.9,0-1.7,0.8-1.7,1.7c0,0.9,0.8,1.7,1.7,1.7
	C770.2,917.6,771,916.9,771,916"/>
<path fill="#FFFFFF" d="M385.9,511.8c0-0.8-0.7-1.5-1.5-1.5c-0.8,0-1.5,0.7-1.5,1.5c0,0.8,0.7,1.5,1.5,1.5
	C385.2,513.3,385.9,512.6,385.9,511.8"/>
<path fill="#FFFFFF" d="M128.8,714.4c0-1.2-1-2.2-2.2-2.2c-1.2,0-2.2,1-2.2,2.2c0,1.2,1,2.2,2.2,2.2
	C127.8,716.6,128.8,715.6,128.8,714.4"/>
<path fill="#FFFFFF" d="M346.2,668.9c0-0.7-0.6-1.3-1.3-1.3c-0.7,0-1.3,0.6-1.3,1.3c0,0.7,0.6,1.3,1.3,1.3
	C345.6,670.3,346.2,669.7,346.2,668.9"/>
<path fill="#FFFFFF" d="M336.6,706.5c0-0.6-0.5-1.2-1.2-1.2c-0.6,0-1.2,0.5-1.2,1.2c0,0.6,0.5,1.2,1.2,1.2
	C336.1,707.7,336.6,707.2,336.6,706.5"/>
<path fill="#FFFFFF" d="M152.5,525.9c0-0.7-0.6-1.3-1.3-1.3c-0.7,0-1.3,0.6-1.3,1.3c0,0.7,0.6,1.3,1.3,1.3
	C151.9,527.2,152.5,526.6,152.5,525.9"/>
<path fill="#FFFFFF" d="M522,548.9c0-0.7-0.6-1.2-1.2-1.2c-0.7,0-1.2,0.6-1.2,1.2c0,0.7,0.6,1.2,1.2,1.2
	C521.4,550.2,522,549.6,522,548.9"/>
<path fill="#FFFFFF" d="M903,489.8c0-0.9-0.8-1.7-1.7-1.7c-0.9,0-1.7,0.8-1.7,1.7c0,0.9,0.8,1.7,1.7,1.7
	C902.2,491.4,903,490.7,903,489.8"/>
<path fill="#FFFFFF" d="M343.8,491.4c0-0.7-0.6-1.2-1.2-1.2c-0.7,0-1.2,0.6-1.2,1.2c0,0.7,0.6,1.2,1.2,1.2
	C343.3,492.6,343.8,492.1,343.8,491.4"/>
<path fill="#FFFFFF" d="M70.6,722.2c0-0.6-0.5-1.1-1.1-1.1c-0.6,0-1.1,0.5-1.1,1.1c0,0.6,0.5,1.1,1.1,1.1
	C70.1,723.4,70.6,722.9,70.6,722.2"/>
<path fill="#FFFFFF" d="M94.6,568.4c0-0.8-0.7-1.5-1.5-1.5c-0.8,0-1.5,0.7-1.5,1.5c0,0.8,0.7,1.5,1.5,1.5
	C93.9,569.9,94.6,569.2,94.6,568.4"/>
<path fill="#FFFFFF" d="M52.5,548c0-0.7-0.6-1.2-1.2-1.2c-0.7,0-1.2,0.6-1.2,1.2c0,0.7,0.6,1.2,1.2,1.2
	C52,549.2,52.5,548.7,52.5,548"/>
<path fill="#FFFFFF" d="M484.1,432.6c0-0.6-0.5-1.1-1.1-1.1c-0.6,0-1.1,0.5-1.1,1.1c0,0.6,0.5,1.1,1.1,1.1
	C483.6,433.7,484.1,433.2,484.1,432.6"/>
<path fill="#FFFFFF" d="M1056.6,424.8c0-0.5-0.4-0.8-0.8-0.8c-0.5,0-0.8,0.4-0.8,0.8c0,0.5,0.4,0.8,0.8,0.8
	C1056.3,425.6,1056.6,425.3,1056.6,424.8"/>
<path fill="#FFFFFF" d="M498.3,265.4c0-0.6-0.5-1.1-1.1-1.1c-0.6,0-1.1,0.5-1.1,1.1c0,0.6,0.5,1.1,1.1,1.1
	C497.8,266.5,498.3,266,498.3,265.4"/>
<path fill="#FFFFFF" d="M707.1,402.1c0-0.6-0.5-1.1-1.1-1.1c-0.6,0-1.1,0.5-1.1,1.1c0,0.6,0.5,1.1,1.1,1.1
	C706.6,403.2,707.1,402.7,707.1,402.1"/>
<path fill="#FFFFFF" d="M704.8,330.3c0-1-0.8-1.8-1.8-1.8c-1,0-1.8,0.8-1.8,1.8c0,1,0.8,1.8,1.8,1.8
	C704,332.1,704.8,331.3,704.8,330.3"/>
<path fill="#FFFFFF" d="M610.9,309.9c0-0.6-0.5-1.1-1.1-1.1c-0.6,0-1.1,0.5-1.1,1.1c0,0.6,0.5,1.1,1.1,1.1
	C610.4,311.1,610.9,310.6,610.9,309.9"/>
<path fill="#FFFFFF" d="M564.8,411.4c0-0.7-0.6-1.3-1.3-1.3c-0.7,0-1.3,0.6-1.3,1.3c0,0.7,0.6,1.3,1.3,1.3
	C564.2,412.7,564.8,412.1,564.8,411.4"/>
<path fill="#FFFFFF" d="M126.8,304.7c0-0.6-0.5-1.1-1.1-1.1c-0.6,0-1.1,0.5-1.1,1.1c0,0.6,0.5,1.1,1.1,1.1
	C126.3,305.9,126.8,305.4,126.8,304.7"/>
<path fill="#FFFFFF" d="M878.5,387.3c0-0.5-0.4-0.8-0.8-0.8c-0.5,0-0.8,0.4-0.8,0.8c0,0.5,0.4,0.8,0.8,0.8
	C878.1,388.1,878.5,387.7,878.5,387.3"/>
<path fill="#FFFFFF" d="M987.1,462.7c0-0.5-0.4-0.8-0.8-0.8c-0.5,0-0.8,0.4-0.8,0.8c0,0.5,0.4,0.8,0.8,0.8
	C986.7,463.5,987.1,463.1,987.1,462.7"/>
<path fill="#FFFFFF" d="M528.9,364.6c0-0.6-0.5-1.1-1.1-1.1c-0.6,0-1.1,0.5-1.1,1.1c0,0.6,0.5,1.1,1.1,1.1
	C528.4,365.7,528.9,365.2,528.9,364.6"/>
<path fill="#FFFFFF" d="M340.2,317.7c0-0.7-0.6-1.3-1.3-1.3c-0.7,0-1.3,0.6-1.3,1.3s0.6,1.3,1.3,1.3
	C339.6,319,340.2,318.4,340.2,317.7"/>
<path fill="#FFFFFF" d="M502.9,460.8c0-0.6-0.5-1.1-1.1-1.1c-0.6,0-1.1,0.5-1.1,1.1c0,0.6,0.5,1.1,1.1,1.1
	C502.4,461.9,502.9,461.4,502.9,460.8"/>
<path fill="#FFFFFF" d="M907.6,402.2c0-0.6-0.5-1.1-1.1-1.1c-0.6,0-1.1,0.5-1.1,1.1c0,0.6,0.5,1.1,1.1,1.1
	C907.1,403.4,907.6,402.9,907.6,402.2"/>
<path fill="#FFFFFF" d="M938.3,264.3c0-0.6-0.5-1.1-1.1-1.1c-0.6,0-1.1,0.5-1.1,1.1c0,0.6,0.5,1.1,1.1,1.1
	C937.8,265.4,938.3,264.9,938.3,264.3"/>
<path fill="#FFFFFF" d="M1130.6,371.7c0-0.6-0.5-1.1-1.1-1.1s-1.1,0.5-1.1,1.1c0,0.6,0.5,1.1,1.1,1.1S1130.6,372.4,1130.6,371.7"/>
<path fill="#FFFFFF" d="M1068.5,324.6c0-1-0.8-1.8-1.8-1.8c-1,0-1.8,0.8-1.8,1.8c0,1,0.8,1.8,1.8,1.8
	C1067.8,326.4,1068.5,325.6,1068.5,324.6"/>
<path fill="#FFFFFF" d="M844.3,470.3c0-1.2-1-2.2-2.2-2.2c-1.2,0-2.2,1-2.2,2.2c0,1.2,1,2.2,2.2,2.2
	C843.3,472.5,844.3,471.5,844.3,470.3"/>
<path fill="#FFFFFF" d="M1034.4,279.6c0-0.6-0.5-1.1-1.1-1.1s-1.1,0.5-1.1,1.1c0,0.6,0.5,1.1,1.1,1.1S1034.4,280.2,1034.4,279.6"/>
<path fill="#FFFFFF" d="M988.3,381.1c0-0.7-0.6-1.3-1.3-1.3c-0.7,0-1.3,0.6-1.3,1.3c0,0.7,0.6,1.3,1.3,1.3
	C987.7,382.4,988.3,381.8,988.3,381.1"/>
<path fill="#FFFFFF" d="M1073.5,454.8c0-0.5-0.4-0.8-0.8-0.8c-0.5,0-0.8,0.4-0.8,0.8c0,0.5,0.4,0.8,0.8,0.8
	C1073.1,455.6,1073.5,455.2,1073.5,454.8"/>
<path fill="#FFFFFF" d="M952.4,334.2c0-0.6-0.5-1.1-1.1-1.1c-0.6,0-1.1,0.5-1.1,1.1c0,0.6,0.5,1.1,1.1,1.1
	C951.9,335.3,952.4,334.8,952.4,334.2"/>
<path fill="#FFFFFF" d="M806.7,419.9c0-0.6-0.5-1.1-1.1-1.1c-0.6,0-1.1,0.5-1.1,1.1c0,0.6,0.5,1.1,1.1,1.1
	C806.2,421.1,806.7,420.6,806.7,419.9"/>
<path fill="#FFFFFF" d="M340,406c0-0.7-0.6-1.3-1.3-1.3c-0.7,0-1.3,0.6-1.3,1.3c0,0.7,0.6,1.3,1.3,1.3
	C339.4,407.4,340,406.8,340,406"/>
<path fill="#FFFFFF" d="M2.7,500.5c0-0.7-0.6-1.2-1.2-1.2c-0.7,0-1.2,0.6-1.2,1.2c0,0.7,0.6,1.2,1.2,1.2
	C2.2,501.8,2.7,501.2,2.7,500.5"/>
<path fill="#FFFFFF" d="M364.5,706.5c0-0.5-0.4-0.8-0.8-0.8c-0.5,0-0.8,0.4-0.8,0.8c0,0.5,0.4,0.8,0.8,0.8
	C364.1,707.4,364.5,707,364.5,706.5"/>
<path fill="#FFFFFF" d="M666.6,1537.1c0-0.5-0.4-0.8-0.8-0.8c-0.5,0-0.8,0.4-0.8,0.8c0,0.5,0.4,0.8,0.8,0.8
	C666.2,1537.9,666.6,1537.6,666.6,1537.1"/>
<path fill="#FFFFFF" d="M938.9,205.1c0-0.5-0.4-0.8-0.8-0.8c-0.5,0-0.8,0.4-0.8,0.8c0,0.5,0.4,0.8,0.8,0.8
	C938.5,205.9,938.9,205.6,938.9,205.1"/>
<path fill="#FFFFFF" d="M1169.4,169.5c0-0.5-0.4-0.8-0.8-0.8c-0.5,0-0.8,0.4-0.8,0.8c0,0.5,0.4,0.8,0.8,0.8
	C1169.1,170.3,1169.4,170,1169.4,169.5"/>
<path fill="#FFFFFF" d="M187.7,80.1c0-0.7-0.6-1.2-1.2-1.2c-0.7,0-1.2,0.6-1.2,1.2c0,0.7,0.6,1.2,1.2,1.2
	C187.1,81.3,187.7,80.8,187.7,80.1"/>
<path fill="#FFFFFF" d="M424.6,56.2c0-1-0.8-1.8-1.8-1.8c-1,0-1.8,0.8-1.8,1.8c0,1,0.8,1.8,1.8,1.8C423.9,58,424.6,57.2,424.6,56.2"
	/>
<path fill="#FFFFFF" d="M142.5,186.7c0-1.2-1-2.2-2.2-2.2c-1.2,0-2.2,1-2.2,2.2c0,1.2,1,2.2,2.2,2.2
	C141.5,188.9,142.5,188,142.5,186.7"/>
<path fill="#FFFFFF" d="M416.4,176.7c0-0.6-0.5-1.1-1.1-1.1c-0.6,0-1.1,0.5-1.1,1.1c0,0.6,0.5,1.1,1.1,1.1
	C415.9,177.8,416.4,177.3,416.4,176.7"/>
<path fill="#FFFFFF" d="M506.1,126.3c0-0.6-0.5-1.1-1.1-1.1c-0.6,0-1.1,0.5-1.1,1.1c0,0.6,0.5,1.1,1.1,1.1
	C505.6,127.4,506.1,126.9,506.1,126.3"/>
<path fill="#FFFFFF" d="M838.2,73.8c0-0.9-0.8-1.7-1.7-1.7c-0.9,0-1.7,0.8-1.7,1.7c0,0.9,0.8,1.7,1.7,1.7
	C837.4,75.5,838.2,74.8,838.2,73.8"/>
<path fill="#FFFFFF" d="M451.3,152.3c0-1.4-1.1-2.5-2.5-2.5c-1.4,0-2.5,1.1-2.5,2.5s1.1,2.5,2.5,2.5
	C450.2,154.8,451.3,153.6,451.3,152.3"/>
<path fill="#FFFFFF" d="M187.6,217.6c0-0.6-0.5-1.1-1.1-1.1c-0.6,0-1.1,0.5-1.1,1.1c0,0.6,0.5,1.1,1.1,1.1
	C187.1,218.7,187.6,218.2,187.6,217.6"/>
<path fill="#FFFFFF" d="M301.9,111.7c0-0.6-0.5-1.1-1.1-1.1c-0.6,0-1.1,0.5-1.1,1.1c0,0.6,0.5,1.1,1.1,1.1
	C301.4,112.8,301.9,112.3,301.9,111.7"/>
<path fill="#FFFFFF" d="M348.5,120c0-1-0.8-1.8-1.8-1.8c-1,0-1.8,0.8-1.8,1.8c0,1,0.8,1.8,1.8,1.8C347.7,121.8,348.5,121,348.5,120"
	/>
<path fill="#FFFFFF" d="M322,201.5c0-0.7-0.6-1.3-1.3-1.3c-0.7,0-1.3,0.6-1.3,1.3c0,0.7,0.6,1.3,1.3,1.3
	C321.4,202.8,322,202.2,322,201.5"/>
<path fill="#FFFFFF" d="M1170.9,52.4c0-0.5-0.4-0.8-0.8-0.8c-0.5,0-0.8,0.4-0.8,0.8c0,0.5,0.4,0.8,0.8,0.8
	C1170.5,53.2,1170.9,52.9,1170.9,52.4"/>
<path fill="#FFFFFF" d="M1128.6,20.8c0-0.5-0.4-0.8-0.8-0.8c-0.5,0-0.8,0.4-0.8,0.8c0,0.5,0.4,0.8,0.8,0.8
	C1128.2,21.6,1128.6,21.2,1128.6,20.8"/>
<path fill="#FFFFFF" d="M1117.6,164.1c0-0.5-0.4-0.8-0.8-0.8c-0.5,0-0.8,0.4-0.8,0.8c0,0.5,0.4,0.8,0.8,0.8
	C1117.2,165,1117.6,164.6,1117.6,164.1"/>
<path fill="#FFFFFF" d="M634.5,23.5c0-0.5-0.4-0.8-0.8-0.8c-0.5,0-0.8,0.4-0.8,0.8c0,0.5,0.4,0.8,0.8,0.8
	C634.1,24.4,634.5,24,634.5,23.5"/>
<path fill="#FFFFFF" d="M571.4,40c0-0.5-0.4-0.8-0.8-0.8c-0.5,0-0.8,0.4-0.8,0.8c0,0.5,0.4,0.8,0.8,0.8
	C571,40.9,571.4,40.5,571.4,40"/>
<path fill="#FFFFFF" d="M261.2,93.5c0-1-0.8-1.8-1.8-1.8c-1,0-1.8,0.8-1.8,1.8c0,1,0.8,1.8,1.8,1.8
	C260.4,95.3,261.2,94.5,261.2,93.5"/>
<path fill="#FFFFFF" d="M756.7-4.5c0-0.9-0.8-1.7-1.7-1.7c-0.9,0-1.7,0.8-1.7,1.7c0,0.9,0.8,1.7,1.7,1.7
	C755.9-2.8,756.7-3.6,756.7-4.5"/>
<path fill="#FFFFFF" d="M60.8,90.7c0-0.7-0.6-1.3-1.3-1.3c-0.7,0-1.3,0.6-1.3,1.3s0.6,1.3,1.3,1.3C60.2,92,60.8,91.4,60.8,90.7"/>
<path fill="#FFFFFF" d="M880.2,69.8c0-0.5-0.4-0.8-0.8-0.8c-0.5,0-0.8,0.4-0.8,0.8c0,0.5,0.4,0.8,0.8,0.8
	C879.8,70.7,880.2,70.3,880.2,69.8"/>
<path fill="#FFFFFF" d="M1045,56c0-0.5-0.4-0.8-0.8-0.8c-0.5,0-0.8,0.4-0.8,0.8c0,0.5,0.4,0.8,0.8,0.8
	C1044.6,56.9,1045,56.5,1045,56"/>
<path fill="#FFFFFF" d="M866.8,18.5c0-0.5-0.4-0.8-0.8-0.8c-0.5,0-0.8,0.4-0.8,0.8c0,0.5,0.4,0.8,0.8,0.8
	C866.4,19.3,866.8,19,866.8,18.5"/>
<path fill="#FFFFFF" d="M839.9,32.3c0-0.1-0.1-0.3-0.3-0.3c-0.1,0-0.3,0.1-0.3,0.3c0,0.1,0.1,0.3,0.3,0.3
	C839.8,32.5,839.9,32.4,839.9,32.3"/>
<path fill="#FFFFFF" d="M848.7,60.4c0-0.2-0.1-0.3-0.3-0.3c-0.2,0-0.3,0.1-0.3,0.3c0,0.2,0.1,0.3,0.3,0.3
	C848.6,60.7,848.7,60.6,848.7,60.4"/>
<path fill="#FFFFFF" d="M731.4,72.2c0-0.8-0.7-1.5-1.5-1.5c-0.8,0-1.5,0.7-1.5,1.5c0,0.8,0.7,1.5,1.5,1.5
	C730.7,73.6,731.4,73,731.4,72.2"/>
<path fill="#FFFFFF" d="M803.3,18.5c0-0.8-0.7-1.5-1.5-1.5c-0.8,0-1.5,0.7-1.5,1.5c0,0.8,0.7,1.5,1.5,1.5
	C802.7,20,803.3,19.3,803.3,18.5"/>
<path fill="#FFFFFF" d="M1042.1,16.3c0-0.1-0.1-0.3-0.3-0.3c-0.1,0-0.3,0.1-0.3,0.3c0,0.1,0.1,0.3,0.3,0.3
	C1042,16.6,1042.1,16.5,1042.1,16.3"/>
<path fill="#FFFFFF" d="M1033.3,40c0-0.2-0.1-0.3-0.3-0.3c-0.2,0-0.3,0.1-0.3,0.3c0,0.2,0.1,0.3,0.3,0.3
	C1033.1,40.3,1033.3,40.2,1033.3,40"/>
<path fill="#FFFFFF" d="M1067.7,19.6c0-0.2-0.1-0.3-0.3-0.3c-0.2,0-0.3,0.1-0.3,0.3c0,0.2,0.1,0.3,0.3,0.3
	C1067.5,19.9,1067.7,19.8,1067.7,19.6"/>
<path fill="#FFFFFF" d="M97.6,4.6c0-0.6-0.5-1.1-1.1-1.1c-0.6,0-1.1,0.5-1.1,1.1c0,0.6,0.5,1.1,1.1,1.1C97.1,5.7,97.6,5.2,97.6,4.6"
	/>
<path fill="#FFFFFF" d="M46.5-5.6c0-1-0.8-1.8-1.8-1.8c-1,0-1.8,0.8-1.8,1.8c0,1,0.8,1.8,1.8,1.8C45.7-3.8,46.5-4.6,46.5-5.6"/>
<path fill="#FFFFFF" d="M61,109.8c0-0.6-0.5-1.1-1.1-1.1c-0.6,0-1.1,0.5-1.1,1.1c0,0.6,0.5,1.1,1.1,1.1
	C60.5,110.9,61,110.4,61,109.8"/>
<path fill="#FFFFFF" d="M78.2,14.1c0-1.4-1.1-2.5-2.5-2.5c-1.4,0-2.5,1.1-2.5,2.5c0,1.4,1.1,2.5,2.5,2.5
	C77.1,16.6,78.2,15.5,78.2,14.1"/>
<path fill="#FFFFFF" d="M22,68.6c0-1-0.8-1.8-1.8-1.8c-1,0-1.8,0.8-1.8,1.8c0,1,0.8,1.8,1.8,1.8C21.2,70.3,22,69.5,22,68.6"/>
<path fill="#FFFFFF" d="M311.5,255c0-0.1-0.1-0.3-0.3-0.3c-0.1,0-0.3,0.1-0.3,0.3c0,0.1,0.1,0.3,0.3,0.3
	C311.4,255.2,311.5,255.1,311.5,255"/>
<path fill="#FFFFFF" d="M320.4,283.1c0-0.2-0.1-0.3-0.3-0.3c-0.2,0-0.3,0.1-0.3,0.3c0,0.2,0.1,0.3,0.3,0.3
	C320.2,283.4,320.4,283.3,320.4,283.1"/>
<path fill="#FFFFFF" d="M298.8,262c0-0.7-0.6-1.3-1.3-1.3c-0.7,0-1.3,0.6-1.3,1.3c0,0.7,0.6,1.3,1.3,1.3
	C298.2,263.3,298.8,262.7,298.8,262"/>
<path fill="#FFFFFF" d="M367.6,233c0-0.1-0.1-0.3-0.3-0.3c-0.1,0-0.3,0.1-0.3,0.3c0,0.1,0.1,0.3,0.3,0.3
	C367.4,233.2,367.6,233.1,367.6,233"/>
<path fill="#FFFFFF" d="M376.4,261.1c0-0.2-0.1-0.3-0.3-0.3c-0.2,0-0.3,0.1-0.3,0.3c0,0.2,0.1,0.3,0.3,0.3
	C376.2,261.5,376.4,261.3,376.4,261.1"/>
<rect x="281.3" y="850.6" opacity="0.1" fill="#FF0000" width="642.3" height="170.4"/>
</svg>
