<?xml version="1.0" encoding="utf-8"?>
<!-- Generator: Adobe Illustrator 18.0.0, SVG Export Plug-In . SVG Version: 6.00 Build 0)  -->
<!DOCTYPE svg PUBLIC "-//W3C//DTD SVG 1.1//EN" "http://www.w3.org/Graphics/SVG/1.1/DTD/svg11.dtd">
<svg version="1.1" id="schnee_x5F_mittel" xmlns="http://www.w3.org/2000/svg" xmlns:xlink="http://www.w3.org/1999/xlink" x="0px"
	 y="0px" viewBox="0 0 1200 1702.1" enable-background="new 0 0 1200 1702.1" xml:space="preserve">
<path fill="#FFFFFF" d="M615.2,778.7c0-2.3-1.9-4.2-4.2-4.2c-2.3,0-4.2,1.9-4.2,4.2c0,2.3,1.9,4.2,4.2,4.2
	C613.3,782.9,615.2,781.1,615.2,778.7"/>
<path fill="#FFFFFF" d="M240,1430.1c0-1.7-1.3-3-3-3c-1.7,0-3,1.3-3,3c0,1.7,1.3,3,3,3C238.6,1433.1,240,1431.7,240,1430.1"/>
<path fill="#FFFFFF" d="M782.8,621.4c0-2.5-2-4.5-4.5-4.5c-2.5,0-4.5,2-4.5,4.5c0,2.5,2,4.5,4.5,4.5
	C780.8,625.8,782.8,623.8,782.8,621.4"/>
<path fill="#FFFFFF" d="M234,882.9c0-2.3-1.9-4.2-4.2-4.2c-2.3,0-4.2,1.9-4.2,4.2c0,2.3,1.9,4.2,4.2,4.2
	C232.1,887.1,234,885.2,234,882.9"/>
<path fill="#FFFFFF" d="M422,708.9c0-2-1.6-3.6-3.6-3.6c-2,0-3.6,1.6-3.6,3.6c0,2,1.6,3.6,3.6,3.6C420.4,712.5,422,710.9,422,708.9"
	/>
<path fill="#FFFFFF" d="M1032.2,1210.1c0-2-1.6-3.6-3.6-3.6c-2,0-3.6,1.6-3.6,3.6c0,2,1.6,3.6,3.6,3.6
	C1030.6,1213.7,1032.2,1212.1,1032.2,1210.1"/>
<path fill="#FFFFFF" d="M782,1118.2c0-1.7-1.4-3-3-3c-1.7,0-3,1.4-3,3c0,1.7,1.4,3,3,3C780.6,1121.2,782,1119.9,782,1118.2"/>
<path fill="#FFFFFF" d="M1069.9,996.7c0-1.7-1.4-3-3-3c-1.7,0-3,1.4-3,3c0,1.7,1.4,3,3,3C1068.5,999.8,1069.9,998.4,1069.9,996.7"/>
<path fill="#FFFFFF" d="M568.7,1652.6c0-1.8-1.5-3.3-3.3-3.3c-1.8,0-3.3,1.5-3.3,3.3s1.5,3.3,3.3,3.3
	C567.2,1655.9,568.7,1654.4,568.7,1652.6"/>
<path fill="#FFFFFF" d="M257,705.3c0-2.1-1.7-3.7-3.7-3.7c-2.1,0-3.7,1.7-3.7,3.7c0,2.1,1.7,3.7,3.7,3.7
	C255.4,709,257,707.4,257,705.3"/>
<path fill="#FFFFFF" d="M662.5,1202.8c0-2.1-1.7-3.7-3.7-3.7c-2.1,0-3.7,1.7-3.7,3.7c0,2.1,1.7,3.7,3.7,3.7
	C660.8,1206.5,662.5,1204.9,662.5,1202.8"/>
<path fill="#FFFFFF" d="M127.2,1352.6c0-2-1.6-3.7-3.7-3.7c-2,0-3.7,1.6-3.7,3.7c0,2,1.6,3.7,3.7,3.7
	C125.6,1356.3,127.2,1354.6,127.2,1352.6"/>
<path fill="#FFFFFF" d="M74.7,836.1c0-2.2-1.7-3.9-3.9-3.9c-2.2,0-3.9,1.8-3.9,3.9c0,2.2,1.7,3.9,3.9,3.9
	C72.9,840.1,74.7,838.3,74.7,836.1"/>
<path fill="#FFFFFF" d="M1128.1,1121.2c0-2.5-2-4.5-4.5-4.5c-2.5,0-4.5,2-4.5,4.5c0,2.5,2,4.5,4.5,4.5
	C1126,1125.7,1128.1,1123.7,1128.1,1121.2"/>
<path fill="#FFFFFF" d="M639.4,940.2c0-1-0.8-1.8-1.8-1.8c-1,0-1.8,0.8-1.8,1.8c0,1,0.8,1.8,1.8,1.8
	C638.7,942,639.4,941.2,639.4,940.2"/>
<path fill="#FFFFFF" d="M545.8,1059.8c0-2.8-2.3-5.1-5.1-5.1c-2.8,0-5.1,2.3-5.1,5.1s2.3,5.1,5.1,5.1
	C543.6,1064.9,545.8,1062.6,545.8,1059.8"/>
<path fill="#FFFFFF" d="M963.1,1558.1c0-1.7-1.4-3-3-3c-1.7,0-3,1.4-3,3c0,1.7,1.4,3,3,3C961.7,1561.1,963.1,1559.7,963.1,1558.1"/>
<path fill="#FFFFFF" d="M434.2,911.4c0-2.5-2-4.5-4.6-4.5c-2.5,0-4.6,2-4.6,4.5c0,2.5,2,4.6,4.6,4.6
	C432.2,916,434.2,913.9,434.2,911.4"/>
<path fill="#FFFFFF" d="M225.5,1252.5c0-2.3-1.9-4.1-4.1-4.1c-2.3,0-4.1,1.9-4.1,4.1c0,2.3,1.9,4.1,4.1,4.1
	C223.7,1256.6,225.5,1254.7,225.5,1252.5"/>
<path fill="#FFFFFF" d="M4.1,1248.3c0-2.3-1.9-4.1-4.1-4.1c-2.3,0-4.1,1.9-4.1,4.1c0,2.3,1.9,4.1,4.1,4.1
	C2.3,1252.5,4.1,1250.6,4.1,1248.3"/>
<path fill="#FFFFFF" d="M276.6,511.4c0-2.3-1.9-4.2-4.2-4.2c-2.3,0-4.2,1.9-4.2,4.2c0,2.3,1.9,4.2,4.2,4.2
	C274.8,515.6,276.6,513.7,276.6,511.4"/>
<path fill="#FFFFFF" d="M508,656.6c0-1.7-1.4-3-3-3c-1.7,0-3,1.4-3,3c0,1.7,1.4,3,3,3C506.7,659.7,508,658.3,508,656.6"/>
<path fill="#FFFFFF" d="M1097,722.2c0-2.5-2-4.5-4.5-4.5c-2.5,0-4.5,2-4.5,4.5c0,2.5,2,4.5,4.5,4.5
	C1095,726.7,1097,724.7,1097,722.2"/>
<path fill="#FFFFFF" d="M598.9,668.3c0-2.3-1.9-4.2-4.2-4.2c-2.3,0-4.2,1.9-4.2,4.2c0,2.3,1.9,4.2,4.2,4.2
	C597,672.5,598.9,670.6,598.9,668.3"/>
<path fill="#FFFFFF" d="M438.7,827.8c0-2.5-2-4.5-4.5-4.5c-2.5,0-4.5,2-4.5,4.5c0,2.5,2,4.5,4.5,4.5
	C436.7,832.2,438.7,830.2,438.7,827.8"/>
<path fill="#FFFFFF" d="M473,500.6c0-2.5-2-4.5-4.6-4.5c-2.5,0-4.6,2-4.6,4.5c0,2.5,2,4.6,4.6,4.6C470.9,505.1,473,503.1,473,500.6"
	/>
<path fill="#FFFFFF" d="M164.1,599.3c0-2.3-1.9-4.2-4.2-4.2c-2.3,0-4.2,1.9-4.2,4.2c0,2.3,1.9,4.2,4.2,4.2
	C162.2,603.5,164.1,601.6,164.1,599.3"/>
<path fill="#FFFFFF" d="M929.6,299.5c0-2.5-2-4.5-4.5-4.5c-2.5,0-4.5,2-4.5,4.5c0,2.5,2,4.5,4.5,4.5
	C927.6,304,929.6,302,929.6,299.5"/>
<path fill="#FFFFFF" d="M1014.6,321.9c0-2.5-2-4.5-4.5-4.5c-2.5,0-4.5,2-4.5,4.5c0,2.5,2,4.5,4.5,4.5
	C1012.6,326.3,1014.6,324.3,1014.6,321.9"/>
<path fill="#FFFFFF" d="M558.8,451.9c0-2-1.6-3.6-3.6-3.6c-2,0-3.6,1.6-3.6,3.6c0,2,1.6,3.6,3.6,3.6
	C557.2,455.5,558.8,453.9,558.8,451.9"/>
<path fill="#FFFFFF" d="M436.4,379.7c0-2.1-1.7-3.7-3.7-3.7c-2.1,0-3.7,1.7-3.7,3.7c0,2.1,1.7,3.7,3.7,3.7
	C434.8,383.4,436.4,381.7,436.4,379.7"/>
<path fill="#FFFFFF" d="M1015.3,388.6c0-2.9-2.3-5.2-5.2-5.2c-2.9,0-5.2,2.3-5.2,5.2c0,2.9,2.3,5.2,5.2,5.2
	C1013,393.8,1015.3,391.5,1015.3,388.6"/>
<path fill="#FFFFFF" d="M1028.3,439.8c0-2.5-2-4.5-4.5-4.5c-2.5,0-4.5,2-4.5,4.5c0,2.5,2,4.5,4.5,4.5
	C1026.3,444.3,1028.3,442.3,1028.3,439.8"/>
<path fill="#FFFFFF" d="M755.6,268.4c0-2.5-2-4.5-4.5-4.5c-2.5,0-4.5,2-4.5,4.5c0,2.5,2,4.5,4.5,4.5
	C753.6,272.9,755.6,270.9,755.6,268.4"/>
<path fill="#FFFFFF" d="M1033.3,264c0-2.5-2-4.5-4.5-4.5c-2.5,0-4.5,2-4.5,4.5c0,2.5,2,4.5,4.5,4.5
	C1031.3,268.4,1033.3,266.4,1033.3,264"/>
<path fill="#FFFFFF" d="M272.7,343.9c0-3.1-2.5-5.6-5.6-5.6c-3.1,0-5.6,2.5-5.6,5.6c0,3.1,2.5,5.6,5.6,5.6
	C270.2,349.6,272.7,347,272.7,343.9"/>
<path fill="#FFFFFF" d="M830.8,321.9c0-2.5-2-4.5-4.6-4.5c-2.5,0-4.6,2-4.6,4.5c0,2.5,2,4.6,4.6,4.6
	C828.8,326.4,830.8,324.4,830.8,321.9"/>
<path fill="#FFFFFF" d="M59.8,287.7c0-2.5-2-4.5-4.5-4.5c-2.5,0-4.5,2-4.5,4.5c0,2.5,2,4.5,4.5,4.5
	C57.8,292.1,59.8,290.1,59.8,287.7"/>
<path fill="#FFFFFF" d="M807,476.5c0-2.1-1.7-3.7-3.7-3.7c-2.1,0-3.7,1.7-3.7,3.7c0,2.1,1.7,3.7,3.7,3.7
	C805.4,480.2,807,478.6,807,476.5"/>
<path fill="#FFFFFF" d="M752.9,384.1c0-2.3-1.9-4.2-4.2-4.2c-2.3,0-4.2,1.9-4.2,4.2c0,2.3,1.9,4.2,4.2,4.2
	C751,388.3,752.9,386.4,752.9,384.1"/>
<path fill="#FFFFFF" d="M212,364c0-1.2-1-2.2-2.2-2.2c-1.2,0-2.2,1-2.2,2.2c0,1.2,1,2.2,2.2,2.2C211,366.2,212,365.2,212,364"/>
<path fill="#FFFFFF" d="M214.2,416.2c0-2.1-1.7-3.7-3.7-3.7c-2.1,0-3.7,1.7-3.7,3.7c0,2.1,1.7,3.7,3.7,3.7
	C212.6,419.9,214.2,418.3,214.2,416.2"/>
<path fill="#FFFFFF" d="M647.5,339.4c0-2.5-2-4.5-4.5-4.5c-2.5,0-4.5,2-4.5,4.5c0,2.5,2,4.5,4.5,4.5
	C645.5,343.9,647.5,341.9,647.5,339.4"/>
<path fill="#FFFFFF" d="M323.3,472.9c0-2-1.6-3.6-3.6-3.6c-2,0-3.6,1.6-3.6,3.6c0,2,1.6,3.6,3.6,3.6
	C321.6,476.5,323.3,474.9,323.3,472.9"/>
<path fill="#FFFFFF" d="M233.9,313.7c0-2.1-1.7-3.7-3.7-3.7c-2.1,0-3.7,1.7-3.7,3.7c0,2.1,1.7,3.7,3.7,3.7
	C232.3,317.4,233.9,315.7,233.9,313.7"/>
<path fill="#FFFFFF" d="M363.8,376.2c0-2.1-1.7-3.7-3.7-3.7c-2.1,0-3.7,1.7-3.7,3.7c0,2.1,1.7,3.7,3.7,3.7
	C362.1,380,363.8,378.3,363.8,376.2"/>
<path fill="#FFFFFF" d="M120.8,433.1c0-2.8-2.3-5.1-5.1-5.1c-2.8,0-5.1,2.3-5.1,5.1c0,2.8,2.3,5.1,5.1,5.1
	C118.5,438.2,120.8,435.9,120.8,433.1"/>
<path fill="#FFFFFF" d="M666.2,449.2c0-2.3-1.9-4.2-4.2-4.2c-2.3,0-4.2,1.9-4.2,4.2c0,2.3,1.9,4.2,4.2,4.2
	C664.3,453.5,666.2,451.6,666.2,449.2"/>
<path fill="#FFFFFF" d="M142.5,381.9c0-1.2-1-2.2-2.2-2.2c-1.2,0-2.2,1-2.2,2.2c0,1.2,1,2.2,2.2,2.2
	C141.5,384.1,142.5,383.1,142.5,381.9"/>
<path fill="#FFFFFF" d="M731,465.9c0-2.3-1.9-4.2-4.2-4.2c-2.3,0-4.2,1.9-4.2,4.2c0,2.3,1.9,4.2,4.2,4.2
	C729.1,470.1,731,468.2,731,465.9"/>
<path fill="#FFFFFF" d="M435.7,433.1c0-2.5-2-4.5-4.5-4.5c-2.5,0-4.5,2-4.5,4.5c0,2.5,2,4.5,4.5,4.5
	C433.7,437.6,435.7,435.6,435.7,433.1"/>
<path fill="#FFFFFF" d="M211.5,270.5c0-2.8-2.3-5.1-5.1-5.1c-2.8,0-5.1,2.3-5.1,5.1c0,2.8,2.3,5.1,5.1,5.1
	C209.2,275.6,211.5,273.3,211.5,270.5"/>
<path fill="#FFFFFF" d="M466,321.9c0-2.3-1.9-4.2-4.2-4.2c-2.3,0-4.2,1.9-4.2,4.2c0,2.3,1.9,4.2,4.2,4.2
	C464.1,326.1,466,324.2,466,321.9"/>
<path fill="#FFFFFF" d="M33.8,326.5c0-1.2-1-2.2-2.2-2.2c-1.2,0-2.2,1-2.2,2.2c0,1.2,1,2.2,2.2,2.2
	C32.9,328.7,33.8,327.7,33.8,326.5"/>
<path fill="#FFFFFF" d="M333.2,70.4c0-1.4-1.1-2.5-2.5-2.5c-1.4,0-2.5,1.1-2.5,2.5c0,1.4,1.1,2.5,2.5,2.5
	C332,72.8,333.2,71.7,333.2,70.4"/>
<path fill="#FFFFFF" d="M627.2,70.4c0-2.3-1.9-4.2-4.2-4.2c-2.3,0-4.2,1.9-4.2,4.2c0,2.3,1.9,4.2,4.2,4.2
	C625.4,74.6,627.2,72.7,627.2,70.4"/>
<path fill="#FFFFFF" d="M158,26.1c0-2.3-1.9-4.2-4.2-4.2c-2.3,0-4.2,1.9-4.2,4.2s1.9,4.2,4.2,4.2C156.1,30.3,158,28.4,158,26.1"/>
<path fill="#FFFFFF" d="M380.6,197.5c0-2.1-1.7-3.7-3.7-3.7c-2.1,0-3.7,1.7-3.7,3.7c0,2.1,1.7,3.7,3.7,3.7
	C378.9,201.2,380.6,199.5,380.6,197.5"/>
<path fill="#FFFFFF" d="M296.7,238.9c0-2.2-1.7-3.9-3.9-3.9c-2.2,0-3.9,1.8-3.9,3.9c0,2.2,1.7,3.9,3.9,3.9
	C295,242.8,296.7,241,296.7,238.9"/>
<path fill="#FFFFFF" d="M367.5,251.4c0-2.5-2-4.5-4.5-4.5c-2.5,0-4.5,2-4.5,4.5c0,2.5,2,4.5,4.5,4.5
	C365.5,255.9,367.5,253.9,367.5,251.4"/>
<path fill="#FFFFFF" d="M410.5,269.6c0-2.1-1.7-3.7-3.7-3.7c-2.1,0-3.7,1.7-3.7,3.7c0,2.1,1.7,3.7,3.7,3.7
	C408.8,273.4,410.5,271.7,410.5,269.6"/>
<path fill="#FFFFFF" d="M654.6,195.2c0-2.3-1.9-4.2-4.2-4.2c-2.3,0-4.2,1.9-4.2,4.2c0,2.3,1.9,4.2,4.2,4.2
	C652.7,199.5,654.6,197.6,654.6,195.2"/>
<path fill="#FFFFFF" d="M1034.4,228c0-2.9-2.3-5.2-5.2-5.2c-2.9,0-5.2,2.3-5.2,5.2c0,2.9,2.3,5.2,5.2,5.2
	C1032,233.2,1034.4,230.9,1034.4,228"/>
<path fill="#FFFFFF" d="M518.4,77.4c0-2.5-2-4.5-4.6-4.5c-2.5,0-4.6,2-4.6,4.5c0,2.5,2,4.6,4.6,4.6
	C516.4,81.9,518.4,79.9,518.4,77.4"/>
<path fill="#FFFFFF" d="M597.6,134.1c0-2.5-2-4.5-4.6-4.5c-2.5,0-4.6,2-4.6,4.5c0,2.5,2,4.6,4.6,4.6
	C595.6,138.7,597.6,136.7,597.6,134.1"/>
<path fill="#FFFFFF" d="M112.1,208.1c0-2.5-2-4.5-4.5-4.5c-2.5,0-4.5,2-4.5,4.5c0,2.5,2,4.5,4.5,4.5
	C110.1,212.6,112.1,210.6,112.1,208.1"/>
<path fill="#FFFFFF" d="M790.3,228.7c0-3-2.4-5.3-5.3-5.3c-3,0-5.3,2.4-5.3,5.3c0,3,2.4,5.3,5.3,5.3
	C787.9,234,790.3,231.6,790.3,228.7"/>
<path fill="#FFFFFF" d="M744.8,226.4c0-2-1.6-3.6-3.6-3.6s-3.6,1.6-3.6,3.6c0,2,1.6,3.6,3.6,3.6S744.8,228.4,744.8,226.4"/>
<path fill="#FFFFFF" d="M874.8,179.8c0-2.5-2-4.5-4.5-4.5c-2.5,0-4.5,2-4.5,4.5c0,2.5,2,4.5,4.5,4.5
	C872.8,184.3,874.8,182.3,874.8,179.8"/>
<path fill="#FFFFFF" d="M997.4,167.9c0-2.9-2.3-5.2-5.2-5.2c-2.9,0-5.2,2.3-5.2,5.2c0,2.9,2.3,5.2,5.2,5.2
	C995.1,173.1,997.4,170.8,997.4,167.9"/>
<path fill="#FFFFFF" d="M1145.5,85.6c0-3-2.4-5.4-5.4-5.4c-3,0-5.4,2.4-5.4,5.4c0,3,2.4,5.4,5.4,5.4
	C1143.1,91,1145.5,88.6,1145.5,85.6"/>
<path fill="#FFFFFF" d="M1065.5,85.5c0-2.5-2-4.5-4.6-4.5s-4.6,2-4.6,4.5c0,2.5,2,4.6,4.6,4.6S1065.5,88,1065.5,85.5"/>
<path fill="#FFFFFF" d="M41.7,171.5c0-2.5-2-4.5-4.5-4.5c-2.5,0-4.5,2-4.5,4.5c0,2.5,2,4.5,4.5,4.5C39.7,176,41.7,174,41.7,171.5"/>
<path fill="#FFFFFF" d="M584.8,21.6c0-2.5-2-4.5-4.6-4.5c-2.5,0-4.6,2-4.6,4.5c0,2.5,2,4.6,4.6,4.6
	C582.8,26.1,584.8,24.1,584.8,21.6"/>
<path fill="#FFFFFF" d="M669.7,117.3c0-2.5-2-4.5-4.5-4.5c-2.5,0-4.5,2-4.5,4.5c0,2.5,2,4.5,4.5,4.5
	C667.7,121.8,669.7,119.8,669.7,117.3"/>
<path fill="#FFFFFF" d="M215.8,197.5c0-2.1-1.7-3.7-3.7-3.7c-2.1,0-3.7,1.7-3.7,3.7c0,2.1,1.7,3.7,3.7,3.7
	C214.1,201.2,215.8,199.6,215.8,197.5"/>
<path fill="#FFFFFF" d="M947.5,39.7c0-2.5-2-4.5-4.5-4.5c-2.5,0-4.5,2-4.5,4.5c0,2.5,2,4.5,4.5,4.5
	C945.5,44.2,947.5,42.2,947.5,39.7"/>
<path fill="#FFFFFF" d="M618.8,210.3c0-2-1.6-3.6-3.6-3.6c-2,0-3.6,1.6-3.6,3.6c0,2,1.6,3.6,3.6,3.6
	C617.2,213.9,618.8,212.3,618.8,210.3"/>
<path fill="#FFFFFF" d="M502,44.2c0-2.5-2-4.5-4.6-4.5c-2.5,0-4.6,2-4.6,4.5c0,2.5,2,4.6,4.6,4.6C500,48.7,502,46.7,502,44.2"/>
<path fill="#FFFFFF" d="M193.3,154.4c0-2.8-2.3-5.1-5.1-5.1c-2.8,0-5.1,2.3-5.1,5.1c0,2.8,2.3,5.1,5.1,5.1
	C191,159.4,193.3,157.2,193.3,154.4"/>
<path fill="#FFFFFF" d="M15.7,210.3c0-1.2-1-2.2-2.2-2.2c-1.2,0-2.2,1-2.2,2.2c0,1.2,1,2.2,2.2,2.2
	C14.7,212.5,15.7,211.5,15.7,210.3"/>
<path fill="#FFFFFF" d="M378.5,12.6c0-2.3-1.9-4.2-4.2-4.2c-2.3,0-4.2,1.9-4.2,4.2c0,2.3,1.9,4.2,4.2,4.2
	C376.6,16.9,378.5,15,378.5,12.6"/>
<path fill="#FFFFFF" d="M830.6,10.5c0-2.3-1.9-4.2-4.2-4.2c-2.3,0-4.2,1.9-4.2,4.2c0,2.3,1.9,4.2,4.2,4.2
	C828.7,14.7,830.6,12.9,830.6,10.5"/>
<path fill="#FFFFFF" d="M282.6,85.5c0-2-1.6-3.6-3.6-3.6c-2,0-3.6,1.6-3.6,3.6c0,2,1.6,3.6,3.6,3.6
	C280.9,89.1,282.6,87.5,282.6,85.5"/>
<path fill="#FFFFFF" d="M55.4,190.5c0-2.1-1.7-3.7-3.7-3.7c-2.1,0-3.7,1.7-3.7,3.7c0,2.1,1.7,3.7,3.7,3.7
	C53.7,194.2,55.4,192.5,55.4,190.5"/>
<rect x="281.3" y="850.6" opacity="0.1" fill="#FF0000" width="642.3" height="170.4"/>
</svg>
