<?xml version="1.0" encoding="utf-8"?>
<!-- Generator: Adobe Illustrator 18.0.0, SVG Export Plug-In . SVG Version: 6.00 Build 0)  -->
<!DOCTYPE svg PUBLIC "-//W3C//DTD SVG 1.1//EN" "http://www.w3.org/Graphics/SVG/1.1/DTD/svg11.dtd">
<svg version="1.1" id="schnee_x5F_groß" xmlns="http://www.w3.org/2000/svg" xmlns:xlink="http://www.w3.org/1999/xlink" x="0px"
	 y="0px" viewBox="0 0 1200 1702.1" enable-background="new 0 0 1200 1702.1" xml:space="preserve">
<path fill="#FFFFFF" d="M868.4,777.6c0-3-2.4-5.3-5.3-5.3c-3,0-5.3,2.4-5.3,5.3c0,3,2.4,5.3,5.3,5.3
	C866,782.9,868.4,780.5,868.4,777.6"/>
<path fill="#FFFFFF" d="M129.2,1050c0-3.1-2.5-5.6-5.6-5.6c-3.1,0-5.6,2.5-5.6,5.6c0,3.1,2.5,5.6,5.6,5.6
	C126.7,1055.6,129.2,1053.1,129.2,1050"/>
<path fill="#FFFFFF" d="M17,668.3c0-3.1-2.5-5.6-5.6-5.6c-3.1,0-5.6,2.5-5.6,5.6c0,3.1,2.5,5.6,5.6,5.6
	C14.5,673.9,17,671.4,17,668.3"/>
<path fill="#FFFFFF" d="M1046.4,1103.7c0-2.9-2.3-5.2-5.2-5.2c-2.9,0-5.2,2.3-5.2,5.2c0,2.9,2.3,5.2,5.2,5.2
	C1044.1,1108.9,1046.4,1106.5,1046.4,1103.7"/>
<path fill="#FFFFFF" d="M915,600.1c0-3-2.4-5.3-5.3-5.3c-3,0-5.3,2.4-5.3,5.3c0,3,2.4,5.3,5.3,5.3C912.6,605.5,915,603.1,915,600.1"
	/>
<path fill="#FFFFFF" d="M1077.5,603.5c0-3-2.4-5.3-5.3-5.3c-3,0-5.3,2.4-5.3,5.3c0,3,2.4,5.3,5.3,5.3
	C1075.1,608.9,1077.5,606.5,1077.5,603.5"/>
<path fill="#FFFFFF" d="M1150.8,527.2c0-3-2.4-5.3-5.3-5.3c-3,0-5.3,2.4-5.3,5.3c0,3,2.4,5.3,5.3,5.3
	C1148.5,532.6,1150.8,530.2,1150.8,527.2"/>
<path fill="#FFFFFF" d="M1202.4,589.7c0-3-2.4-5.3-5.3-5.3c-3,0-5.3,2.4-5.3,5.3c0,3,2.4,5.3,5.3,5.3
	C1200,595,1202.4,592.7,1202.4,589.7"/>
<path fill="#FFFFFF" d="M635,566.9c0-2.9-2.3-5.2-5.2-5.2c-2.9,0-5.2,2.3-5.2,5.2c0,2.9,2.3,5.2,5.2,5.2
	C632.7,572.2,635,569.8,635,566.9"/>
<path fill="#FFFFFF" d="M98.1,651c0-3.1-2.5-5.6-5.6-5.6c-3.1,0-5.6,2.5-5.6,5.6c0,3.1,2.5,5.6,5.6,5.6
	C95.6,656.6,98.1,654.1,98.1,651"/>
<path fill="#FFFFFF" d="M347.1,594.8c0-2.8-2.3-5.1-5.1-5.1c-2.8,0-5.1,2.3-5.1,5.1c0,2.8,2.3,5.1,5.1,5.1
	C344.8,599.9,347.1,597.6,347.1,594.8"/>
<path fill="#FFFFFF" d="M1015.3,704.7c0-2.9-2.3-5.2-5.2-5.2c-2.9,0-5.2,2.3-5.2,5.2c0,2.9,2.3,5.2,5.2,5.2
	C1013,709.9,1015.3,707.5,1015.3,704.7"/>
<path fill="#FFFFFF" d="M705.9,682.6c0-2.8-2.3-5.1-5.1-5.1c-2.8,0-5.1,2.3-5.1,5.1s2.3,5.1,5.1,5.1
	C703.7,687.7,705.9,685.4,705.9,682.6"/>
<path fill="#FFFFFF" d="M1044.8,510.2c0-3-2.4-5.3-5.3-5.3c-3,0-5.3,2.4-5.3,5.3c0,3,2.4,5.3,5.3,5.3
	C1042.4,515.5,1044.8,513.1,1044.8,510.2"/>
<path fill="#FFFFFF" d="M579.1,510.2c0-3-2.4-5.3-5.3-5.3c-3,0-5.3,2.4-5.3,5.3c0,3,2.4,5.3,5.3,5.3
	C576.7,515.5,579.1,513.1,579.1,510.2"/>
<path fill="#FFFFFF" d="M881.1,460.8c0-2.9-2.3-5.2-5.2-5.2c-2.9,0-5.2,2.3-5.2,5.2c0,2.9,2.3,5.2,5.2,5.2
	C878.8,466,881.1,463.7,881.1,460.8"/>
<path fill="#FFFFFF" d="M29,442.2c0-3.1-2.5-5.6-5.6-5.6c-3.1,0-5.6,2.5-5.6,5.6c0,3.1,2.5,5.6,5.6,5.6
	C26.5,447.8,29,445.3,29,442.2"/>
<path fill="#FFFFFF" d="M1152.1,447.7c0-2.9-2.3-5.2-5.2-5.2c-2.9,0-5.2,2.3-5.2,5.2c0,2.9,2.3,5.2,5.2,5.2
	C1149.8,452.9,1152.1,450.6,1152.1,447.7"/>
<path fill="#FFFFFF" d="M551.7,304.7c0-2.9-2.3-5.2-5.2-5.2c-2.9,0-5.2,2.3-5.2,5.2c0,2.9,2.3,5.2,5.2,5.2
	C549.4,309.9,551.7,307.6,551.7,304.7"/>
<path fill="#FFFFFF" d="M1152.3,287.7c0-3-2.4-5.4-5.4-5.4c-3,0-5.4,2.4-5.4,5.4c0,3,2.4,5.4,5.4,5.4
	C1149.9,293.1,1152.3,290.6,1152.3,287.7"/>
<path fill="#FFFFFF" d="M1069.6,361.8c0-2.9-2.3-5.2-5.2-5.2c-2.9,0-5.2,2.3-5.2,5.2c0,2.9,2.3,5.2,5.2,5.2
	C1067.3,367,1069.6,364.7,1069.6,361.8"/>
<path fill="#FFFFFF" d="M834.1,1399.3c0-2.8-2.3-5.1-5.1-5.1c-2.8,0-5.1,2.3-5.1,5.1c0,2.8,2.3,5.1,5.1,5.1
	C831.9,1404.4,834.1,1402.1,834.1,1399.3"/>
<path fill="#FFFFFF" d="M1039.4,879.3c0-3-2.4-5.4-5.4-5.4c-3,0-5.4,2.4-5.4,5.4c0,3,2.4,5.4,5.4,5.4
	C1037,884.7,1039.4,882.3,1039.4,879.3"/>
<path fill="#FFFFFF" d="M1197.2,856c0-3-2.4-5.4-5.4-5.4c-3,0-5.4,2.4-5.4,5.4c0,3,2.4,5.4,5.4,5.4
	C1194.7,861.4,1197.2,859,1197.2,856"/>
<path fill="#FFFFFF" d="M1145.6,917.6c0-3-2.4-5.4-5.4-5.4c-3,0-5.4,2.4-5.4,5.4c0,3,2.4,5.4,5.4,5.4
	C1143.1,923.1,1145.6,920.6,1145.6,917.6"/>
<path fill="#FFFFFF" d="M810.8,873.9c0-2.9-2.3-5.2-5.2-5.2c-2.9,0-5.2,2.3-5.2,5.2c0,2.9,2.3,5.2,5.2,5.2
	C808.5,879.1,810.8,876.7,810.8,873.9"/>
<path fill="#FFFFFF" d="M863.1,513.3c0-2.3-1.9-4.2-4.2-4.2c-2.3,0-4.2,1.9-4.2,4.2c0,2.3,1.9,4.2,4.2,4.2
	C861.2,517.5,863.1,515.6,863.1,513.3"/>
<path fill="#FFFFFF" d="M955.3,485.6c0-3-2.4-5.3-5.3-5.3c-3,0-5.3,2.4-5.3,5.3c0,3,2.4,5.3,5.3,5.3
	C952.9,490.9,955.3,488.5,955.3,485.6"/>
<path fill="#FFFFFF" d="M1027.4,3.7c0-3-2.4-5.4-5.4-5.4c-3,0-5.4,2.4-5.4,5.4c0,3,2.4,5.4,5.4,5.4C1025,9.1,1027.4,6.6,1027.4,3.7"
	/>
<path fill="#FFFFFF" d="M708.4,80.1c0-3-2.4-5.3-5.3-5.3c-3,0-5.3,2.4-5.3,5.3c0,3,2.4,5.3,5.3,5.3C706,85.5,708.4,83.1,708.4,80.1"
	/>
<path fill="#FFFFFF" d="M889.8,112.8c0-3-2.4-5.4-5.3-5.4c-3,0-5.3,2.4-5.3,5.4c0,3,2.4,5.3,5.3,5.3
	C887.4,118.2,889.8,115.8,889.8,112.8"/>
<path fill="#FFFFFF" d="M545.9,191c0-2.9-2.3-5.2-5.2-5.2c-2.9,0-5.2,2.3-5.2,5.2c0,2.9,2.3,5.2,5.2,5.2
	C543.5,196.2,545.9,193.9,545.9,191"/>
<path fill="#FFFFFF" d="M1105.3,171.5c0-3-2.4-5.4-5.4-5.4c-3,0-5.4,2.4-5.4,5.4c0,3,2.4,5.4,5.4,5.4
	C1102.9,176.9,1105.3,174.5,1105.3,171.5"/>
<path fill="#FFFFFF" d="M910.1,221.2c0-2.9-2.3-5.2-5.2-5.2c-2.9,0-5.2,2.3-5.2,5.2c0,2.9,2.3,5.2,5.2,5.2
	C907.8,226.4,910.1,224.1,910.1,221.2"/>
<path fill="#FFFFFF" d="M378.2,319.9c0-3-2.4-5.3-5.3-5.3c-3,0-5.3,2.4-5.3,5.3c0,3,2.4,5.3,5.3,5.3
	C375.8,325.3,378.2,322.9,378.2,319.9"/>
<path fill="#FFFFFF" d="M130.1,102.6c0-3.1-2.5-5.6-5.6-5.6c-3.1,0-5.6,2.5-5.6,5.6c0,3.1,2.5,5.6,5.6,5.6
	C127.6,108.2,130.1,105.7,130.1,102.6"/>
<path fill="#FFFFFF" d="M226.6,25.2c0-2.8-2.3-5.1-5.1-5.1c-2.8,0-5.1,2.3-5.1,5.1s2.3,5.1,5.1,5.1C224.3,30.3,226.6,28,226.6,25.2"
	/>
<path fill="#FFFFFF" d="M885.4,1059.8c0-2.3-1.9-4.2-4.2-4.2c-2.3,0-4.2,1.9-4.2,4.2c0,2.3,1.9,4.2,4.2,4.2
	C883.5,1064,885.4,1062.1,885.4,1059.8"/>
<path fill="#FFFFFF" d="M835.8,1074.3c0-2.5-2-4.5-4.5-4.5c-2.5,0-4.5,2-4.5,4.5c0,2.5,2,4.5,4.5,4.5
	C833.8,1078.8,835.8,1076.8,835.8,1074.3"/>
<rect x="281.3" y="850.6" opacity="0.1" fill="#FF0000" width="642.3" height="170.4"/>
</svg>
