<?xml version="1.0" encoding="iso-8859-1"?>
<!-- Generator: Adobe Illustrator 18.0.0, SVG Export Plug-In . SVG Version: 6.00 Build 0)  -->
<!DOCTYPE svg PUBLIC "-//W3C//DTD SVG 1.1//EN" "http://www.w3.org/Graphics/SVG/1.1/DTD/svg11.dtd">
<svg version="1.1" xmlns="http://www.w3.org/2000/svg" xmlns:xlink="http://www.w3.org/1999/xlink" x="0px" y="0px"
	 viewBox="0 0 1200 1643.104" style="enable-background:new 0 0 1200 1643.104;" xml:space="preserve">
<g id="f1">
	<path style="fill:#FFFFFF;" d="M356.56,808.066c0-1.733-1.406-3.14-3.14-3.14c-1.737,0-3.143,1.406-3.143,3.14
		c0,1.737,1.406,3.144,3.143,3.144C355.153,811.21,356.56,809.804,356.56,808.066"/>
	<path style="fill:#FFFFFF;" d="M318.916,836.243c0-1.693-1.369-3.062-3.062-3.062c-1.693,0-3.062,1.369-3.062,3.062
		c0,1.689,1.369,3.062,3.062,3.062C317.547,839.306,318.916,837.933,318.916,836.243"/>
	<path style="fill:#FFFFFF;" d="M403.468,826.851c0-1.404-1.141-2.544-2.545-2.544c-1.401,0-2.541,1.14-2.541,2.544
		c0,1.402,1.14,2.543,2.541,2.543C402.327,829.393,403.468,828.253,403.468,826.851"/>
	<path style="fill:#FFFFFF;" d="M414.716,826.852c0-2.431-1.97-4.403-4.398-4.403c-2.43,0-4.403,1.973-4.403,4.403
		c0,2.43,1.974,4.398,4.403,4.398C412.746,831.251,414.716,829.282,414.716,826.852"/>
	<path style="fill:#FFFFFF;" d="M403.846,836.243c0-1.613-1.307-2.924-2.923-2.924c-1.613,0-2.919,1.311-2.919,2.924
		c0,1.611,1.306,2.918,2.919,2.918C402.539,839.161,403.846,837.854,403.846,836.243"/>
	<path style="fill:#FFFFFF;" d="M514.455,845.634c0-1.174-0.953-2.124-2.128-2.124c-1.171,0-2.124,0.95-2.124,2.124
		c0,1.174,0.953,2.124,2.124,2.124C513.502,847.758,514.455,846.808,514.455,845.634"/>
	<path style="fill:#FFFFFF;" d="M476.192,855.024c0-0.788-0.641-1.429-1.429-1.429c-0.787,0-1.428,0.641-1.428,1.429
		s0.641,1.428,1.428,1.428C475.552,856.452,476.192,855.812,476.192,855.024"/>
	<path style="fill:#FFFFFF;" d="M626.045,845.634c0-2.451-1.988-4.44-4.439-4.44c-2.453,0-4.436,1.988-4.436,4.44
		c0,2.451,1.982,4.439,4.436,4.439C624.057,850.073,626.045,848.085,626.045,845.634"/>
	<path style="fill:#FFFFFF;" d="M664.643,845.634c0-2.805-2.271-5.076-5.077-5.076c-2.805,0-5.073,2.271-5.073,5.076
		c0,2.805,2.268,5.076,5.073,5.076C662.371,850.71,664.643,848.438,664.643,845.634"/>
	<path style="fill:#FFFFFF;" d="M811.518,836.243c0-0.762-0.618-1.377-1.379-1.377c-0.758,0-1.378,0.615-1.378,1.377
		c0,0.758,0.62,1.377,1.378,1.377C810.899,837.62,811.518,837.001,811.518,836.243"/>
	<path style="fill:#FFFFFF;" d="M726.821,826.852c0-2.817-2.279-5.1-5.097-5.1c-2.816,0-5.097,2.283-5.097,5.1
		c0,2.813,2.28,5.097,5.097,5.097C724.542,831.948,726.821,829.665,726.821,826.852"/>
	<path style="fill:#FFFFFF;" d="M744.871,826.852c0-2.334-1.892-4.227-4.226-4.227c-2.334,0-4.225,1.893-4.225,4.227
		c0,2.333,1.891,4.224,4.225,4.224C742.979,831.075,744.871,829.185,744.871,826.852"/>
	<path style="fill:#FFFFFF;" d="M490.322,756.504c0-1.148-0.932-2.076-2.076-2.076s-2.076,0.928-2.076,2.076
		c0,1.145,0.932,2.072,2.076,2.072S490.322,757.648,490.322,756.504"/>
	<path style="fill:#FFFFFF;" d="M493.664,709.547c0-2.996-2.426-5.421-5.416-5.421c-2.996,0-5.42,2.425-5.42,5.421
		c0,2.99,2.424,5.415,5.42,5.415C491.238,714.962,493.664,712.537,493.664,709.547"/>
	<path style="fill:#FFFFFF;" d="M656.783,718.935c0-0.736-0.6-1.334-1.334-1.334c-0.736,0-1.334,0.598-1.334,1.334
		c0,0.736,0.598,1.333,1.334,1.333C656.184,720.268,656.783,719.672,656.783,718.935"/>
	<path style="fill:#FFFFFF;" d="M710.688,718.937c0-1-0.812-1.809-1.809-1.809c-0.998,0-1.809,0.809-1.809,1.809
		c0,0.996,0.811,1.808,1.809,1.808C709.875,720.745,710.688,719.934,710.688,718.937"/>
	<path style="fill:#FFFFFF;" d="M603.484,718.935c0-0.145-0.115-0.263-0.26-0.263c-0.143,0-0.26,0.118-0.26,0.263
		c0,0.143,0.117,0.261,0.26,0.261C603.369,719.196,603.484,719.078,603.484,718.935"/>
</g>
<g id="Ebene_1">
</g>
</svg>
