<?xml version="1.0" encoding="iso-8859-1"?>
<!-- Generator: Adobe Illustrator 18.0.0, SVG Export Plug-In . SVG Version: 6.00 Build 0)  -->
<!DOCTYPE svg PUBLIC "-//W3C//DTD SVG 1.1//EN" "http://www.w3.org/Graphics/SVG/1.1/DTD/svg11.dtd">
<svg version="1.1" xmlns="http://www.w3.org/2000/svg" xmlns:xlink="http://www.w3.org/1999/xlink" x="0px" y="0px"
	 viewBox="0 0 1200 1643.104" style="enable-background:new 0 0 1200 1643.104;" xml:space="preserve">
<g id="f11">
	<path style="fill:#FFFFFF;" d="M348.142,855.024c0-2.271-1.841-4.115-4.112-4.115c-2.274,0-4.115,1.844-4.115,4.115
		c0,2.275,1.841,4.115,4.115,4.115C346.301,859.14,348.142,857.3,348.142,855.024"/>
	<path style="fill:#FFFFFF;" d="M421.166,836.243c0-0.807-0.652-1.462-1.458-1.462c-0.807,0-1.462,0.655-1.462,1.462
		c0,0.807,0.655,1.457,1.462,1.457C420.514,837.7,421.166,837.05,421.166,836.243"/>
	<path style="fill:#FFFFFF;" d="M513.741,826.852c0-0.781-0.634-1.41-1.414-1.41c-0.777,0-1.41,0.629-1.41,1.41
		c0,0.775,0.633,1.41,1.41,1.41C513.107,828.263,513.741,827.628,513.741,826.852"/>
	<path style="fill:#FFFFFF;" d="M615.361,826.852c0-1.738-1.41-3.148-3.146-3.148c-1.738,0-3.144,1.41-3.144,3.148
		c0,1.737,1.406,3.143,3.144,3.143C613.951,829.995,615.361,828.59,615.361,826.852"/>
	<path style="fill:#FFFFFF;" d="M672.866,826.852c0-2.161-1.747-3.91-3.909-3.91c-2.161,0-3.908,1.749-3.908,3.91
		c0,2.156,1.747,3.908,3.908,3.908C671.119,830.761,672.866,829.009,672.866,826.852"/>
	<path style="fill:#FFFFFF;" d="M671.162,845.634c0-1.219-0.986-2.205-2.205-2.205c-1.218,0-2.204,0.986-2.204,2.205
		c0,1.219,0.986,2.205,2.204,2.205C670.176,847.839,671.162,846.852,671.162,845.634"/>
	<path style="fill:#FFFFFF;" d="M682.492,855.024c0-2.289-1.854-4.143-4.145-4.143c-2.288,0-4.144,1.854-4.144,4.143
		s1.855,4.143,4.144,4.143C680.638,859.167,682.492,857.313,682.492,855.024"/>
	<path style="fill:#FFFFFF;" d="M830.433,817.458c0-0.832-0.678-1.51-1.509-1.51c-0.835,0-1.513,0.678-1.513,1.51
		c0,0.836,0.678,1.512,1.513,1.512C829.755,818.97,830.433,818.294,830.433,817.458"/>
	<path style="fill:#FFFFFF;" d="M849.722,836.243c0-1.116-0.901-2.018-2.017-2.018c-1.115,0-2.017,0.901-2.017,2.018
		c0,1.115,0.901,2.018,2.017,2.018C848.82,838.261,849.722,837.358,849.722,836.243"/>
	<path style="fill:#FFFFFF;" d="M766.389,826.882c0-0.682-0.554-1.232-1.234-1.232s-1.228,0.551-1.228,1.232
		c0,0.682,0.547,1.228,1.228,1.228S766.389,827.563,766.389,826.882"/>
	<path style="fill:#FFFFFF;" d="M785.671,836.272c0-0.957-0.775-1.731-1.729-1.731c-0.957,0-1.731,0.773-1.731,1.731
		c0,0.953,0.774,1.73,1.731,1.73C784.896,838.003,785.671,837.226,785.671,836.272"/>
	<path style="fill:#FFFFFF;" d="M888.685,826.852c0-1.898-1.537-3.434-3.432-3.434c-1.898,0-3.432,1.536-3.432,3.434
		c0,1.896,1.533,3.431,3.432,3.431C887.148,830.282,888.685,828.747,888.685,826.852"/>
	<path style="fill:#FFFFFF;" d="M898.735,845.634c0-2.287-1.854-4.139-4.143-4.139c-2.286,0-4.138,1.852-4.138,4.139
		c0,2.287,1.852,4.139,4.138,4.139C896.881,849.772,898.735,847.921,898.735,845.634"/>
	<path style="fill:#FFFFFF;" d="M549.972,826.852c0-3.091-2.504-5.595-5.591-5.595c-3.092,0-5.597,2.504-5.597,5.595
		c0,3.088,2.505,5.593,5.597,5.593C547.468,832.444,549.972,829.939,549.972,826.852"/>
	<path style="fill:#FFFFFF;" d="M536.086,845.634c0-0.58-0.468-1.047-1.049-1.047c-0.576,0-1.047,0.467-1.047,1.047
		c0,0.576,0.471,1.048,1.047,1.048C535.618,846.682,536.086,846.21,536.086,845.634"/>
	<path style="fill:#FFFFFF;" d="M734.827,826.852c0-2.013-1.631-3.641-3.641-3.641c-2.013,0-3.642,1.628-3.642,3.641
		c0,2.01,1.629,3.642,3.642,3.642C733.196,830.493,734.827,828.861,734.827,826.852"/>
	<path style="fill:#FFFFFF;" d="M493.135,728.328c0-2.699-2.191-4.889-4.889-4.889c-2.699,0-4.889,2.19-4.889,4.889
		c0,2.697,2.189,4.888,4.889,4.888C490.943,733.216,493.135,731.025,493.135,728.328"/>
	<path style="fill:#FFFFFF;" d="M510.551,728.328c0-1.944-1.576-3.52-3.523-3.52c-1.943,0-3.52,1.575-3.52,3.52
		c0,1.943,1.576,3.519,3.52,3.519C508.975,731.847,510.551,730.271,510.551,728.328"/>
	<path style="fill:#FFFFFF;" d="M493.664,718.939c0-2.996-2.426-5.421-5.416-5.421c-2.996,0-5.42,2.425-5.42,5.421
		c0,2.99,2.424,5.415,5.42,5.415C491.238,724.354,493.664,721.93,493.664,718.939"/>
	<path style="fill:#FFFFFF;" d="M639.19,756.504c0-1.396-1.131-2.525-2.521-2.525c-1.397,0-2.525,1.129-2.525,2.525
		c0,1.391,1.129,2.521,2.525,2.521C638.059,759.025,639.19,757.894,639.19,756.504"/>
	<path style="fill:#FFFFFF;" d="M723.062,728.328c0-2.647-2.144-4.794-4.793-4.794c-2.646,0-4.793,2.146-4.793,4.794
		c0,2.646,2.146,4.793,4.793,4.793C720.918,733.121,723.062,730.975,723.062,728.328"/>
	<path style="fill:#FFFFFF;" d="M691.275,747.109c0-0.652-0.525-1.178-1.184-1.178c-0.65,0-1.178,0.525-1.178,1.178
		c0,0.651,0.527,1.182,1.178,1.182C690.75,748.291,691.275,747.761,691.275,747.109"/>
	<path style="fill:#FFFFFF;" d="M589.887,728.205c0-2.325-1.887-4.214-4.213-4.214c-2.328,0-4.213,1.889-4.213,4.214
		c0,2.328,1.885,4.213,4.213,4.213C588,732.418,589.887,730.533,589.887,728.205"/>
	<path style="fill:#FFFFFF;" d="M580.475,747.107c0-1.975-1.604-3.576-3.578-3.576s-3.576,1.602-3.576,3.576
		c0,1.979,1.602,3.579,3.576,3.579S580.475,749.086,580.475,747.107"/>
</g>
<g id="Ebene_1">
</g>
</svg>
