<?xml version="1.0" encoding="iso-8859-1"?>
<!-- Generator: Adobe Illustrator 18.0.0, SVG Export Plug-In . SVG Version: 6.00 Build 0)  -->
<!DOCTYPE svg PUBLIC "-//W3C//DTD SVG 1.1//EN" "http://www.w3.org/Graphics/SVG/1.1/DTD/svg11.dtd">
<svg version="1.1" xmlns="http://www.w3.org/2000/svg" xmlns:xlink="http://www.w3.org/1999/xlink" x="0px" y="0px"
	 viewBox="0 0 2800 700" style="enable-background:new 0 0 2800 700;" xml:space="preserve">
<g id="f12">
	<path style="fill:#FFFFFF;" d="M791.459,441.206c0-5.498-4.457-9.956-9.954-9.956c-5.489,0-9.945,4.459-9.945,9.956
		c0,5.486,4.456,9.945,9.945,9.945C787.003,451.151,791.459,446.692,791.459,441.206"/>
	<path style="fill:#FFFFFF;" d="M762.998,485.023c0-1.882-1.522-3.404-3.402-3.404c-1.882,0-3.402,1.522-3.402,3.404
		c0,1.879,1.52,3.399,3.402,3.399C761.476,488.422,762.998,486.903,762.998,485.023"/>
	<path style="fill:#FFFFFF;" d="M815.343,485.023c0-6.589-5.334-11.93-11.92-11.93c-6.587,0-11.927,5.341-11.927,11.93
		c0,6.587,5.341,11.93,11.927,11.93C810.009,496.953,815.343,491.61,815.343,485.023"/>
	<path style="fill:#FFFFFF;" d="M721.11,506.932c0-2.946-2.385-5.336-5.334-5.336c-2.946,0-5.34,2.39-5.34,5.336
		c0,2.946,2.394,5.341,5.34,5.341C718.725,512.272,721.11,509.878,721.11,506.932"/>
	<path style="fill:#FFFFFF;" d="M969.609,463.114c0-6.375-5.163-11.545-11.533-11.545c-6.373,0-11.542,5.17-11.542,11.545
		c0,6.37,5.17,11.533,11.542,11.533C964.446,474.647,969.609,469.485,969.609,463.114"/>
	<path style="fill:#FFFFFF;" d="M920.423,506.932c0-3.408-2.766-6.165-6.174-6.165c-3.402,0-6.167,2.757-6.167,6.165
		c0,3.408,2.766,6.165,6.167,6.165C917.658,513.097,920.423,510.34,920.423,506.932"/>
	<path style="fill:#FFFFFF;" d="M1159.337,441.206c0-3.919-3.169-7.086-7.086-7.086c-3.907,0-7.086,3.167-7.086,7.086
		c0,3.907,3.178,7.077,7.086,7.077C1156.168,448.282,1159.337,445.113,1159.337,441.206"/>
	<path style="fill:#FFFFFF;" d="M1181.674,506.932c0-4.149-3.358-7.514-7.514-7.514c-4.147,0-7.516,3.365-7.516,7.514
		c0,4.147,3.37,7.514,7.516,7.514C1178.316,514.446,1181.674,511.078,1181.674,506.932"/>
	<path style="fill:#FFFFFF;" d="M1200.106,506.932c0-2.224-1.804-4.028-4.037-4.028c-2.224,0-4.026,1.805-4.026,4.028
		c0,2.224,1.802,4.028,4.026,4.028C1198.301,510.96,1200.106,509.155,1200.106,506.932"/>
	<path style="fill:#FFFFFF;" d="M1942.254,441.206c0-4.174-3.381-7.56-7.553-7.56c-4.174,0-7.559,3.386-7.559,7.56
		c0,4.172,3.386,7.555,7.559,7.555C1938.873,448.761,1942.254,445.377,1942.254,441.206"/>
	<path style="fill:#FFFFFF;" d="M1963.621,506.932c0-3.873-3.14-7.008-7.01-7.008c-3.876,0-7.011,3.135-7.011,7.008
		c0,3.873,3.135,7.008,7.011,7.008C1960.481,513.94,1963.621,510.805,1963.621,506.932"/>
	<path style="fill:#FFFFFF;" d="M2097.584,463.11c0-5.336-4.329-9.672-9.674-9.672c-5.343,0-9.667,4.336-9.667,9.672
		c0,5.341,4.324,9.669,9.667,9.669C2093.255,472.779,2097.584,468.45,2097.584,463.11"/>
	<path style="fill:#FFFFFF;" d="M2024.143,506.938c0-0.891-0.724-1.606-1.608-1.606c-0.884,0-1.602,0.715-1.602,1.606
		c0,0.886,0.718,1.6,1.602,1.6C2023.419,508.538,2024.143,507.825,2024.143,506.938"/>
	<path style="fill:#FFFFFF;" d="M1709.297,419.288c0-1.449-1.178-2.618-2.62-2.618c-1.449,0-2.613,1.169-2.613,2.618
		c0,1.449,1.164,2.616,2.613,2.616C1708.119,421.903,1709.297,420.737,1709.297,419.288"/>
	<path style="fill:#FFFFFF;" d="M1695.029,485.023c0-5.755-4.671-10.428-10.428-10.428c-5.753,0-10.426,4.673-10.426,10.428
		c0,5.757,4.673,10.428,10.426,10.428C1690.359,495.451,1695.029,490.781,1695.029,485.023"/>
	<path style="fill:#FFFFFF;" d="M1274.255,255.162c0-5.299-4.301-9.594-9.601-9.594c-5.309,0-9.601,4.295-9.601,9.594
		c0,5.309,4.292,9.601,9.601,9.601C1269.953,264.763,1274.255,260.47,1274.255,255.162"/>
	<path style="fill:#FFFFFF;" d="M1270.081,277.079c0-2.998-2.429-5.429-5.427-5.429c-2.998,0-5.427,2.431-5.427,5.429
		c0,2.987,2.429,5.418,5.427,5.418C1267.652,282.497,1270.081,280.066,1270.081,277.079"/>
	<path style="fill:#FFFFFF;" d="M1123.423,167.522c0-3.014-2.438-5.454-5.445-5.454c-3.012,0-5.459,2.44-5.459,5.454
		c0,3.012,2.447,5.45,5.459,5.45C1120.985,172.972,1123.423,170.534,1123.423,167.522"/>
	<path style="fill:#FFFFFF;" d="M1152.527,255.171c0-6.986-5.66-12.645-12.636-12.645c-6.99,0-12.645,5.659-12.645,12.645
		c0,6.976,5.655,12.636,12.645,12.636C1146.867,267.806,1152.527,262.147,1152.527,255.171"/>
	<path style="fill:#FFFFFF;" d="M1498.792,189.44c0-6.99-5.655-12.647-12.631-12.647c-6.99,0-12.645,5.657-12.645,12.647
		c0,6.976,5.655,12.634,12.645,12.634C1493.137,202.073,1498.792,196.416,1498.792,189.44"/>
	<path style="fill:#FFFFFF;" d="M1537.743,211.344c0-4.295-3.481-7.774-7.765-7.774c-4.297,0-7.774,3.479-7.774,7.774
		c0,4.293,3.477,7.772,7.774,7.772C1534.262,219.116,1537.743,215.637,1537.743,211.344"/>
	<path style="fill:#FFFFFF;" d="M1700.418,211.344c0-1.084-0.884-1.959-1.968-1.959c-1.08,0-1.955,0.875-1.955,1.959
		c0,1.08,0.875,1.957,1.955,1.957C1699.534,213.301,1700.418,212.424,1700.418,211.344"/>
	<path style="fill:#FFFFFF;" d="M1663.057,233.251c0-4.655-3.768-8.423-8.425-8.423c-4.652,0-8.425,3.768-8.425,8.423
		c0,4.655,3.773,8.428,8.425,8.428C1659.289,241.678,1663.057,237.905,1663.057,233.251"/>
	<path style="fill:#FFFFFF;" d="M1663.877,277.079c0-5.11-4.137-9.25-9.246-9.25c-5.108,0-9.25,4.14-9.25,9.25
		c0,5.094,4.142,9.246,9.25,9.246C1659.74,286.325,1663.877,282.174,1663.877,277.079"/>
	<path style="fill:#FFFFFF;" d="M1683.357,277.084c0-3.78-3.053-6.835-6.817-6.835c-3.764,0-6.817,3.055-6.817,6.835
		c0,3.762,3.053,6.817,6.817,6.817C1680.304,283.901,1683.357,280.846,1683.357,277.084"/>
	<path style="fill:#FFFFFF;" d="M1418.566,211.057c0-5.757-4.666-10.43-10.43-10.43c-5.755,0-10.43,4.673-10.43,10.43
		c0,5.764,4.675,10.43,10.43,10.43C1413.9,221.487,1418.566,216.821,1418.566,211.057"/>
	<path style="fill:#FFFFFF;" d="M1390.283,255.157c0-1.438-1.171-2.616-2.616-2.616c-1.445,0-2.615,1.178-2.615,2.616
		c0,1.445,1.171,2.62,2.615,2.62C1389.112,257.777,1390.283,256.602,1390.283,255.157"/>
</g>
<g id="Ebene_1">
</g>
</svg>
