<?xml version="1.0" encoding="iso-8859-1"?>
<!-- Generator: Adobe Illustrator 18.0.0, SVG Export Plug-In . SVG Version: 6.00 Build 0)  -->
<!DOCTYPE svg PUBLIC "-//W3C//DTD SVG 1.1//EN" "http://www.w3.org/Graphics/SVG/1.1/DTD/svg11.dtd">
<svg version="1.1" xmlns="http://www.w3.org/2000/svg" xmlns:xlink="http://www.w3.org/1999/xlink" x="0px" y="0px"
	 viewBox="0 0 1200 1643.104" style="enable-background:new 0 0 1200 1643.104;" xml:space="preserve">
<g id="f13">
	<path style="fill:#FFFFFF;" d="M329.091,826.852c0-2.125-1.723-3.848-3.847-3.848c-2.124,0-3.847,1.723-3.847,3.848
		c0,2.123,1.723,3.846,3.847,3.846C327.368,830.698,329.091,828.976,329.091,826.852"/>
	<path style="fill:#FFFFFF;" d="M320.915,845.634c0-2.795-2.268-5.062-5.062-5.062c-2.794,0-5.061,2.268-5.061,5.062
		c0,2.793,2.268,5.061,5.061,5.061C318.647,850.695,320.915,848.427,320.915,845.634"/>
	<path style="fill:#FFFFFF;" d="M336.692,845.634c0-1.135-0.92-2.058-2.058-2.058c-1.134,0-2.054,0.923-2.054,2.058
		c0,1.133,0.92,2.054,2.054,2.054C335.772,847.687,336.692,846.767,336.692,845.634"/>
	<path style="fill:#FFFFFF;" d="M413.01,845.634c0-1.488-1.206-2.693-2.693-2.693c-1.487,0-2.697,1.205-2.697,2.693
		c0,1.486,1.21,2.693,2.697,2.693C411.804,848.327,413.01,847.12,413.01,845.634"/>
	<path style="fill:#FFFFFF;" d="M488.668,808.066c0-2.491-2.022-4.513-4.513-4.513c-2.493,0-4.514,2.021-4.514,4.513
		c0,2.493,2.02,4.513,4.514,4.513C486.646,812.579,488.668,810.56,488.668,808.066"/>
	<path style="fill:#FFFFFF;" d="M504.062,817.458c0-0.623-0.504-1.127-1.126-1.127c-0.622,0-1.127,0.504-1.127,1.127
		c0,0.621,0.505,1.126,1.127,1.126C503.559,818.584,504.062,818.079,504.062,817.458"/>
	<path style="fill:#FFFFFF;" d="M507.056,836.243c0-2.275-1.845-4.12-4.119-4.12c-2.271,0-4.115,1.845-4.115,4.12
		c0,2.274,1.844,4.115,4.115,4.115C505.211,840.358,507.056,838.518,507.056,836.243"/>
	<path style="fill:#FFFFFF;" d="M622.5,817.458c0-0.49-0.402-0.892-0.895-0.892c-0.494,0-0.893,0.401-0.893,0.892
		c0,0.492,0.398,0.895,0.893,0.895C622.098,818.352,622.5,817.95,622.5,817.458"/>
	<path style="fill:#FFFFFF;" d="M615.402,836.243c0-1.76-1.43-3.188-3.188-3.188c-1.76,0-3.189,1.429-3.189,3.188
		c0,1.76,1.43,3.188,3.189,3.188C613.973,839.431,615.402,838.003,615.402,836.243"/>
	<path style="fill:#FFFFFF;" d="M616.013,855.024c0-2.098-1.7-3.795-3.798-3.795c-2.1,0-3.797,1.697-3.797,3.795
		c0,2.098,1.697,3.799,3.797,3.799C614.312,858.823,616.013,857.122,616.013,855.024"/>
	<path style="fill:#FFFFFF;" d="M680.76,845.634c0-1.332-1.078-2.412-2.412-2.412c-1.331,0-2.412,1.08-2.412,2.412
		c0,1.331,1.081,2.412,2.412,2.412C679.682,848.046,680.76,846.965,680.76,845.634"/>
	<path style="fill:#FFFFFF;" d="M660.726,855.024c0-0.639-0.521-1.16-1.16-1.16c-0.641,0-1.16,0.521-1.16,1.16
		c0,0.643,0.52,1.16,1.16,1.16C660.205,856.185,660.726,855.667,660.726,855.024"/>
	<path style="fill:#FFFFFF;" d="M820.158,817.458c0-0.346-0.28-0.626-0.625-0.626c-0.351,0-0.631,0.28-0.631,0.626
		c0,0.349,0.28,0.629,0.631,0.629C819.878,818.087,820.158,817.807,820.158,817.458"/>
	<path style="fill:#FFFFFF;" d="M824.477,836.243c0-2.732-2.212-4.948-4.943-4.948c-2.732,0-4.948,2.216-4.948,4.948
		c0,2.73,2.216,4.943,4.948,4.943C822.265,841.186,824.477,838.974,824.477,836.243"/>
	<path style="fill:#FFFFFF;" d="M831.842,836.243c0-1.617-1.306-2.924-2.918-2.924c-1.616,0-2.924,1.307-2.924,2.924
		c0,1.611,1.308,2.922,2.924,2.922C830.536,839.165,831.842,837.854,831.842,836.243"/>
	<path style="fill:#FFFFFF;" d="M779.06,836.272c0-2.492-2.018-4.514-4.515-4.514c-2.491,0-4.514,2.021-4.514,4.514
		c0,2.492,2.023,4.514,4.514,4.514C777.042,840.786,779.06,838.765,779.06,836.272"/>
	<path style="fill:#FFFFFF;" d="M906.431,836.241c0-1.377-1.118-2.494-2.494-2.494c-1.383,0-2.498,1.117-2.498,2.494
		c0,1.381,1.115,2.497,2.498,2.497C905.312,838.738,906.431,837.622,906.431,836.241"/>
	<path style="fill:#FFFFFF;" d="M867.62,845.634c0-0.58-0.469-1.047-1.049-1.047c-0.577,0-1.049,0.467-1.049,1.047
		c0,0.576,0.472,1.048,1.049,1.048C867.151,846.682,867.62,846.21,867.62,845.634"/>
	<path style="fill:#FFFFFF;" d="M906.436,845.634c0-1.384-1.121-2.504-2.5-2.504c-1.385,0-2.505,1.12-2.505,2.504
		c0,1.38,1.12,2.504,2.505,2.504C905.315,848.138,906.436,847.014,906.436,845.634"/>
	<path style="fill:#FFFFFF;" d="M574.194,826.852c0-0.991-0.804-1.792-1.792-1.792c-0.992,0-1.793,0.801-1.793,1.792
		c0,0.989,0.801,1.789,1.793,1.789C573.391,828.641,574.194,827.841,574.194,826.852"/>
	<path style="fill:#FFFFFF;" d="M536.086,836.241c0-0.576-0.468-1.048-1.049-1.048c-0.576,0-1.047,0.472-1.047,1.048
		c0,0.58,0.471,1.047,1.047,1.047C535.618,837.288,536.086,836.821,536.086,836.241"/>
	<path style="fill:#FFFFFF;" d="M574.902,845.634c0-1.384-1.119-2.504-2.5-2.504c-1.384,0-2.504,1.12-2.504,2.504
		c0,1.38,1.12,2.504,2.504,2.504C573.783,848.138,574.902,847.014,574.902,845.634"/>
	<path style="fill:#FFFFFF;" d="M534.459,728.328c0-1.176-0.951-2.129-2.125-2.129s-2.129,0.953-2.129,2.129
		c0,1.174,0.955,2.127,2.129,2.127S534.459,729.502,534.459,728.328"/>
	<path style="fill:#FFFFFF;" d="M545.867,737.718c0-2.286-1.856-4.141-4.143-4.141c-2.289,0-4.141,1.854-4.141,4.141
		c0,2.29,1.852,4.142,4.141,4.142C544.012,741.859,545.867,740.008,545.867,737.718"/>
	<path style="fill:#FFFFFF;" d="M511.541,709.547c0-2.493-2.021-4.514-4.514-4.514c-2.488,0-4.51,2.021-4.51,4.514
		c0,2.488,2.022,4.509,4.51,4.509C509.52,714.056,511.541,712.035,511.541,709.547"/>
	<path style="fill:#FFFFFF;" d="M649.102,728.328c0-1.684-1.365-3.045-3.043-3.045c-1.684,0-3.045,1.361-3.045,3.045
		c0,1.682,1.361,3.044,3.045,3.044C647.736,731.372,649.102,730.01,649.102,728.328"/>
	<path style="fill:#FFFFFF;" d="M647.188,756.504c0-0.627-0.504-1.135-1.129-1.135c-0.627,0-1.135,0.508-1.135,1.135
		c0,0.621,0.508,1.129,1.135,1.129C646.684,757.633,647.188,757.125,647.188,756.504"/>
	<path style="fill:#FFFFFF;" d="M691.971,737.718c0-1.034-0.838-1.874-1.879-1.874c-1.031,0-1.871,0.84-1.871,1.874
		c0,1.035,0.84,1.874,1.871,1.874C691.133,739.592,691.971,738.753,691.971,737.718"/>
	<path style="fill:#FFFFFF;" d="M597.443,728.205c0-1.653-1.34-2.994-2.992-2.994c-1.656,0-2.998,1.341-2.998,2.994
		c0,1.656,1.342,2.996,2.998,2.996C596.103,731.201,597.443,729.861,597.443,728.205"/>
	<path style="fill:#FFFFFF;" d="M598.182,756.502c0-2.058-1.672-3.73-3.73-3.73c-2.062,0-3.73,1.672-3.73,3.73
		c0,2.062,1.668,3.731,3.73,3.731C596.51,760.232,598.182,758.564,598.182,756.502"/>
</g>
<g id="Ebene_1">
</g>
</svg>
