<?xml version="1.0" encoding="iso-8859-1"?>
<!-- Generator: Adobe Illustrator 18.0.0, SVG Export Plug-In . SVG Version: 6.00 Build 0)  -->
<!DOCTYPE svg PUBLIC "-//W3C//DTD SVG 1.1//EN" "http://www.w3.org/Graphics/SVG/1.1/DTD/svg11.dtd">
<svg version="1.1" xmlns="http://www.w3.org/2000/svg" xmlns:xlink="http://www.w3.org/1999/xlink" x="0px" y="0px"
	 viewBox="0 0 2800 700" style="enable-background:new 0 0 2800 700;" xml:space="preserve">
<g id="f3">
	<path style="fill:#FFFFFF;" d="M854.155,397.377c0-3.812-3.092-6.913-6.915-6.913c-3.821,0-6.912,3.101-6.912,6.913
		c0,3.821,3.092,6.915,6.912,6.915C851.063,404.292,854.155,401.198,854.155,397.377"/>
	<path style="fill:#FFFFFF;" d="M915.787,419.288c0-0.843-0.688-1.531-1.538-1.531c-0.843,0-1.529,0.688-1.529,1.531
		c0,0.848,0.686,1.536,1.529,1.536C915.099,420.823,915.787,420.135,915.787,419.288"/>
	<path style="fill:#FFFFFF;" d="M895.929,485.023c0-1.984-1.606-3.582-3.591-3.582c-1.975,0-3.579,1.597-3.579,3.582
		c0,1.982,1.604,3.581,3.579,3.581C894.322,488.605,895.929,487.005,895.929,485.023"/>
	<path style="fill:#FFFFFF;" d="M1433.191,419.288c0-2.249-1.827-4.083-4.081-4.083c-2.258,0-4.085,1.834-4.085,4.083
		c0,2.256,1.827,4.087,4.085,4.087C1431.364,423.375,1433.191,421.543,1433.191,419.288"/>
	<path style="fill:#FFFFFF;" d="M1967.663,463.114c0-6.106-4.949-11.055-11.052-11.055c-6.106,0-11.053,4.949-11.053,11.055
		c0,6.106,4.947,11.052,11.053,11.052C1962.714,474.167,1967.663,469.22,1967.663,463.114"/>
	<path style="fill:#FFFFFF;" d="M1048.802,397.377c0-6.19-5.024-11.216-11.216-11.216c-6.193,0-11.217,5.026-11.217,11.216
		c0,6.202,5.024,11.225,11.217,11.225C1043.778,408.602,1048.802,403.578,1048.802,397.377"/>
	<path style="fill:#FFFFFF;" d="M1812.636,397.447c0-2.648-2.146-4.794-4.8-4.794c-2.645,0-4.789,2.146-4.789,4.794
		c0,2.652,2.144,4.8,4.789,4.8C1810.49,402.248,1812.636,400.099,1812.636,397.447"/>
	<path style="fill:#FFFFFF;" d="M1832.622,397.447c0-1.581-1.287-2.871-2.866-2.871c-1.593,0-2.877,1.289-2.877,2.871
		c0,1.588,1.285,2.875,2.877,2.875C1831.335,400.323,1832.622,399.035,1832.622,397.447"/>
	<path style="fill:#FFFFFF;" d="M1836.511,485.091c0-3.737-3.03-6.758-6.755-6.758c-3.741,0-6.771,3.021-6.771,6.758
		c0,3.736,3.03,6.76,6.771,6.76C1833.481,491.851,1836.511,488.828,1836.511,485.091"/>
	<path style="fill:#FFFFFF;" d="M2046.706,419.292c0-1.317-1.059-2.386-2.376-2.386c-1.315,0-2.383,1.069-2.383,2.386
		c0,1.312,1.069,2.383,2.383,2.383C2045.646,421.675,2046.706,420.605,2046.706,419.292"/>
	<path style="fill:#FFFFFF;" d="M1250.66,506.938c0-0.891-0.722-1.606-1.609-1.606c-0.882,0-1.597,0.715-1.597,1.606
		c0,0.886,0.715,1.6,1.597,1.6C1249.938,508.538,1250.66,507.825,1250.66,506.938"/>
	<path style="fill:#FFFFFF;" d="M1340.054,506.938c0-2.121-1.716-3.834-3.828-3.834c-2.121,0-3.837,1.713-3.837,3.834
		c0,2.114,1.716,3.83,3.837,3.83C1338.338,510.768,1340.054,509.053,1340.054,506.938"/>
	<path style="fill:#FFFFFF;" d="M1669.305,463.11c0-3.737-3.04-6.767-6.776-6.767c-3.739,0-6.767,3.03-6.767,6.767
		s3.028,6.774,6.767,6.774C1666.265,469.883,1669.305,466.846,1669.305,463.11"/>
	<path style="fill:#FFFFFF;" d="M1561.492,233.251c0-5.297-4.311-9.594-9.606-9.594c-5.299,0-9.596,4.297-9.596,9.594
		c0,5.302,4.297,9.603,9.596,9.603C1557.182,242.854,1561.492,238.552,1561.492,233.251"/>
	<path style="fill:#FFFFFF;" d="M1557.319,277.079c0-2.998-2.438-5.429-5.432-5.429c-2.998,0-5.432,2.431-5.432,5.429
		c0,2.987,2.433,5.418,5.432,5.418C1554.88,282.497,1557.319,280.066,1557.319,277.079"/>
</g>
<g id="Ebene_1">
</g>
</svg>
