<?xml version="1.0" encoding="iso-8859-1"?>
<!-- Generator: Adobe Illustrator 18.0.0, SVG Export Plug-In . SVG Version: 6.00 Build 0)  -->
<!DOCTYPE svg PUBLIC "-//W3C//DTD SVG 1.1//EN" "http://www.w3.org/Graphics/SVG/1.1/DTD/svg11.dtd">
<svg version="1.1" xmlns="http://www.w3.org/2000/svg" xmlns:xlink="http://www.w3.org/1999/xlink" x="0px" y="0px"
	 viewBox="0 0 2800 700" style="enable-background:new 0 0 2800 700;" xml:space="preserve">
<g id="f4">
	<path style="fill:#FFFFFF;" d="M790.534,419.288c0-4.983-4.04-9.022-9.029-9.022c-4.981,0-9.02,4.04-9.02,9.022
		c0,4.987,4.039,9.027,9.02,9.027C786.494,428.315,790.534,424.275,790.534,419.288"/>
	<path style="fill:#FFFFFF;" d="M697.071,441.206c0-1.779-1.433-3.212-3.203-3.212c-1.777,0-3.213,1.433-3.213,3.212
		c0,1.768,1.436,3.201,3.213,3.201C695.638,444.407,697.071,442.974,697.071,441.206"/>
	<path style="fill:#FFFFFF;" d="M741.087,441.206c0-1.882-1.517-3.404-3.399-3.404c-1.882,0-3.402,1.522-3.402,3.404
		c0,1.871,1.52,3.39,3.402,3.39C739.57,444.596,741.087,443.076,741.087,441.206"/>
	<path style="fill:#FFFFFF;" d="M810.766,463.114c0-4.065-3.29-7.343-7.343-7.343c-4.062,0-7.352,3.279-7.352,7.343
		c0,4.053,3.29,7.341,7.352,7.341C807.476,470.455,810.766,467.168,810.766,463.114"/>
	<path style="fill:#FFFFFF;" d="M835.149,463.114c0-5.423-4.397-9.818-9.817-9.818c-5.427,0-9.815,4.395-9.815,9.818
		c0,5.418,4.388,9.815,9.815,9.815C830.752,472.93,835.149,468.532,835.149,463.114"/>
	<path style="fill:#FFFFFF;" d="M941.69,419.288c0-3.057-2.465-5.534-5.532-5.534c-3.055,0-5.534,2.477-5.534,5.534
		c0,3.067,2.479,5.532,5.534,5.532C939.224,424.82,941.69,422.355,941.69,419.288"/>
	<path style="fill:#FFFFFF;" d="M959.648,419.288c0-0.87-0.706-1.572-1.572-1.572c-0.877,0-1.581,0.702-1.581,1.572
		c0,0.875,0.704,1.577,1.581,1.577C958.941,420.864,959.648,420.163,959.648,419.288"/>
	<path style="fill:#FFFFFF;" d="M965.423,506.932c0-4.06-3.288-7.359-7.348-7.359c-4.071,0-7.359,3.299-7.359,7.359
		c0,4.06,3.288,7.359,7.359,7.359C962.136,514.291,965.423,510.992,965.423,506.932"/>
	<path style="fill:#FFFFFF;" d="M1461.917,441.206c0-6.022-4.876-10.899-10.897-10.899c-6.013,0-10.893,4.878-10.893,10.899
		c0,6.01,4.88,10.888,10.893,10.888C1457.041,452.094,1461.917,447.216,1461.917,441.206"/>
	<path style="fill:#FFFFFF;" d="M1414.053,506.932c0-3.786-3.064-6.853-6.855-6.853c-3.784,0-6.86,3.067-6.86,6.853
		c0,3.787,3.076,6.862,6.86,6.862C1410.989,513.794,1414.053,510.718,1414.053,506.932"/>
	<path style="fill:#FFFFFF;" d="M1552.734,463.114c0-7.266-5.883-13.16-13.153-13.16c-7.264,0-13.146,5.894-13.146,13.16
		c0,7.266,5.882,13.151,13.146,13.151C1546.852,476.265,1552.734,470.38,1552.734,463.114"/>
	<path style="fill:#FFFFFF;" d="M1049.98,441.208c0-6.844-5.55-12.392-12.394-12.392c-6.844,0-12.385,5.548-12.385,12.392
		c0,6.837,5.541,12.385,12.385,12.385C1044.43,453.593,1049.98,448.045,1049.98,441.208"/>
	<path style="fill:#FFFFFF;" d="M1695.05,463.11c0-5.764-4.684-10.449-10.448-10.449c-5.767,0-10.446,4.684-10.446,10.449
		c0,5.773,4.68,10.446,10.446,10.446C1690.366,473.556,1695.05,468.883,1695.05,463.11"/>
	<path style="fill:#FFFFFF;" d="M1739.667,463.11c0-6.031-4.891-10.92-10.922-10.92c-6.029,0-10.92,4.889-10.92,10.92
		c0,6.029,4.892,10.92,10.92,10.92C1734.776,474.03,1739.667,469.138,1739.667,463.11"/>
	<path style="fill:#FFFFFF;" d="M1669.305,485.023c0-3.737-3.04-6.767-6.776-6.767c-3.739,0-6.767,3.03-6.767,6.767
		c0,3.736,3.028,6.767,6.767,6.767C1666.265,491.79,1669.305,488.759,1669.305,485.023"/>
	<path style="fill:#FFFFFF;" d="M1691.473,506.936c0-3.805-3.076-6.876-6.871-6.876c-3.794,0-6.867,3.071-6.867,6.876
		c0,3.793,3.073,6.867,6.867,6.867C1688.397,513.803,1691.473,510.73,1691.473,506.936"/>
	<path style="fill:#FFFFFF;" d="M1269.343,189.435c0-2.597-2.105-4.689-4.689-4.689c-2.593,0-4.689,2.092-4.689,4.689
		c0,2.584,2.096,4.689,4.689,4.689C1267.238,194.124,1269.343,192.019,1269.343,189.435"/>
	<path style="fill:#FFFFFF;" d="M1293.453,211.344c0-3.807-3.085-6.89-6.89-6.89c-3.805,0-6.885,3.083-6.885,6.89
		c0,3.803,3.08,6.885,6.885,6.885C1290.368,218.229,1293.453,215.147,1293.453,211.344"/>
	<path style="fill:#FFFFFF;" d="M1511.095,189.435c0-1.677-1.358-3.03-3.03-3.03c-1.677,0-3.03,1.353-3.03,3.03
		c0,1.668,1.353,3.026,3.03,3.026C1509.737,192.461,1511.095,191.103,1511.095,189.435"/>
	<path style="fill:#FFFFFF;" d="M1561.492,255.162c0-5.299-4.297-9.603-9.606-9.603c-5.299,0-9.601,4.304-9.601,9.603
		c0,5.309,4.302,9.61,9.601,9.61C1557.195,264.772,1561.492,260.47,1561.492,255.162"/>
	<path style="fill:#FFFFFF;" d="M1660,211.344c0-2.966-2.401-5.37-5.368-5.37c-2.967,0-5.372,2.404-5.372,5.37
		c0,2.962,2.406,5.368,5.372,5.368C1657.598,216.712,1660,214.306,1660,211.344"/>
</g>
<g id="Ebene_1">
</g>
</svg>
