<?xml version="1.0" encoding="iso-8859-1"?>
<!-- Generator: Adobe Illustrator 18.0.0, SVG Export Plug-In . SVG Version: 6.00 Build 0)  -->
<!DOCTYPE svg PUBLIC "-//W3C//DTD SVG 1.1//EN" "http://www.w3.org/Graphics/SVG/1.1/DTD/svg11.dtd">
<svg version="1.1" xmlns="http://www.w3.org/2000/svg" xmlns:xlink="http://www.w3.org/1999/xlink" x="0px" y="0px"
	 viewBox="0 0 1200 1643.104" style="enable-background:new 0 0 1200 1643.104;" xml:space="preserve">
<g id="f5">
	<path style="fill:#FFFFFF;" d="M328.938,817.458c0-2.038-1.652-3.693-3.693-3.693c-2.038,0-3.693,1.655-3.693,3.693
		c0,2.041,1.655,3.695,3.693,3.695C327.285,821.153,328.938,819.499,328.938,817.458"/>
	<path style="fill:#FFFFFF;" d="M311.447,836.243c0-2.754-2.232-4.988-4.985-4.988c-2.753,0-4.987,2.234-4.987,4.988
		c0,2.753,2.234,4.984,4.987,4.984C309.216,841.227,311.447,838.996,311.447,836.243"/>
	<path style="fill:#FFFFFF;" d="M337.849,836.243c0-1.775-1.439-3.214-3.214-3.214c-1.774,0-3.214,1.439-3.214,3.214
		c0,1.773,1.439,3.213,3.214,3.213C336.409,839.456,337.849,838.017,337.849,836.243"/>
	<path style="fill:#FFFFFF;" d="M476.495,808.066c0-0.957-0.774-1.729-1.731-1.729c-0.957,0-1.733,0.773-1.733,1.729
		c0,0.958,0.776,1.733,1.733,1.733C475.721,809.8,476.495,809.024,476.495,808.066"/>
	<path style="fill:#FFFFFF;" d="M488.671,836.243c0-2.496-2.024-4.518-4.516-4.518c-2.496,0-4.518,2.021-4.518,4.518
		c0,2.492,2.021,4.513,4.518,4.513C486.646,840.756,488.671,838.735,488.671,836.243"/>
	<path style="fill:#FFFFFF;" d="M682.848,826.852c0-2.485-2.015-4.498-4.5-4.498c-2.48,0-4.493,2.013-4.493,4.498
		c0,2.48,2.013,4.494,4.493,4.494C680.833,831.347,682.848,829.333,682.848,826.852"/>
	<path style="fill:#FFFFFF;" d="M689.739,845.634c0-1.106-0.896-1.999-1.999-1.999c-1.102,0-1.997,0.893-1.997,1.999
		c0,1.103,0.895,1.998,1.997,1.998C688.843,847.632,689.739,846.737,689.739,845.634"/>
	<path style="fill:#FFFFFF;" d="M841.119,845.634c0-1.551-1.255-2.81-2.805-2.81c-1.55,0-2.809,1.259-2.809,2.81
		c0,1.549,1.259,2.809,2.809,2.809C839.864,848.442,841.119,847.183,841.119,845.634"/>
	<path style="fill:#FFFFFF;" d="M905.576,855.027c0-0.909-0.734-1.643-1.64-1.643c-0.91,0-1.644,0.734-1.644,1.643
		c0,0.906,0.734,1.642,1.644,1.642C904.842,856.669,905.576,855.934,905.576,855.027"/>
	<path style="fill:#FFFFFF;" d="M554.553,817.46c0-0.459-0.373-0.831-0.831-0.831c-0.461,0-0.833,0.372-0.833,0.831
		c0,0.457,0.372,0.829,0.833,0.829C554.18,818.289,554.553,817.917,554.553,817.46"/>
	<path style="fill:#FFFFFF;" d="M714.689,808.065c0-1.339-1.088-2.424-2.426-2.424s-2.423,1.085-2.423,2.424
		c0,1.338,1.085,2.426,2.423,2.426S714.689,809.403,714.689,808.065"/>
	<path style="fill:#FFFFFF;" d="M726.122,817.458c0-2.427-1.97-4.398-4.397-4.398c-2.427,0-4.397,1.972-4.397,4.398
		c0,2.426,1.97,4.396,4.397,4.396C724.152,821.854,726.122,819.884,726.122,817.458"/>
	<path style="fill:#FFFFFF;" d="M480.58,756.504c0-0.957-0.771-1.73-1.725-1.73c-0.955,0-1.73,0.773-1.73,1.73
		c0,0.953,0.775,1.727,1.73,1.727C479.809,758.23,480.58,757.457,480.58,756.504"/>
	<path style="fill:#FFFFFF;" d="M700.783,718.937c0-0.719-0.582-1.297-1.295-1.297c-0.719,0-1.297,0.578-1.297,1.297
		c0,0.713,0.578,1.295,1.297,1.295C700.201,720.232,700.783,719.65,700.783,718.937"/>
	<path style="fill:#FFFFFF;" d="M719.584,718.937c0-0.726-0.588-1.314-1.315-1.314c-0.725,0-1.314,0.589-1.314,1.314
		c0,0.725,0.59,1.314,1.314,1.314C718.996,720.252,719.584,719.662,719.584,718.937"/>
	<path style="fill:#FFFFFF;" d="M704.119,747.109c0-2.559-2.074-4.631-4.631-4.631c-2.557,0-4.635,2.072-4.635,4.631
		s2.078,4.635,4.635,4.635C702.045,751.744,704.119,749.668,704.119,747.109"/>
	<path style="fill:#FFFFFF;" d="M701.814,756.504c0-1.286-1.043-2.33-2.326-2.33c-1.285,0-2.33,1.044-2.33,2.33
		c0,1.281,1.045,2.324,2.33,2.324C700.771,758.828,701.814,757.785,701.814,756.504"/>
	<path style="fill:#FFFFFF;" d="M612.848,737.72c0-0.468-0.379-0.846-0.846-0.846c-0.469,0-0.846,0.378-0.846,0.846
		c0,0.464,0.377,0.842,0.846,0.842C612.469,738.561,612.848,738.184,612.848,737.72"/>
</g>
<g id="Ebene_1">
</g>
</svg>
