<?xml version="1.0" encoding="iso-8859-1"?>
<!-- Generator: Adobe Illustrator 18.0.0, SVG Export Plug-In . SVG Version: 6.00 Build 0)  -->
<!DOCTYPE svg PUBLIC "-//W3C//DTD SVG 1.1//EN" "http://www.w3.org/Graphics/SVG/1.1/DTD/svg11.dtd">
<svg version="1.1" xmlns="http://www.w3.org/2000/svg" xmlns:xlink="http://www.w3.org/1999/xlink" x="0px" y="0px"
	 viewBox="0 0 2800 700" style="enable-background:new 0 0 2800 700;" xml:space="preserve">
<g id="f5">
	<path style="fill:#FFFFFF;" d="M768.213,419.288c0-4.755-3.855-8.617-8.617-8.617c-4.755,0-8.617,3.862-8.617,8.617
		c0,4.762,3.862,8.621,8.617,8.621C764.358,427.909,768.213,424.049,768.213,419.288"/>
	<path style="fill:#FFFFFF;" d="M727.408,463.114c0-6.425-5.206-11.638-11.631-11.638c-6.423,0-11.636,5.213-11.636,11.638
		c0,6.423,5.213,11.629,11.636,11.629C722.201,474.743,727.408,469.537,727.408,463.114"/>
	<path style="fill:#FFFFFF;" d="M789.003,463.114c0-4.142-3.358-7.498-7.498-7.498s-7.498,3.356-7.498,7.498
		c0,4.137,3.358,7.496,7.498,7.496S789.003,467.252,789.003,463.114"/>
	<path style="fill:#FFFFFF;" d="M1112.471,397.377c0-2.233-1.807-4.035-4.039-4.035c-2.233,0-4.044,1.802-4.044,4.035
		c0,2.235,1.811,4.044,4.044,4.044C1110.664,401.421,1112.471,399.612,1112.471,397.377"/>
	<path style="fill:#FFFFFF;" d="M1140.878,463.114c0-5.824-4.723-10.54-10.535-10.54c-5.823,0-10.54,4.716-10.54,10.54
		c0,5.814,4.716,10.528,10.54,10.528C1136.155,473.643,1140.878,468.929,1140.878,463.114"/>
	<path style="fill:#FFFFFF;" d="M1593.9,441.206c0-5.798-4.7-10.494-10.499-10.494c-5.787,0-10.483,4.696-10.483,10.494
		c0,5.787,4.696,10.485,10.483,10.485C1589.2,451.691,1593.9,446.993,1593.9,441.206"/>
	<path style="fill:#FFFFFF;" d="M1609.978,485.023c0-2.579-2.092-4.664-4.664-4.664c-2.572,0-4.659,2.085-4.659,4.664
		c0,2.574,2.087,4.661,4.659,4.661C1607.887,489.684,1609.978,487.598,1609.978,485.023"/>
	<path style="fill:#FFFFFF;" d="M1963.154,485.023c0-3.618-2.927-6.555-6.543-6.555c-3.616,0-6.553,2.937-6.553,6.555
		c0,3.613,2.937,6.553,6.553,6.553C1960.226,491.576,1963.154,488.636,1963.154,485.023"/>
	<path style="fill:#FFFFFF;" d="M2113.535,506.938c0-2.121-1.713-3.834-3.825-3.834c-2.123,0-3.837,1.713-3.837,3.834
		c0,2.114,1.713,3.83,3.837,3.83C2111.821,510.768,2113.535,509.053,2113.535,506.938"/>
	<path style="fill:#FFFFFF;" d="M1294.582,419.292c0-1.071-0.87-1.939-1.939-1.939c-1.076,0-1.943,0.868-1.943,1.939
		c0,1.066,0.868,1.934,1.943,1.934C1293.712,421.227,1294.582,420.359,1294.582,419.292"/>
	<path style="fill:#FFFFFF;" d="M1668.188,397.374c0-3.123-2.538-5.655-5.659-5.655c-3.121,0-5.653,2.531-5.653,5.655
		c0,3.121,2.531,5.659,5.653,5.659C1665.65,403.034,1668.188,400.496,1668.188,397.374"/>
	<path style="fill:#FFFFFF;" d="M1694.861,419.288c0-5.662-4.596-10.262-10.26-10.262c-5.662,0-10.257,4.6-10.257,10.262
		c0,5.659,4.596,10.257,10.257,10.257C1690.265,429.545,1694.861,424.947,1694.861,419.288"/>
	<path style="fill:#FFFFFF;" d="M1122.001,277.079c0-2.233-1.8-4.037-4.024-4.037c-2.228,0-4.037,1.805-4.037,4.037
		c0,2.224,1.809,4.028,4.037,4.028C1120.201,281.108,1122.001,279.303,1122.001,277.079"/>
	<path style="fill:#FFFFFF;" d="M1635.744,189.435c0-1.677-1.358-3.026-3.021-3.026c-1.677,0-3.026,1.349-3.026,3.026
		c0,1.663,1.349,3.021,3.026,3.021C1634.386,192.456,1635.744,191.099,1635.744,189.435"/>
	<path style="fill:#FFFFFF;" d="M1679.607,189.435c0-1.693-1.372-3.067-3.067-3.067c-1.691,0-3.067,1.374-3.067,3.067
		c0,1.691,1.376,3.067,3.067,3.067C1678.236,192.502,1679.607,191.126,1679.607,189.435"/>
	<path style="fill:#FFFFFF;" d="M1643.527,255.162c0-5.969-4.839-10.804-10.804-10.804c-5.965,0-10.813,4.835-10.813,10.804
		s4.848,10.813,10.813,10.813C1638.688,265.975,1643.527,261.131,1643.527,255.162"/>
	<path style="fill:#FFFFFF;" d="M1638.15,277.079c0-3.001-2.433-5.436-5.427-5.436c-2.998,0-5.436,2.436-5.436,5.436
		c0,2.989,2.438,5.422,5.436,5.422C1635.717,282.502,1638.15,280.068,1638.15,277.079"/>
	<path style="fill:#FFFFFF;" d="M1430.587,233.255c0-1.091-0.884-1.973-1.973-1.973c-1.094,0-1.973,0.882-1.973,1.973
		c0,1.082,0.879,1.964,1.973,1.964C1429.703,235.219,1430.587,234.337,1430.587,233.255"/>
</g>
<g id="Ebene_1">
</g>
</svg>
