<?xml version="1.0" encoding="iso-8859-1"?>
<!-- Generator: Adobe Illustrator 18.0.0, SVG Export Plug-In . SVG Version: 6.00 Build 0)  -->
<!DOCTYPE svg PUBLIC "-//W3C//DTD SVG 1.1//EN" "http://www.w3.org/Graphics/SVG/1.1/DTD/svg11.dtd">
<svg version="1.1" xmlns="http://www.w3.org/2000/svg" xmlns:xlink="http://www.w3.org/1999/xlink" x="0px" y="0px"
	 viewBox="0 0 2800 700" style="enable-background:new 0 0 2800 700;" xml:space="preserve">
<g id="f7">
	<path style="fill:#FFFFFF;" d="M768.726,397.377c0-5.042-4.087-9.129-9.129-9.129c-5.042,0-9.129,4.087-9.129,9.129
		c0,5.051,4.087,9.139,9.129,9.139C764.638,406.515,768.726,402.428,768.726,397.377"/>
	<path style="fill:#FFFFFF;" d="M1138.551,506.932c0-4.534-3.675-8.211-8.209-8.211c-4.536,0-8.211,3.677-8.211,8.211
		c0,4.534,3.675,8.211,8.211,8.211C1134.876,515.143,1138.551,511.466,1138.551,506.932"/>
	<path style="fill:#FFFFFF;" d="M1477.462,485.023c0-2.499-2.028-4.534-4.525-4.534c-2.511,0-4.538,2.035-4.538,4.534
		s2.028,4.534,4.538,4.534C1475.434,489.557,1477.462,487.522,1477.462,485.023"/>
	<path style="fill:#FFFFFF;" d="M1458.506,506.932c0-4.133-3.347-7.482-7.487-7.482c-4.131,0-7.482,3.349-7.482,7.482
		c0,4.131,3.352,7.489,7.482,7.489C1455.159,514.421,1458.506,511.062,1458.506,506.932"/>
	<path style="fill:#FFFFFF;" d="M1572.109,506.932c0-5.865-4.753-10.617-10.617-10.617c-5.862,0-10.617,4.753-10.617,10.617
		s4.755,10.617,10.617,10.617C1567.357,517.549,1572.109,512.796,1572.109,506.932"/>
	<path style="fill:#FFFFFF;" d="M1893.773,485.023c0-1.6-1.294-2.896-2.898-2.896c-1.602,0-2.896,1.296-2.896,2.896
		c0,1.597,1.294,2.893,2.896,2.893C1892.479,487.917,1893.773,486.62,1893.773,485.023"/>
	<path style="fill:#FFFFFF;" d="M2113.888,441.203c0-2.313-1.873-4.181-4.178-4.181c-2.317,0-4.185,1.868-4.185,4.181
		c0,2.308,1.868,4.174,4.185,4.174C2112.015,445.377,2113.888,443.511,2113.888,441.203"/>
	<path style="fill:#FFFFFF;" d="M1317.423,419.292c0-1.654-1.34-2.985-2.992-2.985c-1.645,0-2.984,1.331-2.984,2.985
		c0,1.649,1.34,2.98,2.984,2.98C1316.083,422.272,1317.423,420.942,1317.423,419.292"/>
	<path style="fill:#FFFFFF;" d="M1251.519,441.203c0-1.37-1.096-2.477-2.467-2.477c-1.36,0-2.467,1.107-2.467,2.477
		c0,1.36,1.107,2.467,2.467,2.467C1250.423,443.671,1251.519,442.564,1251.519,441.203"/>
	<path style="fill:#FFFFFF;" d="M1370.096,189.431c0-1.608-1.303-2.909-2.907-2.909c-1.604,0-2.912,1.301-2.912,2.909
		c0,1.604,1.308,2.905,2.912,2.905C1368.793,192.336,1370.096,191.035,1370.096,189.431"/>
	<path style="fill:#FFFFFF;" d="M1352.499,211.057c0-3.194-2.593-5.778-5.787-5.778c-3.194,0-5.778,2.584-5.778,5.778
		c0,3.19,2.584,5.778,5.778,5.778C1349.906,216.835,1352.499,214.247,1352.499,211.057"/>
	<path style="fill:#FFFFFF;" d="M1429.325,255.157c0-0.39-0.323-0.706-0.711-0.706c-0.401,0-0.716,0.317-0.716,0.706
		c0,0.396,0.315,0.716,0.716,0.716C1429.001,255.872,1429.325,255.553,1429.325,255.157"/>
</g>
<g id="Ebene_1">
</g>
</svg>
