<?xml version="1.0" encoding="iso-8859-1"?>
<!-- Generator: Adobe Illustrator 18.0.0, SVG Export Plug-In . SVG Version: 6.00 Build 0)  -->
<!DOCTYPE svg PUBLIC "-//W3C//DTD SVG 1.1//EN" "http://www.w3.org/Graphics/SVG/1.1/DTD/svg11.dtd">
<svg version="1.1" xmlns="http://www.w3.org/2000/svg" xmlns:xlink="http://www.w3.org/1999/xlink" x="0px" y="0px"
	 viewBox="0 0 2800 700" style="enable-background:new 0 0 2800 700;" xml:space="preserve">
<g id="f9">
	<path style="fill:#FFFFFF;" d="M699.71,419.288c0-3.231-2.611-5.842-5.842-5.842c-3.228,0-5.848,2.611-5.848,5.842
		c0,3.226,2.62,5.846,5.848,5.846C697.099,425.134,699.71,422.514,699.71,419.288"/>
	<path style="fill:#FFFFFF;" d="M726.943,441.206c0-6.174-4.999-11.173-11.166-11.173c-6.165,0-11.171,4.999-11.171,11.173
		c0,6.165,5.006,11.164,11.171,11.164C721.944,452.37,726.943,447.371,726.943,441.206"/>
	<path style="fill:#FFFFFF;" d="M746.988,506.932c0-5.135-4.165-9.3-9.3-9.3c-5.138,0-9.302,4.165-9.302,9.3
		c0,5.135,4.165,9.3,9.302,9.3C742.823,516.232,746.988,512.067,746.988,506.932"/>
	<path style="fill:#FFFFFF;" d="M981.463,441.206c0-0.816-0.663-1.479-1.479-1.479s-1.476,0.663-1.476,1.479
		c0,0.807,0.661,1.467,1.476,1.467S981.463,442.012,981.463,441.206"/>
	<path style="fill:#FFFFFF;" d="M1140.864,419.288c0-5.808-4.709-10.522-10.521-10.522c-5.817,0-10.521,4.714-10.521,10.522
		c0,5.814,4.705,10.526,10.521,10.526C1136.155,429.814,1140.864,425.102,1140.864,419.288"/>
	<path style="fill:#FFFFFF;" d="M1154.905,419.288c0-1.461-1.187-2.657-2.654-2.657c-1.47,0-2.654,1.196-2.654,2.657
		c0,1.467,1.185,2.661,2.654,2.661C1153.718,421.949,1154.905,420.755,1154.905,419.288"/>
	<path style="fill:#FFFFFF;" d="M1142.126,441.206c0-6.512-5.275-11.783-11.784-11.783c-6.511,0-11.784,5.272-11.784,11.783
		c0,6.5,5.272,11.775,11.784,11.775C1136.852,452.98,1142.126,447.706,1142.126,441.206"/>
	<path style="fill:#FFFFFF;" d="M1201.033,463.114c0-2.741-2.217-4.965-4.965-4.965c-2.739,0-4.955,2.224-4.955,4.965
		c0,2.739,2.217,4.962,4.955,4.962C1198.816,468.077,1201.033,465.853,1201.033,463.114"/>
	<path style="fill:#FFFFFF;" d="M1183.77,485.023c0-5.309-4.304-9.601-9.61-9.601c-5.3,0-9.601,4.293-9.601,9.601
		c0,5.309,4.301,9.601,9.601,9.601C1179.466,494.624,1183.77,490.332,1183.77,485.023"/>
	<path style="fill:#FFFFFF;" d="M1476.817,506.932c0-2.146-1.743-3.882-3.88-3.882c-2.151,0-3.894,1.736-3.894,3.882
		c0,2.146,1.743,3.892,3.894,3.892C1475.074,510.823,1476.817,509.078,1476.817,506.932"/>
	<path style="fill:#FFFFFF;" d="M1564.584,419.288c0-1.704-1.387-3.087-3.092-3.087c-1.706,0-3.085,1.383-3.085,3.087
		s1.378,3.085,3.085,3.085C1563.197,422.373,1564.584,420.992,1564.584,419.288"/>
	<path style="fill:#FFFFFF;" d="M1980.508,441.206c0-1.112-0.891-2.003-1.989-2.003c-1.098,0-1.994,0.891-1.994,2.003
		c0,1.098,0.895,1.991,1.994,1.991C1979.617,443.197,1980.508,442.304,1980.508,441.206"/>
	<path style="fill:#FFFFFF;" d="M1937.884,485.023c0-1.761-1.424-3.197-3.183-3.197c-1.772,0-3.197,1.435-3.197,3.197
		c0,1.759,1.424,3.194,3.197,3.194C1936.46,488.217,1937.884,486.782,1937.884,485.023"/>
	<path style="fill:#FFFFFF;" d="M1981.235,485.023c0-1.495-1.219-2.716-2.716-2.716c-1.497,0-2.707,1.221-2.707,2.716
		c0,1.495,1.21,2.714,2.707,2.714C1980.016,487.737,1981.235,486.518,1981.235,485.023"/>
	<path style="fill:#FFFFFF;" d="M1049.98,463.221c0-6.847-5.55-12.392-12.394-12.392c-6.844,0-12.392,5.546-12.392,12.392
		c0,6.844,5.548,12.392,12.392,12.392C1044.43,475.613,1049.98,470.065,1049.98,463.221"/>
	<path style="fill:#FFFFFF;" d="M1819.293,419.365c0-6.329-5.129-11.458-11.458-11.458c-6.32,0-11.449,5.128-11.449,11.458
		c0,6.32,5.129,11.447,11.449,11.447C1814.165,430.812,1819.293,425.685,1819.293,419.365"/>
	<path style="fill:#FFFFFF;" d="M1837.956,419.365c0-4.536-3.675-8.211-8.2-8.211c-4.536,0-8.211,3.675-8.211,8.211
		c0,4.525,3.675,8.2,8.211,8.2C1834.281,427.565,1837.956,423.89,1837.956,419.365"/>
	<path style="fill:#FFFFFF;" d="M1836.049,507c0-3.477-2.814-6.293-6.293-6.293c-3.481,0-6.304,2.816-6.304,6.293
		c0,3.477,2.823,6.304,6.304,6.304C1833.235,513.304,1836.049,510.477,1836.049,507"/>
	<path style="fill:#FFFFFF;" d="M2090.901,419.292c0-1.654-1.337-2.985-2.991-2.985c-1.643,0-2.98,1.331-2.98,2.985
		c0,1.649,1.337,2.98,2.98,2.98C2089.564,422.272,2090.901,420.942,2090.901,419.292"/>
	<path style="fill:#FFFFFF;" d="M2024.981,463.11c0-1.344-1.094-2.445-2.447-2.445c-1.347,0-2.447,1.1-2.447,2.445
		c0,1.353,1.1,2.442,2.447,2.442C2023.888,465.552,2024.981,464.463,2024.981,463.11"/>
	<path style="fill:#FFFFFF;" d="M2057.284,463.11c0-7.149-5.805-12.946-12.955-12.946c-7.161,0-12.955,5.796-12.955,12.946
		c0,7.159,5.794,12.955,12.955,12.955C2051.479,476.064,2057.284,470.268,2057.284,463.11"/>
	<path style="fill:#FFFFFF;" d="M2057.193,485.023c0-7.104-5.762-12.864-12.864-12.864c-7.106,0-12.864,5.76-12.864,12.864
		s5.757,12.861,12.864,12.861C2051.431,497.884,2057.193,492.127,2057.193,485.023"/>
	<path style="fill:#FFFFFF;" d="M1273.225,419.292c0-1.317-1.062-2.386-2.374-2.386c-1.317,0-2.388,1.069-2.388,2.386
		c0,1.312,1.071,2.383,2.388,2.383C1272.164,421.675,1273.225,420.605,1273.225,419.292"/>
	<path style="fill:#FFFFFF;" d="M1283.801,463.11c0-7.149-5.803-12.946-12.95-12.946c-7.161,0-12.957,5.796-12.957,12.946
		c0,7.159,5.796,12.955,12.957,12.955C1277.998,476.064,1283.801,470.268,1283.801,463.11"/>
	<path style="fill:#FFFFFF;" d="M1324.094,485.023c0-5.336-4.329-9.656-9.662-9.656c-5.336,0-9.658,4.32-9.658,9.656
		c0,5.336,4.322,9.656,9.658,9.656C1319.765,494.679,1324.094,490.359,1324.094,485.023"/>
	<path style="fill:#FFFFFF;" d="M1320.772,506.938c0-3.504-2.837-6.341-6.341-6.341c-3.5,0-6.343,2.837-6.343,6.341
		c0,3.497,2.843,6.336,6.343,6.336C1317.936,513.275,1320.772,510.436,1320.772,506.938"/>
	<path style="fill:#FFFFFF;" d="M1669.305,419.288c0-3.737-3.04-6.767-6.776-6.767c-3.739,0-6.767,3.03-6.767,6.767
		c0,3.737,3.028,6.767,6.767,6.767C1666.265,426.055,1669.305,423.024,1669.305,419.288"/>
	<path style="fill:#FFFFFF;" d="M1740.665,485.018c0-6.029-4.892-10.918-10.923-10.918c-6.028,0-10.92,4.889-10.92,10.918
		c0,6.029,4.892,10.92,10.92,10.92C1735.773,495.939,1740.665,491.047,1740.665,485.018"/>
	<path style="fill:#FFFFFF;" d="M1290.85,189.435c0-2.372-1.918-4.29-4.288-4.29c-2.369,0-4.283,1.918-4.283,4.29
		c0,2.369,1.914,4.286,4.283,4.286C1288.932,193.721,1290.85,191.805,1290.85,189.435"/>
	<path style="fill:#FFFFFF;" d="M1247.712,255.162c0-2.739-2.228-4.965-4.967-4.965c-2.748,0-4.972,2.226-4.972,4.965
		c0,2.748,2.224,4.971,4.972,4.971C1245.484,260.133,1247.712,257.909,1247.712,255.162"/>
	<path style="fill:#FFFFFF;" d="M1123.423,189.435c0-3.019-2.438-5.457-5.445-5.457c-3.021,0-5.459,2.438-5.459,5.457
		c0,3.008,2.438,5.454,5.459,5.454C1120.985,194.89,1123.423,192.443,1123.423,189.435"/>
	<path style="fill:#FFFFFF;" d="M1171.396,211.344c0-5.3-4.302-9.601-9.601-9.601c-5.299,0-9.601,4.301-9.601,9.601
		c0,5.299,4.301,9.601,9.601,9.601C1167.095,220.945,1171.396,216.644,1171.396,211.344"/>
	<path style="fill:#FFFFFF;" d="M1123.423,255.162c0-3.008-2.438-5.45-5.445-5.45c-3.021,0-5.459,2.442-5.459,5.45
		c0,3.016,2.438,5.454,5.459,5.454C1120.985,260.616,1123.423,258.178,1123.423,255.162"/>
	<path style="fill:#FFFFFF;" d="M1498.792,233.257c0-6.988-5.655-12.645-12.631-12.645c-6.99,0-12.645,5.657-12.645,12.645
		c0,6.976,5.655,12.636,12.645,12.636C1493.137,245.893,1498.792,240.234,1498.792,233.257"/>
	<path style="fill:#FFFFFF;" d="M1560.294,211.344c0-4.648-3.759-8.407-8.407-8.407c-4.639,0-8.407,3.759-8.407,8.407
		c0,4.646,3.769,8.407,8.407,8.407C1556.535,219.751,1560.294,215.99,1560.294,211.344"/>
	<path style="fill:#FFFFFF;" d="M1656.309,255.162c0-0.925-0.752-1.679-1.677-1.679c-0.93,0-1.682,0.754-1.682,1.679
		c0,0.925,0.752,1.677,1.682,1.677C1655.557,256.838,1656.309,256.087,1656.309,255.162"/>
	<path style="fill:#FFFFFF;" d="M1644.247,233.251c0-6.364-5.163-11.526-11.524-11.526c-6.375,0-11.524,5.163-11.524,11.526
		c0,6.366,5.149,11.526,11.524,11.526C1639.084,244.777,1644.247,239.616,1644.247,233.251"/>
	<path style="fill:#FFFFFF;" d="M1391.572,189.431c0-2.158-1.745-3.914-3.905-3.914c-2.165,0-3.919,1.757-3.919,3.914
		c0,2.153,1.754,3.91,3.919,3.91C1389.827,193.34,1391.572,191.584,1391.572,189.431"/>
	<path style="fill:#FFFFFF;" d="M1371.892,233.255c0-2.599-2.105-4.7-4.703-4.7c-2.602,0-4.702,2.101-4.702,4.7
		c0,2.6,2.101,4.7,4.702,4.7C1369.787,237.955,1371.892,235.855,1371.892,233.255"/>
</g>
<g id="Ebene_1">
</g>
</svg>
