<?xml version="1.0" encoding="iso-8859-1"?>
<!-- Generator: Adobe Illustrator 18.0.0, SVG Export Plug-In . SVG Version: 6.00 Build 0)  -->
<!DOCTYPE svg PUBLIC "-//W3C//DTD SVG 1.1//EN" "http://www.w3.org/Graphics/SVG/1.1/DTD/svg11.dtd">
<svg version="1.1" xmlns="http://www.w3.org/2000/svg" xmlns:xlink="http://www.w3.org/1999/xlink" x="0px" y="0px"
	 viewBox="0 0 2800 700" style="enable-background:new 0 0 2800 700;" xml:space="preserve">
<g id="m1">
	<path style="fill:#FFFFFF;" d="M1048.967,186.643c0-6.249-5.069-11.319-11.321-11.319c-6.249,0-11.318,5.07-11.318,11.319
		c0,6.253,5.07,11.323,11.318,11.323C1043.899,197.966,1048.967,192.896,1048.967,186.643"/>
	<path style="fill:#FFFFFF;" d="M1090.338,208.518c0-4.943-4.002-8.942-8.944-8.942c-4.938,0-8.94,4-8.94,8.942
		s4.002,8.938,8.94,8.938C1086.336,217.456,1090.338,213.461,1090.338,208.518"/>
	<path style="fill:#FFFFFF;" d="M1105.096,230.389c0-1.002-0.815-1.823-1.827-1.823c-1.003,0-1.818,0.821-1.818,1.823
		c0,1.007,0.815,1.823,1.818,1.823C1104.281,232.212,1105.096,231.396,1105.096,230.389"/>
	<path style="fill:#FFFFFF;" d="M1245.187,186.643c0-6.838-5.538-12.375-12.378-12.375c-6.837,0-12.374,5.537-12.374,12.375
		c0,6.829,5.537,12.375,12.374,12.375C1239.649,199.018,1245.187,193.472,1245.187,186.643"/>
	<path style="fill:#FFFFFF;" d="M1309.747,230.389c0-6.244-5.061-11.309-11.314-11.309c-6.249,0-11.306,5.065-11.306,11.309
		c0,6.249,5.057,11.319,11.306,11.319C1304.686,241.707,1309.747,236.638,1309.747,230.389"/>
	<path style="fill:#FFFFFF;" d="M1324.333,252.259c0-2.217-1.801-4.018-4.023-4.018c-2.221,0-4.02,1.8-4.02,4.018
		c0,2.222,1.799,4.022,4.02,4.022C1322.531,256.282,1324.333,254.481,1324.333,252.259"/>
	<path style="fill:#FFFFFF;" d="M1505.306,186.643c0-3.147-2.56-5.705-5.7-5.705c-3.15,0-5.705,2.557-5.705,5.705
		c0,3.142,2.555,5.695,5.705,5.695C1502.746,192.338,1505.306,189.785,1505.306,186.643"/>
	<path style="fill:#FFFFFF;" d="M1569.567,208.518c0-2.394-1.939-4.34-4.34-4.34c-2.392,0-4.337,1.945-4.337,4.34
		c0,2.39,1.945,4.34,4.337,4.34C1567.628,212.858,1569.567,210.908,1569.567,208.518"/>
	<path style="fill:#FFFFFF;" d="M1571.793,230.389c0-3.623-2.943-6.571-6.566-6.571c-3.628,0-6.557,2.947-6.557,6.571
		c0,3.628,2.929,6.571,6.557,6.571C1568.851,236.96,1571.793,234.017,1571.793,230.389"/>
	<path style="fill:#FFFFFF;" d="M1636.145,186.643c0-3.147-2.557-5.705-5.7-5.705c-3.149,0-5.709,2.557-5.709,5.705
		c0,3.142,2.56,5.695,5.709,5.695C1633.587,192.338,1636.145,189.785,1636.145,186.643"/>
	<path style="fill:#FFFFFF;" d="M1656.601,208.518c0-2.358-1.925-4.281-4.288-4.281c-2.358,0-4.272,1.923-4.272,4.281
		c0,2.358,1.914,4.272,4.272,4.272C1654.676,212.79,1656.601,210.876,1656.601,208.518"/>
	<path style="fill:#FFFFFF;" d="M1702.632,230.389c0-3.623-2.939-6.571-6.566-6.571c-3.628,0-6.552,2.947-6.552,6.571
		c0,3.628,2.925,6.571,6.552,6.571C1699.693,236.96,1702.632,234.017,1702.632,230.389"/>
	<path style="fill:#FFFFFF;" d="M1684.877,252.259c0-5.895-4.791-10.67-10.686-10.67c-5.895,0-10.675,4.775-10.675,10.67
		c0,5.904,4.78,10.684,10.675,10.684C1680.086,262.943,1684.877,258.164,1684.877,252.259"/>
	<path style="fill:#FFFFFF;" d="M1735.987,208.518c0-2.866-2.324-5.197-5.199-5.197c-2.855,0-5.183,2.331-5.183,5.197
		c0,2.861,2.328,5.192,5.183,5.192C1733.663,213.71,1735.987,211.38,1735.987,208.518"/>
	<path style="fill:#FFFFFF;" d="M1785.117,274.144c0-5.841-4.725-10.579-10.573-10.579c-5.839,0-10.573,4.739-10.573,10.579
		c0,5.845,4.734,10.575,10.573,10.575C1780.392,284.719,1785.117,279.989,1785.117,274.144"/>
	<path style="fill:#FFFFFF;" d="M1752.477,463.858c0-4.208-3.415-7.616-7.623-7.616c-4.208,0-7.627,3.408-7.627,7.616
		c0,4.204,3.419,7.627,7.627,7.627C1749.062,471.485,1752.477,468.062,1752.477,463.858"/>
	<path style="fill:#FFFFFF;" d="M1733.588,485.733c0-5.868-4.755-10.602-10.609-10.602c-5.854,0-10.606,4.734-10.606,10.602
		c0,5.859,4.752,10.611,10.606,10.611C1728.833,496.344,1733.588,491.592,1733.588,485.733"/>
	<path style="fill:#FFFFFF;" d="M1779.105,485.733c0-6.829-5.544-12.373-12.38-12.373c-6.834,0-12.37,5.544-12.37,12.373
		c0,6.836,5.537,12.375,12.37,12.375C1773.561,498.108,1779.105,492.569,1779.105,485.733"/>
	<path style="fill:#FFFFFF;" d="M1850.893,486.132c0-2.131-1.728-3.866-3.859-3.866c-2.131,0-3.859,1.735-3.859,3.866
		c0,2.138,1.728,3.866,3.859,3.866C1849.165,489.998,1850.893,488.271,1850.893,486.132"/>
	<path style="fill:#FFFFFF;" d="M1875.035,486.132c0-3.392-2.748-6.122-6.126-6.122c-3.387,0-6.126,2.73-6.126,6.122
		c0,3.387,2.739,6.119,6.126,6.119C1872.287,492.252,1875.035,489.52,1875.035,486.132"/>
	<path style="fill:#FFFFFF;" d="M952.242,420.498c0-3.047-2.475-5.512-5.528-5.512c-3.053,0-5.533,2.465-5.533,5.512
		c0,3.07,2.481,5.53,5.533,5.53C949.767,426.028,952.242,423.568,952.242,420.498"/>
	<path style="fill:#FFFFFF;" d="M906.087,442.387c0-1.735-1.396-3.131-3.123-3.131c-1.73,0-3.128,1.397-3.128,3.131
		c0,1.719,1.398,3.12,3.128,3.12C904.692,445.506,906.087,444.105,906.087,442.387"/>
	<path style="fill:#FFFFFF;" d="M1327.957,486.132c0-1.379-1.119-2.499-2.5-2.499c-1.382,0-2.502,1.12-2.502,2.499
		c0,1.378,1.12,2.494,2.502,2.494C1326.838,488.626,1327.957,487.511,1327.957,486.132"/>
	<path style="fill:#FFFFFF;" d="M1591.66,508.007c0-2.993-2.426-5.414-5.414-5.414c-2.984,0-5.415,2.422-5.415,5.414
		c0,2.993,2.431,5.415,5.415,5.415C1589.234,513.422,1591.66,511,1591.66,508.007"/>
</g>
<g id="Ebene_1">
</g>
</svg>
