<?xml version="1.0" encoding="iso-8859-1"?>
<!-- Generator: Adobe Illustrator 18.0.0, SVG Export Plug-In . SVG Version: 6.00 Build 0)  -->
<!DOCTYPE svg PUBLIC "-//W3C//DTD SVG 1.1//EN" "http://www.w3.org/Graphics/SVG/1.1/DTD/svg11.dtd">
<svg version="1.1" xmlns="http://www.w3.org/2000/svg" xmlns:xlink="http://www.w3.org/1999/xlink" x="0px" y="0px"
	 viewBox="0 0 2800 700" style="enable-background:new 0 0 2800 700;" xml:space="preserve">
<g id="m11">
	<path style="fill:#FFFFFF;" d="M1046.519,230.389c0-4.902-3.967-8.879-8.872-8.879c-4.904,0-8.879,3.977-8.879,8.879
		c0,4.907,3.975,8.883,8.879,8.883C1042.552,239.272,1046.519,235.295,1046.519,230.389"/>
	<path style="fill:#FFFFFF;" d="M1020.834,274.144c0-2.793-2.265-5.061-5.063-5.061c-2.794,0-5.067,2.267-5.067,5.061
		c0,2.793,2.274,5.056,5.067,5.056C1018.569,279.2,1020.834,276.937,1020.834,274.144"/>
	<path style="fill:#FFFFFF;" d="M1264.276,208.518c0-5.306-4.296-9.586-9.587-9.586c-5.3,0-9.595,4.281-9.595,9.586
		c0,5.296,4.295,9.582,9.595,9.582C1259.98,218.1,1264.276,213.815,1264.276,208.518"/>
	<path style="fill:#FFFFFF;" d="M1245.187,230.389c0-6.834-5.538-12.375-12.378-12.375c-6.837,0-12.374,5.541-12.374,12.375
		c0,6.838,5.537,12.375,12.374,12.375C1239.649,242.764,1245.187,237.227,1245.187,230.389"/>
	<path style="fill:#FFFFFF;" d="M1480.359,186.643c0-1.456-1.181-2.635-2.63-2.635c-1.458,0-2.63,1.179-2.63,2.635
		c0,1.446,1.172,2.635,2.63,2.635C1479.177,189.278,1480.359,188.089,1480.359,186.643"/>
	<path style="fill:#FFFFFF;" d="M1548.063,186.643c0-2.603-2.106-4.721-4.707-4.721c-2.603,0-4.712,2.118-4.712,4.721
		c0,2.598,2.109,4.707,4.712,4.707C1545.957,191.35,1548.063,189.241,1548.063,186.643"/>
	<path style="fill:#FFFFFF;" d="M1509.827,230.389c0-5.646-4.578-10.226-10.221-10.226c-5.655,0-10.224,4.58-10.224,10.226
		s4.569,10.226,10.224,10.226C1505.25,240.615,1509.827,236.034,1509.827,230.389"/>
	<path style="fill:#FFFFFF;" d="M1481.762,252.259c0-2.217-1.812-4.031-4.034-4.031c-2.229,0-4.027,1.814-4.027,4.031
		c0,2.236,1.798,4.027,4.027,4.027C1479.951,256.286,1481.762,254.495,1481.762,252.259"/>
	<path style="fill:#FFFFFF;" d="M1612.594,296.023c0-2.227-1.803-4.022-4.025-4.022c-2.229,0-4.036,1.796-4.036,4.022
		c0,2.217,1.807,4.018,4.036,4.018C1610.792,300.041,1612.594,298.241,1612.594,296.023"/>
	<path style="fill:#FFFFFF;" d="M1799.876,186.643c0-1.918-1.544-3.455-3.453-3.455c-1.914,0-3.458,1.537-3.458,3.455
		c0,1.905,1.544,3.451,3.458,3.451C1798.331,190.094,1799.876,188.547,1799.876,186.643"/>
	<path style="fill:#FFFFFF;" d="M1727.988,463.858c0-2.762-2.238-5.015-5.009-5.015c-2.771,0-5.011,2.254-5.011,5.015
		c0,2.762,2.24,5.011,5.011,5.011C1725.75,468.869,1727.988,466.62,1727.988,463.858"/>
	<path style="fill:#FFFFFF;" d="M1731.418,507.609c0-4.657-3.782-8.439-8.439-8.439c-4.657,0-8.434,3.782-8.434,8.439
		c0,4.655,3.777,8.437,8.434,8.437C1727.636,516.045,1731.418,512.263,1731.418,507.609"/>
	<path style="fill:#FFFFFF;" d="M1484.832,442.028c0-3.376-2.746-6.113-6.115-6.113c-3.374,0-6.12,2.737-6.12,6.113
		c0,3.38,2.746,6.115,6.12,6.115C1482.087,448.143,1484.832,445.409,1484.832,442.028"/>
	<path style="fill:#FFFFFF;" d="M1485.005,507.649c0-3.469-2.809-6.28-6.287-6.28c-3.467,0-6.287,2.811-6.287,6.28
		c0,3.474,2.82,6.299,6.287,6.299C1482.195,513.948,1485.005,511.123,1485.005,507.649"/>
	<path style="fill:#FFFFFF;" d="M1106.193,442.604c0-4.689-3.8-8.482-8.48-8.482c-4.688,0-8.482,3.793-8.482,8.482
		c0,4.68,3.794,8.473,8.482,8.473C1102.393,451.077,1106.193,447.284,1106.193,442.604"/>
	<path style="fill:#FFFFFF;" d="M1060.396,486.355c0-3.737-3.03-6.754-6.761-6.754c-3.732,0-6.757,3.018-6.757,6.754
		c0,3.732,3.025,6.752,6.757,6.752C1057.366,493.107,1060.396,490.087,1060.396,486.355"/>
	<path style="fill:#FFFFFF;" d="M1896.65,442.387c0-3.242-2.621-5.877-5.861-5.877c-3.245,0-5.868,2.635-5.868,5.877
		c0,3.238,2.623,5.861,5.868,5.861C1894.029,448.248,1896.65,445.624,1896.65,442.387"/>
	<path style="fill:#FFFFFF;" d="M935.934,486.132c0-6.131-4.972-11.092-11.093-11.092c-6.131,0-11.099,4.961-11.099,11.092
		c0,6.133,4.968,11.096,11.099,11.096C930.962,497.229,935.934,492.266,935.934,486.132"/>
	<path style="fill:#FFFFFF;" d="M1290.646,486.132c0-6.834-5.532-12.375-12.367-12.375c-6.837,0-12.375,5.541-12.375,12.375
		c0,6.836,5.538,12.375,12.375,12.375C1285.113,498.507,1290.646,492.968,1290.646,486.132"/>
	<path style="fill:#FFFFFF;" d="M1554.847,442.387c0-6.825-5.537-12.366-12.355-12.366c-6.827,0-12.355,5.541-12.355,12.366
		c0,6.827,5.528,12.357,12.355,12.357C1549.311,454.743,1554.847,449.213,1554.847,442.387"/>
	<path style="fill:#FFFFFF;" d="M1596.77,442.387c0-5.827-4.711-10.534-10.525-10.534c-5.82,0-10.53,4.707-10.53,10.534
		c0,5.816,4.709,10.525,10.53,10.525C1592.059,452.912,1596.77,448.202,1596.77,442.387"/>
	<path style="fill:#FFFFFF;" d="M1593.054,486.132c0-3.762-3.05-6.804-6.809-6.804c-3.759,0-6.802,3.043-6.802,6.804
		c0,3.757,3.043,6.804,6.802,6.804C1590.005,492.937,1593.054,489.889,1593.054,486.132"/>
</g>
<g id="Ebene_1">
</g>
</svg>
