<?xml version="1.0" encoding="iso-8859-1"?>
<!-- Generator: Adobe Illustrator 18.0.0, SVG Export Plug-In . SVG Version: 6.00 Build 0)  -->
<!DOCTYPE svg PUBLIC "-//W3C//DTD SVG 1.1//EN" "http://www.w3.org/Graphics/SVG/1.1/DTD/svg11.dtd">
<svg version="1.1" xmlns="http://www.w3.org/2000/svg" xmlns:xlink="http://www.w3.org/1999/xlink" x="0px" y="0px"
	 viewBox="0 0 2800 700" style="enable-background:new 0 0 2800 700;" xml:space="preserve">
<g id="m12">
	<path style="fill:#FFFFFF;" d="M1389.124,208.84c0-5.451-4.417-9.854-9.861-9.854c-5.443,0-9.86,4.403-9.86,9.854
		c0,5.442,4.418,9.858,9.86,9.858C1384.707,218.698,1389.124,214.282,1389.124,208.84"/>
	<path style="fill:#FFFFFF;" d="M1431.568,274.47c0-4.725-3.841-8.561-8.557-8.561c-4.725,0-8.55,3.836-8.55,8.561
		c0,4.721,3.825,8.539,8.55,8.539C1427.727,283.009,1431.568,279.191,1431.568,274.47"/>
	<path style="fill:#FFFFFF;" d="M1021.398,208.518c0-3.106-2.518-5.628-5.626-5.628c-3.11,0-5.623,2.521-5.623,5.628
		c0,3.102,2.513,5.623,5.623,5.623C1018.88,214.141,1021.398,211.62,1021.398,208.518"/>
	<path style="fill:#FFFFFF;" d="M1108.767,252.259c0-3.034-2.464-5.491-5.498-5.491c-3.037,0-5.496,2.458-5.496,5.491
		c0,3.043,2.459,5.51,5.496,5.51C1106.304,257.769,1108.767,255.302,1108.767,252.259"/>
	<path style="fill:#FFFFFF;" d="M1525.753,208.518c0-2.358-1.918-4.281-4.276-4.281c-2.363,0-4.279,1.923-4.279,4.281
		c0,2.358,1.916,4.272,4.279,4.272C1523.835,212.79,1525.753,210.876,1525.753,208.518"/>
	<path style="fill:#FFFFFF;" d="M1481.753,230.389c0-2.217-1.803-4.018-4.024-4.018c-2.229,0-4.027,1.8-4.027,4.018
		c0,2.227,1.798,4.018,4.027,4.018C1479.951,234.407,1481.753,232.615,1481.753,230.389"/>
	<path style="fill:#FFFFFF;" d="M1511.442,252.259c0-6.525-5.31-11.826-11.835-11.826c-6.544,0-11.845,5.301-11.845,11.826
		c0,6.544,5.301,11.84,11.845,11.84C1506.132,264.099,1511.442,258.803,1511.442,252.259"/>
	<path style="fill:#FFFFFF;" d="M1481.753,296.023c0-2.227-1.803-4.022-4.024-4.022c-2.229,0-4.027,1.796-4.027,4.022
		c0,2.217,1.798,4.018,4.027,4.018C1479.951,300.041,1481.753,298.241,1481.753,296.023"/>
	<path style="fill:#FFFFFF;" d="M1611.195,186.643c0-1.456-1.175-2.635-2.626-2.635c-1.463,0-2.626,1.179-2.626,2.635
		c0,1.446,1.163,2.635,2.626,2.635C1610.021,189.278,1611.195,188.089,1611.195,186.643"/>
	<path style="fill:#FFFFFF;" d="M1642.273,252.259c0-6.525-5.299-11.826-11.829-11.826c-6.539,0-11.845,5.301-11.845,11.826
		c0,6.544,5.306,11.84,11.845,11.84C1636.975,264.099,1642.273,258.803,1642.273,252.259"/>
	<path style="fill:#FFFFFF;" d="M1612.594,274.144c0-2.213-1.803-4.018-4.025-4.018c-2.229,0-4.036,1.805-4.036,4.018
		c0,2.227,1.807,4.018,4.036,4.018C1610.792,278.162,1612.594,276.37,1612.594,274.144"/>
	<path style="fill:#FFFFFF;" d="M1641.078,274.144c0-5.872-4.761-10.638-10.634-10.638c-5.872,0-10.634,4.766-10.634,10.638
		c0,5.868,4.761,10.634,10.634,10.634C1636.317,284.778,1641.078,280.012,1641.078,274.144"/>
	<path style="fill:#FFFFFF;" d="M1807.387,230.389c0-6.049-4.907-10.965-10.965-10.965c-6.058,0-10.974,4.916-10.974,10.965
		c0,6.058,4.916,10.969,10.974,10.969C1802.481,241.358,1807.387,236.447,1807.387,230.389"/>
	<path style="fill:#FFFFFF;" d="M1777.368,441.978c0-5.868-4.757-10.648-10.643-10.648c-5.872,0-10.643,4.78-10.643,10.648
		c0,5.877,4.771,10.643,10.643,10.643C1772.611,452.621,1777.368,447.855,1777.368,441.978"/>
	<path style="fill:#FFFFFF;" d="M1461.628,398.271c0-2.632-2.145-4.777-4.789-4.777c-2.639,0-4.784,2.145-4.784,4.777
		c0,2.653,2.145,4.8,4.784,4.8C1459.484,403.071,1461.628,400.924,1461.628,398.271"/>
	<path style="fill:#FFFFFF;" d="M1467.825,442.028c0-6.058-4.927-10.969-10.985-10.969c-6.063,0-10.978,4.911-10.978,10.969
		c0,6.065,4.916,10.978,10.978,10.978C1462.898,453.007,1467.825,448.093,1467.825,442.028"/>
	<path style="fill:#FFFFFF;" d="M1482.751,463.903c0-2.229-1.809-4.022-4.034-4.022s-4.029,1.794-4.029,4.022
		c0,2.22,1.805,4.031,4.029,4.031S1482.751,466.123,1482.751,463.903"/>
	<path style="fill:#FFFFFF;" d="M1059.284,398.852c0-3.124-2.531-5.648-5.649-5.648c-3.119,0-5.645,2.524-5.645,5.648
		c0,3.115,2.526,5.646,5.645,5.646C1056.752,404.497,1059.284,401.967,1059.284,398.852"/>
	<path style="fill:#FFFFFF;" d="M1133.372,486.355c0-7.528-6.104-13.636-13.628-13.636c-7.525,0-13.629,6.108-13.629,13.636
		c0,7.525,6.104,13.629,13.629,13.629C1127.269,499.984,1133.372,493.88,1133.372,486.355"/>
	<path style="fill:#FFFFFF;" d="M1892.09,420.498c0-0.707-0.583-1.292-1.301-1.292c-0.721,0-1.306,0.585-1.306,1.292
		c0,0.728,0.585,1.308,1.306,1.308C1891.507,421.806,1892.09,421.225,1892.09,420.498"/>
	<path style="fill:#FFFFFF;" d="M1877.486,464.262c0-4.741-3.839-8.58-8.577-8.58c-4.743,0-8.573,3.839-8.573,8.58
		c0,4.725,3.83,8.575,8.573,8.575C1873.648,472.837,1877.486,468.987,1877.486,464.262"/>
	<path style="fill:#FFFFFF;" d="M1900.438,486.132c0-5.333-4.321-9.654-9.65-9.654c-5.337,0-9.661,4.321-9.661,9.654
		c0,5.342,4.324,9.659,9.661,9.659C1896.117,495.791,1900.438,491.474,1900.438,486.132"/>
	<path style="fill:#FFFFFF;" d="M1195.291,464.262c0-5.818-4.707-10.525-10.522-10.525c-5.807,0-10.521,4.707-10.521,10.525
		c0,5.802,4.715,10.511,10.521,10.511C1190.584,474.773,1195.291,470.064,1195.291,464.262"/>
	<path style="fill:#FFFFFF;" d="M1290.646,398.629c0-6.836-5.532-12.373-12.367-12.373c-6.837,0-12.375,5.537-12.375,12.373
		c0,6.832,5.538,12.373,12.375,12.373C1285.113,411.002,1290.646,405.461,1290.646,398.629"/>
	<path style="fill:#FFFFFF;" d="M1375.779,442.387c0-3.639-2.943-6.575-6.571-6.575c-3.634,0-6.575,2.936-6.575,6.575
		c0,3.623,2.942,6.566,6.575,6.566C1372.836,448.953,1375.779,446.01,1375.779,442.387"/>
</g>
<g id="Ebene_1">
</g>
</svg>
