<?xml version="1.0" encoding="iso-8859-1"?>
<!-- Generator: Adobe Illustrator 18.0.0, SVG Export Plug-In . SVG Version: 6.00 Build 0)  -->
<!DOCTYPE svg PUBLIC "-//W3C//DTD SVG 1.1//EN" "http://www.w3.org/Graphics/SVG/1.1/DTD/svg11.dtd">
<svg version="1.1" xmlns="http://www.w3.org/2000/svg" xmlns:xlink="http://www.w3.org/1999/xlink" x="0px" y="0px"
	 viewBox="0 0 2800 700" style="enable-background:new 0 0 2800 700;" xml:space="preserve">
<g id="m5">
	<path style="fill:#FFFFFF;" d="M1407.666,208.84c0-3.605-2.929-6.521-6.525-6.521c-3.61,0-6.535,2.916-6.535,6.521
		c0,3.596,2.925,6.521,6.535,6.521C1404.736,215.361,1407.666,212.436,1407.666,208.84"/>
	<path style="fill:#FFFFFF;" d="M1093.426,230.389c0-6.648-5.387-12.03-12.031-12.03c-6.646,0-12.03,5.383-12.03,12.03
		c0,6.643,5.385,12.03,12.03,12.03C1088.039,242.419,1093.426,237.032,1093.426,230.389"/>
	<path style="fill:#FFFFFF;" d="M1310.516,208.518c0-6.675-5.411-12.085-12.084-12.085c-6.668,0-12.081,5.41-12.081,12.085
		c0,6.67,5.413,12.08,12.081,12.08C1305.105,220.598,1310.516,215.189,1310.516,208.518"/>
	<path style="fill:#FFFFFF;" d="M1526.615,186.643c0-2.834-2.299-5.147-5.138-5.147c-2.843,0-5.142,2.313-5.142,5.147
		s2.299,5.129,5.142,5.129C1524.315,191.772,1526.615,189.477,1526.615,186.643"/>
	<path style="fill:#FFFFFF;" d="M1640.952,296.023c0-5.809-4.707-10.516-10.507-10.516c-5.809,0-10.516,4.707-10.516,10.516
		c0,5.8,4.707,10.498,10.516,10.498C1636.245,306.521,1640.952,301.823,1640.952,296.023"/>
	<path style="fill:#FFFFFF;" d="M1823.49,208.518c0-2.866-2.322-5.197-5.192-5.197c-2.861,0-5.192,2.331-5.192,5.197
		c0,2.861,2.331,5.192,5.192,5.192C1821.168,213.71,1823.49,211.38,1823.49,208.518"/>
	<path style="fill:#FFFFFF;" d="M1786.575,252.259c0-6.643-5.387-12.026-12.03-12.026c-6.646,0-12.03,5.383-12.03,12.026
		c0,6.648,5.385,12.035,12.03,12.035C1781.188,264.294,1786.575,258.907,1786.575,252.259"/>
	<path style="fill:#FFFFFF;" d="M1100.324,420.724c0-1.447-1.175-2.617-2.611-2.617c-1.446,0-2.613,1.17-2.613,2.617
		c0,1.446,1.166,2.612,2.613,2.612C1099.149,423.336,1100.324,422.171,1100.324,420.724"/>
	<path style="fill:#FFFFFF;" d="M1086.084,486.355c0-5.741-4.663-10.414-10.412-10.414c-5.744,0-10.409,4.673-10.409,10.414
		c0,5.745,4.665,10.402,10.409,10.402C1081.421,496.757,1086.084,492.1,1086.084,486.355"/>
	<path style="fill:#FFFFFF;" d="M1876.704,442.387c0-4.319-3.487-7.8-7.795-7.8c-4.297,0-7.802,3.48-7.802,7.8
		c0,4.299,3.505,7.793,7.802,7.793C1873.217,450.179,1876.704,446.685,1876.704,442.387"/>
	<path style="fill:#FFFFFF;" d="M1829.208,464.262c0-2.247-1.807-4.061-4.056-4.061c-2.233,0-4.043,1.814-4.043,4.061
		c0,2.234,1.809,4.054,4.043,4.054C1827.401,468.316,1829.208,466.495,1829.208,464.262"/>
	<path style="fill:#FFFFFF;" d="M1858.112,464.262c0-6.122-4.961-11.083-11.078-11.083c-6.122,0-11.074,4.961-11.074,11.083
		c0,6.108,4.952,11.069,11.074,11.069C1853.151,475.331,1858.112,470.37,1858.112,464.262"/>
	<path style="fill:#FFFFFF;" d="M980.368,398.629c0-6.5-5.273-11.774-11.78-11.774c-6.499,0-11.773,5.274-11.773,11.774
		c0,6.507,5.274,11.783,11.773,11.783C975.095,410.413,980.368,405.136,980.368,398.629"/>
	<path style="fill:#FFFFFF;" d="M904.296,420.498c0-0.73-0.592-1.324-1.332-1.324c-0.735,0-1.336,0.594-1.336,1.324
		c0,0.742,0.601,1.335,1.336,1.335C903.704,421.833,904.296,421.239,904.296,420.498"/>
	<path style="fill:#FFFFFF;" d="M1327.648,464.262c0-1.215-0.99-2.201-2.192-2.201c-1.213,0-2.19,0.986-2.19,2.201
		c0,1.206,0.977,2.184,2.19,2.184C1326.659,466.445,1327.648,465.468,1327.648,464.262"/>
	<path style="fill:#FFFFFF;" d="M1352.051,486.132c0-2.61-2.109-4.723-4.726-4.723c-2.601,0-4.712,2.113-4.712,4.723
		c0,2.607,2.111,4.721,4.712,4.721C1349.942,490.853,1352.051,488.74,1352.051,486.132"/>
	<path style="fill:#FFFFFF;" d="M1615.938,464.262c0-4.319-3.501-7.813-7.813-7.813c-4.317,0-7.818,3.494-7.818,7.813
		c0,4.313,3.501,7.809,7.818,7.809C1612.438,472.07,1615.938,468.574,1615.938,464.262"/>
	<path style="fill:#FFFFFF;" d="M1664.246,464.262c0-6.829-5.537-12.373-12.38-12.373c-6.832,0-12.37,5.544-12.37,12.373
		c0,6.834,5.539,12.375,12.37,12.375C1658.709,476.637,1664.246,471.095,1664.246,464.262"/>
	<path style="fill:#FFFFFF;" d="M1827.929,508.007c0-1.535-1.24-2.766-2.777-2.766c-1.526,0-2.766,1.231-2.766,2.766
		c0,1.537,1.24,2.778,2.766,2.778C1826.689,510.785,1827.929,509.545,1827.929,508.007"/>
</g>
<g id="Ebene_1">
</g>
</svg>
