<?xml version="1.0" encoding="iso-8859-1"?>
<!-- Generator: Adobe Illustrator 18.0.0, SVG Export Plug-In . SVG Version: 6.00 Build 0)  -->
<!DOCTYPE svg PUBLIC "-//W3C//DTD SVG 1.1//EN" "http://www.w3.org/Graphics/SVG/1.1/DTD/svg11.dtd">
<svg version="1.1" xmlns="http://www.w3.org/2000/svg" xmlns:xlink="http://www.w3.org/1999/xlink" x="0px" y="0px"
	 viewBox="0 0 2800 700" style="enable-background:new 0 0 2800 700;" xml:space="preserve">
<g id="m7">
	<path style="fill:#FFFFFF;" d="M1384.269,230.715c0-2.766-2.239-5.011-5.006-5.011c-2.771,0-5.013,2.245-5.013,5.011
		c0,2.771,2.242,5.015,5.013,5.015C1382.03,235.731,1384.269,233.486,1384.269,230.715"/>
	<path style="fill:#FFFFFF;" d="M1408.754,230.715c0-4.208-3.41-7.618-7.614-7.618c-4.215,0-7.632,3.41-7.632,7.618
		c0,4.208,3.417,7.623,7.632,7.623C1405.344,238.338,1408.754,234.923,1408.754,230.715"/>
	<path style="fill:#FFFFFF;" d="M1408.899,274.47c0-4.285-3.476-7.763-7.759-7.763c-4.285,0-7.759,3.478-7.759,7.763
		c0,4.281,3.474,7.745,7.759,7.745C1405.423,282.216,1408.899,278.751,1408.899,274.47"/>
	<path style="fill:#FFFFFF;" d="M1045.948,208.518c0-4.589-3.713-8.312-8.302-8.312c-4.588,0-8.305,3.723-8.305,8.312
		c0,4.585,3.717,8.307,8.305,8.307C1042.236,216.826,1045.948,213.103,1045.948,208.518"/>
	<path style="fill:#FFFFFF;" d="M1025.302,230.389c0-5.265-4.264-9.532-9.531-9.532c-5.265,0-9.533,4.267-9.533,9.532
		c0,5.265,4.268,9.536,9.533,9.536C1021.038,239.925,1025.302,235.654,1025.302,230.389"/>
	<path style="fill:#FFFFFF;" d="M1027.245,252.259c0-6.335-5.135-11.464-11.474-11.464c-6.344,0-11.481,5.129-11.481,11.464
		c0,6.344,5.137,11.482,11.481,11.482C1022.11,263.741,1027.245,258.603,1027.245,252.259"/>
	<path style="fill:#FFFFFF;" d="M1324.333,164.763c0-2.213-1.801-4.013-4.023-4.013c-2.221,0-4.02,1.8-4.02,4.013
		c0,2.227,1.799,4.027,4.02,4.027C1322.531,168.79,1324.333,166.99,1324.333,164.763"/>
	<path style="fill:#FFFFFF;" d="M1309.645,186.643c0-6.19-5.02-11.21-11.212-11.21c-6.187,0-11.202,5.02-11.202,11.21
		c0,6.185,5.014,11.196,11.202,11.196C1304.625,197.839,1309.645,192.828,1309.645,186.643"/>
	<path style="fill:#FFFFFF;" d="M1213.786,252.259c0-1.564-1.278-2.843-2.856-2.843c-1.568,0-2.843,1.279-2.843,2.843
		c0,1.587,1.275,2.866,2.843,2.866C1212.509,255.125,1213.786,253.847,1213.786,252.259"/>
	<path style="fill:#FFFFFF;" d="M1569.041,252.259c0-2.095-1.709-3.805-3.814-3.805c-2.104,0-3.814,1.71-3.814,3.805
		c0,2.113,1.71,3.818,3.814,3.818C1567.331,256.078,1569.041,254.373,1569.041,252.259"/>
	<path style="fill:#FFFFFF;" d="M1481.753,274.144c0-2.213-1.803-4.018-4.024-4.018c-2.229,0-4.027,1.805-4.027,4.018
		c0,2.227,1.798,4.018,4.027,4.018C1479.951,278.162,1481.753,276.37,1481.753,274.144"/>
	<path style="fill:#FFFFFF;" d="M1781.941,230.389c0-4.081-3.308-7.401-7.396-7.401c-4.09,0-7.396,3.319-7.396,7.401
		c0,4.09,3.306,7.401,7.396,7.401C1778.633,237.789,1781.941,234.479,1781.941,230.389"/>
	<path style="fill:#FFFFFF;" d="M1768.403,420.103c0-0.925-0.739-1.678-1.678-1.678c-0.927,0-1.68,0.753-1.68,1.678
		c0,0.934,0.753,1.68,1.68,1.68C1767.663,421.783,1768.403,421.037,1768.403,420.103"/>
	<path style="fill:#FFFFFF;" d="M1779.105,463.858c0-6.825-5.544-12.373-12.38-12.373c-6.825,0-12.366,5.548-12.366,12.373
		c0,6.827,5.541,12.366,12.366,12.366C1773.561,476.224,1779.105,470.685,1779.105,463.858"/>
	<path style="fill:#FFFFFF;" d="M1132.049,442.604c0-6.793-5.509-12.302-12.305-12.302c-6.798,0-12.299,5.509-12.299,12.302
		c0,6.795,5.501,12.296,12.299,12.296C1126.541,454.9,1132.049,449.399,1132.049,442.604"/>
	<path style="fill:#FFFFFF;" d="M1829.997,442.387c0-2.673-2.168-4.845-4.845-4.845c-2.664,0-4.832,2.172-4.832,4.845
		c0,2.666,2.167,4.834,4.832,4.834C1827.829,447.22,1829.997,445.053,1829.997,442.387"/>
	<path style="fill:#FFFFFF;" d="M996.472,398.629c0-3.319-2.691-6.008-6.011-6.008c-3.308,0-6.002,2.689-6.002,6.008
		c0,3.324,2.694,6.008,6.002,6.008C993.781,404.638,996.472,401.953,996.472,398.629"/>
	<path style="fill:#FFFFFF;" d="M936.682,442.387c0-6.544-5.309-11.845-11.841-11.845c-6.543,0-11.844,5.301-11.844,11.845
		c0,6.534,5.301,11.833,11.844,11.833C931.373,454.22,936.682,448.921,936.682,442.387"/>
	<path style="fill:#FFFFFF;" d="M906.371,464.262c0-1.882-1.528-3.408-3.407-3.408c-1.883,0-3.402,1.526-3.402,3.408
		c0,1.871,1.519,3.401,3.402,3.401C904.842,467.663,906.371,466.132,906.371,464.262"/>
	<path style="fill:#FFFFFF;" d="M904.442,486.132c0-0.812-0.661-1.474-1.478-1.474c-0.812,0-1.473,0.662-1.473,1.474
		c0,0.816,0.661,1.476,1.473,1.476C903.781,487.608,904.442,486.949,904.442,486.132"/>
	<path style="fill:#FFFFFF;" d="M954.979,508.007c0-4.564-3.705-8.269-8.264-8.269c-4.562,0-8.265,3.705-8.265,8.269
		c0,4.56,3.704,8.262,8.265,8.262C951.274,516.27,954.979,512.567,954.979,508.007"/>
	<path style="fill:#FFFFFF;" d="M1233.279,442.387c0-2.63-2.127-4.755-4.76-4.755c-2.624,0-4.749,2.125-4.749,4.755
		c0,2.623,2.125,4.752,4.749,4.752C1231.152,447.139,1233.279,445.01,1233.279,442.387"/>
	<path style="fill:#FFFFFF;" d="M1290.646,442.387c0-6.834-5.532-12.384-12.367-12.384c-6.837,0-12.375,5.55-12.375,12.384
		c0,6.831,5.538,12.375,12.375,12.375C1285.113,454.761,1290.646,449.218,1290.646,442.387"/>
	<path style="fill:#FFFFFF;" d="M1349.309,420.498c0-1.084-0.883-1.966-1.985-1.966c-1.088,0-1.969,0.882-1.969,1.966
		c0,1.102,0.881,1.986,1.969,1.986C1348.426,422.484,1349.309,421.6,1349.309,420.498"/>
	<path style="fill:#FFFFFF;" d="M1328.015,442.387c0-1.419-1.141-2.564-2.558-2.564c-1.419,0-2.562,1.145-2.562,2.564
		c0,1.397,1.143,2.553,2.562,2.553C1326.874,444.94,1328.015,443.783,1328.015,442.387"/>
	<path style="fill:#FFFFFF;" d="M1372.784,486.132c0-1.97-1.604-3.576-3.576-3.576c-1.976,0-3.579,1.605-3.579,3.576
		c0,1.97,1.603,3.578,3.579,3.578C1371.18,489.71,1372.784,488.103,1372.784,486.132"/>
	<path style="fill:#FFFFFF;" d="M1396.27,508.007c0-2.868-2.322-5.192-5.188-5.192c-2.871,0-5.199,2.324-5.199,5.192
		c0,2.868,2.328,5.192,5.199,5.192C1393.948,513.2,1396.27,510.876,1396.27,508.007"/>
	<path style="fill:#FFFFFF;" d="M1633.057,420.498c0-1.687-1.37-3.056-3.056-3.056c-1.701,0-3.066,1.37-3.066,3.056
		c0,1.701,1.365,3.077,3.066,3.077C1631.687,423.574,1633.057,422.198,1633.057,420.498"/>
	<path style="fill:#FFFFFF;" d="M1554.861,486.132c0-6.834-5.537-12.375-12.368-12.375c-6.836,0-12.373,5.541-12.373,12.375
		c0,6.836,5.537,12.375,12.373,12.375C1549.324,498.507,1554.861,492.968,1554.861,486.132"/>
</g>
<g id="Ebene_1">
</g>
</svg>
