<?xml version="1.0" encoding="iso-8859-1"?>
<!-- Generator: Adobe Illustrator 18.0.0, SVG Export Plug-In . SVG Version: 6.00 Build 0)  -->
<!DOCTYPE svg PUBLIC "-//W3C//DTD SVG 1.1//EN" "http://www.w3.org/Graphics/SVG/1.1/DTD/svg11.dtd">
<svg version="1.1" xmlns="http://www.w3.org/2000/svg" xmlns:xlink="http://www.w3.org/1999/xlink" x="0px" y="0px"
	 viewBox="0 0 2800 750" style="enable-background:new 0 0 2800 750;" xml:space="preserve">
<g id="n1">
	<path style="fill:#FFFFFF;" d="M1129.167,499.174c0-1.754-1.417-3.178-3.178-3.178c-1.752,0-3.167,1.424-3.167,3.178
		c0,1.752,1.415,3.176,3.167,3.176C1127.75,502.35,1129.167,500.926,1129.167,499.174"/>
	<path style="fill:#FFFFFF;" d="M1154.19,499.174c0-3.472-2.812-6.284-6.284-6.284c-3.47,0-6.291,2.811-6.291,6.284
		c0,3.47,2.821,6.281,6.291,6.281C1151.379,505.456,1154.19,502.644,1154.19,499.174"/>
	<path style="fill:#FFFFFF;" d="M1803.222,456.077c0-3.805-3.085-6.89-6.888-6.89c-3.805,0-6.89,3.085-6.89,6.89
		c0,3.805,3.085,6.885,6.89,6.885C1800.137,462.962,1803.222,459.882,1803.222,456.077"/>
	<path style="fill:#FFFFFF;" d="M1779.855,521.812c0-2.998-2.436-5.427-5.432-5.427s-5.425,2.429-5.425,5.427
		c0,2.989,2.429,5.418,5.425,5.418S1779.855,524.801,1779.855,521.812"/>
	<path style="fill:#FFFFFF;" d="M1633.6,412.619c0-2.235-1.805-4.037-4.037-4.037c-2.235,0-4.044,1.802-4.044,4.037
		c0,2.231,1.809,4.044,4.044,4.044C1631.796,416.663,1633.6,414.85,1633.6,412.619"/>
	<path style="fill:#FFFFFF;" d="M1721.237,522.172c0-2.224-1.807-4.028-4.039-4.028c-2.224,0-4.026,1.804-4.026,4.028
		c0,2.224,1.802,4.028,4.026,4.028C1719.431,526.2,1721.237,524.396,1721.237,522.172"/>
	<path style="fill:#FFFFFF;" d="M1532.678,456.535c0-4.149-3.356-7.516-7.507-7.516c-4.149,0-7.505,3.367-7.505,7.516
		c0,4.137,3.356,7.505,7.505,7.505C1529.322,464.04,1532.678,460.672,1532.678,456.535"/>
	<path style="fill:#FFFFFF;" d="M1580.223,478.444c0-6.209-5.024-11.235-11.235-11.235c-6.202,0-11.232,5.026-11.232,11.235
		c0,6.199,5.031,11.232,11.232,11.232C1575.199,489.676,1580.223,484.643,1580.223,478.444"/>
	<path style="fill:#FFFFFF;" d="M1595.436,500.35c0-2.497-2.028-4.534-4.529-4.534c-2.506,0-4.534,2.037-4.534,4.534
		c0,2.502,2.028,4.536,4.534,4.536C1593.408,504.886,1595.436,502.852,1595.436,500.35"/>
	<path style="fill:#FFFFFF;" d="M1463.949,411.494c0-5.309-4.295-9.603-9.603-9.603c-5.297,0-9.601,4.295-9.601,9.603
		s4.304,9.601,9.601,9.601C1459.654,421.095,1463.949,416.802,1463.949,411.494"/>
	<path style="fill:#FFFFFF;" d="M1466.738,433.403c0-6.844-5.548-12.394-12.392-12.394c-6.844,0-12.39,5.55-12.39,12.394
		s5.546,12.394,12.39,12.394C1461.19,445.797,1466.738,440.247,1466.738,433.403"/>
	<path style="fill:#FFFFFF;" d="M614.788,433.403c0-6.359-5.154-11.524-11.519-11.524c-6.359,0-11.524,5.165-11.524,11.524
		c0,6.37,5.165,11.522,11.524,11.522C609.635,444.924,614.788,439.773,614.788,433.403"/>
	<path style="fill:#FFFFFF;" d="M1983.399,411.494c0-1.77-1.433-3.203-3.196-3.203c-1.764,0-3.201,1.433-3.201,3.203
		c0,1.768,1.438,3.203,3.201,3.203C1981.966,414.697,1983.399,413.262,1983.399,411.494"/>
	<path style="fill:#FFFFFF;" d="M2117.955,477.229c0-3.479-2.816-6.288-6.284-6.288c-3.479,0-6.286,2.809-6.286,6.288
		c0,3.472,2.807,6.288,6.286,6.288C2115.139,483.517,2117.955,480.701,2117.955,477.229"/>
	<path style="fill:#FFFFFF;" d="M2071.406,499.138c0-1.966-1.597-3.563-3.561-3.563c-1.971,0-3.565,1.597-3.565,3.563
		c0,1.968,1.595,3.563,3.565,3.563C2069.808,502.701,2071.406,501.106,2071.406,499.138"/>
	<path style="fill:#FFFFFF;" d="M2260.43,411.494c0-2.67-2.162-4.835-4.837-4.835c-2.668,0-4.834,2.165-4.834,4.835
		s2.167,4.835,4.834,4.835C2258.267,416.329,2260.43,414.164,2260.43,411.494"/>
	<path style="fill:#FFFFFF;" d="M2287.114,411.494c0-5.309-4.302-9.61-9.61-9.61c-5.306,0-9.612,4.302-9.612,9.61
		c0,5.306,4.306,9.61,9.612,9.61C2282.812,421.104,2287.114,416.8,2287.114,411.494"/>
	<path style="fill:#FFFFFF;" d="M2305.115,499.138c0-3.153-2.547-5.703-5.698-5.703c-3.156,0-5.708,2.549-5.708,5.703
		c0,3.153,2.552,5.705,5.708,5.705C2302.568,504.843,2305.115,502.291,2305.115,499.138"/>
	<path style="fill:#FFFFFF;" d="M2263.102,521.047c0-4.147-3.356-7.505-7.51-7.505c-4.146,0-7.507,3.358-7.507,7.505
		c0,4.149,3.361,7.507,7.507,7.507C2259.746,528.554,2263.102,525.195,2263.102,521.047"/>
	<path style="fill:#FFFFFF;" d="M547.716,433.305c0-0.875-0.709-1.583-1.581-1.583c-0.875,0-1.583,0.709-1.583,1.583
		c0,0.873,0.709,1.579,1.583,1.579C547.007,434.884,547.716,434.177,547.716,433.305"/>
	<path style="fill:#FFFFFF;" d="M553.455,455.216c0-4.044-3.272-7.322-7.318-7.322c-4.044,0-7.325,3.278-7.325,7.322
		c0,4.037,3.281,7.318,7.325,7.318C550.183,462.534,553.455,459.253,553.455,455.216"/>
	<path style="fill:#FFFFFF;" d="M536.253,477.127c0-6.639-5.377-12.023-12.025-12.023c-6.639,0-12.023,5.384-12.023,12.023
		c0,6.639,5.384,12.023,12.023,12.023C530.876,489.149,536.253,483.766,536.253,477.127"/>
	<path style="fill:#FFFFFF;" d="M1244.573,225.407c0-5.865-4.748-10.617-10.615-10.617c-5.865,0-10.615,4.753-10.615,10.617
		c0,5.855,4.75,10.615,10.615,10.615C1239.824,236.021,1244.573,231.262,1244.573,225.407"/>
	<path style="fill:#FFFFFF;" d="M1195.843,291.133c0-3.153-2.559-5.703-5.703-5.703c-3.153,0-5.712,2.55-5.712,5.703
		c0,3.153,2.559,5.705,5.712,5.705C1193.284,296.838,1195.843,294.286,1195.843,291.133"/>
	<path style="fill:#FFFFFF;" d="M1898.403,269.279c0-2.52-2.041-4.561-4.559-4.561s-4.559,2.041-4.559,4.561
		c0,2.515,2.041,4.559,4.559,4.559S1898.403,271.794,1898.403,269.279"/>
	<path style="fill:#FFFFFF;" d="M1309.073,291.187c0-3.764-3.058-6.812-6.819-6.812c-3.759,0-6.819,3.048-6.819,6.812
		c0,3.768,3.06,6.817,6.819,6.817C1306.015,298.004,1309.073,294.956,1309.073,291.187"/>
	<path style="fill:#FFFFFF;" d="M1851.999,268.96c0-3.736-3.035-6.76-6.76-6.76c-3.736,0-6.767,3.023-6.767,6.76
		c0,3.737,3.03,6.758,6.767,6.758C1848.964,275.717,1851.999,272.696,1851.999,268.96"/>
	<path style="fill:#FFFFFF;" d="M1920.261,291.187c0-2.484-2.021-4.502-4.509-4.502c-2.493,0-4.5,2.019-4.5,4.502
		c0,2.49,2.007,4.507,4.5,4.507C1918.24,295.694,1920.261,293.678,1920.261,291.187"/>
	<path style="fill:#FFFFFF;" d="M1593.506,225.459c0-3.538-2.868-6.416-6.413-6.416c-3.541,0-6.411,2.878-6.411,6.416
		c0,3.538,2.871,6.407,6.411,6.407C1590.637,231.866,1593.506,228.997,1593.506,225.459"/>
	<path style="fill:#FFFFFF;" d="M1638.234,225.459c0-4.044-3.274-7.325-7.32-7.325c-4.044,0-7.325,3.281-7.325,7.325
		c0,4.035,3.281,7.316,7.325,7.316C1634.96,232.775,1638.234,229.494,1638.234,225.459"/>
	<path style="fill:#FFFFFF;" d="M1593.465,269.279c0-3.522-2.852-6.375-6.372-6.375c-3.516,0-6.37,2.853-6.37,6.375
		c0,3.518,2.855,6.37,6.37,6.37C1590.612,275.649,1593.465,272.796,1593.465,269.279"/>
	<path style="fill:#FFFFFF;" d="M2005.508,225.589c0-1.408-1.139-2.55-2.558-2.55c-1.406,0-2.549,1.142-2.549,2.55
		c0,1.417,1.144,2.561,2.549,2.561C2004.369,228.15,2005.508,227.006,2005.508,225.589"/>
	<path style="fill:#FFFFFF;" d="M2005.139,247.509c0-1.212-0.98-2.19-2.189-2.19c-1.198,0-2.18,0.978-2.18,2.19
		c0,1.201,0.982,2.18,2.18,2.18C2004.16,249.689,2005.139,248.71,2005.139,247.509"/>
	<path style="fill:#FFFFFF;" d="M2035.517,247.509c0-5.894-4.764-10.658-10.658-10.658c-5.883,0-10.647,4.764-10.647,10.658
		c0,5.883,4.764,10.649,10.647,10.649C2030.753,258.158,2035.517,253.392,2035.517,247.509"/>
	<path style="fill:#FFFFFF;" d="M1380.351,225.605c0-7.211-5.839-13.053-13.044-13.053c-7.211,0-13.055,5.842-13.055,13.053
		c0,7.202,5.844,13.046,13.055,13.046C1374.512,238.651,1380.351,232.807,1380.351,225.605"/>
	<path style="fill:#FFFFFF;" d="M1436.866,225.605c0-2.313-1.877-4.181-4.181-4.181c-2.317,0-4.186,1.868-4.186,4.181
		c0,2.306,1.868,4.176,4.186,4.176C1434.989,229.781,1436.866,227.91,1436.866,225.605"/>
	<path style="fill:#FFFFFF;" d="M1347.958,247.511c0-1.344-1.094-2.447-2.447-2.447c-1.344,0-2.442,1.103-2.442,2.447
		c0,1.353,1.098,2.445,2.442,2.445C1346.864,249.956,1347.958,248.865,1347.958,247.511"/>
	<path style="fill:#FFFFFF;" d="M1420.551,269.425c0-5.336-4.327-9.656-9.66-9.656c-5.336,0-9.658,4.32-9.658,9.656
		c0,5.334,4.322,9.656,9.658,9.656C1416.224,279.08,1420.551,274.758,1420.551,269.425"/>
	<path style="fill:#FFFFFF;" d="M809.547,247.206c0-7.149-5.803-12.946-12.953-12.946c-7.159,0-12.955,5.796-12.955,12.946
		c0,7.159,5.796,12.953,12.955,12.953C803.744,260.158,809.547,254.365,809.547,247.206"/>
	<path style="fill:#FFFFFF;" d="M1692.418,203.548c0-1.567-1.271-2.832-2.834-2.832c-1.563,0-2.828,1.265-2.828,2.832
		c0,1.563,1.265,2.827,2.828,2.827C1691.147,206.375,1692.418,205.111,1692.418,203.548"/>
	<path style="fill:#FFFFFF;" d="M1716.385,269.279c0-2.702-2.183-4.889-4.889-4.889c-2.7,0-4.892,2.187-4.892,4.889
		c0,2.697,2.192,4.885,4.892,4.885C1714.202,274.163,1716.385,271.976,1716.385,269.279"/>
	<path style="fill:#FFFFFF;" d="M1768.363,225.3c0-7.211-5.84-13.053-13.042-13.053c-7.211,0-13.057,5.842-13.057,13.053
		c0,7.204,5.846,13.048,13.057,13.048C1762.524,238.348,1768.363,232.504,1768.363,225.3"/>
	<path style="fill:#FFFFFF;" d="M1768.179,269.119c0-7.104-5.755-12.864-12.857-12.864c-7.106,0-12.868,5.76-12.868,12.864
		s5.762,12.861,12.868,12.861C1762.423,281.98,1768.179,276.223,1768.179,269.119"/>
	<path style="fill:#FFFFFF;" d="M1763.758,291.037c0-4.668-3.782-8.444-8.437-8.444c-4.659,0-8.443,3.775-8.443,8.444
		c0,4.657,3.784,8.432,8.443,8.432C1759.976,299.469,1763.758,295.694,1763.758,291.037"/>
	<path style="fill:#FFFFFF;" d="M935.205,225.3c0-2.313-1.877-4.181-4.183-4.181c-2.312,0-4.181,1.868-4.181,4.181
		c0,2.308,1.868,4.174,4.181,4.174C933.328,229.473,935.205,227.607,935.205,225.3"/>
	<path style="fill:#FFFFFF;" d="M846.295,247.206c0-1.344-1.091-2.445-2.445-2.445c-1.346,0-2.445,1.1-2.445,2.445
		c0,1.353,1.098,2.442,2.445,2.442C845.203,249.648,846.295,248.559,846.295,247.206"/>
	<path style="fill:#FFFFFF;" d="M936.841,247.206c0-3.212-2.606-5.819-5.819-5.819c-3.222,0-5.826,2.606-5.826,5.819
		c0,3.222,2.604,5.826,5.826,5.826C934.235,253.032,936.841,250.428,936.841,247.206"/>
</g>
<g id="Ebene_1">
</g>
</svg>
