<?xml version="1.0" encoding="iso-8859-1"?>
<!-- Generator: Adobe Illustrator 18.0.0, SVG Export Plug-In . SVG Version: 6.00 Build 0)  -->
<!DOCTYPE svg PUBLIC "-//W3C//DTD SVG 1.1//EN" "http://www.w3.org/Graphics/SVG/1.1/DTD/svg11.dtd">
<svg version="1.1" xmlns="http://www.w3.org/2000/svg" xmlns:xlink="http://www.w3.org/1999/xlink" x="0px" y="0px"
	 viewBox="0 0 2800 750" style="enable-background:new 0 0 2800 750;" xml:space="preserve">
<g id="n10">
	<path style="fill:#FFFFFF;" d="M1132.807,477.266c0-3.764-3.048-6.821-6.819-6.821c-3.762,0-6.81,3.057-6.81,6.821
		c0,3.759,3.049,6.81,6.81,6.81C1129.759,484.076,1132.807,481.025,1132.807,477.266"/>
	<path style="fill:#FFFFFF;" d="M1114.84,499.174c0-5.944-4.816-10.763-10.761-10.763c-5.942,0-10.761,4.819-10.761,10.763
		c0,5.942,4.819,10.761,10.761,10.761C1110.024,509.935,1114.84,505.116,1114.84,499.174"/>
	<path style="fill:#FFFFFF;" d="M1779.112,434.168c0-2.595-2.103-4.691-4.689-4.691c-2.593,0-4.687,2.096-4.687,4.691
		c0,2.584,2.094,4.689,4.687,4.689C1777.009,438.857,1779.112,436.752,1779.112,434.168"/>
	<path style="fill:#FFFFFF;" d="M1680.466,456.446c0-3.919-3.169-7.086-7.086-7.086c-3.905,0-7.086,3.167-7.086,7.086
		c0,3.907,3.181,7.077,7.086,7.077C1677.297,463.523,1680.466,460.353,1680.466,456.446"/>
	<path style="fill:#FFFFFF;" d="M1551.16,434.615c0-2.246-1.823-4.083-4.081-4.083c-2.253,0-4.08,1.837-4.08,4.083
		c0,2.258,1.827,4.092,4.08,4.092C1549.337,438.707,1551.16,436.872,1551.16,434.615"/>
	<path style="fill:#FFFFFF;" d="M1466.747,455.311c0-6.844-5.557-12.392-12.401-12.392c-6.844,0-12.39,5.548-12.39,12.392
		s5.546,12.403,12.39,12.403C1461.19,467.715,1466.747,462.155,1466.747,455.311"/>
	<path style="fill:#FFFFFF;" d="M1038.734,521.047c0-4.147-3.358-7.505-7.505-7.505c-4.149,0-7.507,3.358-7.507,7.505
		c0,4.149,3.358,7.507,7.507,7.507C1035.376,528.554,1038.734,525.195,1038.734,521.047"/>
	<path style="fill:#FFFFFF;" d="M2197.791,411.494c0-4.149-3.36-7.507-7.505-7.507c-4.149,0-7.51,3.358-7.51,7.507
		c0,4.147,3.361,7.505,7.51,7.505C2194.43,418.999,2197.791,415.64,2197.791,411.494"/>
	<path style="fill:#FFFFFF;" d="M2201.807,455.311c0-6.359-5.154-11.521-11.522-11.521c-6.361,0-11.521,5.163-11.521,11.521
		c0,6.37,5.16,11.524,11.521,11.524C2196.654,466.835,2201.807,461.682,2201.807,455.311"/>
	<path style="fill:#FFFFFF;" d="M2201.807,499.133c0-6.357-5.154-11.521-11.522-11.521c-6.361,0-11.521,5.165-11.521,11.521
		c0,6.37,5.16,11.524,11.521,11.524C2196.654,510.657,2201.807,505.504,2201.807,499.133"/>
	<path style="fill:#FFFFFF;" d="M716.884,455.311c0-4.14-3.358-7.487-7.498-7.487c-4.14,0-7.498,3.347-7.498,7.487
		c0,4.14,3.358,7.498,7.498,7.498C713.526,462.809,716.884,459.451,716.884,455.311"/>
	<path style="fill:#FFFFFF;" d="M741.996,477.229c0-5.917-4.791-10.708-10.701-10.708c-5.908,0-10.701,4.791-10.701,10.708
		c0,5.91,4.794,10.701,10.701,10.701C737.205,487.931,741.996,483.139,741.996,477.229"/>
	<path style="fill:#FFFFFF;" d="M718.31,521.047c0-4.93-3.994-8.922-8.924-8.922c-4.93,0-8.915,3.992-8.915,8.922
		s3.985,8.924,8.915,8.924C714.316,529.971,718.31,525.977,718.31,521.047"/>
	<path style="fill:#FFFFFF;" d="M826.104,521.047c0-3.96-3.206-7.163-7.165-7.163c-3.958,0-7.161,3.203-7.161,7.163
		c0,3.96,3.203,7.163,7.161,7.163C822.898,528.21,826.104,525.006,826.104,521.047"/>
	<path style="fill:#FFFFFF;" d="M1209.859,521.047c0-0.925-0.756-1.681-1.684-1.681c-0.927,0-1.675,0.756-1.675,1.681
		c0,0.93,0.747,1.684,1.675,1.684C1209.103,522.73,1209.859,521.976,1209.859,521.047"/>
	<path style="fill:#FFFFFF;" d="M1964.869,411.494c0-3.632-2.939-6.58-6.58-6.58c-3.632,0-6.582,2.948-6.582,6.58
		c0,3.632,2.95,6.58,6.582,6.58C1961.93,418.074,1964.869,415.126,1964.869,411.494"/>
	<path style="fill:#FFFFFF;" d="M2093.444,411.494c0-2.037-1.647-3.684-3.691-3.684c-2.037,0-3.686,1.647-3.686,3.684
		c0,2.035,1.65,3.684,3.686,3.684C2091.797,415.178,2093.444,413.529,2093.444,411.494"/>
	<path style="fill:#FFFFFF;" d="M2027.665,477.229c0-2.019-1.629-3.641-3.641-3.641c-2.01,0-3.641,1.622-3.641,3.641
		c0,2.009,1.631,3.632,3.641,3.632C2026.036,480.861,2027.665,479.239,2027.665,477.229"/>
	<path style="fill:#FFFFFF;" d="M2332.847,477.225c0-6.357-5.149-11.522-11.522-11.522c-6.356,0-11.522,5.165-11.522,11.522
		c0,6.37,5.165,11.524,11.522,11.524C2327.698,488.749,2332.847,483.595,2332.847,477.225"/>
	<path style="fill:#FFFFFF;" d="M536.253,520.892c0-6.639-5.377-12.025-12.025-12.025c-6.639,0-12.023,5.386-12.023,12.025
		c0,6.639,5.384,12.025,12.023,12.025C530.876,532.917,536.253,527.531,536.253,520.892"/>
	<path style="fill:#FFFFFF;" d="M1258.58,269.224c0-1.492-1.219-2.714-2.714-2.714c-1.492,0-2.704,1.221-2.704,2.714
		c0,1.495,1.212,2.716,2.704,2.716C1257.361,271.94,1258.58,270.718,1258.58,269.224"/>
	<path style="fill:#FFFFFF;" d="M1314.648,269.279c0-6.847-5.548-12.394-12.394-12.394c-6.844,0-12.392,5.548-12.392,12.394
		c0,6.844,5.548,12.39,12.392,12.39C1309.1,281.668,1314.648,276.123,1314.648,269.279"/>
	<path style="fill:#FFFFFF;" d="M1054.297,181.632c0-6.847-5.548-12.385-12.392-12.385c-6.846,0-12.394,5.539-12.394,12.385
		c0,6.844,5.548,12.392,12.394,12.392C1048.75,194.024,1054.297,188.477,1054.297,181.632"/>
	<path style="fill:#FFFFFF;" d="M1054.282,203.548c0-6.844-5.541-12.383-12.376-12.383c-6.837,0-12.385,5.539-12.385,12.383
		c0,6.837,5.548,12.378,12.385,12.378C1048.741,215.926,1054.282,210.385,1054.282,203.548"/>
	<path style="fill:#FFFFFF;" d="M1851.366,225.142c0-3.386-2.752-6.124-6.127-6.124c-3.383,0-6.133,2.739-6.133,6.124
		c0,3.381,2.75,6.124,6.133,6.124C1848.614,231.266,1851.366,228.523,1851.366,225.142"/>
	<path style="fill:#FFFFFF;" d="M1833.786,268.96c0-5.773-4.684-10.453-10.462-10.453c-5.776,0-10.456,4.68-10.456,10.453
		c0,5.771,4.68,10.458,10.456,10.458C1829.102,279.417,1833.786,274.731,1833.786,268.96"/>
	<path style="fill:#FFFFFF;" d="M1851.535,290.868c0-3.479-2.816-6.298-6.295-6.298c-3.477,0-6.3,2.819-6.3,6.298
		c0,3.477,2.823,6.304,6.3,6.304C1848.718,297.173,1851.535,294.345,1851.535,290.868"/>
	<path style="fill:#FFFFFF;" d="M1638.234,269.279c0-4.037-3.281-7.318-7.32-7.318c-4.044,0-7.316,3.281-7.316,7.318
		c0,4.044,3.272,7.316,7.316,7.316C1634.953,276.594,1638.234,273.323,1638.234,269.279"/>
	<path style="fill:#FFFFFF;" d="M2076.862,225.589c0-4.507-3.657-8.175-8.177-8.175c-4.518,0-8.175,3.668-8.175,8.175
		c0,4.52,3.657,8.179,8.175,8.179C2073.205,233.768,2076.862,230.109,2076.862,225.589"/>
	<path style="fill:#FFFFFF;" d="M778.092,225.457c0-1.887-1.524-3.413-3.409-3.413c-1.886,0-3.415,1.527-3.415,3.413
		c0,1.884,1.529,3.408,3.415,3.408C776.568,228.865,778.092,227.341,778.092,225.457"/>
</g>
<g id="Ebene_1">
</g>
</svg>
