<?xml version="1.0" encoding="iso-8859-1"?>
<!-- Generator: Adobe Illustrator 18.0.0, SVG Export Plug-In . SVG Version: 6.00 Build 0)  -->
<!DOCTYPE svg PUBLIC "-//W3C//DTD SVG 1.1//EN" "http://www.w3.org/Graphics/SVG/1.1/DTD/svg11.dtd">
<svg version="1.1" xmlns="http://www.w3.org/2000/svg" xmlns:xlink="http://www.w3.org/1999/xlink" x="0px" y="0px"
	 viewBox="0 0 2800 750" style="enable-background:new 0 0 2800 750;" xml:space="preserve">
<g id="n11">
	<path style="fill:#FFFFFF;" d="M1131.522,433.437c0-3.053-2.465-5.532-5.534-5.532c-3.053,0-5.532,2.479-5.532,5.532
		c0,3.069,2.479,5.534,5.532,5.534C1129.057,438.971,1131.522,436.506,1131.522,433.437"/>
	<path style="fill:#FFFFFF;" d="M1173.217,477.266c0-1.882-1.52-3.411-3.402-3.411c-1.88,0-3.408,1.529-3.408,3.411
		c0,1.88,1.529,3.399,3.408,3.399C1171.697,480.665,1173.217,479.145,1173.217,477.266"/>
	<path style="fill:#FFFFFF;" d="M1785.968,456.077c0-6.375-5.172-11.545-11.545-11.545c-6.381,0-11.542,5.17-11.542,11.545
		c0,6.37,5.161,11.542,11.542,11.542C1780.796,467.619,1785.968,462.447,1785.968,456.077"/>
	<path style="fill:#FFFFFF;" d="M1633.584,434.528c0-2.217-1.798-4.021-4.021-4.021c-2.226,0-4.028,1.804-4.028,4.021
		c0,2.224,1.802,4.028,4.028,4.028C1631.787,438.556,1633.584,436.752,1633.584,434.528"/>
	<path style="fill:#FFFFFF;" d="M1594.791,522.261c0-2.146-1.743-3.882-3.885-3.882c-2.146,0-3.889,1.736-3.889,3.882
		c0,2.148,1.743,3.889,3.889,3.889C1593.048,526.15,1594.791,524.409,1594.791,522.261"/>
	<path style="fill:#FFFFFF;" d="M1466.747,477.229c0-6.844-5.557-12.401-12.401-12.401c-6.844,0-12.39,5.557-12.39,12.401
		s5.546,12.394,12.39,12.394C1461.19,489.623,1466.747,484.073,1466.747,477.229"/>
	<path style="fill:#FFFFFF;" d="M1392.853,499.138c0-2.344-1.898-4.242-4.233-4.242c-2.344,0-4.242,1.898-4.242,4.242
		c0,2.337,1.898,4.235,4.242,4.235C1390.955,503.373,1392.853,501.475,1392.853,499.138"/>
	<path style="fill:#FFFFFF;" d="M614.788,455.311c0-6.359-5.154-11.521-11.519-11.521c-6.359,0-11.524,5.163-11.524,11.521
		c0,6.37,5.165,11.524,11.524,11.524C609.635,466.835,614.788,461.682,614.788,455.311"/>
	<path style="fill:#FFFFFF;" d="M1232.078,433.403c0-1.098-0.893-1.984-1.991-1.984c-1.091,0-1.987,0.886-1.987,1.984
		s0.896,1.982,1.987,1.982C1231.185,435.385,1232.078,434.501,1232.078,433.403"/>
	<path style="fill:#FFFFFF;" d="M1255.584,499.138c0-1.982-1.606-3.591-3.582-3.591c-1.984,0-3.591,1.609-3.591,3.591
		c0,1.984,1.606,3.591,3.591,3.591C1253.978,502.729,1255.584,501.122,1255.584,499.138"/>
	<path style="fill:#FFFFFF;" d="M1984.313,477.229c0-2.274-1.839-4.115-4.11-4.115c-2.274,0-4.11,1.841-4.11,4.115
		c0,2.267,1.836,4.105,4.11,4.105C1982.474,481.335,1984.313,479.496,1984.313,477.229"/>
	<path style="fill:#FFFFFF;" d="M1945.993,521.047c0-5.309-4.308-9.61-9.612-9.61c-5.299,0-9.604,4.301-9.604,9.61
		s4.304,9.601,9.604,9.601C1941.685,530.648,1945.993,526.355,1945.993,521.047"/>
	<path style="fill:#FFFFFF;" d="M2074.267,411.494c0-3.547-2.875-6.416-6.423-6.416c-3.536,0-6.416,2.868-6.416,6.416
		c0,3.545,2.88,6.414,6.416,6.414C2071.392,417.907,2074.267,415.039,2074.267,411.494"/>
	<path style="fill:#FFFFFF;" d="M2074.028,433.403c0-3.408-2.768-6.184-6.184-6.184c-3.411,0-6.186,2.775-6.186,6.184
		c0,3.418,2.775,6.184,6.186,6.184C2071.26,439.586,2074.028,436.82,2074.028,433.403"/>
	<path style="fill:#FFFFFF;" d="M2100.915,433.403c0-6.165-4.994-11.155-11.162-11.155c-6.158,0-11.157,4.989-11.157,11.155
		s4.999,11.164,11.157,11.164C2095.921,444.567,2100.915,439.568,2100.915,433.403"/>
	<path style="fill:#FFFFFF;" d="M2057.512,499.138c0-6.398-5.179-11.585-11.576-11.585c-6.4,0-11.581,5.188-11.581,11.585
		c0,6.391,5.181,11.579,11.581,11.579C2052.333,510.716,2057.512,505.529,2057.512,499.138"/>
	<path style="fill:#FFFFFF;" d="M2305.27,477.229c0-3.238-2.62-5.858-5.853-5.858c-3.235,0-5.853,2.62-5.853,5.858
		c0,3.231,2.618,5.848,5.853,5.848C2302.65,483.078,2305.27,480.46,2305.27,477.229"/>
	<path style="fill:#FFFFFF;" d="M505.63,564.864c0-1.827-1.485-3.313-3.315-3.313c-1.83,0-3.315,1.486-3.315,3.313
		c0,1.832,1.485,3.317,3.315,3.317C504.144,568.181,505.63,566.696,505.63,564.864"/>
	<path style="fill:#FFFFFF;" d="M1257.86,225.407c0-1.107-0.893-2.001-1.994-2.001c-1.098,0-1.991,0.893-1.991,2.001
		c0,1.098,0.893,1.991,1.991,1.991C1256.967,227.398,1257.86,226.505,1257.86,225.407"/>
	<path style="fill:#FFFFFF;" d="M1313.47,181.632c0-6.193-5.024-11.216-11.216-11.216c-6.19,0-11.216,5.024-11.216,11.216
		c0,6.199,5.026,11.225,11.216,11.225C1308.446,192.858,1313.47,187.832,1313.47,181.632"/>
	<path style="fill:#FFFFFF;" d="M1025.244,225.459c0-2.905-2.354-5.247-5.247-5.247c-2.903,0-5.249,2.342-5.249,5.247
		c0,2.896,2.347,5.247,5.249,5.247C1022.89,230.706,1025.244,228.355,1025.244,225.459"/>
	<path style="fill:#FFFFFF;" d="M1003.18,269.279c0-2.821-2.283-5.104-5.101-5.104c-2.812,0-5.094,2.283-5.094,5.104
		c0,2.816,2.283,5.101,5.094,5.101C1000.897,274.38,1003.18,272.095,1003.18,269.279"/>
	<path style="fill:#FFFFFF;" d="M1054.282,269.279c0-6.837-5.541-12.378-12.376-12.378c-6.837,0-12.385,5.541-12.385,12.378
		c0,6.835,5.548,12.385,12.385,12.385C1048.741,281.664,1054.282,276.114,1054.282,269.279"/>
	<path style="fill:#FFFFFF;" d="M1827.145,290.868c0-2.105-1.711-3.814-3.821-3.814c-2.105,0-3.814,1.709-3.814,3.814
		c0,2.112,1.709,3.823,3.814,3.823C1825.434,294.691,1827.145,292.98,1827.145,290.868"/>
	<path style="fill:#FFFFFF;" d="M1621.033,291.133c0-6.639-5.379-12.025-12.027-12.025c-6.637,0-12.021,5.386-12.021,12.025
		c0,6.639,5.384,12.025,12.021,12.025C1615.654,303.158,1621.033,297.772,1621.033,291.133"/>
	<path style="fill:#FFFFFF;" d="M2004.633,291.326c0-0.927-0.754-1.684-1.684-1.684c-0.927,0-1.672,0.756-1.672,1.684
		c0,0.927,0.745,1.684,1.672,1.684C2003.879,293.01,2004.633,292.254,2004.633,291.326"/>
	<path style="fill:#FFFFFF;" d="M1413.882,203.694c0-1.654-1.342-2.985-2.991-2.985c-1.647,0-2.985,1.331-2.985,2.985
		c0,1.65,1.337,2.982,2.985,2.982C1412.54,206.676,1413.882,205.343,1413.882,203.694"/>
	<path style="fill:#FFFFFF;" d="M1347.958,269.425c0-1.353-1.094-2.445-2.447-2.445c-1.344,0-2.442,1.091-2.442,2.445
		c0,1.344,1.098,2.445,2.442,2.445C1346.864,271.869,1347.958,270.769,1347.958,269.425"/>
	<path style="fill:#FFFFFF;" d="M779.115,291.187c0-2.449-1.982-4.434-4.432-4.434c-2.447,0-4.438,1.984-4.438,4.434
		c0,2.447,1.991,4.429,4.438,4.429C777.133,295.616,779.115,293.634,779.115,291.187"/>
	<path style="fill:#FFFFFF;" d="M1757.47,203.548c0-1.191-0.964-2.155-2.153-2.155c-1.192,0-2.153,0.964-2.153,2.155
		c0,1.187,0.961,2.151,2.153,2.151C1756.506,205.699,1757.47,204.735,1757.47,203.548"/>
	<path style="fill:#FFFFFF;" d="M1740.237,269.279c0-3.778-3.053-6.835-6.828-6.835c-3.775,0-6.835,3.057-6.835,6.835
		c0,3.773,3.06,6.833,6.835,6.833C1737.184,276.112,1740.237,273.051,1740.237,269.279"/>
	<path style="fill:#FFFFFF;" d="M1692.27,291.187c0-1.479-1.203-2.68-2.686-2.68c-1.479,0-2.679,1.201-2.679,2.68
		c0,1.485,1.201,2.688,2.679,2.688C1691.067,293.876,1692.27,292.673,1692.27,291.187"/>
	<path style="fill:#FFFFFF;" d="M868.021,203.389c0-1.317-1.062-2.383-2.376-2.383c-1.315,0-2.383,1.066-2.383,2.383
		c0,1.312,1.069,2.383,2.383,2.383C866.959,205.772,868.021,204.701,868.021,203.389"/>
</g>
<g id="Ebene_1">
</g>
</svg>
