<?xml version="1.0" encoding="iso-8859-1"?>
<!-- Generator: Adobe Illustrator 18.0.0, SVG Export Plug-In . SVG Version: 6.00 Build 0)  -->
<!DOCTYPE svg PUBLIC "-//W3C//DTD SVG 1.1//EN" "http://www.w3.org/Graphics/SVG/1.1/DTD/svg11.dtd">
<svg version="1.1" xmlns="http://www.w3.org/2000/svg" xmlns:xlink="http://www.w3.org/1999/xlink" x="0px" y="0px"
	 viewBox="0 0 2800 750" style="enable-background:new 0 0 2800 750;" xml:space="preserve">
<g id="n12">
	<path style="fill:#FFFFFF;" d="M1105.615,433.437c0-0.841-0.683-1.527-1.536-1.527c-0.841,0-1.529,0.686-1.529,1.527
		c0,0.852,0.688,1.538,1.529,1.538C1104.932,434.975,1105.615,434.289,1105.615,433.437"/>
	<path style="fill:#FFFFFF;" d="M1086.183,477.266c0-2.217-1.795-4.012-4.012-4.012c-2.217,0-4.01,1.795-4.01,4.012
		c0,2.215,1.793,4.01,4.01,4.01C1084.388,481.275,1086.183,479.48,1086.183,477.266"/>
	<path style="fill:#FFFFFF;" d="M1159.442,477.266c0-6.375-5.16-11.544-11.535-11.544c-6.373,0-11.542,5.17-11.542,11.544
		c0,6.37,5.17,11.533,11.542,11.533C1154.281,488.799,1159.442,483.636,1159.442,477.266"/>
	<path style="fill:#FFFFFF;" d="M1784.027,499.894c0-5.299-4.306-9.596-9.603-9.596c-5.309,0-9.599,4.297-9.599,9.596
		c0,5.309,4.29,9.601,9.599,9.601C1779.721,509.495,1784.027,505.203,1784.027,499.894"/>
	<path style="fill:#FFFFFF;" d="M1676.032,434.528c0-1.46-1.183-2.656-2.652-2.656c-1.467,0-2.652,1.196-2.652,2.656
		c0,1.467,1.185,2.661,2.652,2.661C1674.85,437.189,1676.032,435.995,1676.032,434.528"/>
	<path style="fill:#FFFFFF;" d="M1662.009,500.263c0-5.823-4.723-10.54-10.537-10.54c-5.823,0-10.537,4.716-10.537,10.54
		c0,5.814,4.714,10.537,10.537,10.537C1657.286,510.801,1662.009,506.078,1662.009,500.263"/>
	<path style="fill:#FFFFFF;" d="M1704.902,500.263c0-5.309-4.304-9.601-9.612-9.601c-5.299,0-9.599,4.292-9.599,9.601
		s4.299,9.601,9.599,9.601C1700.598,509.864,1704.902,505.572,1704.902,500.263"/>
	<path style="fill:#FFFFFF;" d="M1555.945,522.261c0-4.896-3.967-8.854-8.865-8.854c-4.894,0-8.854,3.958-8.854,8.854
		c0,4.896,3.96,8.863,8.854,8.863C1551.978,531.124,1555.945,527.157,1555.945,522.261"/>
	<path style="fill:#FFFFFF;" d="M938.37,455.311c0-5.454-4.422-9.868-9.877-9.868s-9.877,4.413-9.877,9.868
		c0,5.454,4.422,9.877,9.877,9.877S938.37,460.766,938.37,455.311"/>
	<path style="fill:#FFFFFF;" d="M732.773,433.403c0-0.807-0.663-1.467-1.479-1.467c-0.807,0-1.467,0.661-1.467,1.467
		c0,0.816,0.661,1.476,1.467,1.476C732.11,434.879,732.773,434.218,732.773,433.403"/>
	<path style="fill:#FFFFFF;" d="M694.417,477.229c0-3.837-3.11-6.949-6.94-6.949c-3.839,0-6.94,3.112-6.94,6.949
		c0,3.83,3.101,6.94,6.94,6.94C691.307,484.169,694.417,481.059,694.417,477.229"/>
	<path style="fill:#FFFFFF;" d="M958.176,521.047c0-4.292-3.479-7.771-7.774-7.771c-4.286,0-7.762,3.479-7.762,7.771
		c0,4.295,3.477,7.765,7.762,7.765C954.697,528.811,958.176,525.341,958.176,521.047"/>
	<path style="fill:#FFFFFF;" d="M1282.088,455.311c0-4.507-3.659-8.175-8.177-8.175c-4.516,0-8.175,3.668-8.175,8.175
		c0,4.518,3.659,8.177,8.175,8.177C1278.429,463.488,1282.088,459.829,1282.088,455.311"/>
	<path style="fill:#FFFFFF;" d="M1459.317,521.047c0-2.748-2.224-4.971-4.971-4.971c-2.736,0-4.962,2.224-4.962,4.971
		c0,2.741,2.226,4.964,4.962,4.964C1457.094,526.011,1459.317,523.787,1459.317,521.047"/>
	<path style="fill:#FFFFFF;" d="M1963.527,433.403c0-2.884-2.347-5.231-5.238-5.231c-2.887,0-5.233,2.347-5.233,5.231
		c0,2.893,2.347,5.231,5.233,5.231C1961.181,438.634,1963.527,436.296,1963.527,433.403"/>
	<path style="fill:#FFFFFF;" d="M1940.299,477.229c0-2.165-1.752-3.914-3.919-3.914c-2.167,0-3.917,1.75-3.917,3.914
		c0,2.155,1.75,3.916,3.917,3.916C1938.547,481.146,1940.299,479.384,1940.299,477.229"/>
	<path style="fill:#FFFFFF;" d="M1947.551,499.138c0-6.174-4.994-11.173-11.171-11.173c-6.168,0-11.173,4.999-11.173,11.173
		c0,6.167,5.005,11.173,11.173,11.173C1942.557,510.311,1947.551,505.305,1947.551,499.138"/>
	<path style="fill:#FFFFFF;" d="M2056.815,433.403c0-6.012-4.866-10.881-10.879-10.881c-6.013,0-10.881,4.869-10.881,10.881
		c0,6.013,4.869,10.882,10.881,10.882C2051.948,444.284,2056.815,439.415,2056.815,433.403"/>
	<path style="fill:#FFFFFF;" d="M553.386,520.944c0-4.003-3.247-7.248-7.25-7.248c-4.001,0-7.247,3.245-7.247,7.248
		s3.247,7.247,7.247,7.247C550.14,528.191,553.386,524.947,553.386,520.944"/>
	<path style="fill:#FFFFFF;" d="M1245.012,247.315c0-6.106-4.949-11.055-11.055-11.055c-6.106,0-11.052,4.949-11.052,11.055
		s4.946,11.055,11.052,11.055C1240.064,258.37,1245.012,253.421,1245.012,247.315"/>
	<path style="fill:#FFFFFF;" d="M1171.125,269.224c0-1.597-1.296-2.893-2.902-2.893c-1.597,0-2.893,1.296-2.893,2.893
		c0,1.6,1.296,2.894,2.893,2.894C1169.829,272.118,1171.125,270.823,1171.125,269.224"/>
	<path style="fill:#FFFFFF;" d="M1900.257,247.368c0-3.548-2.878-6.414-6.414-6.414c-3.55,0-6.416,2.866-6.416,6.414
		c0,3.538,2.866,6.416,6.416,6.416C1897.38,253.784,1900.257,250.906,1900.257,247.368"/>
	<path style="fill:#FFFFFF;" d="M1926.454,247.368c0-5.908-4.794-10.702-10.701-10.702c-5.908,0-10.692,4.794-10.692,10.702
		c0,5.908,4.784,10.692,10.692,10.692C1921.66,258.06,1926.454,253.275,1926.454,247.368"/>
	<path style="fill:#FFFFFF;" d="M1048.725,291.187c0-3.764-3.058-6.812-6.819-6.812c-3.771,0-6.819,3.048-6.819,6.812
		c0,3.768,3.048,6.817,6.819,6.817C1045.667,298.004,1048.725,294.956,1048.725,291.187"/>
	<path style="fill:#FFFFFF;" d="M1848.11,181.316c0-1.581-1.289-2.871-2.871-2.871c-1.588,0-2.878,1.289-2.878,2.871
		c0,1.588,1.29,2.875,2.878,2.875C1846.821,184.191,1848.11,182.904,1848.11,181.316"/>
	<path style="fill:#FFFFFF;" d="M1962.696,291.187c0-1.727-1.399-3.126-3.126-3.126c-1.725,0-3.126,1.399-3.126,3.126
		c0,1.725,1.401,3.126,3.126,3.126C1961.297,294.313,1962.696,292.912,1962.696,291.187"/>
	<path style="fill:#FFFFFF;" d="M1638.225,247.368c0-4.035-3.272-7.316-7.311-7.316c-4.044,0-7.316,3.281-7.316,7.316
		c0,4.037,3.272,7.316,7.316,7.316C1634.953,254.683,1638.225,251.405,1638.225,247.368"/>
	<path style="fill:#FFFFFF;" d="M1638.166,291.187c0-4.003-3.247-7.25-7.252-7.25c-4.001,0-7.25,3.247-7.25,7.25
		c0,4.001,3.249,7.247,7.25,7.247C1634.919,298.435,1638.166,295.188,1638.166,291.187"/>
	<path style="fill:#FFFFFF;" d="M2080.897,269.415c0-6.749-5.468-12.21-12.212-12.21c-6.739,0-12.21,5.461-12.21,12.21
		c0,6.744,5.471,12.214,12.21,12.214C2075.429,281.63,2080.897,276.159,2080.897,269.415"/>
	<path style="fill:#FFFFFF;" d="M1380.26,247.511c0-7.15-5.803-12.946-12.953-12.946c-7.158,0-12.955,5.796-12.955,12.946
		c0,7.156,5.796,12.952,12.955,12.952C1374.457,260.464,1380.26,254.668,1380.26,247.511"/>
	<path style="fill:#FFFFFF;" d="M1347.117,291.34c0-0.891-0.72-1.606-1.606-1.606c-0.884,0-1.597,0.716-1.597,1.606
		c0,0.886,0.713,1.6,1.597,1.6C1346.397,292.939,1347.117,292.226,1347.117,291.34"/>
	<path style="fill:#FFFFFF;" d="M740.684,269.279c0-5.429-4.397-9.827-9.827-9.827c-5.427,0-9.824,4.397-9.824,9.827
		c0,5.427,4.397,9.824,9.824,9.824C736.286,279.103,740.684,274.706,740.684,269.279"/>
	<path style="fill:#FFFFFF;" d="M757.662,269.279c0-2.702-2.189-4.889-4.894-4.889c-2.7,0-4.887,2.187-4.887,4.889
		c0,2.697,2.187,4.885,4.887,4.885C755.472,274.163,757.662,271.976,757.662,269.279"/>
	<path style="fill:#FFFFFF;" d="M805.034,291.037c0-4.668-3.782-8.444-8.439-8.444c-4.659,0-8.444,3.775-8.444,8.444
		c0,4.657,3.784,8.432,8.444,8.432C801.251,299.469,805.034,295.694,805.034,291.037"/>
	<path style="fill:#FFFFFF;" d="M1699.406,269.279c0-5.429-4.395-9.827-9.822-9.827c-5.429,0-9.824,4.397-9.824,9.827
		c0,5.427,4.395,9.824,9.824,9.824C1695.011,279.103,1699.406,274.706,1699.406,269.279"/>
	<path style="fill:#FFFFFF;" d="M889.379,203.389c0-1.071-0.87-1.939-1.939-1.939c-1.075,0-1.943,0.868-1.943,1.939
		c0,1.066,0.868,1.934,1.943,1.934C888.508,205.323,889.379,204.455,889.379,203.389"/>
	<path style="fill:#FFFFFF;" d="M912.219,203.389c0-1.654-1.34-2.985-2.991-2.985c-1.645,0-2.985,1.331-2.985,2.985
		c0,1.649,1.34,2.98,2.985,2.98C910.879,206.369,912.219,205.038,912.219,203.389"/>
</g>
<g id="Ebene_1">
</g>
</svg>
