<?xml version="1.0" encoding="iso-8859-1"?>
<!-- Generator: Adobe Illustrator 18.0.0, SVG Export Plug-In . SVG Version: 6.00 Build 0)  -->
<!DOCTYPE svg PUBLIC "-//W3C//DTD SVG 1.1//EN" "http://www.w3.org/Graphics/SVG/1.1/DTD/svg11.dtd">
<svg version="1.1" xmlns="http://www.w3.org/2000/svg" xmlns:xlink="http://www.w3.org/1999/xlink" x="0px" y="0px"
	 viewBox="0 0 1200 1760.01" style="enable-background:new 0 0 1200 1760.01;" xml:space="preserve">
<g id="n12">
	<path style="fill:#FFFFFF;" d="M473.557,867.747c0-0.36-0.293-0.654-0.658-0.654c-0.36,0-0.655,0.294-0.655,0.654
		c0,0.365,0.295,0.659,0.655,0.659C473.264,868.406,473.557,868.112,473.557,867.747"/>
	<path style="fill:#FFFFFF;" d="M465.227,886.533c0-0.95-0.769-1.72-1.72-1.72c-0.95,0-1.719,0.77-1.719,1.72
		c0,0.949,0.768,1.719,1.719,1.719C464.458,888.252,465.227,887.482,465.227,886.533"/>
	<path style="fill:#FFFFFF;" d="M496.628,886.533c0-2.732-2.212-4.948-4.944-4.948c-2.732,0-4.947,2.216-4.947,4.948
		c0,2.73,2.216,4.943,4.947,4.943C494.416,891.477,496.628,889.264,496.628,886.533"/>
	<path style="fill:#FFFFFF;" d="M764.341,896.232c0-2.271-1.846-4.113-4.116-4.113c-2.275,0-4.114,1.842-4.114,4.113
		c0,2.275,1.839,4.115,4.114,4.115C762.495,900.348,764.341,898.508,764.341,896.232"/>
	<path style="fill:#FFFFFF;" d="M718.052,868.215c0-0.626-0.507-1.139-1.137-1.139c-0.629,0-1.137,0.513-1.137,1.139
		c0,0.629,0.508,1.141,1.137,1.141C717.545,869.355,718.052,868.844,718.052,868.215"/>
	<path style="fill:#FFFFFF;" d="M712.041,896.391c0-2.496-2.024-4.518-4.517-4.518c-2.496,0-4.517,2.021-4.517,4.518
		c0,2.492,2.02,4.517,4.517,4.517C710.017,900.907,712.041,898.883,712.041,896.391"/>
	<path style="fill:#FFFFFF;" d="M730.426,896.391c0-2.275-1.845-4.115-4.12-4.115c-2.271,0-4.114,1.84-4.114,4.115
		s1.843,4.115,4.114,4.115C728.581,900.506,730.426,898.666,730.426,896.391"/>
	<path style="fill:#FFFFFF;" d="M666.579,905.819c0-2.099-1.7-3.795-3.8-3.795c-2.098,0-3.795,1.696-3.795,3.795
		c0,2.099,1.697,3.799,3.795,3.799C664.879,909.618,666.579,907.918,666.579,905.819"/>
	<path style="fill:#FFFFFF;" d="M401.871,877.123c0-2.338-1.896-4.229-4.233-4.229s-4.233,1.892-4.233,4.229
		s1.896,4.233,4.233,4.233S401.871,879.461,401.871,877.123"/>
	<path style="fill:#FFFFFF;" d="M313.747,867.732c0-0.346-0.284-0.629-0.634-0.629c-0.346,0-0.629,0.283-0.629,0.629
		c0,0.35,0.283,0.633,0.629,0.633C313.463,868.365,313.747,868.082,313.747,867.732"/>
	<path style="fill:#FFFFFF;" d="M297.307,886.518c0-1.645-1.333-2.979-2.975-2.979c-1.646,0-2.975,1.334-2.975,2.979
		c0,1.642,1.329,2.975,2.975,2.975C295.974,889.492,297.307,888.159,297.307,886.518"/>
	<path style="fill:#FFFFFF;" d="M410.36,905.299c0-1.84-1.491-3.331-3.332-3.331c-1.837,0-3.327,1.491-3.327,3.331
		c0,1.841,1.49,3.328,3.327,3.328C408.869,908.627,410.36,907.14,410.36,905.299"/>
	<path style="fill:#FFFFFF;" d="M549.197,877.123c0-1.932-1.568-3.504-3.505-3.504c-1.936,0-3.504,1.572-3.504,3.504
		c0,1.937,1.568,3.505,3.504,3.505C547.629,880.628,549.197,879.06,549.197,877.123"/>
	<path style="fill:#FFFFFF;" d="M625.162,905.299c0-1.178-0.953-2.131-2.131-2.131c-1.173,0-2.127,0.953-2.127,2.131
		c0,1.175,0.954,2.128,2.127,2.128C624.209,907.427,625.162,906.474,625.162,905.299"/>
	<path style="fill:#FFFFFF;" d="M841.279,867.732c0-1.236-1.006-2.242-2.245-2.242c-1.237,0-2.243,1.006-2.243,2.242
		c0,1.24,1.006,2.242,2.243,2.242C840.273,869.975,841.279,868.973,841.279,867.732"/>
	<path style="fill:#FFFFFF;" d="M831.323,886.518c0-0.928-0.751-1.678-1.68-1.678c-0.929,0-1.679,0.75-1.679,1.678
		c0,0.924,0.75,1.679,1.679,1.679C830.572,888.196,831.323,887.441,831.323,886.518"/>
	<path style="fill:#FFFFFF;" d="M834.432,895.908c0-2.647-2.141-4.789-4.788-4.789c-2.644,0-4.789,2.143-4.789,4.789
		c0,2.643,2.146,4.789,4.789,4.789C832.291,900.697,834.432,898.552,834.432,895.908"/>
	<path style="fill:#FFFFFF;" d="M881.265,867.732c0-2.577-2.086-4.664-4.663-4.664c-2.577,0-4.664,2.087-4.664,4.664
		c0,2.577,2.087,4.664,4.664,4.664C879.179,872.396,881.265,870.31,881.265,867.732"/>
	<path style="fill:#FFFFFF;" d="M236.857,905.255c0-1.716-1.392-3.107-3.107-3.107c-1.715,0-3.106,1.391-3.106,3.107
		s1.392,3.106,3.106,3.106C235.466,908.361,236.857,906.971,236.857,905.255"/>
	<path style="fill:#FFFFFF;" d="M533.306,787.971c0-2.617-2.121-4.738-4.738-4.738s-4.737,2.121-4.737,4.738
		c0,2.617,2.12,4.738,4.737,4.738S533.306,790.588,533.306,787.971"/>
	<path style="fill:#FFFFFF;" d="M501.636,797.361c0-0.685-0.556-1.24-1.244-1.24c-0.685,0-1.24,0.556-1.24,1.24
		c0,0.686,0.556,1.24,1.24,1.24C501.08,798.602,501.636,798.047,501.636,797.361"/>
	<path style="fill:#FFFFFF;" d="M814.16,787.993c0-1.521-1.233-2.749-2.749-2.749c-1.521,0-2.75,1.229-2.75,2.749
		c0,1.517,1.229,2.75,2.75,2.75C812.927,790.743,814.16,789.51,814.16,787.993"/>
	<path style="fill:#FFFFFF;" d="M825.389,787.993c0-2.532-2.055-4.587-4.587-4.587c-2.532,0-4.583,2.055-4.583,4.587
		c0,2.532,2.051,4.583,4.583,4.583C823.334,792.576,825.389,790.525,825.389,787.993"/>
	<path style="fill:#FFFFFF;" d="M449.172,806.775c0-1.613-1.311-2.92-2.923-2.92c-1.616,0-2.923,1.307-2.923,2.92
		c0,1.615,1.307,2.922,2.923,2.922C447.861,809.697,449.172,808.391,449.172,806.775"/>
	<path style="fill:#FFFFFF;" d="M791.809,759.682c0-0.678-0.553-1.23-1.231-1.23c-0.681,0-1.233,0.553-1.233,1.23
		c0,0.681,0.553,1.232,1.233,1.232C791.256,760.914,791.809,760.362,791.809,759.682"/>
	<path style="fill:#FFFFFF;" d="M840.923,806.775c0-0.74-0.6-1.34-1.34-1.34c-0.739,0-1.34,0.6-1.34,1.34
		c0,0.739,0.601,1.34,1.34,1.34C840.323,808.115,840.923,807.515,840.923,806.775"/>
	<path style="fill:#FFFFFF;" d="M701.847,787.993c0-1.729-1.402-3.136-3.134-3.136c-1.733,0-3.136,1.406-3.136,3.136
		c0,1.73,1.402,3.136,3.136,3.136C700.444,791.129,701.847,789.724,701.847,787.993"/>
	<path style="fill:#FFFFFF;" d="M701.821,806.775c0-1.716-1.392-3.107-3.108-3.107c-1.715,0-3.107,1.392-3.107,3.107
		c0,1.715,1.393,3.106,3.107,3.106C700.43,809.882,701.821,808.49,701.821,806.775"/>
	<path style="fill:#FFFFFF;" d="M891.587,797.443c0-2.893-2.344-5.233-5.234-5.233c-2.889,0-5.233,2.341-5.233,5.233
		c0,2.891,2.345,5.235,5.233,5.235C889.243,802.679,891.587,800.334,891.587,797.443"/>
	<path style="fill:#FFFFFF;" d="M591.276,788.055c0-3.065-2.487-5.549-5.552-5.549c-3.068,0-5.553,2.484-5.553,5.549
		c0,3.067,2.484,5.552,5.553,5.552C588.789,793.606,591.276,791.122,591.276,788.055"/>
	<path style="fill:#FFFFFF;" d="M577.07,806.841c0-0.382-0.309-0.688-0.689-0.688c-0.379,0-0.685,0.307-0.685,0.688
		c0,0.38,0.306,0.686,0.685,0.686C576.762,807.526,577.07,807.221,577.07,806.841"/>
	<path style="fill:#FFFFFF;" d="M317.138,797.385c0-2.327-1.885-4.212-4.212-4.212c-2.326,0-4.211,1.885-4.211,4.212
		c0,2.326,1.885,4.211,4.211,4.211C315.253,801.596,317.138,799.711,317.138,797.385"/>
	<path style="fill:#FFFFFF;" d="M324.415,797.385c0-1.158-0.938-2.096-2.098-2.096c-1.157,0-2.095,0.938-2.095,2.096
		c0,1.156,0.938,2.094,2.095,2.094C323.477,799.478,324.415,798.541,324.415,797.385"/>
	<path style="fill:#FFFFFF;" d="M344.72,806.711c0-2.001-1.621-3.619-3.617-3.619c-1.997,0-3.619,1.618-3.619,3.619
		c0,1.996,1.622,3.614,3.619,3.614C343.099,810.325,344.72,808.707,344.72,806.711"/>
	<path style="fill:#FFFFFF;" d="M728.07,797.385c0-2.327-1.884-4.212-4.21-4.212c-2.327,0-4.211,1.885-4.211,4.212
		c0,2.326,1.884,4.211,4.211,4.211C726.186,801.596,728.07,799.711,728.07,797.385"/>
	<path style="fill:#FFFFFF;" d="M380.872,769.143c0-0.459-0.373-0.831-0.831-0.831c-0.461,0-0.833,0.372-0.833,0.831
		c0,0.457,0.372,0.829,0.833,0.829C380.499,769.972,380.872,769.6,380.872,769.143"/>
	<path style="fill:#FFFFFF;" d="M390.662,769.143c0-0.709-0.574-1.279-1.282-1.279c-0.705,0-1.279,0.57-1.279,1.279
		c0,0.707,0.574,1.277,1.279,1.277C390.088,770.42,390.662,769.85,390.662,769.143"/>
</g>
<g id="Ebene_1">
</g>
</svg>
