<?xml version="1.0" encoding="iso-8859-1"?>
<!-- Generator: Adobe Illustrator 18.0.0, SVG Export Plug-In . SVG Version: 6.00 Build 0)  -->
<!DOCTYPE svg PUBLIC "-//W3C//DTD SVG 1.1//EN" "http://www.w3.org/Graphics/SVG/1.1/DTD/svg11.dtd">
<svg version="1.1" xmlns="http://www.w3.org/2000/svg" xmlns:xlink="http://www.w3.org/1999/xlink" x="0px" y="0px"
	 viewBox="0 0 2800 750" style="enable-background:new 0 0 2800 750;" xml:space="preserve">
<g id="n13">
	<path style="fill:#FFFFFF;" d="M1155.256,521.083c0-4.06-3.288-7.359-7.348-7.359c-4.071,0-7.359,3.299-7.359,7.359
		c0,4.06,3.288,7.359,7.359,7.359C1151.969,528.442,1155.256,525.143,1155.256,521.083"/>
	<path style="fill:#FFFFFF;" d="M1800.62,434.168c0-2.372-1.916-4.288-4.286-4.288c-2.372,0-4.288,1.916-4.288,4.288
		c0,2.37,1.916,4.288,4.288,4.288C1798.704,438.456,1800.62,436.538,1800.62,434.168"/>
	<path style="fill:#FFFFFF;" d="M1757.473,477.986c0-2.732-2.226-4.955-4.958-4.955c-2.741,0-4.951,2.224-4.951,4.955
		c0,2.739,2.21,4.955,4.951,4.955C1755.246,482.941,1757.473,480.724,1757.473,477.986"/>
	<path style="fill:#FFFFFF;" d="M1784.086,477.986c0-5.336-4.329-9.663-9.663-9.663c-5.34,0-9.66,4.327-9.66,9.663
		c0,5.341,4.32,9.66,9.66,9.66C1779.757,487.646,1784.086,483.326,1784.086,477.986"/>
	<path style="fill:#FFFFFF;" d="M1661.993,434.528c0-5.805-4.707-10.521-10.521-10.521c-5.812,0-10.522,4.716-10.522,10.521
		c0,5.814,4.709,10.528,10.522,10.528C1657.286,445.056,1661.993,440.342,1661.993,434.528"/>
	<path style="fill:#FFFFFF;" d="M1663.258,456.446c0-6.512-5.275-11.784-11.786-11.784s-11.784,5.272-11.784,11.784
		c0,6.5,5.272,11.774,11.784,11.774S1663.258,462.946,1663.258,456.446"/>
	<path style="fill:#FFFFFF;" d="M1720.497,456.446c0-1.823-1.477-3.29-3.299-3.29c-1.809,0-3.288,1.467-3.288,3.29
		c0,1.811,1.479,3.29,3.288,3.29C1719.02,459.736,1720.497,458.257,1720.497,456.446"/>
	<path style="fill:#FFFFFF;" d="M1704.902,478.355c0-5.309-4.304-9.61-9.612-9.61c-5.299,0-9.599,4.301-9.599,9.61
		c0,5.306,4.299,9.601,9.599,9.601C1700.598,487.956,1704.902,483.661,1704.902,478.355"/>
	<path style="fill:#FFFFFF;" d="M1528.807,478.444c0-2.01-1.634-3.634-3.636-3.634c-1.998,0-3.634,1.624-3.634,3.634
		c0,2.003,1.636,3.625,3.634,3.625C1527.174,482.068,1528.807,480.446,1528.807,478.444"/>
	<path style="fill:#FFFFFF;" d="M1532.024,522.261c0-3.789-3.067-6.853-6.853-6.853c-3.789,0-6.86,3.064-6.86,6.853
		c0,3.789,3.071,6.862,6.86,6.862C1528.957,529.123,1532.024,526.05,1532.024,522.261"/>
	<path style="fill:#FFFFFF;" d="M807.56,433.403c0-5.814-4.716-10.531-10.53-10.531c-5.821,0-10.537,4.716-10.537,10.531
		c0,5.824,4.716,10.537,10.537,10.537C802.844,443.94,807.56,439.226,807.56,433.403"/>
	<path style="fill:#FFFFFF;" d="M1479.123,433.403c0-1.581-1.276-2.871-2.862-2.871c-1.588,0-2.864,1.29-2.864,2.871
		c0,1.59,1.276,2.868,2.864,2.868C1477.847,436.271,1479.123,434.993,1479.123,433.403"/>
	<path style="fill:#FFFFFF;" d="M869.174,455.311c0-3.538-2.868-6.416-6.416-6.416c-3.538,0-6.416,2.878-6.416,6.416
		c0,3.547,2.878,6.416,6.416,6.416C866.305,461.727,869.174,458.859,869.174,455.311"/>
	<path style="fill:#FFFFFF;" d="M956.939,455.311c0-3.607-2.928-6.525-6.537-6.525c-3.607,0-6.534,2.918-6.534,6.525
		c0,3.609,2.928,6.537,6.534,6.537C954.011,461.848,956.939,458.92,956.939,455.311"/>
	<path style="fill:#FFFFFF;" d="M910.406,499.138c0-2.114-1.709-3.821-3.821-3.821c-2.112,0-3.821,1.706-3.821,3.821
		c0,2.114,1.709,3.823,3.821,3.823C908.697,502.961,910.406,501.252,910.406,499.138"/>
	<path style="fill:#FFFFFF;" d="M1042.751,455.311c0-6.359-5.154-11.521-11.521-11.521c-6.359,0-11.522,5.163-11.522,11.521
		c0,6.37,5.163,11.524,11.522,11.524C1037.597,466.835,1042.751,461.682,1042.751,455.311"/>
	<path style="fill:#FFFFFF;" d="M2177.707,433.403c0-5.154-4.181-9.327-9.334-9.327c-5.154,0-9.334,4.174-9.334,9.327
		s4.181,9.337,9.334,9.337C2173.526,442.739,2177.707,438.556,2177.707,433.403"/>
	<path style="fill:#FFFFFF;" d="M936.946,521.047c0-4.661-3.789-8.451-8.453-8.451c-4.662,0-8.451,3.789-8.451,8.451
		c0,4.664,3.789,8.453,8.451,8.453C933.157,529.499,936.946,525.71,936.946,521.047"/>
	<path style="fill:#FFFFFF;" d="M1240.745,477.229c0-5.892-4.769-10.658-10.658-10.658c-5.885,0-10.651,4.766-10.651,10.658
		c0,5.883,4.766,10.649,10.651,10.649C1235.976,487.878,1240.745,483.112,1240.745,477.229"/>
	<path style="fill:#FFFFFF;" d="M1210.675,499.138c0-1.381-1.116-2.499-2.499-2.499c-1.374,0-2.497,1.119-2.497,2.499
		c0,1.383,1.123,2.499,2.497,2.499C1209.559,501.637,1210.675,500.521,1210.675,499.138"/>
	<path style="fill:#FFFFFF;" d="M1417.796,521.047c0-4.01-3.256-7.263-7.27-7.263c-4.01,0-7.266,3.254-7.266,7.263
		c0,4.012,3.256,7.268,7.266,7.268C1414.54,528.315,1417.796,525.059,1417.796,521.047"/>
	<path style="fill:#FFFFFF;" d="M2097.999,455.311c0-4.552-3.687-8.243-8.246-8.243c-4.55,0-8.238,3.691-8.238,8.243
		c0,4.561,3.688,8.245,8.238,8.245C2094.312,463.557,2097.999,459.873,2097.999,455.311"/>
	<path style="fill:#FFFFFF;" d="M2332.847,499.133c0-6.357-5.149-11.521-11.522-11.521c-6.356,0-11.522,5.165-11.522,11.521
		c0,6.37,5.165,11.524,11.522,11.524C2327.698,510.657,2332.847,505.504,2332.847,499.133"/>
	<path style="fill:#FFFFFF;" d="M492.424,477.127c0-6.639-5.377-12.023-12.023-12.023c-6.639,0-12.023,5.384-12.023,12.023
		c0,6.639,5.384,12.023,12.023,12.023C487.047,489.149,492.424,483.766,492.424,477.127"/>
	<path style="fill:#FFFFFF;" d="M490.055,499.035c0-5.334-4.32-9.653-9.653-9.653c-5.334,0-9.653,4.32-9.653,9.653
		c0,5.334,4.32,9.653,9.653,9.653C485.735,508.689,490.055,504.369,490.055,499.035"/>
	<path style="fill:#FFFFFF;" d="M486.997,542.853c0-3.632-2.953-6.587-6.596-6.587c-3.641,0-6.587,2.955-6.587,6.587
		c0,3.643,2.946,6.596,6.587,6.596C484.044,549.448,486.997,546.496,486.997,542.853"/>
	<path style="fill:#FFFFFF;" d="M1219.609,225.407c0-4.174-3.386-7.56-7.559-7.56c-4.174,0-7.557,3.386-7.557,7.56
		c0,4.174,3.383,7.557,7.557,7.557C1216.223,232.964,1219.609,229.58,1219.609,225.407"/>
	<path style="fill:#FFFFFF;" d="M1201.676,247.315c0-6.373-5.163-11.542-11.536-11.542c-6.372,0-11.542,5.17-11.542,11.542
		c0,6.372,5.17,11.533,11.542,11.533C1196.513,258.848,1201.676,253.688,1201.676,247.315"/>
	<path style="fill:#FFFFFF;" d="M1260.573,247.315c0-2.602-2.103-4.707-4.707-4.707c-2.599,0-4.705,2.105-4.705,4.707
		s2.105,4.707,4.705,4.707C1258.47,252.022,1260.573,249.917,1260.573,247.315"/>
	<path style="fill:#FFFFFF;" d="M1309.073,203.548c0-3.768-3.049-6.826-6.819-6.826c-3.768,0-6.819,3.058-6.819,6.826
		c0,3.764,3.051,6.822,6.819,6.822C1306.024,210.369,1309.073,207.312,1309.073,203.548"/>
	<path style="fill:#FFFFFF;" d="M1925.285,269.279c0-5.268-4.265-9.537-9.533-9.537c-5.268,0-9.533,4.269-9.533,9.537
		c0,5.263,4.265,9.533,9.533,9.533C1921.02,278.811,1925.285,274.542,1925.285,269.279"/>
	<path style="fill:#FFFFFF;" d="M1024.804,203.548c0-2.661-2.155-4.816-4.807-4.816c-2.663,0-4.812,2.155-4.812,4.816
		c0,2.657,2.148,4.812,4.812,4.812C1022.649,208.36,1024.804,206.204,1024.804,203.548"/>
	<path style="fill:#FFFFFF;" d="M1006.958,225.459c0-4.905-3.976-8.879-8.879-8.879c-4.905,0-8.872,3.973-8.872,8.879
		c0,4.903,3.967,8.872,8.872,8.872C1002.982,234.331,1006.958,230.362,1006.958,225.459"/>
	<path style="fill:#FFFFFF;" d="M1053.824,247.368c0-6.587-5.34-11.92-11.918-11.92c-6.589,0-11.923,5.334-11.923,11.92
		c0,6.578,5.334,11.923,11.923,11.923C1048.483,259.29,1053.824,253.945,1053.824,247.368"/>
	<path style="fill:#FFFFFF;" d="M1805.901,203.231c0-2.481-2.007-4.491-4.488-4.491c-2.479,0-4.491,2.009-4.491,4.491
		c0,2.474,2.012,4.484,4.491,4.484C1803.894,207.715,1805.901,205.705,1805.901,203.231"/>
	<path style="fill:#FFFFFF;" d="M1946.146,291.187c0-4.68-3.796-8.487-8.485-8.487c-4.68,0-8.485,3.807-8.485,8.487
		c0,4.689,3.805,8.485,8.485,8.485C1942.35,299.672,1946.146,295.876,1946.146,291.187"/>
	<path style="fill:#FFFFFF;" d="M2070.269,203.68c0-0.866-0.713-1.579-1.584-1.579c-0.877,0-1.576,0.713-1.576,1.579
		c0,0.877,0.699,1.581,1.576,1.581C2069.555,205.261,2070.269,204.557,2070.269,203.68"/>
	<path style="fill:#FFFFFF;" d="M1420.56,247.511c0-5.336-4.329-9.67-9.669-9.67c-5.343,0-9.672,4.334-9.672,9.67
		c0,5.343,4.329,9.669,9.672,9.669C1416.231,257.181,1420.56,252.854,1420.56,247.511"/>
	<path style="fill:#FFFFFF;" d="M1436.511,291.34c0-2.121-1.713-3.837-3.825-3.837c-2.124,0-3.839,1.715-3.839,3.837
		c0,2.114,1.715,3.83,3.839,3.83C1434.797,295.17,1436.511,293.454,1436.511,291.34"/>
	<path style="fill:#FFFFFF;" d="M781.509,269.279c0-3.778-3.051-6.835-6.826-6.835c-3.775,0-6.835,3.057-6.835,6.835
		c0,3.773,3.06,6.833,6.835,6.833C778.459,276.112,781.509,273.051,781.509,269.279"/>
	<path style="fill:#FFFFFF;" d="M918.899,247.206c0-5.336-4.329-9.672-9.672-9.672c-5.343,0-9.672,4.336-9.672,9.672
		c0,5.341,4.329,9.672,9.672,9.672C914.57,256.877,918.899,252.546,918.899,247.206"/>
</g>
<g id="Ebene_1">
</g>
</svg>
