<?xml version="1.0" encoding="iso-8859-1"?>
<!-- Generator: Adobe Illustrator 18.0.0, SVG Export Plug-In . SVG Version: 6.00 Build 0)  -->
<!DOCTYPE svg PUBLIC "-//W3C//DTD SVG 1.1//EN" "http://www.w3.org/Graphics/SVG/1.1/DTD/svg11.dtd">
<svg version="1.1" xmlns="http://www.w3.org/2000/svg" xmlns:xlink="http://www.w3.org/1999/xlink" x="0px" y="0px"
	 viewBox="0 0 2800 750" style="enable-background:new 0 0 2800 750;" xml:space="preserve">
<g id="n2">
	<path style="fill:#FFFFFF;" d="M1149.478,433.437c0-0.868-0.704-1.57-1.572-1.57c-0.875,0-1.579,0.702-1.579,1.57
		c0,0.877,0.704,1.581,1.579,1.581C1148.774,435.018,1149.478,434.314,1149.478,433.437"/>
	<path style="fill:#FFFFFF;" d="M1115.399,477.266c0-6.252-5.067-11.319-11.319-11.319c-6.252,0-11.319,5.067-11.319,11.319
		s5.067,11.319,11.319,11.319C1110.331,488.585,1115.399,483.517,1115.399,477.266"/>
	<path style="fill:#FFFFFF;" d="M1757.479,499.894c0-2.739-2.224-4.964-4.964-4.964c-2.748,0-4.974,2.226-4.974,4.964
		c0,2.748,2.226,4.971,4.974,4.971C1755.256,504.866,1757.479,502.642,1757.479,499.894"/>
	<path style="fill:#FFFFFF;" d="M1633.589,456.446c0-2.224-1.802-4.028-4.026-4.028c-2.226,0-4.028,1.804-4.028,4.028
		c0,2.224,1.802,4.026,4.028,4.026C1631.787,460.472,1633.589,458.67,1633.589,456.446"/>
	<path style="fill:#FFFFFF;" d="M1722.162,478.355c0-2.741-2.214-4.964-4.964-4.964c-2.739,0-4.953,2.224-4.953,4.964
		c0,2.739,2.215,4.964,4.953,4.964C1719.948,483.319,1722.162,481.093,1722.162,478.355"/>
	<path style="fill:#FFFFFF;" d="M1537.137,500.35c0-6.603-5.359-11.961-11.966-11.961c-6.603,0-11.964,5.359-11.964,11.961
		c0,6.607,5.361,11.966,11.964,11.966C1531.778,512.316,1537.137,506.957,1537.137,500.35"/>
	<path style="fill:#FFFFFF;" d="M1579.346,500.35c0-5.719-4.634-10.355-10.358-10.355c-5.719,0-10.348,4.637-10.348,10.355
		c0,5.721,4.63,10.362,10.348,10.362C1574.711,510.712,1579.346,506.071,1579.346,500.35"/>
	<path style="fill:#FFFFFF;" d="M807.56,455.311c0-5.814-4.716-10.53-10.53-10.53c-5.821,0-10.537,4.716-10.537,10.53
		c0,5.823,4.716,10.54,10.537,10.54C802.844,465.851,807.56,461.135,807.56,455.311"/>
	<path style="fill:#FFFFFF;" d="M756.716,477.229c0-1.941-1.57-3.513-3.513-3.513c-1.932,0-3.504,1.572-3.504,3.513
		c0,1.932,1.572,3.504,3.504,3.504C755.147,480.733,756.716,479.161,756.716,477.229"/>
	<path style="fill:#FFFFFF;" d="M755.438,499.138c0-1.235-0.998-2.233-2.235-2.233c-1.228,0-2.224,0.998-2.224,2.233
		c0,1.23,0.995,2.224,2.224,2.224C754.44,501.361,755.438,500.368,755.438,499.138"/>
	<path style="fill:#FFFFFF;" d="M736.063,521.047c0-2.629-2.139-4.757-4.769-4.757c-2.627,0-4.757,2.128-4.757,4.757
		c0,2.629,2.13,4.76,4.757,4.76C733.924,525.806,736.063,523.676,736.063,521.047"/>
	<path style="fill:#FFFFFF;" d="M2048.562,411.494c0-1.454-1.178-2.629-2.627-2.629c-1.451,0-2.632,1.176-2.632,2.629
		c0,1.451,1.18,2.629,2.632,2.629C2047.385,414.123,2048.562,412.945,2048.562,411.494"/>
	<path style="fill:#FFFFFF;" d="M2027.119,455.311c0-1.7-1.383-3.083-3.094-3.083c-1.709,0-3.092,1.383-3.092,3.083
		c0,1.709,1.383,3.092,3.092,3.092C2025.736,458.403,2027.119,457.02,2027.119,455.311"/>
	<path style="fill:#FFFFFF;" d="M2097.625,477.229c0-4.356-3.518-7.874-7.872-7.874c-4.345,0-7.865,3.518-7.865,7.874
		c0,4.347,3.52,7.865,7.865,7.865C2094.107,485.094,2097.625,481.576,2097.625,477.229"/>
	<path style="fill:#FFFFFF;" d="M2115.442,499.138c0-2.087-1.686-3.78-3.771-3.78c-2.087,0-3.78,1.693-3.78,3.78
		s1.693,3.78,3.78,3.78C2113.756,502.918,2115.442,501.225,2115.442,499.138"/>
	<path style="fill:#FFFFFF;" d="M490.012,455.216c0-5.309-4.304-9.61-9.61-9.61c-5.306,0-9.61,4.301-9.61,9.61
		c0,5.309,4.304,9.603,9.61,9.603C485.708,464.819,490.012,460.524,490.012,455.216"/>
	<path style="fill:#FFFFFF;" d="M553.455,499.035c0-4.037-3.281-7.318-7.318-7.318c-4.044,0-7.316,3.281-7.316,7.318
		c0,4.044,3.272,7.318,7.316,7.318C550.174,506.353,553.455,503.079,553.455,499.035"/>
	<path style="fill:#FFFFFF;" d="M1171.444,247.315c0-1.777-1.442-3.213-3.222-3.213c-1.768,0-3.213,1.436-3.213,3.213
		c0,1.768,1.445,3.212,3.213,3.212C1170.002,250.528,1171.444,249.083,1171.444,247.315"/>
	<path style="fill:#FFFFFF;" d="M1240.503,269.224c0-3.613-2.93-6.553-6.546-6.553c-3.613,0-6.552,2.939-6.552,6.553
		c0,3.616,2.939,6.553,6.552,6.553C1237.573,275.776,1240.503,272.84,1240.503,269.224"/>
	<path style="fill:#FFFFFF;" d="M1221.411,291.133c0-5.17-4.192-9.362-9.362-9.362c-5.179,0-9.369,4.192-9.369,9.362
		c0,5.172,4.19,9.369,9.369,9.369C1217.219,300.501,1221.411,296.304,1221.411,291.133"/>
	<path style="fill:#FFFFFF;" d="M1314.648,247.368c0-6.847-5.548-12.392-12.394-12.392c-6.844,0-12.392,5.546-12.392,12.392
		c0,6.844,5.548,12.394,12.392,12.394C1309.1,259.762,1314.648,254.212,1314.648,247.368"/>
	<path style="fill:#FFFFFF;" d="M977.802,291.187c0-0.902-0.731-1.634-1.631-1.634c-0.902,0-1.634,0.731-1.634,1.634
		c0,0.9,0.731,1.631,1.634,1.631C977.07,292.819,977.802,292.087,977.802,291.187"/>
	<path style="fill:#FFFFFF;" d="M1849.274,247.051c0-2.233-1.809-4.037-4.035-4.037c-2.233,0-4.035,1.805-4.035,4.037
		c0,2.224,1.802,4.037,4.035,4.037C1847.465,251.088,1849.274,249.275,1849.274,247.051"/>
	<path style="fill:#FFFFFF;" d="M1593.394,203.548c0-3.477-2.825-6.302-6.302-6.302c-3.481,0-6.297,2.825-6.297,6.302
		c0,3.479,2.816,6.297,6.297,6.297C1590.569,209.845,1593.394,207.027,1593.394,203.548"/>
	<path style="fill:#FFFFFF;" d="M1574.789,225.459c0-5.309-4.302-9.61-9.61-9.61c-5.304,0-9.612,4.301-9.612,9.61
		c0,5.309,4.308,9.601,9.612,9.601C1570.487,235.06,1574.789,230.767,1574.789,225.459"/>
	<path style="fill:#FFFFFF;" d="M1577.204,247.368c0-6.637-5.377-12.023-12.025-12.023c-6.637,0-12.021,5.386-12.021,12.023
		c0,6.639,5.384,12.023,12.021,12.023C1571.827,259.391,1577.204,254.007,1577.204,247.368"/>
	<path style="fill:#FFFFFF;" d="M1571.777,313.096c0-3.634-2.953-6.589-6.598-6.589c-3.641,0-6.587,2.955-6.587,6.589
		c0,3.641,2.946,6.594,6.587,6.594C1568.824,319.69,1571.777,316.737,1571.777,313.096"/>
	<path style="fill:#FFFFFF;" d="M2032.45,291.326c0-4.19-3.39-7.592-7.591-7.592c-4.19,0-7.585,3.402-7.585,7.592
		c0,4.19,3.395,7.594,7.585,7.594C2029.06,298.92,2032.45,295.516,2032.45,291.326"/>
	<path style="fill:#FFFFFF;" d="M1369.682,203.694c0-1.317-1.062-2.385-2.374-2.385c-1.319,0-2.385,1.069-2.385,2.385
		c0,1.312,1.066,2.383,2.385,2.383C1368.62,206.077,1369.682,205.006,1369.682,203.694"/>
	<path style="fill:#FFFFFF;" d="M1347.978,225.605c0-1.369-1.098-2.477-2.468-2.477c-1.36,0-2.467,1.107-2.467,2.477
		c0,1.36,1.107,2.467,2.467,2.467C1346.88,228.072,1347.978,226.965,1347.978,225.605"/>
	<path style="fill:#FFFFFF;" d="M846.317,225.3c0-1.369-1.098-2.474-2.467-2.474c-1.36,0-2.467,1.105-2.467,2.474
		c0,1.36,1.107,2.467,2.467,2.467C845.219,227.767,846.317,226.66,846.317,225.3"/>
</g>
<g id="Ebene_1">
</g>
</svg>
