<?xml version="1.0" encoding="iso-8859-1"?>
<!-- Generator: Adobe Illustrator 18.0.0, SVG Export Plug-In . SVG Version: 6.00 Build 0)  -->
<!DOCTYPE svg PUBLIC "-//W3C//DTD SVG 1.1//EN" "http://www.w3.org/Graphics/SVG/1.1/DTD/svg11.dtd">
<svg version="1.1" xmlns="http://www.w3.org/2000/svg" xmlns:xlink="http://www.w3.org/1999/xlink" x="0px" y="0px"
	 viewBox="0 0 1200 1760.01" style="enable-background:new 0 0 1200 1760.01;" xml:space="preserve">
<g id="n3">
	<path style="fill:#FFFFFF;" d="M699.859,887c0-0.953-0.773-1.727-1.726-1.727c-0.954,0-1.727,0.773-1.727,1.727
		c0,0.953,0.773,1.727,1.727,1.727C699.087,888.727,699.859,887.953,699.859,887"/>
	<path style="fill:#FFFFFF;" d="M344.809,858.342c0-1.943-1.575-3.52-3.52-3.52c-1.943,0-3.522,1.576-3.522,3.52
		c0,1.943,1.579,3.519,3.522,3.519C343.233,861.861,344.809,860.285,344.809,858.342"/>
	<path style="fill:#FFFFFF;" d="M633.479,858.342c0-0.582-0.476-1.053-1.055-1.053c-0.58,0-1.052,0.471-1.052,1.053
		c0,0.582,0.472,1.053,1.052,1.053C633.004,859.394,633.479,858.924,633.479,858.342"/>
	<path style="fill:#FFFFFF;" d="M352.672,867.732c0-1.098-0.891-1.988-1.992-1.988c-1.1,0-1.991,0.891-1.991,1.988
		c0,1.101,0.892,1.992,1.991,1.992C351.781,869.725,352.672,868.833,352.672,867.732"/>
	<path style="fill:#FFFFFF;" d="M420.988,877.123c0-2.521-2.043-4.568-4.568-4.568c-2.522,0-4.569,2.047-4.569,4.568
		c0,2.525,2.047,4.568,4.569,4.568C418.945,881.691,420.988,879.648,420.988,877.123"/>
	<path style="fill:#FFFFFF;" d="M410.302,886.518c0-1.807-1.466-3.273-3.273-3.273s-3.272,1.466-3.272,3.273
		c0,1.804,1.465,3.27,3.272,3.27S410.302,888.321,410.302,886.518"/>
	<path style="fill:#FFFFFF;" d="M345.803,895.908c0-2.495-2.021-4.517-4.514-4.517c-2.495,0-4.517,2.021-4.517,4.517
		c0,2.492,2.021,4.514,4.517,4.514C343.781,900.422,345.803,898.4,345.803,895.908"/>
	<path style="fill:#FFFFFF;" d="M362.353,895.908c0-1.259-1.023-2.282-2.282-2.282s-2.278,1.023-2.278,2.282
		c0,1.259,1.02,2.278,2.278,2.278S362.353,897.167,362.353,895.908"/>
	<path style="fill:#FFFFFF;" d="M344.809,905.299c0-1.943-1.575-3.519-3.52-3.519c-1.943,0-3.522,1.576-3.522,3.519
		c0,1.943,1.579,3.52,3.522,3.52C343.233,908.818,344.809,907.242,344.809,905.299"/>
	<path style="fill:#FFFFFF;" d="M518.613,877.123c0-0.604-0.489-1.094-1.097-1.094c-0.604,0-1.093,0.49-1.093,1.094
		c0,0.607,0.489,1.097,1.093,1.097C518.124,878.22,518.613,877.73,518.613,877.123"/>
	<path style="fill:#FFFFFF;" d="M520.686,769.185c0-0.832-0.678-1.51-1.51-1.51c-0.835,0-1.513,0.678-1.513,1.51
		c0,0.836,0.678,1.514,1.513,1.514C520.009,770.699,520.686,770.021,520.686,769.185"/>
	<path style="fill:#FFFFFF;" d="M812.923,778.602c0-0.835-0.677-1.513-1.512-1.513c-0.837,0-1.514,0.678-1.514,1.513
		c0,0.835,0.677,1.513,1.514,1.513C812.246,780.115,812.923,779.438,812.923,778.602"/>
	<path style="fill:#FFFFFF;" d="M422.888,797.316c0-2.659-2.155-4.815-4.815-4.815c-2.659,0-4.816,2.156-4.816,4.815
		c0,2.659,2.157,4.815,4.816,4.815C420.732,802.132,422.888,799.976,422.888,797.316"/>
	<path style="fill:#FFFFFF;" d="M607.122,806.841c0-1.503-1.214-2.718-2.717-2.718c-1.5,0-2.72,1.215-2.72,2.718
		c0,1.499,1.22,2.716,2.72,2.716C605.908,809.557,607.122,808.34,607.122,806.841"/>
	<path style="fill:#FFFFFF;" d="M326.229,806.775c0-2.158-1.75-3.913-3.913-3.913c-2.157,0-3.912,1.755-3.912,3.913
		c0,2.162,1.755,3.912,3.912,3.912C324.479,810.688,326.229,808.938,326.229,806.775"/>
	<path style="fill:#FFFFFF;" d="M346.615,797.316c0-3.045-2.469-5.514-5.513-5.514c-3.046,0-5.514,2.469-5.514,5.514
		c0,3.045,2.468,5.513,5.514,5.513C344.146,802.829,346.615,800.361,346.615,797.316"/>
	<path style="fill:#FFFFFF;" d="M376.292,778.534c0-3.091-2.505-5.595-5.593-5.595c-3.091,0-5.595,2.504-5.595,5.595
		c0,3.088,2.504,5.593,5.595,5.593C373.787,784.127,376.292,781.622,376.292,778.534"/>
	<path style="fill:#FFFFFF;" d="M393.521,797.316c0-2.287-1.854-4.139-4.142-4.139c-2.287,0-4.139,1.852-4.139,4.139
		c0,2.287,1.852,4.139,4.139,4.139C391.667,801.455,393.521,799.603,393.521,797.316"/>
	<path style="fill:#FFFFFF;" d="M401.223,797.316c0-1.384-1.12-2.504-2.501-2.504c-1.384,0-2.504,1.12-2.504,2.504
		c0,1.38,1.12,2.504,2.504,2.504C400.102,799.82,401.223,798.696,401.223,797.316"/>
	<path style="fill:#FFFFFF;" d="M400.362,806.711c0-0.91-0.734-1.644-1.641-1.644c-0.91,0-1.645,0.734-1.645,1.644
		c0,0.905,0.734,1.641,1.645,1.641C399.628,808.352,400.362,807.616,400.362,806.711"/>
</g>
<g id="Ebene_1">
</g>
</svg>
