<?xml version="1.0" encoding="iso-8859-1"?>
<!-- Generator: Adobe Illustrator 18.0.0, SVG Export Plug-In . SVG Version: 6.00 Build 0)  -->
<!DOCTYPE svg PUBLIC "-//W3C//DTD SVG 1.1//EN" "http://www.w3.org/Graphics/SVG/1.1/DTD/svg11.dtd">
<svg version="1.1" xmlns="http://www.w3.org/2000/svg" xmlns:xlink="http://www.w3.org/1999/xlink" x="0px" y="0px"
	 viewBox="0 0 2800 750" style="enable-background:new 0 0 2800 750;" xml:space="preserve">
<g id="n4">
	<path style="fill:#FFFFFF;" d="M1158.17,455.357c0-5.671-4.595-10.273-10.264-10.273s-10.271,4.602-10.271,10.273
		c0,5.666,4.602,10.262,10.271,10.262S1158.17,461.023,1158.17,455.357"/>
	<path style="fill:#FFFFFF;" d="M827.776,455.311c0-4.878-3.958-8.838-8.838-8.838c-4.885,0-8.835,3.96-8.835,8.838
		c0,4.887,3.951,8.845,8.835,8.845C823.819,464.156,827.776,460.198,827.776,455.311"/>
	<path style="fill:#FFFFFF;" d="M873.116,477.229c0-5.719-4.639-10.358-10.358-10.358s-10.348,4.639-10.348,10.358
		c0,5.712,4.629,10.348,10.348,10.348S873.116,482.941,873.116,477.229"/>
	<path style="fill:#FFFFFF;" d="M933.51,477.229c0-2.775-2.242-5.024-5.017-5.024c-2.775,0-5.024,2.249-5.024,5.024
		c0,2.766,2.249,5.015,5.024,5.015C931.268,482.244,933.51,479.995,933.51,477.229"/>
	<path style="fill:#FFFFFF;" d="M614.788,477.225c0-6.357-5.154-11.522-11.519-11.522c-6.359,0-11.524,5.165-11.524,11.522
		c0,6.37,5.165,11.524,11.524,11.524C609.635,488.749,614.788,483.595,614.788,477.225"/>
	<path style="fill:#FFFFFF;" d="M2201.807,477.225c0-6.357-5.154-11.522-11.522-11.522c-6.361,0-11.521,5.165-11.521,11.522
		c0,6.37,5.16,11.524,11.521,11.524C2196.654,488.749,2201.807,483.595,2201.807,477.225"/>
	<path style="fill:#FFFFFF;" d="M1275.492,433.403c0-0.868-0.713-1.581-1.581-1.581c-0.875,0-1.579,0.713-1.579,1.581
		c0,0.875,0.704,1.581,1.579,1.581C1274.779,434.984,1275.492,434.277,1275.492,433.403"/>
	<path style="fill:#FFFFFF;" d="M1261.33,477.229c0-5.163-4.174-9.337-9.328-9.337c-5.151,0-9.334,4.174-9.334,9.337
		c0,5.154,4.183,9.328,9.334,9.328C1257.156,486.557,1261.33,482.383,1261.33,477.229"/>
	<path style="fill:#FFFFFF;" d="M1279.117,521.047c0-2.878-2.328-5.213-5.206-5.213c-2.875,0-5.213,2.335-5.213,5.213
		s2.338,5.213,5.213,5.213C1276.789,526.259,1279.117,523.924,1279.117,521.047"/>
	<path style="fill:#FFFFFF;" d="M2114.829,433.403c0-1.743-1.415-3.16-3.158-3.16c-1.752,0-3.16,1.417-3.16,3.16
		c0,1.75,1.408,3.162,3.16,3.162C2113.414,436.565,2114.829,435.152,2114.829,433.403"/>
	<path style="fill:#FFFFFF;" d="M2050.41,521.047c0-2.474-2.003-4.475-4.474-4.475c-2.465,0-4.468,2-4.468,4.475
		c0,2.465,2.003,4.475,4.468,4.475C2048.407,525.521,2050.41,523.512,2050.41,521.047"/>
	<path style="fill:#FFFFFF;" d="M2310.938,521.083c0-6.361-5.149-11.524-11.521-11.524c-6.357,0-11.52,5.163-11.52,11.524
		c0,6.37,5.163,11.522,11.52,11.522C2305.789,532.605,2310.938,527.453,2310.938,521.083"/>
	<path style="fill:#FFFFFF;" d="M1191.601,203.489c0-0.807-0.654-1.458-1.46-1.458c-0.816,0-1.467,0.652-1.467,1.458
		c0,0.816,0.652,1.467,1.467,1.467C1190.947,204.956,1191.601,204.304,1191.601,203.489"/>
	<path style="fill:#FFFFFF;" d="M1240.968,291.133c0-3.873-3.137-7.008-7.011-7.008c-3.873,0-7.008,3.135-7.008,7.008
		c0,3.873,3.135,7.008,7.008,7.008C1237.831,298.141,1240.968,295.006,1240.968,291.133"/>
	<path style="fill:#FFFFFF;" d="M1970.786,247.368c0-6.193-5.015-11.217-11.216-11.217c-6.193,0-11.216,5.024-11.216,11.217
		c0,6.193,5.024,11.216,11.216,11.216C1965.771,258.584,1970.786,253.56,1970.786,247.368"/>
	<path style="fill:#FFFFFF;" d="M1391.042,203.694c0-1.071-0.873-1.939-1.941-1.939c-1.073,0-1.943,0.868-1.943,1.939
		c0,1.066,0.87,1.934,1.943,1.934C1390.169,205.628,1391.042,204.76,1391.042,203.694"/>
	<path style="fill:#FFFFFF;" d="M1375.747,291.34c0-4.666-3.782-8.441-8.439-8.441c-4.659,0-8.441,3.775-8.441,8.441
		c0,4.659,3.782,8.434,8.441,8.434C1371.965,299.774,1375.747,295.999,1375.747,291.34"/>
	<path style="fill:#FFFFFF;" d="M733.691,203.548c0-1.567-1.267-2.832-2.832-2.832c-1.561,0-2.828,1.265-2.828,2.832
		c0,1.563,1.267,2.827,2.828,2.827C732.425,206.375,733.691,205.111,733.691,203.548"/>
	<path style="fill:#FFFFFF;" d="M778.094,247.368c0-1.884-1.529-3.411-3.411-3.411c-1.884,0-3.408,1.527-3.408,3.411
		c0,1.88,1.524,3.408,3.408,3.408C776.565,250.776,778.094,249.247,778.094,247.368"/>
	<path style="fill:#FFFFFF;" d="M809.64,225.3c0-7.211-5.844-13.053-13.046-13.053c-7.211,0-13.055,5.842-13.055,13.053
		c0,7.204,5.844,13.048,13.055,13.048C803.797,238.348,809.64,232.504,809.64,225.3"/>
	<path style="fill:#FFFFFF;" d="M1736.819,247.368c0-1.884-1.526-3.411-3.408-3.411c-1.884,0-3.408,1.527-3.408,3.411
		c0,1.88,1.524,3.408,3.408,3.408C1735.292,250.776,1736.819,249.247,1736.819,247.368"/>
	<path style="fill:#FFFFFF;" d="M1768.272,247.206c0-7.149-5.803-12.946-12.95-12.946c-7.161,0-12.957,5.796-12.957,12.946
		c0,7.159,5.796,12.953,12.957,12.953C1762.469,260.158,1768.272,254.365,1768.272,247.206"/>
	<path style="fill:#FFFFFF;" d="M921.765,225.3c0-6.924-5.612-12.538-12.538-12.538c-6.926,0-12.538,5.614-12.538,12.538
		c0,6.919,5.611,12.538,12.538,12.538C916.154,237.837,921.765,232.219,921.765,225.3"/>
	<path style="fill:#FFFFFF;" d="M878.506,269.119c0-7.104-5.758-12.864-12.861-12.864s-12.864,5.76-12.864,12.864
		s5.76,12.861,12.864,12.861S878.506,276.223,878.506,269.119"/>
</g>
<g id="Ebene_1">
</g>
</svg>
