<?xml version="1.0" encoding="iso-8859-1"?>
<!-- Generator: Adobe Illustrator 18.0.0, SVG Export Plug-In . SVG Version: 6.00 Build 0)  -->
<!DOCTYPE svg PUBLIC "-//W3C//DTD SVG 1.1//EN" "http://www.w3.org/Graphics/SVG/1.1/DTD/svg11.dtd">
<svg version="1.1" xmlns="http://www.w3.org/2000/svg" xmlns:xlink="http://www.w3.org/1999/xlink" x="0px" y="0px"
	 viewBox="0 0 1200 1760.01" style="enable-background:new 0 0 1200 1760.01;" xml:space="preserve">
<g id="n7">
	<path style="fill:#FFFFFF;" d="M487.047,905.314c0-2.624-2.129-4.754-4.758-4.754c-2.624,0-4.754,2.13-4.754,4.754
		c0,2.624,2.13,4.753,4.754,4.753C484.918,910.067,487.047,907.938,487.047,905.314"/>
	<path style="fill:#FFFFFF;" d="M727.434,868.215c0-0.622-0.505-1.127-1.128-1.127c-0.621,0-1.126,0.505-1.126,1.127
		c0,0.622,0.505,1.126,1.126,1.126C726.929,869.341,727.434,868.837,727.434,868.215"/>
	<path style="fill:#FFFFFF;" d="M699.561,905.781c0-0.788-0.64-1.428-1.428-1.428c-0.789,0-1.428,0.64-1.428,1.428
		c0,0.788,0.639,1.429,1.428,1.429C698.922,907.21,699.561,906.569,699.561,905.781"/>
	<path style="fill:#FFFFFF;" d="M665.967,887.038c0-1.761-1.428-3.188-3.188-3.188c-1.758,0-3.188,1.428-3.188,3.188
		c0,1.76,1.43,3.188,3.188,3.188C664.539,890.227,665.967,888.798,665.967,887.038"/>
	<path style="fill:#FFFFFF;" d="M683.502,887.038c0-1.071-0.865-1.94-1.938-1.94c-1.074,0-1.939,0.869-1.939,1.94
		s0.865,1.94,1.939,1.94C682.637,888.978,683.502,888.109,683.502,887.038"/>
	<path style="fill:#FFFFFF;" d="M352.922,895.908c0-1.236-1.004-2.241-2.242-2.241c-1.236,0-2.241,1.005-2.241,2.241
		c0,1.236,1.005,2.242,2.241,2.242C351.918,898.15,352.922,897.144,352.922,895.908"/>
	<path style="fill:#FFFFFF;" d="M421.731,895.908c0-2.934-2.378-5.312-5.311-5.312c-2.935,0-5.312,2.378-5.312,5.312
		s2.378,5.312,5.312,5.312C419.353,901.221,421.731,898.842,421.731,895.908"/>
	<path style="fill:#FFFFFF;" d="M261.455,905.299c0-1.777-1.44-3.217-3.217-3.217c-1.778,0-3.218,1.44-3.218,3.217
		c0,1.778,1.439,3.218,3.218,3.218C260.016,908.517,261.455,907.077,261.455,905.299"/>
	<path style="fill:#FFFFFF;" d="M446.611,867.732c0-2.726-2.209-4.939-4.938-4.939c-2.726,0-4.939,2.214-4.939,4.939
		c0,2.731,2.213,4.939,4.939,4.939C444.402,872.671,446.611,870.463,446.611,867.732"/>
	<path style="fill:#FFFFFF;" d="M295.252,867.732c0-0.508-0.412-0.92-0.92-0.92c-0.508,0-0.921,0.412-0.921,0.92
		c0,0.508,0.413,0.924,0.921,0.924C294.84,868.656,295.252,868.24,295.252,867.732"/>
	<path style="fill:#FFFFFF;" d="M617.631,905.299c0-2.205-1.785-3.99-3.991-3.99c-2.199,0-3.99,1.785-3.99,3.99
		c0,2.205,1.791,3.99,3.99,3.99C615.846,909.289,617.631,907.504,617.631,905.299"/>
	<path style="fill:#FFFFFF;" d="M843.811,886.518c0-2.64-2.139-4.778-4.777-4.778c-2.636,0-4.775,2.139-4.775,4.778
		c0,2.636,2.14,4.774,4.775,4.774C841.673,891.292,843.811,889.153,843.811,886.518"/>
	<path style="fill:#FFFFFF;" d="M996.476,858.342c0-1.012-0.82-1.834-1.835-1.834c-1.013,0-1.836,0.822-1.836,1.834
		c0,1.012,0.823,1.833,1.836,1.833C995.655,860.175,996.476,859.353,996.476,858.342"/>
	<path style="fill:#FFFFFF;" d="M226.369,867.691c0-1.111-0.901-2.014-2.01-2.014c-1.111,0-2.01,0.902-2.01,2.014
		c0,1.108,0.898,2.01,2.01,2.01C225.468,869.701,226.369,868.8,226.369,867.691"/>
	<path style="fill:#FFFFFF;" d="M229.514,895.864c0-2.847-2.305-5.153-5.154-5.153c-2.846,0-5.153,2.307-5.153,5.153
		c0,2.845,2.308,5.153,5.153,5.153C227.209,901.018,229.514,898.709,229.514,895.864"/>
	<path style="fill:#FFFFFF;" d="M217.696,895.864c0-1.509-1.222-2.731-2.731-2.731c-1.506,0-2.728,1.223-2.728,2.731
		c0,1.509,1.222,2.732,2.728,2.732C216.475,898.596,217.696,897.373,217.696,895.864"/>
	<path style="fill:#FFFFFF;" d="M225.78,924.08c0-0.783-0.637-1.42-1.421-1.42c-0.784,0-1.42,0.637-1.42,1.42
		c0,0.785,0.636,1.422,1.42,1.422C225.144,925.502,225.78,924.865,225.78,924.08"/>
	<path style="fill:#FFFFFF;" d="M428.665,769.211c0-0.664-0.537-1.201-1.201-1.201c-0.663,0-1.202,0.537-1.202,1.201
		c0,0.664,0.539,1.202,1.202,1.202C428.128,770.413,428.665,769.875,428.665,769.211"/>
	<path style="fill:#FFFFFF;" d="M694.477,787.993c0-2.845-2.306-5.153-5.155-5.153c-2.845,0-5.152,2.309-5.152,5.153
		c0,2.846,2.308,5.153,5.152,5.153C692.172,793.146,694.477,790.839,694.477,787.993"/>
	<path style="fill:#FFFFFF;" d="M681.623,806.775c0-0.935-0.756-1.691-1.693-1.691c-0.935,0-1.692,0.757-1.692,1.691
		c0,0.936,0.758,1.694,1.692,1.694C680.867,808.47,681.623,807.712,681.623,806.775"/>
	<path style="fill:#FFFFFF;" d="M598.497,778.665c0-1.897-1.537-3.434-3.432-3.434c-1.898,0-3.433,1.536-3.433,3.434
		c0,1.895,1.534,3.431,3.433,3.431C596.96,782.096,598.497,780.56,598.497,778.665"/>
	<path style="fill:#FFFFFF;" d="M314.078,806.775c0-0.634-0.515-1.148-1.152-1.148c-0.633,0-1.148,0.515-1.148,1.148
		c0,0.637,0.516,1.152,1.148,1.152C313.564,807.928,314.078,807.412,314.078,806.775"/>
</g>
<g id="Ebene_1">
</g>
</svg>
