<?xml version="1.0" encoding="iso-8859-1"?>
<!-- Generator: Adobe Illustrator 18.0.0, SVG Export Plug-In . SVG Version: 6.00 Build 0)  -->
<!DOCTYPE svg PUBLIC "-//W3C//DTD SVG 1.1//EN" "http://www.w3.org/Graphics/SVG/1.1/DTD/svg11.dtd">
<svg version="1.1" xmlns="http://www.w3.org/2000/svg" xmlns:xlink="http://www.w3.org/1999/xlink" x="0px" y="0px"
	 viewBox="0 0 2800 750" style="enable-background:new 0 0 2800 750;" xml:space="preserve">
<g id="n9">
	<path style="fill:#FFFFFF;" d="M1085.762,499.174c0-1.982-1.606-3.581-3.591-3.581c-1.975,0-3.582,1.599-3.582,3.581
		c0,1.984,1.606,3.582,3.582,3.582C1084.156,502.756,1085.762,501.159,1085.762,499.174"/>
	<path style="fill:#FFFFFF;" d="M1706.66,456.446c0-6.279-5.09-11.374-11.371-11.374c-6.277,0-11.362,5.094-11.362,11.374
		c0,6.277,5.085,11.36,11.362,11.36C1701.571,467.806,1706.66,462.723,1706.66,456.446"/>
	<path style="fill:#FFFFFF;" d="M1722.162,500.263c0-2.739-2.224-4.955-4.964-4.955c-2.727,0-4.953,2.217-4.953,4.955
		s2.226,4.955,4.953,4.955C1719.939,505.219,1722.162,503.002,1722.162,500.263"/>
	<path style="fill:#FFFFFF;" d="M844.174,433.403c0-1.839-1.488-3.322-3.324-3.322c-1.839,0-3.324,1.483-3.324,3.322
		s1.485,3.322,3.324,3.322C842.686,436.724,844.174,435.241,844.174,433.403"/>
	<path style="fill:#FFFFFF;" d="M1479.116,455.311c0-1.572-1.283-2.852-2.855-2.852c-1.579,0-2.857,1.28-2.857,2.852
		c0,1.581,1.278,2.862,2.857,2.862C1477.833,458.173,1479.116,456.893,1479.116,455.311"/>
	<path style="fill:#FFFFFF;" d="M807.56,477.229c0-5.823-4.716-10.537-10.53-10.537c-5.821,0-10.537,4.714-10.537,10.537
		c0,5.814,4.716,10.53,10.537,10.53C802.844,487.76,807.56,483.044,807.56,477.229"/>
	<path style="fill:#FFFFFF;" d="M845.11,477.229c0-2.351-1.907-4.261-4.261-4.261c-2.344,0-4.251,1.909-4.251,4.261
		c0,2.344,1.907,4.251,4.251,4.251C843.203,481.48,845.11,479.574,845.11,477.229"/>
	<path style="fill:#FFFFFF;" d="M984.705,477.229c0-6.844-5.548-12.394-12.392-12.394c-6.837,0-12.385,5.55-12.385,12.394
		c0,6.835,5.548,12.385,12.385,12.385C979.157,489.614,984.705,484.064,984.705,477.229"/>
	<path style="fill:#FFFFFF;" d="M1421.136,499.138c0-5.855-4.753-10.606-10.61-10.606c-5.858,0-10.604,4.75-10.604,10.606
		c0,5.858,4.746,10.608,10.604,10.608C1416.384,509.746,1421.136,504.995,1421.136,499.138"/>
	<path style="fill:#FFFFFF;" d="M1466.437,499.138c0-6.68-5.409-12.094-12.091-12.094c-6.671,0-12.094,5.413-12.094,12.094
		c0,6.673,5.422,12.094,12.094,12.094C1461.028,511.231,1466.437,505.811,1466.437,499.138"/>
	<path style="fill:#FFFFFF;" d="M1478.134,499.138c0-1.039-0.841-1.88-1.873-1.88c-1.034,0-1.875,0.841-1.875,1.88
		s0.841,1.882,1.875,1.882C1477.293,501.02,1478.134,500.177,1478.134,499.138"/>
	<path style="fill:#FFFFFF;" d="M1038.734,411.494c0-4.149-3.358-7.507-7.505-7.507c-4.149,0-7.507,3.358-7.507,7.507
		c0,4.147,3.358,7.505,7.507,7.505C1035.376,418.999,1038.734,415.64,1038.734,411.494"/>
	<path style="fill:#FFFFFF;" d="M741.317,455.311c0-5.532-4.482-10.013-10.023-10.013c-5.529,0-10.013,4.482-10.013,10.013
		c0,5.541,4.484,10.022,10.013,10.022C736.835,465.334,741.317,460.852,741.317,455.311"/>
	<path style="fill:#FFFFFF;" d="M1210.365,477.229c0-1.212-0.978-2.192-2.19-2.192c-1.2,0-2.182,0.98-2.182,2.192
		c0,1.203,0.982,2.183,2.182,2.183C1209.388,479.412,1210.365,478.432,1210.365,477.229"/>
	<path style="fill:#FFFFFF;" d="M1234.835,499.138c0-2.62-2.121-4.748-4.748-4.748c-2.622,0-4.741,2.128-4.741,4.748
		c0,2.62,2.119,4.741,4.741,4.741C1232.714,503.879,1234.835,501.758,1234.835,499.138"/>
	<path style="fill:#FFFFFF;" d="M2025.727,499.138c0-0.943-0.768-1.7-1.702-1.7c-0.939,0-1.7,0.756-1.7,1.7
		c0,0.936,0.761,1.7,1.7,1.7C2024.959,500.837,2025.727,500.074,2025.727,499.138"/>
	<path style="fill:#FFFFFF;" d="M2287.114,455.311c0-5.309-4.302-9.61-9.61-9.61c-5.306,0-9.612,4.301-9.612,9.61
		s4.306,9.61,9.612,9.61C2282.812,464.921,2287.114,460.62,2287.114,455.311"/>
	<path style="fill:#FFFFFF;" d="M506.263,520.946c0-2.18-1.766-3.948-3.951-3.948c-2.18,0-3.946,1.768-3.946,3.948
		c0,2.183,1.766,3.951,3.946,3.951C504.497,524.897,506.263,523.129,506.263,520.946"/>
	<path style="fill:#FFFFFF;" d="M1919.632,203.548c0-2.146-1.734-3.889-3.88-3.889c-2.146,0-3.885,1.743-3.885,3.889
		c0,2.139,1.738,3.885,3.885,3.885C1917.899,207.433,1919.632,205.687,1919.632,203.548"/>
	<path style="fill:#FFFFFF;" d="M1943.929,203.548c0-3.458-2.807-6.268-6.268-6.268s-6.259,2.809-6.259,6.268
		c0,3.454,2.798,6.261,6.259,6.261S1943.929,207.002,1943.929,203.548"/>
	<path style="fill:#FFFFFF;" d="M1834.326,225.142c0-6.074-4.933-10.995-11.002-10.995c-6.072,0-10.995,4.921-10.995,10.995
		c0,6.07,4.923,10.991,10.995,10.991C1829.393,236.133,1834.326,231.212,1834.326,225.142"/>
	<path style="fill:#FFFFFF;" d="M2050.563,203.68c0-2.087-1.698-3.787-3.787-3.787c-2.096,0-3.784,1.7-3.784,3.787
		c0,2.096,1.688,3.789,3.784,3.789C2048.865,207.469,2050.563,205.776,2050.563,203.68"/>
	<path style="fill:#FFFFFF;" d="M2053.354,225.589c0-3.632-2.941-6.575-6.578-6.575c-3.643,0-6.587,2.944-6.587,6.575
		c0,3.641,2.943,6.589,6.587,6.589C2050.413,232.178,2053.354,229.23,2053.354,225.589"/>
	<path style="fill:#FFFFFF;" d="M741.388,225.459c0-5.814-4.716-10.528-10.531-10.528c-5.814,0-10.528,4.714-10.528,10.528
		c0,5.812,4.714,10.528,10.528,10.528C736.671,235.987,741.388,231.271,741.388,225.459"/>
	<path style="fill:#FFFFFF;" d="M741.378,247.368c0-5.817-4.707-10.519-10.521-10.519c-5.805,0-10.521,4.702-10.521,10.519
		c0,5.814,4.716,10.521,10.521,10.521C736.671,257.889,741.378,253.182,741.378,247.368"/>
	<path style="fill:#FFFFFF;" d="M1700.106,247.368c0-5.817-4.709-10.519-10.521-10.519c-5.805,0-10.519,4.702-10.519,10.519
		c0,5.814,4.714,10.521,10.519,10.521C1695.396,257.889,1700.106,253.182,1700.106,247.368"/>
	<path style="fill:#FFFFFF;" d="M845.456,291.037c0-0.893-0.722-1.608-1.606-1.608s-1.599,0.715-1.599,1.608
		c0,0.884,0.715,1.597,1.599,1.597S845.456,291.921,845.456,291.037"/>
</g>
<g id="Ebene_1">
</g>
</svg>
