<?xml version="1.0" encoding="iso-8859-1"?>
<!-- Generator: Adobe Illustrator 18.0.0, SVG Export Plug-In . SVG Version: 6.00 Build 0)  -->
<!DOCTYPE svg PUBLIC "-//W3C//DTD SVG 1.1//EN" "http://www.w3.org/Graphics/SVG/1.1/DTD/svg11.dtd">
<svg version="1.1" xmlns="http://www.w3.org/2000/svg" xmlns:xlink="http://www.w3.org/1999/xlink" x="0px" y="0px"
	 viewBox="0 0 2800 750" style="enable-background:new 0 0 2800 750;" xml:space="preserve">
<g id="ne14">
	<path style="fill:#FFFFFF;" d="M1461.627,437.459c0-1.925-1.552-3.477-3.482-3.477c-1.925,0-3.484,1.552-3.484,3.477
		c0,1.932,1.559,3.481,3.484,3.481C1460.075,440.94,1461.627,439.391,1461.627,437.459"/>
	<path style="fill:#FFFFFF;" d="M1981.38,481.088c0-6.337-5.126-11.481-11.476-11.481c-6.332,0-11.476,5.144-11.476,11.481
		c0,6.341,5.144,11.479,11.476,11.479C1976.254,492.566,1981.38,487.429,1981.38,481.088"/>
	<path style="fill:#FFFFFF;" d="M1745.928,459.257c0-2.029-1.661-3.696-3.696-3.696c-2.043,0-3.701,1.667-3.701,3.696
		c0,2.045,1.658,3.708,3.701,3.708C1744.268,462.965,1745.928,461.302,1745.928,459.257"/>
	<path style="fill:#FFFFFF;" d="M1729.98,524.742c0-5.289-4.287-9.574-9.578-9.574c-5.275,0-9.562,4.285-9.562,9.574
		c0,5.28,4.287,9.56,9.562,9.56C1725.693,534.302,1729.98,530.022,1729.98,524.742"/>
	<path style="fill:#FFFFFF;" d="M1889.656,502.911c0-5.787-4.692-10.485-10.488-10.485c-5.782,0-10.481,4.699-10.481,10.485
		c0,5.791,4.699,10.492,10.481,10.492C1884.964,513.403,1889.656,508.703,1889.656,502.911"/>
	<path style="fill:#FFFFFF;" d="M2061.87,437.431c0-3.744-3.04-6.787-6.796-6.787c-3.742,0-6.791,3.043-6.791,6.787
		c0,3.755,3.049,6.793,6.791,6.793C2058.829,444.225,2061.87,441.187,2061.87,437.431"/>
	<path style="fill:#FFFFFF;" d="M2064.652,415.61c0-5.289-4.289-9.572-9.578-9.572s-9.572,4.283-9.572,9.572
		c0,5.282,4.283,9.567,9.572,9.567S2064.652,420.892,2064.652,415.61"/>
	<path style="fill:#FFFFFF;" d="M2066.552,524.773c0-6.334-5.135-11.479-11.478-11.479c-6.33,0-11.476,5.144-11.476,11.479
		c0,6.343,5.146,11.479,11.476,11.479C2061.417,536.252,2066.552,531.117,2066.552,524.773"/>
	<path style="fill:#FFFFFF;" d="M971.226,437.395c0-1.079-0.873-1.957-1.959-1.957c-1.086,0-1.961,0.878-1.961,1.957
		c0,1.086,0.875,1.968,1.961,1.968C970.353,439.363,971.226,438.481,971.226,437.395"/>
	<path style="fill:#FFFFFF;" d="M1037.681,437.395c0-1.624-1.314-2.93-2.934-2.93c-1.623,0-2.942,1.305-2.942,2.93
		c0,1.629,1.319,2.948,2.942,2.948C1036.367,440.343,1037.681,439.024,1037.681,437.395"/>
	<path style="fill:#FFFFFF;" d="M799.17,459.221c0-2.491-2.016-4.508-4.504-4.508c-2.504,0-4.521,2.018-4.521,4.508
		c0,2.498,2.017,4.516,4.521,4.516C797.154,463.737,799.17,461.719,799.17,459.221"/>
	<path style="fill:#FFFFFF;" d="M1066.352,459.221c0-5.404-4.382-9.782-9.78-9.782c-5.405,0-9.785,4.377-9.785,9.782
		c0,5.407,4.38,9.784,9.785,9.784C1061.97,469.005,1066.352,464.628,1066.352,459.221"/>
	<path style="fill:#FFFFFF;" d="M1261.865,459.221c0-4.879-3.969-8.854-8.864-8.854c-4.888,0-8.854,3.975-8.854,8.854
		c0,4.889,3.967,8.861,8.854,8.861C1257.896,468.082,1261.865,464.11,1261.865,459.221"/>
	<path style="fill:#FFFFFF;" d="M1104.935,502.88c0-2.61-2.104-4.719-4.713-4.719c-2.603,0-4.714,2.108-4.714,4.719
		c0,2.602,2.112,4.706,4.714,4.706C1102.832,507.585,1104.935,505.481,1104.935,502.88"/>
	<path style="fill:#FFFFFF;" d="M1234.041,502.88c0-1.579-1.28-2.869-2.864-2.869c-1.573,0-2.858,1.29-2.858,2.869
		c0,1.575,1.285,2.855,2.858,2.855C1232.761,505.734,1234.041,504.454,1234.041,502.88"/>
	<path style="fill:#FFFFFF;" d="M952.001,502.88c0-1.104-0.888-1.995-1.992-1.995c-1.103,0-1.992,0.891-1.992,1.995
		c0,1.104,0.889,1.991,1.992,1.991C951.113,504.87,952.001,503.984,952.001,502.88"/>
	<path style="fill:#FFFFFF;" d="M1233.624,524.705c0-1.348-1.094-2.448-2.447-2.448c-1.353,0-2.449,1.099-2.449,2.448
		c0,1.353,1.096,2.448,2.449,2.448C1232.53,527.153,1233.624,526.058,1233.624,524.705"/>
	<path style="fill:#FFFFFF;" d="M1334.824,502.88c0-6.194-5.011-11.214-11.208-11.214c-6.194,0-11.206,5.02-11.206,11.214
		c0,6.185,5.012,11.207,11.206,11.207C1329.813,514.087,1334.824,509.064,1334.824,502.88"/>
	<path style="fill:#FFFFFF;" d="M1973.797,250.652c0-2.344-1.902-4.248-4.248-4.248c-2.33,0-4.235,1.905-4.235,4.248
		c0,2.335,1.905,4.235,4.235,4.235C1971.894,254.886,1973.797,252.986,1973.797,250.652"/>
	<path style="fill:#FFFFFF;" d="M614.071,228.063c0-3.518,2.857-6.391,6.39-6.391c3.523,0,6.391,2.873,6.391,6.391
		c0,3.531-2.867,6.395-6.391,6.395C616.928,234.459,614.071,231.595,614.071,228.063"/>
	<path style="fill:#FFFFFF;" d="M675.446,249.898c0-5.807,4.695-10.499,10.489-10.499c5.8,0,10.498,4.692,10.498,10.499
		c0,5.789-4.698,10.488-10.498,10.488C680.141,260.386,675.446,255.687,675.446,249.898"/>
	<path style="fill:#FFFFFF;" d="M450.204,272.036c0-6.809-5.527-12.345-12.344-12.345c-6.822,0-12.345,5.536-12.345,12.345
		c0,6.825,5.523,12.349,12.345,12.349C444.677,284.386,450.204,278.861,450.204,272.036"/>
	<path style="fill:#FFFFFF;" d="M838.942,250.215c0-4.205-3.403-7.61-7.604-7.61c-4.2,0-7.606,3.405-7.606,7.61
		c0,4.192,3.406,7.599,7.606,7.599C835.538,257.814,838.942,254.407,838.942,250.215"/>
	<path style="fill:#FFFFFF;" d="M2101.078,206.559c0-0.928-0.74-1.681-1.674-1.681c-0.921,0-1.683,0.753-1.683,1.681
		c0,0.93,0.762,1.672,1.683,1.672C2100.339,208.231,2101.078,207.489,2101.078,206.559"/>
	<path style="fill:#FFFFFF;" d="M2064.173,293.867c0-4.647-3.769-8.422-8.418-8.422c-4.64,0-8.422,3.776-8.422,8.422
		c0,4.649,3.782,8.411,8.422,8.411C2060.404,302.278,2064.173,298.516,2064.173,293.867"/>
	<path style="fill:#FFFFFF;" d="M1326.38,228.737c0-4.368-3.532-7.897-7.894-7.897c-4.368,0-7.903,3.529-7.903,7.897
		c0,4.353,3.535,7.891,7.903,7.891C1322.848,236.628,1326.38,233.09,1326.38,228.737"/>
	<path style="fill:#FFFFFF;" d="M1848.746,228.737c0-3.561-2.882-6.443-6.445-6.443c-3.55,0-6.441,2.882-6.441,6.443
		c0,3.559,2.891,6.445,6.441,6.445C1845.864,235.183,1848.746,232.296,1848.746,228.737"/>
	<path style="fill:#FFFFFF;" d="M1328.892,250.561c0-5.751-4.659-10.426-10.406-10.426c-5.753,0-10.415,4.676-10.415,10.426
		c0,5.746,4.662,10.413,10.415,10.413C1324.234,260.974,1328.892,256.307,1328.892,250.561"/>
	<path style="fill:#FFFFFF;" d="M1876.115,250.561c0-6.619-5.366-11.983-11.981-11.983c-6.624,0-11.985,5.364-11.985,11.983
		c0,6.61,5.362,11.981,11.985,11.981C1870.748,262.542,1876.115,257.171,1876.115,250.561"/>
	<path style="fill:#FFFFFF;" d="M1262.339,272.389c0-5.156-4.181-9.327-9.338-9.327c-5.147,0-9.324,4.172-9.324,9.327
		c0,5.147,4.177,9.334,9.324,9.334C1258.159,281.723,1262.339,277.536,1262.339,272.389"/>
	<path style="fill:#FFFFFF;" d="M977.906,206.907c0-4.771-3.865-8.635-8.639-8.635c-4.773,0-8.641,3.864-8.641,8.635
		s3.867,8.63,8.641,8.63C974.041,215.537,977.906,211.678,977.906,206.907"/>
	<path style="fill:#FFFFFF;" d="M1068.912,250.561c0-6.814-5.529-12.338-12.339-12.338c-6.818,0-12.336,5.524-12.336,12.338
		c0,6.814,5.517,12.334,12.336,12.334C1063.383,262.895,1068.912,257.375,1068.912,250.561"/>
	<path style="fill:#FFFFFF;" d="M1663.267,250.552c0-5.889-4.789-10.673-10.682-10.673c-5.9,0-10.682,4.785-10.682,10.673
		c0,5.905,4.782,10.689,10.682,10.689C1658.478,261.241,1663.267,256.457,1663.267,250.552"/>
	<path style="fill:#FFFFFF;" d="M1613.679,250.561c0-2.624-2.122-4.75-4.751-4.75c-2.615,0-4.746,2.126-4.746,4.75
		c0,2.617,2.131,4.751,4.746,4.751C1611.557,255.312,1613.679,253.178,1613.679,250.561"/>
	<path style="fill:#FFFFFF;" d="M1635.134,272.389c0-2.411-1.964-4.373-4.375-4.373c-2.414,0-4.366,1.961-4.366,4.373
		c0,2.407,1.952,4.357,4.366,4.357C1633.171,276.746,1635.134,274.796,1635.134,272.389"/>
	<path style="fill:#FFFFFF;" d="M1171.812,294.211c0-3.377-2.737-6.11-6.107-6.11c-3.38,0-6.12,2.733-6.12,6.11
		c0,3.375,2.741,6.117,6.12,6.117C1169.075,300.327,1171.812,297.586,1171.812,294.211"/>
	<path style="fill:#FFFFFF;" d="M1748.591,185.079c0-6.821-5.524-12.334-12.336-12.334c-6.821,0-12.343,5.513-12.343,12.334
		c0,6.823,5.522,12.343,12.343,12.343C1743.067,197.422,1748.591,191.902,1748.591,185.079"/>
	<path style="fill:#FFFFFF;" d="M1825.83,294.211c0-2.952-2.393-5.341-5.352-5.341c-2.945,0-5.334,2.389-5.334,5.341
		c0,2.95,2.389,5.35,5.334,5.35C1823.437,299.561,1825.83,297.161,1825.83,294.211"/>
	<path style="fill:#FFFFFF;" d="M2173.922,294.211c0-3.744-3.036-6.789-6.787-6.789c-3.76,0-6.8,3.045-6.8,6.789
		c0,3.753,3.041,6.793,6.8,6.793C2170.886,301.004,2173.922,297.964,2173.922,294.211"/>
	<path style="fill:#FFFFFF;" d="M2405.882,308.648c0-3.746-3.038-6.775-6.784-6.775c-3.755,0-6.787,3.029-6.787,6.775
		c0,3.749,3.031,6.789,6.787,6.789C2402.844,315.437,2405.882,312.397,2405.882,308.648"/>
	<path style="fill:#FFFFFF;" d="M2431.411,308.996c0-5.787-4.696-10.476-10.494-10.476c-5.794,0-10.476,4.69-10.476,10.476
		c0,5.791,4.683,10.488,10.476,10.488C2426.715,319.484,2431.411,314.788,2431.411,308.996"/>
	<path style="fill:#FFFFFF;" d="M2239.426,221.89c0-5.796,4.692-10.494,10.497-10.494c5.791,0,10.488,4.699,10.488,10.494
		c0,5.798-4.697,10.492-10.488,10.492C2244.118,232.382,2239.426,227.688,2239.426,221.89"/>
	<path style="fill:#FFFFFF;" d="M2333.118,196.793c0-1.733-1.398-3.129-3.122-3.129c-1.724,0-3.122,1.396-3.122,3.129
		c0,1.724,1.398,3.12,3.122,3.12C2331.72,199.912,2333.118,198.516,2333.118,196.793"/>
	<path style="fill:#FFFFFF;" d="M2377.517,218.61c0-2.129-1.731-3.866-3.857-3.866c-2.142,0-3.884,1.737-3.884,3.866
		c0,2.145,1.742,3.882,3.884,3.882C2375.786,222.492,2377.517,220.754,2377.517,218.61"/>
	<path style="fill:#FFFFFF;" d="M2312.159,284.101c0-2.203-1.789-3.991-3.988-3.991c-2.199,0-3.979,1.787-3.979,3.991
		c0,2.19,1.78,3.97,3.979,3.97C2310.369,288.071,2312.159,286.291,2312.159,284.101"/>
	<path style="fill:#FFFFFF;" d="M537.361,228.303c0-4.413-3.569-7.979-7.972-7.979c-4.409,0-7.978,3.565-7.978,7.979
		c0,4.405,3.569,7.97,7.978,7.97C533.793,236.273,537.361,232.708,537.361,228.303"/>
	<path style="fill:#FFFFFF;" d="M520.581,250.129c0-7.126-5.781-12.901-12.901-12.901c-7.129,0-12.906,5.776-12.906,12.901
		c0,7.119,5.777,12.897,12.906,12.897C514.8,263.026,520.581,257.248,520.581,250.129"/>
</g>
<g id="Ebene_1">
</g>
</svg>
