<?xml version="1.0" encoding="iso-8859-1"?>
<!-- Generator: Adobe Illustrator 18.0.0, SVG Export Plug-In . SVG Version: 6.00 Build 0)  -->
<!DOCTYPE svg PUBLIC "-//W3C//DTD SVG 1.1//EN" "http://www.w3.org/Graphics/SVG/1.1/DTD/svg11.dtd">
<svg version="1.1" xmlns="http://www.w3.org/2000/svg" xmlns:xlink="http://www.w3.org/1999/xlink" x="0px" y="0px"
	 viewBox="0 0 2800 750" style="enable-background:new 0 0 2800 750;" xml:space="preserve">
<g id="ne6">
	<path style="fill:#FFFFFF;" d="M1490.583,459.284c0-5.857-4.746-10.617-10.614-10.617c-5.859,0-10.614,4.76-10.614,10.617
		c0,5.866,4.755,10.621,10.614,10.621C1485.837,469.905,1490.583,465.15,1490.583,459.284"/>
	<path style="fill:#FFFFFF;" d="M1492.316,502.943c0-6.823-5.531-12.352-12.347-12.352c-6.814,0-12.345,5.529-12.345,12.352
		c0,6.818,5.531,12.343,12.345,12.343C1486.785,515.286,1492.316,509.761,1492.316,502.943"/>
	<path style="fill:#FFFFFF;" d="M1444.742,524.769c0-4.646-3.778-8.424-8.425-8.424c-4.64,0-8.413,3.778-8.413,8.424
		c0,4.642,3.773,8.416,8.413,8.416C1440.964,533.184,1444.742,529.411,1444.742,524.769"/>
	<path style="fill:#FFFFFF;" d="M1981.38,437.431c0-6.332-5.126-11.479-11.476-11.479c-6.332,0-11.476,5.147-11.476,11.479
		c0,6.341,5.144,11.476,11.476,11.476C1976.254,448.908,1981.38,443.772,1981.38,437.431"/>
	<path style="fill:#FFFFFF;" d="M1753.333,481.092c0-6.137-4.965-11.105-11.101-11.105c-6.133,0-11.099,4.968-11.099,11.105
		c0,6.126,4.966,11.094,11.099,11.094C1748.367,492.186,1753.333,487.218,1753.333,481.092"/>
	<path style="fill:#FFFFFF;" d="M1704.351,524.742c0-3.19-2.581-5.778-5.773-5.778c-3.188,0-5.773,2.588-5.773,5.778
		c0,3.194,2.586,5.773,5.773,5.773C1701.77,530.515,1704.351,527.936,1704.351,524.742"/>
	<path style="fill:#FFFFFF;" d="M2042.826,459.257c0-5.289-4.285-9.572-9.571-9.572c-5.291,0-9.576,4.283-9.576,9.572
		c0,5.289,4.285,9.569,9.576,9.569C2038.542,468.826,2042.826,464.546,2042.826,459.257"/>
	<path style="fill:#FFFFFF;" d="M1560.087,437.44c0-1.088-0.882-1.97-1.979-1.97c-1.081,0-1.977,0.882-1.977,1.97
		c0,1.093,0.896,1.968,1.977,1.968C1559.205,439.409,1560.087,438.533,1560.087,437.44"/>
	<path style="fill:#FFFFFF;" d="M1544.46,524.746c0-4.515-3.66-8.18-8.171-8.18c-4.515,0-8.176,3.665-8.176,8.18
		c0,4.515,3.66,8.18,8.176,8.18C1540.8,532.926,1544.46,529.262,1544.46,524.746"/>
	<path style="fill:#FFFFFF;" d="M741.518,437.395c0-6.809-5.517-12.338-12.338-12.338c-6.808,0-12.337,5.529-12.337,12.338
		c0,6.816,5.529,12.343,12.337,12.343C736.001,449.738,741.518,444.211,741.518,437.395"/>
	<path style="fill:#FFFFFF;" d="M1214.167,437.395c0-2.658-2.154-4.821-4.815-4.821c-2.659,0-4.815,2.163-4.815,4.821
		c0,2.663,2.156,4.814,4.815,4.814C1212.013,442.209,1214.167,440.058,1214.167,437.395"/>
	<path style="fill:#FFFFFF;" d="M709.511,459.221c0-1.19-0.965-2.16-2.156-2.16c-1.197,0-2.161,0.971-2.161,2.16
		c0,1.199,0.965,2.163,2.161,2.163C708.546,461.384,709.511,460.42,709.511,459.221"/>
	<path style="fill:#FFFFFF;" d="M1241.165,459.221c0-5.513-4.47-9.99-9.988-9.99c-5.506,0-9.983,4.477-9.983,9.99
		c0,5.52,4.477,9.986,9.983,9.986C1236.695,469.207,1241.165,464.741,1241.165,459.221"/>
	<path style="fill:#FFFFFF;" d="M826.043,481.052c0-5.285-4.276-9.56-9.557-9.56c-5.278,0-9.565,4.276-9.565,9.56
		c0,5.278,4.287,9.558,9.565,9.558C821.767,490.609,826.043,486.329,826.043,481.052"/>
	<path style="fill:#FFFFFF;" d="M1265.347,481.052c0-6.816-5.528-12.345-12.346-12.345c-6.809,0-12.333,5.529-12.333,12.345
		c0,6.811,5.523,12.336,12.333,12.336C1259.819,493.387,1265.347,487.863,1265.347,481.052"/>
	<path style="fill:#FFFFFF;" d="M938.407,459.221c0-5.644-4.575-10.225-10.222-10.225c-5.644,0-10.224,4.581-10.224,10.225
		c0,5.644,4.58,10.232,10.224,10.232C933.832,469.453,938.407,464.865,938.407,459.221"/>
	<path style="fill:#FFFFFF;" d="M1997.763,228.819c0-3.529-2.85-6.388-6.386-6.388c-3.531,0-6.391,2.859-6.391,6.388
		c0,3.527,2.859,6.386,6.391,6.386C1994.913,235.205,1997.763,232.346,1997.763,228.819"/>
	<path style="fill:#FFFFFF;" d="M2001.695,250.652c0-5.696-4.624-10.32-10.318-10.32c-5.699,0-10.309,4.624-10.309,10.32
		c0,5.692,4.61,10.309,10.309,10.309C1997.071,260.961,2001.695,256.343,2001.695,250.652"/>
	<path style="fill:#FFFFFF;" d="M2000.935,272.475c0-5.287-4.271-9.571-9.558-9.571c-5.28,0-9.558,4.285-9.558,9.571
		c0,5.271,4.278,9.565,9.558,9.565C1996.663,282.04,2000.935,277.746,2000.935,272.475"/>
	<path style="fill:#FFFFFF;" d="M677.755,184.416c0-4.522,3.664-8.18,8.18-8.18s8.188,3.658,8.188,8.18
		c0,4.516-3.672,8.174-8.188,8.174S677.755,188.932,677.755,184.416"/>
	<path style="fill:#FFFFFF;" d="M659.483,206.242c0-2.556,2.07-4.622,4.627-4.622s4.629,2.065,4.629,4.622
		c0,2.554-2.071,4.626-4.629,4.626S659.483,208.796,659.483,206.242"/>
	<path style="fill:#FFFFFF;" d="M675.446,228.063c0-5.789,4.695-10.49,10.489-10.49c5.8,0,10.498,4.701,10.498,10.49
		c0,5.805-4.698,10.501-10.498,10.501C680.141,238.564,675.446,233.868,675.446,228.063"/>
	<path style="fill:#FFFFFF;" d="M675.446,271.724c0-5.8,4.695-10.499,10.489-10.499c5.8,0,10.498,4.699,10.498,10.499
		c0,5.785-4.698,10.488-10.498,10.488C680.141,282.212,675.446,277.509,675.446,271.724"/>
	<path style="fill:#FFFFFF;" d="M439.536,206.559c0-0.928-0.745-1.681-1.676-1.681c-0.926,0-1.679,0.753-1.679,1.681
		c0,0.93,0.752,1.672,1.679,1.672C438.791,208.231,439.536,207.489,439.536,206.559"/>
	<path style="fill:#FFFFFF;" d="M865.507,250.215c0-6.818-5.526-12.347-12.344-12.347c-6.811,0-12.336,5.529-12.336,12.347
		c0,6.807,5.525,12.336,12.336,12.336C859.982,262.551,865.507,257.022,865.507,250.215"/>
	<path style="fill:#FFFFFF;" d="M1170.384,228.737c0-2.597-2.097-4.685-4.678-4.685c-2.593,0-4.69,2.088-4.69,4.685
		c0,2.581,2.097,4.681,4.69,4.681C1168.286,233.418,1170.384,231.319,1170.384,228.737"/>
	<path style="fill:#FFFFFF;" d="M1213.008,250.561c0-2.025-1.637-3.656-3.657-3.656c-2.017,0-3.652,1.631-3.652,3.656
		c0,2.018,1.636,3.651,3.652,3.651C1211.372,254.212,1213.008,252.579,1213.008,250.561"/>
	<path style="fill:#FFFFFF;" d="M1848.873,272.389c0-3.631-2.939-6.578-6.572-6.578c-3.62,0-6.558,2.948-6.558,6.578
		c0,3.626,2.939,6.563,6.558,6.563C1845.934,278.952,1848.873,276.016,1848.873,272.389"/>
	<path style="fill:#FFFFFF;" d="M1045.427,185.079c0-5.891-4.783-10.678-10.68-10.678c-5.903,0-10.684,4.787-10.684,10.678
		c0,5.909,4.781,10.689,10.684,10.689C1040.643,195.768,1045.427,190.988,1045.427,185.079"/>
	<path style="fill:#FFFFFF;" d="M998.697,206.907c0-4.192-3.405-7.599-7.609-7.599c-4.196,0-7.594,3.407-7.594,7.599
		c0,4.194,3.398,7.597,7.594,7.597C995.292,214.504,998.697,211.101,998.697,206.907"/>
	<path style="fill:#FFFFFF;" d="M1066.636,206.907c0-5.556-4.509-10.055-10.064-10.055c-5.559,0-10.059,4.5-10.059,10.055
		c0,5.563,4.499,10.055,10.059,10.055C1062.128,216.963,1066.636,212.47,1066.636,206.907"/>
	<path style="fill:#FFFFFF;" d="M1641.109,185.079c0-5.71-4.64-10.343-10.35-10.343c-5.71,0-10.343,4.633-10.343,10.343
		c0,5.714,4.633,10.349,10.343,10.349C1636.469,195.429,1641.109,190.793,1641.109,185.079"/>
	<path style="fill:#FFFFFF;" d="M1595.745,206.907c0-4.771-3.866-8.635-8.637-8.635c-4.778,0-8.646,3.864-8.646,8.635
		s3.868,8.63,8.646,8.63C1591.879,215.537,1595.745,211.678,1595.745,206.907"/>
	<path style="fill:#FFFFFF;" d="M1280.549,294.211c0-3.151-2.557-5.712-5.712-5.712c-3.16,0-5.717,2.561-5.717,5.712
		c0,3.156,2.556,5.712,5.717,5.712C1277.993,299.923,1280.549,297.366,1280.549,294.211"/>
	<path style="fill:#FFFFFF;" d="M1301.999,294.211c0-2.943-2.399-5.332-5.338-5.332c-2.95,0-5.341,2.389-5.341,5.332
		c0,2.95,2.391,5.337,5.341,5.337C1299.6,299.547,1301.999,297.161,1301.999,294.211"/>
	<path style="fill:#FFFFFF;" d="M1748.6,272.389c0-6.82-5.524-12.352-12.345-12.352c-6.832,0-12.347,5.531-12.347,12.352
		c0,6.816,5.515,12.345,12.347,12.345C1743.076,284.734,1748.6,279.205,1748.6,272.389"/>
	<path style="fill:#FFFFFF;" d="M2179.478,272.389c0-6.82-5.533-12.352-12.343-12.352c-6.823,0-12.356,5.531-12.356,12.352
		c0,6.816,5.533,12.345,12.356,12.345C2173.944,284.734,2179.478,279.205,2179.478,272.389"/>
	<path style="fill:#FFFFFF;" d="M2431.411,178.234c0-5.789-4.696-10.485-10.494-10.485c-5.794,0-10.481,4.697-10.481,10.485
		c0,5.803,4.687,10.488,10.481,10.488C2426.715,188.721,2431.411,184.036,2431.411,178.234"/>
	<path style="fill:#FFFFFF;" d="M2431.42,200.071c0-5.805-4.7-10.503-10.503-10.503c-5.794,0-10.481,4.699-10.481,10.503
		c0,5.789,4.687,10.483,10.481,10.483C2426.72,210.554,2431.42,205.86,2431.42,200.071"/>
	<path style="fill:#FFFFFF;" d="M2431.42,243.722c0-5.809-4.7-10.504-10.503-10.504c-5.794,0-10.481,4.694-10.481,10.504
		c0,5.787,4.687,10.49,10.481,10.49C2426.72,254.212,2431.42,249.509,2431.42,243.722"/>
	<path style="fill:#FFFFFF;" d="M2431.42,287.166c0-5.787-4.7-10.481-10.503-10.481c-5.794,0-10.481,4.694-10.481,10.481
		c0,5.798,4.687,10.494,10.481,10.494C2426.72,297.66,2431.42,292.964,2431.42,287.166"/>
	<path style="fill:#FFFFFF;" d="M2239.426,200.071c0-5.805,4.692-10.503,10.497-10.503c5.791,0,10.488,4.699,10.488,10.503
		c0,5.789-4.697,10.483-10.488,10.483C2244.118,210.554,2239.426,205.86,2239.426,200.071"/>
	<path style="fill:#FFFFFF;" d="M2354.211,196.793c0-1.328-1.077-2.382-2.389-2.382s-2.375,1.054-2.375,2.382
		c0,1.31,1.063,2.384,2.375,2.384S2354.211,198.103,2354.211,196.793"/>
	<path style="fill:#FFFFFF;" d="M2361.459,240.445c0-5.316-4.319-9.633-9.637-9.633c-5.316,0-9.628,4.316-9.628,9.633
		c0,5.312,4.312,9.628,9.628,9.628C2357.141,250.072,2361.459,245.756,2361.459,240.445"/>
	<path style="fill:#FFFFFF;" d="M488.427,228.303c0-1.364-1.096-2.468-2.46-2.468c-1.355,0-2.457,1.104-2.457,2.468
		c0,1.355,1.102,2.455,2.457,2.455C487.331,230.758,488.427,229.658,488.427,228.303"/>
</g>
<g id="Ebene_1">
</g>
</svg>
