<?xml version="1.0" encoding="iso-8859-1"?>
<!-- Generator: Adobe Illustrator 18.0.0, SVG Export Plug-In . SVG Version: 6.00 Build 0)  -->
<!DOCTYPE svg PUBLIC "-//W3C//DTD SVG 1.1//EN" "http://www.w3.org/Graphics/SVG/1.1/DTD/svg11.dtd">
<svg version="1.1" xmlns="http://www.w3.org/2000/svg" xmlns:xlink="http://www.w3.org/1999/xlink" x="0px" y="0px"
	 viewBox="0 0 2800 10000" style="enable-background:new 0 0 2800 10000;" xml:space="preserve">
<g id="snow_x5F_big1">
	<path style="fill:#FFFFFF;" d="M2026.688,7917.735c0-6.89-5.589-12.481-12.479-12.481c-6.892,0-12.474,5.591-12.474,12.481
		c0,6.892,5.582,12.474,12.474,12.474C2021.099,7930.209,2026.688,7924.627,2026.688,7917.735"/>
	<path style="fill:#FFFFFF;" d="M302.206,8553.2c0-7.264-5.883-13.16-13.153-13.16c-7.263,0-13.146,5.896-13.146,13.16
		c0,7.268,5.883,13.15,13.146,13.15C296.323,8566.351,302.206,8560.468,302.206,8553.2"/>
	<path style="fill:#FFFFFF;" d="M2806.129,7479.379c0-6.89-5.587-12.481-12.476-12.481c-6.895,0-12.477,5.591-12.477,12.481
		c0,6.892,5.582,12.474,12.477,12.474C2800.542,7491.853,2806.129,7486.271,2806.129,7479.379"/>
	<path style="fill:#FFFFFF;" d="M229.744,7622.36c0-7.264-5.883-13.16-13.153-13.16c-7.263,0-13.146,5.896-13.146,13.16
		c0,7.268,5.883,13.15,13.146,13.15C223.861,7635.51,229.744,7629.627,229.744,7622.36"/>
	<path style="fill:#FFFFFF;" d="M2340.368,3266.023c0-6.99-5.655-12.647-12.631-12.647c-6.99,0-12.645,5.657-12.645,12.647
		c0,6.977,5.655,12.637,12.645,12.637C2334.713,3278.66,2340.368,3273,2340.368,3266.023"/>
	<path style="fill:#FFFFFF;" d="M2689.224,6774.698c0-6.99-5.655-12.647-12.631-12.647c-6.99,0-12.645,5.657-12.645,12.647
		c0,6.977,5.655,12.636,12.645,12.636C2683.569,6787.334,2689.224,6781.675,2689.224,6774.698"/>
	<path style="fill:#FFFFFF;" d="M26.053,4394.005c0-7.264-5.883-13.16-13.153-13.16c-7.263,0-13.146,5.896-13.146,13.16
		c0,7.268,5.883,13.15,13.146,13.15C20.17,4407.156,26.053,4401.273,26.053,4394.005"/>
	<path style="fill:#FFFFFF;" d="M2131.229,3308.801c0-6.703-5.441-12.141-12.148-12.141c-6.703,0-12.144,5.438-12.144,12.141
		c0,6.71,5.441,12.146,12.144,12.146C2125.788,3320.947,2131.229,3315.51,2131.229,3308.801"/>
	<path style="fill:#FFFFFF;" d="M2759.318,3365.209c0-6.703-5.441-12.141-12.148-12.141c-6.703,0-12.144,5.438-12.144,12.141
		c0,6.71,5.441,12.146,12.144,12.146C2753.877,3377.355,2759.318,3371.919,2759.318,3365.209"/>
	<path style="fill:#FFFFFF;" d="M2579.519,3986.789c0-6.99-5.655-12.647-12.631-12.647c-6.99,0-12.645,5.657-12.645,12.647
		c0,6.976,5.655,12.636,12.645,12.636C2573.864,3999.425,2579.519,3993.766,2579.519,3986.789"/>
	<path style="fill:#FFFFFF;" d="M792.928,3616.213c0-5.864-4.753-10.615-10.617-10.615c-5.862,0-10.617,4.751-10.617,10.615
		c0,5.865,4.755,10.617,10.617,10.617C788.175,3626.83,792.928,3622.077,792.928,3616.213"/>
	<path style="fill:#FFFFFF;" d="M2367.802,3089.007c0-5.758-4.666-10.43-10.43-10.43c-5.755,0-10.43,4.673-10.43,10.43
		c0,5.762,4.675,10.428,10.43,10.428C2363.136,3099.435,2367.802,3094.769,2367.802,3089.007"/>
	<path style="fill:#FFFFFF;" d="M2719.483,2980.342c0-5.757-4.666-10.43-10.43-10.43c-5.755,0-10.43,4.673-10.43,10.43
		c0,5.762,4.675,10.428,10.43,10.428C2714.817,2990.77,2719.483,2986.104,2719.483,2980.342"/>
	<path style="fill:#FFFFFF;" d="M458.281,2900.549c0-7.263-5.883-13.16-13.153-13.16c-7.263,0-13.146,5.896-13.146,13.16
		c0,7.268,5.883,13.151,13.146,13.151C452.398,2913.7,458.281,2907.817,458.281,2900.549"/>
	<path style="fill:#FFFFFF;" d="M2397.587,3489.725c0-6.89-5.587-12.481-12.476-12.481c-6.894,0-12.476,5.591-12.476,12.481
		c0,6.892,5.582,12.474,12.476,12.474C2392,3502.199,2397.587,3496.617,2397.587,3489.725"/>
	<path style="fill:#FFFFFF;" d="M1829.179,2837.505c-0.089-6.888-5.746-12.408-12.636-12.319
		c-6.894,0.088-12.403,5.751-12.314,12.64c0.086,6.891,5.741,12.401,12.633,12.312
		C1823.752,2850.05,1829.266,2844.397,1829.179,2837.505"/>
	<path style="fill:#FFFFFF;" d="M1828.849,2606.76c0-6.703-5.436-12.141-12.148-12.141c-6.703,0-12.139,5.438-12.139,12.141
		c0,6.709,5.436,12.146,12.139,12.146C1823.413,2618.906,1828.849,2613.47,1828.849,2606.76"/>
	<path style="fill:#FFFFFF;" d="M1946.831,9368.186c0-6.544-5.299-11.841-11.845-11.841c-6.543,0-11.836,5.297-11.836,11.841
		c0,6.543,5.293,11.843,11.836,11.843C1941.532,9380.028,1946.831,9374.729,1946.831,9368.186"/>
	<path style="fill:#FFFFFF;" d="M2425.784,8154.974c0-6.99-5.655-12.647-12.631-12.647c-6.99,0-12.645,5.657-12.645,12.647
		c0,6.977,5.655,12.636,12.645,12.636C2420.129,8167.61,2425.784,8161.951,2425.784,8154.974"/>
	<path style="fill:#FFFFFF;" d="M2759.318,5882.087c0-6.703-5.441-12.141-12.148-12.141c-6.703,0-12.144,5.438-12.144,12.141
		c0,6.71,5.441,12.146,12.144,12.146C2753.877,5894.233,2759.318,5888.797,2759.318,5882.087"/>
	<path style="fill:#FFFFFF;" d="M1774.421,2923.258c0-6.703-5.441-12.141-12.148-12.141c-6.703,0-12.144,5.438-12.144,12.141
		c0,6.709,5.441,12.146,12.144,12.146C1768.98,2935.404,1774.421,2929.967,1774.421,2923.258"/>
	<path style="fill:#FFFFFF;" d="M2194.922,2960.507c0-6.703-5.441-12.141-12.148-12.141c-6.703,0-12.144,5.438-12.144,12.141
		c0,6.71,5.441,12.146,12.144,12.146C2189.481,2972.652,2194.922,2967.217,2194.922,2960.507"/>
	<path style="fill:#FFFFFF;" d="M2514.731,7511.643c0-6.89-5.587-12.48-12.477-12.48c-6.894,0-12.476,5.591-12.476,12.48
		c0,6.892,5.582,12.474,12.476,12.474C2509.145,7524.117,2514.731,7518.535,2514.731,7511.643"/>
	<path style="fill:#FFFFFF;" d="M2685.763,7333.637c0-6.89-5.587-12.48-12.477-12.48c-6.894,0-12.476,5.591-12.476,12.48
		c0,6.892,5.582,12.474,12.476,12.474C2680.177,7346.111,2685.763,7340.529,2685.763,7333.637"/>
	<path style="fill:#FFFFFF;" d="M1482.351,7426.291c0-6.703-5.441-12.142-12.148-12.142c-6.703,0-12.144,5.438-12.144,12.142
		c0,6.709,5.441,12.146,12.144,12.146C1476.911,7438.437,1482.351,7433,1482.351,7426.291"/>
	<path style="fill:#FFFFFF;" d="M810.584,7491.217c0-6.543-5.299-11.841-11.845-11.841c-6.543,0-11.836,5.297-11.836,11.841
		s5.293,11.843,11.836,11.843C805.284,7503.06,810.584,7497.761,810.584,7491.217"/>
	<path style="fill:#FFFFFF;" d="M2397.749,3595.242c0-6.99-5.655-12.647-12.631-12.647c-6.99,0-12.645,5.657-12.645,12.647
		c0,6.976,5.655,12.636,12.645,12.636C2392.094,3607.878,2397.749,3602.218,2397.749,3595.242"/>
	<path style="fill:#FFFFFF;" d="M1653.411,3773.594c0-6.89-5.587-12.481-12.476-12.481c-6.894,0-12.476,5.591-12.476,12.481
		c0,6.892,5.582,12.474,12.476,12.474C1647.824,3786.068,1653.411,3780.486,1653.411,3773.594"/>
	<path style="fill:#FFFFFF;" d="M2539.018,4712.705c0-6.89-5.586-12.481-12.476-12.481c-6.895,0-12.477,5.591-12.477,12.481
		c0,6.892,5.582,12.474,12.477,12.474C2533.432,4725.179,2539.018,4719.597,2539.018,4712.705"/>
	<path style="fill:#FFFFFF;" d="M2056.475,5484.162c0-6.703-5.44-12.141-12.148-12.141c-6.703,0-12.144,5.438-12.144,12.141
		c0,6.71,5.441,12.146,12.144,12.146C2051.035,5496.308,2056.475,5490.872,2056.475,5484.162"/>
	<path style="fill:#FFFFFF;" d="M2438.26,7293.852c0-6.89-5.587-12.481-12.476-12.481c-6.894,0-12.476,5.591-12.476,12.481
		c0,6.892,5.582,12.474,12.476,12.474C2432.674,7306.326,2438.26,7300.744,2438.26,7293.852"/>
	<path style="fill:#FFFFFF;" d="M68.447,5440.787c0-7.264-5.883-13.16-13.153-13.16c-7.263,0-13.146,5.896-13.146,13.16
		c0,7.268,5.883,13.15,13.146,13.15C62.564,5453.937,68.447,5448.055,68.447,5440.787"/>
	<path style="fill:#FFFFFF;" d="M2689.224,5080.231c0-6.99-5.655-12.647-12.631-12.647c-6.99,0-12.645,5.657-12.645,12.647
		c0,6.977,5.655,12.636,12.645,12.636C2683.569,5092.867,2689.224,5087.208,2689.224,5080.231"/>
	<path style="fill:#FFFFFF;" d="M2688.729,7148.146c0-6.703-5.436-12.141-12.148-12.141c-6.703,0-12.139,5.438-12.139,12.141
		c0,6.71,5.436,12.146,12.139,12.146C2683.293,7160.293,2688.729,7154.856,2688.729,7148.146"/>
	<path style="fill:#FFFFFF;" d="M1287.896,6814.536c0-6.703-5.441-12.142-12.148-12.142c-6.703,0-12.144,5.438-12.144,12.142
		c0,6.709,5.441,12.146,12.144,12.146C1282.455,6826.682,1287.896,6821.245,1287.896,6814.536"/>
	<path style="fill:#FFFFFF;" d="M1274.289,4032.386c0-6.703-5.441-12.141-12.148-12.141c-6.703,0-12.144,5.439-12.144,12.141
		c0,6.71,5.441,12.146,12.144,12.146C1268.849,4044.532,1274.289,4039.096,1274.289,4032.386"/>
	<path style="fill:#FFFFFF;" d="M2124.108,4102.771c0-6.703-5.436-12.141-12.148-12.141c-6.703,0-12.139,5.438-12.139,12.141
		c0,6.71,5.436,12.146,12.139,12.146C2118.672,4114.917,2124.108,4109.481,2124.108,4102.771"/>
	<path style="fill:#FFFFFF;" d="M46.299,958.329c0-7.263-5.883-13.16-13.153-13.16c-7.263,0-13.146,5.896-13.146,13.16
		c0,7.268,5.883,13.151,13.146,13.151C40.416,971.48,46.299,965.597,46.299,958.329"/>
	<path style="fill:#FFFFFF;" d="M2599.765,551.113c0-6.99-5.655-12.647-12.631-12.647c-6.99,0-12.645,5.657-12.645,12.647
		c0,6.976,5.655,12.636,12.645,12.636C2594.11,563.749,2599.765,558.089,2599.765,551.113"/>
	<path style="fill:#FFFFFF;" d="M813.174,180.537c0-5.864-4.753-10.615-10.617-10.615c-5.862,0-10.617,4.751-10.617,10.615
		c0,5.865,4.755,10.617,10.617,10.617C808.421,191.154,813.174,186.401,813.174,180.537"/>
	<path style="fill:#FFFFFF;" d="M2417.833,54.049c0-6.89-5.586-12.481-12.476-12.481c-6.894,0-12.476,5.591-12.476,12.481
		c0,6.892,5.582,12.474,12.476,12.474C2412.246,66.523,2417.833,60.941,2417.833,54.049"/>
	<path style="fill:#FFFFFF;" d="M2417.995,159.566c0-6.99-5.655-12.647-12.631-12.647c-6.99,0-12.645,5.657-12.645,12.647
		c0,6.976,5.655,12.636,12.645,12.636C2412.34,172.201,2417.995,166.542,2417.995,159.566"/>
	<path style="fill:#FFFFFF;" d="M1673.657,337.918c0-6.89-5.587-12.481-12.476-12.481c-6.894,0-12.476,5.591-12.476,12.481
		c0,6.892,5.582,12.474,12.476,12.474C1668.07,350.392,1673.657,344.81,1673.657,337.918"/>
	<path style="fill:#FFFFFF;" d="M2559.264,1277.028c0-6.89-5.586-12.481-12.476-12.481c-6.894,0-12.476,5.591-12.476,12.481
		c0,6.892,5.582,12.474,12.476,12.474C2553.678,1289.502,2559.264,1283.92,2559.264,1277.028"/>
	<path style="fill:#FFFFFF;" d="M1294.535,596.71c0-6.703-5.441-12.141-12.148-12.141c-6.703,0-12.144,5.439-12.144,12.141
		c0,6.71,5.441,12.146,12.144,12.146C1289.095,608.856,1294.535,603.42,1294.535,596.71"/>
	<path style="fill:#FFFFFF;" d="M2144.354,667.095c0-6.703-5.436-12.141-12.148-12.141c-6.703,0-12.139,5.438-12.139,12.141
		c0,6.71,5.436,12.146,12.139,12.146C2138.918,679.241,2144.354,673.805,2144.354,667.095"/>
	<path style="fill:#FFFFFF;" d="M231.693,3055.096c0-6.543-5.3-11.841-11.845-11.841c-6.543,0-11.836,5.297-11.836,11.841
		s5.292,11.843,11.836,11.843C226.394,3066.939,231.693,3061.639,231.693,3055.096"/>
	<path style="fill:#FFFFFF;" d="M1186.283,3327.972c-0.089-6.889-5.746-12.408-12.636-12.319c-6.894,0.088-12.403,5.75-12.315,12.64
		c0.087,6.891,5.741,12.401,12.633,12.312C1180.856,3340.517,1186.37,3334.864,1186.283,3327.972"/>
	<path style="fill:#FFFFFF;" d="M2359.368,1148.803c0-6.99-5.655-12.647-12.631-12.647c-6.99,0-12.645,5.657-12.645,12.647
		c0,6.977,5.655,12.637,12.645,12.637C2353.713,1161.44,2359.368,1155.78,2359.368,1148.803"/>
	<path style="fill:#FFFFFF;" d="M45.053,2276.785c0-7.263-5.883-13.16-13.153-13.16c-7.263,0-13.146,5.896-13.146,13.16
		c0,7.268,5.883,13.151,13.146,13.151C39.17,2289.936,45.053,2284.053,45.053,2276.785"/>
	<path style="fill:#FFFFFF;" d="M2150.229,1191.58c0-6.703-5.441-12.141-12.148-12.141c-6.703,0-12.144,5.438-12.144,12.141
		c0,6.71,5.441,12.146,12.144,12.146C2144.788,1203.726,2150.229,1198.29,2150.229,1191.58"/>
	<path style="fill:#FFFFFF;" d="M2778.318,1247.989c0-6.703-5.441-12.141-12.148-12.141c-6.703,0-12.144,5.439-12.144,12.141
		c0,6.71,5.441,12.146,12.144,12.146C2772.877,1260.135,2778.318,1254.699,2778.318,1247.989"/>
	<path style="fill:#FFFFFF;" d="M2598.519,1869.569c0-6.99-5.655-12.647-12.631-12.647c-6.99,0-12.645,5.657-12.645,12.647
		c0,6.976,5.655,12.636,12.645,12.636C2592.864,1882.205,2598.519,1876.545,2598.519,1869.569"/>
	<path style="fill:#FFFFFF;" d="M811.928,1498.993c0-5.864-4.753-10.615-10.617-10.615c-5.862,0-10.617,4.75-10.617,10.615
		c0,5.865,4.755,10.617,10.617,10.617C807.175,1509.61,811.928,1504.857,811.928,1498.993"/>
	<path style="fill:#FFFFFF;" d="M2416.587,1372.505c0-6.89-5.587-12.481-12.476-12.481c-6.894,0-12.476,5.591-12.476,12.481
		c0,6.892,5.582,12.474,12.476,12.474C2411,1384.979,2416.587,1379.397,2416.587,1372.505"/>
	<path style="fill:#FFFFFF;" d="M2416.749,1478.022c0-6.99-5.655-12.647-12.631-12.647c-6.99,0-12.645,5.657-12.645,12.647
		c0,6.976,5.655,12.636,12.645,12.636C2411.094,1490.657,2416.749,1484.998,2416.749,1478.022"/>
	<path style="fill:#FFFFFF;" d="M1672.411,1656.374c0-6.89-5.587-12.481-12.476-12.481c-6.894,0-12.476,5.591-12.476,12.481
		c0,6.892,5.582,12.474,12.476,12.474C1666.824,1668.848,1672.411,1663.266,1672.411,1656.374"/>
	<path style="fill:#FFFFFF;" d="M1293.289,1915.166c0-6.703-5.441-12.141-12.148-12.141c-6.703,0-12.144,5.438-12.144,12.141
		c0,6.71,5.441,12.146,12.144,12.146C1287.849,1927.312,1293.289,1921.876,1293.289,1915.166"/>
	<path style="fill:#FFFFFF;" d="M2143.108,1985.551c0-6.703-5.436-12.141-12.148-12.141c-6.703,0-12.139,5.438-12.139,12.141
		c0,6.71,5.436,12.146,12.139,12.146C2137.672,1997.697,2143.108,1992.261,2143.108,1985.551"/>
	<path style="fill:#FFFFFF;" d="M1205.283,1210.752c-0.089-6.889-5.746-12.408-12.636-12.319c-6.894,0.088-12.403,5.75-12.315,12.64
		c0.087,6.891,5.741,12.401,12.633,12.312C1199.856,1223.296,1205.37,1217.644,1205.283,1210.752"/>
	<path style="fill:#FFFFFF;" d="M1093.059,2647.797c0-6.703-5.436-12.142-12.148-12.142c-6.703,0-12.139,5.439-12.139,12.142
		c0,6.71,5.436,12.146,12.139,12.146C1087.623,2659.943,1093.059,2654.507,1093.059,2647.797"/>
	<path style="fill:#FFFFFF;" d="M2076.755,6366.81c0-6.891-5.586-12.482-12.476-12.482c-6.895,0-12.477,5.591-12.477,12.482
		c0,6.891,5.582,12.473,12.477,12.473C2071.168,6379.283,2076.755,6373.701,2076.755,6366.81"/>
	<path style="fill:#FFFFFF;" d="M2579.519,6503.667c0-6.99-5.655-12.647-12.631-12.647c-6.99,0-12.645,5.657-12.645,12.647
		c0,6.976,5.655,12.636,12.645,12.636C2573.864,6516.303,2579.519,6510.643,2579.519,6503.667"/>
	<path style="fill:#FFFFFF;" d="M2124.108,6619.649c0-6.703-5.436-12.141-12.148-12.141c-6.703,0-12.139,5.438-12.139,12.141
		c0,6.71,5.436,12.146,12.139,12.146C2118.672,6631.795,2124.108,6626.359,2124.108,6619.649"/>
	<path style="fill:#FFFFFF;" d="M883.036,6849.967c0-6.89-5.586-12.48-12.476-12.48c-6.894,0-12.476,5.591-12.476,12.48
		c0,6.892,5.582,12.474,12.476,12.474C877.45,6862.441,883.036,6856.859,883.036,6849.967"/>
	<path style="fill:#FFFFFF;" d="M1509.516,6054.668c-0.089-6.889-5.746-12.408-12.636-12.319c-6.894,0.088-12.403,5.75-12.314,12.64
		c0.087,6.891,5.741,12.401,12.633,12.312C1504.089,6067.213,1509.603,6061.561,1509.516,6054.668"/>
	<path style="fill:#FFFFFF;" d="M2615.788,5940.087c-0.089-6.888-5.746-12.408-12.636-12.319c-6.895,0.088-12.404,5.75-12.315,12.64
		c0.087,6.891,5.741,12.401,12.634,12.312C2610.361,5952.632,2615.874,5946.979,2615.788,5940.087"/>
</g>
<g id="Ebene_1">
</g>
</svg>
