<?xml version="1.0" encoding="iso-8859-1"?>
<!-- Generator: Adobe Illustrator 18.0.0, SVG Export Plug-In . SVG Version: 6.00 Build 0)  -->
<!DOCTYPE svg PUBLIC "-//W3C//DTD SVG 1.1//EN" "http://www.w3.org/Graphics/SVG/1.1/DTD/svg11.dtd">
<svg version="1.1" xmlns="http://www.w3.org/2000/svg" xmlns:xlink="http://www.w3.org/1999/xlink" x="0px" y="0px"
	 viewBox="0 0 2800 10000" style="enable-background:new 0 0 2800 10000;" xml:space="preserve">
<g id="snow_x5F_small2">
	<path style="fill:#FFFFFF;" d="M1685.738,7805.433c0-0.342-0.266-0.615-0.606-0.615c-0.332,0-0.606,0.273-0.606,0.615
		c0,0.333,0.273,0.606,0.606,0.606C1685.472,7806.039,1685.738,7805.766,1685.738,7805.433"/>
	<path style="fill:#FFFFFF;" d="M872.85,8202.822c0-3.192-2.593-5.778-5.785-5.778c-3.194,0-5.78,2.586-5.78,5.778
		c0,3.191,2.586,5.777,5.78,5.777C870.257,8208.6,872.85,8206.014,872.85,8202.822"/>
	<path style="fill:#FFFFFF;" d="M1225.565,9440.016c0-2.598-2.103-4.701-4.7-4.701c-2.602,0-4.703,2.104-4.703,4.701
		c0,2.602,2.101,4.702,4.703,4.702C1223.462,9444.718,1225.565,9442.617,1225.565,9440.016"/>
	<path style="fill:#FFFFFF;" d="M2146.826,7694.099c0-1.089-0.884-1.973-1.973-1.973c-1.094,0-1.973,0.884-1.973,1.973
		c0,1.084,0.879,1.964,1.973,1.964C2145.942,7696.062,2146.826,7695.183,2146.826,7694.099"/>
	<path style="fill:#FFFFFF;" d="M865.786,9659.474c0-3.105-2.516-5.628-5.628-5.628c-3.106,0-5.628,2.522-5.628,5.628
		c0,3.107,2.522,5.628,5.628,5.628C863.271,9665.102,865.786,9662.581,865.786,9659.474"/>
	<path style="fill:#FFFFFF;" d="M791.71,8779.498c0-1.49-1.214-2.707-2.707-2.707c-1.495,0-2.707,1.217-2.707,2.707
		c0,1.499,1.212,2.707,2.707,2.707C790.495,8782.205,791.71,8780.997,791.71,8779.498"/>
	<path style="fill:#FFFFFF;" d="M1005.743,8756.391c0-1.08-0.873-1.957-1.953-1.957c-1.087,0-1.962,0.877-1.962,1.957
		c0,1.085,0.875,1.959,1.962,1.959C1004.871,8758.35,1005.743,8757.476,1005.743,8756.391"/>
	<path style="fill:#FFFFFF;" d="M1363.005,5814.827c0-0.342-0.264-0.615-0.606-0.615c-0.333,0-0.606,0.273-0.606,0.615
		c0,0.333,0.273,0.606,0.606,0.606C1362.741,5815.433,1363.005,5815.16,1363.005,5814.827"/>
	<path style="fill:#FFFFFF;" d="M587.36,5852.058c0-3.192-2.593-5.778-5.785-5.778c-3.194,0-5.78,2.586-5.78,5.778
		c0,3.191,2.586,5.777,5.78,5.777C584.767,5857.835,587.36,5855.25,587.36,5852.058"/>
	<path style="fill:#FFFFFF;" d="M786.121,7751.914c0-1.49-1.214-2.707-2.707-2.707c-1.495,0-2.707,1.217-2.707,2.707
		c0,1.499,1.212,2.707,2.707,2.707C784.907,7754.621,786.121,7753.413,786.121,7751.914"/>
	<path style="fill:#FFFFFF;" d="M1743.119,3254.037c0-0.342-0.264-0.615-0.606-0.615c-0.333,0-0.606,0.273-0.606,0.615
		c0,0.333,0.273,0.606,0.606,0.606C1742.854,3254.643,1743.119,3254.369,1743.119,3254.037"/>
	<path style="fill:#FFFFFF;" d="M2465.96,5400.172c0-1.089-0.884-1.973-1.973-1.973c-1.094,0-1.973,0.884-1.973,1.973
		c0,1.084,0.879,1.964,1.973,1.964C2465.077,5402.136,2465.96,5401.257,2465.96,5400.172"/>
	<path style="fill:#FFFFFF;" d="M1163.234,5028.296c0-1.44-1.171-2.616-2.616-2.616c-1.444,0-2.616,1.176-2.616,2.616
		c0,1.444,1.171,2.62,2.616,2.62C1162.063,5030.917,1163.234,5029.741,1163.234,5028.296"/>
	<path style="fill:#FFFFFF;" d="M842.475,4859.493c0-3.192-2.593-5.778-5.785-5.778c-3.194,0-5.78,2.586-5.78,5.778
		c0,3.192,2.586,5.778,5.78,5.778C839.882,4865.271,842.475,4862.685,842.475,4859.493"/>
	<path style="fill:#FFFFFF;" d="M2183.202,4242.982c0-1.089-0.884-1.973-1.973-1.973c-1.094,0-1.973,0.884-1.973,1.973
		c0,1.084,0.879,1.964,1.973,1.964C2182.318,4244.946,2183.202,4244.066,2183.202,4242.982"/>
	<path style="fill:#FFFFFF;" d="M2719.483,5576.089c0-1.089-0.884-1.973-1.973-1.973c-1.094,0-1.973,0.884-1.973,1.973
		c0,1.084,0.879,1.964,1.973,1.964C2718.599,5578.053,2719.483,5577.174,2719.483,5576.089"/>
	<path style="fill:#FFFFFF;" d="M1126.736,4788.335c0-1.891-1.536-3.422-3.429-3.422c-1.893,0-3.424,1.531-3.424,3.422
		c0,1.893,1.531,3.431,3.424,3.431C1125.2,4791.766,1126.736,4790.228,1126.736,4788.335"/>
	<path style="fill:#FFFFFF;" d="M2636.808,4845.367c0-1.44-1.171-2.616-2.615-2.616c-1.445,0-2.615,1.176-2.615,2.616
		c0,1.444,1.171,2.62,2.615,2.62C2635.637,4847.987,2636.808,4846.811,2636.808,4845.367"/>
	<path style="fill:#FFFFFF;" d="M1634.787,4813.82c0-1.608-1.305-2.909-2.907-2.909c-1.606,0-2.912,1.301-2.912,2.909
		c0,1.604,1.306,2.905,2.912,2.905C1633.482,4816.725,1634.787,4815.424,1634.787,4813.82"/>
	<path style="fill:#FFFFFF;" d="M1645.044,5179.834c0-2.276-1.836-4.115-4.11-4.115c-2.269,0-4.11,1.839-4.11,4.115
		c0,2.267,1.841,4.105,4.11,4.105C1643.208,5183.94,1645.044,5182.102,1645.044,5179.834"/>
	<path style="fill:#FFFFFF;" d="M982.694,5577.189c0-2.843-2.301-5.144-5.144-5.144c-2.841,0-5.143,2.301-5.143,5.144
		c0,2.844,2.301,5.145,5.143,5.145C980.393,5582.334,982.694,5580.033,982.694,5577.189"/>
	<path style="fill:#FFFFFF;" d="M165.869,5544.705c0-1.608-1.306-2.909-2.907-2.909c-1.606,0-2.912,1.301-2.912,2.909
		c0,1.604,1.305,2.905,2.912,2.905C164.564,5547.609,165.869,5546.309,165.869,5544.705"/>
	<path style="fill:#FFFFFF;" d="M856.329,4960.15c0-2.276-1.837-4.115-4.11-4.115c-2.269,0-4.11,1.838-4.11,4.115
		c0,2.267,1.841,4.105,4.11,4.105C854.492,4964.256,856.329,4962.417,856.329,4960.15"/>
	<path style="fill:#FFFFFF;" d="M2189.921,5025.678c0-1.439-1.171-2.615-2.615-2.615c-1.445,0-2.616,1.176-2.616,2.615
		c0,1.445,1.171,2.62,2.616,2.62C2188.75,5028.298,2189.921,5027.123,2189.921,5025.678"/>
	<path style="fill:#FFFFFF;" d="M2414.005,5061.415c0-1.44-1.171-2.616-2.615-2.616c-1.444,0-2.616,1.176-2.616,2.616
		c0,1.444,1.171,2.62,2.616,2.62C2412.834,5064.035,2414.005,5062.859,2414.005,5061.415"/>
	<path style="fill:#FFFFFF;" d="M1130.251,7112.807c0-1.44-1.171-2.616-2.616-2.616c-1.444,0-2.615,1.176-2.615,2.616
		c0,1.444,1.171,2.62,2.615,2.62C1129.08,7115.427,1130.251,7114.251,1130.251,7112.807"/>
	<path style="fill:#FFFFFF;" d="M2050.255,7007.093c0-1.089-0.884-1.973-1.973-1.973c-1.094,0-1.973,0.884-1.973,1.973
		c0,1.085,0.88,1.964,1.973,1.964C2049.371,7009.057,2050.255,7008.178,2050.255,7007.093"/>
	<path style="fill:#FFFFFF;" d="M1234.778,6954.101c0-1.44-1.171-2.616-2.615-2.616c-1.445,0-2.615,1.176-2.615,2.616
		c0,1.444,1.171,2.62,2.615,2.62C1233.607,6956.721,1234.778,6955.545,1234.778,6954.101"/>
	<path style="fill:#FFFFFF;" d="M1970.658,7200.859c0-2.843-2.301-5.145-5.144-5.145c-2.844,0-5.145,2.301-5.145,5.145
		s2.301,5.145,5.145,5.145C1968.357,7206.003,1970.658,7203.702,1970.658,7200.859"/>
	<path style="fill:#FFFFFF;" d="M2306.548,6992.603c0-1.704-1.385-3.085-3.09-3.085c-1.708,0-3.085,1.381-3.085,3.085
		s1.376,3.085,3.085,3.085C2305.163,6995.688,2306.548,6994.307,2306.548,6992.603"/>
	<path style="fill:#FFFFFF;" d="M2505.203,7164.569c0-1.089-0.884-1.973-1.973-1.973c-1.094,0-1.973,0.884-1.973,1.973
		c0,1.084,0.879,1.964,1.973,1.964C2504.319,7166.533,2505.203,7165.654,2505.203,7164.569"/>
	<path style="fill:#FFFFFF;" d="M2222.741,6883.303c0-1.44-1.171-2.616-2.615-2.616c-1.445,0-2.616,1.176-2.616,2.616
		c0,1.444,1.171,2.62,2.616,2.62C2221.57,6885.923,2222.741,6884.748,2222.741,6883.303"/>
	<path style="fill:#FFFFFF;" d="M1882.924,7083.316c0-1.44-1.171-2.616-2.616-2.616c-1.445,0-2.616,1.176-2.616,2.616
		c0,1.445,1.171,2.62,2.616,2.62C1881.752,7085.936,1882.924,7084.761,1882.924,7083.316"/>
	<path style="fill:#FFFFFF;" d="M539.184,4585.47c0-1.609-1.306-2.91-2.907-2.91c-1.606,0-2.912,1.301-2.912,2.91
		c0,1.604,1.305,2.905,2.912,2.905C537.879,4588.375,539.184,4587.074,539.184,4585.47"/>
	<path style="fill:#FFFFFF;" d="M1053.6,3941.967c0-3.192-2.593-5.778-5.785-5.778c-3.194,0-5.78,2.586-5.78,5.778
		c0,3.192,2.586,5.778,5.78,5.778C1051.008,3947.745,1053.6,3945.159,1053.6,3941.967"/>
	<path style="fill:#FFFFFF;" d="M1571.604,4514.955c0-1.44-1.171-2.616-2.616-2.616c-1.444,0-2.616,1.176-2.616,2.616
		c0,1.444,1.171,2.62,2.616,2.62C1570.433,4517.574,1571.604,4516.399,1571.604,4514.955"/>
	<path style="fill:#FFFFFF;" d="M1167.34,4397.2c0-1.705-1.387-3.085-3.092-3.085c-1.707,0-3.085,1.38-3.085,3.085
		c0,1.704,1.378,3.085,3.085,3.085C1165.952,4400.285,1167.34,4398.904,1167.34,4397.2"/>
	<path style="fill:#FFFFFF;" d="M2633.873,3635.12c0-1.089-0.884-1.973-1.973-1.973c-1.094,0-1.973,0.884-1.973,1.973
		c0,1.085,0.879,1.964,1.973,1.964C2632.989,3637.084,2633.873,3636.205,2633.873,3635.12"/>
	<path style="fill:#FFFFFF;" d="M7.13,7271.298c0-1.608-1.305-2.909-2.907-2.909c-1.606,0-2.912,1.301-2.912,2.909
		c0,1.604,1.305,2.905,2.912,2.905C5.825,7274.204,7.13,7272.902,7.13,7271.298"/>
	<path style="fill:#FFFFFF;" d="M2608.157,3969.62c0-1.089-0.884-1.973-1.973-1.973c-1.094,0-1.973,0.884-1.973,1.973
		c0,1.084,0.879,1.964,1.973,1.964C2607.273,3971.583,2608.157,3970.704,2608.157,3969.62"/>
	<path style="fill:#FFFFFF;" d="M1333.925,3680.052c0-1.089-0.884-1.973-1.973-1.973c-1.094,0-1.973,0.884-1.973,1.973
		c0,1.084,0.88,1.964,1.973,1.964C1333.041,3682.017,1333.925,3681.137,1333.925,3680.052"/>
	<path style="fill:#FFFFFF;" d="M1252.928,3414.962c0-0.392-0.323-0.711-0.715-0.711c-0.396,0-0.716,0.319-0.716,0.711
		c0,0.396,0.319,0.713,0.716,0.713C1252.605,3415.675,1252.928,3415.358,1252.928,3414.962"/>
	<path style="fill:#FFFFFF;" d="M1087.979,3537.95c0-1.608-1.306-2.91-2.907-2.91c-1.606,0-2.912,1.301-2.912,2.91
		c0,1.604,1.306,2.905,2.912,2.905C1086.673,3540.855,1087.979,3539.554,1087.979,3537.95"/>
	<path style="fill:#FFFFFF;" d="M1766.189,3576.21c0-2.16-1.75-3.914-3.91-3.914c-2.16,0-3.914,1.754-3.914,3.914
		c0,2.151,1.755,3.91,3.914,3.91C1764.44,3580.12,1766.189,3578.361,1766.189,3576.21"/>
	<path style="fill:#FFFFFF;" d="M2335.296,2934.581c0-1.089-0.884-1.973-1.973-1.973c-1.094,0-1.973,0.884-1.973,1.973
		c0,1.084,0.88,1.964,1.973,1.964C2334.413,2936.545,2335.296,2935.666,2335.296,2934.581"/>
	<path style="fill:#FFFFFF;" d="M2588.819,3110.498c0-1.089-0.884-1.973-1.973-1.973c-1.094,0-1.973,0.884-1.973,1.973
		c0,1.085,0.88,1.964,1.973,1.964C2587.935,3112.462,2588.819,3111.583,2588.819,3110.498"/>
	<path style="fill:#FFFFFF;" d="M1594.816,3462.532c0-2.16-1.75-3.914-3.91-3.914c-2.16,0-3.914,1.754-3.914,3.914
		c0,2.151,1.754,3.91,3.914,3.91C1593.066,3466.441,1594.816,3464.683,1594.816,3462.532"/>
	<path style="fill:#FFFFFF;" d="M816.633,3261.69c0-0.342-0.264-0.615-0.606-0.615c-0.332,0-0.606,0.273-0.606,0.615
		c0,0.333,0.273,0.606,0.606,0.606C816.368,3262.296,816.633,3262.022,816.633,3261.69"/>
	<path style="fill:#FFFFFF;" d="M350.145,2675.575c0-1.44-1.171-2.616-2.616-2.616c-1.445,0-2.616,1.176-2.616,2.616
		c0,1.444,1.171,2.62,2.616,2.62C348.974,2678.195,350.145,2677.019,350.145,2675.575"/>
	<path style="fill:#FFFFFF;" d="M995.261,2869.09c0-1.44-1.171-2.615-2.616-2.615c-1.445,0-2.616,1.176-2.616,2.615
		c0,1.444,1.171,2.62,2.616,2.62C994.09,2871.71,995.261,2870.534,995.261,2869.09"/>
	<path style="fill:#FFFFFF;" d="M786.819,3278.163c0-1.704-1.387-3.085-3.092-3.085c-1.706,0-3.085,1.381-3.085,3.085
		c0,1.704,1.379,3.085,3.085,3.085C785.432,3281.247,786.819,3279.866,786.819,3278.163"/>
	<path style="fill:#FFFFFF;" d="M2110.349,3055.102c0-0.342-0.264-0.615-0.606-0.615c-0.333,0-0.606,0.273-0.606,0.615
		c0,0.333,0.273,0.606,0.606,0.606C2110.085,3055.708,2110.349,3055.435,2110.349,3055.102"/>
	<path style="fill:#FFFFFF;" d="M2571.439,2943.768c0-1.089-0.884-1.973-1.973-1.973c-1.094,0-1.973,0.884-1.973,1.973
		c0,1.084,0.879,1.964,1.973,1.964C2570.555,2945.731,2571.439,2944.852,2571.439,2943.768"/>
	<path style="fill:#FFFFFF;" d="M613.348,2984.282c0-1.089-0.884-1.973-1.973-1.973c-1.094,0-1.973,0.884-1.973,1.973
		c0,1.084,0.879,1.964,1.973,1.964C612.464,2986.246,613.348,2985.367,613.348,2984.282"/>
	<path style="fill:#FFFFFF;" d="M550.589,3016.432c0-0.342-0.264-0.615-0.606-0.615c-0.332,0-0.606,0.273-0.606,0.615
		c0,0.333,0.273,0.606,0.606,0.606C550.324,3017.038,550.589,3016.765,550.589,3016.432"/>
	<path style="fill:#FFFFFF;" d="M571.176,3082.158c0-0.392-0.323-0.711-0.715-0.711c-0.396,0-0.716,0.319-0.716,0.711
		c0,0.398,0.319,0.713,0.716,0.713C570.852,3082.872,571.176,3082.556,571.176,3082.158"/>
	<path style="fill:#FFFFFF;" d="M2421.45,3550.65c0-1.089-0.884-1.973-1.973-1.973c-1.094,0-1.973,0.884-1.973,1.973
		c0,1.084,0.88,1.964,1.973,1.964C2420.566,3552.614,2421.45,3551.734,2421.45,3550.65"/>
	<path style="fill:#FFFFFF;" d="M2491.724,3632.511c0-0.392-0.323-0.711-0.715-0.711c-0.396,0-0.715,0.319-0.715,0.711
		c0,0.396,0.319,0.713,0.715,0.713C2491.401,3633.224,2491.724,3632.908,2491.724,3632.511"/>
	<path style="fill:#FFFFFF;" d="M109.211,3573.663c0-2.276-1.837-4.115-4.11-4.115c-2.269,0-4.11,1.838-4.11,4.115
		c0,2.267,1.841,4.106,4.11,4.106C107.374,3577.769,109.211,3575.93,109.211,3573.663"/>
	<path style="fill:#FFFFFF;" d="M311.278,3559.081c0-1.44-1.171-2.615-2.616-2.615c-1.444,0-2.616,1.176-2.616,2.615
		c0,1.445,1.171,2.622,2.616,2.622C310.106,3561.702,311.278,3560.525,311.278,3559.081"/>
	<path style="fill:#FFFFFF;" d="M991.513,6234.696c0-2.276-1.836-4.115-4.11-4.115c-2.269,0-4.11,1.838-4.11,4.115
		c0,2.267,1.841,4.105,4.11,4.105C989.676,6238.802,991.513,6236.963,991.513,6234.696"/>
	<path style="fill:#FFFFFF;" d="M627.933,6011.11c0-3.192-2.593-5.778-5.785-5.778c-3.194,0-5.78,2.586-5.78,5.778
		s2.586,5.778,5.78,5.778C625.34,6016.888,627.933,6014.302,627.933,6011.11"/>
	<path style="fill:#FFFFFF;" d="M1053.6,6458.845c0-3.192-2.593-5.778-5.785-5.778c-3.194,0-5.78,2.586-5.78,5.778
		s2.586,5.778,5.78,5.778C1051.008,6464.623,1053.6,6462.037,1053.6,6458.845"/>
	<path style="fill:#FFFFFF;" d="M813.935,6383.586c0-2.276-1.837-4.115-4.11-4.115c-2.269,0-4.11,1.839-4.11,4.115
		c0,2.267,1.841,4.105,4.11,4.105C812.099,6387.691,813.935,6385.853,813.935,6383.586"/>
	<path style="fill:#FFFFFF;" d="M2608.157,6486.497c0-1.089-0.884-1.973-1.973-1.973c-1.094,0-1.973,0.884-1.973,1.973
		c0,1.084,0.879,1.964,1.973,1.964C2607.273,6488.461,2608.157,6487.582,2608.157,6486.497"/>
	<path style="fill:#FFFFFF;" d="M1252.928,5931.839c0-0.392-0.323-0.711-0.715-0.711c-0.396,0-0.716,0.319-0.716,0.711
		c0,0.396,0.319,0.713,0.716,0.713C1252.605,5932.553,1252.928,5932.236,1252.928,5931.839"/>
	<path style="fill:#FFFFFF;" d="M770.344,6014.931c0-1.891-1.536-3.422-3.429-3.422c-1.893,0-3.424,1.531-3.424,3.422
		c0,1.894,1.531,3.431,3.424,3.431C768.809,6018.362,770.344,6016.825,770.344,6014.931"/>
	<path style="fill:#FFFFFF;" d="M610.149,6321.734c0-2.276-1.836-4.113-4.11-4.113c-2.269,0-4.11,1.837-4.11,4.113
		c0,2.267,1.841,4.106,4.11,4.106C608.313,6325.84,610.149,6324.001,610.149,6321.734"/>
	<path style="fill:#FFFFFF;" d="M1763.706,5836.641c0-0.392-0.323-0.711-0.715-0.711c-0.396,0-0.715,0.319-0.715,0.711
		c0,0.396,0.319,0.713,0.715,0.713C1763.383,5837.354,1763.706,5837.037,1763.706,5836.641"/>
	<path style="fill:#FFFFFF;" d="M142.54,6315.225c0-1.705-1.387-3.085-3.092-3.085c-1.706,0-3.085,1.381-3.085,3.085
		c0,1.704,1.379,3.085,3.085,3.085C141.152,6318.31,142.54,6316.929,142.54,6315.225"/>
	<path style="fill:#FFFFFF;" d="M1594.816,5979.409c0-2.16-1.75-3.914-3.91-3.914c-2.16,0-3.914,1.754-3.914,3.914
		c0,2.151,1.754,3.91,3.914,3.91C1593.066,5983.319,1594.816,5981.56,1594.816,5979.409"/>
	<path style="fill:#FFFFFF;" d="M1965.986,5760.694c0-1.609-1.306-2.91-2.907-2.91c-1.606,0-2.912,1.301-2.912,2.91
		c0,1.604,1.305,2.905,2.912,2.905C1964.68,5763.599,1965.986,5762.298,1965.986,5760.694"/>
	<path style="fill:#FFFFFF;" d="M2023.12,6146.711c0-1.089-0.884-1.973-1.973-1.973c-1.094,0-1.973,0.884-1.973,1.973
		c0,1.084,0.879,1.964,1.973,1.964C2022.236,6148.676,2023.12,6147.796,2023.12,6146.711"/>
	<path style="fill:#FFFFFF;" d="M2440.803,5923.569c0-1.089-0.884-1.973-1.973-1.973c-1.094,0-1.973,0.884-1.973,1.973
		c0,1.084,0.879,1.964,1.973,1.964C2439.919,5925.533,2440.803,5924.653,2440.803,5923.569"/>
	<path style="fill:#FFFFFF;" d="M1874.961,6146.703c0-1.891-1.536-3.422-3.429-3.422c-1.893,0-3.424,1.531-3.424,3.422
		c0,1.893,1.531,3.431,3.424,3.431C1873.425,6150.134,1874.961,6148.596,1874.961,6146.703"/>
	<path style="fill:#FFFFFF;" d="M143.057,6359.763c0-1.439-1.171-2.615-2.616-2.615c-1.445,0-2.616,1.176-2.616,2.615
		c0,1.445,1.171,2.62,2.616,2.62C141.886,6362.383,143.057,6361.208,143.057,6359.763"/>
	<path style="fill:#FFFFFF;" d="M52.115,6263.571c0-2.276-1.836-4.115-4.11-4.115c-2.269,0-4.11,1.838-4.11,4.115
		c0,2.267,1.841,4.105,4.11,4.105C50.279,6267.677,52.115,6265.838,52.115,6263.571"/>
	<path style="fill:#FFFFFF;" d="M491.483,2958.05c0-0.392-0.324-0.711-0.715-0.711c-0.396,0-0.716,0.319-0.716,0.711
		c0,0.396,0.319,0.713,0.716,0.713C491.16,2958.762,491.483,2958.446,491.483,2958.05"/>
	<path style="fill:#FFFFFF;" d="M326.534,3081.038c0-1.609-1.306-2.91-2.907-2.91c-1.606,0-2.912,1.301-2.912,2.91
		c0,1.604,1.306,2.905,2.912,2.905C325.228,3083.942,326.534,3082.642,326.534,3081.038"/>
	<path style="fill:#FFFFFF;" d="M504.808,2343.206c0-2.276-1.836-4.115-4.11-4.115c-2.269,0-4.11,1.839-4.11,4.115
		c0,2.267,1.841,4.106,4.11,4.106C502.972,2347.312,504.808,2345.473,504.808,2343.206"/>
	<path style="fill:#FFFFFF;" d="M55.188,2804.777c0-0.342-0.264-0.615-0.606-0.615c-0.332,0-0.606,0.273-0.606,0.615
		c0,0.333,0.273,0.606,0.606,0.606C54.923,2805.383,55.188,2805.11,55.188,2804.777"/>
	<path style="fill:#FFFFFF;" d="M233.816,2412.177c0-1.44-1.171-2.615-2.615-2.615c-1.445,0-2.616,1.176-2.616,2.615
		c0,1.445,1.171,2.62,2.616,2.62C232.645,2414.797,233.816,2413.622,233.816,2412.177"/>
	<path style="fill:#FFFFFF;" d="M967.884,5793.007c0-0.392-0.324-0.711-0.716-0.711c-0.396,0-0.715,0.319-0.715,0.711
		c0,0.396,0.319,0.713,0.715,0.713C967.56,5793.72,967.884,5793.404,967.884,5793.007"/>
	<path style="fill:#FFFFFF;" d="M727.645,6698.404c0-0.342-0.264-0.615-0.606-0.615c-0.332,0-0.606,0.273-0.606,0.615
		c0,0.333,0.273,0.606,0.606,0.606C727.381,6699.01,727.645,6698.737,727.645,6698.404"/>
	<path style="fill:#FFFFFF;" d="M1706.323,7871.159c0-0.392-0.324-0.711-0.713-0.711c-0.399,0-0.715,0.319-0.715,0.711
		c0,0.396,0.317,0.713,0.715,0.713C1706,7871.872,1706.323,7871.555,1706.323,7871.159"/>
	<path style="fill:#FFFFFF;" d="M848.59,8010.494c0-1.891-1.536-3.422-3.429-3.422c-1.893,0-3.424,1.531-3.424,3.422
		c0,1.894,1.531,3.431,3.424,3.431C847.055,8013.925,848.59,8012.388,848.59,8010.494"/>
	<path style="fill:#FFFFFF;" d="M2546.829,9175.258c0-2.275-1.843-4.121-4.122-4.121c-2.271,0-4.124,1.846-4.124,4.121
		c0,2.276,1.852,4.124,4.124,4.124C2544.985,9179.382,2546.829,9177.534,2546.829,9175.258"/>
	<path style="fill:#FFFFFF;" d="M2339.259,8783.412c0-2.16-1.748-3.914-3.907-3.914c-2.162,0-3.917,1.754-3.917,3.914
		c0,2.15,1.754,3.909,3.917,3.909C2337.511,8787.321,2339.259,8785.562,2339.259,8783.412"/>
	<path style="fill:#FFFFFF;" d="M963.061,8668.747c0-1.704-1.387-3.085-3.092-3.085c-1.706,0-3.085,1.381-3.085,3.085
		s1.379,3.085,3.085,3.085C961.673,8671.832,963.061,8670.451,963.061,8668.747"/>
	<path style="fill:#FFFFFF;" d="M957.481,9060.946c0-2.577-2.092-4.662-4.664-4.662c-2.572,0-4.659,2.085-4.659,4.662
		c0,2.576,2.087,4.664,4.659,4.664C955.389,9065.61,957.481,9063.522,957.481,9060.946"/>
	<path style="fill:#FFFFFF;" d="M581.578,5632.25c0-1.608-1.306-2.909-2.907-2.909c-1.606,0-2.912,1.301-2.912,2.909
		c0,1.604,1.305,2.905,2.912,2.905C580.272,5635.156,581.578,5633.854,581.578,5632.25"/>
	<path style="fill:#FFFFFF;" d="M1799.554,8240.57c0-2.16-1.75-3.915-3.91-3.915s-3.914,1.755-3.914,3.915
		c0,2.15,1.754,3.909,3.914,3.909S1799.554,8242.721,1799.554,8240.57"/>
	<path style="fill:#FFFFFF;" d="M1824.096,5703.493c0-1.089-0.884-1.973-1.973-1.973c-1.094,0-1.973,0.884-1.973,1.973
		c0,1.084,0.88,1.964,1.973,1.964C1823.212,5705.457,1824.096,5704.577,1824.096,5703.493"/>
	<path style="fill:#FFFFFF;" d="M179.098,5723.667c0-2.276-1.836-4.114-4.11-4.114c-2.269,0-4.11,1.838-4.11,4.114
		c0,2.267,1.841,4.106,4.11,4.106C177.262,5727.773,179.098,5725.935,179.098,5723.667"/>
	<path style="fill:#FFFFFF;" d="M301.188,7770.246c0-2.844-2.301-5.145-5.145-5.145c-2.841,0-5.142,2.301-5.142,5.145
		c0,2.843,2.301,5.145,5.142,5.145C298.887,7775.391,301.188,7773.089,301.188,7770.246"/>
	<path style="fill:#FFFFFF;" d="M808.417,7664.27c0-1.704-1.387-3.084-3.092-3.084c-1.706,0-3.085,1.38-3.085,3.084
		s1.378,3.085,3.085,3.085C807.029,7667.355,808.417,7665.974,808.417,7664.27"/>
	<path style="fill:#FFFFFF;" d="M991.513,3717.819c0-2.276-1.836-4.115-4.11-4.115c-2.269,0-4.11,1.839-4.11,4.115
		c0,2.267,1.841,4.106,4.11,4.106C989.676,3721.924,991.513,3720.086,991.513,3717.819"/>
	<path style="fill:#FFFFFF;" d="M333.252,4022.371c0-2.844-2.301-5.145-5.144-5.145c-2.841,0-5.142,2.301-5.142,5.145
		c0,2.843,2.301,5.145,5.142,5.145C330.951,4027.515,333.252,4025.214,333.252,4022.371"/>
	<path style="fill:#FFFFFF;" d="M1080.231,4857.401c0-1.608-1.306-2.91-2.907-2.91c-1.606,0-2.912,1.301-2.912,2.91
		c0,1.604,1.306,2.905,2.912,2.905C1078.926,4860.306,1080.231,4859.005,1080.231,4857.401"/>
	<path style="fill:#FFFFFF;" d="M2084.121,4860.743c0-2.16-1.75-3.914-3.91-3.914s-3.915,1.754-3.915,3.914
		c0,2.151,1.755,3.91,3.915,3.91S2084.121,4862.894,2084.121,4860.743"/>
	<path style="fill:#FFFFFF;" d="M1404.133,4875.885c0-3.192-2.593-5.778-5.782-5.778c-3.194,0-5.782,2.586-5.782,5.778
		s2.588,5.778,5.782,5.778C1401.54,4881.663,1404.133,4879.077,1404.133,4875.885"/>
	<path style="fill:#FFFFFF;" d="M1426.042,5132.212c0-1.44-1.171-2.615-2.616-2.615c-1.444,0-2.616,1.175-2.616,2.615
		c0,1.445,1.171,2.621,2.616,2.621C1424.871,5134.833,1426.042,5133.657,1426.042,5132.212"/>
	<path style="fill:#FFFFFF;" d="M1318.586,5368.934c0-1.705-1.387-3.085-3.092-3.085c-1.706,0-3.085,1.38-3.085,3.085
		c0,1.704,1.379,3.084,3.085,3.084C1317.199,5372.019,1318.586,5370.638,1318.586,5368.934"/>
	<path style="fill:#FFFFFF;" d="M296.722,5120.069c0-1.44-1.171-2.616-2.616-2.616c-1.444,0-2.616,1.176-2.616,2.616
		c0,1.444,1.171,2.62,2.616,2.62C295.551,5122.688,296.722,5121.513,296.722,5120.069"/>
	<path style="fill:#FFFFFF;" d="M1234.778,5259.634c0-1.439-1.171-2.615-2.615-2.615c-1.445,0-2.615,1.176-2.615,2.615
		c0,1.445,1.171,2.621,2.615,2.621C1233.607,5262.254,1234.778,5261.079,1234.778,5259.634"/>
	<path style="fill:#FFFFFF;" d="M2118.214,5347.542c0-1.44-1.171-2.616-2.616-2.616c-1.444,0-2.615,1.176-2.615,2.616
		c0,1.444,1.171,2.62,2.615,2.62C2117.043,5350.163,2118.214,5348.987,2118.214,5347.542"/>
	<path style="fill:#FFFFFF;" d="M2083.957,4964.611c0-3.192-2.593-5.778-5.785-5.778c-3.194,0-5.78,2.586-5.78,5.778
		s2.586,5.778,5.78,5.778C2081.364,4970.389,2083.957,4967.803,2083.957,4964.611"/>
	<path style="fill:#FFFFFF;" d="M2222.741,5188.836c0-1.44-1.171-2.616-2.615-2.616c-1.445,0-2.616,1.176-2.616,2.616
		c0,1.444,1.171,2.62,2.616,2.62C2221.57,5191.457,2222.741,5190.281,2222.741,5188.836"/>
	<path style="fill:#FFFFFF;" d="M2465.96,7094.639c0-1.089-0.884-1.973-1.973-1.973c-1.094,0-1.973,0.884-1.973,1.973
		c0,1.085,0.879,1.964,1.973,1.964C2465.077,7096.604,2465.96,7095.724,2465.96,7094.639"/>
	<path style="fill:#FFFFFF;" d="M1426.042,6826.679c0-1.44-1.171-2.616-2.616-2.616c-1.444,0-2.616,1.176-2.616,2.616
		c0,1.444,1.171,2.62,2.616,2.62C1424.871,6829.299,1426.042,6828.124,1426.042,6826.679"/>
	<path style="fill:#FFFFFF;" d="M2303.773,7183.01c0-1.089-0.884-1.973-1.973-1.973c-1.094,0-1.973,0.884-1.973,1.973
		c0,1.084,0.879,1.964,1.973,1.964C2302.889,7184.974,2303.773,7184.095,2303.773,7183.01"/>
	<path style="fill:#FFFFFF;" d="M794.518,6844.688c0-1.705-1.387-3.085-3.092-3.085c-1.706,0-3.085,1.38-3.085,3.085
		c0,1.704,1.379,3.084,3.085,3.084C793.13,6847.772,794.518,6846.392,794.518,6844.688"/>
	<path style="fill:#FFFFFF;" d="M2189.921,6720.145c0-1.439-1.171-2.615-2.615-2.615c-1.445,0-2.616,1.176-2.616,2.615
		c0,1.445,1.171,2.621,2.616,2.621C2188.75,6722.766,2189.921,6721.59,2189.921,6720.145"/>
	<path style="fill:#FFFFFF;" d="M2638.451,6970.849c0-1.44-1.171-2.615-2.615-2.615c-1.445,0-2.616,1.175-2.616,2.615
		c0,1.445,1.171,2.62,2.616,2.62C2637.28,6973.469,2638.451,6972.294,2638.451,6970.849"/>
	<path style="fill:#FFFFFF;" d="M2414.005,6755.881c0-1.44-1.171-2.616-2.615-2.616c-1.444,0-2.616,1.176-2.616,2.616
		c0,1.445,1.171,2.62,2.616,2.62C2412.834,6758.501,2414.005,6757.326,2414.005,6755.881"/>
	<path style="fill:#FFFFFF;" d="M932.344,4493.267c0-1.44-1.171-2.616-2.616-2.616c-1.444,0-2.616,1.176-2.616,2.616
		c0,1.444,1.171,2.62,2.616,2.62C931.173,4495.887,932.344,4494.711,932.344,4493.267"/>
	<path style="fill:#FFFFFF;" d="M627.933,3494.233c0-3.192-2.593-5.778-5.785-5.778c-3.194,0-5.78,2.586-5.78,5.778
		c0,3.192,2.586,5.778,5.78,5.778C625.34,3500.011,627.933,3497.425,627.933,3494.233"/>
	<path style="fill:#FFFFFF;" d="M1499.241,4375.446c0-1.44-1.171-2.616-2.615-2.616c-1.444,0-2.616,1.176-2.616,2.616
		c0,1.444,1.171,2.62,2.616,2.62C1498.07,4378.066,1499.241,4376.89,1499.241,4375.446"/>
	<path style="fill:#FFFFFF;" d="M1354.524,4218.929c0-2.276-1.836-4.115-4.11-4.115c-2.269,0-4.11,1.839-4.11,4.115
		c0,2.267,1.841,4.105,4.11,4.105C1352.688,4223.035,1354.524,4221.196,1354.524,4218.929"/>
	<path style="fill:#FFFFFF;" d="M882.328,4785.945c0-2.844-2.301-5.145-5.145-5.145c-2.841,0-5.142,2.301-5.142,5.145
		c0,2.843,2.301,5.145,5.142,5.145C880.027,4791.089,882.328,4788.788,882.328,4785.945"/>
	<path style="fill:#FFFFFF;" d="M2261.38,4441.762c0-1.089-0.884-1.973-1.973-1.973c-1.094,0-1.973,0.884-1.973,1.973
		c0,1.084,0.879,1.964,1.973,1.964C2260.496,4443.726,2261.38,4442.846,2261.38,4441.762"/>
	<path style="fill:#FFFFFF;" d="M813.935,3866.708c0-2.276-1.837-4.115-4.11-4.115c-2.269,0-4.11,1.839-4.11,4.115
		c0,2.267,1.841,4.105,4.11,4.105C812.099,3870.814,813.935,3868.976,813.935,3866.708"/>
	<path style="fill:#FFFFFF;" d="M1028.818,4512.336c0-1.44-1.171-2.616-2.615-2.616c-1.445,0-2.616,1.176-2.616,2.616
		c0,1.444,1.171,2.62,2.616,2.62C1027.648,4514.957,1028.818,4513.781,1028.818,4512.336"/>
	<path style="fill:#FFFFFF;" d="M770.344,3498.054c0-1.891-1.536-3.422-3.429-3.422c-1.893,0-3.424,1.531-3.424,3.422
		c0,1.894,1.531,3.431,3.424,3.431C768.809,3501.485,770.344,3499.947,770.344,3498.054"/>
	<path style="fill:#FFFFFF;" d="M610.149,3804.856c0-2.276-1.836-4.113-4.11-4.113c-2.269,0-4.11,1.837-4.11,4.113
		c0,2.267,1.841,4.106,4.11,4.106C608.313,3808.962,610.149,3807.124,610.149,3804.856"/>
	<path style="fill:#FFFFFF;" d="M530.97,3229.598c0-1.891-1.536-3.422-3.429-3.422c-1.893,0-3.424,1.531-3.424,3.422
		c0,1.894,1.531,3.431,3.424,3.431C529.434,3233.029,530.97,3231.491,530.97,3229.598"/>
	<path style="fill:#FFFFFF;" d="M588.819,3717.816c0-1.608-1.305-2.908-2.907-2.908c-1.606,0-2.912,1.3-2.912,2.908
		c0,1.604,1.306,2.905,2.912,2.905C587.514,3720.721,588.819,3719.42,588.819,3717.816"/>
	<path style="fill:#FFFFFF;" d="M1427.037,3010.625c0-2.16-1.75-3.914-3.91-3.914c-2.16,0-3.914,1.754-3.914,3.914
		c0,2.151,1.754,3.91,3.914,3.91C1425.288,3014.534,1427.037,3012.776,1427.037,3010.625"/>
	<path style="fill:#FFFFFF;" d="M683.153,2739.052c0-1.44-1.171-2.615-2.616-2.615c-1.444,0-2.616,1.176-2.616,2.615
		c0,1.444,1.171,2.62,2.616,2.62C681.982,2741.672,683.153,2740.497,683.153,2739.052"/>
	<path style="fill:#FFFFFF;" d="M890.734,3027.796c0-1.44-1.171-2.615-2.616-2.615c-1.444,0-2.616,1.176-2.616,2.615
		c0,1.444,1.171,2.62,2.616,2.62C889.563,3030.416,890.734,3029.24,890.734,3027.796"/>
	<path style="fill:#FFFFFF;" d="M1266.254,2800.119c0-2.276-1.837-4.115-4.11-4.115c-2.269,0-4.11,1.839-4.11,4.115
		c0,2.267,1.841,4.105,4.11,4.105C1264.417,2804.225,1266.254,2802.386,1266.254,2800.119"/>
	<path style="fill:#FFFFFF;" d="M1402.919,3134.411c0-1.44-1.171-2.615-2.616-2.615c-1.445,0-2.615,1.176-2.615,2.615
		c0,1.445,1.171,2.62,2.615,2.62C1401.747,3137.032,1402.919,3135.856,1402.919,3134.411"/>
	<path style="fill:#FFFFFF;" d="M1919.592,2847.035c0-1.089-0.884-1.973-1.973-1.973c-1.094,0-1.973,0.884-1.973,1.973
		c0,1.084,0.879,1.964,1.973,1.964C1918.708,2848.999,1919.592,2848.12,1919.592,2847.035"/>
	<path style="fill:#FFFFFF;" d="M1965.986,3243.816c0-1.609-1.306-2.909-2.907-2.909c-1.606,0-2.912,1.301-2.912,2.909
		c0,1.604,1.305,2.905,2.912,2.905C1964.68,3246.721,1965.986,3245.42,1965.986,3243.816"/>
	<path style="fill:#FFFFFF;" d="M644.448,3104.033c0-1.089-0.884-1.973-1.973-1.973c-1.094,0-1.973,0.884-1.973,1.973
		c0,1.085,0.879,1.964,1.973,1.964C643.564,3105.997,644.448,3105.118,644.448,3104.033"/>
	<path style="fill:#FFFFFF;" d="M2641.713,3025.629c0-0.392-0.323-0.711-0.715-0.711c-0.396,0-0.716,0.319-0.716,0.711
		c0,0.396,0.319,0.713,0.716,0.713C2641.39,3026.342,2641.713,3026.025,2641.713,3025.629"/>
	<path style="fill:#FFFFFF;" d="M2144.26,2505.985c0-2.276-1.836-4.115-4.11-4.115c-2.269,0-4.11,1.839-4.11,4.115
		c0,2.267,1.841,4.106,4.11,4.106C2142.424,2510.091,2144.26,2508.252,2144.26,2505.985"/>
	<path style="fill:#FFFFFF;" d="M2280.926,2840.278c0-1.44-1.171-2.616-2.615-2.616c-1.444,0-2.615,1.176-2.615,2.616
		c0,1.444,1.171,2.62,2.615,2.62C2279.755,2842.897,2280.926,2841.722,2280.926,2840.278"/>
	<path style="fill:#FFFFFF;" d="M1957.075,2684.255c0-1.704-1.385-3.085-3.089-3.085c-1.709,0-3.085,1.381-3.085,3.085
		c0,1.704,1.376,3.085,3.085,3.085C1955.69,2687.34,1957.075,2685.959,1957.075,2684.255"/>
	<path style="fill:#FFFFFF;" d="M2054.22,3749.585c0-1.089-0.884-1.973-1.973-1.973c-1.094,0-1.973,0.884-1.973,1.973
		c0,1.084,0.88,1.964,1.973,1.964C2053.336,3751.549,2054.22,3750.669,2054.22,3749.585"/>
	<path style="fill:#FFFFFF;" d="M2471.137,3566.785c0-0.342-0.264-0.615-0.606-0.615c-0.333,0-0.606,0.273-0.606,0.615
		c0,0.333,0.273,0.606,0.606,0.606C2470.873,3567.391,2471.137,3567.118,2471.137,3566.785"/>
	<path style="fill:#FFFFFF;" d="M1707.169,3755.046c0-1.891-1.536-3.422-3.429-3.422c-1.893,0-3.424,1.531-3.424,3.422
		c0,1.894,1.531,3.431,3.424,3.431C1705.633,3758.477,1707.169,3756.939,1707.169,3755.046"/>
	<path style="fill:#FFFFFF;" d="M2431.986,3624.81c0-0.342-0.264-0.615-0.606-0.615c-0.333,0-0.606,0.273-0.606,0.615
		c0,0.333,0.273,0.606,0.606,0.606C2431.721,3625.416,2431.986,3625.143,2431.986,3624.81"/>
	<path style="fill:#FFFFFF;" d="M2411.458,3680.047c0-0.392-0.323-0.711-0.715-0.711c-0.396,0-0.715,0.319-0.715,0.711
		c0,0.396,0.319,0.713,0.715,0.713C2411.134,3680.76,2411.458,3680.443,2411.458,3680.047"/>
	<path style="fill:#FFFFFF;" d="M1882.541,3517.138c0-1.089-0.884-1.973-1.973-1.973c-1.093,0-1.973,0.884-1.973,1.973
		c0,1.084,0.88,1.964,1.973,1.964C1881.657,3519.102,1882.541,3518.223,1882.541,3517.138"/>
	<path style="fill:#FFFFFF;" d="M1873.268,2574.956c0-1.44-1.171-2.616-2.616-2.616s-2.616,1.176-2.616,2.616
		c0,1.445,1.171,2.62,2.616,2.62S1873.268,2576.4,1873.268,2574.956"/>
	<path style="fill:#FFFFFF;" d="M228.483,3597.332c0-1.44-1.171-2.615-2.616-2.615c-1.444,0-2.616,1.176-2.616,2.615
		c0,1.445,1.171,2.62,2.616,2.62C227.312,3599.952,228.483,3598.777,228.483,3597.332"/>
	<path style="fill:#FFFFFF;" d="M183.261,3619.619c0-3.192-2.593-5.778-5.785-5.778c-3.194,0-5.78,2.586-5.78,5.778
		c0,3.192,2.586,5.778,5.78,5.778C180.668,3625.397,183.261,3622.811,183.261,3619.619"/>
	<path style="fill:#FFFFFF;" d="M2203.448,807.305c0-1.089-0.884-1.973-1.973-1.973c-1.094,0-1.973,0.884-1.973,1.973
		c0,1.085,0.879,1.964,1.973,1.964C2202.564,809.269,2203.448,808.39,2203.448,807.305"/>
	<path style="fill:#FFFFFF;" d="M559.43,1149.793c0-1.609-1.306-2.91-2.907-2.91c-1.606,0-2.912,1.301-2.912,2.91
		c0,1.604,1.305,2.905,2.912,2.905C558.125,1152.698,559.43,1151.397,559.43,1149.793"/>
	<path style="fill:#FFFFFF;" d="M1073.846,506.291c0-3.192-2.593-5.778-5.785-5.778c-3.194,0-5.78,2.586-5.78,5.778
		s2.586,5.778,5.78,5.778C1071.254,512.069,1073.846,509.483,1073.846,506.291"/>
	<path style="fill:#FFFFFF;" d="M1591.85,1079.278c0-1.44-1.171-2.615-2.616-2.615c-1.444,0-2.616,1.176-2.616,2.615
		c0,1.444,1.171,2.62,2.616,2.62C1590.679,1081.898,1591.85,1080.722,1591.85,1079.278"/>
	<path style="fill:#FFFFFF;" d="M1187.586,961.523c0-1.704-1.387-3.085-3.092-3.085c-1.707,0-3.085,1.381-3.085,3.085
		s1.378,3.085,3.085,3.085C1186.198,964.608,1187.586,963.227,1187.586,961.523"/>
	<path style="fill:#FFFFFF;" d="M2654.119,199.443c0-1.089-0.884-1.973-1.973-1.973c-1.094,0-1.973,0.884-1.973,1.973
		c0,1.085,0.88,1.964,1.973,1.964C2653.235,201.407,2654.119,200.528,2654.119,199.443"/>
	<path style="fill:#FFFFFF;" d="M2628.404,533.943c0-1.089-0.884-1.973-1.973-1.973c-1.094,0-1.973,0.884-1.973,1.973
		c0,1.085,0.879,1.964,1.973,1.964C2627.52,535.907,2628.404,535.028,2628.404,533.943"/>
	<path style="fill:#FFFFFF;" d="M1354.171,244.376c0-1.089-0.884-1.973-1.973-1.973c-1.094,0-1.973,0.884-1.973,1.973
		c0,1.084,0.88,1.964,1.973,1.964C1353.287,246.34,1354.171,245.461,1354.171,244.376"/>
	<path style="fill:#FFFFFF;" d="M1108.225,102.274c0-1.608-1.306-2.91-2.907-2.91c-1.606,0-2.912,1.301-2.912,2.91
		c0,1.604,1.306,2.905,2.912,2.905C1106.919,105.179,1108.225,103.878,1108.225,102.274"/>
	<path style="fill:#FFFFFF;" d="M1786.435,140.534c0-2.16-1.75-3.914-3.91-3.914c-2.16,0-3.914,1.754-3.914,3.914
		c0,2.151,1.754,3.91,3.914,3.91C1784.686,144.444,1786.435,142.685,1786.435,140.534"/>
	<path style="fill:#FFFFFF;" d="M1615.062,26.855c0-2.16-1.75-3.914-3.909-3.914c-2.16,0-3.914,1.754-3.914,3.914
		c0,2.151,1.755,3.91,3.914,3.91C1613.312,30.765,1615.062,29.006,1615.062,26.855"/>
	<path style="fill:#FFFFFF;" d="M2441.696,114.973c0-1.089-0.884-1.973-1.973-1.973c-1.094,0-1.973,0.884-1.973,1.973
		c0,1.084,0.88,1.964,1.973,1.964C2440.812,116.937,2441.696,116.058,2441.696,114.973"/>
	<path style="fill:#FFFFFF;" d="M2511.97,196.835c0-0.392-0.323-0.711-0.715-0.711c-0.396,0-0.715,0.319-0.715,0.711
		c0,0.396,0.319,0.713,0.715,0.713C2511.647,197.548,2511.97,197.231,2511.97,196.835"/>
	<path style="fill:#FFFFFF;" d="M129.457,137.987c0-2.276-1.837-4.115-4.11-4.115c-2.269,0-4.11,1.838-4.11,4.115
		c0,2.267,1.841,4.106,4.11,4.106C127.621,142.093,129.457,140.254,129.457,137.987"/>
	<path style="fill:#FFFFFF;" d="M331.524,123.404c0-1.44-1.171-2.616-2.616-2.616c-1.444,0-2.616,1.176-2.616,2.616
		c0,1.445,1.171,2.621,2.616,2.621C330.352,126.026,331.524,124.849,331.524,123.404"/>
	<path style="fill:#FFFFFF;" d="M1011.759,282.142c0-2.276-1.836-4.115-4.11-4.115c-2.269,0-4.11,1.839-4.11,4.115
		c0,2.267,1.841,4.106,4.11,4.106C1009.922,286.248,1011.759,284.409,1011.759,282.142"/>
	<path style="fill:#FFFFFF;" d="M353.498,586.694c0-2.844-2.301-5.145-5.144-5.145c-2.841,0-5.142,2.301-5.142,5.145
		c0,2.843,2.301,5.145,5.142,5.145C351.197,591.839,353.498,589.537,353.498,586.694"/>
	<path style="fill:#FFFFFF;" d="M952.59,1057.59c0-1.44-1.171-2.616-2.616-2.616c-1.444,0-2.616,1.176-2.616,2.616
		c0,1.444,1.171,2.62,2.616,2.62C951.419,1060.21,952.59,1059.035,952.59,1057.59"/>
	<path style="fill:#FFFFFF;" d="M648.179,58.557c0-3.192-2.593-5.778-5.785-5.778c-3.194,0-5.78,2.586-5.78,5.778
		c0,3.192,2.586,5.778,5.78,5.778C645.586,64.335,648.179,61.749,648.179,58.557"/>
	<path style="fill:#FFFFFF;" d="M1519.487,939.769c0-1.44-1.171-2.616-2.616-2.616c-1.444,0-2.616,1.176-2.616,2.616
		c0,1.444,1.171,2.62,2.616,2.62C1518.316,942.389,1519.487,941.214,1519.487,939.769"/>
	<path style="fill:#FFFFFF;" d="M1374.77,783.253c0-2.276-1.836-4.115-4.11-4.115c-2.269,0-4.11,1.839-4.11,4.115
		c0,2.267,1.841,4.105,4.11,4.105C1372.934,787.358,1374.77,785.52,1374.77,783.253"/>
	<path style="fill:#FFFFFF;" d="M2281.626,1006.086c0-1.089-0.884-1.973-1.973-1.973c-1.094,0-1.973,0.884-1.973,1.973
		c0,1.084,0.879,1.964,1.973,1.964C2280.742,1008.05,2281.626,1007.17,2281.626,1006.086"/>
	<path style="fill:#FFFFFF;" d="M834.181,431.032c0-2.276-1.837-4.115-4.11-4.115c-2.269,0-4.11,1.839-4.11,4.115
		c0,2.267,1.841,4.105,4.11,4.105C832.345,435.138,834.181,433.299,834.181,431.032"/>
	<path style="fill:#FFFFFF;" d="M1049.065,1076.66c0-1.44-1.171-2.616-2.615-2.616c-1.445,0-2.616,1.176-2.616,2.616
		c0,1.444,1.171,2.62,2.616,2.62C1047.894,1079.28,1049.065,1078.104,1049.065,1076.66"/>
	<path style="fill:#FFFFFF;" d="M790.59,62.377c0-1.891-1.536-3.422-3.429-3.422c-1.893,0-3.424,1.531-3.424,3.422
		c0,1.893,1.531,3.431,3.424,3.431C789.055,65.809,790.59,64.271,790.59,62.377"/>
	<path style="fill:#FFFFFF;" d="M630.396,369.18c0-2.276-1.836-4.113-4.11-4.113c-2.269,0-4.11,1.837-4.11,4.113
		c0,2.267,1.841,4.106,4.11,4.106C628.559,373.286,630.396,371.447,630.396,369.18"/>
	<path style="fill:#FFFFFF;" d="M609.065,282.14c0-1.608-1.305-2.908-2.907-2.908c-1.606,0-2.912,1.3-2.912,2.908
		c0,1.604,1.306,2.905,2.912,2.905C607.76,285.045,609.065,283.744,609.065,282.14"/>
	<path style="fill:#FFFFFF;" d="M2074.466,313.908c0-1.089-0.884-1.973-1.973-1.973c-1.094,0-1.973,0.884-1.973,1.973
		c0,1.085,0.88,1.964,1.973,1.964C2073.582,315.872,2074.466,314.993,2074.466,313.908"/>
	<path style="fill:#FFFFFF;" d="M2491.383,131.109c0-0.342-0.264-0.615-0.606-0.615c-0.333,0-0.606,0.273-0.606,0.615
		c0,0.333,0.273,0.606,0.606,0.606C2491.119,131.715,2491.383,131.441,2491.383,131.109"/>
	<path style="fill:#FFFFFF;" d="M1727.415,319.37c0-1.891-1.536-3.422-3.429-3.422c-1.893,0-3.424,1.531-3.424,3.422
		c0,1.893,1.531,3.431,3.424,3.431C1725.879,322.801,1727.415,321.263,1727.415,319.37"/>
	<path style="fill:#FFFFFF;" d="M2452.232,189.134c0-0.342-0.264-0.615-0.606-0.615c-0.333,0-0.606,0.273-0.606,0.615
		c0,0.333,0.273,0.606,0.606,0.606C2451.967,189.74,2452.232,189.467,2452.232,189.134"/>
	<path style="fill:#FFFFFF;" d="M2431.703,244.371c0-0.392-0.323-0.711-0.715-0.711c-0.396,0-0.715,0.319-0.715,0.711
		c0,0.396,0.319,0.713,0.715,0.713C2431.38,245.084,2431.703,244.767,2431.703,244.371"/>
	<path style="fill:#FFFFFF;" d="M1902.787,81.462c0-1.089-0.884-1.973-1.973-1.973c-1.094,0-1.973,0.884-1.973,1.973
		c0,1.084,0.88,1.964,1.973,1.964C1901.903,83.426,1902.787,82.546,1902.787,81.462"/>
	<path style="fill:#FFFFFF;" d="M248.729,161.656c0-1.44-1.171-2.615-2.616-2.615c-1.444,0-2.616,1.176-2.616,2.615
		c0,1.445,1.171,2.62,2.616,2.62C247.558,164.276,248.729,163.1,248.729,161.656"/>
	<path style="fill:#FFFFFF;" d="M203.507,183.943c0-3.192-2.593-5.778-5.785-5.778c-3.194,0-5.78,2.586-5.78,5.778
		c0,3.192,2.586,5.778,5.78,5.778C200.914,189.721,203.507,187.135,203.507,183.943"/>
	<path style="fill:#FFFFFF;" d="M1762.119,1136.817c0-0.342-0.264-0.615-0.606-0.615c-0.333,0-0.606,0.273-0.606,0.615
		c0,0.333,0.273,0.606,0.606,0.606C1761.854,1137.423,1762.119,1137.149,1762.119,1136.817"/>
	<path style="fill:#FFFFFF;" d="M2202.202,2125.761c0-1.089-0.884-1.973-1.973-1.973c-1.094,0-1.973,0.884-1.973,1.973
		c0,1.085,0.879,1.964,1.973,1.964C2201.318,2127.726,2202.202,2126.846,2202.202,2125.761"/>
	<path style="fill:#FFFFFF;" d="M558.184,2468.249c0-1.608-1.306-2.909-2.907-2.909c-1.606,0-2.912,1.301-2.912,2.909
		c0,1.604,1.305,2.905,2.912,2.905C556.879,2471.154,558.184,2469.853,558.184,2468.249"/>
	<path style="fill:#FFFFFF;" d="M1072.6,1824.747c0-3.192-2.593-5.778-5.785-5.778c-3.194,0-5.78,2.586-5.78,5.778
		c0,3.192,2.586,5.778,5.78,5.778C1070.008,1830.525,1072.6,1827.939,1072.6,1824.747"/>
	<path style="fill:#FFFFFF;" d="M1590.604,2397.734c0-1.44-1.171-2.615-2.616-2.615c-1.444,0-2.616,1.176-2.616,2.615
		c0,1.444,1.171,2.62,2.616,2.62C1589.433,2400.354,1590.604,2399.178,1590.604,2397.734"/>
	<path style="fill:#FFFFFF;" d="M1186.34,2279.979c0-1.704-1.387-3.085-3.092-3.085c-1.707,0-3.085,1.381-3.085,3.085
		s1.378,3.085,3.085,3.085C1184.952,2283.064,1186.34,2281.684,1186.34,2279.979"/>
	<path style="fill:#FFFFFF;" d="M2652.873,1517.9c0-1.089-0.884-1.973-1.973-1.973c-1.094,0-1.973,0.884-1.973,1.973
		c0,1.085,0.879,1.964,1.973,1.964C2651.989,1519.864,2652.873,1518.984,2652.873,1517.9"/>
	<path style="fill:#FFFFFF;" d="M2627.157,1852.399c0-1.089-0.884-1.973-1.973-1.973c-1.094,0-1.973,0.884-1.973,1.973
		c0,1.085,0.879,1.964,1.973,1.964C2626.273,1854.363,2627.157,1853.484,2627.157,1852.399"/>
	<path style="fill:#FFFFFF;" d="M1352.925,1562.832c0-1.089-0.884-1.973-1.973-1.973c-1.094,0-1.973,0.884-1.973,1.973
		c0,1.084,0.88,1.964,1.973,1.964C1352.041,1564.796,1352.925,1563.917,1352.925,1562.832"/>
	<path style="fill:#FFFFFF;" d="M1271.928,1297.742c0-0.392-0.323-0.711-0.715-0.711c-0.396,0-0.716,0.319-0.716,0.711
		c0,0.396,0.319,0.713,0.716,0.713C1271.605,1298.455,1271.928,1298.138,1271.928,1297.742"/>
	<path style="fill:#FFFFFF;" d="M1106.979,1420.73c0-1.608-1.306-2.91-2.907-2.91c-1.606,0-2.912,1.301-2.912,2.91
		c0,1.604,1.306,2.905,2.912,2.905C1105.673,1423.635,1106.979,1422.334,1106.979,1420.73"/>
	<path style="fill:#FFFFFF;" d="M1785.189,1458.99c0-2.16-1.75-3.914-3.91-3.914c-2.16,0-3.914,1.754-3.914,3.914
		c0,2.151,1.755,3.91,3.914,3.91C1783.44,1462.9,1785.189,1461.141,1785.189,1458.99"/>
	<path style="fill:#FFFFFF;" d="M1613.816,1345.312c0-2.16-1.75-3.914-3.91-3.914c-2.16,0-3.914,1.755-3.914,3.914
		c0,2.151,1.754,3.91,3.914,3.91C1612.066,1349.221,1613.816,1347.462,1613.816,1345.312"/>
	<path style="fill:#FFFFFF;" d="M835.633,1144.47c0-0.342-0.264-0.615-0.606-0.615c-0.332,0-0.606,0.273-0.606,0.615
		c0,0.333,0.273,0.606,0.606,0.606C835.368,1145.076,835.633,1144.802,835.633,1144.47"/>
	<path style="fill:#FFFFFF;" d="M805.819,1160.942c0-1.704-1.387-3.085-3.092-3.085c-1.706,0-3.085,1.381-3.085,3.085
		c0,1.704,1.379,3.085,3.085,3.085C804.432,1164.027,805.819,1162.646,805.819,1160.942"/>
	<path style="fill:#FFFFFF;" d="M2440.45,1433.43c0-1.089-0.884-1.973-1.973-1.973c-1.094,0-1.973,0.884-1.973,1.973
		c0,1.084,0.88,1.964,1.973,1.964C2439.566,1435.394,2440.45,1434.514,2440.45,1433.43"/>
	<path style="fill:#FFFFFF;" d="M2510.724,1515.291c0-0.392-0.323-0.711-0.715-0.711c-0.396,0-0.715,0.319-0.715,0.711
		c0,0.396,0.319,0.713,0.715,0.713C2510.401,1516.004,2510.724,1515.688,2510.724,1515.291"/>
	<path style="fill:#FFFFFF;" d="M128.211,1456.443c0-2.276-1.837-4.115-4.11-4.115c-2.269,0-4.11,1.838-4.11,4.115
		c0,2.267,1.841,4.106,4.11,4.106C126.374,1460.549,128.211,1458.71,128.211,1456.443"/>
	<path style="fill:#FFFFFF;" d="M330.278,1441.86c0-1.44-1.171-2.616-2.616-2.616c-1.444,0-2.616,1.176-2.616,2.616
		c0,1.445,1.171,2.621,2.616,2.621C329.106,1444.482,330.278,1443.305,330.278,1441.86"/>
	<path style="fill:#FFFFFF;" d="M1010.513,1600.599c0-2.276-1.836-4.115-4.11-4.115c-2.269,0-4.11,1.839-4.11,4.115
		c0,2.267,1.841,4.106,4.11,4.106C1008.676,1604.704,1010.513,1602.865,1010.513,1600.599"/>
	<path style="fill:#FFFFFF;" d="M352.252,1905.15c0-2.844-2.301-5.145-5.144-5.145c-2.841,0-5.142,2.301-5.142,5.145
		c0,2.843,2.301,5.145,5.142,5.145C349.951,1910.295,352.252,1907.994,352.252,1905.15"/>
	<path style="fill:#FFFFFF;" d="M951.344,2376.046c0-1.44-1.171-2.615-2.616-2.615c-1.444,0-2.616,1.176-2.616,2.615
		c0,1.444,1.171,2.62,2.616,2.62C950.173,2378.667,951.344,2377.491,951.344,2376.046"/>
	<path style="fill:#FFFFFF;" d="M646.933,1377.013c0-3.192-2.593-5.778-5.785-5.778c-3.194,0-5.78,2.586-5.78,5.778
		c0,3.192,2.586,5.778,5.78,5.778C644.34,1382.791,646.933,1380.205,646.933,1377.013"/>
	<path style="fill:#FFFFFF;" d="M1518.241,2258.226c0-1.44-1.171-2.616-2.615-2.616c-1.444,0-2.616,1.176-2.616,2.616
		c0,1.444,1.171,2.62,2.616,2.62C1517.07,2260.845,1518.241,2259.67,1518.241,2258.226"/>
	<path style="fill:#FFFFFF;" d="M1373.524,2101.709c0-2.276-1.836-4.115-4.11-4.115c-2.269,0-4.11,1.839-4.11,4.115
		c0,2.267,1.841,4.105,4.11,4.105C1371.688,2105.814,1373.524,2103.976,1373.524,2101.709"/>
	<path style="fill:#FFFFFF;" d="M2280.38,2324.542c0-1.089-0.884-1.973-1.973-1.973c-1.094,0-1.973,0.884-1.973,1.973
		c0,1.084,0.879,1.964,1.973,1.964C2279.496,2326.506,2280.38,2325.626,2280.38,2324.542"/>
	<path style="fill:#FFFFFF;" d="M832.935,1749.488c0-2.276-1.837-4.115-4.11-4.115c-2.269,0-4.11,1.839-4.11,4.115
		c0,2.267,1.841,4.105,4.11,4.105C831.099,1753.594,832.935,1751.755,832.935,1749.488"/>
	<path style="fill:#FFFFFF;" d="M1047.818,2395.116c0-1.44-1.171-2.615-2.615-2.615c-1.445,0-2.616,1.176-2.616,2.615
		c0,1.444,1.171,2.62,2.616,2.62C1046.648,2397.736,1047.818,2396.561,1047.818,2395.116"/>
	<path style="fill:#FFFFFF;" d="M789.344,1380.833c0-1.891-1.536-3.422-3.429-3.422c-1.893,0-3.424,1.531-3.424,3.422
		c0,1.893,1.531,3.431,3.424,3.431C787.809,1384.265,789.344,1382.727,789.344,1380.833"/>
	<path style="fill:#FFFFFF;" d="M629.149,1687.636c0-2.276-1.836-4.113-4.11-4.113c-2.269,0-4.11,1.837-4.11,4.113
		c0,2.267,1.841,4.106,4.11,4.106C627.313,1691.742,629.149,1689.903,629.149,1687.636"/>
	<path style="fill:#FFFFFF;" d="M549.97,1112.378c0-1.891-1.536-3.422-3.429-3.422c-1.893,0-3.424,1.531-3.424,3.422
		c0,1.894,1.531,3.431,3.424,3.431C548.434,1115.809,549.97,1114.271,549.97,1112.378"/>
	<path style="fill:#FFFFFF;" d="M607.819,1600.596c0-1.608-1.305-2.908-2.907-2.908c-1.606,0-2.912,1.3-2.912,2.908
		c0,1.604,1.306,2.905,2.912,2.905C606.514,1603.501,607.819,1602.2,607.819,1600.596"/>
	<path style="fill:#FFFFFF;" d="M1984.986,1126.596c0-1.609-1.306-2.91-2.907-2.91c-1.606,0-2.912,1.301-2.912,2.91
		c0,1.604,1.305,2.905,2.912,2.905C1983.68,1129.501,1984.986,1128.2,1984.986,1126.596"/>
	<path style="fill:#FFFFFF;" d="M2073.22,1632.365c0-1.089-0.884-1.973-1.973-1.973c-1.094,0-1.973,0.884-1.973,1.973
		c0,1.085,0.88,1.964,1.973,1.964C2072.336,1634.328,2073.22,1633.449,2073.22,1632.365"/>
	<path style="fill:#FFFFFF;" d="M2490.137,1449.565c0-0.342-0.264-0.615-0.606-0.615c-0.333,0-0.606,0.273-0.606,0.615
		c0,0.333,0.273,0.606,0.606,0.606C2489.873,1450.171,2490.137,1449.898,2490.137,1449.565"/>
	<path style="fill:#FFFFFF;" d="M1726.169,1637.826c0-1.891-1.536-3.422-3.429-3.422c-1.893,0-3.424,1.531-3.424,3.422
		c0,1.893,1.531,3.431,3.424,3.431C1724.633,1641.257,1726.169,1639.719,1726.169,1637.826"/>
	<path style="fill:#FFFFFF;" d="M2450.986,1507.59c0-0.342-0.264-0.615-0.606-0.615c-0.333,0-0.606,0.273-0.606,0.615
		c0,0.333,0.273,0.606,0.606,0.606C2450.721,1508.196,2450.986,1507.923,2450.986,1507.59"/>
	<path style="fill:#FFFFFF;" d="M2430.458,1562.827c0-0.392-0.323-0.711-0.715-0.711c-0.396,0-0.715,0.319-0.715,0.711
		c0,0.396,0.319,0.713,0.715,0.713C2430.134,1563.54,2430.458,1563.223,2430.458,1562.827"/>
	<path style="fill:#FFFFFF;" d="M1901.541,1399.918c0-1.089-0.884-1.973-1.973-1.973c-1.093,0-1.973,0.884-1.973,1.973
		c0,1.084,0.88,1.964,1.973,1.964C1900.657,1401.882,1901.541,1401.003,1901.541,1399.918"/>
	<path style="fill:#FFFFFF;" d="M247.483,1480.112c0-1.44-1.171-2.615-2.616-2.615c-1.444,0-2.616,1.176-2.616,2.615
		c0,1.445,1.171,2.62,2.616,2.62C246.312,1482.732,247.483,1481.556,247.483,1480.112"/>
	<path style="fill:#FFFFFF;" d="M202.261,1502.399c0-3.192-2.593-5.778-5.785-5.778c-3.194,0-5.78,2.586-5.78,5.778
		c0,3.192,2.586,5.778,5.78,5.778C199.668,1508.177,202.261,1505.591,202.261,1502.399"/>
	<path style="fill:#FFFFFF;" d="M438.416,6611.263c0-1.44-1.171-2.616-2.616-2.616c-1.444,0-2.616,1.176-2.616,2.616
		c0,1.444,1.171,2.62,2.616,2.62C437.245,6613.882,438.416,6612.707,438.416,6611.263"/>
	<path style="fill:#FFFFFF;" d="M2633.873,6151.998c0-1.089-0.884-1.973-1.973-1.973c-1.094,0-1.973,0.884-1.973,1.973
		c0,1.084,0.879,1.964,1.973,1.964C2632.989,6153.961,2633.873,6153.082,2633.873,6151.998"/>
	<path style="fill:#FFFFFF;" d="M2013.731,5963.386c0-0.392-0.324-0.711-0.716-0.711c-0.396,0-0.715,0.319-0.715,0.711
		c0,0.396,0.319,0.713,0.715,0.713C2013.407,5964.099,2013.731,5963.782,2013.731,5963.386"/>
	<path style="fill:#FFFFFF;" d="M1703.967,5828.939c0-0.342-0.264-0.615-0.606-0.615c-0.333,0-0.606,0.273-0.606,0.615
		c0,0.333,0.273,0.606,0.606,0.606C1703.703,5829.546,1703.967,5829.272,1703.967,5828.939"/>
	<path style="fill:#FFFFFF;" d="M1766.189,6093.088c0-2.16-1.75-3.914-3.91-3.914c-2.16,0-3.914,1.754-3.914,3.914
		c0,2.151,1.755,3.91,3.914,3.91C1764.44,6096.998,1766.189,6095.239,1766.189,6093.088"/>
	<path style="fill:#FFFFFF;" d="M837.22,5844.293c0-0.392-0.323-0.711-0.715-0.711c-0.396,0-0.716,0.319-0.716,0.711
		c0,0.396,0.319,0.713,0.716,0.713C836.897,5845.006,837.22,5844.69,837.22,5844.293"/>
	<path style="fill:#FFFFFF;" d="M1960.36,6178.862c0-0.342-0.264-0.615-0.606-0.615c-0.333,0-0.606,0.273-0.606,0.615
		c0,0.333,0.273,0.606,0.606,0.606C1960.096,6179.468,1960.36,6179.194,1960.36,6178.862"/>
	<path style="fill:#FFFFFF;" d="M1707.169,6271.923c0-1.891-1.536-3.422-3.429-3.422c-1.893,0-3.424,1.531-3.424,3.422
		c0,1.894,1.531,3.432,3.424,3.432C1705.633,6275.355,1707.169,6273.817,1707.169,6271.923"/>
	<path style="fill:#FFFFFF;" d="M2411.458,6196.924c0-0.392-0.323-0.71-0.715-0.71c-0.396,0-0.715,0.319-0.715,0.71
		c0,0.396,0.319,0.713,0.715,0.713C2411.134,6197.638,2411.458,6197.321,2411.458,6196.924"/>
	<path style="fill:#FFFFFF;" d="M2130.937,5964.037c0-1.44-1.171-2.615-2.615-2.615c-1.445,0-2.616,1.175-2.616,2.615
		c0,1.445,1.171,2.62,2.616,2.62C2129.766,5966.657,2130.937,5965.482,2130.937,5964.037"/>
	<path style="fill:#FFFFFF;" d="M1882.541,6034.016c0-1.089-0.884-1.973-1.973-1.973c-1.093,0-1.973,0.884-1.973,1.973
		c0,1.084,0.88,1.964,1.973,1.964C1881.657,6035.98,1882.541,6035.101,1882.541,6034.016"/>
	<path style="fill:#FFFFFF;" d="M228.483,6114.209c0-1.439-1.171-2.615-2.616-2.615c-1.444,0-2.616,1.176-2.616,2.615
		c0,1.445,1.171,2.62,2.616,2.62C227.312,6116.83,228.483,6115.654,228.483,6114.209"/>
	<path style="fill:#FFFFFF;" d="M109.211,6090.541c0-2.276-1.837-4.115-4.11-4.115c-2.269,0-4.11,1.838-4.11,4.115
		c0,2.267,1.841,4.105,4.11,4.105C107.374,6094.646,109.211,6092.808,109.211,6090.541"/>
	<path style="fill:#FFFFFF;" d="M183.261,6136.497c0-3.192-2.593-5.778-5.785-5.778c-3.194,0-5.78,2.586-5.78,5.778
		s2.586,5.778,5.78,5.778C180.668,6142.274,183.261,6139.688,183.261,6136.497"/>
	<path style="fill:#FFFFFF;" d="M470.896,2892.323c0-0.342-0.264-0.615-0.606-0.615c-0.332,0-0.606,0.273-0.606,0.615
		c0,0.333,0.273,0.606,0.606,0.606C470.632,2892.929,470.896,2892.656,470.896,2892.323"/>
	<path style="fill:#FFFFFF;" d="M155.434,2609.847c0-1.704-1.388-3.085-3.092-3.085c-1.707,0-3.085,1.381-3.085,3.085
		c0,1.704,1.378,3.085,3.085,3.085C154.047,2612.933,155.434,2611.552,155.434,2609.847"/>
	<path style="fill:#FFFFFF;" d="M1383.592,5880.553c0-0.392-0.324-0.71-0.716-0.71c-0.396,0-0.715,0.319-0.715,0.71
		c0,0.396,0.319,0.713,0.715,0.713C1383.269,5881.267,1383.592,5880.95,1383.592,5880.553"/>
	<path style="fill:#FFFFFF;" d="M2304.489,5830.803c0-0.392-0.323-0.71-0.715-0.71c-0.396,0-0.716,0.319-0.716,0.71
		c0,0.396,0.319,0.713,0.716,0.713C2304.165,5831.516,2304.489,5831.199,2304.489,5830.803"/>
	<path style="fill:#FFFFFF;" d="M947.297,5727.281c0-0.342-0.264-0.615-0.606-0.615c-0.333,0-0.606,0.273-0.606,0.615
		c0,0.333,0.273,0.606,0.606,0.606C947.032,5727.887,947.297,5727.614,947.297,5727.281"/>
	<path style="fill:#FFFFFF;" d="M697.832,6714.877c0-1.705-1.387-3.085-3.092-3.085c-1.706,0-3.085,1.381-3.085,3.085
		c0,1.704,1.379,3.084,3.085,3.084C696.444,6717.961,697.832,6716.581,697.832,6714.877"/>
	<path style="fill:#FFFFFF;" d="M878.896,6712.844c0-0.392-0.324-0.71-0.716-0.71c-0.396,0-0.715,0.319-0.715,0.71
		c0,0.397,0.319,0.713,0.715,0.713C878.573,6713.557,878.896,6713.241,878.896,6712.844"/>
</g>
<g id="Ebene_1">
</g>
</svg>
