<?xml version="1.0" encoding="iso-8859-1"?>
<!-- Generator: Adobe Illustrator 18.0.0, SVG Export Plug-In . SVG Version: 6.00 Build 0)  -->
<!DOCTYPE svg PUBLIC "-//W3C//DTD SVG 1.1//EN" "http://www.w3.org/Graphics/SVG/1.1/DTD/svg11.dtd">
<svg version="1.1" xmlns="http://www.w3.org/2000/svg" xmlns:xlink="http://www.w3.org/1999/xlink" x="0px" y="0px"
	 viewBox="0 0 2800 10000" style="enable-background:new 0 0 2800 10000;" xml:space="preserve">
<g id="snow_x5F_mid2">
	<path style="fill:#FFFFFF;" d="M2408.853,8926.806c0-4.609-3.741-8.344-8.348-8.344c-4.609,0-8.343,3.734-8.343,8.344
		c0,4.613,3.734,8.348,8.343,8.348C2405.112,8935.153,2408.853,8931.419,2408.853,8926.806"/>
	<path style="fill:#FFFFFF;" d="M1825.197,8712.378c0-3.903-3.165-7.065-7.07-7.065c-3.91,0-7.074,3.162-7.074,7.065
		c0,3.907,3.165,7.069,7.074,7.069C1822.032,8719.447,1825.197,8716.285,1825.197,8712.378"/>
	<path style="fill:#FFFFFF;" d="M1013.834,8229.95c0-5.864-4.753-10.614-10.617-10.614c-5.862,0-10.617,4.75-10.617,10.614
		c0,5.865,4.755,10.617,10.617,10.617C1009.081,8240.567,1013.834,8235.815,1013.834,8229.95"/>
	<path style="fill:#FFFFFF;" d="M239.636,5887.407c0-5.461-4.429-9.895-9.895-9.895c-5.461,0-9.888,4.434-9.888,9.895
		s4.427,9.888,9.888,9.888C235.206,5897.294,239.636,5892.868,239.636,5887.407"/>
	<path style="fill:#FFFFFF;" d="M1398.092,7662.775c0-5.425-4.402-9.831-9.829-9.831c-5.432,0-9.829,4.406-9.829,9.831
		c0,5.432,4.397,9.832,9.829,9.832C1393.69,7672.607,1398.092,7668.207,1398.092,7662.775"/>
	<path style="fill:#FFFFFF;" d="M778.064,3750.876c0-3.192-2.593-5.778-5.785-5.778c-3.194,0-5.78,2.586-5.78,5.778
		c0,3.192,2.586,5.778,5.78,5.778C775.471,3756.655,778.064,3754.069,778.064,3750.876"/>
	<path style="fill:#FFFFFF;" d="M1047.437,3295.937c0-4.803-3.901-8.703-8.703-8.703c-4.812,0-8.703,3.901-8.703,8.703
		c0,4.812,3.891,8.706,8.703,8.706C1043.537,3304.643,1047.437,3300.749,1047.437,3295.937"/>
	<path style="fill:#FFFFFF;" d="M2285.362,4856.834c0-6.99-5.655-12.647-12.631-12.647c-6.99,0-12.645,5.657-12.645,12.647
		c0,6.976,5.655,12.636,12.645,12.636C2279.707,4869.47,2285.362,4863.81,2285.362,4856.834"/>
	<path style="fill:#FFFFFF;" d="M775.832,4500.995c0-1.608-1.305-2.909-2.907-2.909c-1.606,0-2.912,1.301-2.912,2.909
		c0,1.604,1.306,2.905,2.912,2.905C774.526,4503.9,775.832,4502.599,775.832,4500.995"/>
	<path style="fill:#FFFFFF;" d="M1844.677,4120.219c0-6.89-5.586-12.481-12.476-12.481c-6.894,0-12.476,5.591-12.476,12.481
		c0,6.892,5.582,12.474,12.476,12.474C1839.09,4132.693,1844.677,4127.111,1844.677,4120.219"/>
	<path style="fill:#FFFFFF;" d="M1787.002,4417.889c0-0.392-0.324-0.71-0.715-0.71c-0.397,0-0.715,0.319-0.715,0.71
		c0,0.396,0.319,0.713,0.715,0.713C1786.679,4418.603,1787.002,4418.286,1787.002,4417.889"/>
	<path style="fill:#FFFFFF;" d="M2038.9,4181.671c0-5.757-4.666-10.431-10.43-10.431c-5.755,0-10.43,4.673-10.43,10.431
		c0,5.762,4.675,10.428,10.43,10.428C2034.234,4192.099,2038.9,4187.433,2038.9,4181.671"/>
	<path style="fill:#FFFFFF;" d="M1803.987,4766.037c0-4.609-3.741-8.344-8.348-8.344s-8.344,3.734-8.344,8.344
		c0,4.613,3.737,8.348,8.344,8.348S1803.987,4770.65,1803.987,4766.037"/>
	<path style="fill:#FFFFFF;" d="M637.057,5211.495c0-7.263-5.883-13.16-13.153-13.16c-7.263,0-13.146,5.896-13.146,13.16
		c0,7.268,5.883,13.151,13.146,13.151C631.174,5224.646,637.057,5218.763,637.057,5211.495"/>
	<path style="fill:#FFFFFF;" d="M1928.527,5782.739c0-4.803-3.9-8.703-8.703-8.703c-4.812,0-8.703,3.9-8.703,8.703
		c0,4.812,3.891,8.706,8.703,8.706C1924.627,5791.444,1928.527,5787.551,1928.527,5782.739"/>
	<path style="fill:#FFFFFF;" d="M283.541,4440.796c0-6.543-5.299-11.841-11.845-11.841c-6.543,0-11.836,5.297-11.836,11.841
		s5.293,11.843,11.836,11.843C278.241,4452.639,283.541,4447.339,283.541,4440.796"/>
	<path style="fill:#FFFFFF;" d="M1757.393,5305.16c0-5.425-4.402-9.831-9.829-9.831c-5.432,0-9.829,4.406-9.829,9.831
		c0,5.432,4.397,9.831,9.829,9.831C1752.991,5314.991,1757.393,5310.592,1757.393,5305.16"/>
	<path style="fill:#FFFFFF;" d="M495.442,5258.306c0-2.843-2.301-5.145-5.145-5.145c-2.841,0-5.142,2.301-5.142,5.145
		c0,2.844,2.301,5.145,5.142,5.145C493.141,5263.45,495.442,5261.149,495.442,5258.306"/>
	<path style="fill:#FFFFFF;" d="M572.702,5577.552c0-5.425-4.402-9.831-9.829-9.831c-5.434,0-9.831,4.406-9.831,9.831
		c0,5.432,4.397,9.831,9.831,9.831C568.301,5587.383,572.702,5582.983,572.702,5577.552"/>
	<path style="fill:#FFFFFF;" d="M1184.264,5636.115c0-4.609-3.741-8.343-8.348-8.343c-4.607,0-8.343,3.734-8.343,8.343
		c0,4.614,3.736,8.348,8.343,8.348C1180.523,5644.463,1184.264,5640.729,1184.264,5636.115"/>
	<path style="fill:#FFFFFF;" d="M1521.826,4870.107c0-5.757-4.666-10.43-10.43-10.43c-5.755,0-10.43,4.673-10.43,10.43
		c0,5.762,4.675,10.428,10.43,10.428C1517.16,4880.535,1521.826,4875.869,1521.826,4870.107"/>
	<path style="fill:#FFFFFF;" d="M914.93,5529.907c0-4.609-3.741-8.343-8.348-8.343c-4.611,0-8.343,3.734-8.343,8.343
		c0,4.614,3.732,8.348,8.343,8.348C911.189,5538.255,914.93,5534.521,914.93,5529.907"/>
	<path style="fill:#FFFFFF;" d="M193.152,4764.811c0-5.461-4.429-9.895-9.895-9.895c-5.461,0-9.888,4.434-9.888,9.895
		c0,5.461,4.427,9.888,9.888,9.888C188.723,4774.699,193.152,4770.272,193.152,4764.811"/>
	<path style="fill:#FFFFFF;" d="M2727.166,4161.669c0-6.703-5.441-12.142-12.148-12.142c-6.703,0-12.144,5.439-12.144,12.142
		c0,6.71,5.441,12.146,12.144,12.146C2721.725,4173.815,2727.166,4168.379,2727.166,4161.669"/>
	<path style="fill:#FFFFFF;" d="M282.521,5419.611c0-6.543-5.299-11.84-11.845-11.84c-6.543,0-11.836,5.297-11.836,11.84
		s5.293,11.843,11.836,11.843C277.222,5431.454,282.521,5426.155,282.521,5419.611"/>
	<path style="fill:#FFFFFF;" d="M1555.036,5457.22c0-5.425-4.402-9.831-9.829-9.831c-5.432,0-9.829,4.406-9.829,9.831
		c0,5.432,4.397,9.831,9.829,9.831C1550.634,5467.051,1555.036,5462.652,1555.036,5457.22"/>
	<path style="fill:#FFFFFF;" d="M1514.125,5830.803c0-4.803-3.901-8.703-8.703-8.703c-4.812,0-8.703,3.9-8.703,8.703
		c0,4.812,3.891,8.706,8.703,8.706C1510.225,5839.509,1514.125,5835.615,1514.125,5830.803"/>
	<path style="fill:#FFFFFF;" d="M368.265,4900.751c0-2.276-1.836-4.115-4.11-4.115c-2.269,0-4.11,1.838-4.11,4.115
		c0,2.267,1.841,4.105,4.11,4.105C366.429,4904.857,368.265,4903.019,368.265,4900.751"/>
	<path style="fill:#FFFFFF;" d="M79.734,5170.76c0-2.843-2.301-5.145-5.145-5.145c-2.841,0-5.142,2.301-5.142,5.145
		s2.301,5.145,5.142,5.145C77.432,5175.904,79.734,5173.603,79.734,5170.76"/>
	<path style="fill:#FFFFFF;" d="M2367.802,6854.519c0-5.757-4.666-10.431-10.43-10.431c-5.755,0-10.43,4.673-10.43,10.431
		c0,5.762,4.675,10.428,10.43,10.428C2363.136,6864.947,2367.802,6860.28,2367.802,6854.519"/>
	<path style="fill:#FFFFFF;" d="M1019.001,6989.338c0-4.803-3.9-8.704-8.703-8.704c-4.812,0-8.703,3.901-8.703,8.704
		c0,4.812,3.892,8.706,8.703,8.706C1015.101,6998.044,1019.001,6994.15,1019.001,6989.338"/>
	<path style="fill:#FFFFFF;" d="M2399.765,7129.744c0-5.757-4.666-10.43-10.43-10.43c-5.755,0-10.43,4.673-10.43,10.43
		c0,5.762,4.675,10.428,10.43,10.428C2395.099,7140.172,2399.765,7135.506,2399.765,7129.744"/>
	<path style="fill:#FFFFFF;" d="M1763.594,6729.878c0-5.757-4.666-10.43-10.43-10.43c-5.755,0-10.43,4.673-10.43,10.43
		c0,5.762,4.675,10.428,10.43,10.428C1758.928,6740.307,1763.594,6735.64,1763.594,6729.878"/>
	<path style="fill:#FFFFFF;" d="M1883.664,7215.27c0-4.803-3.901-8.704-8.703-8.704c-4.812,0-8.703,3.901-8.703,8.704
		c0,4.812,3.892,8.706,8.703,8.706C1879.764,7223.975,1883.664,7220.082,1883.664,7215.27"/>
	<path style="fill:#FFFFFF;" d="M849.557,6981.355c0-4.803-3.901-8.704-8.703-8.704c-4.812,0-8.703,3.9-8.703,8.704
		c0,4.812,3.891,8.705,8.703,8.705C845.657,6990.06,849.557,6986.167,849.557,6981.355"/>
	<path style="fill:#FFFFFF;" d="M282.521,7114.079c0-6.543-5.299-11.841-11.845-11.841c-6.543,0-11.836,5.297-11.836,11.841
		c0,6.543,5.293,11.843,11.836,11.843C277.222,7125.921,282.521,7120.622,282.521,7114.079"/>
	<path style="fill:#FFFFFF;" d="M1017.388,7114.079c0-5.758-4.666-10.431-10.43-10.431c-5.755,0-10.43,4.673-10.43,10.431
		c0,5.762,4.675,10.428,10.43,10.428C1012.722,7124.506,1017.388,7119.84,1017.388,7114.079"/>
	<path style="fill:#FFFFFF;" d="M1262.078,4416.746c0-4.609-3.741-8.343-8.348-8.343c-4.609,0-8.344,3.734-8.344,8.343
		c0,4.614,3.734,8.348,8.344,8.348C1258.337,4425.094,1262.078,4421.359,1262.078,4416.746"/>
	<path style="fill:#FFFFFF;" d="M976.608,4248.09c0-4.803-3.9-8.703-8.703-8.703c-4.812,0-8.703,3.9-8.703,8.703
		c0,4.812,3.892,8.706,8.703,8.706C972.707,4256.795,976.608,4252.902,976.608,4248.09"/>
	<path style="fill:#FFFFFF;" d="M2293.564,3816.997c0-6.99-5.655-12.647-12.631-12.647c-6.99,0-12.645,5.657-12.645,12.647
		c0,6.976,5.655,12.636,12.645,12.636C2287.909,3829.633,2293.564,3823.973,2293.564,3816.997"/>
	<path style="fill:#FFFFFF;" d="M1826.876,4505.116c0-4.609-3.741-8.343-8.348-8.343c-4.612,0-8.344,3.734-8.344,8.343
		c0,4.614,3.732,8.348,8.344,8.348C1823.135,4513.464,1826.876,4509.73,1826.876,4505.116"/>
	<path style="fill:#FFFFFF;" d="M2673.287,3786.332c0-6.99-5.655-12.647-12.631-12.647c-6.99,0-12.645,5.657-12.645,12.647
		c0,6.976,5.655,12.636,12.645,12.636C2667.632,3798.968,2673.287,3793.309,2673.287,3786.332"/>
	<path style="fill:#FFFFFF;" d="M1769.65,4242.61c0-5.425-4.402-9.831-9.829-9.831c-5.432,0-9.829,4.406-9.829,9.831
		c0,5.432,4.397,9.831,9.829,9.831C1765.249,4252.441,1769.65,4248.042,1769.65,4242.61"/>
	<path style="fill:#FFFFFF;" d="M458.208,4333.364c0-4.803-3.901-8.703-8.703-8.703c-4.812,0-8.703,3.9-8.703,8.703
		c0,4.812,3.892,8.706,8.703,8.706C454.307,4342.07,458.208,4338.176,458.208,4333.364"/>
	<path style="fill:#FFFFFF;" d="M640.455,4412.847c0-4.609-3.741-8.343-8.348-8.343c-4.609,0-8.343,3.734-8.343,8.343
		c0,4.614,3.734,8.348,8.343,8.348C636.714,4421.195,640.455,4417.461,640.455,4412.847"/>
	<path style="fill:#FFFFFF;" d="M504.155,4047.476c0-4.803-3.901-8.703-8.703-8.703c-4.812,0-8.703,3.9-8.703,8.703
		c0,4.812,3.892,8.706,8.703,8.706C500.254,4056.181,504.155,4052.288,504.155,4047.476"/>
	<path style="fill:#FFFFFF;" d="M637.892,3854.421c0-3.192-2.593-5.778-5.785-5.778c-3.194,0-5.78,2.586-5.78,5.778
		s2.586,5.778,5.78,5.778C635.299,3860.199,637.892,3857.613,637.892,3854.421"/>
	<path style="fill:#FFFFFF;" d="M1638.287,4273.375c0-5.425-4.402-9.831-9.829-9.831c-5.432,0-9.829,4.406-9.829,9.831
		c0,5.432,4.397,9.832,9.829,9.832C1633.885,4283.207,1638.287,4278.807,1638.287,4273.375"/>
	<path style="fill:#FFFFFF;" d="M2484.149,4495.27c0-6.703-5.436-12.142-12.148-12.142c-6.703,0-12.139,5.438-12.139,12.142
		c0,6.709,5.436,12.146,12.139,12.146C2478.712,4507.415,2484.149,4501.979,2484.149,4495.27"/>
	<path style="fill:#FFFFFF;" d="M909.854,4968.829c0-5.864-4.753-10.615-10.617-10.615c-5.862,0-10.617,4.75-10.617,10.615
		c0,5.865,4.755,10.617,10.617,10.617C905.101,4979.446,909.854,4974.693,909.854,4968.829"/>
	<path style="fill:#FFFFFF;" d="M108.972,3421.815c0-5.461-4.429-9.895-9.895-9.895c-5.461,0-9.888,4.434-9.888,9.895
		s4.427,9.888,9.888,9.888C104.543,3431.703,108.972,3427.276,108.972,3421.815"/>
	<path style="fill:#FFFFFF;" d="M2408.354,4338.652c0-6.89-5.587-12.48-12.476-12.48c-6.895,0-12.477,5.591-12.477,12.48
		c0,6.892,5.582,12.474,12.477,12.474C2402.768,4351.126,2408.354,4345.544,2408.354,4338.652"/>
	<path style="fill:#FFFFFF;" d="M968.622,2978.388c0-4.803-3.901-8.703-8.703-8.703c-4.812,0-8.703,3.9-8.703,8.703
		c0,4.812,3.891,8.707,8.703,8.707C964.721,2987.095,968.622,2983.2,968.622,2978.388"/>
	<path style="fill:#FFFFFF;" d="M1209.992,3156.803c0-4.803-3.901-8.703-8.703-8.703c-4.812,0-8.703,3.901-8.703,8.703
		c0,4.812,3.891,8.706,8.703,8.706C1206.091,3165.509,1209.992,3161.615,1209.992,3156.803"/>
	<path style="fill:#FFFFFF;" d="M1122.976,2681.169c0-4.803-3.9-8.703-8.703-8.703c-4.812,0-8.703,3.9-8.703,8.703
		c0,4.812,3.892,8.706,8.703,8.706C1119.076,2689.875,1122.976,2685.981,1122.976,2681.169"/>
	<path style="fill:#FFFFFF;" d="M2670.434,2375.859c0-6.99-5.655-12.647-12.631-12.647c-6.99,0-12.645,5.657-12.645,12.647
		c0,6.976,5.655,12.636,12.645,12.636C2664.779,2388.495,2670.434,2382.835,2670.434,2375.859"/>
	<path style="fill:#FFFFFF;" d="M898.687,2164.659c0-1.609-1.306-2.909-2.907-2.909c-1.606,0-2.912,1.301-2.912,2.909
		c0,1.604,1.305,2.905,2.912,2.905C897.381,2167.564,898.687,2166.263,898.687,2164.659"/>
	<path style="fill:#FFFFFF;" d="M2429.45,2672.959c0-5.425-4.402-9.831-9.829-9.831c-5.432,0-9.829,4.406-9.829,9.831
		c0,5.432,4.397,9.831,9.829,9.831C2425.048,2682.79,2429.45,2678.391,2429.45,2672.959"/>
	<path style="fill:#FFFFFF;" d="M1980.617,3426.349c0-5.425-4.402-9.831-9.829-9.831c-5.436,0-9.833,4.406-9.833,9.831
		c0,5.431,4.397,9.831,9.833,9.831C1976.216,3436.18,1980.617,3431.781,1980.617,3426.349"/>
	<path style="fill:#FFFFFF;" d="M1320.715,2637.371c0-5.758-4.666-10.43-10.43-10.43c-5.755,0-10.43,4.673-10.43,10.43
		c0,5.762,4.675,10.428,10.43,10.428C1316.049,2647.799,1320.715,2643.133,1320.715,2637.371"/>
	<path style="fill:#FFFFFF;" d="M364.778,2746.054c0-2.844-2.301-5.145-5.144-5.145c-2.841,0-5.142,2.301-5.142,5.145
		c0,2.843,2.301,5.144,5.142,5.144C362.477,2751.198,364.778,2748.897,364.778,2746.054"/>
	<path style="fill:#FFFFFF;" d="M1474.992,2441.549c0-5.758-4.666-10.43-10.43-10.43c-5.755,0-10.43,4.673-10.43,10.43
		c0,5.762,4.675,10.428,10.43,10.428C1470.326,2451.977,1474.992,2447.31,1474.992,2441.549"/>
	<path style="fill:#FFFFFF;" d="M758.099,2910.389c0-4.609-3.741-8.343-8.348-8.343c-4.609,0-8.343,3.734-8.343,8.343
		c0,4.614,3.734,8.348,8.343,8.348C754.358,2918.738,758.099,2915.003,758.099,2910.389"/>
	<path style="fill:#FFFFFF;" d="M415.884,2628.666c0-4.803-3.901-8.703-8.703-8.703c-4.812,0-8.703,3.9-8.703,8.703
		c0,4.812,3.891,8.706,8.703,8.706C411.983,2637.371,415.884,2633.478,415.884,2628.666"/>
	<path style="fill:#FFFFFF;" d="M129.956,4031.074c0-4.802-3.9-8.703-8.703-8.703c-4.812,0-8.703,3.901-8.703,8.703
		c0,4.812,3.892,8.706,8.703,8.706C126.056,4039.78,129.956,4035.886,129.956,4031.074"/>
	<path style="fill:#FFFFFF;" d="M725.665,2447.898c0-2.276-1.836-4.115-4.11-4.115c-2.269,0-4.11,1.839-4.11,4.115
		c0,2.267,1.841,4.105,4.11,4.105C723.828,2452.004,725.665,2450.165,725.665,2447.898"/>
	<path style="fill:#FFFFFF;" d="M142.969,2879.66c0-2.843-2.301-5.144-5.145-5.144c-2.841,0-5.142,2.301-5.142,5.144
		c0,2.844,2.301,5.145,5.142,5.145C140.668,2884.804,142.969,2882.503,142.969,2879.66"/>
	<path style="fill:#FFFFFF;" d="M1413.139,3416.518c0-5.425-4.402-9.831-9.829-9.831c-5.436,0-9.833,4.406-9.833,9.831
		c0,5.432,4.397,9.831,9.833,9.831C1408.737,3426.349,1413.139,3421.95,1413.139,3416.518"/>
	<path style="fill:#FFFFFF;" d="M1221.874,6020.941c0-5.425-4.402-9.831-9.829-9.831c-5.434,0-9.831,4.406-9.831,9.831
		c0,5.432,4.397,9.832,9.831,9.832C1217.473,6030.773,1221.874,6026.373,1221.874,6020.941"/>
	<path style="fill:#FFFFFF;" d="M888.695,6564.297c0-4.803-3.901-8.704-8.703-8.704c-4.812,0-8.703,3.9-8.703,8.704
		c0,4.812,3.892,8.706,8.703,8.706C884.795,6573.003,888.695,6569.109,888.695,6564.297"/>
	<path style="fill:#FFFFFF;" d="M958.45,6732.651c0-4.803-3.901-8.704-8.703-8.704c-4.812,0-8.703,3.901-8.703,8.704
		c0,4.812,3.891,8.706,8.703,8.706C954.549,6741.357,958.45,6737.463,958.45,6732.651"/>
	<path style="fill:#FFFFFF;" d="M262.347,6589.053c0-5.757-4.666-10.43-10.43-10.43c-5.755,0-10.43,4.673-10.43,10.43
		c0,5.762,4.675,10.428,10.43,10.428C257.681,6599.481,262.347,6594.815,262.347,6589.053"/>
	<path style="fill:#FFFFFF;" d="M2327.73,6495.321c0-6.703-5.441-12.141-12.148-12.141c-6.703,0-12.144,5.438-12.144,12.141
		c0,6.709,5.441,12.146,12.144,12.146C2322.289,6507.467,2327.73,6502.031,2327.73,6495.321"/>
	<path style="fill:#FFFFFF;" d="M2673.287,6303.21c0-6.99-5.655-12.647-12.631-12.647c-6.99,0-12.645,5.657-12.645,12.647
		c0,6.976,5.655,12.636,12.645,12.636C2667.632,6315.846,2673.287,6310.186,2673.287,6303.21"/>
	<path style="fill:#FFFFFF;" d="M451.792,6463.736c0-6.543-5.299-11.84-11.845-11.84c-6.543,0-11.836,5.297-11.836,11.84
		s5.293,11.843,11.836,11.843C446.492,6475.579,451.792,6470.28,451.792,6463.736"/>
	<path style="fill:#FFFFFF;" d="M37.34,6594.195c0-2.843-2.301-5.145-5.145-5.145c-2.841,0-5.142,2.301-5.142,5.145
		s2.301,5.145,5.142,5.145C35.039,6599.34,37.34,6597.039,37.34,6594.195"/>
	<path style="fill:#FFFFFF;" d="M129.956,6547.951c0-4.802-3.9-8.703-8.703-8.703c-4.812,0-8.703,3.901-8.703,8.703
		c0,4.812,3.892,8.706,8.703,8.706C126.056,6556.657,129.956,6552.763,129.956,6547.951"/>
	<path style="fill:#FFFFFF;" d="M1413.139,5933.396c0-5.425-4.402-9.831-9.829-9.831c-5.436,0-9.833,4.406-9.833,9.831
		c0,5.432,4.397,9.832,9.833,9.832C1408.737,5943.227,1413.139,5938.827,1413.139,5933.396"/>
	<path style="fill:#FFFFFF;" d="M472.146,2271.981c0-2.276-1.836-4.115-4.11-4.115c-2.269,0-4.11,1.839-4.11,4.115
		c0,2.267,1.841,4.106,4.11,4.106C470.309,2276.087,472.146,2274.249,472.146,2271.981"/>
	<path style="fill:#FFFFFF;" d="M363.522,2528.049c0-6.543-5.299-11.841-11.845-11.841c-6.543,0-11.836,5.297-11.836,11.841
		s5.293,11.843,11.836,11.843C358.222,2539.892,363.522,2534.592,363.522,2528.049"/>
	<path style="fill:#FFFFFF;" d="M1827.11,7553.287c0-5.757-4.666-10.43-10.43-10.43c-5.755,0-10.43,4.673-10.43,10.43
		c0,5.762,4.675,10.428,10.43,10.428C1822.444,7563.715,1827.11,7559.049,1827.11,7553.287"/>
	<path style="fill:#FFFFFF;" d="M1327.671,9959.121c0-4.276-3.468-7.744-7.742-7.744c-4.279,0-7.746,3.468-7.746,7.744
		s3.468,7.744,7.746,7.744C1324.203,9966.865,1327.671,9963.397,1327.671,9959.121"/>
	<path style="fill:#FFFFFF;" d="M1274.248,8576.182c0-6.544-5.3-11.841-11.845-11.841c-6.543,0-11.836,5.297-11.836,11.841
		c0,6.543,5.293,11.843,11.836,11.843C1268.949,8588.024,1274.248,8582.725,1274.248,8576.182"/>
	<path style="fill:#FFFFFF;" d="M646.21,7296.725c0-5.425-4.402-9.831-9.829-9.831c-5.434,0-9.831,4.406-9.831,9.831
		c0,5.432,4.397,9.831,9.831,9.831C641.808,7306.556,646.21,7302.157,646.21,7296.725"/>
	<path style="fill:#FFFFFF;" d="M1599.974,5723.661c0-4.609-3.741-8.343-8.348-8.343s-8.343,3.734-8.343,8.343
		c0,4.614,3.736,8.348,8.343,8.348S1599.974,5728.274,1599.974,5723.661"/>
	<path style="fill:#FFFFFF;" d="M1186.073,7635.508c0-3.903-3.162-7.065-7.068-7.065c-3.91,0-7.077,3.163-7.077,7.065
		c0,3.907,3.167,7.07,7.077,7.07C1182.911,7642.578,1186.073,7639.416,1186.073,7635.508"/>
	<path style="fill:#FFFFFF;" d="M977.683,5644.46c0-4.803-3.901-8.703-8.703-8.703c-4.812,0-8.703,3.9-8.703,8.703
		c0,4.812,3.891,8.706,8.703,8.706C973.783,5653.166,977.683,5649.272,977.683,5644.46"/>
	<path style="fill:#FFFFFF;" d="M443.009,5770.652c0-5.04-4.076-9.123-9.12-9.123c-5.042,0-9.118,4.083-9.118,9.123
		c0,5.031,4.076,9.121,9.118,9.121C438.933,5779.772,443.009,5775.683,443.009,5770.652"/>
	<path style="fill:#FFFFFF;" d="M2560.134,7788.614c0-5.796-4.703-10.494-10.499-10.494c-5.787,0-10.485,4.698-10.485,10.494
		c0,5.787,4.698,10.485,10.485,10.485C2555.432,7799.099,2560.134,7794.401,2560.134,7788.614"/>
	<path style="fill:#FFFFFF;" d="M1871.534,3924.394c0-5.758-4.666-10.43-10.43-10.43c-5.755,0-10.43,4.673-10.43,10.43
		c0,5.762,4.675,10.428,10.43,10.428C1866.868,3934.822,1871.534,3930.156,1871.534,3924.394"/>
	<path style="fill:#FFFFFF;" d="M660.081,4164.754c0-4.803-3.901-8.704-8.703-8.704c-4.812,0-8.703,3.901-8.703,8.704
		c0,4.812,3.892,8.706,8.703,8.706C656.18,4173.46,660.081,4169.566,660.081,4164.754"/>
	<path style="fill:#FFFFFF;" d="M1221.874,3504.064c0-5.425-4.402-9.831-9.829-9.831c-5.434,0-9.831,4.406-9.831,9.831
		c0,5.432,4.397,9.831,9.831,9.831C1217.473,3513.895,1221.874,3509.496,1221.874,3504.064"/>
	<path style="fill:#FFFFFF;" d="M473.499,3389.469c0-5.04-4.076-9.122-9.12-9.122c-5.042,0-9.118,4.083-9.118,9.122
		c0,5.031,4.076,9.12,9.118,9.12C469.423,3398.59,473.499,3394.5,473.499,3389.469"/>
	<path style="fill:#FFFFFF;" d="M2414.021,4118.713c0-6.703-5.436-12.142-12.148-12.142c-6.703,0-12.139,5.438-12.139,12.142
		c0,6.709,5.436,12.146,12.139,12.146C2408.584,4130.859,2414.021,4125.423,2414.021,4118.713"/>
	<path style="fill:#FFFFFF;" d="M2367.802,5160.052c0-5.758-4.666-10.431-10.43-10.431c-5.755,0-10.43,4.673-10.43,10.431
		c0,5.762,4.675,10.428,10.43,10.428C2363.136,5170.479,2367.802,5165.813,2367.802,5160.052"/>
	<path style="fill:#FFFFFF;" d="M1379.512,4495.887c0-5.425-4.402-9.831-9.829-9.831c-5.434,0-9.831,4.406-9.831,9.831
		c0,5.432,4.397,9.831,9.831,9.831C1375.11,4505.718,1379.512,4501.318,1379.512,4495.887"/>
	<path style="fill:#FFFFFF;" d="M2369.597,5315.718c0-6.703-5.441-12.142-12.148-12.142c-6.703,0-12.144,5.438-12.144,12.142
		c0,6.71,5.441,12.146,12.144,12.146C2364.156,5327.864,2369.597,5322.428,2369.597,5315.718"/>
	<path style="fill:#FFFFFF;" d="M1485.714,4280.192c0-4.803-3.901-8.703-8.703-8.703c-4.812,0-8.703,3.9-8.703,8.703
		c0,4.812,3.891,8.706,8.703,8.706C1481.814,4288.897,1485.714,4285.004,1485.714,4280.192"/>
	<path style="fill:#FFFFFF;" d="M623.907,4496.775c0-5.04-4.076-9.123-9.12-9.123c-5.042,0-9.118,4.083-9.118,9.123
		c0,5.03,4.076,9.12,9.118,9.12C619.831,4505.896,623.907,4501.806,623.907,4496.775"/>
	<path style="fill:#FFFFFF;" d="M2399.765,5435.277c0-5.757-4.666-10.43-10.43-10.43c-5.755,0-10.43,4.673-10.43,10.43
		c0,5.762,4.675,10.428,10.43,10.428C2395.099,5445.706,2399.765,5441.04,2399.765,5435.277"/>
	<path style="fill:#FFFFFF;" d="M1557.993,5639.443c0-4.609-3.741-8.343-8.348-8.343c-4.611,0-8.343,3.734-8.343,8.343
		c0,4.614,3.732,8.348,8.343,8.348C1554.252,5647.792,1557.993,5644.057,1557.993,5639.443"/>
	<path style="fill:#FFFFFF;" d="M1340.656,5622.395c0-4.803-3.901-8.703-8.703-8.703c-4.812,0-8.703,3.9-8.703,8.703
		c0,4.812,3.891,8.706,8.703,8.706C1336.755,5631.1,1340.656,5627.207,1340.656,5622.395"/>
	<path style="fill:#FFFFFF;" d="M1487.963,4766.039c0-5.424-4.402-9.831-9.829-9.831c-5.432,0-9.829,4.407-9.829,9.831
		c0,5.432,4.397,9.831,9.829,9.831C1483.561,4775.87,1487.963,4771.47,1487.963,4766.039"/>
	<path style="fill:#FFFFFF;" d="M2128.298,4510.974c0-0.392-0.323-0.711-0.715-0.711c-0.397,0-0.716,0.319-0.716,0.711
		c0,0.396,0.319,0.713,0.716,0.713C2127.975,4511.687,2128.298,4511.37,2128.298,4510.974"/>
	<path style="fill:#FFFFFF;" d="M2140.262,4436.633c0-4.803-3.9-8.703-8.703-8.703c-4.812,0-8.704,3.9-8.704,8.703
		c0,4.812,3.892,8.706,8.704,8.706C2136.362,4445.339,2140.262,4441.445,2140.262,4436.633"/>
	<path style="fill:#FFFFFF;" d="M842.31,4854.491c0-5.04-4.076-9.122-9.12-9.122c-5.042,0-9.118,4.083-9.118,9.122
		c0,5.031,4.076,9.121,9.118,9.121C838.234,4863.612,842.31,4859.522,842.31,4854.491"/>
	<path style="fill:#FFFFFF;" d="M140.387,5080.227c0-5.758-4.666-10.431-10.43-10.431c-5.755,0-10.43,4.673-10.43,10.431
		c0,5.762,4.675,10.428,10.43,10.428C135.721,5090.655,140.387,5085.989,140.387,5080.227"/>
	<path style="fill:#FFFFFF;" d="M383.541,7501.752c0-5.461-4.429-9.895-9.895-9.895c-5.461,0-9.888,4.434-9.888,9.895
		s4.427,9.888,9.888,9.888C379.112,7511.641,383.541,7507.214,383.541,7501.752"/>
	<path style="fill:#FFFFFF;" d="M2145.86,5799.788c0-4.609-3.741-8.343-8.348-8.343s-8.344,3.734-8.344,8.343
		c0,4.614,3.737,8.348,8.344,8.348S2145.86,5804.401,2145.86,5799.788"/>
	<path style="fill:#FFFFFF;" d="M1883.664,5520.803c0-4.803-3.901-8.704-8.703-8.704c-4.812,0-8.703,3.9-8.703,8.704
		c0,4.812,3.892,8.705,8.703,8.705C1879.764,5529.508,1883.664,5525.614,1883.664,5520.803"/>
	<path style="fill:#FFFFFF;" d="M546.548,5140.918c0-4.803-3.901-8.704-8.703-8.704c-4.812,0-8.703,3.901-8.703,8.704
		c0,4.812,3.892,8.706,8.703,8.706C542.647,5149.624,546.548,5145.73,546.548,5140.918"/>
	<path style="fill:#FFFFFF;" d="M1953.079,4922.172c0-5.757-4.666-10.43-10.43-10.43c-5.755,0-10.43,4.673-10.43,10.43
		c0,5.762,4.675,10.428,10.43,10.428C1948.413,4932.601,1953.079,4927.935,1953.079,4922.172"/>
	<path style="fill:#FFFFFF;" d="M849.557,5286.888c0-4.803-3.901-8.703-8.703-8.703c-4.812,0-8.703,3.9-8.703,8.703
		c0,4.812,3.891,8.706,8.703,8.706C845.657,5295.593,849.557,5291.7,849.557,5286.888"/>
	<path style="fill:#FFFFFF;" d="M680.285,4947.863c0-3.192-2.593-5.778-5.785-5.778c-3.194,0-5.78,2.586-5.78,5.778
		s2.586,5.778,5.78,5.778C677.693,4953.641,680.285,4951.055,680.285,4947.863"/>
	<path style="fill:#FFFFFF;" d="M1706.323,5496.005c0-5.425-4.402-9.831-9.829-9.831c-5.436,0-9.834,4.406-9.834,9.831
		c0,5.432,4.397,9.831,9.834,9.831C1701.921,5505.836,1706.323,5501.437,1706.323,5496.005"/>
	<path style="fill:#FFFFFF;" d="M2169.468,6802.394c0-5.757-4.666-10.43-10.43-10.43c-5.755,0-10.43,4.673-10.43,10.43
		c0,5.762,4.675,10.428,10.43,10.428C2164.802,6812.822,2169.468,6808.156,2169.468,6802.394"/>
	<path style="fill:#FFFFFF;" d="M500.601,7074.612c0-4.803-3.901-8.703-8.703-8.703c-4.812,0-8.703,3.9-8.703,8.703
		c0,4.812,3.892,8.706,8.703,8.706C496.701,7083.318,500.601,7079.424,500.601,7074.612"/>
	<path style="fill:#FFFFFF;" d="M546.548,6835.385c0-4.803-3.901-8.703-8.703-8.703c-4.812,0-8.703,3.9-8.703,8.703
		c0,4.812,3.892,8.706,8.703,8.706C542.647,6844.09,546.548,6840.197,546.548,6835.385"/>
	<path style="fill:#FFFFFF;" d="M1555.036,7151.688c0-5.425-4.402-9.832-9.829-9.832c-5.432,0-9.829,4.407-9.829,9.832
		c0,5.431,4.397,9.831,9.829,9.831C1550.634,7161.518,1555.036,7157.119,1555.036,7151.688"/>
	<path style="fill:#FFFFFF;" d="M1706.323,7190.472c0-5.425-4.402-9.831-9.829-9.831c-5.436,0-9.834,4.406-9.834,9.831
		c0,5.432,4.397,9.832,9.834,9.832C1701.921,7200.303,1706.323,7195.903,1706.323,7190.472"/>
	<path style="fill:#FFFFFF;" d="M1087.99,6854.519c0-5.425-4.402-9.831-9.829-9.831c-5.432,0-9.829,4.406-9.829,9.831
		c0,5.432,4.397,9.831,9.829,9.831C1083.588,6864.35,1087.99,6859.95,1087.99,6854.519"/>
	<path style="fill:#FFFFFF;" d="M2173.098,4311.019c0-5.758-4.666-10.431-10.43-10.431c-5.755,0-10.43,4.673-10.43,10.431
		c0,5.762,4.675,10.428,10.43,10.428C2168.432,4321.446,2173.098,4316.78,2173.098,4311.019"/>
	<path style="fill:#FFFFFF;" d="M181.428,4651.016c0-5.425-4.402-9.831-9.829-9.831c-5.434,0-9.831,4.406-9.831,9.831
		c0,5.432,4.397,9.831,9.831,9.831C177.026,4660.847,181.428,4656.447,181.428,4651.016"/>
	<path style="fill:#FFFFFF;" d="M1252.918,4530.769c0-4.609-3.741-8.344-8.348-8.344s-8.343,3.734-8.343,8.344
		c0,4.613,3.737,8.348,8.343,8.348S1252.918,4535.382,1252.918,4530.769"/>
	<path style="fill:#FFFFFF;" d="M1444.369,4077.316c0-4.609-3.741-8.344-8.348-8.344c-4.612,0-8.344,3.734-8.344,8.344
		c0,4.614,3.732,8.348,8.344,8.348C1440.628,4085.663,1444.369,4081.929,1444.369,4077.316"/>
	<path style="fill:#FFFFFF;" d="M867.914,4202.149c0-4.803-3.901-8.703-8.703-8.703c-4.812,0-8.703,3.9-8.703,8.703
		c0,4.812,3.891,8.706,8.703,8.706C864.013,4210.854,867.914,4206.961,867.914,4202.149"/>
	<path style="fill:#FFFFFF;" d="M290.859,4253.234c0-2.843-2.301-5.145-5.144-5.145c-2.841,0-5.142,2.301-5.142,5.145
		s2.301,5.145,5.142,5.145C288.558,4258.379,290.859,4256.078,290.859,4253.234"/>
	<path style="fill:#FFFFFF;" d="M37.34,4077.318c0-2.843-2.301-5.144-5.145-5.144c-2.841,0-5.142,2.301-5.142,5.144
		c0,2.844,2.301,5.145,5.142,5.145C35.039,4082.462,37.34,4080.161,37.34,4077.318"/>
	<path style="fill:#FFFFFF;" d="M1469.31,3258.069c0-4.609-3.741-8.343-8.348-8.343c-4.607,0-8.343,3.734-8.343,8.343
		c0,4.614,3.737,8.348,8.343,8.348C1465.569,3266.417,1469.31,3262.683,1469.31,3258.069"/>
	<path style="fill:#FFFFFF;" d="M202.272,3304.644c0-5.04-4.076-9.122-9.12-9.122c-5.042,0-9.118,4.083-9.118,9.122
		c0,5.031,4.076,9.12,9.118,9.12C198.196,3313.764,202.272,3309.674,202.272,3304.644"/>
	<path style="fill:#FFFFFF;" d="M2125.872,2751.199c0-5.758-4.666-10.43-10.43-10.43c-5.755,0-10.43,4.673-10.43,10.43
		c0,5.762,4.675,10.428,10.43,10.428C2121.206,2761.627,2125.872,2756.961,2125.872,2751.199"/>
	<path style="fill:#FFFFFF;" d="M1122.619,2771.193c0-4.609-3.741-8.343-8.348-8.343c-4.609,0-8.344,3.734-8.344,8.343
		c0,4.614,3.734,8.348,8.344,8.348C1118.878,2779.541,1122.619,2775.807,1122.619,2771.193"/>
	<path style="fill:#FFFFFF;" d="M2416.914,2199.942c0-6.99-5.655-12.647-12.631-12.647c-6.99,0-12.645,5.657-12.645,12.647
		c0,6.976,5.655,12.636,12.645,12.636C2411.259,2212.578,2416.914,2206.918,2416.914,2199.942"/>
	<path style="fill:#FFFFFF;" d="M1658.822,2162.085c0-2.16-1.75-3.914-3.91-3.914s-3.914,1.754-3.914,3.914
		c0,2.151,1.754,3.91,3.914,3.91S1658.822,2164.236,1658.822,2162.085"/>
	<path style="fill:#FFFFFF;" d="M303.226,2243.898c0-5.461-4.429-9.895-9.895-9.895c-5.461,0-9.888,4.434-9.888,9.895
		s4.427,9.888,9.888,9.888C298.797,2253.787,303.226,2249.36,303.226,2243.898"/>
	<path style="fill:#FFFFFF;" d="M660.765,2161.75c0-5.04-4.076-9.123-9.12-9.123c-5.042,0-9.118,4.083-9.118,9.123
		c0,5.031,4.076,9.12,9.118,9.12C656.689,2170.87,660.765,2166.781,660.765,2161.75"/>
	<path style="fill:#FFFFFF;" d="M1840.081,3079.175c0-5.425-4.402-9.831-9.829-9.831c-5.432,0-9.829,4.406-9.829,9.831
		c0,5.432,4.397,9.831,9.829,9.831C1835.679,3089.006,1840.081,3084.607,1840.081,3079.175"/>
	<path style="fill:#FFFFFF;" d="M736.005,3131.796c0-2.843-2.301-5.145-5.145-5.145c-2.841,0-5.142,2.301-5.142,5.145
		c0,2.844,2.301,5.145,5.142,5.145C733.704,3136.94,736.005,3134.639,736.005,3131.796"/>
	<path style="fill:#FFFFFF;" d="M2747.172,2628.667c0-5.425-4.402-9.831-9.829-9.831c-5.436,0-9.834,4.406-9.834,9.831
		c0,5.432,4.397,9.831,9.834,9.831C2742.77,2638.498,2747.172,2634.098,2747.172,2628.667"/>
	<path style="fill:#FFFFFF;" d="M2015.196,3334.196c0-4.609-3.741-8.343-8.348-8.343c-4.607,0-8.343,3.734-8.343,8.343
		c0,4.614,3.736,8.348,8.343,8.348C2011.455,3342.544,2015.196,3338.81,2015.196,3334.196"/>
	<path style="fill:#FFFFFF;" d="M1797.863,3317.147c0-4.803-3.901-8.704-8.703-8.704c-4.812,0-8.703,3.901-8.703,8.704
		c0,4.812,3.891,8.706,8.703,8.706C1793.963,3325.853,1797.863,3321.959,1797.863,3317.147"/>
	<path style="fill:#FFFFFF;" d="M887.854,2359.528c0-2.276-1.837-4.115-4.11-4.115c-2.269,0-4.11,1.839-4.11,4.115
		c0,2.267,1.841,4.105,4.11,4.105C886.018,2363.633,887.854,2361.794,887.854,2359.528"/>
	<path style="fill:#FFFFFF;" d="M616.862,2428.498c0-1.44-1.171-2.615-2.616-2.615c-1.445,0-2.616,1.176-2.616,2.615
		c0,1.445,1.171,2.62,2.616,2.62C615.69,2431.118,616.862,2429.943,616.862,2428.498"/>
	<path style="fill:#FFFFFF;" d="M1200.954,2346.965c0-6.703-5.441-12.141-12.148-12.141c-6.703,0-12.144,5.438-12.144,12.141
		c0,6.71,5.441,12.146,12.144,12.146C1195.514,2359.111,1200.954,2353.675,1200.954,2346.965"/>
	<path style="fill:#FFFFFF;" d="M1822.415,2409.92c0-5.758-4.666-10.43-10.43-10.43c-5.755,0-10.43,4.673-10.43,10.43
		c0,5.762,4.675,10.428,10.43,10.428C1817.749,2420.348,1822.415,2415.682,1822.415,2409.92"/>
	<path style="fill:#FFFFFF;" d="M659.992,3786.23c0-4.609-3.741-8.344-8.348-8.344c-4.611,0-8.343,3.734-8.343,8.344
		c0,4.614,3.732,8.348,8.343,8.348C656.251,3794.578,659.992,3790.844,659.992,3786.23"/>
	<path style="fill:#FFFFFF;" d="M798.31,315.2c0-3.192-2.593-5.778-5.785-5.778c-3.194,0-5.78,2.586-5.78,5.778
		c0,3.192,2.586,5.778,5.78,5.778C795.717,320.978,798.31,318.392,798.31,315.2"/>
	<path style="fill:#FFFFFF;" d="M796.078,1065.318c0-1.609-1.305-2.91-2.907-2.91c-1.606,0-2.912,1.301-2.912,2.91
		c0,1.604,1.306,2.905,2.912,2.905C794.772,1068.223,796.078,1066.922,796.078,1065.318"/>
	<path style="fill:#FFFFFF;" d="M1864.923,684.543c0-6.89-5.586-12.481-12.476-12.481c-6.894,0-12.476,5.591-12.476,12.481
		c0,6.892,5.582,12.474,12.476,12.474C1859.336,697.017,1864.923,691.435,1864.923,684.543"/>
	<path style="fill:#FFFFFF;" d="M1807.248,982.213c0-0.392-0.324-0.711-0.715-0.711c-0.397,0-0.716,0.319-0.716,0.711
		c0,0.396,0.319,0.713,0.716,0.713C1806.925,982.926,1807.248,982.609,1807.248,982.213"/>
	<path style="fill:#FFFFFF;" d="M2059.146,745.995c0-5.757-4.666-10.431-10.43-10.431c-5.755,0-10.43,4.673-10.43,10.431
		c0,5.762,4.675,10.428,10.43,10.428C2054.48,756.423,2059.146,751.757,2059.146,745.995"/>
	<path style="fill:#FFFFFF;" d="M303.787,1005.12c0-6.543-5.299-11.841-11.845-11.841c-6.543,0-11.836,5.297-11.836,11.841
		s5.293,11.843,11.836,11.843C298.487,1016.962,303.787,1011.663,303.787,1005.12"/>
	<path style="fill:#FFFFFF;" d="M2747.412,725.993c0-6.703-5.441-12.141-12.148-12.141c-6.703,0-12.144,5.439-12.144,12.141
		c0,6.71,5.441,12.146,12.144,12.146C2741.971,738.139,2747.412,732.703,2747.412,725.993"/>
	<path style="fill:#FFFFFF;" d="M1282.324,981.069c0-4.609-3.741-8.343-8.348-8.343c-4.609,0-8.343,3.734-8.343,8.343
		c0,4.614,3.734,8.348,8.343,8.348C1278.583,989.417,1282.324,985.683,1282.324,981.069"/>
	<path style="fill:#FFFFFF;" d="M996.854,812.414c0-4.803-3.9-8.703-8.703-8.703c-4.812,0-8.703,3.901-8.703,8.703
		c0,4.812,3.892,8.706,8.703,8.706C992.953,821.119,996.854,817.225,996.854,812.414"/>
	<path style="fill:#FFFFFF;" d="M2313.81,381.321c0-6.99-5.655-12.647-12.631-12.647c-6.99,0-12.645,5.657-12.645,12.647
		c0,6.976,5.655,12.636,12.645,12.636C2308.155,393.956,2313.81,388.297,2313.81,381.321"/>
	<path style="fill:#FFFFFF;" d="M1847.122,1069.44c0-4.609-3.741-8.343-8.348-8.343c-4.611,0-8.343,3.734-8.343,8.343
		c0,4.614,3.732,8.348,8.343,8.348C1843.381,1077.788,1847.122,1074.054,1847.122,1069.44"/>
	<path style="fill:#FFFFFF;" d="M2693.533,350.656c0-6.99-5.655-12.647-12.631-12.647c-6.99,0-12.645,5.657-12.645,12.647
		c0,6.976,5.655,12.636,12.645,12.636C2687.878,363.292,2693.533,357.632,2693.533,350.656"/>
	<path style="fill:#FFFFFF;" d="M1789.896,806.934c0-5.425-4.402-9.831-9.829-9.831c-5.432,0-9.829,4.406-9.829,9.831
		c0,5.432,4.397,9.831,9.829,9.831C1785.495,816.765,1789.896,812.366,1789.896,806.934"/>
	<path style="fill:#FFFFFF;" d="M478.454,897.688c0-4.803-3.901-8.703-8.703-8.703c-4.812,0-8.703,3.901-8.703,8.703
		c0,4.812,3.892,8.706,8.703,8.706C474.553,906.394,478.454,902.5,478.454,897.688"/>
	<path style="fill:#FFFFFF;" d="M660.701,977.171c0-4.609-3.741-8.343-8.348-8.343c-4.609,0-8.343,3.734-8.343,8.343
		c0,4.614,3.734,8.348,8.343,8.348C656.96,985.519,660.701,981.785,660.701,977.171"/>
	<path style="fill:#FFFFFF;" d="M524.401,611.799c0-4.803-3.901-8.703-8.703-8.703c-4.812,0-8.703,3.9-8.703,8.703
		c0,4.812,3.892,8.706,8.703,8.706C520.5,620.505,524.401,616.611,524.401,611.799"/>
	<path style="fill:#FFFFFF;" d="M658.138,418.745c0-3.192-2.593-5.778-5.785-5.778c-3.194,0-5.78,2.586-5.78,5.778
		c0,3.192,2.586,5.778,5.78,5.778C655.545,424.523,658.138,421.937,658.138,418.745"/>
	<path style="fill:#FFFFFF;" d="M1658.533,837.699c0-5.425-4.402-9.831-9.829-9.831c-5.432,0-9.829,4.406-9.829,9.831
		c0,5.432,4.397,9.831,9.829,9.831C1654.131,847.53,1658.533,843.13,1658.533,837.699"/>
	<path style="fill:#FFFFFF;" d="M2504.395,1059.593c0-6.703-5.436-12.141-12.148-12.141c-6.703,0-12.139,5.438-12.139,12.141
		c0,6.71,5.436,12.146,12.139,12.146C2498.958,1071.739,2504.395,1066.303,2504.395,1059.593"/>
	<path style="fill:#FFFFFF;" d="M2428.601,902.976c0-6.89-5.587-12.481-12.477-12.481c-6.894,0-12.476,5.591-12.476,12.481
		c0,6.892,5.582,12.474,12.476,12.474C2423.014,915.45,2428.601,909.868,2428.601,902.976"/>
	<path style="fill:#FFFFFF;" d="M150.202,595.397c0-4.803-3.9-8.703-8.703-8.703c-4.812,0-8.703,3.901-8.703,8.703
		c0,4.812,3.892,8.706,8.703,8.706C146.302,604.103,150.202,600.209,150.202,595.397"/>
	<path style="fill:#FFFFFF;" d="M1891.78,488.718c0-5.757-4.666-10.43-10.43-10.43c-5.755,0-10.43,4.673-10.43,10.43
		c0,5.762,4.675,10.428,10.43,10.428C1887.114,499.146,1891.78,494.48,1891.78,488.718"/>
	<path style="fill:#FFFFFF;" d="M680.327,729.078c0-4.803-3.901-8.703-8.703-8.703c-4.812,0-8.703,3.901-8.703,8.703
		c0,4.812,3.892,8.706,8.703,8.706C676.426,737.784,680.327,733.89,680.327,729.078"/>
	<path style="fill:#FFFFFF;" d="M1242.12,68.388c0-5.425-4.402-9.831-9.829-9.831c-5.434,0-9.831,4.406-9.831,9.831
		c0,5.432,4.397,9.831,9.831,9.831C1237.719,78.219,1242.12,73.819,1242.12,68.388"/>
	<path style="fill:#FFFFFF;" d="M2434.267,683.037c0-6.703-5.436-12.141-12.148-12.141c-6.703,0-12.139,5.439-12.139,12.141
		c0,6.71,5.436,12.146,12.139,12.146C2428.831,695.183,2434.267,689.747,2434.267,683.037"/>
	<path style="fill:#FFFFFF;" d="M1399.758,1060.21c0-5.425-4.402-9.831-9.829-9.831c-5.434,0-9.831,4.406-9.831,9.831
		c0,5.432,4.397,9.831,9.831,9.831C1395.356,1070.042,1399.758,1065.642,1399.758,1060.21"/>
	<path style="fill:#FFFFFF;" d="M1505.96,844.516c0-4.803-3.901-8.703-8.703-8.703c-4.812,0-8.703,3.901-8.703,8.703
		c0,4.812,3.891,8.706,8.703,8.706C1502.06,853.221,1505.96,849.328,1505.96,844.516"/>
	<path style="fill:#FFFFFF;" d="M644.153,1061.099c0-5.04-4.076-9.123-9.12-9.123c-5.042,0-9.118,4.083-9.118,9.123
		c0,5.031,4.076,9.12,9.118,9.12C640.077,1070.219,644.153,1066.13,644.153,1061.099"/>
	<path style="fill:#FFFFFF;" d="M2148.544,1075.298c0-0.392-0.324-0.711-0.715-0.711c-0.397,0-0.716,0.319-0.716,0.711
		c0,0.396,0.319,0.713,0.716,0.713C2148.221,1076.011,2148.544,1075.694,2148.544,1075.298"/>
	<path style="fill:#FFFFFF;" d="M2160.508,1000.957c0-4.803-3.9-8.703-8.703-8.703c-4.812,0-8.703,3.901-8.703,8.703
		c0,4.812,3.892,8.706,8.703,8.706C2156.608,1009.663,2160.508,1005.769,2160.508,1000.957"/>
	<path style="fill:#FFFFFF;" d="M2193.344,875.342c0-5.757-4.666-10.43-10.43-10.43c-5.755,0-10.43,4.673-10.43,10.43
		c0,5.762,4.675,10.428,10.43,10.428C2188.677,885.77,2193.344,881.104,2193.344,875.342"/>
	<path style="fill:#FFFFFF;" d="M201.674,1215.339c0-5.425-4.402-9.831-9.829-9.831c-5.434,0-9.831,4.406-9.831,9.831
		c0,5.432,4.397,9.831,9.831,9.831C197.272,1225.171,201.674,1220.771,201.674,1215.339"/>
	<path style="fill:#FFFFFF;" d="M1273.164,1095.092c0-4.609-3.741-8.343-8.348-8.343s-8.343,3.734-8.343,8.343
		c0,4.614,3.737,8.348,8.343,8.348S1273.164,1099.706,1273.164,1095.092"/>
	<path style="fill:#FFFFFF;" d="M1464.615,641.639c0-4.609-3.741-8.343-8.348-8.343c-4.611,0-8.343,3.734-8.343,8.343
		c0,4.614,3.732,8.348,8.343,8.348C1460.874,649.987,1464.615,646.253,1464.615,641.639"/>
	<path style="fill:#FFFFFF;" d="M888.16,766.473c0-4.803-3.901-8.703-8.703-8.703c-4.812,0-8.703,3.901-8.703,8.703
		c0,4.812,3.891,8.706,8.703,8.706C884.26,775.178,888.16,771.285,888.16,766.473"/>
	<path style="fill:#FFFFFF;" d="M311.105,817.558c0-2.844-2.301-5.145-5.144-5.145c-2.841,0-5.142,2.301-5.142,5.145
		c0,2.843,2.301,5.145,5.142,5.145C308.804,822.703,311.105,820.401,311.105,817.558"/>
	<path style="fill:#FFFFFF;" d="M57.586,641.641c0-2.843-2.301-5.144-5.145-5.144c-2.841,0-5.142,2.301-5.142,5.144
		c0,2.844,2.301,5.145,5.142,5.145C55.285,646.786,57.586,644.485,57.586,641.641"/>
	<path style="fill:#FFFFFF;" d="M680.238,350.554c0-4.609-3.741-8.343-8.348-8.343c-4.611,0-8.343,3.734-8.343,8.343
		c0,4.614,3.732,8.348,8.343,8.348C676.497,358.901,680.238,355.167,680.238,350.554"/>
	<path style="fill:#FFFFFF;" d="M797.064,1633.656c0-3.192-2.593-5.778-5.785-5.778c-3.194,0-5.78,2.586-5.78,5.778
		c0,3.192,2.586,5.778,5.78,5.778C794.471,1639.434,797.064,1636.848,797.064,1633.656"/>
	<path style="fill:#FFFFFF;" d="M1066.437,1178.717c0-4.803-3.901-8.703-8.703-8.703c-4.812,0-8.703,3.901-8.703,8.703
		c0,4.812,3.891,8.705,8.703,8.705C1062.537,1187.422,1066.437,1183.529,1066.437,1178.717"/>
	<path style="fill:#FFFFFF;" d="M794.832,2383.775c0-1.609-1.305-2.91-2.907-2.91c-1.606,0-2.912,1.301-2.912,2.91
		c0,1.604,1.306,2.905,2.912,2.905C793.526,2386.679,794.832,2385.379,794.832,2383.775"/>
	<path style="fill:#FFFFFF;" d="M1863.677,2002.999c0-6.89-5.586-12.481-12.476-12.481c-6.894,0-12.476,5.591-12.476,12.481
		c0,6.892,5.582,12.474,12.476,12.474C1858.09,2015.473,1863.677,2009.891,1863.677,2002.999"/>
	<path style="fill:#FFFFFF;" d="M1806.002,2300.669c0-0.392-0.324-0.711-0.715-0.711c-0.397,0-0.715,0.319-0.715,0.711
		c0,0.396,0.319,0.713,0.715,0.713C1805.679,2301.382,1806.002,2301.065,1806.002,2300.669"/>
	<path style="fill:#FFFFFF;" d="M2057.9,2064.451c0-5.758-4.666-10.431-10.43-10.431c-5.755,0-10.43,4.673-10.43,10.431
		c0,5.762,4.675,10.428,10.43,10.428C2053.234,2074.879,2057.9,2070.213,2057.9,2064.451"/>
	<path style="fill:#FFFFFF;" d="M302.541,2323.576c0-6.543-5.299-11.841-11.845-11.841c-6.543,0-11.836,5.297-11.836,11.841
		s5.293,11.843,11.836,11.843C297.241,2335.419,302.541,2330.119,302.541,2323.576"/>
	<path style="fill:#FFFFFF;" d="M2746.166,2044.449c0-6.703-5.441-12.141-12.148-12.141c-6.703,0-12.144,5.439-12.144,12.141
		c0,6.71,5.441,12.146,12.144,12.146C2740.725,2056.595,2746.166,2051.159,2746.166,2044.449"/>
	<path style="fill:#FFFFFF;" d="M1281.078,2299.525c0-4.609-3.741-8.343-8.348-8.343c-4.609,0-8.344,3.734-8.344,8.343
		c0,4.614,3.734,8.348,8.344,8.348C1277.337,2307.873,1281.078,2304.139,1281.078,2299.525"/>
	<path style="fill:#FFFFFF;" d="M995.608,2130.87c0-4.803-3.9-8.703-8.703-8.703c-4.812,0-8.703,3.901-8.703,8.703
		c0,4.812,3.892,8.706,8.703,8.706C991.707,2139.575,995.608,2135.682,995.608,2130.87"/>
	<path style="fill:#FFFFFF;" d="M2312.564,1699.777c0-6.99-5.655-12.647-12.631-12.647c-6.99,0-12.645,5.657-12.645,12.647
		c0,6.976,5.655,12.636,12.645,12.636C2306.909,1712.412,2312.564,1706.753,2312.564,1699.777"/>
	<path style="fill:#FFFFFF;" d="M1845.876,2387.896c0-4.609-3.741-8.344-8.348-8.344c-4.612,0-8.344,3.734-8.344,8.344
		c0,4.614,3.732,8.348,8.344,8.348C1842.135,2396.244,1845.876,2392.51,1845.876,2387.896"/>
	<path style="fill:#FFFFFF;" d="M2692.287,1669.112c0-6.99-5.655-12.647-12.631-12.647c-6.99,0-12.645,5.657-12.645,12.647
		c0,6.976,5.655,12.636,12.645,12.636C2686.632,1681.748,2692.287,1676.089,2692.287,1669.112"/>
	<path style="fill:#FFFFFF;" d="M1788.65,2125.39c0-5.425-4.402-9.831-9.829-9.831c-5.432,0-9.829,4.406-9.829,9.831
		c0,5.432,4.397,9.831,9.829,9.831C1784.249,2135.221,1788.65,2130.822,1788.65,2125.39"/>
	<path style="fill:#FFFFFF;" d="M477.208,2216.144c0-4.803-3.901-8.703-8.703-8.703c-4.812,0-8.703,3.901-8.703,8.703
		c0,4.812,3.892,8.706,8.703,8.706C473.307,2224.85,477.208,2220.956,477.208,2216.144"/>
	<path style="fill:#FFFFFF;" d="M659.455,2295.627c0-4.609-3.741-8.343-8.348-8.343c-4.609,0-8.343,3.734-8.343,8.343
		c0,4.614,3.734,8.348,8.343,8.348C655.714,2303.975,659.455,2300.241,659.455,2295.627"/>
	<path style="fill:#FFFFFF;" d="M523.154,1930.255c0-4.803-3.901-8.703-8.703-8.703c-4.812,0-8.703,3.9-8.703,8.703
		c0,4.812,3.892,8.706,8.703,8.706C519.254,1938.961,523.154,1935.067,523.154,1930.255"/>
	<path style="fill:#FFFFFF;" d="M656.892,1737.201c0-3.192-2.593-5.778-5.785-5.778c-3.194,0-5.78,2.586-5.78,5.778
		c0,3.192,2.586,5.778,5.78,5.778C654.299,1742.979,656.892,1740.393,656.892,1737.201"/>
	<path style="fill:#FFFFFF;" d="M1657.287,2156.155c0-5.425-4.402-9.831-9.829-9.831c-5.432,0-9.829,4.406-9.829,9.831
		c0,5.432,4.397,9.831,9.829,9.831C1652.885,2165.986,1657.287,2161.587,1657.287,2156.155"/>
	<path style="fill:#FFFFFF;" d="M2503.149,2378.049c0-6.703-5.436-12.141-12.148-12.141c-6.703,0-12.139,5.438-12.139,12.141
		c0,6.71,5.436,12.146,12.139,12.146C2497.712,2390.195,2503.149,2384.759,2503.149,2378.049"/>
	<path style="fill:#FFFFFF;" d="M127.972,1304.595c0-5.461-4.429-9.895-9.895-9.895c-5.461,0-9.888,4.434-9.888,9.895
		s4.427,9.888,9.888,9.888C123.543,1314.483,127.972,1310.056,127.972,1304.595"/>
	<path style="fill:#FFFFFF;" d="M2427.354,2221.432c0-6.89-5.587-12.481-12.476-12.481c-6.895,0-12.477,5.591-12.477,12.481
		c0,6.892,5.582,12.474,12.477,12.474C2421.768,2233.906,2427.354,2228.324,2427.354,2221.432"/>
	<path style="fill:#FFFFFF;" d="M1999.617,1309.129c0-5.425-4.402-9.831-9.829-9.831c-5.436,0-9.833,4.406-9.833,9.831
		c0,5.432,4.397,9.831,9.833,9.831C1995.216,1318.96,1999.617,1314.561,1999.617,1309.129"/>
	<path style="fill:#FFFFFF;" d="M148.956,1913.854c0-4.802-3.9-8.703-8.703-8.703c-4.812,0-8.703,3.901-8.703,8.703
		c0,4.812,3.892,8.706,8.703,8.706C145.056,1922.559,148.956,1918.665,148.956,1913.854"/>
	<path style="fill:#FFFFFF;" d="M1432.139,1299.298c0-5.425-4.402-9.831-9.829-9.831c-5.436,0-9.833,4.406-9.833,9.831
		c0,5.432,4.397,9.831,9.833,9.831C1427.737,1309.129,1432.139,1304.729,1432.139,1299.298"/>
	<path style="fill:#FFFFFF;" d="M1890.534,1807.174c0-5.757-4.666-10.43-10.43-10.43c-5.755,0-10.43,4.673-10.43,10.43
		c0,5.762,4.675,10.428,10.43,10.428C1885.868,1817.602,1890.534,1812.936,1890.534,1807.174"/>
	<path style="fill:#FFFFFF;" d="M679.081,2047.534c0-4.803-3.901-8.703-8.703-8.703c-4.812,0-8.703,3.901-8.703,8.703
		c0,4.812,3.892,8.706,8.703,8.706C675.18,2056.24,679.081,2052.346,679.081,2047.534"/>
	<path style="fill:#FFFFFF;" d="M1240.874,1386.844c0-5.425-4.402-9.831-9.829-9.831c-5.434,0-9.831,4.406-9.831,9.831
		c0,5.432,4.397,9.831,9.831,9.831C1236.473,1396.675,1240.874,1392.275,1240.874,1386.844"/>
	<path style="fill:#FFFFFF;" d="M492.499,1272.249c0-5.04-4.076-9.122-9.12-9.122c-5.042,0-9.118,4.083-9.118,9.122
		c0,5.031,4.076,9.12,9.118,9.12C488.423,1281.369,492.499,1277.28,492.499,1272.249"/>
	<path style="fill:#FFFFFF;" d="M2433.021,2001.493c0-6.703-5.436-12.141-12.148-12.141c-6.703,0-12.139,5.439-12.139,12.141
		c0,6.71,5.436,12.146,12.139,12.146C2427.584,2013.639,2433.021,2008.203,2433.021,2001.493"/>
	<path style="fill:#FFFFFF;" d="M1398.512,2378.667c0-5.425-4.402-9.831-9.829-9.831c-5.434,0-9.831,4.406-9.831,9.831
		c0,5.431,4.397,9.831,9.831,9.831C1394.11,2388.498,1398.512,2384.098,1398.512,2378.667"/>
	<path style="fill:#FFFFFF;" d="M1504.714,2162.972c0-4.803-3.901-8.703-8.703-8.703c-4.812,0-8.703,3.901-8.703,8.703
		c0,4.812,3.891,8.706,8.703,8.706C1500.814,2171.677,1504.714,2167.784,1504.714,2162.972"/>
	<path style="fill:#FFFFFF;" d="M642.907,2379.555c0-5.04-4.076-9.123-9.12-9.123c-5.042,0-9.118,4.083-9.118,9.123
		c0,5.031,4.076,9.12,9.118,9.12C638.831,2388.676,642.907,2384.586,642.907,2379.555"/>
	<path style="fill:#FFFFFF;" d="M2147.298,2393.754c0-0.392-0.323-0.711-0.715-0.711c-0.397,0-0.716,0.319-0.716,0.711
		c0,0.396,0.319,0.713,0.716,0.713C2146.975,2394.467,2147.298,2394.15,2147.298,2393.754"/>
	<path style="fill:#FFFFFF;" d="M2159.262,2319.413c0-4.803-3.9-8.703-8.703-8.703c-4.812,0-8.704,3.901-8.704,8.703
		c0,4.812,3.892,8.706,8.704,8.706C2155.362,2328.119,2159.262,2324.225,2159.262,2319.413"/>
	<path style="fill:#FFFFFF;" d="M2192.098,2193.798c0-5.757-4.666-10.43-10.43-10.43c-5.755,0-10.43,4.673-10.43,10.43
		c0,5.762,4.675,10.428,10.43,10.428C2187.432,2204.226,2192.098,2199.56,2192.098,2193.798"/>
	<path style="fill:#FFFFFF;" d="M200.428,2533.795c0-5.425-4.402-9.831-9.829-9.831c-5.434,0-9.831,4.406-9.831,9.831
		c0,5.432,4.397,9.831,9.831,9.831C196.026,2543.627,200.428,2539.227,200.428,2533.795"/>
	<path style="fill:#FFFFFF;" d="M1271.918,2413.548c0-4.609-3.741-8.343-8.348-8.343s-8.343,3.734-8.343,8.343
		c0,4.614,3.737,8.348,8.343,8.348S1271.918,2418.162,1271.918,2413.548"/>
	<path style="fill:#FFFFFF;" d="M1463.369,1960.095c0-4.609-3.741-8.343-8.348-8.343c-4.612,0-8.344,3.734-8.344,8.343
		c0,4.614,3.732,8.348,8.344,8.348C1459.628,1968.443,1463.369,1964.709,1463.369,1960.095"/>
	<path style="fill:#FFFFFF;" d="M886.914,2084.929c0-4.803-3.901-8.703-8.703-8.703c-4.812,0-8.703,3.901-8.703,8.703
		c0,4.812,3.891,8.706,8.703,8.706C883.013,2093.635,886.914,2089.741,886.914,2084.929"/>
	<path style="fill:#FFFFFF;" d="M309.859,2136.014c0-2.844-2.301-5.145-5.144-5.145c-2.841,0-5.142,2.301-5.142,5.145
		c0,2.843,2.301,5.145,5.142,5.145C307.558,2141.159,309.859,2138.858,309.859,2136.014"/>
	<path style="fill:#FFFFFF;" d="M56.34,1960.097c0-2.843-2.301-5.144-5.145-5.144c-2.841,0-5.142,2.301-5.142,5.144
		c0,2.844,2.301,5.145,5.142,5.145C54.039,1965.242,56.34,1962.941,56.34,1960.097"/>
	<path style="fill:#FFFFFF;" d="M1488.31,1140.849c0-4.609-3.741-8.343-8.348-8.343c-4.607,0-8.343,3.734-8.343,8.343
		c0,4.614,3.737,8.348,8.343,8.348C1484.569,1149.197,1488.31,1145.463,1488.31,1140.849"/>
	<path style="fill:#FFFFFF;" d="M221.272,1187.423c0-5.04-4.076-9.122-9.12-9.122c-5.042,0-9.118,4.083-9.118,9.122
		c0,5.031,4.076,9.12,9.118,9.12C217.196,1196.544,221.272,1192.454,221.272,1187.423"/>
	<path style="fill:#FFFFFF;" d="M2034.196,1216.976c0-4.609-3.741-8.343-8.348-8.343c-4.607,0-8.343,3.734-8.343,8.343
		c0,4.614,3.736,8.348,8.343,8.348C2030.455,1225.324,2034.196,1221.59,2034.196,1216.976"/>
	<path style="fill:#FFFFFF;" d="M1816.863,1199.927c0-4.803-3.901-8.703-8.703-8.703c-4.812,0-8.703,3.901-8.703,8.703
		c0,4.812,3.891,8.706,8.703,8.706C1812.963,1208.633,1816.863,1204.739,1816.863,1199.927"/>
	<path style="fill:#FFFFFF;" d="M678.992,1669.01c0-4.609-3.741-8.343-8.348-8.343c-4.611,0-8.343,3.734-8.343,8.343
		c0,4.614,3.732,8.348,8.343,8.348C675.251,1677.358,678.992,1673.623,678.992,1669.01"/>
	<path style="fill:#FFFFFF;" d="M549.622,2435.611c0-3.192-2.593-5.778-5.785-5.778c-3.194,0-5.78,2.586-5.78,5.778
		c0,3.192,2.586,5.778,5.78,5.778C547.029,2441.389,549.622,2438.803,549.622,2435.611"/>
	<path style="fill:#FFFFFF;" d="M559.189,2932.557c0-5.425-4.402-9.831-9.829-9.831c-5.436,0-9.833,4.406-9.833,9.831
		c0,5.431,4.397,9.831,9.833,9.831C554.788,2942.388,559.189,2937.988,559.189,2932.557"/>
	<path style="fill:#FFFFFF;" d="M947.272,5770.3c0-5.757-4.666-10.43-10.43-10.43c-5.755,0-10.43,4.673-10.43,10.43
		c0,5.763,4.675,10.429,10.43,10.429C942.605,5780.729,947.272,5776.063,947.272,5770.3"/>
	<path style="fill:#FFFFFF;" d="M693.054,6660.909c0-5.04-4.076-9.123-9.12-9.123c-5.042,0-9.118,4.083-9.118,9.123
		c0,5.031,4.076,9.121,9.118,9.121C688.978,6670.029,693.054,6665.939,693.054,6660.909"/>
	<path style="fill:#FFFFFF;" d="M1844.677,6637.097c0-6.89-5.586-12.481-12.476-12.481c-6.894,0-12.476,5.591-12.476,12.481
		c0,6.892,5.582,12.474,12.476,12.474C1839.09,6649.571,1844.677,6643.989,1844.677,6637.097"/>
	<path style="fill:#FFFFFF;" d="M1738.496,6631.784c0-4.609-3.741-8.343-8.348-8.343s-8.343,3.734-8.343,8.343
		c0,4.614,3.737,8.348,8.343,8.348S1738.496,6636.397,1738.496,6631.784"/>
	<path style="fill:#FFFFFF;" d="M2041.657,6523.026c0-5.758-4.666-10.431-10.43-10.431c-5.755,0-10.43,4.673-10.43,10.431
		c0,5.762,4.675,10.428,10.43,10.428C2036.991,6533.454,2041.657,6528.788,2041.657,6523.026"/>
	<path style="fill:#FFFFFF;" d="M1563.263,6377.236c0-5.758-4.666-10.431-10.43-10.431c-5.755,0-10.43,4.673-10.43,10.431
		c0,5.762,4.675,10.428,10.43,10.428C1558.597,6387.664,1563.263,6382.998,1563.263,6377.236"/>
	<path style="fill:#FFFFFF;" d="M375.72,5943.227c0-3.192-2.593-5.778-5.785-5.778c-3.194,0-5.78,2.586-5.78,5.778
		c0,3.191,2.586,5.777,5.78,5.777C373.127,5949.004,375.72,5946.418,375.72,5943.227"/>
	<path style="fill:#FFFFFF;" d="M1980.617,5943.227c0-5.425-4.402-9.832-9.829-9.832c-5.436,0-9.833,4.407-9.833,9.832
		c0,5.431,4.397,9.831,9.833,9.831C1976.216,5953.058,1980.617,5948.658,1980.617,5943.227"/>
	<path style="fill:#FFFFFF;" d="M1797.863,5834.025c0-4.803-3.901-8.704-8.703-8.704c-4.812,0-8.703,3.901-8.703,8.704
		c0,4.812,3.891,8.706,8.703,8.706C1793.963,5842.73,1797.863,5838.837,1797.863,5834.025"/>
	<path style="fill:#FFFFFF;" d="M1250.334,6069.491c0-5.425-4.402-9.831-9.829-9.831c-5.436,0-9.833,4.406-9.833,9.831
		c0,5.432,4.397,9.831,9.833,9.831C1245.933,6079.322,1250.334,6074.923,1250.334,6069.491"/>
	<path style="fill:#FFFFFF;" d="M957.326,2647.799c0-5.425-4.402-9.831-9.829-9.831c-5.432,0-9.829,4.406-9.829,9.831
		c0,5.432,4.397,9.831,9.829,9.831C952.924,2657.631,957.326,2653.231,957.326,2647.799"/>
	<path style="fill:#FFFFFF;" d="M728.31,2276.087c0-5.865-4.753-10.615-10.617-10.615c-5.862,0-10.617,4.75-10.617,10.615
		s4.755,10.617,10.617,10.617C723.557,2286.704,728.31,2281.952,728.31,2276.087"/>
</g>
<g id="Ebene_1">
</g>
</svg>
