<?xml version="1.0" encoding="iso-8859-1"?>
<!-- Generator: Adobe Illustrator 18.0.0, SVG Export Plug-In . SVG Version: 6.00 Build 0)  -->
<!DOCTYPE svg PUBLIC "-//W3C//DTD SVG 1.1//EN" "http://www.w3.org/Graphics/SVG/1.1/DTD/svg11.dtd">
<svg version="1.1" xmlns="http://www.w3.org/2000/svg" xmlns:xlink="http://www.w3.org/1999/xlink" x="0px" y="0px"
	 viewBox="0 0 2800 10000" style="enable-background:new 0 0 2800 10000;" xml:space="preserve">
<g id="snow_x5F_small1">
	<path style="fill:#FFFFFF;" d="M654.04,7943.775c0-1.608-1.306-2.91-2.907-2.91c-1.606,0-2.912,1.301-2.912,2.91
		c0,1.604,1.305,2.905,2.912,2.905C652.734,7946.68,654.04,7945.379,654.04,7943.775"/>
	<path style="fill:#FFFFFF;" d="M1708.807,8127.606c0-2.16-1.747-3.914-3.907-3.914c-2.162,0-3.917,1.754-3.917,3.914
		c0,2.151,1.754,3.91,3.917,3.91C1707.059,8131.516,1708.807,8129.757,1708.807,8127.606"/>
	<path style="fill:#FFFFFF;" d="M968.98,7540.236c0-1.44-1.171-2.616-2.616-2.616c-1.444,0-2.616,1.176-2.616,2.616
		c0,1.444,1.171,2.62,2.616,2.62C967.809,7542.856,968.98,7541.681,968.98,7540.236"/>
	<path style="fill:#FFFFFF;" d="M227.649,9694.243c0-1.439-1.171-2.615-2.616-2.615c-1.445,0-2.616,1.176-2.616,2.615
		c0,1.444,1.171,2.62,2.616,2.62C226.478,9696.863,227.649,9695.688,227.649,9694.243"/>
	<path style="fill:#FFFFFF;" d="M1767.333,9354.952c0-0.676-0.556-1.226-1.235-1.226c-0.679,0-1.23,0.55-1.23,1.226
		c0,0.68,0.551,1.23,1.23,1.23C1766.777,9356.183,1767.333,9355.632,1767.333,9354.952"/>
	<path style="fill:#FFFFFF;" d="M901.008,7297.668c0-1.891-1.536-3.422-3.429-3.422c-1.893,0-3.424,1.531-3.424,3.422
		c0,1.893,1.531,3.431,3.424,3.431C899.473,7301.1,901.008,7299.562,901.008,7297.668"/>
	<path style="fill:#FFFFFF;" d="M1032.599,3812.848c0-1.44-1.171-2.615-2.616-2.615c-1.445,0-2.615,1.176-2.615,2.615
		c0,1.445,1.171,2.62,2.615,2.62C1031.427,3815.468,1032.599,3814.292,1032.599,3812.848"/>
	<path style="fill:#FFFFFF;" d="M905.971,3459.098c0-1.891-1.536-3.422-3.429-3.422c-1.893,0-3.424,1.531-3.424,3.422
		c0,1.893,1.531,3.431,3.424,3.431C904.435,3462.53,905.971,3460.992,905.971,3459.098"/>
	<path style="fill:#FFFFFF;" d="M866.35,4144.545c0-1.704-1.388-3.085-3.092-3.085c-1.707,0-3.085,1.381-3.085,3.085
		s1.378,3.085,3.085,3.085C864.962,4147.63,866.35,4146.25,866.35,4144.545"/>
	<path style="fill:#FFFFFF;" d="M972.379,3998.924c0-1.44-1.171-2.616-2.616-2.616c-1.444,0-2.615,1.176-2.615,2.616
		c0,1.444,1.171,2.62,2.615,2.62C971.208,4001.544,972.379,4000.368,972.379,3998.924"/>
	<path style="fill:#FFFFFF;" d="M1074.115,4982.1c0-3.192-2.593-5.778-5.785-5.778c-3.194,0-5.78,2.586-5.78,5.778
		s2.586,5.778,5.78,5.778C1071.522,4987.878,1074.115,4985.292,1074.115,4982.1"/>
	<path style="fill:#FFFFFF;" d="M1681.293,4744.754c0-1.891-1.536-3.422-3.431-3.422c-1.891,0-3.422,1.531-3.422,3.422
		c0,1.893,1.531,3.431,3.422,3.431C1679.757,4748.186,1681.293,4746.647,1681.293,4744.754"/>
	<path style="fill:#FFFFFF;" d="M1218.642,7384.226c0-1.608-1.305-2.91-2.907-2.91c-1.606,0-2.912,1.301-2.912,2.91
		c0,1.604,1.306,2.905,2.912,2.905C1217.337,7387.13,1218.642,7385.83,1218.642,7384.226"/>
	<path style="fill:#FFFFFF;" d="M2711.431,5753.865c0-1.089-0.884-1.973-1.973-1.973c-1.094,0-1.973,0.884-1.973,1.973
		c0,1.084,0.88,1.964,1.973,1.964C2710.547,5755.829,2711.431,5754.95,2711.431,5753.865"/>
	<path style="fill:#FFFFFF;" d="M1288.312,5805.586c0-1.891-1.536-3.422-3.429-3.422c-1.893,0-3.424,1.531-3.424,3.422
		c0,1.894,1.531,3.431,3.424,3.431C1286.777,5809.017,1288.312,5807.479,1288.312,5805.586"/>
	<path style="fill:#FFFFFF;" d="M1517.24,5540.9c0-1.089-0.884-1.973-1.973-1.973c-1.094,0-1.973,0.884-1.973,1.973
		c0,1.084,0.879,1.964,1.973,1.964C1516.356,5542.864,1517.24,5541.984,1517.24,5540.9"/>
	<path style="fill:#FFFFFF;" d="M2303.773,5488.543c0-1.089-0.884-1.973-1.973-1.973c-1.094,0-1.973,0.884-1.973,1.973
		c0,1.084,0.879,1.964,1.973,1.964C2302.889,5490.507,2303.773,5489.628,2303.773,5488.543"/>
	<path style="fill:#FFFFFF;" d="M794.518,5150.22c0-1.704-1.387-3.085-3.092-3.085c-1.706,0-3.085,1.381-3.085,3.085
		c0,1.705,1.379,3.085,3.085,3.085C793.13,5153.305,794.518,5151.925,794.518,5150.22"/>
	<path style="fill:#FFFFFF;" d="M165.575,7788.607c0-1.44-1.171-2.615-2.616-2.615c-1.444,0-2.616,1.175-2.616,2.615
		c0,1.445,1.171,2.62,2.616,2.62C164.404,7791.227,165.575,7790.052,165.575,7788.607"/>
	<path style="fill:#FFFFFF;" d="M221.407,7429.715c0-1.891-1.536-3.422-3.429-3.422c-1.893,0-3.424,1.531-3.424,3.422
		c0,1.893,1.531,3.431,3.424,3.431C219.871,7433.146,221.407,7431.608,221.407,7429.715"/>
	<path style="fill:#FFFFFF;" d="M1834.631,5777.653c0-0.342-0.264-0.615-0.606-0.615c-0.333,0-0.606,0.273-0.606,0.615
		c0,0.333,0.273,0.606,0.606,0.606C1834.367,5778.259,1834.631,5777.986,1834.631,5777.653"/>
	<path style="fill:#FFFFFF;" d="M1174.146,5484.162c0-1.44-1.171-2.615-2.616-2.615c-1.445,0-2.616,1.175-2.616,2.615
		c0,1.445,1.171,2.621,2.616,2.621C1172.975,5486.782,1174.146,5485.606,1174.146,5484.162"/>
	<path style="fill:#FFFFFF;" d="M2638.451,5276.382c0-1.44-1.171-2.616-2.615-2.616c-1.445,0-2.616,1.176-2.616,2.616
		c0,1.444,1.171,2.62,2.616,2.62C2637.28,5279.002,2638.451,5277.827,2638.451,5276.382"/>
	<path style="fill:#FFFFFF;" d="M1970.658,5506.392c0-2.843-2.301-5.144-5.144-5.144c-2.844,0-5.145,2.301-5.145,5.144
		c0,2.844,2.301,5.145,5.145,5.145C1968.357,5511.536,1970.658,5509.235,1970.658,5506.392"/>
	<path style="fill:#FFFFFF;" d="M2505.203,5470.102c0-1.089-0.884-1.973-1.973-1.973c-1.094,0-1.973,0.884-1.973,1.973
		c0,1.084,0.879,1.964,1.973,1.964C2504.319,5472.066,2505.203,5471.187,2505.203,5470.102"/>
	<path style="fill:#FFFFFF;" d="M1882.924,5388.849c0-1.44-1.171-2.616-2.616-2.616c-1.445,0-2.616,1.176-2.616,2.616
		c0,1.444,1.171,2.62,2.616,2.62C1881.752,5391.469,1882.924,5390.293,1882.924,5388.849"/>
	<path style="fill:#FFFFFF;" d="M1163.234,6722.763c0-1.44-1.171-2.616-2.616-2.616c-1.444,0-2.616,1.176-2.616,2.616
		c0,1.444,1.171,2.62,2.616,2.62C1162.063,6725.383,1163.234,6724.208,1163.234,6722.763"/>
	<path style="fill:#FFFFFF;" d="M1645.044,6874.301c0-2.276-1.836-4.114-4.11-4.114c-2.269,0-4.11,1.838-4.11,4.114
		c0,2.267,1.841,4.106,4.11,4.106C1643.208,6878.407,1645.044,6876.568,1645.044,6874.301"/>
	<path style="fill:#FFFFFF;" d="M2493.734,6860.994c0-2.276-1.836-4.115-4.11-4.115c-2.269,0-4.11,1.839-4.11,4.115
		c0,2.267,1.841,4.105,4.11,4.105C2491.897,6865.099,2493.734,6863.26,2493.734,6860.994"/>
	<path style="fill:#FFFFFF;" d="M852.218,3986.265c0-2.276-1.836-4.115-4.11-4.115c-2.269,0-4.11,1.839-4.11,4.115
		c0,2.267,1.841,4.106,4.11,4.106C850.382,3990.371,852.218,3988.532,852.218,3986.265"/>
	<path style="fill:#FFFFFF;" d="M1365.993,4569.166c0-1.089-0.884-1.973-1.973-1.973c-1.094,0-1.973,0.884-1.973,1.973
		c0,1.084,0.88,1.964,1.973,1.964C1365.109,4571.129,1365.993,4570.25,1365.993,4569.166"/>
	<path style="fill:#FFFFFF;" d="M1922.444,4257.509c0-1.089-0.884-1.973-1.973-1.973c-1.094,0-1.973,0.884-1.973,1.973
		c0,1.084,0.88,1.964,1.973,1.964C1921.56,4259.473,1922.444,4258.593,1922.444,4257.509"/>
	<path style="fill:#FFFFFF;" d="M2732.447,3708.964c0-1.089-0.884-1.973-1.973-1.973c-1.093,0-1.973,0.884-1.973,1.973
		c0,1.084,0.88,1.964,1.973,1.964C2731.562,3710.928,2732.447,3710.048,2732.447,3708.964"/>
	<path style="fill:#FFFFFF;" d="M1232.341,3349.236c0-0.342-0.264-0.615-0.606-0.615c-0.332,0-0.606,0.273-0.606,0.615
		c0,0.333,0.273,0.606,0.606,0.606C1232.077,3349.842,1232.341,3349.568,1232.341,3349.236"/>
	<path style="fill:#FFFFFF;" d="M1481.096,3641.565c0-1.089-0.884-1.973-1.973-1.973c-1.094,0-1.973,0.884-1.973,1.973
		c0,1.084,0.879,1.964,1.973,1.964C1480.212,3643.529,1481.096,3642.65,1481.096,3641.565"/>
	<path style="fill:#FFFFFF;" d="M1703.967,3312.062c0-0.342-0.264-0.615-0.606-0.615c-0.333,0-0.606,0.273-0.606,0.615
		c0,0.333,0.273,0.606,0.606,0.606C1703.703,3312.668,1703.967,3312.395,1703.967,3312.062"/>
	<path style="fill:#FFFFFF;" d="M851.1,7751.914c0-1.08-0.873-1.957-1.953-1.957c-1.087,0-1.962,0.877-1.962,1.957
		c0,1.084,0.875,1.959,1.962,1.959C850.227,7753.874,851.1,7752.999,851.1,7751.914"/>
	<path style="fill:#FFFFFF;" d="M1556.043,9689.669c0-1.08-0.873-1.957-1.953-1.957c-1.087,0-1.962,0.877-1.962,1.957
		c0,1.084,0.875,1.959,1.962,1.959C1555.17,9691.628,1556.043,9690.753,1556.043,9689.669"/>
	<path style="fill:#FFFFFF;" d="M2204.209,3142.702c0-1.089-0.884-1.973-1.973-1.973c-1.093,0-1.973,0.884-1.973,1.973
		c0,1.085,0.88,1.964,1.973,1.964C2203.325,3144.666,2204.209,3143.787,2204.209,3142.702"/>
	<path style="fill:#FFFFFF;" d="M1617.807,2657.635c0-2.276-1.836-4.115-4.11-4.115c-2.269,0-4.11,1.839-4.11,4.115
		c0,2.267,1.841,4.106,4.11,4.106C1615.97,2661.741,1617.807,2659.902,1617.807,2657.635"/>
	<path style="fill:#FFFFFF;" d="M2580.767,3288.274c0-1.089-0.884-1.973-1.973-1.973c-1.094,0-1.973,0.884-1.973,1.973
		c0,1.085,0.88,1.964,1.973,1.964C2579.883,3290.238,2580.767,3289.358,2580.767,3288.274"/>
	<path style="fill:#FFFFFF;" d="M837.22,3327.416c0-0.392-0.323-0.711-0.715-0.711c-0.396,0-0.716,0.319-0.716,0.711
		c0,0.396,0.319,0.713,0.716,0.713C836.897,3328.129,837.22,3327.812,837.22,3327.416"/>
	<path style="fill:#FFFFFF;" d="M146.305,3413.245c0-1.891-1.536-3.422-3.429-3.422c-1.893,0-3.424,1.531-3.424,3.422
		c0,1.893,1.531,3.431,3.424,3.431C144.769,3416.677,146.305,3415.139,146.305,3413.245"/>
	<path style="fill:#FFFFFF;" d="M2173.109,3022.952c0-1.089-0.884-1.973-1.973-1.973c-1.094,0-1.973,0.884-1.973,1.973
		c0,1.084,0.88,1.964,1.973,1.964C2172.225,3024.916,2173.109,3024.036,2173.109,3022.952"/>
	<path style="fill:#FFFFFF;" d="M2165.057,3200.728c0-1.089-0.884-1.973-1.973-1.973c-1.094,0-1.973,0.884-1.973,1.973
		c0,1.084,0.879,1.964,1.973,1.964C2164.174,3202.692,2165.057,3201.812,2165.057,3200.728"/>
	<path style="fill:#FFFFFF;" d="M628.943,3026.34c0-1.44-1.171-2.615-2.616-2.615c-1.445,0-2.616,1.176-2.616,2.615
		c0,1.444,1.171,2.62,2.616,2.62C627.771,3028.96,628.943,3027.784,628.943,3026.34"/>
	<path style="fill:#FFFFFF;" d="M2621.126,2959.903c0-0.342-0.264-0.615-0.606-0.615c-0.333,0-0.606,0.273-0.606,0.615
		c0,0.333,0.273,0.606,0.606,0.606C2620.862,2960.509,2621.126,2960.236,2621.126,2959.903"/>
	<path style="fill:#FFFFFF;" d="M2035.656,3045.861c0-1.891-1.536-3.422-3.429-3.422c-1.893,0-3.424,1.531-3.424,3.422
		c0,1.894,1.531,3.431,3.424,3.431C2034.12,3049.292,2035.656,3047.754,2035.656,3045.861"/>
	<path style="fill:#FFFFFF;" d="M605.297,3162.058c0-1.089-0.884-1.973-1.973-1.973c-1.093,0-1.973,0.884-1.973,1.973
		c0,1.085,0.88,1.964,1.973,1.964C604.412,3164.022,605.297,3163.144,605.297,3162.058"/>
	<path style="fill:#FFFFFF;" d="M2581.975,3017.928c0-0.342-0.264-0.615-0.606-0.615c-0.333,0-0.606,0.273-0.606,0.615
		c0,0.333,0.273,0.606,0.606,0.606C2581.71,3018.534,2581.975,3018.261,2581.975,3017.928"/>
	<path style="fill:#FFFFFF;" d="M2737.341,3191.942c0-2.16-1.75-3.914-3.91-3.914s-3.914,1.754-3.914,3.914
		c0,2.151,1.754,3.91,3.914,3.91S2737.341,3194.093,2737.341,3191.942"/>
	<path style="fill:#FFFFFF;" d="M1904.367,2694.706c0-1.44-1.171-2.615-2.615-2.615c-1.445,0-2.616,1.176-2.616,2.615
		c0,1.444,1.171,2.62,2.616,2.62C1903.196,2697.326,1904.367,2696.151,1904.367,2694.706"/>
	<path style="fill:#FFFFFF;" d="M2438.83,3717.38c0-1.089-0.884-1.973-1.973-1.973c-1.094,0-1.973,0.884-1.973,1.973
		c0,1.084,0.879,1.964,1.973,1.964C2437.946,3719.344,2438.83,3718.465,2438.83,3717.38"/>
	<path style="fill:#FFFFFF;" d="M1960.36,3661.984c0-0.342-0.264-0.615-0.606-0.615c-0.333,0-0.606,0.273-0.606,0.615
		c0,0.333,0.273,0.606,0.606,0.606C1960.096,3662.59,1960.36,3662.317,1960.36,3661.984"/>
	<path style="fill:#FFFFFF;" d="M1980.948,3727.71c0-0.392-0.324-0.711-0.715-0.711c-0.397,0-0.715,0.319-0.715,0.711
		c0,0.396,0.319,0.713,0.715,0.713C1980.624,3728.423,1980.948,3728.107,1980.948,3727.71"/>
	<path style="fill:#FFFFFF;" d="M1874.961,3629.825c0-1.891-1.536-3.422-3.429-3.422c-1.893,0-3.424,1.531-3.424,3.422
		c0,1.893,1.531,3.431,3.424,3.431C1873.425,3633.256,1874.961,3631.718,1874.961,3629.825"/>
	<path style="fill:#FFFFFF;" d="M1521.093,3556.461c0-1.891-1.536-3.422-3.429-3.422c-1.893,0-3.424,1.531-3.424,3.422
		c0,1.893,1.531,3.431,3.424,3.431C1519.557,3559.892,1521.093,3558.354,1521.093,3556.461"/>
	<path style="fill:#FFFFFF;" d="M2130.937,3447.16c0-1.44-1.171-2.616-2.615-2.616c-1.445,0-2.616,1.176-2.616,2.616
		c0,1.444,1.171,2.62,2.616,2.62C2129.766,3449.78,2130.937,3448.604,2130.937,3447.16"/>
	<path style="fill:#FFFFFF;" d="M2296.364,3365.209c0-1.44-1.171-2.616-2.615-2.616c-1.444,0-2.616,1.176-2.616,2.616
		c0,1.444,1.171,2.62,2.616,2.62C2295.193,3367.829,2296.364,3366.654,2296.364,3365.209"/>
	<path style="fill:#FFFFFF;" d="M1865.216,2752.732c0-1.44-1.171-2.616-2.616-2.616c-1.444,0-2.616,1.176-2.616,2.616
		c0,1.444,1.171,2.62,2.616,2.62C1864.045,2755.352,1865.216,2754.176,1865.216,2752.732"/>
	<path style="fill:#FFFFFF;" d="M663.361,2890.844c0-1.704-1.387-3.085-3.092-3.085c-1.706,0-3.085,1.381-3.085,3.085
		c0,1.704,1.378,3.085,3.085,3.085C661.973,2893.928,663.361,2892.548,663.361,2890.844"/>
	<path style="fill:#FFFFFF;" d="M105.122,3196.969c0-1.891-1.536-3.422-3.429-3.422s-3.424,1.531-3.424,3.422
		c0,1.893,1.531,3.431,3.424,3.431S105.122,3198.862,105.122,3196.969"/>
	<path style="fill:#FFFFFF;" d="M2729.138,6499.033c0-1.089-0.884-1.973-1.973-1.973c-1.094,0-1.973,0.884-1.973,1.973
		c0,1.084,0.88,1.964,1.973,1.964C2728.254,6500.997,2729.138,6500.117,2729.138,6499.033"/>
	<path style="fill:#FFFFFF;" d="M1743.119,5770.914c0-0.342-0.264-0.615-0.606-0.615c-0.333,0-0.606,0.273-0.606,0.615
		c0,0.333,0.273,0.606,0.606,0.606C1742.854,5771.521,1743.119,5771.247,1743.119,5770.914"/>
	<path style="fill:#FFFFFF;" d="M972.379,6515.801c0-1.44-1.171-2.615-2.616-2.615c-1.444,0-2.615,1.175-2.615,2.615
		c0,1.445,1.171,2.62,2.615,2.62C971.208,6518.421,972.379,6517.246,972.379,6515.801"/>
	<path style="fill:#FFFFFF;" d="M1181.617,6398.306c0-1.439-1.171-2.615-2.616-2.615c-1.444,0-2.615,1.176-2.615,2.615
		c0,1.445,1.171,2.621,2.615,2.621C1180.446,6400.927,1181.617,6399.751,1181.617,6398.306"/>
	<path style="fill:#FFFFFF;" d="M1956.309,6275.842c0-2.16-1.75-3.914-3.909-3.914c-2.16,0-3.914,1.754-3.914,3.914
		c0,2.151,1.754,3.91,3.914,3.91C1954.56,6279.752,1956.309,6277.993,1956.309,6275.842"/>
	<path style="fill:#FFFFFF;" d="M705.132,6364.186c0-1.439-1.171-2.615-2.616-2.615c-1.444,0-2.616,1.176-2.616,2.615
		c0,1.445,1.171,2.62,2.616,2.62C703.961,6366.806,705.132,6365.63,705.132,6364.186"/>
	<path style="fill:#FFFFFF;" d="M1333.925,6196.93c0-1.089-0.884-1.973-1.973-1.973c-1.094,0-1.973,0.884-1.973,1.973
		c0,1.084,0.88,1.964,1.973,1.964C1333.041,6198.894,1333.925,6198.015,1333.925,6196.93"/>
	<path style="fill:#FFFFFF;" d="M367.463,5950.949c0-1.608-1.306-2.91-2.907-2.91c-1.606,0-2.912,1.301-2.912,2.91
		c0,1.604,1.305,2.905,2.912,2.905C366.157,5953.854,367.463,5952.553,367.463,5950.949"/>
	<path style="fill:#FFFFFF;" d="M2034.259,5908.149c0-0.342-0.264-0.615-0.606-0.615c-0.333,0-0.606,0.273-0.606,0.615
		c0,0.333,0.273,0.606,0.606,0.606C2033.995,5908.755,2034.259,5908.482,2034.259,5908.149"/>
	<path style="fill:#FFFFFF;" d="M2580.767,5805.151c0-1.089-0.884-1.973-1.973-1.973c-1.094,0-1.973,0.884-1.973,1.973
		c0,1.084,0.88,1.964,1.973,1.964C2579.883,5807.115,2580.767,5806.236,2580.767,5805.151"/>
	<path style="fill:#FFFFFF;" d="M816.633,5778.567c0-0.342-0.264-0.615-0.606-0.615c-0.332,0-0.606,0.273-0.606,0.615
		c0,0.333,0.273,0.606,0.606,0.606C816.368,5779.173,816.633,5778.9,816.633,5778.567"/>
	<path style="fill:#FFFFFF;" d="M2185.307,6058.341c0-1.089-0.884-1.973-1.973-1.973c-1.094,0-1.973,0.884-1.973,1.973
		c0,1.084,0.879,1.964,1.973,1.964C2184.423,6060.305,2185.307,6059.425,2185.307,6058.341"/>
	<path style="fill:#FFFFFF;" d="M2438.83,6234.258c0-1.089-0.884-1.973-1.973-1.973c-1.094,0-1.973,0.884-1.973,1.973
		c0,1.084,0.879,1.964,1.973,1.964C2437.946,6236.222,2438.83,6235.342,2438.83,6234.258"/>
	<path style="fill:#FFFFFF;" d="M2471.137,6083.663c0-0.342-0.264-0.615-0.606-0.615c-0.333,0-0.606,0.273-0.606,0.615
		c0,0.333,0.273,0.606,0.606,0.606C2470.873,6084.269,2471.137,6083.995,2471.137,6083.663"/>
	<path style="fill:#FFFFFF;" d="M2421.45,6067.527c0-1.089-0.884-1.973-1.973-1.973c-1.094,0-1.973,0.884-1.973,1.973
		c0,1.084,0.88,1.964,1.973,1.964C2420.566,6069.491,2421.45,6068.612,2421.45,6067.527"/>
	<path style="fill:#FFFFFF;" d="M1521.093,6073.338c0-1.891-1.536-3.422-3.429-3.422c-1.893,0-3.424,1.531-3.424,3.422
		c0,1.893,1.531,3.431,3.424,3.431C1519.557,6076.77,1521.093,6075.231,1521.093,6073.338"/>
	<path style="fill:#FFFFFF;" d="M2431.986,6141.688c0-0.342-0.264-0.615-0.606-0.615c-0.333,0-0.606,0.273-0.606,0.615
		c0,0.333,0.273,0.606,0.606,0.606C2431.721,6142.294,2431.986,6142.021,2431.986,6141.688"/>
	<path style="fill:#FFFFFF;" d="M2491.724,6149.389c0-0.392-0.323-0.711-0.715-0.711c-0.396,0-0.715,0.319-0.715,0.711
		c0,0.396,0.319,0.713,0.715,0.713C2491.401,6150.102,2491.724,6149.785,2491.724,6149.389"/>
	<path style="fill:#FFFFFF;" d="M396.204,2883.082c0-1.891-1.536-3.422-3.429-3.422c-1.893,0-3.424,1.531-3.424,3.422
		c0,1.894,1.531,3.431,3.424,3.431C394.668,2886.513,396.204,2884.976,396.204,2883.082"/>
	<path style="fill:#FFFFFF;" d="M129.289,2570.883c0-1.44-1.171-2.616-2.616-2.616c-1.444,0-2.616,1.176-2.616,2.616
		c0,1.445,1.171,2.62,2.616,2.62C128.118,2573.503,129.289,2572.328,129.289,2570.883"/>
	<path style="fill:#FFFFFF;" d="M649.525,2499.723c0-1.44-1.171-2.616-2.616-2.616c-1.444,0-2.615,1.176-2.615,2.616
		c0,1.444,1.171,2.62,2.615,2.62C648.354,2502.343,649.525,2501.167,649.525,2499.723"/>
	<path style="fill:#FFFFFF;" d="M833.371,3005.619c0-2.16-1.75-3.914-3.91-3.914c-2.16,0-3.914,1.754-3.914,3.914
		c0,2.151,1.754,3.91,3.914,3.91C831.621,3009.529,833.371,3007.77,833.371,3005.619"/>
	<path style="fill:#FFFFFF;" d="M641.474,2677.499c0-1.44-1.171-2.616-2.616-2.616c-1.445,0-2.616,1.176-2.616,2.616
		c0,1.444,1.171,2.62,2.616,2.62C640.302,2680.119,641.474,2678.943,641.474,2677.499"/>
	<path style="fill:#FFFFFF;" d="M2251.874,8063.457c0-2.276-1.843-4.122-4.121-4.122c-2.272,0-4.124,1.846-4.124,4.122
		c0,2.276,1.852,4.124,4.124,4.124C2250.031,8067.581,2251.874,8065.733,2251.874,8063.457"/>
	<path style="fill:#FFFFFF;" d="M2123.099,8952.934c0-2.276-1.836-4.115-4.11-4.115c-2.272,0-4.11,1.839-4.11,4.115
		c0,2.267,1.839,4.105,4.11,4.105C2121.263,8957.039,2123.099,8955.2,2123.099,8952.934"/>
	<path style="fill:#FFFFFF;" d="M373.65,8701.086c0-2.844-2.301-5.145-5.145-5.145c-2.841,0-5.142,2.301-5.142,5.145
		s2.301,5.145,5.142,5.145C371.349,8706.23,373.65,8703.93,373.65,8701.086"/>
	<path style="fill:#FFFFFF;" d="M1130.251,5418.34c0-1.44-1.171-2.615-2.616-2.615c-1.444,0-2.615,1.175-2.615,2.615
		c0,1.445,1.171,2.621,2.615,2.621C1129.08,5420.96,1130.251,5419.785,1130.251,5418.34"/>
	<path style="fill:#FFFFFF;" d="M2191.252,4065.206c0-1.089-0.884-1.973-1.973-1.973c-1.094,0-1.973,0.884-1.973,1.973
		c0,1.085,0.879,1.964,1.973,1.964C2190.368,4067.17,2191.252,4066.291,2191.252,4065.206"/>
	<path style="fill:#FFFFFF;" d="M2729.138,3982.155c0-1.089-0.884-1.973-1.973-1.973c-1.094,0-1.973,0.884-1.973,1.973
		c0,1.084,0.88,1.964,1.973,1.964C2728.254,3984.119,2729.138,3983.24,2729.138,3982.155"/>
	<path style="fill:#FFFFFF;" d="M438.71,3773.593c0-1.609-1.306-2.909-2.907-2.909c-1.606,0-2.912,1.301-2.912,2.909
		c0,1.604,1.305,2.905,2.912,2.905C437.404,3776.498,438.71,3775.197,438.71,3773.593"/>
	<path style="fill:#FFFFFF;" d="M1907.379,4613.136c0-2.16-1.75-3.915-3.91-3.915s-3.914,1.754-3.914,3.915
		c0,2.151,1.754,3.91,3.914,3.91S1907.379,4615.287,1907.379,4613.136"/>
	<path style="fill:#FFFFFF;" d="M1021.263,4748.204c0-1.891-1.536-3.422-3.429-3.422c-1.893,0-3.424,1.531-3.424,3.422
		c0,1.894,1.531,3.431,3.424,3.431C1019.727,4751.635,1021.263,4750.097,1021.263,4748.204"/>
	<path style="fill:#FFFFFF;" d="M1650.487,5347.18c0-1.44-1.171-2.616-2.615-2.616c-1.444,0-2.615,1.176-2.615,2.616
		c0,1.444,1.171,2.62,2.615,2.62C1649.316,5349.8,1650.487,5348.625,1650.487,5347.18"/>
	<path style="fill:#FFFFFF;" d="M2522.14,4427.235c0-1.089-0.884-1.973-1.973-1.973c-1.094,0-1.973,0.884-1.973,1.973
		c0,1.085,0.88,1.964,1.973,1.964C2521.256,4429.199,2522.14,4428.32,2522.14,4427.235"/>
	<path style="fill:#FFFFFF;" d="M1717.79,4984.716c0-1.44-1.171-2.616-2.616-2.616s-2.616,1.176-2.616,2.616
		c0,1.444,1.171,2.62,2.616,2.62S1717.79,4986.16,1717.79,4984.716"/>
	<path style="fill:#FFFFFF;" d="M2704.117,4622.071c0-1.608-1.305-2.909-2.907-2.909c-1.606,0-2.912,1.301-2.912,2.909
		c0,1.604,1.305,2.905,2.912,2.905C2702.812,4624.977,2704.117,4623.675,2704.117,4622.071"/>
	<path style="fill:#FFFFFF;" d="M356.655,7330.55c0-1.704-1.387-3.085-3.092-3.085c-1.706,0-3.085,1.381-3.085,3.085
		s1.379,3.085,3.085,3.085C355.267,7333.635,356.655,7332.254,356.655,7330.55"/>
	<path style="fill:#FFFFFF;" d="M2107.415,7246.232c0-2.16-1.75-3.914-3.91-3.914c-2.16,0-3.914,1.754-3.914,3.914
		c0,2.151,1.754,3.91,3.914,3.91C2105.665,7250.142,2107.415,7248.383,2107.415,7246.232"/>
	<path style="fill:#FFFFFF;" d="M2250.341,5865.2c0-0.342-0.264-0.615-0.606-0.615c-0.333,0-0.606,0.273-0.606,0.615
		c0,0.333,0.273,0.606,0.606,0.606C2250.077,5865.806,2250.341,5865.532,2250.341,5865.2"/>
	<path style="fill:#FFFFFF;" d="M1018.518,4871.78c0-2.276-1.836-4.115-4.11-4.115c-2.269,0-4.11,1.838-4.11,4.115
		c0,2.267,1.841,4.105,4.11,4.105C1016.682,4875.885,1018.518,4874.047,1018.518,4871.78"/>
	<path style="fill:#FFFFFF;" d="M360.42,5611.424c0-1.891-1.536-3.422-3.429-3.422c-1.893,0-3.424,1.531-3.424,3.422
		c0,1.893,1.531,3.431,3.424,3.431C358.884,5614.855,360.42,5613.317,360.42,5611.424"/>
	<path style="fill:#FFFFFF;" d="M2050.255,5312.626c0-1.089-0.884-1.973-1.973-1.973c-1.094,0-1.973,0.884-1.973,1.973
		c0,1.084,0.88,1.964,1.973,1.964C2049.371,5314.59,2050.255,5313.711,2050.255,5312.626"/>
	<path style="fill:#FFFFFF;" d="M747.525,4940.75c0-1.44-1.171-2.615-2.616-2.615c-1.444,0-2.616,1.175-2.616,2.615
		c0,1.445,1.171,2.621,2.616,2.621C746.354,4943.371,747.525,4942.195,747.525,4940.75"/>
	<path style="fill:#FFFFFF;" d="M802.934,7250.019c0-1.609-1.305-2.91-2.907-2.91c-1.606,0-2.912,1.301-2.912,2.91
		c0,1.604,1.306,2.905,2.912,2.905C801.629,7252.924,802.934,7251.623,802.934,7250.019"/>
	<path style="fill:#FFFFFF;" d="M123.332,7382.065c0-1.608-1.306-2.909-2.907-2.909c-1.606,0-2.912,1.301-2.912,2.909
		c0,1.604,1.305,2.905,2.912,2.905C122.027,7384.971,123.332,7383.669,123.332,7382.065"/>
	<path style="fill:#FFFFFF;" d="M2493.734,5166.526c0-2.276-1.836-4.114-4.11-4.114c-2.269,0-4.11,1.838-4.11,4.114
		c0,2.267,1.841,4.106,4.11,4.106C2491.897,5170.632,2493.734,5168.793,2493.734,5166.526"/>
	<path style="fill:#FFFFFF;" d="M2306.548,5298.136c0-1.705-1.385-3.085-3.09-3.085c-1.708,0-3.085,1.38-3.085,3.085
		c0,1.704,1.376,3.084,3.085,3.084C2305.163,5301.221,2306.548,5299.84,2306.548,5298.136"/>
	<path style="fill:#FFFFFF;" d="M1814.103,5832.89c0-0.392-0.323-0.711-0.715-0.711c-0.396,0-0.715,0.319-0.715,0.711
		c0,0.396,0.319,0.713,0.715,0.713C1813.78,5833.603,1814.103,5833.287,1814.103,5832.89"/>
	<path style="fill:#FFFFFF;" d="M794.025,5356.435c0-1.705-1.388-3.085-3.092-3.085c-1.707,0-3.085,1.38-3.085,3.085
		c0,1.704,1.378,3.084,3.085,3.084C792.637,5359.52,794.025,5358.139,794.025,5356.435"/>
	<path style="fill:#FFFFFF;" d="M1650.487,7041.647c0-1.44-1.171-2.615-2.615-2.615c-1.444,0-2.615,1.175-2.615,2.615
		c0,1.444,1.171,2.62,2.615,2.62C1649.316,7044.267,1650.487,7043.091,1650.487,7041.647"/>
	<path style="fill:#FFFFFF;" d="M1318.586,7063.401c0-1.704-1.387-3.085-3.092-3.085c-1.706,0-3.085,1.381-3.085,3.085
		s1.379,3.084,3.085,3.084C1317.199,7066.485,1318.586,7065.105,1318.586,7063.401"/>
	<path style="fill:#FFFFFF;" d="M296.722,6814.536c0-1.44-1.171-2.616-2.616-2.616c-1.444,0-2.616,1.176-2.616,2.616
		c0,1.444,1.171,2.62,2.616,2.62C295.551,6817.156,296.722,6815.98,296.722,6814.536"/>
	<path style="fill:#FFFFFF;" d="M1174.146,7178.629c0-1.44-1.171-2.616-2.616-2.616c-1.445,0-2.616,1.176-2.616,2.616
		c0,1.444,1.171,2.62,2.616,2.62C1172.975,7181.249,1174.146,7180.073,1174.146,7178.629"/>
	<path style="fill:#FFFFFF;" d="M2118.214,7042.009c0-1.44-1.171-2.616-2.616-2.616c-1.444,0-2.615,1.176-2.615,2.616
		c0,1.444,1.171,2.62,2.615,2.62C2117.043,7044.629,2118.214,7043.454,2118.214,7042.009"/>
	<path style="fill:#FFFFFF;" d="M794.025,7050.902c0-1.704-1.388-3.085-3.092-3.085c-1.707,0-3.085,1.381-3.085,3.085
		s1.378,3.084,3.085,3.084C792.637,7053.986,794.025,7052.606,794.025,7050.902"/>
	<path style="fill:#FFFFFF;" d="M2423.567,4353.391c0-1.089-0.884-1.973-1.973-1.973c-1.094,0-1.973,0.884-1.973,1.973
		c0,1.084,0.879,1.964,1.973,1.964C2422.683,4355.355,2423.567,4354.476,2423.567,4353.391"/>
	<path style="fill:#FFFFFF;" d="M1181.617,3881.429c0-1.44-1.171-2.615-2.616-2.615c-1.444,0-2.615,1.176-2.615,2.615
		c0,1.445,1.171,2.62,2.615,2.62C1180.446,3884.049,1181.617,3882.873,1181.617,3881.429"/>
	<path style="fill:#FFFFFF;" d="M2677.089,4529.308c0-1.089-0.884-1.973-1.973-1.973c-1.094,0-1.973,0.884-1.973,1.973
		c0,1.084,0.879,1.964,1.973,1.964C2676.205,4531.272,2677.089,4530.393,2677.089,4529.308"/>
	<path style="fill:#FFFFFF;" d="M1956.309,3758.965c0-2.16-1.75-3.914-3.909-3.914c-2.16,0-3.914,1.754-3.914,3.914
		c0,2.151,1.754,3.91,3.914,3.91C1954.56,3762.874,1956.309,3761.115,1956.309,3758.965"/>
	<path style="fill:#FFFFFF;" d="M2079.676,4769.465c0-3.192-2.593-5.778-5.785-5.778c-3.194,0-5.78,2.586-5.78,5.778
		s2.586,5.778,5.78,5.778C2077.083,4775.243,2079.676,4772.657,2079.676,4769.465"/>
	<path style="fill:#FFFFFF;" d="M123.476,4497.924c0-1.609-1.306-2.91-2.907-2.91c-1.606,0-2.912,1.301-2.912,2.91
		c0,1.604,1.305,2.905,2.912,2.905C122.17,4500.829,123.476,4499.528,123.476,4497.924"/>
	<path style="fill:#FFFFFF;" d="M438.416,4094.385c0-1.44-1.171-2.615-2.616-2.615c-1.444,0-2.616,1.176-2.616,2.615
		c0,1.444,1.171,2.62,2.616,2.62C437.245,4097.005,438.416,4095.829,438.416,4094.385"/>
	<path style="fill:#FFFFFF;" d="M318.026,4564.643c0-1.891-1.536-3.422-3.429-3.422c-1.893,0-3.424,1.531-3.424,3.422
		c0,1.893,1.531,3.431,3.424,3.431C316.491,4568.074,318.026,4566.536,318.026,4564.643"/>
	<path style="fill:#FFFFFF;" d="M705.132,3847.308c0-1.44-1.171-2.615-2.616-2.615c-1.444,0-2.616,1.176-2.616,2.615
		c0,1.445,1.171,2.62,2.616,2.62C703.961,3849.928,705.132,3848.753,705.132,3847.308"/>
	<path style="fill:#FFFFFF;" d="M101.696,4810.909c0-1.44-1.171-2.616-2.616-2.616c-1.445,0-2.616,1.176-2.616,2.616
		c0,1.444,1.171,2.62,2.616,2.62C100.525,4813.529,101.696,4812.353,101.696,4810.909"/>
	<path style="fill:#FFFFFF;" d="M1083.531,4287.9c0-1.44-1.171-2.616-2.616-2.616c-1.444,0-2.615,1.176-2.615,2.616
		c0,1.444,1.171,2.62,2.615,2.62C1082.36,4290.52,1083.531,4289.344,1083.531,4287.9"/>
	<path style="fill:#FFFFFF;" d="M752.124,4056.778c0-1.704-1.387-3.085-3.092-3.085c-1.706,0-3.085,1.381-3.085,3.085
		c0,1.704,1.379,3.085,3.085,3.085C750.737,4059.863,752.124,4058.483,752.124,4056.778"/>
	<path style="fill:#FFFFFF;" d="M2397.851,4687.891c0-1.089-0.884-1.973-1.973-1.973c-1.094,0-1.973,0.884-1.973,1.973
		c0,1.084,0.88,1.964,1.973,1.964C2396.967,4689.855,2397.851,4688.976,2397.851,4687.891"/>
	<path style="fill:#FFFFFF;" d="M751.631,4309.653c0-1.704-1.387-3.085-3.092-3.085c-1.707,0-3.085,1.381-3.085,3.085
		c0,1.705,1.378,3.085,3.085,3.085C750.244,4312.738,751.631,4311.358,751.631,4309.653"/>
	<path style="fill:#FFFFFF;" d="M132.866,3030.418c0-1.609-1.306-2.909-2.907-2.909c-1.606,0-2.912,1.301-2.912,2.909
		c0,1.604,1.305,2.905,2.912,2.905C131.56,3033.323,132.866,3032.022,132.866,3030.418"/>
	<path style="fill:#FFFFFF;" d="M2013.731,3446.508c0-0.392-0.324-0.711-0.716-0.711c-0.396,0-0.715,0.319-0.715,0.711
		c0,0.396,0.319,0.713,0.715,0.713C2013.407,3447.221,2013.731,3446.905,2013.731,3446.508"/>
	<path style="fill:#FFFFFF;" d="M1683.439,3367.299c0-0.392-0.324-0.711-0.716-0.711c-0.396,0-0.715,0.319-0.715,0.711
		c0,0.396,0.319,0.713,0.715,0.713C1683.116,3368.012,1683.439,3367.695,1683.439,3367.299"/>
	<path style="fill:#FFFFFF;" d="M1763.706,3319.763c0-0.392-0.323-0.711-0.715-0.711c-0.396,0-0.715,0.319-0.715,0.711
		c0,0.396,0.319,0.713,0.715,0.713C1763.383,3320.476,1763.706,3320.159,1763.706,3319.763"/>
	<path style="fill:#FFFFFF;" d="M367.463,3434.072c0-1.608-1.306-2.91-2.907-2.91c-1.606,0-2.912,1.301-2.912,2.91
		c0,1.604,1.305,2.905,2.912,2.905C366.157,3436.977,367.463,3435.676,367.463,3434.072"/>
	<path style="fill:#FFFFFF;" d="M1410.97,2956.636c0-1.44-1.171-2.616-2.615-2.616c-1.445,0-2.616,1.176-2.616,2.616
		c0,1.444,1.171,2.62,2.616,2.62C1409.799,2959.256,1410.97,2958.08,1410.97,2956.636"/>
	<path style="fill:#FFFFFF;" d="M142.54,3798.347c0-1.704-1.387-3.085-3.092-3.085c-1.706,0-3.085,1.381-3.085,3.085
		c0,1.704,1.379,3.085,3.085,3.085C141.152,3801.432,142.54,3800.052,142.54,3798.347"/>
	<path style="fill:#FFFFFF;" d="M2034.259,3391.271c0-0.342-0.264-0.615-0.606-0.615c-0.333,0-0.606,0.273-0.606,0.615
		c0,0.333,0.273,0.606,0.606,0.606C2033.995,3391.878,2034.259,3391.604,2034.259,3391.271"/>
	<path style="fill:#FFFFFF;" d="M1079.069,2978.389c0-1.704-1.387-3.085-3.092-3.085c-1.706,0-3.085,1.38-3.085,3.085
		s1.378,3.085,3.085,3.085C1077.682,2981.474,1079.069,2980.094,1079.069,2978.389"/>
	<path style="fill:#FFFFFF;" d="M1288.098,2982.314c0-1.089-0.884-1.973-1.973-1.973c-1.093,0-1.973,0.884-1.973,1.973
		c0,1.085,0.88,1.964,1.973,1.964C1287.214,2984.278,1288.098,2983.398,1288.098,2982.314"/>
	<path style="fill:#FFFFFF;" d="M2130.937,3120.828c0-0.392-0.323-0.711-0.716-0.711c-0.396,0-0.715,0.319-0.715,0.711
		c0,0.396,0.319,0.713,0.715,0.713C2130.613,3121.541,2130.937,3121.224,2130.937,3120.828"/>
	<path style="fill:#FFFFFF;" d="M475.895,3007.191c0-1.891-1.536-3.422-3.429-3.422c-1.893,0-3.424,1.531-3.424,3.422
		c0,1.894,1.531,3.431,3.424,3.431C474.359,3010.622,475.895,3009.085,475.895,3007.191"/>
	<path style="fill:#FFFFFF;" d="M2561.447,3073.165c0-0.392-0.323-0.711-0.715-0.711c-0.396,0-0.716,0.319-0.716,0.711
		c0,0.396,0.319,0.713,0.716,0.713C2561.123,3073.878,2561.447,3073.561,2561.447,3073.165"/>
	<path style="fill:#FFFFFF;" d="M2288.978,2662.502c0-1.44-1.171-2.615-2.616-2.615s-2.615,1.176-2.615,2.615
		c0,1.444,1.171,2.62,2.615,2.62S2288.978,2663.946,2288.978,2662.502"/>
	<path style="fill:#FFFFFF;" d="M2155.73,2856.221c0-1.089-0.884-1.973-1.973-1.973c-1.094,0-1.973,0.884-1.973,1.973
		c0,1.084,0.879,1.964,1.973,1.964C2154.846,2858.186,2155.73,2857.306,2155.73,2856.221"/>
	<path style="fill:#FFFFFF;" d="M2185.307,3541.463c0-1.089-0.884-1.973-1.973-1.973c-1.094,0-1.973,0.884-1.973,1.973
		c0,1.084,0.879,1.964,1.973,1.964C2184.423,3543.427,2185.307,3542.548,2185.307,3541.463"/>
	<path style="fill:#FFFFFF;" d="M2023.12,3629.834c0-1.089-0.884-1.973-1.973-1.973c-1.094,0-1.973,0.884-1.973,1.973
		c0,1.084,0.879,1.964,1.973,1.964C2022.236,3631.798,2023.12,3630.918,2023.12,3629.834"/>
	<path style="fill:#FFFFFF;" d="M2440.803,3406.692c0-1.089-0.884-1.973-1.973-1.973c-1.094,0-1.973,0.884-1.973,1.973
		c0,1.084,0.879,1.964,1.973,1.964C2439.919,3408.656,2440.803,3407.776,2440.803,3406.692"/>
	<path style="fill:#FFFFFF;" d="M2797.599,2552.901c0-1.089-0.884-1.973-1.973-1.973c-1.094,0-1.973,0.884-1.973,1.973
		c0,1.084,0.879,1.964,1.973,1.964C2796.715,2554.865,2797.599,2553.986,2797.599,2552.901"/>
	<path style="fill:#FFFFFF;" d="M143.057,3842.886c0-1.44-1.171-2.615-2.616-2.615c-1.445,0-2.616,1.176-2.616,2.615
		c0,1.445,1.171,2.62,2.616,2.62C141.886,3845.506,143.057,3844.33,143.057,3842.886"/>
	<path style="fill:#FFFFFF;" d="M52.115,3746.694c0-2.276-1.836-4.115-4.11-4.115c-2.269,0-4.11,1.839-4.11,4.115
		c0,2.267,1.841,4.105,4.11,4.105C50.279,3750.799,52.115,3748.96,52.115,3746.694"/>
	<path style="fill:#FFFFFF;" d="M1052.845,377.172c0-1.44-1.171-2.616-2.616-2.616c-1.445,0-2.616,1.176-2.616,2.616
		c0,1.445,1.171,2.62,2.616,2.62C1051.673,379.792,1052.845,378.616,1052.845,377.172"/>
	<path style="fill:#FFFFFF;" d="M926.217,23.422c0-1.891-1.536-3.422-3.429-3.422c-1.893,0-3.424,1.531-3.424,3.422
		c0,1.893,1.531,3.431,3.424,3.431C924.681,26.853,926.217,25.315,926.217,23.422"/>
	<path style="fill:#FFFFFF;" d="M886.596,708.869c0-1.704-1.388-3.085-3.092-3.085c-1.707,0-3.085,1.381-3.085,3.085
		c0,1.704,1.378,3.085,3.085,3.085C885.208,711.954,886.596,710.573,886.596,708.869"/>
	<path style="fill:#FFFFFF;" d="M992.625,563.248c0-1.44-1.171-2.616-2.616-2.616c-1.444,0-2.615,1.176-2.615,2.616
		c0,1.444,1.171,2.62,2.615,2.62C991.454,565.868,992.625,564.692,992.625,563.248"/>
	<path style="fill:#FFFFFF;" d="M1701.539,1309.078c0-1.891-1.536-3.422-3.431-3.422c-1.891,0-3.422,1.531-3.422,3.422
		c0,1.893,1.531,3.431,3.422,3.431C1700.004,1312.509,1701.539,1310.971,1701.539,1309.078"/>
	<path style="fill:#FFFFFF;" d="M872.464,550.589c0-2.276-1.836-4.115-4.11-4.115c-2.269,0-4.11,1.839-4.11,4.115
		c0,2.267,1.841,4.106,4.11,4.106C870.628,554.695,872.464,552.856,872.464,550.589"/>
	<path style="fill:#FFFFFF;" d="M1386.239,1133.489c0-1.089-0.884-1.973-1.973-1.973c-1.094,0-1.973,0.884-1.973,1.973
		c0,1.084,0.88,1.964,1.973,1.964C1385.355,1135.453,1386.239,1134.574,1386.239,1133.489"/>
	<path style="fill:#FFFFFF;" d="M1942.69,821.832c0-1.089-0.884-1.973-1.973-1.973c-1.094,0-1.973,0.884-1.973,1.973
		c0,1.085,0.88,1.964,1.973,1.964C1941.806,823.796,1942.69,822.917,1942.69,821.832"/>
	<path style="fill:#FFFFFF;" d="M2752.693,273.288c0-1.089-0.884-1.973-1.973-1.973c-1.094,0-1.973,0.884-1.973,1.973
		c0,1.084,0.879,1.964,1.973,1.964C2751.809,275.251,2752.693,274.372,2752.693,273.288"/>
	<path style="fill:#FFFFFF;" d="M1501.342,205.889c0-1.089-0.884-1.973-1.973-1.973c-1.094,0-1.973,0.884-1.973,1.973
		c0,1.085,0.879,1.964,1.973,1.964C1500.458,207.853,1501.342,206.974,1501.342,205.889"/>
	<path style="fill:#FFFFFF;" d="M2459.076,281.704c0-1.089-0.884-1.973-1.973-1.973c-1.094,0-1.973,0.884-1.973,1.973
		c0,1.085,0.879,1.964,1.973,1.964C2458.192,283.668,2459.076,282.788,2459.076,281.704"/>
	<path style="fill:#FFFFFF;" d="M1980.606,226.308c0-0.342-0.264-0.615-0.606-0.615c-0.333,0-0.606,0.273-0.606,0.615
		c0,0.333,0.273,0.606,0.606,0.606C1980.342,226.914,1980.606,226.64,1980.606,226.308"/>
	<path style="fill:#FFFFFF;" d="M2001.194,292.034c0-0.392-0.324-0.711-0.715-0.711c-0.397,0-0.716,0.319-0.716,0.711
		c0,0.396,0.319,0.713,0.716,0.713C2000.87,292.747,2001.194,292.43,2001.194,292.034"/>
	<path style="fill:#FFFFFF;" d="M1895.207,194.149c0-1.891-1.536-3.422-3.429-3.422c-1.894,0-3.424,1.531-3.424,3.422
		c0,1.893,1.531,3.431,3.424,3.431C1893.671,197.58,1895.207,196.042,1895.207,194.149"/>
	<path style="fill:#FFFFFF;" d="M1541.339,120.784c0-1.891-1.536-3.422-3.429-3.422c-1.893,0-3.424,1.531-3.424,3.422
		c0,1.893,1.531,3.431,3.424,3.431C1539.803,124.216,1541.339,122.678,1541.339,120.784"/>
	<path style="fill:#FFFFFF;" d="M2211.498,629.53c0-1.089-0.884-1.973-1.973-1.973c-1.094,0-1.973,0.884-1.973,1.973
		c0,1.085,0.879,1.964,1.973,1.964C2210.614,631.494,2211.498,630.614,2211.498,629.53"/>
	<path style="fill:#FFFFFF;" d="M2749.385,546.479c0-1.089-0.884-1.973-1.973-1.973c-1.094,0-1.973,0.884-1.973,1.973
		c0,1.084,0.88,1.964,1.973,1.964C2748.5,548.443,2749.385,547.563,2749.385,546.479"/>
	<path style="fill:#FFFFFF;" d="M458.956,337.917c0-1.609-1.306-2.91-2.907-2.91c-1.606,0-2.912,1.301-2.912,2.91
		c0,1.604,1.305,2.905,2.912,2.905C457.65,340.822,458.956,339.521,458.956,337.917"/>
	<path style="fill:#FFFFFF;" d="M1927.625,1177.459c0-2.16-1.75-3.914-3.91-3.914c-2.16,0-3.914,1.754-3.914,3.914
		c0,2.151,1.754,3.91,3.914,3.91C1925.876,1181.369,1927.625,1179.61,1927.625,1177.459"/>
	<path style="fill:#FFFFFF;" d="M1041.509,1312.527c0-1.891-1.536-3.422-3.429-3.422c-1.894,0-3.424,1.531-3.424,3.422
		c0,1.894,1.531,3.431,3.424,3.431C1039.973,1315.958,1041.509,1314.421,1041.509,1312.527"/>
	<path style="fill:#FFFFFF;" d="M2542.386,991.559c0-1.089-0.884-1.973-1.973-1.973c-1.094,0-1.973,0.884-1.973,1.973
		c0,1.085,0.879,1.964,1.973,1.964C2541.502,993.523,2542.386,992.643,2542.386,991.559"/>
	<path style="fill:#FFFFFF;" d="M2724.364,1186.395c0-1.609-1.305-2.91-2.907-2.91c-1.606,0-2.912,1.301-2.912,2.91
		c0,1.604,1.305,2.905,2.912,2.905C2723.058,1189.3,2724.364,1187.999,2724.364,1186.395"/>
	<path style="fill:#FFFFFF;" d="M2443.813,917.715c0-1.089-0.884-1.973-1.973-1.973c-1.094,0-1.973,0.884-1.973,1.973
		c0,1.084,0.879,1.964,1.973,1.964C2442.929,919.679,2443.813,918.799,2443.813,917.715"/>
	<path style="fill:#FFFFFF;" d="M1201.863,445.752c0-1.44-1.171-2.615-2.616-2.615c-1.444,0-2.616,1.176-2.616,2.615
		c0,1.445,1.171,2.62,2.616,2.62C1200.692,448.373,1201.863,447.197,1201.863,445.752"/>
	<path style="fill:#FFFFFF;" d="M2697.335,1093.632c0-1.089-0.884-1.973-1.973-1.973c-1.094,0-1.973,0.884-1.973,1.973
		c0,1.085,0.879,1.964,1.973,1.964C2696.451,1095.596,2697.335,1094.716,2697.335,1093.632"/>
	<path style="fill:#FFFFFF;" d="M1976.555,323.288c0-2.16-1.75-3.914-3.91-3.914s-3.914,1.754-3.914,3.914
		c0,2.151,1.755,3.91,3.914,3.91S1976.555,325.439,1976.555,323.288"/>
	<path style="fill:#FFFFFF;" d="M143.722,1062.247c0-1.609-1.306-2.91-2.907-2.91c-1.606,0-2.912,1.301-2.912,2.91
		c0,1.604,1.305,2.905,2.912,2.905C142.416,1065.152,143.722,1063.851,143.722,1062.247"/>
	<path style="fill:#FFFFFF;" d="M458.662,658.709c0-1.44-1.171-2.616-2.616-2.616c-1.444,0-2.616,1.176-2.616,2.616
		c0,1.444,1.171,2.62,2.616,2.62C457.491,661.329,458.662,660.153,458.662,658.709"/>
	<path style="fill:#FFFFFF;" d="M338.272,1128.967c0-1.891-1.536-3.422-3.429-3.422c-1.893,0-3.424,1.531-3.424,3.422
		c0,1.893,1.531,3.431,3.424,3.431C336.737,1132.398,338.272,1130.86,338.272,1128.967"/>
	<path style="fill:#FFFFFF;" d="M725.378,411.632c0-1.44-1.171-2.615-2.616-2.615c-1.444,0-2.616,1.176-2.616,2.615
		c0,1.445,1.171,2.62,2.616,2.62C724.207,414.252,725.378,413.076,725.378,411.632"/>
	<path style="fill:#FFFFFF;" d="M1103.777,852.223c0-1.44-1.171-2.616-2.616-2.616c-1.444,0-2.616,1.176-2.616,2.616
		c0,1.444,1.171,2.62,2.616,2.62C1102.606,854.843,1103.777,853.668,1103.777,852.223"/>
	<path style="fill:#FFFFFF;" d="M772.37,621.102c0-1.704-1.387-3.085-3.092-3.085c-1.706,0-3.085,1.381-3.085,3.085
		c0,1.704,1.379,3.085,3.085,3.085C770.983,624.187,772.37,622.806,772.37,621.102"/>
	<path style="fill:#FFFFFF;" d="M2418.097,1252.215c0-1.089-0.884-1.973-1.973-1.973c-1.093,0-1.973,0.884-1.973,1.973
		c0,1.084,0.88,1.964,1.973,1.964C2417.213,1254.179,2418.097,1253.299,2418.097,1252.215"/>
	<path style="fill:#FFFFFF;" d="M771.877,873.977c0-1.704-1.387-3.085-3.092-3.085c-1.707,0-3.085,1.381-3.085,3.085
		s1.378,3.085,3.085,3.085C770.49,877.062,771.877,875.681,771.877,873.977"/>
	<path style="fill:#FFFFFF;" d="M162.786,362.671c0-1.704-1.387-3.085-3.092-3.085c-1.706,0-3.085,1.381-3.085,3.085
		s1.379,3.085,3.085,3.085C161.399,365.756,162.786,364.375,162.786,362.671"/>
	<path style="fill:#FFFFFF;" d="M2205.553,105.787c0-1.089-0.884-1.973-1.973-1.973c-1.094,0-1.973,0.884-1.973,1.973
		c0,1.084,0.88,1.964,1.973,1.964C2204.669,107.751,2205.553,106.871,2205.553,105.787"/>
	<path style="fill:#FFFFFF;" d="M2043.366,194.158c0-1.089-0.884-1.973-1.973-1.973c-1.094,0-1.973,0.884-1.973,1.973
		c0,1.084,0.879,1.964,1.973,1.964C2042.482,196.122,2043.366,195.242,2043.366,194.158"/>
	<path style="fill:#FFFFFF;" d="M163.303,407.209c0-1.44-1.171-2.616-2.616-2.616c-1.445,0-2.616,1.176-2.616,2.616
		c0,1.445,1.171,2.62,2.616,2.62C162.132,409.83,163.303,408.654,163.303,407.209"/>
	<path style="fill:#FFFFFF;" d="M72.361,311.017c0-2.276-1.836-4.115-4.11-4.115c-2.269,0-4.11,1.839-4.11,4.115
		c0,2.267,1.841,4.105,4.11,4.105C70.525,315.123,72.361,313.284,72.361,311.017"/>
	<path style="fill:#FFFFFF;" d="M1051.599,1695.628c0-1.44-1.171-2.616-2.616-2.616c-1.445,0-2.615,1.176-2.615,2.616
		c0,1.445,1.171,2.62,2.615,2.62C1050.427,1698.248,1051.599,1697.072,1051.599,1695.628"/>
	<path style="fill:#FFFFFF;" d="M924.971,1341.878c0-1.891-1.536-3.422-3.429-3.422c-1.893,0-3.424,1.531-3.424,3.422
		c0,1.893,1.531,3.431,3.424,3.431C923.435,1345.309,924.971,1343.771,924.971,1341.878"/>
	<path style="fill:#FFFFFF;" d="M885.35,2027.325c0-1.704-1.388-3.085-3.092-3.085c-1.707,0-3.085,1.381-3.085,3.085
		c0,1.704,1.378,3.085,3.085,3.085C883.962,2030.41,885.35,2029.029,885.35,2027.325"/>
	<path style="fill:#FFFFFF;" d="M991.379,1881.704c0-1.44-1.171-2.615-2.616-2.615c-1.444,0-2.615,1.176-2.615,2.615
		c0,1.444,1.171,2.62,2.615,2.62C990.208,1884.324,991.379,1883.148,991.379,1881.704"/>
	<path style="fill:#FFFFFF;" d="M871.218,1869.045c0-2.276-1.836-4.115-4.11-4.115c-2.269,0-4.11,1.839-4.11,4.115
		c0,2.267,1.841,4.106,4.11,4.106C869.382,1873.151,871.218,1871.312,871.218,1869.045"/>
	<path style="fill:#FFFFFF;" d="M1384.993,2451.945c0-1.089-0.884-1.973-1.973-1.973c-1.094,0-1.973,0.884-1.973,1.973
		c0,1.084,0.88,1.964,1.973,1.964C1384.109,2453.909,1384.993,2453.03,1384.993,2451.945"/>
	<path style="fill:#FFFFFF;" d="M1941.444,2140.289c0-1.089-0.884-1.973-1.973-1.973c-1.094,0-1.973,0.884-1.973,1.973
		c0,1.084,0.88,1.964,1.973,1.964C1940.56,2142.252,1941.444,2141.373,1941.444,2140.289"/>
	<path style="fill:#FFFFFF;" d="M2751.447,1591.744c0-1.089-0.884-1.973-1.973-1.973c-1.093,0-1.973,0.884-1.973,1.973
		c0,1.084,0.88,1.964,1.973,1.964C2750.562,1593.708,2751.447,1592.828,2751.447,1591.744"/>
	<path style="fill:#FFFFFF;" d="M1251.341,1232.016c0-0.342-0.264-0.615-0.606-0.615c-0.332,0-0.606,0.273-0.606,0.615
		c0,0.333,0.273,0.606,0.606,0.606C1251.077,1232.622,1251.341,1232.348,1251.341,1232.016"/>
	<path style="fill:#FFFFFF;" d="M1500.096,1524.345c0-1.089-0.884-1.973-1.973-1.973c-1.094,0-1.973,0.884-1.973,1.973
		c0,1.085,0.879,1.964,1.973,1.964C1499.212,1526.309,1500.096,1525.43,1500.096,1524.345"/>
	<path style="fill:#FFFFFF;" d="M1722.967,1194.842c0-0.342-0.264-0.615-0.606-0.615c-0.333,0-0.606,0.273-0.606,0.615
		c0,0.333,0.273,0.606,0.606,0.606C1722.703,1195.448,1722.967,1195.175,1722.967,1194.842"/>
	<path style="fill:#FFFFFF;" d="M2599.767,1171.053c0-1.089-0.884-1.973-1.973-1.973c-1.094,0-1.973,0.884-1.973,1.973
		c0,1.085,0.88,1.964,1.973,1.964C2598.883,1173.017,2599.767,1172.138,2599.767,1171.053"/>
	<path style="fill:#FFFFFF;" d="M856.22,1210.196c0-0.392-0.323-0.711-0.715-0.711c-0.396,0-0.716,0.319-0.716,0.711
		c0,0.396,0.319,0.713,0.716,0.713C855.897,1210.909,856.22,1210.592,856.22,1210.196"/>
	<path style="fill:#FFFFFF;" d="M165.305,1296.025c0-1.891-1.536-3.422-3.429-3.422c-1.893,0-3.424,1.531-3.424,3.422
		c0,1.893,1.531,3.431,3.424,3.431C163.769,1299.456,165.305,1297.918,165.305,1296.025"/>
	<path style="fill:#FFFFFF;" d="M2457.83,1600.16c0-1.089-0.884-1.973-1.973-1.973c-1.094,0-1.973,0.884-1.973,1.973
		c0,1.085,0.879,1.964,1.973,1.964C2456.946,1602.124,2457.83,1601.245,2457.83,1600.16"/>
	<path style="fill:#FFFFFF;" d="M1979.36,1544.764c0-0.342-0.264-0.615-0.606-0.615c-0.333,0-0.606,0.273-0.606,0.615
		c0,0.333,0.273,0.606,0.606,0.606C1979.096,1545.37,1979.36,1545.097,1979.36,1544.764"/>
	<path style="fill:#FFFFFF;" d="M1999.948,1610.49c0-0.392-0.324-0.711-0.715-0.711c-0.397,0-0.715,0.319-0.715,0.711
		c0,0.396,0.319,0.713,0.715,0.713C1999.624,1611.203,1999.948,1610.886,1999.948,1610.49"/>
	<path style="fill:#FFFFFF;" d="M1893.961,1512.605c0-1.891-1.536-3.422-3.429-3.422c-1.893,0-3.424,1.531-3.424,3.422
		c0,1.893,1.531,3.431,3.424,3.431C1892.425,1516.036,1893.961,1514.498,1893.961,1512.605"/>
	<path style="fill:#FFFFFF;" d="M1540.093,1439.24c0-1.891-1.536-3.422-3.429-3.422c-1.893,0-3.424,1.531-3.424,3.422
		c0,1.893,1.531,3.431,3.424,3.431C1538.557,1442.672,1540.093,1441.134,1540.093,1439.24"/>
	<path style="fill:#FFFFFF;" d="M2149.937,1329.94c0-1.44-1.171-2.616-2.615-2.616c-1.445,0-2.616,1.176-2.616,2.616
		c0,1.444,1.171,2.62,2.616,2.62C2148.766,1332.56,2149.937,1331.384,2149.937,1329.94"/>
	<path style="fill:#FFFFFF;" d="M2315.364,1247.989c0-1.44-1.171-2.616-2.615-2.616c-1.444,0-2.616,1.176-2.616,2.616
		c0,1.444,1.171,2.62,2.616,2.62C2314.193,1250.609,2315.364,1249.434,2315.364,1247.989"/>
	<path style="fill:#FFFFFF;" d="M2210.252,1947.986c0-1.089-0.884-1.973-1.973-1.973c-1.094,0-1.973,0.884-1.973,1.973
		c0,1.085,0.879,1.964,1.973,1.964C2209.368,1949.95,2210.252,1949.07,2210.252,1947.986"/>
	<path style="fill:#FFFFFF;" d="M2748.138,1864.935c0-1.089-0.884-1.973-1.973-1.973c-1.094,0-1.973,0.884-1.973,1.973
		c0,1.084,0.88,1.964,1.973,1.964C2747.254,1866.899,2748.138,1866.019,2748.138,1864.935"/>
	<path style="fill:#FFFFFF;" d="M457.71,1656.373c0-1.609-1.306-2.91-2.907-2.91c-1.606,0-2.912,1.301-2.912,2.91
		c0,1.604,1.305,2.905,2.912,2.905C456.404,1659.278,457.71,1657.977,457.71,1656.373"/>
	<path style="fill:#FFFFFF;" d="M1926.379,2495.916c0-2.16-1.75-3.914-3.91-3.914s-3.914,1.754-3.914,3.914
		c0,2.151,1.754,3.91,3.914,3.91S1926.379,2498.066,1926.379,2495.916"/>
	<path style="fill:#FFFFFF;" d="M2541.14,2310.015c0-1.089-0.884-1.973-1.973-1.973c-1.094,0-1.973,0.884-1.973,1.973
		c0,1.084,0.88,1.964,1.973,1.964C2540.256,2311.979,2541.14,2311.099,2541.14,2310.015"/>
	<path style="fill:#FFFFFF;" d="M2723.117,2504.851c0-1.609-1.305-2.91-2.907-2.91c-1.606,0-2.912,1.301-2.912,2.91
		c0,1.604,1.305,2.905,2.912,2.905C2721.812,2507.756,2723.117,2506.455,2723.117,2504.851"/>
	<path style="fill:#FFFFFF;" d="M2442.567,2236.171c0-1.089-0.884-1.973-1.973-1.973c-1.094,0-1.973,0.884-1.973,1.973
		c0,1.084,0.879,1.964,1.973,1.964C2441.683,2238.135,2442.567,2237.255,2442.567,2236.171"/>
	<path style="fill:#FFFFFF;" d="M1200.617,1764.209c0-1.44-1.171-2.615-2.616-2.615c-1.444,0-2.615,1.176-2.615,2.615
		c0,1.445,1.171,2.62,2.615,2.62C1199.446,1766.829,1200.617,1765.653,1200.617,1764.209"/>
	<path style="fill:#FFFFFF;" d="M2696.089,2412.088c0-1.089-0.884-1.973-1.973-1.973c-1.094,0-1.973,0.884-1.973,1.973
		c0,1.085,0.879,1.964,1.973,1.964C2695.205,2414.052,2696.089,2413.172,2696.089,2412.088"/>
	<path style="fill:#FFFFFF;" d="M1975.309,1641.744c0-2.16-1.75-3.914-3.909-3.914c-2.16,0-3.914,1.754-3.914,3.914
		c0,2.151,1.754,3.91,3.914,3.91C1973.56,1645.654,1975.309,1643.895,1975.309,1641.744"/>
	<path style="fill:#FFFFFF;" d="M142.476,2380.703c0-1.609-1.306-2.909-2.907-2.909c-1.606,0-2.912,1.301-2.912,2.909
		c0,1.604,1.305,2.905,2.912,2.905C141.17,2383.608,142.476,2382.307,142.476,2380.703"/>
	<path style="fill:#FFFFFF;" d="M457.416,1977.165c0-1.44-1.171-2.616-2.616-2.616c-1.444,0-2.616,1.176-2.616,2.616
		c0,1.444,1.171,2.62,2.616,2.62C456.245,1979.785,457.416,1978.609,457.416,1977.165"/>
	<path style="fill:#FFFFFF;" d="M337.026,2447.423c0-1.891-1.536-3.422-3.429-3.422c-1.893,0-3.424,1.531-3.424,3.422
		c0,1.893,1.531,3.431,3.424,3.431C335.491,2450.854,337.026,2449.316,337.026,2447.423"/>
	<path style="fill:#FFFFFF;" d="M724.132,1730.088c0-1.44-1.171-2.615-2.616-2.615c-1.444,0-2.616,1.176-2.616,2.615
		c0,1.445,1.171,2.62,2.616,2.62C722.961,1732.708,724.132,1731.532,724.132,1730.088"/>
	<path style="fill:#FFFFFF;" d="M1102.531,2170.68c0-1.44-1.171-2.616-2.616-2.616c-1.444,0-2.615,1.176-2.615,2.616
		c0,1.444,1.171,2.62,2.615,2.62C1101.36,2173.3,1102.531,2172.124,1102.531,2170.68"/>
	<path style="fill:#FFFFFF;" d="M771.124,1939.558c0-1.704-1.387-3.085-3.092-3.085c-1.706,0-3.085,1.381-3.085,3.085
		c0,1.704,1.379,3.085,3.085,3.085C769.737,1942.643,771.124,1941.262,771.124,1939.558"/>
	<path style="fill:#FFFFFF;" d="M770.631,2192.433c0-1.704-1.387-3.085-3.092-3.085c-1.707,0-3.085,1.381-3.085,3.085
		s1.378,3.085,3.085,3.085C769.244,2195.518,770.631,2194.138,770.631,2192.433"/>
	<path style="fill:#FFFFFF;" d="M2032.731,1329.288c0-0.392-0.324-0.711-0.716-0.711c-0.396,0-0.715,0.319-0.715,0.711
		c0,0.396,0.319,0.713,0.715,0.713C2032.407,1330.001,2032.731,1329.684,2032.731,1329.288"/>
	<path style="fill:#FFFFFF;" d="M1702.439,1250.078c0-0.392-0.324-0.711-0.716-0.711c-0.396,0-0.715,0.319-0.715,0.711
		c0,0.396,0.319,0.713,0.715,0.713C1702.116,1250.792,1702.439,1250.475,1702.439,1250.078"/>
	<path style="fill:#FFFFFF;" d="M1782.706,1202.543c0-0.392-0.323-0.711-0.715-0.711c-0.396,0-0.715,0.319-0.715,0.711
		c0,0.396,0.319,0.713,0.715,0.713C1782.383,1203.256,1782.706,1202.939,1782.706,1202.543"/>
	<path style="fill:#FFFFFF;" d="M386.463,1316.851c0-1.608-1.306-2.91-2.907-2.91c-1.606,0-2.912,1.301-2.912,2.91
		c0,1.604,1.305,2.905,2.912,2.905C385.157,1319.756,386.463,1318.455,386.463,1316.851"/>
	<path style="fill:#FFFFFF;" d="M161.54,1681.127c0-1.704-1.387-3.085-3.092-3.085c-1.706,0-3.085,1.381-3.085,3.085
		c0,1.704,1.379,3.085,3.085,3.085C160.152,1684.212,161.54,1682.831,161.54,1681.127"/>
	<path style="fill:#FFFFFF;" d="M2053.259,1274.051c0-0.342-0.264-0.615-0.606-0.615c-0.333,0-0.606,0.273-0.606,0.615
		c0,0.333,0.273,0.606,0.606,0.606C2052.995,1274.657,2053.259,1274.384,2053.259,1274.051"/>
	<path style="fill:#FFFFFF;" d="M2204.307,1424.243c0-1.089-0.884-1.973-1.973-1.973c-1.094,0-1.973,0.884-1.973,1.973
		c0,1.084,0.879,1.964,1.973,1.964C2203.423,1426.207,2204.307,1425.328,2204.307,1424.243"/>
	<path style="fill:#FFFFFF;" d="M2042.12,1512.614c0-1.089-0.884-1.973-1.973-1.973c-1.094,0-1.973,0.884-1.973,1.973
		c0,1.084,0.879,1.964,1.973,1.964C2041.236,1514.578,2042.12,1513.698,2042.12,1512.614"/>
	<path style="fill:#FFFFFF;" d="M2459.803,1289.471c0-1.089-0.884-1.973-1.973-1.973c-1.094,0-1.973,0.884-1.973,1.973
		c0,1.084,0.879,1.964,1.973,1.964C2458.919,1291.435,2459.803,1290.556,2459.803,1289.471"/>
	<path style="fill:#FFFFFF;" d="M162.057,1725.666c0-1.44-1.171-2.615-2.616-2.615c-1.445,0-2.616,1.176-2.616,2.615
		c0,1.445,1.171,2.62,2.616,2.62C160.886,1728.286,162.057,1727.11,162.057,1725.666"/>
	<path style="fill:#FFFFFF;" d="M71.115,1629.473c0-2.276-1.836-4.115-4.11-4.115c-2.269,0-4.11,1.839-4.11,4.115
		c0,2.267,1.841,4.105,4.11,4.105C69.279,1633.579,71.115,1631.74,71.115,1629.473"/>
	<path style="fill:#FFFFFF;" d="M2191.252,6582.083c0-1.089-0.884-1.973-1.973-1.973c-1.094,0-1.973,0.884-1.973,1.973
		c0,1.084,0.879,1.964,1.973,1.964C2190.368,6584.047,2191.252,6583.168,2191.252,6582.083"/>
	<path style="fill:#FFFFFF;" d="M438.71,6290.471c0-1.609-1.306-2.91-2.907-2.91c-1.606,0-2.912,1.301-2.912,2.91
		c0,1.604,1.305,2.905,2.912,2.905C437.404,6293.375,438.71,6292.075,438.71,6290.471"/>
	<path style="fill:#FFFFFF;" d="M905.971,5975.976c0-1.891-1.536-3.422-3.429-3.422c-1.893,0-3.424,1.531-3.424,3.422
		c0,1.893,1.531,3.431,3.424,3.431C904.435,5979.407,905.971,5977.869,905.971,5975.976"/>
	<path style="fill:#FFFFFF;" d="M333.252,6539.248c0-2.843-2.301-5.145-5.144-5.145c-2.841,0-5.142,2.301-5.142,5.145
		s2.301,5.145,5.142,5.145C330.951,6544.393,333.252,6542.091,333.252,6539.248"/>
	<path style="fill:#FFFFFF;" d="M752.124,6573.656c0-1.704-1.387-3.084-3.092-3.084c-1.706,0-3.085,1.38-3.085,3.084
		s1.379,3.085,3.085,3.085C750.737,6576.741,752.124,6575.36,752.124,6573.656"/>
	<path style="fill:#FFFFFF;" d="M2732.447,6225.841c0-1.089-0.884-1.973-1.973-1.973c-1.093,0-1.973,0.884-1.973,1.973
		c0,1.084,0.88,1.964,1.973,1.964C2731.562,6227.805,2732.447,6226.926,2732.447,6225.841"/>
	<path style="fill:#FFFFFF;" d="M1481.096,6158.443c0-1.089-0.884-1.973-1.973-1.973c-1.094,0-1.973,0.884-1.973,1.973
		c0,1.084,0.879,1.964,1.973,1.964C1480.212,6160.407,1481.096,6159.527,1481.096,6158.443"/>
	<path style="fill:#FFFFFF;" d="M1087.979,6054.828c0-1.608-1.306-2.91-2.907-2.91c-1.606,0-2.912,1.301-2.912,2.91
		c0,1.604,1.306,2.905,2.912,2.905C1086.673,6057.732,1087.979,6056.432,1087.979,6054.828"/>
	<path style="fill:#FFFFFF;" d="M146.305,5930.123c0-1.891-1.536-3.422-3.429-3.422c-1.893,0-3.424,1.531-3.424,3.422
		c0,1.893,1.531,3.431,3.424,3.431C144.769,5933.554,146.305,5932.016,146.305,5930.123"/>
	<path style="fill:#FFFFFF;" d="M786.819,5795.04c0-1.704-1.387-3.085-3.092-3.085c-1.706,0-3.085,1.381-3.085,3.085
		s1.379,3.085,3.085,3.085C785.432,5798.125,786.819,5796.744,786.819,5795.04"/>
	<path style="fill:#FFFFFF;" d="M2054.22,6266.462c0-1.089-0.884-1.973-1.973-1.973c-1.094,0-1.973,0.884-1.973,1.973
		c0,1.084,0.88,1.964,1.973,1.964C2053.336,6268.426,2054.22,6267.547,2054.22,6266.462"/>
	<path style="fill:#FFFFFF;" d="M1980.948,6244.588c0-0.392-0.324-0.711-0.715-0.711c-0.397,0-0.715,0.319-0.715,0.711
		c0,0.396,0.319,0.713,0.715,0.713C1980.624,6245.301,1980.948,6244.984,1980.948,6244.588"/>
	<path style="fill:#FFFFFF;" d="M8.899,3041.141c0-1.891-1.536-3.422-3.429-3.422c-1.893,0-3.424,1.531-3.424,3.422
		c0,1.893,1.531,3.431,3.424,3.431C7.364,3044.572,8.899,3043.034,8.899,3041.141"/>
	<path style="fill:#FFFFFF;" d="M317.624,2521.477c0-1.704-1.387-3.085-3.092-3.085c-1.706,0-3.085,1.381-3.085,3.085
		c0,1.704,1.378,3.085,3.085,3.085C316.236,2524.562,317.624,2523.181,317.624,2521.477"/>
	<path style="fill:#FFFFFF;" d="M516.278,2693.443c0-1.089-0.884-1.973-1.973-1.973c-1.094,0-1.973,0.884-1.973,1.973
		c0,1.084,0.879,1.964,1.973,1.964C515.394,2695.407,516.278,2694.527,516.278,2693.443"/>
	<path style="fill:#FFFFFF;" d="M75.775,2870.503c0-0.392-0.324-0.71-0.715-0.71c-0.396,0-0.716,0.319-0.716,0.71
		c0,0.397,0.319,0.713,0.716,0.713C75.451,2871.217,75.775,2870.9,75.775,2870.503"/>
	<path style="fill:#FFFFFF;" d="M748.232,6764.13c0-0.392-0.323-0.711-0.715-0.711c-0.396,0-0.716,0.319-0.716,0.711
		c0,0.396,0.319,0.713,0.716,0.713C747.909,6764.843,748.232,6764.527,748.232,6764.13"/>
	<path style="fill:#FFFFFF;" d="M858.309,6647.118c0-0.342-0.264-0.615-0.606-0.615c-0.333,0-0.606,0.273-0.606,0.615
		c0,0.332,0.273,0.605,0.606,0.605C858.045,6647.724,858.309,6647.45,858.309,6647.118"/>
</g>
<g id="Ebene_1">
</g>
</svg>
