<?xml version="1.0" encoding="iso-8859-1"?>
<!-- Generator: Adobe Illustrator 18.0.0, SVG Export Plug-In . SVG Version: 6.00 Build 0)  -->
<!DOCTYPE svg PUBLIC "-//W3C//DTD SVG 1.1//EN" "http://www.w3.org/Graphics/SVG/1.1/DTD/svg11.dtd">
<svg version="1.1" xmlns="http://www.w3.org/2000/svg" xmlns:xlink="http://www.w3.org/1999/xlink" x="0px" y="0px"
	 viewBox="0 0 2800 10000" style="enable-background:new 0 0 2800 10000;" xml:space="preserve">
<g id="snow_x5F_big2">
	<path style="fill:#FFFFFF;" d="M2442.058,8678.445c0-6.702-5.438-12.141-12.148-12.141c-6.703,0-12.141,5.438-12.141,12.141
		c0,6.71,5.438,12.146,12.141,12.146C2436.62,8690.592,2442.058,8685.155,2442.058,8678.445"/>
	<path style="fill:#FFFFFF;" d="M2369.595,7747.606c0-6.703-5.436-12.142-12.148-12.142c-6.703,0-12.139,5.438-12.139,12.142
		c0,6.709,5.436,12.146,12.139,12.146C2364.159,7759.751,2369.595,7754.315,2369.595,7747.606"/>
	<path style="fill:#FFFFFF;" d="M2076.755,3849.933c0-6.891-5.586-12.482-12.476-12.482c-6.895,0-12.477,5.591-12.477,12.482
		c0,6.891,5.582,12.473,12.477,12.473C2071.168,3862.406,2076.755,3856.824,2076.755,3849.933"/>
	<path style="fill:#FFFFFF;" d="M2688.729,5453.68c0-6.703-5.436-12.141-12.148-12.141c-6.703,0-12.139,5.438-12.139,12.141
		c0,6.71,5.436,12.146,12.139,12.146C2683.293,5465.826,2688.729,5460.39,2688.729,5453.68"/>
	<path style="fill:#FFFFFF;" d="M1351.931,7293.852c0-6.89-5.586-12.481-12.476-12.481c-6.894,0-12.476,5.591-12.476,12.481
		c0,6.892,5.582,12.474,12.476,12.474C1346.345,7306.326,1351.931,7300.744,1351.931,7293.852"/>
	<path style="fill:#FFFFFF;" d="M1287.896,5120.069c0-6.703-5.441-12.142-12.148-12.142c-6.703,0-12.144,5.438-12.144,12.142
		c0,6.709,5.441,12.146,12.144,12.146C1282.455,5132.214,1287.896,5126.778,1287.896,5120.069"/>
	<path style="fill:#FFFFFF;" d="M2496.292,5253.159c0-6.703-5.436-12.142-12.148-12.142c-6.703,0-12.139,5.438-12.139,12.142
		c0,6.709,5.436,12.146,12.139,12.146C2490.856,5265.305,2496.292,5259.869,2496.292,5253.159"/>
	<path style="fill:#FFFFFF;" d="M2056.475,7178.629c0-6.703-5.44-12.142-12.148-12.142c-6.703,0-12.144,5.438-12.144,12.142
		c0,6.709,5.441,12.146,12.144,12.146C2051.035,7190.775,2056.475,7185.338,2056.475,7178.629"/>
	<path style="fill:#FFFFFF;" d="M2496.292,6947.626c0-6.703-5.436-12.141-12.148-12.141c-6.703,0-12.139,5.438-12.139,12.141
		c0,6.709,5.436,12.146,12.139,12.146C2490.856,6959.772,2496.292,6954.335,2496.292,6947.626"/>
	<path style="fill:#FFFFFF;" d="M1648.385,4032.386c0-6.703-5.441-12.141-12.148-12.141c-6.703,0-12.143,5.439-12.143,12.141
		c0,6.71,5.441,12.146,12.143,12.146C1642.944,4044.532,1648.385,4039.096,1648.385,4032.386"/>
	<path style="fill:#FFFFFF;" d="M2476.133,3278.16c0-6.703-5.441-12.141-12.148-12.141c-6.703,0-12.144,5.438-12.144,12.141
		c0,6.71,5.441,12.146,12.144,12.146C2470.693,3290.306,2476.133,3284.87,2476.133,3278.16"/>
	<path style="fill:#FFFFFF;" d="M569.894,2619.967c0-7.263-5.883-13.16-13.153-13.16c-7.263,0-13.146,5.896-13.146,13.16
		c0,7.268,5.883,13.151,13.146,13.151C564.011,2633.117,569.894,2627.235,569.894,2619.967"/>
	<path style="fill:#FFFFFF;" d="M121.448,2647.803c0-6.89-5.587-12.481-12.476-12.481c-6.894,0-12.476,5.591-12.476,12.481
		c0,6.892,5.582,12.474,12.476,12.474C115.861,2660.277,121.448,2654.695,121.448,2647.803"/>
	<path style="fill:#FFFFFF;" d="M2676.586,3120.115c0-6.703-5.436-12.141-12.148-12.141c-6.703,0-12.139,5.438-12.139,12.141
		c0,6.71,5.436,12.146,12.139,12.146C2671.15,3132.261,2676.586,3126.825,2676.586,3120.115"/>
	<path style="fill:#FFFFFF;" d="M2615.788,3423.209c-0.089-6.888-5.746-12.408-12.636-12.319c-6.895,0.088-12.404,5.75-12.315,12.64
		c0.087,6.891,5.741,12.401,12.634,12.312C2610.361,3435.754,2615.874,3430.102,2615.788,3423.209"/>
	<path style="fill:#FFFFFF;" d="M2793.814,8100.628c0-6.99-5.655-12.647-12.631-12.647c-6.99,0-12.645,5.657-12.645,12.647
		c0,6.977,5.655,12.636,12.645,12.636C2788.159,8113.264,2793.814,8107.605,2793.814,8100.628"/>
	<path style="fill:#FFFFFF;" d="M2673.448,8244.484c0-6.99-5.655-12.647-12.631-12.647c-6.99,0-12.645,5.657-12.645,12.647
		c0,6.977,5.655,12.636,12.645,12.636C2667.793,8257.12,2673.448,8251.461,2673.448,8244.484"/>
	<path style="fill:#FFFFFF;" d="M2567.981,5770.657c0-6.99-5.655-12.647-12.631-12.647c-6.99,0-12.645,5.657-12.645,12.647
		c0,6.976,5.655,12.636,12.645,12.636C2562.326,5783.292,2567.981,5777.633,2567.981,5770.657"/>
	<path style="fill:#FFFFFF;" d="M2397.749,6112.12c0-6.99-5.655-12.647-12.631-12.647c-6.99,0-12.645,5.657-12.645,12.647
		c0,6.976,5.655,12.636,12.645,12.636C2392.094,6124.755,2397.749,6119.096,2397.749,6112.12"/>
	<path style="fill:#FFFFFF;" d="M1274.289,6549.264c0-6.703-5.441-12.142-12.148-12.142c-6.703,0-12.144,5.439-12.144,12.142
		c0,6.71,5.441,12.146,12.144,12.146C1268.849,6561.41,1274.289,6555.974,1274.289,6549.264"/>
	<path style="fill:#FFFFFF;" d="M2476.133,5795.038c0-6.703-5.441-12.141-12.148-12.141c-6.703,0-12.144,5.438-12.144,12.141
		c0,6.71,5.441,12.146,12.144,12.146C2470.693,5807.184,2476.133,5801.748,2476.133,5795.038"/>
	<path style="fill:#FFFFFF;" d="M1554.548,2574.956c0-6.703-5.441-12.141-12.148-12.141c-6.703,0-12.143,5.438-12.143,12.141
		c0,6.71,5.441,12.146,12.143,12.146C1549.107,2587.102,1554.548,2581.665,1554.548,2574.956"/>
	<path style="fill:#FFFFFF;" d="M2066.475,8576.184c0-5.425-4.402-9.831-9.829-9.831c-5.434,0-9.831,4.406-9.831,9.831
		c0,5.432,4.397,9.831,9.831,9.831C2062.073,8586.015,2066.475,8581.615,2066.475,8576.184"/>
	<path style="fill:#FFFFFF;" d="M40.45,7662.78c0-7.264-5.883-13.16-13.153-13.16c-7.263,0-13.146,5.896-13.146,13.16
		c0,7.268,5.883,13.15,13.146,13.15C34.567,7675.931,40.45,7670.048,40.45,7662.78"/>
	<path style="fill:#FFFFFF;" d="M2135.575,7503.7c0-6.89-5.586-12.48-12.476-12.48c-6.894,0-12.476,5.591-12.476,12.48
		c0,6.892,5.582,12.474,12.476,12.474C2129.989,7516.174,2135.575,7510.592,2135.575,7503.7"/>
	<path style="fill:#FFFFFF;" d="M2474.491,2858.189c0-6.89-5.587-12.481-12.476-12.481c-6.894,0-12.476,5.591-12.476,12.481
		c0,6.892,5.582,12.474,12.476,12.474C2468.904,2870.663,2474.491,2865.081,2474.491,2858.189"/>
	<path style="fill:#FFFFFF;" d="M1647.772,7696.06c0-6.543-5.299-11.841-11.845-11.841c-6.543,0-11.836,5.297-11.836,11.841
		s5.292,11.843,11.836,11.843C1642.472,7707.903,1647.772,7702.604,1647.772,7696.06"/>
	<path style="fill:#FFFFFF;" d="M68.447,7135.253c0-7.264-5.883-13.16-13.153-13.16c-7.263,0-13.146,5.896-13.146,13.16
		c0,7.268,5.883,13.15,13.146,13.15C62.564,7148.404,68.447,7142.521,68.447,7135.253"/>
	<path style="fill:#FFFFFF;" d="M2646.336,4406.898c0-6.703-5.436-12.142-12.148-12.142c-6.703,0-12.139,5.439-12.139,12.142
		c0,6.71,5.436,12.146,12.139,12.146C2640.9,4419.044,2646.336,4413.608,2646.336,4406.898"/>
	<path style="fill:#FFFFFF;" d="M2140.467,3513.893c0-6.703-5.441-12.141-12.148-12.141c-6.703,0-12.144,5.438-12.144,12.141
		c0,6.71,5.441,12.146,12.144,12.146C2135.026,3526.039,2140.467,3520.603,2140.467,3513.893"/>
	<path style="fill:#FFFFFF;" d="M2033.785,3193.552c0-6.99-5.655-12.647-12.631-12.647c-6.99,0-12.645,5.657-12.645,12.647
		c0,6.977,5.655,12.636,12.645,12.636C2028.13,3206.188,2033.785,3200.529,2033.785,3193.552"/>
	<path style="fill:#FFFFFF;" d="M972.024,3413.253c0-6.89-5.586-12.481-12.476-12.481c-6.894,0-12.476,5.591-12.476,12.481
		c0,6.892,5.582,12.474,12.476,12.474C966.437,3425.727,972.024,3420.145,972.024,3413.253"/>
	<path style="fill:#FFFFFF;" d="M1509.516,3537.791c-0.089-6.889-5.746-12.408-12.636-12.319c-6.894,0.088-12.403,5.75-12.314,12.64
		c0.087,6.891,5.741,12.401,12.633,12.312C1504.089,3550.335,1509.603,3544.683,1509.516,3537.791"/>
	<path style="fill:#FFFFFF;" d="M470.756,2755.194c-0.089-6.888-5.746-12.408-12.636-12.319c-6.894,0.087-12.403,5.75-12.314,12.64
		c0.087,6.891,5.741,12.401,12.633,12.312C465.329,2767.739,470.843,2762.086,470.756,2755.194"/>
	<path style="fill:#FFFFFF;" d="M1840.993,2751.196c0-6.703-5.436-12.141-12.148-12.141c-6.703,0-12.139,5.438-12.139,12.141
		c0,6.709,5.436,12.146,12.139,12.146C1835.556,2763.342,1840.993,2757.906,1840.993,2751.196"/>
	<path style="fill:#FFFFFF;" d="M1892.452,8142.325c0-6.703-5.438-12.141-12.148-12.141c-6.703,0-12.141,5.438-12.141,12.141
		c0,6.71,5.438,12.146,12.141,12.146C1887.013,8154.471,1892.452,8149.035,1892.452,8142.325"/>
	<path style="fill:#FFFFFF;" d="M304.38,3826.01c0-7.263-5.883-13.16-13.153-13.16c-7.263,0-13.146,5.897-13.146,13.16
		c0,7.268,5.883,13.151,13.146,13.151C298.497,3839.161,304.38,3833.278,304.38,3826.01"/>
	<path style="fill:#FFFFFF;" d="M2014.465,7301.1c0-5.425-4.402-9.831-9.829-9.831c-5.436,0-9.833,4.406-9.833,9.831
		c0,5.432,4.397,9.831,9.833,9.831C2010.063,7310.931,2014.465,7306.531,2014.465,7301.1"/>
	<path style="fill:#FFFFFF;" d="M2229.453,7236.456c0-6.89-5.586-12.48-12.476-12.48c-6.894,0-12.477,5.591-12.477,12.48
		c0,6.892,5.582,12.474,12.477,12.474C2223.866,7248.93,2229.453,7243.348,2229.453,7236.456"/>
	<path style="fill:#FFFFFF;" d="M529.398,3645.58c0-6.543-5.299-11.841-11.845-11.841c-6.543,0-11.836,5.297-11.836,11.841
		s5.293,11.843,11.836,11.843C524.098,3657.423,529.398,3652.123,529.398,3645.58"/>
	<path style="fill:#FFFFFF;" d="M2097.001,414.256c0-6.891-5.586-12.482-12.476-12.482c-6.895,0-12.477,5.591-12.477,12.482
		c0,6.891,5.582,12.473,12.477,12.473C2091.415,426.729,2097.001,421.147,2097.001,414.256"/>
	<path style="fill:#FFFFFF;" d="M1668.631,596.71c0-6.703-5.441-12.141-12.148-12.141c-6.703,0-12.144,5.439-12.144,12.141
		c0,6.71,5.441,12.146,12.144,12.146C1663.19,608.856,1668.631,603.42,1668.631,596.71"/>
	<path style="fill:#FFFFFF;" d="M2666.582,971.222c0-6.703-5.436-12.141-12.148-12.141c-6.703,0-12.139,5.439-12.139,12.141
		c0,6.71,5.436,12.146,12.139,12.146C2661.146,983.368,2666.582,977.932,2666.582,971.222"/>
	<path style="fill:#FFFFFF;" d="M2160.713,78.217c0-6.703-5.441-12.141-12.148-12.141c-6.703,0-12.144,5.438-12.144,12.141
		c0,6.71,5.441,12.146,12.144,12.146C2155.272,90.362,2160.713,84.926,2160.713,78.217"/>
	<path style="fill:#FFFFFF;" d="M1529.762,102.114c-0.089-6.889-5.746-12.408-12.636-12.319c-6.894,0.088-12.403,5.75-12.314,12.64
		c0.087,6.891,5.741,12.401,12.633,12.312C1524.335,114.659,1529.849,109.006,1529.762,102.114"/>
	<path style="fill:#FFFFFF;" d="M324.626,390.334c0-7.263-5.883-13.16-13.153-13.16c-7.263,0-13.146,5.897-13.146,13.16
		c0,7.268,5.883,13.151,13.146,13.151C318.743,403.484,324.626,397.602,324.626,390.334"/>
	<path style="fill:#FFFFFF;" d="M549.644,209.903c0-6.543-5.299-11.841-11.845-11.841c-6.543,0-11.836,5.297-11.836,11.841
		c0,6.543,5.293,11.843,11.836,11.843C544.344,221.746,549.644,216.447,549.644,209.903"/>
	<path style="fill:#FFFFFF;" d="M2095.755,1732.713c0-6.891-5.586-12.482-12.476-12.482c-6.895,0-12.477,5.591-12.477,12.482
		c0,6.891,5.582,12.473,12.477,12.473C2090.168,1745.185,2095.755,1739.604,2095.755,1732.713"/>
	<path style="fill:#FFFFFF;" d="M1667.385,1915.166c0-6.703-5.441-12.141-12.148-12.141c-6.703,0-12.143,5.438-12.143,12.141
		c0,6.71,5.441,12.146,12.143,12.146C1661.944,1927.312,1667.385,1921.876,1667.385,1915.166"/>
	<path style="fill:#FFFFFF;" d="M2495.133,1160.94c0-6.703-5.441-12.141-12.148-12.141c-6.703,0-12.144,5.438-12.144,12.141
		c0,6.71,5.441,12.146,12.144,12.146C2489.693,1173.086,2495.133,1167.65,2495.133,1160.94"/>
	<path style="fill:#FFFFFF;" d="M2634.788,1305.989c-0.089-6.889-5.746-12.408-12.636-12.319c-6.895,0.088-12.404,5.75-12.315,12.64
		c0.087,6.891,5.741,12.401,12.634,12.312C2629.361,1318.534,2634.874,1312.882,2634.788,1305.989"/>
	<path style="fill:#FFFFFF;" d="M2665.336,2289.678c0-6.703-5.436-12.141-12.148-12.141c-6.703,0-12.139,5.438-12.139,12.141
		c0,6.71,5.436,12.146,12.139,12.146C2659.9,2301.824,2665.336,2296.388,2665.336,2289.678"/>
	<path style="fill:#FFFFFF;" d="M2159.467,1396.673c0-6.703-5.441-12.141-12.148-12.141c-6.703,0-12.144,5.438-12.144,12.141
		c0,6.71,5.441,12.146,12.144,12.146C2154.026,1408.818,2159.467,1403.383,2159.467,1396.673"/>
	<path style="fill:#FFFFFF;" d="M991.024,1296.033c0-6.89-5.586-12.481-12.476-12.481c-6.894,0-12.476,5.591-12.476,12.481
		c0,6.892,5.582,12.474,12.476,12.474C985.437,1308.507,991.024,1302.925,991.024,1296.033"/>
	<path style="fill:#FFFFFF;" d="M1528.516,1420.571c-0.089-6.889-5.746-12.408-12.636-12.319c-6.894,0.088-12.403,5.75-12.314,12.64
		c0.087,6.891,5.741,12.401,12.633,12.312C1523.089,1433.115,1528.603,1427.463,1528.516,1420.571"/>
	<path style="fill:#FFFFFF;" d="M323.38,1708.79c0-7.263-5.883-13.16-13.153-13.16c-7.263,0-13.146,5.896-13.146,13.16
		c0,7.268,5.883,13.151,13.146,13.151C317.497,1721.941,323.38,1716.058,323.38,1708.79"/>
	<path style="fill:#FFFFFF;" d="M548.398,1528.36c0-6.543-5.299-11.841-11.845-11.841c-6.543,0-11.836,5.297-11.836,11.841
		s5.293,11.843,11.836,11.843C543.098,1540.203,548.398,1534.903,548.398,1528.36"/>
	<path style="fill:#FFFFFF;" d="M2340.368,5782.901c0-6.99-5.655-12.647-12.631-12.647c-6.99,0-12.645,5.657-12.645,12.647
		c0,6.977,5.655,12.637,12.645,12.637C2334.713,5795.538,2340.368,5789.877,2340.368,5782.901"/>
	<path style="fill:#FFFFFF;" d="M1653.411,6290.472c0-6.89-5.587-12.481-12.476-12.481c-6.894,0-12.476,5.591-12.476,12.481
		c0,6.892,5.582,12.474,12.476,12.474C1647.824,6302.946,1653.411,6297.364,1653.411,6290.472"/>
	<path style="fill:#FFFFFF;" d="M304.38,6342.888c0-7.264-5.883-13.16-13.153-13.16c-7.263,0-13.146,5.896-13.146,13.16
		c0,7.268,5.883,13.151,13.146,13.151C298.497,6356.039,304.38,6350.156,304.38,6342.888"/>
	<path style="fill:#FFFFFF;" d="M529.398,6162.458c0-6.543-5.299-11.841-11.845-11.841c-6.543,0-11.836,5.297-11.836,11.841
		s5.293,11.843,11.836,11.843C524.098,6174.3,529.398,6169.001,529.398,6162.458"/>
	<path style="fill:#FFFFFF;" d="M1950.63,8610.009c0-5.758-4.666-10.431-10.43-10.431c-5.755,0-10.43,4.673-10.43,10.431
		c0,5.762,4.675,10.428,10.43,10.428C1945.964,8620.437,1950.63,8615.771,1950.63,8610.009"/>
</g>
<g id="Ebene_1">
</g>
</svg>
