<?xml version="1.0" encoding="utf-8"?>
<!-- Generator: Adobe Illustrator 18.0.0, SVG Export Plug-In . SVG Version: 6.00 Build 0)  -->
<!DOCTYPE svg PUBLIC "-//W3C//DTD SVG 1.1//EN" "http://www.w3.org/Graphics/SVG/1.1/DTD/svg11.dtd">
<svg version="1.1" id="schnee_x5F_klein" xmlns="http://www.w3.org/2000/svg" xmlns:xlink="http://www.w3.org/1999/xlink" x="0px"
	 y="0px" viewBox="0 0 1200 1711.1" enable-background="new 0 0 1200 1711.1" xml:space="preserve">
<path fill="#FFFFFF" d="M248.9,1500c0-0.7-0.6-1.2-1.2-1.2c-0.7,0-1.2,0.6-1.2,1.2c0,0.7,0.6,1.2,1.2,1.2
	C248.4,1501.3,248.9,1500.7,248.9,1500"/>
<path fill="#FFFFFF" d="M583.9,1578.3c0-0.1-0.1-0.3-0.3-0.3c-0.1,0-0.3,0.1-0.3,0.3c0,0.1,0.1,0.3,0.3,0.3
	C583.8,1578.5,583.9,1578.4,583.9,1578.3"/>
<path fill="#FFFFFF" d="M251.4,1594.2c0-1.4-1.1-2.5-2.5-2.5c-1.4,0-2.5,1.1-2.5,2.5s1.1,2.5,2.5,2.5
	C250.3,1596.7,251.4,1595.6,251.4,1594.2"/>
<path fill="#FFFFFF" d="M781.5,1530.6c0-0.5-0.4-0.8-0.8-0.8c-0.5,0-0.8,0.4-0.8,0.8c0,0.5,0.4,0.8,0.8,0.8
	C781.1,1531.4,781.5,1531,781.5,1530.6"/>
<path fill="#FFFFFF" d="M484.1,1408.3c0-0.6-0.5-1.1-1.1-1.1c-0.6,0-1.1,0.5-1.1,1.1c0,0.6,0.5,1.1,1.1,1.1
	C483.6,1409.5,484.1,1409,484.1,1408.3"/>
<path fill="#FFFFFF" d="M76.4,1539.2c0-1-0.8-1.8-1.8-1.8c-1,0-1.8,0.8-1.8,1.8c0,1,0.8,1.8,1.8,1.8
	C75.6,1541,76.4,1540.2,76.4,1539.2"/>
<path fill="#FFFFFF" d="M938.9,828.4c0-0.5-0.4-0.8-0.8-0.8c-0.5,0-0.8,0.4-0.8,0.8c0,0.5,0.4,0.8,0.8,0.8
	C938.5,829.2,938.9,828.8,938.9,828.4"/>
<path fill="#FFFFFF" d="M1169.4,792.8c0-0.5-0.4-0.8-0.8-0.8c-0.5,0-0.8,0.4-0.8,0.8c0,0.5,0.4,0.8,0.8,0.8
	C1169.1,793.6,1169.4,793.2,1169.4,792.8"/>
<path fill="#FFFFFF" d="M442.3,720.2c0-0.6-0.5-1.1-1.1-1.1c-0.6,0-1.1,0.5-1.1,1.1c0,0.6,0.5,1.1,1.1,1.1
	C441.8,721.3,442.3,720.8,442.3,720.2"/>
<path fill="#FFFFFF" d="M187.7,703.4c0-0.7-0.6-1.2-1.2-1.2c-0.7,0-1.2,0.6-1.2,1.2c0,0.7,0.6,1.2,1.2,1.2
	C187.1,704.6,187.7,704,187.7,703.4"/>
<path fill="#FFFFFF" d="M746.8,480.7c0-0.1-0.1-0.3-0.3-0.3c-0.1,0-0.3,0.1-0.3,0.3c0,0.1,0.1,0.3,0.3,0.3
	C746.7,480.9,746.8,480.8,746.8,480.7"/>
<path fill="#FFFFFF" d="M388,568.6c0-0.8-0.7-1.5-1.5-1.5c-0.8,0-1.5,0.7-1.5,1.5c0,0.8,0.7,1.5,1.5,1.5
	C387.3,570,388,569.4,388,568.6"/>
<path fill="#FFFFFF" d="M424.6,679.5c0-1-0.8-1.8-1.8-1.8c-1,0-1.8,0.8-1.8,1.8c0,1,0.8,1.8,1.8,1.8
	C423.9,681.2,424.6,680.4,424.6,679.5"/>
<path fill="#FFFFFF" d="M142.5,810c0-1.2-1-2.2-2.2-2.2c-1.2,0-2.2,1-2.2,2.2c0,1.2,1,2.2,2.2,2.2
	C141.5,812.2,142.5,811.2,142.5,810"/>
<path fill="#FFFFFF" d="M371,862.4c0-0.7-0.6-1.3-1.3-1.3c-0.7,0-1.3,0.6-1.3,1.3c0,0.7,0.6,1.3,1.3,1.3
	C370.4,863.7,371,863.1,371,862.4"/>
<path fill="#FFFFFF" d="M1056.6,1400.6c0-0.5-0.4-0.8-0.8-0.8c-0.5,0-0.8,0.4-0.8,0.8c0,0.5,0.4,0.8,0.8,0.8
	C1056.3,1401.4,1056.6,1401,1056.6,1400.6"/>
<path fill="#FFFFFF" d="M498.3,1241.2c0-0.6-0.5-1.1-1.1-1.1c-0.6,0-1.1,0.5-1.1,1.1c0,0.6,0.5,1.1,1.1,1.1
	C497.8,1242.3,498.3,1241.8,498.3,1241.2"/>
<path fill="#FFFFFF" d="M817.2,1063.2c0-0.9-0.8-1.7-1.7-1.7c-0.9,0-1.7,0.8-1.7,1.7c0,0.9,0.8,1.7,1.7,1.7
	C816.5,1064.9,817.2,1064.1,817.2,1063.2"/>
<path fill="#FFFFFF" d="M360.8,1168.8c0-1.4-1.1-2.5-2.5-2.5c-1.4,0-2.5,1.1-2.5,2.5s1.1,2.5,2.5,2.5
	C359.7,1171.3,360.8,1170.2,360.8,1168.8"/>
<path fill="#FFFFFF" d="M935.4,904.6c0-0.5-0.4-0.8-0.8-0.8c-0.5,0-0.8,0.4-0.8,0.8c0,0.5,0.4,0.8,0.8,0.8
	C935.1,905.4,935.4,905,935.4,904.6"/>
<path fill="#FFFFFF" d="M416.4,799.9c0-0.6-0.5-1.1-1.1-1.1c-0.6,0-1.1,0.5-1.1,1.1c0,0.6,0.5,1.1,1.1,1.1
	C415.9,801.1,416.4,800.6,416.4,799.9"/>
<path fill="#FFFFFF" d="M437.4,1121.1c0-0.8-0.7-1.5-1.5-1.5c-0.8,0-1.5,0.7-1.5,1.5c0,0.8,0.7,1.5,1.5,1.5
	C436.7,1122.6,437.4,1121.9,437.4,1121.1"/>
<path fill="#FFFFFF" d="M1165.3,1476c0-0.5-0.4-0.8-0.8-0.8c-0.5,0-0.8,0.4-0.8,0.8c0,0.5,0.4,0.8,0.8,0.8
	C1164.9,1476.8,1165.3,1476.4,1165.3,1476"/>
<path fill="#FFFFFF" d="M707.1,1377.8c0-0.6-0.5-1.1-1.1-1.1c-0.6,0-1.1,0.5-1.1,1.1c0,0.6,0.5,1.1,1.1,1.1
	C706.6,1379,707.1,1378.5,707.1,1377.8"/>
<path fill="#FFFFFF" d="M462.7,1167.9c0-0.7-0.6-1.2-1.2-1.2c-0.7,0-1.2,0.6-1.2,1.2c0,0.7,0.6,1.2,1.2,1.2
	C462.1,1169.2,462.7,1168.6,462.7,1167.9"/>
<path fill="#FFFFFF" d="M893,1169.3c0-0.9-0.8-1.7-1.7-1.7c-0.9,0-1.7,0.8-1.7,1.7c0,0.9,0.8,1.7,1.7,1.7
	C892.2,1171,893,1170.3,893,1169.3"/>
<path fill="#FFFFFF" d="M460.1,1221.4c0-1.4-1.1-2.5-2.5-2.5c-1.4,0-2.5,1.1-2.5,2.5s1.1,2.5,2.5,2.5
	C458.9,1223.8,460.1,1222.7,460.1,1221.4"/>
<path fill="#FFFFFF" d="M1080.7,983.5c0-0.5-0.4-0.8-0.8-0.8c-0.5,0-0.8,0.4-0.8,0.8c0,0.5,0.4,0.8,0.8,0.8
	C1080.3,984.4,1080.7,984,1080.7,983.5"/>
<path fill="#FFFFFF" d="M482.6,1138.3c0-0.8-0.7-1.5-1.5-1.5c-0.8,0-1.5,0.7-1.5,1.5c0,0.8,0.7,1.5,1.5,1.5
	C482,1139.8,482.6,1139.1,482.6,1138.3"/>
<path fill="#FFFFFF" d="M736,1222.5c0-0.6-0.5-1.1-1.1-1.1s-1.1,0.5-1.1,1.1c0,0.6,0.5,1.1,1.1,1.1S736,1223.1,736,1222.5"/>
<path fill="#FFFFFF" d="M1129.9,1162.7c0-0.6-0.5-1.1-1.1-1.1s-1.1,0.5-1.1,1.1c0,0.6,0.5,1.1,1.1,1.1S1129.9,1163.4,1129.9,1162.7"
	/>
<path fill="#FFFFFF" d="M700.4,1149.2c0-0.7-0.6-1.2-1.2-1.2c-0.7,0-1.2,0.6-1.2,1.2c0,0.7,0.6,1.2,1.2,1.2
	C699.8,1150.5,700.4,1149.9,700.4,1149.2"/>
<path fill="#FFFFFF" d="M1158.7,1067c0-0.7-0.6-1.2-1.2-1.2c-0.7,0-1.2,0.6-1.2,1.2c0,0.7,0.6,1.2,1.2,1.2
	C1158.2,1068.3,1158.7,1067.7,1158.7,1067"/>
<path fill="#FFFFFF" d="M601.5,1175.8c0-1.4-1.1-2.5-2.5-2.5c-1.4,0-2.5,1.1-2.5,2.5s1.1,2.5,2.5,2.5
	C600.4,1178.3,601.5,1177.2,601.5,1175.8"/>
<path fill="#FFFFFF" d="M720.3,1119.6c0-0.8-0.7-1.5-1.5-1.5c-0.8,0-1.5,0.7-1.5,1.5c0,0.8,0.7,1.5,1.5,1.5
	C719.6,1121.1,720.3,1120.4,720.3,1119.6"/>
<path fill="#FFFFFF" d="M704.8,1306.1c0-1-0.8-1.8-1.8-1.8c-1,0-1.8,0.8-1.8,1.8c0,1,0.8,1.8,1.8,1.8
	C704,1307.9,704.8,1307.1,704.8,1306.1"/>
<path fill="#FFFFFF" d="M420.9,1476.4c0-1.2-1-2.2-2.2-2.2c-1.2,0-2.2,1-2.2,2.2s1,2.2,2.2,2.2
	C419.9,1478.6,420.9,1477.6,420.9,1476.4"/>
<path fill="#FFFFFF" d="M964.2,1599.9c0-0.1-0.1-0.3-0.3-0.3c-0.1,0-0.3,0.1-0.3,0.3c0,0.1,0.1,0.3,0.3,0.3
	C964.1,1600.1,964.2,1600,964.2,1599.9"/>
<path fill="#FFFFFF" d="M1161.8,1552.2c0-0.5-0.4-0.8-0.8-0.8c-0.5,0-0.8,0.4-0.8,0.8c0,0.5,0.4,0.8,0.8,0.8
	C1161.5,1553,1161.8,1552.6,1161.8,1552.2"/>
<path fill="#FFFFFF" d="M610.9,1285.7c0-0.6-0.5-1.1-1.1-1.1c-0.6,0-1.1,0.5-1.1,1.1c0,0.6,0.5,1.1,1.1,1.1
	C610.4,1286.8,610.9,1286.3,610.9,1285.7"/>
<path fill="#FFFFFF" d="M551.9,1574.3c0-0.8-0.7-1.5-1.5-1.5c-0.8,0-1.5,0.7-1.5,1.5c0,0.8,0.7,1.5,1.5,1.5
	C551.2,1575.8,551.9,1575.1,551.9,1574.3"/>
<path fill="#FFFFFF" d="M436.2,1174.1c0-1-0.8-1.8-1.8-1.8c-1,0-1.8,0.8-1.8,1.8c0,1,0.8,1.8,1.8,1.8
	C435.4,1175.8,436.2,1175,436.2,1174.1"/>
<path fill="#FFFFFF" d="M564.8,1387.2c0-0.7-0.6-1.3-1.3-1.3c-0.7,0-1.3,0.6-1.3,1.3s0.6,1.3,1.3,1.3
	C564.2,1388.5,564.8,1387.9,564.8,1387.2"/>
<path fill="#FFFFFF" d="M70.8,1462.5c0-0.7-0.6-1.2-1.2-1.2c-0.7,0-1.2,0.6-1.2,1.2c0,0.7,0.6,1.2,1.2,1.2
	C70.2,1463.7,70.8,1463.2,70.8,1462.5"/>
<path fill="#FFFFFF" d="M650,1460.9c0-0.5-0.4-0.8-0.8-0.8c-0.5,0-0.8,0.4-0.8,0.8c0,0.5,0.4,0.8,0.8,0.8
	C649.6,1461.7,650,1461.3,650,1460.9"/>
<path fill="#FFFFFF" d="M126.8,1280.5c0-0.6-0.5-1.1-1.1-1.1c-0.6,0-1.1,0.5-1.1,1.1c0,0.6,0.5,1.1,1.1,1.1
	C126.3,1281.6,126.8,1281.1,126.8,1280.5"/>
<path fill="#FFFFFF" d="M154.1,1491.1c0-0.8-0.7-1.5-1.5-1.5c-0.8,0-1.5,0.7-1.5,1.5c0,0.8,0.7,1.5,1.5,1.5
	C153.5,1492.6,154.1,1491.9,154.1,1491.1"/>
<path fill="#FFFFFF" d="M878.5,1363c0-0.5-0.4-0.8-0.8-0.8c-0.5,0-0.8,0.4-0.8,0.8c0,0.5,0.4,0.8,0.8,0.8
	C878.1,1363.9,878.5,1363.5,878.5,1363"/>
<path fill="#FFFFFF" d="M320.1,1203.6c0-0.6-0.5-1.1-1.1-1.1c-0.6,0-1.1,0.5-1.1,1.1c0,0.6,0.5,1.1,1.1,1.1
	C319.6,1204.8,320.1,1204.3,320.1,1203.6"/>
<path fill="#FFFFFF" d="M987.1,1438.4c0-0.5-0.4-0.8-0.8-0.8c-0.5,0-0.8,0.4-0.8,0.8c0,0.5,0.4,0.8,0.8,0.8
	C986.7,1439.3,987.1,1438.9,987.1,1438.4"/>
<path fill="#FFFFFF" d="M528.9,1340.3c0-0.6-0.5-1.1-1.1-1.1c-0.6,0-1.1,0.5-1.1,1.1c0,0.6,0.5,1.1,1.1,1.1
	C528.4,1341.4,528.9,1340.9,528.9,1340.3"/>
<path fill="#FFFFFF" d="M366.7,1211.9c0-1-0.8-1.8-1.8-1.8c-1,0-1.8,0.8-1.8,1.8c0,1,0.8,1.8,1.8,1.8
	C365.9,1213.7,366.7,1212.9,366.7,1211.9"/>
<path fill="#FFFFFF" d="M340.2,1293.4c0-0.7-0.6-1.3-1.3-1.3c-0.7,0-1.3,0.6-1.3,1.3s0.6,1.3,1.3,1.3
	C339.6,1294.7,340.2,1294.1,340.2,1293.4"/>
<path fill="#FFFFFF" d="M786,1562.4c0-0.1-0.1-0.3-0.3-0.3c-0.1,0-0.3,0.1-0.3,0.3c0,0.1,0.1,0.3,0.3,0.3
	C785.9,1562.6,786,1562.5,786,1562.4"/>
<path fill="#FFFFFF" d="M502.9,1436.6c0-0.6-0.5-1.1-1.1-1.1c-0.6,0-1.1,0.5-1.1,1.1c0,0.6,0.5,1.1,1.1,1.1
	C502.4,1437.7,502.9,1437.2,502.9,1436.6"/>
<path fill="#FFFFFF" d="M907.6,1378c0-0.6-0.5-1.1-1.1-1.1c-0.6,0-1.1,0.5-1.1,1.1c0,0.6,0.5,1.1,1.1,1.1
	C907.1,1379.1,907.6,1378.6,907.6,1378"/>
<path fill="#FFFFFF" d="M938.3,1240c0-0.6-0.5-1.1-1.1-1.1c-0.6,0-1.1,0.5-1.1,1.1c0,0.6,0.5,1.1,1.1,1.1
	C937.8,1241.2,938.3,1240.7,938.3,1240"/>
<path fill="#FFFFFF" d="M1130.6,1347.5c0-0.6-0.5-1.1-1.1-1.1s-1.1,0.5-1.1,1.1c0,0.6,0.5,1.1,1.1,1.1S1130.6,1348.1,1130.6,1347.5"
	/>
<path fill="#FFFFFF" d="M892.9,1213.9c0-1.4-1.1-2.5-2.5-2.5c-1.4,0-2.5,1.1-2.5,2.5s1.1,2.5,2.5,2.5
	C891.8,1216.3,892.9,1215.2,892.9,1213.9"/>
<path fill="#FFFFFF" d="M1068.5,1300.4c0-1-0.8-1.8-1.8-1.8c-1,0-1.8,0.8-1.8,1.8c0,1,0.8,1.8,1.8,1.8
	C1067.8,1302.2,1068.5,1301.4,1068.5,1300.4"/>
<path fill="#FFFFFF" d="M844.3,1446.1c0-1.2-1-2.2-2.2-2.2c-1.2,0-2.2,1-2.2,2.2s1,2.2,2.2,2.2
	C843.3,1448.3,844.3,1447.3,844.3,1446.1"/>
<path fill="#FFFFFF" d="M1034.4,1255.4c0-0.6-0.5-1.1-1.1-1.1s-1.1,0.5-1.1,1.1c0,0.6,0.5,1.1,1.1,1.1S1034.4,1256,1034.4,1255.4"/>
<path fill="#FFFFFF" d="M988.3,1356.8c0-0.7-0.6-1.3-1.3-1.3c-0.7,0-1.3,0.6-1.3,1.3s0.6,1.3,1.3,1.3
	C987.7,1358.1,988.3,1357.5,988.3,1356.8"/>
<path fill="#FFFFFF" d="M1073.5,1430.5c0-0.5-0.4-0.8-0.8-0.8c-0.5,0-0.8,0.4-0.8,0.8c0,0.5,0.4,0.8,0.8,0.8
	C1073.1,1431.4,1073.5,1431,1073.5,1430.5"/>
<path fill="#FFFFFF" d="M952.4,1310c0-0.6-0.5-1.1-1.1-1.1c-0.6,0-1.1,0.5-1.1,1.1c0,0.6,0.5,1.1,1.1,1.1
	C951.9,1311.1,952.4,1310.6,952.4,1310"/>
<path fill="#FFFFFF" d="M806.7,1395.7c0-0.6-0.5-1.1-1.1-1.1c-0.6,0-1.1,0.5-1.1,1.1c0,0.6,0.5,1.1,1.1,1.1
	C806.2,1396.8,806.7,1396.3,806.7,1395.7"/>
<path fill="#FFFFFF" d="M777.2,1586c0-0.2-0.1-0.3-0.3-0.3c-0.2,0-0.3,0.1-0.3,0.3c0,0.2,0.1,0.3,0.3,0.3
	C777.1,1586.3,777.2,1586.2,777.2,1586"/>
<path fill="#FFFFFF" d="M340,1381.8c0-0.7-0.6-1.3-1.3-1.3c-0.7,0-1.3,0.6-1.3,1.3s0.6,1.3,1.3,1.3
	C339.4,1383.1,340,1382.5,340,1381.8"/>
<path fill="#FFFFFF" d="M230.8,1051.4c0-0.7-0.6-1.2-1.2-1.2c-0.7,0-1.2,0.6-1.2,1.2c0,0.7,0.6,1.2,1.2,1.2
	C230.2,1052.6,230.8,1052,230.8,1051.4"/>
<path fill="#FFFFFF" d="M399.3,1011.8c0-0.6-0.5-1.1-1.1-1.1s-1.1,0.5-1.1,1.1c0,0.6,0.5,1.1,1.1,1.1S399.3,1012.4,399.3,1011.8"/>
<path fill="#FFFFFF" d="M1038.5,951.9c0-0.5-0.4-0.8-0.8-0.8c-0.5,0-0.8,0.4-0.8,0.8c0,0.5,0.4,0.8,0.8,0.8
	C1038.1,952.7,1038.5,952.3,1038.5,951.9"/>
<path fill="#FFFFFF" d="M506.1,749.6c0-0.6-0.5-1.1-1.1-1.1c-0.6,0-1.1,0.5-1.1,1.1c0,0.6,0.5,1.1,1.1,1.1
	C505.6,750.7,506.1,750.2,506.1,749.6"/>
<path fill="#FFFFFF" d="M268.8,583.6c0-1.4-1.1-2.5-2.5-2.5c-1.4,0-2.5,1.1-2.5,2.5c0,1.4,1.1,2.5,2.5,2.5
	C267.7,586.1,268.8,585,268.8,583.6"/>
<path fill="#FFFFFF" d="M1147.1,1027.3c0-0.5-0.4-0.8-0.8-0.8c-0.5,0-0.8,0.4-0.8,0.8c0,0.5,0.4,0.8,0.8,0.8
	C1146.8,1028.1,1147.1,1027.7,1147.1,1027.3"/>
<path fill="#FFFFFF" d="M642.3,961.3c0-0.6-0.5-1.1-1.1-1.1c-0.6,0-1.1,0.5-1.1,1.1c0,0.6,0.5,1.1,1.1,1.1
	C641.8,962.5,642.3,961.9,642.3,961.3"/>
<path fill="#FFFFFF" d="M838.2,697.1c0-0.9-0.8-1.7-1.7-1.7c-0.9,0-1.7,0.8-1.7,1.7c0,0.9,0.8,1.7,1.7,1.7
	C837.4,698.8,838.2,698,838.2,697.1"/>
<path fill="#FFFFFF" d="M451.3,775.5c0-1.4-1.1-2.5-2.5-2.5c-1.4,0-2.5,1.1-2.5,2.5s1.1,2.5,2.5,2.5
	C450.2,778,451.3,776.9,451.3,775.5"/>
<path fill="#FFFFFF" d="M891.1,1130.2c0-1.4-1.1-2.5-2.5-2.5c-1.4,0-2.5,1.1-2.5,2.5s1.1,2.5,2.5,2.5
	C890,1132.7,891.1,1131.6,891.1,1130.2"/>
<path fill="#FFFFFF" d="M580.2,894.2c0-1-0.8-1.8-1.8-1.8c-1,0-1.8,0.8-1.8,1.8c0,1,0.8,1.8,1.8,1.8
	C579.5,896,580.2,895.2,580.2,894.2"/>
<path fill="#FFFFFF" d="M377.9,1137.3c0-1.2-1-2.2-2.2-2.2c-1.2,0-2.2,1-2.2,2.2s1,2.2,2.2,2.2
	C376.9,1139.5,377.9,1138.5,377.9,1137.3"/>
<path fill="#FFFFFF" d="M673.3,1021.1c0-0.6-0.5-1.1-1.1-1.1c-0.6,0-1.1,0.5-1.1,1.1c0,0.6,0.5,1.1,1.1,1.1
	C672.8,1022.2,673.3,1021.7,673.3,1021.1"/>
<path fill="#FFFFFF" d="M364.9,794.5c0-1-0.8-1.8-1.8-1.8c-1,0-1.8,0.8-1.8,1.8c0,1,0.8,1.8,1.8,1.8
	C364.2,796.3,364.9,795.5,364.9,794.5"/>
<path fill="#FFFFFF" d="M500,970.7c0-0.7-0.6-1.3-1.3-1.3c-0.7,0-1.3,0.6-1.3,1.3c0,0.7,0.6,1.3,1.3,1.3
	C499.4,972,500,971.4,500,970.7"/>
<path fill="#FFFFFF" d="M52.6,1013.8c0-0.7-0.6-1.2-1.2-1.2c-0.7,0-1.2,0.6-1.2,1.2c0,0.7,0.6,1.2,1.2,1.2
	C52,1015.1,52.6,1014.5,52.6,1013.8"/>
<path fill="#FFFFFF" d="M585.2,1044.4c0-0.5-0.4-0.8-0.8-0.8c-0.5,0-0.8,0.4-0.8,0.8c0,0.5,0.4,0.8,0.8,0.8
	C584.8,1045.2,585.2,1044.8,585.2,1044.4"/>
<path fill="#FFFFFF" d="M187.6,840.9c0-0.6-0.5-1.1-1.1-1.1c-0.6,0-1.1,0.5-1.1,1.1c0,0.6,0.5,1.1,1.1,1.1
	C187.1,842,187.6,841.5,187.6,840.9"/>
<path fill="#FFFFFF" d="M136,1042.4c0-0.8-0.7-1.5-1.5-1.5c-0.8,0-1.5,0.7-1.5,1.5c0,0.8,0.7,1.5,1.5,1.5
	C135.3,1043.9,136,1043.2,136,1042.4"/>
<path fill="#FFFFFF" d="M823.7,910.8c0-0.5-0.4-0.8-0.8-0.8c-0.5,0-0.8,0.4-0.8,0.8c0,0.5,0.4,0.8,0.8,0.8
	C823.3,911.6,823.7,911.2,823.7,910.8"/>
<path fill="#FFFFFF" d="M301.9,735c0-0.6-0.5-1.1-1.1-1.1c-0.6,0-1.1,0.5-1.1,1.1c0,0.6,0.5,1.1,1.1,1.1
	C301.4,736.1,301.9,735.6,301.9,735"/>
<path fill="#FFFFFF" d="M43.3,1148c0-0.6-0.5-1.1-1.1-1.1c-0.6,0-1.1,0.5-1.1,1.1c0,0.6,0.5,1.1,1.1,1.1
	C42.7,1149.1,43.3,1148.6,43.3,1148"/>
<path fill="#FFFFFF" d="M968.9,989.8c0-0.5-0.4-0.8-0.8-0.8c-0.5,0-0.8,0.4-0.8,0.8c0,0.5,0.4,0.8,0.8,0.8
	C968.6,990.6,968.9,990.2,968.9,989.8"/>
<path fill="#FFFFFF" d="M464.1,923.8c0-0.6-0.5-1.1-1.1-1.1c-0.6,0-1.1,0.5-1.1,1.1c0,0.6,0.5,1.1,1.1,1.1
	C463.6,924.9,464.1,924.4,464.1,923.8"/>
<path fill="#FFFFFF" d="M348.5,743.3c0-1-0.8-1.8-1.8-1.8c-1,0-1.8,0.8-1.8,1.8c0,1,0.8,1.8,1.8,1.8
	C347.7,745,348.5,744.2,348.5,743.3"/>
<path fill="#FFFFFF" d="M322,824.7c0-0.7-0.6-1.3-1.3-1.3c-0.7,0-1.3,0.6-1.3,1.3c0,0.7,0.6,1.3,1.3,1.3
	C321.4,826.1,322,825.5,322,824.7"/>
<path fill="#FFFFFF" d="M1027.4,1095.3c0-0.5-0.4-0.8-0.8-0.8c-0.5,0-0.8,0.4-0.8,0.8c0,0.5,0.4,0.8,0.8,0.8
	C1027.1,1096.1,1027.4,1095.7,1027.4,1095.3"/>
<path fill="#FFFFFF" d="M1170.9,675.7c0-0.5-0.4-0.8-0.8-0.8c-0.5,0-0.8,0.4-0.8,0.8c0,0.5,0.4,0.8,0.8,0.8
	C1170.5,676.5,1170.9,676.1,1170.9,675.7"/>
<path fill="#FFFFFF" d="M1128.6,644c0-0.5-0.4-0.8-0.8-0.8c-0.5,0-0.8,0.4-0.8,0.8c0,0.5,0.4,0.8,0.8,0.8
	C1128.2,644.8,1128.6,644.5,1128.6,644"/>
<path fill="#FFFFFF" d="M1117.6,787.4c0-0.5-0.4-0.8-0.8-0.8c-0.5,0-0.8,0.4-0.8,0.8c0,0.5,0.4,0.8,0.8,0.8
	C1117.2,788.2,1117.6,787.8,1117.6,787.4"/>
<path fill="#FFFFFF" d="M440.6,1020c0-0.6-0.5-1.1-1.1-1.1c-0.6,0-1.1,0.5-1.1,1.1c0,0.6,0.5,1.1,1.1,1.1
	C440.1,1021.1,440.6,1020.6,440.6,1020"/>
<path fill="#FFFFFF" d="M321.8,933.1c0-0.7-0.6-1.3-1.3-1.3c-0.7,0-1.3,0.6-1.3,1.3c0,0.7,0.6,1.3,1.3,1.3
	C321.2,934.5,321.8,933.9,321.8,933.1"/>
<path fill="#FFFFFF" d="M527.9,521.5c0-0.1-0.1-0.3-0.3-0.3c-0.1,0-0.3,0.1-0.3,0.3c0,0.1,0.1,0.3,0.3,0.3
	C527.8,521.7,527.9,521.6,527.9,521.5"/>
<path fill="#FFFFFF" d="M634.5,646.8c0-0.5-0.4-0.8-0.8-0.8c-0.5,0-0.8,0.4-0.8,0.8c0,0.5,0.4,0.8,0.8,0.8
	C634.1,647.6,634.5,647.2,634.5,646.8"/>
<path fill="#FFFFFF" d="M571.4,663.3c0-0.5-0.4-0.8-0.8-0.8c-0.5,0-0.8,0.4-0.8,0.8c0,0.5,0.4,0.8,0.8,0.8
	C571,664.1,571.4,663.7,571.4,663.3"/>
<path fill="#FFFFFF" d="M536.7,549.6c0-0.2-0.1-0.3-0.3-0.3c-0.2,0-0.3,0.1-0.3,0.3c0,0.2,0.1,0.3,0.3,0.3
	C536.6,549.9,536.7,549.8,536.7,549.6"/>
<path fill="#FFFFFF" d="M329.9,585.3c0-0.8-0.7-1.5-1.5-1.5c-0.8,0-1.5,0.7-1.5,1.5c0,0.8,0.7,1.5,1.5,1.5
	C329.2,586.7,329.9,586.1,329.9,585.3"/>
<path fill="#FFFFFF" d="M261.2,716.8c0-1-0.8-1.8-1.8-1.8c-1,0-1.8,0.8-1.8,1.8c0,1,0.8,1.8,1.8,1.8
	C260.4,718.5,261.2,717.7,261.2,716.8"/>
<path fill="#FFFFFF" d="M466,602.4c0-0.7-0.6-1.2-1.2-1.2c-0.7,0-1.2,0.6-1.2,1.2c0,0.7,0.6,1.2,1.2,1.2
	C465.4,603.6,466,603,466,602.4"/>
<path fill="#FFFFFF" d="M56.6,384.8c0-0.7-0.6-1.2-1.2-1.2c-0.7,0-1.2,0.6-1.2,1.2c0,0.7,0.6,1.2,1.2,1.2
	C56.1,386.1,56.6,385.5,56.6,384.8"/>
<path fill="#FFFFFF" d="M862.8,563.2c0-0.2-0.1-0.3-0.3-0.3c-0.2,0-0.3,0.1-0.3,0.3c0,0.2,0.1,0.3,0.3,0.3
	C862.7,563.5,862.8,563.3,862.8,563.2"/>
<path fill="#FFFFFF" d="M227.2,470.2c0-0.8-0.7-1.5-1.5-1.5c-0.8,0-1.5,0.7-1.5,1.5c0,0.8,0.7,1.5,1.5,1.5
	C226.6,471.7,227.2,471,227.2,470.2"/>
<path fill="#FFFFFF" d="M252,679.5c0-0.7-0.6-1.2-1.2-1.2c-0.7,0-1.2,0.6-1.2,1.2c0,0.7,0.6,1.2,1.2,1.2
	C251.5,680.7,252,680.1,252,679.5"/>
<path fill="#FFFFFF" d="M730,505.5c0-0.1-0.1-0.3-0.3-0.3c-0.1,0-0.3,0.1-0.3,0.3c0,0.1,0.1,0.3,0.3,0.3
	C729.9,505.8,730,505.7,730,505.5"/>
<path fill="#FFFFFF" d="M721.2,529.2c0-0.2-0.1-0.3-0.3-0.3c-0.2,0-0.3,0.1-0.3,0.3c0,0.2,0.1,0.3,0.3,0.3
	C721.1,529.5,721.2,529.4,721.2,529.2"/>
<path fill="#FFFFFF" d="M756.7,618.8c0-0.9-0.8-1.7-1.7-1.7c-0.9,0-1.7,0.8-1.7,1.7c0,0.9,0.8,1.7,1.7,1.7
	C755.9,620.4,756.7,619.7,756.7,618.8"/>
<path fill="#FFFFFF" d="M611.3,376.3c0-0.9-0.8-1.7-1.7-1.7s-1.7,0.8-1.7,1.7c0,0.9,0.8,1.7,1.7,1.7S611.3,377.3,611.3,376.3"/>
<path fill="#FFFFFF" d="M944.4,432.9c0-0.5-0.4-0.8-0.8-0.8c-0.5,0-0.8,0.4-0.8,0.8c0,0.5,0.4,0.8,0.8,0.8
	C944.1,433.8,944.4,433.4,944.4,432.9"/>
<path fill="#FFFFFF" d="M292.5,259.9c0-0.6-0.5-1.1-1.1-1.1c-0.6,0-1.1,0.5-1.1,1.1c0,0.6,0.5,1.1,1.1,1.1
	C292,261.1,292.5,260.5,292.5,259.9"/>
<path fill="#FFFFFF" d="M755.6,508.8c0-0.2-0.1-0.3-0.3-0.3c-0.2,0-0.3,0.1-0.3,0.3c0,0.2,0.1,0.3,0.3,0.3
	C755.5,509.1,755.6,509,755.6,508.8"/>
<path fill="#FFFFFF" d="M157.2,557.8c0-0.7-0.6-1.2-1.2-1.2c-0.7,0-1.2,0.6-1.2,1.2c0,0.7,0.6,1.2,1.2,1.2
	C156.6,559.1,157.2,558.5,157.2,557.8"/>
<path fill="#FFFFFF" d="M381.5,383.7c0-0.6-0.5-1.1-1.1-1.1c-0.6,0-1.1,0.5-1.1,1.1c0,0.6,0.5,1.1,1.1,1.1
	C381,384.8,381.5,384.3,381.5,383.7"/>
<path fill="#FFFFFF" d="M1000.6,343.7c0-0.5-0.4-0.8-0.8-0.8c-0.5,0-0.8,0.4-0.8,0.8c0,0.5,0.4,0.8,0.8,0.8
	C1000.2,344.6,1000.6,344.2,1000.6,343.7"/>
<path fill="#FFFFFF" d="M1109.3,419.1c0-0.5-0.4-0.8-0.8-0.8c-0.5,0-0.8,0.4-0.8,0.8c0,0.5,0.4,0.8,0.8,0.8
	C1108.9,420,1109.3,419.6,1109.3,419.1"/>
<path fill="#FFFFFF" d="M604.4,353.2c0-0.6-0.5-1.1-1.1-1.1c-0.6,0-1.1,0.5-1.1,1.1c0,0.6,0.5,1.1,1.1,1.1
	C603.9,354.3,604.4,353.8,604.4,353.2"/>
<path fill="#FFFFFF" d="M542.4,286.1c0-1-0.8-1.8-1.8-1.8c-1,0-1.8,0.8-1.8,1.8c0,1,0.8,1.8,1.8,1.8
	C541.6,287.9,542.4,287.1,542.4,286.1"/>
<path fill="#FFFFFF" d="M693.1,225c0-1-0.8-1.8-1.8-1.8c-1,0-1.8,0.8-1.8,1.8c0,1,0.8,1.8,1.8,1.8C692.3,226.8,693.1,226,693.1,225"
	/>
<path fill="#FFFFFF" d="M60.8,714c0-0.7-0.6-1.3-1.3-1.3c-0.7,0-1.3,0.6-1.3,1.3c0,0.7,0.6,1.3,1.3,1.3
	C60.2,715.3,60.8,714.7,60.8,714"/>
<path fill="#FFFFFF" d="M683.2,570c0-0.9-0.8-1.7-1.7-1.7c-0.9,0-1.7,0.8-1.7,1.7c0,0.9,0.8,1.7,1.7,1.7
	C682.5,571.7,683.2,571,683.2,570"/>
<path fill="#FFFFFF" d="M871.6,539.5c0-0.1-0.1-0.3-0.3-0.3c-0.1,0-0.3,0.1-0.3,0.3c0,0.1,0.1,0.3,0.3,0.3
	C871.5,539.7,871.6,539.6,871.6,539.5"/>
<path fill="#FFFFFF" d="M1105.8,495.3c0-0.5-0.4-0.8-0.8-0.8c-0.5,0-0.8,0.4-0.8,0.8c0,0.5,0.4,0.8,0.8,0.8
	C1105.5,496.2,1105.8,495.8,1105.8,495.3"/>
<path fill="#FFFFFF" d="M601,429.4c0-0.6-0.5-1.1-1.1-1.1c-0.6,0-1.1,0.5-1.1,1.1c0,0.6,0.5,1.1,1.1,1.1
	C600.5,430.5,601,430,601,429.4"/>
<path fill="#FFFFFF" d="M462.2,362.5c0-0.7-0.6-1.3-1.3-1.3c-0.7,0-1.3,0.6-1.3,1.3s0.6,1.3,1.3,1.3
	C461.6,363.8,462.2,363.2,462.2,362.5"/>
<path fill="#FFFFFF" d="M349.7,483.9c0-0.1-0.1-0.3-0.3-0.3c-0.1,0-0.3,0.1-0.3,0.3c0,0.1,0.1,0.3,0.3,0.3
	C349.6,484.2,349.7,484.1,349.7,483.9"/>
<path fill="#FFFFFF" d="M551.8,364.2c0-0.5-0.4-0.8-0.8-0.8c-0.5,0-0.8,0.4-0.8,0.8c0,0.5,0.4,0.8,0.8,0.8
	C551.4,365,551.8,364.7,551.8,364.2"/>
<path fill="#FFFFFF" d="M149.7,232.7c0-0.6-0.5-1.1-1.1-1.1c-0.6,0-1.1,0.5-1.1,1.1c0,0.6,0.5,1.1,1.1,1.1
	C149.2,233.8,149.7,233.3,149.7,232.7"/>
<path fill="#FFFFFF" d="M358.5,512.1c0-0.2-0.1-0.3-0.3-0.3c-0.2,0-0.3,0.1-0.3,0.3c0,0.2,0.1,0.3,0.3,0.3
	C358.4,512.4,358.5,512.3,358.5,512.1"/>
<path fill="#FFFFFF" d="M62.4,548.9c0-0.8-0.7-1.5-1.5-1.5c-0.8,0-1.5,0.7-1.5,1.5c0,0.8,0.7,1.5,1.5,1.5
	C61.7,550.4,62.4,549.7,62.4,548.9"/>
<path fill="#FFFFFF" d="M822.4,306.2c0-0.5-0.4-0.8-0.8-0.8c-0.5,0-0.8,0.4-0.8,0.8c0,0.5,0.4,0.8,0.8,0.8
	C822.1,307.1,822.4,306.7,822.4,306.2"/>
<path fill="#FFFFFF" d="M931.1,381.6c0-0.5-0.4-0.8-0.8-0.8c-0.5,0-0.8,0.4-0.8,0.8c0,0.5,0.4,0.8,0.8,0.8
	C930.7,382.5,931.1,382.1,931.1,381.6"/>
<path fill="#FFFFFF" d="M426.3,315.7c0-0.6-0.5-1.1-1.1-1.1c-0.6,0-1.1,0.5-1.1,1.1c0,0.6,0.5,1.1,1.1,1.1
	C425.8,316.8,426.3,316.3,426.3,315.7"/>
<path fill="#FFFFFF" d="M336.9,491c0-0.7-0.6-1.3-1.3-1.3c-0.7,0-1.3,0.6-1.3,1.3c0,0.7,0.6,1.3,1.3,1.3
	C336.3,492.3,336.9,491.7,336.9,491"/>
<path fill="#FFFFFF" d="M927.7,457.8c0-0.5-0.4-0.8-0.8-0.8c-0.5,0-0.8,0.4-0.8,0.8c0,0.5,0.4,0.8,0.8,0.8
	C927.3,458.7,927.7,458.3,927.7,457.8"/>
<path fill="#FFFFFF" d="M269.2,383.1c0-0.6-0.5-1.1-1.1-1.1c-0.6,0-1.1,0.5-1.1,1.1c0,0.6,0.5,1.1,1.1,1.1
	C268.7,384.2,269.2,383.7,269.2,383.1"/>
<path fill="#FFFFFF" d="M1123.1,354.6c0-0.1-0.1-0.3-0.3-0.3c-0.1,0-0.3,0.1-0.3,0.3c0,0.1,0.1,0.3,0.3,0.3
	C1123,354.9,1123.1,354.7,1123.1,354.6"/>
<path fill="#FFFFFF" d="M904.2,395.4c0-0.1-0.1-0.3-0.3-0.3c-0.1,0-0.3,0.1-0.3,0.3c0,0.1,0.1,0.3,0.3,0.3
	C904.1,395.7,904.2,395.5,904.2,395.4"/>
<path fill="#FFFFFF" d="M1101.8,347.7c0-0.5-0.4-0.8-0.8-0.8c-0.5,0-0.8,0.4-0.8,0.8c0,0.5,0.4,0.8,0.8,0.8
	C1101.5,348.5,1101.8,348.1,1101.8,347.7"/>
<path fill="#FFFFFF" d="M913,423.6c0-0.2-0.1-0.3-0.3-0.3c-0.2,0-0.3,0.1-0.3,0.3c0,0.2,0.1,0.3,0.3,0.3
	C912.9,423.9,913,423.7,913,423.6"/>
<path fill="#FFFFFF" d="M842.3,476.3c0-0.7-0.6-1.2-1.2-1.2c-0.7,0-1.2,0.6-1.2,1.2c0,0.7,0.6,1.2,1.2,1.2
	C841.8,477.5,842.3,477,842.3,476.3"/>
<path fill="#FFFFFF" d="M872.2,391.4c0-0.8-0.7-1.5-1.5-1.5c-0.8,0-1.5,0.7-1.5,1.5c0,0.8,0.7,1.5,1.5,1.5
	C871.5,392.9,872.2,392.2,872.2,391.4"/>
<path fill="#FFFFFF" d="M275.9,416.4c0-0.5-0.4-0.8-0.8-0.8c-0.5,0-0.8,0.4-0.8,0.8c0,0.5,0.4,0.8,0.8,0.8
	C275.5,417.2,275.9,416.8,275.9,416.4"/>
<path fill="#FFFFFF" d="M262.6,365c0-0.5-0.4-0.8-0.8-0.8c-0.5,0-0.8,0.4-0.8,0.8c0,0.5,0.4,0.8,0.8,0.8
	C262.2,365.9,262.6,365.5,262.6,365"/>
<path fill="#FFFFFF" d="M259.1,441.2c0-0.5-0.4-0.8-0.8-0.8c-0.5,0-0.8,0.4-0.8,0.8c0,0.5,0.4,0.8,0.8,0.8
	C258.7,442.1,259.1,441.7,259.1,441.2"/>
<path fill="#FFFFFF" d="M235.7,378.8c0-0.1-0.1-0.3-0.3-0.3c-0.1,0-0.3,0.1-0.3,0.3c0,0.1,0.1,0.3,0.3,0.3
	C235.5,379.1,235.7,379,235.7,378.8"/>
<path fill="#FFFFFF" d="M244.5,407c0-0.2-0.1-0.3-0.3-0.3c-0.2,0-0.3,0.1-0.3,0.3c0,0.2,0.1,0.3,0.3,0.3
	C244.3,407.3,244.5,407.2,244.5,407"/>
<path fill="#FFFFFF" d="M203.6,374.9c0-0.8-0.7-1.5-1.5-1.5c-0.8,0-1.5,0.7-1.5,1.5c0,0.8,0.7,1.5,1.5,1.5
	C203,376.3,203.6,375.7,203.6,374.9"/>
<path fill="#FFFFFF" d="M1106.4,379.5c0-0.1-0.1-0.3-0.3-0.3c-0.1,0-0.3,0.1-0.3,0.3c0,0.1,0.1,0.3,0.3,0.3
	C1106.2,379.7,1106.4,379.6,1106.4,379.5"/>
<path fill="#FFFFFF" d="M1097.6,403.1c0-0.2-0.1-0.3-0.3-0.3c-0.2,0-0.3,0.1-0.3,0.3c0,0.2,0.1,0.3,0.3,0.3
	C1097.4,403.4,1097.6,403.3,1097.6,403.1"/>
<path fill="#FFFFFF" d="M1173,454c0-0.9-0.8-1.7-1.7-1.7s-1.7,0.8-1.7,1.7c0,0.9,0.8,1.7,1.7,1.7S1173,455,1173,454"/>
<path fill="#FFFFFF" d="M815.9,240.9c0-0.6-0.5-1.1-1.1-1.1c-0.6,0-1.1,0.5-1.1,1.1c0,0.6,0.5,1.1,1.1,1.1
	C815.4,242,815.9,241.5,815.9,240.9"/>
<path fill="#FFFFFF" d="M1132,382.8c0-0.2-0.1-0.3-0.3-0.3c-0.2,0-0.3,0.1-0.3,0.3c0,0.2,0.1,0.3,0.3,0.3
	C1131.8,383.1,1132,382.9,1132,382.8"/>
<path fill="#FFFFFF" d="M980.8,227.1c0-0.6-0.5-1.1-1.1-1.1c-0.6,0-1.1,0.5-1.1,1.1c0,0.6,0.5,1.1,1.1,1.1
	C980.3,228.2,980.8,227.7,980.8,227.1"/>
<path fill="#FFFFFF" d="M918.7,160c0-1-0.8-1.8-1.8-1.8c-1,0-1.8,0.8-1.8,1.8c0,1,0.8,1.8,1.8,1.8C918,161.8,918.7,161,918.7,160"/>
<path fill="#FFFFFF" d="M977.3,303.3c0-0.6-0.5-1.1-1.1-1.1c-0.6,0-1.1,0.5-1.1,1.1c0,0.6,0.5,1.1,1.1,1.1
	C976.8,304.4,977.3,303.9,977.3,303.3"/>
<path fill="#FFFFFF" d="M838.5,236.4c0-0.7-0.6-1.3-1.3-1.3c-0.7,0-1.3,0.6-1.3,1.3c0,0.7,0.6,1.3,1.3,1.3
	C837.9,237.8,838.5,237.2,838.5,236.4"/>
<path fill="#FFFFFF" d="M923.7,310.2c0-0.5-0.4-0.8-0.8-0.8c-0.5,0-0.8,0.4-0.8,0.8c0,0.5,0.4,0.8,0.8,0.8
	C923.3,311,923.7,310.6,923.7,310.2"/>
<path fill="#FFFFFF" d="M880.2,693.1c0-0.5-0.4-0.8-0.8-0.8c-0.5,0-0.8,0.4-0.8,0.8c0,0.5,0.4,0.8,0.8,0.8
	C879.8,693.9,880.2,693.5,880.2,693.1"/>
<path fill="#FFFFFF" d="M936.3,603.9c0-0.5-0.4-0.8-0.8-0.8c-0.5,0-0.8,0.4-0.8,0.8c0,0.5,0.4,0.8,0.8,0.8
	C936,604.7,936.3,604.3,936.3,603.9"/>
<path fill="#FFFFFF" d="M1045,679.3c0-0.5-0.4-0.8-0.8-0.8c-0.5,0-0.8,0.4-0.8,0.8c0,0.5,0.4,0.8,0.8,0.8
	C1044.6,680.1,1045,679.7,1045,679.3"/>
<path fill="#FFFFFF" d="M866.8,641.7c0-0.5-0.4-0.8-0.8-0.8c-0.5,0-0.8,0.4-0.8,0.8c0,0.5,0.4,0.8,0.8,0.8
	C866.4,642.6,866.8,642.2,866.8,641.7"/>
<path fill="#FFFFFF" d="M1058.9,614.7c0-0.1-0.1-0.3-0.3-0.3c-0.1,0-0.3,0.1-0.3,0.3c0,0.1,0.1,0.3,0.3,0.3
	C1058.7,615,1058.9,614.9,1058.9,614.7"/>
<path fill="#FFFFFF" d="M839.9,655.5c0-0.1-0.1-0.3-0.3-0.3c-0.1,0-0.3,0.1-0.3,0.3c0,0.1,0.1,0.3,0.3,0.3
	C839.8,655.8,839.9,655.7,839.9,655.5"/>
<path fill="#FFFFFF" d="M1037.6,607.8c0-0.5-0.4-0.8-0.8-0.8c-0.5,0-0.8,0.4-0.8,0.8c0,0.5,0.4,0.8,0.8,0.8
	C1037.2,608.6,1037.6,608.3,1037.6,607.8"/>
<path fill="#FFFFFF" d="M1045.9,546.1c0-0.5-0.4-0.8-0.8-0.8c-0.5,0-0.8,0.4-0.8,0.8c0,0.5,0.4,0.8,0.8,0.8
	C1045.5,546.9,1045.9,546.6,1045.9,546.1"/>
<path fill="#FFFFFF" d="M848.7,683.7c0-0.2-0.1-0.3-0.3-0.3c-0.2,0-0.3,0.1-0.3,0.3c0,0.2,0.1,0.3,0.3,0.3
	C848.6,684,848.7,683.9,848.7,683.7"/>
<path fill="#FFFFFF" d="M731.4,695.4c0-0.8-0.7-1.5-1.5-1.5c-0.8,0-1.5,0.7-1.5,1.5c0,0.8,0.7,1.5,1.5,1.5
	C730.7,696.9,731.4,696.2,731.4,695.4"/>
<path fill="#FFFFFF" d="M803.3,641.7c0-0.8-0.7-1.5-1.5-1.5c-0.8,0-1.5,0.7-1.5,1.5c0,0.8,0.7,1.5,1.5,1.5
	C802.7,643.2,803.3,642.5,803.3,641.7"/>
<path fill="#FFFFFF" d="M651.6,610.3c0-0.8-0.7-1.5-1.5-1.5c-0.8,0-1.5,0.7-1.5,1.5c0,0.8,0.7,1.5,1.5,1.5
	C651,611.8,651.6,611.1,651.6,610.3"/>
<path fill="#FFFFFF" d="M1042.1,639.6c0-0.1-0.1-0.3-0.3-0.3c-0.1,0-0.3,0.1-0.3,0.3c0,0.1,0.1,0.3,0.3,0.3
	C1042,639.8,1042.1,639.7,1042.1,639.6"/>
<path fill="#FFFFFF" d="M1033.3,663.3c0-0.2-0.1-0.3-0.3-0.3c-0.2,0-0.3,0.1-0.3,0.3c0,0.2,0.1,0.3,0.3,0.3
	C1033.1,663.6,1033.3,663.4,1033.3,663.3"/>
<path fill="#FFFFFF" d="M1067.7,642.9c0-0.2-0.1-0.3-0.3-0.3c-0.2,0-0.3,0.1-0.3,0.3c0,0.2,0.1,0.3,0.3,0.3
	C1067.5,643.2,1067.7,643.1,1067.7,642.9"/>
<path fill="#FFFFFF" d="M913,563.4c0-0.6-0.5-1.1-1.1-1.1c-0.6,0-1.1,0.5-1.1,1.1c0,0.6,0.5,1.1,1.1,1.1
	C912.5,564.6,913,564.1,913,563.4"/>
<path fill="#FFFFFF" d="M983.9,528.3c0-0.6-0.5-1.1-1.1-1.1c-0.6,0-1.1,0.5-1.1,1.1c0,0.6,0.5,1.1,1.1,1.1
	C983.4,529.4,983.9,528.9,983.9,528.3"/>
<path fill="#FFFFFF" d="M806.6,593.4c0-0.5-0.4-0.8-0.8-0.8c-0.5,0-0.8,0.4-0.8,0.8c0,0.5,0.4,0.8,0.8,0.8
	C806.2,594.3,806.6,593.9,806.6,593.4"/>
<path fill="#FFFFFF" d="M1198.8,180.1c0-0.5-0.4-0.8-0.8-0.8c-0.5,0-0.8,0.4-0.8,0.8c0,0.5,0.4,0.8,0.8,0.8
	C1198.4,181,1198.8,180.6,1198.8,180.1"/>
<path fill="#FFFFFF" d="M802.6,189.6c0-0.6-0.5-1.1-1.1-1.1c-0.6,0-1.1,0.5-1.1,1.1c0,0.6,0.5,1.1,1.1,1.1
	C802.1,190.7,802.6,190.2,802.6,189.6"/>
<path fill="#FFFFFF" d="M799.1,265.8c0-0.6-0.5-1.1-1.1-1.1c-0.6,0-1.1,0.5-1.1,1.1c0,0.6,0.5,1.1,1.1,1.1
	C798.6,266.9,799.1,266.4,799.1,265.8"/>
<path fill="#FFFFFF" d="M284,325c0-0.7-0.6-1.3-1.3-1.3c-0.7,0-1.3,0.6-1.3,1.3s0.6,1.3,1.3,1.3C283.4,326.3,284,325.7,284,325"/>
<path fill="#FFFFFF" d="M97.6,627.8c0-0.6-0.5-1.1-1.1-1.1c-0.6,0-1.1,0.5-1.1,1.1c0,0.6,0.5,1.1,1.1,1.1
	C97.1,628.9,97.6,628.4,97.6,627.8"/>
<path fill="#FFFFFF" d="M44.7,456.2c0-0.8-0.7-1.5-1.5-1.5s-1.5,0.7-1.5,1.5c0,0.8,0.7,1.5,1.5,1.5S44.7,457,44.7,456.2"/>
<path fill="#FFFFFF" d="M46.5,617.7c0-1-0.8-1.8-1.8-1.8c-1,0-1.8,0.8-1.8,1.8c0,1,0.8,1.8,1.8,1.8
	C45.7,619.4,46.5,618.6,46.5,617.7"/>
<path fill="#FFFFFF" d="M61,733.1c0-0.6-0.5-1.1-1.1-1.1c-0.6,0-1.1,0.5-1.1,1.1c0,0.6,0.5,1.1,1.1,1.1
	C60.5,734.2,61,733.7,61,733.1"/>
<path fill="#FFFFFF" d="M133.1,611.4c0-0.6-0.5-1.1-1.1-1.1c-0.6,0-1.1,0.5-1.1,1.1c0,0.6,0.5,1.1,1.1,1.1
	C132.6,612.5,133.1,612,133.1,611.4"/>
<path fill="#FFFFFF" d="M78.2,637.4c0-1.4-1.1-2.5-2.5-2.5c-1.4,0-2.5,1.1-2.5,2.5c0,1.4,1.1,2.5,2.5,2.5
	C77.1,639.8,78.2,638.7,78.2,637.4"/>
<path fill="#FFFFFF" d="M22,691.8c0-1-0.8-1.8-1.8-1.8c-1,0-1.8,0.8-1.8,1.8c0,1,0.8,1.8,1.8,1.8C21.2,693.6,22,692.8,22,691.8"/>
<path fill="#FFFFFF" d="M746.8,1559.5c0-0.1-0.1-0.3-0.3-0.3c-0.1,0-0.3,0.1-0.3,0.3c0,0.1,0.1,0.3,0.3,0.3
	C746.7,1559.7,746.8,1559.6,746.8,1559.5"/>
<path fill="#FFFFFF" d="M388,1647.4c0-0.8-0.7-1.5-1.5-1.5c-0.8,0-1.5,0.7-1.5,1.5c0,0.8,0.7,1.5,1.5,1.5
	C387.3,1648.8,388,1648.2,388,1647.4"/>
<path fill="#FFFFFF" d="M268.8,1662.4c0-1.4-1.1-2.5-2.5-2.5c-1.4,0-2.5,1.1-2.5,2.5s1.1,2.5,2.5,2.5
	C267.7,1664.9,268.8,1663.8,268.8,1662.4"/>
<path fill="#FFFFFF" d="M536.7,1628.4c0-0.2-0.1-0.3-0.3-0.3c-0.2,0-0.3,0.1-0.3,0.3c0,0.2,0.1,0.3,0.3,0.3
	C536.6,1628.7,536.7,1628.6,536.7,1628.4"/>
<path fill="#FFFFFF" d="M329.9,1664.1c0-0.8-0.7-1.5-1.5-1.5c-0.8,0-1.5,0.7-1.5,1.5c0,0.8,0.7,1.5,1.5,1.5
	C329.2,1665.5,329.9,1664.9,329.9,1664.1"/>
<path fill="#FFFFFF" d="M466,1681.2c0-0.7-0.6-1.2-1.2-1.2c-0.7,0-1.2,0.6-1.2,1.2c0,0.7,0.6,1.2,1.2,1.2
	C465.4,1682.4,466,1681.8,466,1681.2"/>
<path fill="#FFFFFF" d="M862.8,1642c0-0.2-0.1-0.3-0.3-0.3c-0.2,0-0.3,0.1-0.3,0.3c0,0.2,0.1,0.3,0.3,0.3
	C862.7,1642.3,862.8,1642.1,862.8,1642"/>
<path fill="#FFFFFF" d="M730,1584.3c0-0.1-0.1-0.3-0.3-0.3c-0.1,0-0.3,0.1-0.3,0.3c0,0.1,0.1,0.3,0.3,0.3
	C729.9,1584.6,730,1584.5,730,1584.3"/>
<path fill="#FFFFFF" d="M756.7,1697.6c0-0.9-0.8-1.7-1.7-1.7c-0.9,0-1.7,0.8-1.7,1.7c0,0.9,0.8,1.7,1.7,1.7
	C755.9,1699.2,756.7,1698.5,756.7,1697.6"/>
<path fill="#FFFFFF" d="M755.6,1587.6c0-0.2-0.1-0.3-0.3-0.3c-0.2,0-0.3,0.1-0.3,0.3c0,0.2,0.1,0.3,0.3,0.3
	C755.5,1587.9,755.6,1587.8,755.6,1587.6"/>
<path fill="#FFFFFF" d="M157.2,1636.6c0-0.7-0.6-1.2-1.2-1.2c-0.7,0-1.2,0.6-1.2,1.2c0,0.7,0.6,1.2,1.2,1.2
	C156.6,1637.9,157.2,1637.3,157.2,1636.6"/>
<path fill="#FFFFFF" d="M683.2,1648.8c0-0.9-0.8-1.7-1.7-1.7c-0.9,0-1.7,0.8-1.7,1.7c0,0.9,0.8,1.7,1.7,1.7
	C682.5,1650.5,683.2,1649.8,683.2,1648.8"/>
<path fill="#FFFFFF" d="M871.6,1618.3c0-0.1-0.1-0.3-0.3-0.3c-0.1,0-0.3,0.1-0.3,0.3c0,0.1,0.1,0.3,0.3,0.3
	C871.5,1618.5,871.6,1618.4,871.6,1618.3"/>
<path fill="#FFFFFF" d="M1105.8,1574.1c0-0.5-0.4-0.8-0.8-0.8c-0.5,0-0.8,0.4-0.8,0.8c0,0.5,0.4,0.8,0.8,0.8
	C1105.5,1575,1105.8,1574.6,1105.8,1574.1"/>
<path fill="#FFFFFF" d="M349.7,1562.7c0-0.1-0.1-0.3-0.3-0.3c-0.1,0-0.3,0.1-0.3,0.3c0,0.1,0.1,0.3,0.3,0.3
	C349.6,1563,349.7,1562.9,349.7,1562.7"/>
<path fill="#FFFFFF" d="M358.5,1590.9c0-0.2-0.1-0.3-0.3-0.3c-0.2,0-0.3,0.1-0.3,0.3c0,0.2,0.1,0.3,0.3,0.3
	C358.4,1591.2,358.5,1591.1,358.5,1590.9"/>
<path fill="#FFFFFF" d="M62.4,1627.7c0-0.8-0.7-1.5-1.5-1.5c-0.8,0-1.5,0.7-1.5,1.5c0,0.8,0.7,1.5,1.5,1.5
	C61.7,1629.2,62.4,1628.5,62.4,1627.7"/>
<path fill="#FFFFFF" d="M336.9,1569.8c0-0.7-0.6-1.3-1.3-1.3c-0.7,0-1.3,0.6-1.3,1.3s0.6,1.3,1.3,1.3
	C336.3,1571.1,336.9,1570.5,336.9,1569.8"/>
<path fill="#FFFFFF" d="M842.3,1555.1c0-0.7-0.6-1.2-1.2-1.2c-0.7,0-1.2,0.6-1.2,1.2c0,0.7,0.6,1.2,1.2,1.2
	C841.8,1556.3,842.3,1555.8,842.3,1555.1"/>
<path fill="#FFFFFF" d="M936.3,1682.7c0-0.5-0.4-0.8-0.8-0.8c-0.5,0-0.8,0.4-0.8,0.8c0,0.5,0.4,0.8,0.8,0.8
	C936,1683.5,936.3,1683.1,936.3,1682.7"/>
<path fill="#FFFFFF" d="M1058.9,1693.5c0-0.1-0.1-0.3-0.3-0.3c-0.1,0-0.3,0.1-0.3,0.3c0,0.1,0.1,0.3,0.3,0.3
	C1058.7,1693.8,1058.9,1693.7,1058.9,1693.5"/>
<path fill="#FFFFFF" d="M1037.6,1686.6c0-0.5-0.4-0.8-0.8-0.8c-0.5,0-0.8,0.4-0.8,0.8c0,0.5,0.4,0.8,0.8,0.8
	C1037.2,1687.4,1037.6,1687.1,1037.6,1686.6"/>
<path fill="#FFFFFF" d="M1045.9,1624.9c0-0.5-0.4-0.8-0.8-0.8c-0.5,0-0.8,0.4-0.8,0.8c0,0.5,0.4,0.8,0.8,0.8
	C1045.5,1625.7,1045.9,1625.4,1045.9,1624.9"/>
<path fill="#FFFFFF" d="M651.6,1689.1c0-0.8-0.7-1.5-1.5-1.5c-0.8,0-1.5,0.7-1.5,1.5c0,0.8,0.7,1.5,1.5,1.5
	C651,1690.6,651.6,1689.9,651.6,1689.1"/>
<path fill="#FFFFFF" d="M913,1642.2c0-0.6-0.5-1.1-1.1-1.1c-0.6,0-1.1,0.5-1.1,1.1c0,0.6,0.5,1.1,1.1,1.1
	C912.5,1643.4,913,1642.9,913,1642.2"/>
<path fill="#FFFFFF" d="M806.6,1672.2c0-0.5-0.4-0.8-0.8-0.8c-0.5,0-0.8,0.4-0.8,0.8c0,0.5,0.4,0.8,0.8,0.8
	C806.2,1673.1,806.6,1672.7,806.6,1672.2"/>
<path fill="#FFFFFF" d="M97.6,1706.6c0-0.6-0.5-1.1-1.1-1.1c-0.6,0-1.1,0.5-1.1,1.1c0,0.6,0.5,1.1,1.1,1.1
	C97.1,1707.7,97.6,1707.2,97.6,1706.6"/>
<path fill="#FFFFFF" d="M46.5,1696.5c0-1-0.8-1.8-1.8-1.8c-1,0-1.8,0.8-1.8,1.8c0,1,0.8,1.8,1.8,1.8
	C45.7,1698.2,46.5,1697.4,46.5,1696.5"/>
<path fill="#FFFFFF" d="M201.5,325.6c0-0.1-0.1-0.3-0.3-0.3c-0.1,0-0.3,0.1-0.3,0.3c0,0.1,0.1,0.3,0.3,0.3
	C201.4,325.9,201.5,325.8,201.5,325.6"/>
<path fill="#FFFFFF" d="M210.3,353.8c0-0.2-0.1-0.3-0.3-0.3c-0.2,0-0.3,0.1-0.3,0.3c0,0.2,0.1,0.3,0.3,0.3
	C210.2,354.1,210.3,354,210.3,353.8"/>
<path fill="#FFFFFF" d="M3.5,389.4c0-0.8-0.7-1.5-1.5-1.5c-0.8,0-1.5,0.7-1.5,1.5c0,0.8,0.7,1.5,1.5,1.5
	C2.8,390.9,3.5,390.2,3.5,389.4"/>
<path fill="#FFFFFF" d="M139.6,406.5c0-0.7-0.6-1.2-1.2-1.2c-0.7,0-1.2,0.6-1.2,1.2c0,0.7,0.6,1.2,1.2,1.2
	C139.1,407.8,139.6,407.2,139.6,406.5"/>
<path fill="#FFFFFF" d="M169.5,321.7c0-0.8-0.7-1.5-1.5-1.5c-0.8,0-1.5,0.7-1.5,1.5c0,0.8,0.7,1.5,1.5,1.5
	C168.8,323.1,169.5,322.5,169.5,321.7"/>
<path fill="#FFFFFF" d="M55.1,187.8c0-0.6-0.5-1.1-1.1-1.1c-0.6,0-1.1,0.5-1.1,1.1c0,0.6,0.5,1.1,1.1,1.1
	C54.6,189,55.1,188.5,55.1,187.8"/>
<path fill="#FFFFFF" d="M278.1,157.3c0-0.6-0.5-1.1-1.1-1.1c-0.6,0-1.1,0.5-1.1,1.1c0,0.6,0.5,1.1,1.1,1.1
	C277.6,158.5,278.1,158,278.1,157.3"/>
<path fill="#FFFFFF" d="M216,90.3c0-1-0.8-1.8-1.8-1.8c-1,0-1.8,0.8-1.8,1.8c0,1,0.8,1.8,1.8,1.8C215.2,92,216,91.2,216,90.3"/>
<path fill="#FFFFFF" d="M356.9,374.2c0-0.9-0.8-1.7-1.7-1.7c-0.9,0-1.7,0.8-1.7,1.7c0,0.9,0.8,1.7,1.7,1.7
	C356.1,375.9,356.9,375.1,356.9,374.2"/>
<path fill="#FFFFFF" d="M274.6,233.5c0-0.6-0.5-1.1-1.1-1.1c-0.6,0-1.1,0.5-1.1,1.1c0,0.6,0.5,1.1,1.1,1.1
	C274.1,234.7,274.6,234.2,274.6,233.5"/>
<path fill="#FFFFFF" d="M135.8,166.7c0-0.7-0.6-1.3-1.3-1.3c-0.7,0-1.3,0.6-1.3,1.3c0,0.7,0.6,1.3,1.3,1.3
	C135.2,168,135.8,167.4,135.8,166.7"/>
<path fill="#FFFFFF" d="M23.3,288.1c0-0.1-0.1-0.3-0.3-0.3c-0.1,0-0.3,0.1-0.3,0.3c0,0.1,0.1,0.3,0.3,0.3
	C23.2,288.4,23.3,288.2,23.3,288.1"/>
<path fill="#FFFFFF" d="M221,240.4c0-0.5-0.4-0.8-0.8-0.8c-0.5,0-0.8,0.4-0.8,0.8c0,0.5,0.4,0.8,0.8,0.8
	C220.6,241.2,221,240.8,221,240.4"/>
<path fill="#FFFFFF" d="M32.1,316.3c0-0.2-0.1-0.3-0.3-0.3c-0.2,0-0.3,0.1-0.3,0.3c0,0.2,0.1,0.3,0.3,0.3
	C32,316.6,32.1,316.4,32.1,316.3"/>
<path fill="#FFFFFF" d="M99.9,119.8c0-0.6-0.5-1.1-1.1-1.1c-0.6,0-1.1,0.5-1.1,1.1c0,0.6,0.5,1.1,1.1,1.1
	C99.4,120.9,99.9,120.4,99.9,119.8"/>
<path fill="#FFFFFF" d="M66.3,204.5c0-0.7-0.6-1.3-1.3-1.3c-0.7,0-1.3,0.6-1.3,1.3s0.6,1.3,1.3,1.3
	C65.7,205.9,66.3,205.3,66.3,204.5"/>
<path fill="#FFFFFF" d="M592.7,1606.5c0-0.2-0.1-0.3-0.3-0.3c-0.2,0-0.3,0.1-0.3,0.3c0,0.2,0.1,0.3,0.3,0.3
	C592.6,1606.8,592.7,1606.6,592.7,1606.5"/>
<path fill="#FFFFFF" d="M987.4,1585.1c0-0.2-0.1-0.3-0.3-0.3c-0.2,0-0.3,0.1-0.3,0.3c0,0.2,0.1,0.3,0.3,0.3
	C987.3,1585.4,987.4,1585.3,987.4,1585.1"/>
<path fill="#FFFFFF" d="M405.7,1540.8c0-0.1-0.1-0.3-0.3-0.3c-0.1,0-0.3,0.1-0.3,0.3c0,0.1,0.1,0.3,0.3,0.3
	C405.6,1541,405.7,1540.9,405.7,1540.8"/>
<path fill="#FFFFFF" d="M414.5,1568.9c0-0.2-0.1-0.3-0.3-0.3c-0.2,0-0.3,0.1-0.3,0.3c0,0.2,0.1,0.3,0.3,0.3
	C414.4,1569.2,414.5,1569.1,414.5,1568.9"/>
<rect x="187" y="929.5" opacity="0.1" fill="#FF0000" width="824.6" height="178"/>
</svg>
