<?xml version="1.0" encoding="utf-8"?>
<!-- Generator: Adobe Illustrator 18.0.0, SVG Export Plug-In . SVG Version: 6.00 Build 0)  -->
<!DOCTYPE svg PUBLIC "-//W3C//DTD SVG 1.1//EN" "http://www.w3.org/Graphics/SVG/1.1/DTD/svg11.dtd">
<svg version="1.1" id="schnee_x5F_mittel" xmlns="http://www.w3.org/2000/svg" xmlns:xlink="http://www.w3.org/1999/xlink" x="0px"
	 y="0px" viewBox="0 0 1200 1711.1" enable-background="new 0 0 1200 1711.1" xml:space="preserve">
<path fill="#FFFFFF" d="M102.4,1609.4c0-2.3-1.9-4.2-4.2-4.2c-2.3,0-4.2,1.9-4.2,4.2s1.9,4.2,4.2,4.2
	C100.5,1613.6,102.4,1611.7,102.4,1609.4"/>
<path fill="#FFFFFF" d="M685.5,1539.2c0-2-1.6-3.6-3.6-3.6c-2,0-3.6,1.6-3.6,3.6c0,2,1.6,3.6,3.6,3.6
	C683.8,1542.8,685.5,1541.2,685.5,1539.2"/>
<path fill="#FFFFFF" d="M418.7,1505.3c0-2.1-1.7-3.7-3.7-3.7c-2.1,0-3.7,1.7-3.7,3.7c0,2.1,1.7,3.7,3.7,3.7
	C417,1509,418.7,1507.3,418.7,1505.3"/>
<path fill="#FFFFFF" d="M189.5,1559.3c0-2.2-1.7-3.9-3.9-3.9c-2.2,0-3.9,1.8-3.9,3.9c0,2.2,1.7,3.9,3.9,3.9
	C187.8,1563.3,189.5,1561.5,189.5,1559.3"/>
<path fill="#FFFFFF" d="M801.8,768c0-2.5-2-4.5-4.5-4.5c-2.5,0-4.5,2-4.5,4.5c0,2.5,2,4.5,4.5,4.5
	C799.8,772.5,801.8,770.5,801.8,768"/>
<path fill="#FFFFFF" d="M477.7,859.1c0-2-1.6-3.6-3.6-3.6c-2,0-3.6,1.6-3.6,3.6c0,2,1.6,3.6,3.6,3.6
	C476.1,862.7,477.7,861.1,477.7,859.1"/>
<path fill="#FFFFFF" d="M282.6,871c0-2.1-1.7-3.7-3.7-3.7c-2.1,0-3.7,1.7-3.7,3.7c0,2.1,1.7,3.7,3.7,3.7
	C280.9,874.8,282.6,873.1,282.6,871"/>
<path fill="#FFFFFF" d="M333.2,693.6c0-1.4-1.1-2.5-2.5-2.5c-1.4,0-2.5,1.1-2.5,2.5c0,1.4,1.1,2.5,2.5,2.5
	C332,696.1,333.2,695,333.2,693.6"/>
<path fill="#FFFFFF" d="M1055.7,1169.3c0-1.4-1.1-2.5-2.5-2.5c-1.4,0-2.5,1.1-2.5,2.5s1.1,2.5,2.5,2.5
	C1054.5,1171.8,1055.7,1170.7,1055.7,1169.3"/>
<path fill="#FFFFFF" d="M627.2,693.6c0-2.3-1.9-4.2-4.2-4.2c-2.3,0-4.2,1.9-4.2,4.2c0,2.3,1.9,4.2,4.2,4.2
	C625.4,697.8,627.2,696,627.2,693.6"/>
<path fill="#FFFFFF" d="M523.4,587.8c0-2.3-1.9-4.2-4.2-4.2c-2.3,0-4.2,1.9-4.2,4.2c0,2.3,1.9,4.2,4.2,4.2
	C521.5,592,523.4,590.2,523.4,587.8"/>
<path fill="#FFFFFF" d="M405.7,480.4c0-2.5-2-4.5-4.5-4.5c-2.5,0-4.5,2-4.5,4.5c0,2.5,2,4.5,4.5,4.5
	C403.7,484.9,405.7,482.9,405.7,480.4"/>
<path fill="#FFFFFF" d="M158,649.3c0-2.3-1.9-4.2-4.2-4.2c-2.3,0-4.2,1.9-4.2,4.2c0,2.3,1.9,4.2,4.2,4.2
	C156.1,653.6,158,651.7,158,649.3"/>
<path fill="#FFFFFF" d="M702,452.6c0-2-1.6-3.6-3.6-3.6c-2,0-3.6,1.6-3.6,3.6c0,2,1.6,3.6,3.6,3.6C700.4,456.2,702,454.6,702,452.6"
	/>
<path fill="#FFFFFF" d="M736.4,758.7c0-2.9-2.3-5.2-5.2-5.2c-2.9,0-5.2,2.3-5.2,5.2c0,2.9,2.3,5.2,5.2,5.2
	C734.1,763.9,736.4,761.6,736.4,758.7"/>
<path fill="#FFFFFF" d="M1015.3,457c0-2.9-2.3-5.2-5.2-5.2c-2.9,0-5.2,2.3-5.2,5.2c0,2.9,2.3,5.2,5.2,5.2
	C1013,462.2,1015.3,459.8,1015.3,457"/>
<path fill="#FFFFFF" d="M448.6,498.6c0-2.1-1.7-3.7-3.7-3.7c-2.1,0-3.7,1.7-3.7,3.7c0,2.1,1.7,3.7,3.7,3.7
	C446.9,502.4,448.6,500.7,448.6,498.6"/>
<path fill="#FFFFFF" d="M202.6,538.7c0-2.2-1.7-3.9-3.9-3.9c-2.2,0-3.9,1.8-3.9,3.9c0,2.2,1.7,3.9,3.9,3.9
	C200.9,542.6,202.6,540.9,202.6,538.7"/>
<path fill="#FFFFFF" d="M283.9,789.4c0-2.8-2.3-5.1-5.1-5.1c-2.8,0-5.1,2.3-5.1,5.1c0,2.8,2.3,5.1,5.1,5.1
	C281.7,794.5,283.9,792.2,283.9,789.4"/>
<path fill="#FFFFFF" d="M654.6,818.5c0-2.3-1.9-4.2-4.2-4.2c-2.3,0-4.2,1.9-4.2,4.2c0,2.3,1.9,4.2,4.2,4.2
	C652.7,822.7,654.6,820.8,654.6,818.5"/>
<path fill="#FFFFFF" d="M1034.4,851.3c0-2.9-2.3-5.2-5.2-5.2c-2.9,0-5.2,2.3-5.2,5.2c0,2.9,2.3,5.2,5.2,5.2
	C1032,856.5,1034.4,854.2,1034.4,851.3"/>
<path fill="#FFFFFF" d="M518.4,700.6c0-2.5-2-4.5-4.6-4.5c-2.5,0-4.6,2-4.6,4.5c0,2.5,2,4.6,4.6,4.6
	C516.4,705.2,518.4,703.2,518.4,700.6"/>
<path fill="#FFFFFF" d="M1057.7,258.8c0-2.5-2-4.5-4.6-4.5c-2.5,0-4.6,2-4.6,4.5s2,4.6,4.6,4.6
	C1055.7,263.4,1057.7,261.3,1057.7,258.8"/>
<path fill="#FFFFFF" d="M597.6,757.4c0-2.5-2-4.5-4.6-4.5c-2.5,0-4.6,2-4.6,4.5c0,2.5,2,4.6,4.6,4.6
	C595.6,761.9,597.6,759.9,597.6,757.4"/>
<path fill="#FFFFFF" d="M929.6,1275.3c0-2.5-2-4.5-4.5-4.5c-2.5,0-4.5,2-4.5,4.5c0,2.5,2,4.5,4.5,4.5
	C927.6,1279.8,929.6,1277.8,929.6,1275.3"/>
<path fill="#FFFFFF" d="M1014.6,1297.6c0-2.5-2-4.5-4.5-4.5c-2.5,0-4.5,2-4.5,4.5c0,2.5,2,4.5,4.5,4.5
	C1012.6,1302.1,1014.6,1300.1,1014.6,1297.6"/>
<path fill="#FFFFFF" d="M558.8,1427.7c0-2-1.6-3.6-3.6-3.6c-2,0-3.6,1.6-3.6,3.6c0,2,1.6,3.6,3.6,3.6
	C557.2,1431.3,558.8,1429.7,558.8,1427.7"/>
<path fill="#FFFFFF" d="M436.4,1355.4c0-2.1-1.7-3.7-3.7-3.7c-2.1,0-3.7,1.7-3.7,3.7c0,2.1,1.7,3.7,3.7,3.7
	C434.8,1359.1,436.4,1357.5,436.4,1355.4"/>
<path fill="#FFFFFF" d="M979.2,1167.7c0-3-2.4-5.4-5.4-5.4c-3,0-5.4,2.4-5.4,5.4c0,3,2.4,5.4,5.4,5.4
	C976.8,1173.1,979.2,1170.7,979.2,1167.7"/>
<path fill="#FFFFFF" d="M332.2,1015.1c0-0.7-0.6-1.2-1.2-1.2c-0.7,0-1.2,0.6-1.2,1.2c0,0.7,0.6,1.2,1.2,1.2
	C331.6,1016.4,332.2,1015.8,332.2,1015.1"/>
<path fill="#FFFFFF" d="M774.4,955.8c0-0.1-0.1-0.3-0.3-0.3c-0.1,0-0.3,0.1-0.3,0.3c0,0.1,0.1,0.3,0.3,0.3
	C774.3,956.1,774.4,956,774.4,955.8"/>
<path fill="#FFFFFF" d="M591,1013c0-2.3-1.9-4.2-4.2-4.2c-2.3,0-4.2,1.9-4.2,4.2c0,2.3,1.9,4.2,4.2,4.2
	C589.1,1017.2,591,1015.3,591,1013"/>
<path fill="#FFFFFF" d="M112.1,831.3c0-2.5-2-4.5-4.5-4.5c-2.5,0-4.5,2-4.5,4.5c0,2.5,2,4.5,4.5,4.5
	C110.1,835.8,112.1,833.8,112.1,831.3"/>
<path fill="#FFFFFF" d="M185.6,1124.5c0-2.3-1.9-4.2-4.2-4.2c-2.3,0-4.2,1.9-4.2,4.2s1.9,4.2,4.2,4.2
	C183.7,1128.7,185.6,1126.8,185.6,1124.5"/>
<path fill="#FFFFFF" d="M790.3,851.9c0-3-2.4-5.3-5.3-5.3c-3,0-5.3,2.4-5.3,5.3c0,3,2.4,5.3,5.3,5.3
	C787.9,857.3,790.3,854.9,790.3,851.9"/>
<path fill="#FFFFFF" d="M744.8,849.7c0-2-1.6-3.6-3.6-3.6s-3.6,1.6-3.6,3.6c0,2,1.6,3.6,3.6,3.6S744.8,851.6,744.8,849.7"/>
<path fill="#FFFFFF" d="M1015.3,1364.4c0-2.9-2.3-5.2-5.2-5.2c-2.9,0-5.2,2.3-5.2,5.2c0,2.9,2.3,5.2,5.2,5.2
	C1013,1369.6,1015.3,1367.2,1015.3,1364.4"/>
<path fill="#FFFFFF" d="M765.6,979.5c0-0.2-0.1-0.3-0.3-0.3c-0.2,0-0.3,0.1-0.3,0.3c0,0.2,0.1,0.3,0.3,0.3
	C765.5,979.8,765.6,979.7,765.6,979.5"/>
<path fill="#FFFFFF" d="M636.5,920.5c0-2.1-1.7-3.7-3.7-3.7c-2.1,0-3.7,1.7-3.7,3.7c0,2.1,1.7,3.7,3.7,3.7
	C634.8,924.2,636.5,922.6,636.5,920.5"/>
<path fill="#FFFFFF" d="M267.1,1013.3c0-2.2-1.7-3.9-3.9-3.9c-2.2,0-3.9,1.8-3.9,3.9c0,2.2,1.7,3.9,3.9,3.9
	C265.3,1017.2,267.1,1015.5,267.1,1013.3"/>
<path fill="#FFFFFF" d="M1028.3,1415.6c0-2.5-2-4.5-4.5-4.5c-2.5,0-4.5,2-4.5,4.5c0,2.5,2,4.5,4.5,4.5
	C1026.3,1420.1,1028.3,1418.1,1028.3,1415.6"/>
<path fill="#FFFFFF" d="M667.5,1503.1c0-2-1.6-3.6-3.6-3.6c-2,0-3.6,1.6-3.6,3.6c0,2,1.6,3.6,3.6,3.6
	C665.9,1506.7,667.5,1505.1,667.5,1503.1"/>
<path fill="#FFFFFF" d="M574.3,1495.8c0-2.1-1.7-3.7-3.7-3.7c-2.1,0-3.7,1.7-3.7,3.7c0,2.1,1.7,3.7,3.7,3.7
	C572.6,1499.5,574.3,1497.9,574.3,1495.8"/>
<path fill="#FFFFFF" d="M1200.3,1181.1c0-3-2.4-5.4-5.4-5.4c-3,0-5.4,2.4-5.4,5.4c0,3,2.4,5.4,5.4,5.4
	C1197.9,1186.5,1200.3,1184.1,1200.3,1181.1"/>
<path fill="#FFFFFF" d="M883.1,1031.2c0-0.1-0.1-0.3-0.3-0.3c-0.1,0-0.3,0.1-0.3,0.3c0,0.1,0.1,0.3,0.3,0.3
	C883,1031.5,883.1,1031.4,883.1,1031.2"/>
<path fill="#FFFFFF" d="M637.4,1128.7c0-2.3-1.9-4.2-4.2-4.2c-2.3,0-4.2,1.9-4.2,4.2c0,2.3,1.9,4.2,4.2,4.2
	C635.6,1133,637.4,1131.1,637.4,1128.7"/>
<path fill="#FFFFFF" d="M755.6,1244.2c0-2.5-2-4.5-4.5-4.5c-2.5,0-4.5,2-4.5,4.5c0,2.5,2,4.5,4.5,4.5
	C753.6,1248.7,755.6,1246.7,755.6,1244.2"/>
<path fill="#FFFFFF" d="M1033.3,1239.7c0-2.5-2-4.5-4.5-4.5c-2.5,0-4.5,2-4.5,4.5c0,2.5,2,4.5,4.5,4.5
	C1031.3,1244.2,1033.3,1242.2,1033.3,1239.7"/>
<path fill="#FFFFFF" d="M873.6,878.3c0-2.5-2-4.5-4.5-4.5c-2.5,0-4.5,2-4.5,4.5c0,2.5,2,4.5,4.5,4.5
	C871.6,882.7,873.6,880.7,873.6,878.3"/>
<path fill="#FFFFFF" d="M295,1162.4c0-2.3-1.9-4.2-4.2-4.2c-2.3,0-4.2,1.9-4.2,4.2s1.9,4.2,4.2,4.2
	C293.1,1166.6,295,1164.7,295,1162.4"/>
<path fill="#FFFFFF" d="M772.9,1128.7c0-2-1.6-3.6-3.6-3.6c-2,0-3.6,1.6-3.6,3.6c0,2,1.6,3.6,3.6,3.6
	C771.3,1132.3,772.9,1130.7,772.9,1128.7"/>
<path fill="#FFFFFF" d="M575.9,917.6c0-0.6-0.5-1.1-1.1-1.1s-1.1,0.5-1.1,1.1c0,0.6,0.5,1.1,1.1,1.1S575.9,918.2,575.9,917.6"/>
<path fill="#FFFFFF" d="M911.9,1019.4c0-0.2-0.1-0.3-0.3-0.3c-0.2,0-0.3,0.1-0.3,0.3c0,0.2,0.1,0.3,0.3,0.3
	C911.8,1019.7,911.9,1019.6,911.9,1019.4"/>
<path fill="#FFFFFF" d="M917,987.6c0-2.1-1.7-3.7-3.7-3.7c-2.1,0-3.7,1.7-3.7,3.7c0,2.1,1.7,3.7,3.7,3.7
	C915.4,991.3,917,989.6,917,987.6"/>
<path fill="#FFFFFF" d="M360.7,1166.7c0-2.2-1.7-3.9-3.9-3.9c-2.2,0-3.9,1.8-3.9,3.9c0,2.2,1.7,3.9,3.9,3.9
	C359,1170.6,360.7,1168.8,360.7,1166.7"/>
<path fill="#FFFFFF" d="M272.7,1319.7c0-3.1-2.5-5.6-5.6-5.6c-3.1,0-5.6,2.5-5.6,5.6c0,3.1,2.5,5.6,5.6,5.6
	C270.2,1325.3,272.7,1322.8,272.7,1319.7"/>
<path fill="#FFFFFF" d="M907.4,1475.1c0-2.3-1.9-4.2-4.2-4.2c-2.3,0-4.2,1.9-4.2,4.2c0,2.3,1.9,4.2,4.2,4.2
	C905.5,1479.3,907.4,1477.4,907.4,1475.1"/>
<path fill="#FFFFFF" d="M830.8,1297.6c0-2.5-2-4.5-4.6-4.5c-2.5,0-4.6,2-4.6,4.5s2,4.6,4.6,4.6
	C828.8,1302.2,830.8,1300.1,830.8,1297.6"/>
<path fill="#FFFFFF" d="M59.8,1263.4c0-2.5-2-4.5-4.5-4.5c-2.5,0-4.5,2-4.5,4.5c0,2.5,2,4.5,4.5,4.5
	C57.8,1267.9,59.8,1265.9,59.8,1263.4"/>
<path fill="#FFFFFF" d="M919.4,1571.8c0-2-1.6-3.6-3.6-3.6c-2,0-3.6,1.6-3.6,3.6c0,2,1.6,3.6,3.6,3.6
	C917.8,1575.4,919.4,1573.8,919.4,1571.8"/>
<path fill="#FFFFFF" d="M826.3,1564.5c0-2.1-1.7-3.7-3.7-3.7c-2.1,0-3.7,1.7-3.7,3.7c0,2.1,1.7,3.7,3.7,3.7
	C824.6,1568.3,826.3,1566.6,826.3,1564.5"/>
<path fill="#FFFFFF" d="M807,1452.3c0-2.1-1.7-3.7-3.7-3.7c-2.1,0-3.7,1.7-3.7,3.7c0,2.1,1.7,3.7,3.7,3.7
	C805.4,1456,807,1454.3,807,1452.3"/>
<path fill="#FFFFFF" d="M334.9,1546.7c0-2.2-1.7-3.9-3.9-3.9c-2.2,0-3.9,1.8-3.9,3.9c0,2.2,1.7,3.9,3.9,3.9
	C333.1,1550.6,334.9,1548.8,334.9,1546.7"/>
<path fill="#FFFFFF" d="M121.2,989.3c0-2.8-2.3-5.1-5.1-5.1c-2.8,0-5.1,2.3-5.1,5.1c0,2.8,2.3,5.1,5.1,5.1
	C118.9,994.4,121.2,992.1,121.2,989.3"/>
<path fill="#FFFFFF" d="M64.9,909c0-2.8-2.3-5.1-5.1-5.1c-2.8,0-5.1,2.3-5.1,5.1s2.3,5.1,5.1,5.1C62.6,914,64.9,911.8,64.9,909"/>
<path fill="#FFFFFF" d="M752.9,1359.8c0-2.3-1.9-4.2-4.2-4.2c-2.3,0-4.2,1.9-4.2,4.2c0,2.3,1.9,4.2,4.2,4.2
	C751,1364,752.9,1362.2,752.9,1359.8"/>
<path fill="#FFFFFF" d="M212,1339.7c0-1.2-1-2.2-2.2-2.2c-1.2,0-2.2,1-2.2,2.2s1,2.2,2.2,2.2C211,1342,212,1341,212,1339.7"/>
<path fill="#FFFFFF" d="M529.4,1171.8c0-2.5-2-4.5-4.6-4.5c-2.5,0-4.6,2-4.6,4.5s2,4.6,4.6,4.6
	C527.4,1176.4,529.4,1174.3,529.4,1171.8"/>
<path fill="#FFFFFF" d="M245.1,1476.6c0-2.3-1.9-4.2-4.2-4.2c-2.3,0-4.2,1.9-4.2,4.2c0,2.3,1.9,4.2,4.2,4.2
	C243.2,1480.8,245.1,1478.9,245.1,1476.6"/>
<path fill="#FFFFFF" d="M507.3,1501.7c0-2-1.6-3.6-3.6-3.6c-2,0-3.6,1.6-3.6,3.6c0,2,1.6,3.6,3.6,3.6
	C505.7,1505.3,507.3,1503.7,507.3,1501.7"/>
<path fill="#FFFFFF" d="M214.2,1392c0-2.1-1.7-3.7-3.7-3.7c-2.1,0-3.7,1.7-3.7,3.7c0,2.1,1.7,3.7,3.7,3.7
	C212.6,1395.7,214.2,1394,214.2,1392"/>
<path fill="#FFFFFF" d="M11.4,1521.8c0-2.2-1.7-3.9-3.9-3.9c-2.2,0-3.9,1.8-3.9,3.9c0,2.2,1.7,3.9,3.9,3.9
	C9.6,1525.7,11.4,1524,11.4,1521.8"/>
<path fill="#FFFFFF" d="M652,1173.4c0-2.5-2-4.5-4.5-4.5c-2.5,0-4.5,2-4.5,4.5c0,2.5,2,4.5,4.5,4.5
	C650,1177.8,652,1175.8,652,1173.4"/>
<path fill="#FFFFFF" d="M647.5,1315.2c0-2.5-2-4.5-4.5-4.5c-2.5,0-4.5,2-4.5,4.5c0,2.5,2,4.5,4.5,4.5
	C645.5,1319.7,647.5,1317.7,647.5,1315.2"/>
<path fill="#FFFFFF" d="M323.3,1448.7c0-2-1.6-3.6-3.6-3.6c-2,0-3.6,1.6-3.6,3.6c0,2,1.6,3.6,3.6,3.6
	C321.6,1452.3,323.3,1450.7,323.3,1448.7"/>
<path fill="#FFFFFF" d="M233.9,1289.4c0-2.1-1.7-3.7-3.7-3.7c-2.1,0-3.7,1.7-3.7,3.7c0,2.1,1.7,3.7,3.7,3.7
	C232.3,1293.2,233.9,1291.5,233.9,1289.4"/>
<path fill="#FFFFFF" d="M836.8,1195.7c0-2.5-2-4.5-4.5-4.5c-2.5,0-4.5,2-4.5,4.5c0,2.5,2,4.5,4.5,4.5
	C834.8,1200.1,836.8,1198.1,836.8,1195.7"/>
<path fill="#FFFFFF" d="M391.8,1456.2c0-2-1.6-3.6-3.6-3.6c-2,0-3.6,1.6-3.6,3.6c0,2,1.6,3.6,3.6,3.6
	C390.2,1459.7,391.8,1458.1,391.8,1456.2"/>
<path fill="#FFFFFF" d="M363.8,1352c0-2.1-1.7-3.7-3.7-3.7c-2.1,0-3.7,1.7-3.7,3.7c0,2.1,1.7,3.7,3.7,3.7
	C362.1,1355.7,363.8,1354.1,363.8,1352"/>
<path fill="#FFFFFF" d="M291.2,1206.7c0-1.4-1.1-2.5-2.5-2.5c-1.4,0-2.5,1.1-2.5,2.5s1.1,2.5,2.5,2.5
	C290.1,1209.2,291.2,1208,291.2,1206.7"/>
<path fill="#FFFFFF" d="M26.2,1191.2c0-2.3-1.9-4.2-4.2-4.2c-2.3,0-4.2,1.9-4.2,4.2s1.9,4.2,4.2,4.2
	C24.3,1195.4,26.2,1193.5,26.2,1191.2"/>
<path fill="#FFFFFF" d="M82.5,1128.2c0-2.3-1.9-4.2-4.2-4.2c-2.3,0-4.2,1.9-4.2,4.2s1.9,4.2,4.2,4.2
	C80.6,1132.5,82.5,1130.6,82.5,1128.2"/>
<path fill="#FFFFFF" d="M124.2,1191.2c0-2.3-1.9-4.2-4.2-4.2c-2.3,0-4.2,1.9-4.2,4.2s1.9,4.2,4.2,4.2
	C122.3,1195.4,124.2,1193.5,124.2,1191.2"/>
<path fill="#FFFFFF" d="M1168.6,869.7c0-2.9-2.3-5.2-5.2-5.2c-2.9,0-5.2,2.3-5.2,5.2c0,2.9,2.3,5.2,5.2,5.2
	C1166.3,874.9,1168.6,872.6,1168.6,869.7"/>
<path fill="#FFFFFF" d="M120.8,1408.9c0-2.8-2.3-5.1-5.1-5.1c-2.8,0-5.1,2.3-5.1,5.1s2.3,5.1,5.1,5.1
	C118.5,1414,120.8,1411.7,120.8,1408.9"/>
<path fill="#FFFFFF" d="M666.2,1425c0-2.3-1.9-4.2-4.2-4.2c-2.3,0-4.2,1.9-4.2,4.2c0,2.3,1.9,4.2,4.2,4.2
	C664.3,1429.2,666.2,1427.3,666.2,1425"/>
<path fill="#FFFFFF" d="M1082.6,1461.4c0-2.9-2.3-5.2-5.2-5.2c-2.9,0-5.2,2.3-5.2,5.2c0,2.9,2.3,5.2,5.2,5.2
	C1080.3,1466.6,1082.6,1464.2,1082.6,1461.4"/>
<path fill="#FFFFFF" d="M142.5,1357.6c0-1.2-1-2.2-2.2-2.2c-1.2,0-2.2,1-2.2,2.2s1,2.2,2.2,2.2
	C141.5,1359.8,142.5,1358.8,142.5,1357.6"/>
<path fill="#FFFFFF" d="M595,1222.8c0-2.5-2-4.5-4.6-4.5c-2.5,0-4.6,2-4.6,4.5s2,4.6,4.6,4.6C593,1227.4,595,1225.3,595,1222.8"/>
<path fill="#FFFFFF" d="M731,1441.6c0-2.3-1.9-4.2-4.2-4.2c-2.3,0-4.2,1.9-4.2,4.2c0,2.3,1.9,4.2,4.2,4.2
	C729.1,1445.8,731,1444,731,1441.6"/>
<path fill="#FFFFFF" d="M435.7,1408.9c0-2.5-2-4.5-4.5-4.5c-2.5,0-4.5,2-4.5,4.5c0,2.5,2,4.5,4.5,4.5
	C433.7,1413.4,435.7,1411.4,435.7,1408.9"/>
<path fill="#FFFFFF" d="M648.7,1585.1c0-2.1-1.7-3.7-3.7-3.7c-2.1,0-3.7,1.7-3.7,3.7c0,2.1,1.7,3.7,3.7,3.7
	C647,1588.9,648.7,1587.2,648.7,1585.1"/>
<path fill="#FFFFFF" d="M188.3,1507c0-2.2-1.7-3.9-3.9-3.9c-2.2,0-3.9,1.8-3.9,3.9c0,2.2,1.7,3.9,3.9,3.9
	C186.6,1510.9,188.3,1509.1,188.3,1507"/>
<path fill="#FFFFFF" d="M258,1136.5c0-1-0.8-1.8-1.8-1.8c-1,0-1.8,0.8-1.8,1.8c0,1,0.8,1.8,1.8,1.8
	C257.3,1138.3,258,1137.5,258,1136.5"/>
<path fill="#FFFFFF" d="M157.5,1186.5c0-1-0.8-1.8-1.8-1.8c-1,0-1.8,0.8-1.8,1.8c0,1,0.8,1.8,1.8,1.8
	C156.7,1188.2,157.5,1187.5,157.5,1186.5"/>
<path fill="#FFFFFF" d="M211.5,1246.3c0-2.8-2.3-5.1-5.1-5.1c-2.8,0-5.1,2.3-5.1,5.1s2.3,5.1,5.1,5.1
	C209.2,1251.4,211.5,1249.1,211.5,1246.3"/>
<path fill="#FFFFFF" d="M466,1297.6c0-2.3-1.9-4.2-4.2-4.2c-2.3,0-4.2,1.9-4.2,4.2c0,2.3,1.9,4.2,4.2,4.2
	C464.1,1301.8,466,1300,466,1297.6"/>
<path fill="#FFFFFF" d="M33.8,1302.2c0-1.2-1-2.2-2.2-2.2c-1.2,0-2.2,1-2.2,2.2s1,2.2,2.2,2.2C32.9,1304.4,33.8,1303.4,33.8,1302.2"
	/>
<path fill="#FFFFFF" d="M422.4,1133.9c0-2.1-1.7-3.7-3.7-3.7c-2.1,0-3.7,1.7-3.7,3.7c0,2.1,1.7,3.7,3.7,3.7
	C420.7,1137.7,422.4,1136,422.4,1133.9"/>
<path fill="#FFFFFF" d="M874.8,803c0-2.5-2-4.5-4.5-4.5c-2.5,0-4.5,2-4.5,4.5c0,2.5,2,4.5,4.5,4.5
	C872.8,807.5,874.8,805.5,874.8,803"/>
<path fill="#FFFFFF" d="M1169.8,616.4c0-2.5-2-4.5-4.5-4.5c-2.5,0-4.5,2-4.5,4.5c0,2.5,2,4.5,4.5,4.5
	C1167.8,620.8,1169.8,618.8,1169.8,616.4"/>
<path fill="#FFFFFF" d="M540.6,979c0-2-1.6-3.6-3.6-3.6c-2,0-3.6,1.6-3.6,3.6c0,2,1.6,3.6,3.6,3.6C539,982.6,540.6,981,540.6,979"/>
<path fill="#FFFFFF" d="M418.3,906.7c0-2.1-1.7-3.7-3.7-3.7c-2.1,0-3.7,1.7-3.7,3.7c0,2.1,1.7,3.7,3.7,3.7
	C416.6,910.5,418.3,908.8,418.3,906.7"/>
<path fill="#FFFFFF" d="M982.7,722c0-3-2.4-5.4-5.4-5.4c-3,0-5.4,2.4-5.4,5.4c0,3,2.4,5.4,5.4,5.4C980.3,727.4,982.7,725,982.7,722"
	/>
<path fill="#FFFFFF" d="M997.4,791.2c0-2.9-2.3-5.2-5.2-5.2c-2.9,0-5.2,2.3-5.2,5.2c0,2.9,2.3,5.2,5.2,5.2
	C995.1,796.4,997.4,794,997.4,791.2"/>
<path fill="#FFFFFF" d="M931.1,933.7c0-2.5-2-4.5-4.5-4.5c-2.5,0-4.5,2-4.5,4.5c0,2.5,2,4.5,4.5,4.5
	C929.1,938.2,931.1,936.2,931.1,933.7"/>
<path fill="#FFFFFF" d="M782.7,1016.9c0-2-1.6-3.6-3.6-3.6c-2,0-3.6,1.6-3.6,3.6c0,2,1.6,3.6,3.6,3.6
	C781.1,1020.5,782.7,1018.9,782.7,1016.9"/>
<path fill="#FFFFFF" d="M544.4,1128.2c0-2.1-1.7-3.7-3.7-3.7c-2.1,0-3.7,1.7-3.7,3.7c0,2.1,1.7,3.7,3.7,3.7
	C542.7,1132,544.4,1130.3,544.4,1128.2"/>
<path fill="#FFFFFF" d="M1145.5,708.8c0-3-2.4-5.4-5.4-5.4c-3,0-5.4,2.4-5.4,5.4c0,3,2.4,5.4,5.4,5.4
	C1143.1,714.2,1145.5,711.8,1145.5,708.8"/>
<path fill="#FFFFFF" d="M233.9,937.3c0-3.1-2.5-5.6-5.6-5.6c-3.1,0-5.6,2.5-5.6,5.6c0,3.1,2.5,5.6,5.6,5.6
	C231.4,942.9,233.9,940.4,233.9,937.3"/>
<path fill="#FFFFFF" d="M871.4,1015.1c0-2.3-1.9-4.2-4.2-4.2c-2.3,0-4.2,1.9-4.2,4.2c0,2.3,1.9,4.2,4.2,4.2
	C869.5,1019.4,871.4,1017.5,871.4,1015.1"/>
<path fill="#FFFFFF" d="M1104.4,898.2c0-2.5-2-4.5-4.6-4.5s-4.6,2-4.6,4.5c0,2.5,2,4.6,4.6,4.6S1104.4,900.7,1104.4,898.2"/>
<path fill="#FFFFFF" d="M288,538.7c0-2.5-2-4.5-4.6-4.5c-2.5,0-4.6,2-4.6,4.5c0,2.5,2,4.6,4.6,4.6C285.9,543.3,288,541.2,288,538.7"
	/>
<path fill="#FFFFFF" d="M1065.5,708.8c0-2.5-2-4.5-4.6-4.5s-4.6,2-4.6,4.5c0,2.5,2,4.6,4.6,4.6S1065.5,711.3,1065.5,708.8"/>
<path fill="#FFFFFF" d="M41.7,794.7c0-2.5-2-4.5-4.5-4.5c-2.5,0-4.5,2-4.5,4.5c0,2.5,2,4.5,4.5,4.5
	C39.7,799.2,41.7,797.2,41.7,794.7"/>
<path fill="#FFFFFF" d="M758.2,904.4c0-2.3-1.9-4.2-4.2-4.2c-2.3,0-4.2,1.9-4.2,4.2c0,2.3,1.9,4.2,4.2,4.2
	C756.3,908.6,758.2,906.7,758.2,904.4"/>
<path fill="#FFFFFF" d="M193.9,871.1c0-1.2-1-2.2-2.2-2.2c-1.2,0-2.2,1-2.2,2.2c0,1.2,1,2.2,2.2,2.2
	C192.9,873.3,193.9,872.3,193.9,871.1"/>
<path fill="#FFFFFF" d="M584.8,644.8c0-2.5-2-4.5-4.6-4.5c-2.5,0-4.6,2-4.6,4.5c0,2.5,2,4.6,4.6,4.6
	C582.8,649.4,584.8,647.4,584.8,644.8"/>
<path fill="#FFFFFF" d="M316.3,193.3c0-2.5-2-4.5-4.6-4.5c-2.5,0-4.6,2-4.6,4.5s2,4.6,4.6,4.6C314.2,197.9,316.3,195.9,316.3,193.3"
	/>
<path fill="#FFFFFF" d="M77.4,1079.4c0-2.3-1.9-4.2-4.2-4.2c-2.3,0-4.2,1.9-4.2,4.2c0,2.3,1.9,4.2,4.2,4.2
	C75.5,1083.7,77.4,1081.8,77.4,1079.4"/>
<path fill="#FFFFFF" d="M536.7,1027.9c0-2-1.6-3.6-3.6-3.6c-2,0-3.6,1.6-3.6,3.6c0,2,1.6,3.6,3.6,3.6
	C535.1,1031.5,536.7,1029.9,536.7,1027.9"/>
<path fill="#FFFFFF" d="M196.1,943.3c0-2.1-1.7-3.7-3.7-3.7c-2.1,0-3.7,1.7-3.7,3.7c0,2.1,1.7,3.7,3.7,3.7
	C194.4,947,196.1,945.4,196.1,943.3"/>
<path fill="#FFFFFF" d="M669.7,740.5c0-2.5-2-4.5-4.5-4.5c-2.5,0-4.5,2-4.5,4.5c0,2.5,2,4.5,4.5,4.5
	C667.7,745,669.7,743,669.7,740.5"/>
<path fill="#FFFFFF" d="M274.2,977.4c0-2-1.6-3.6-3.6-3.6c-2,0-3.6,1.6-3.6,3.6c0,2,1.6,3.6,3.6,3.6
	C272.6,980.9,274.2,979.3,274.2,977.4"/>
<path fill="#FFFFFF" d="M215.8,820.8c0-2.1-1.7-3.7-3.7-3.7c-2.1,0-3.7,1.7-3.7,3.7c0,2.1,1.7,3.7,3.7,3.7
	C214.1,824.5,215.8,822.8,215.8,820.8"/>
<path fill="#FFFFFF" d="M947.5,663c0-2.5-2-4.5-4.5-4.5c-2.5,0-4.5,2-4.5,4.5c0,2.5,2,4.5,4.5,4.5
	C945.5,667.4,947.5,665.4,947.5,663"/>
<path fill="#FFFFFF" d="M618.8,833.5c0-2-1.6-3.6-3.6-3.6c-2,0-3.6,1.6-3.6,3.6c0,2,1.6,3.6,3.6,3.6
	C617.2,837.1,618.8,835.5,618.8,833.5"/>
<path fill="#FFFFFF" d="M371.7,887c0-2.1-1.7-3.7-3.7-3.7c-2.1,0-3.7,1.7-3.7,3.7c0,2.1,1.7,3.7,3.7,3.7
	C370,890.8,371.7,889.1,371.7,887"/>
<path fill="#FFFFFF" d="M273.1,738c0-1.4-1.1-2.5-2.5-2.5c-1.4,0-2.5,1.1-2.5,2.5c0,1.4,1.1,2.5,2.5,2.5
	C272,740.5,273.1,739.4,273.1,738"/>
<path fill="#FFFFFF" d="M172.5,993c0-2.8-2.3-5.1-5.1-5.1c-2.8,0-5.1,2.3-5.1,5.1c0,2.8,2.3,5.1,5.1,5.1
	C170.3,998,172.5,995.8,172.5,993"/>
<path fill="#FFFFFF" d="M701.9,917.6c0-2.3-1.9-4.2-4.2-4.2c-2.3,0-4.2,1.9-4.2,4.2c0,2.3,1.9,4.2,4.2,4.2
	C700,921.8,701.9,919.9,701.9,917.6"/>
<path fill="#FFFFFF" d="M1064.4,1012.7c0-2.9-2.3-5.2-5.2-5.2c-2.9,0-5.2,2.3-5.2,5.2c0,2.9,2.3,5.2,5.2,5.2
	C1062.1,1017.9,1064.4,1015.6,1064.4,1012.7"/>
<path fill="#FFFFFF" d="M124.3,908.9c0-1.2-1-2.2-2.2-2.2c-1.2,0-2.2,1-2.2,2.2c0,1.2,1,2.2,2.2,2.2
	C123.3,911.2,124.3,910.2,124.3,908.9"/>
<path fill="#FFFFFF" d="M502,667.4c0-2.5-2-4.5-4.6-4.5c-2.5,0-4.6,2-4.6,4.5c0,2.5,2,4.6,4.6,4.6C500,672,502,669.9,502,667.4"/>
<path fill="#FFFFFF" d="M524.9,897.6c0-2.3-1.9-4.2-4.2-4.2c-2.3,0-4.2,1.9-4.2,4.2c0,2.3,1.9,4.2,4.2,4.2
	C523,901.8,524.9,899.9,524.9,897.6"/>
<path fill="#FFFFFF" d="M367.7,918.7c0-2.5-2-4.5-4.5-4.5c-2.5,0-4.5,2-4.5,4.5c0,2.5,2,4.5,4.5,4.5
	C365.7,923.2,367.7,921.2,367.7,918.7"/>
<path fill="#FFFFFF" d="M170.1,1058.3c0-2.2-1.7-3.9-3.9-3.9c-2.2,0-3.9,1.8-3.9,3.9c0,2.2,1.7,3.9,3.9,3.9
	C168.4,1062.2,170.1,1060.4,170.1,1058.3"/>
<path fill="#FFFFFF" d="M193.3,777.6c0-2.8-2.3-5.1-5.1-5.1c-2.8,0-5.1,2.3-5.1,5.1c0,2.8,2.3,5.1,5.1,5.1
	C191,782.7,193.3,780.4,193.3,777.6"/>
<path fill="#FFFFFF" d="M447.8,829c0-2.3-1.9-4.2-4.2-4.2c-2.3,0-4.2,1.9-4.2,4.2c0,2.3,1.9,4.2,4.2,4.2
	C445.9,833.2,447.8,831.3,447.8,829"/>
<path fill="#FFFFFF" d="M15.7,833.5c0-1.2-1-2.2-2.2-2.2c-1.2,0-2.2,1-2.2,2.2c0,1.2,1,2.2,2.2,2.2
	C14.7,835.7,15.7,834.8,15.7,833.5"/>
<path fill="#FFFFFF" d="M389.6,1215.7c0-2.5-2-4.5-4.6-4.5c-2.5,0-4.6,2-4.6,4.5s2,4.6,4.6,4.6
	C387.6,1220.2,389.6,1218.2,389.6,1215.7"/>
<path fill="#FFFFFF" d="M160.7,554.5c0-1.4-1.1-2.5-2.5-2.5c-1.4,0-2.5,1.1-2.5,2.5c0,1.4,1.1,2.5,2.5,2.5
	C159.6,557,160.7,555.9,160.7,554.5"/>
<path fill="#FFFFFF" d="M378.5,635.9c0-2.3-1.9-4.2-4.2-4.2c-2.3,0-4.2,1.9-4.2,4.2c0,2.3,1.9,4.2,4.2,4.2
	C376.6,640.1,378.5,638.2,378.5,635.9"/>
<path fill="#FFFFFF" d="M46.4,552.6c0-2.3-1.9-4.2-4.2-4.2c-2.3,0-4.2,1.9-4.2,4.2s1.9,4.2,4.2,4.2
	C44.5,556.8,46.4,554.9,46.4,552.6"/>
<path fill="#FFFFFF" d="M1031.9,945.6c0-3-2.4-5.3-5.3-5.3c-3,0-5.3,2.4-5.3,5.3c0,3,2.4,5.3,5.3,5.3
	C1029.5,950.9,1031.9,948.5,1031.9,945.6"/>
<path fill="#FFFFFF" d="M629.4,482.4c0-2-1.6-3.6-3.6-3.6s-3.6,1.6-3.6,3.6c0,2,1.6,3.6,3.6,3.6S629.4,484.4,629.4,482.4"/>
<path fill="#FFFFFF" d="M564,853.2c0-2.9-2.3-5.2-5.2-5.2c-2.9,0-5.2,2.3-5.2,5.2c0,2.9,2.3,5.2,5.2,5.2
	C561.7,858.4,564,856.1,564,853.2"/>
<path fill="#FFFFFF" d="M377.3,761.1c0-2.1-1.7-3.7-3.7-3.7c-2.1,0-3.7,1.7-3.7,3.7c0,2.1,1.7,3.7,3.7,3.7
	C375.6,764.9,377.3,763.2,377.3,761.1"/>
<path fill="#FFFFFF" d="M86.4,502.4c0-2.2-1.7-3.9-3.9-3.9c-2.2,0-3.9,1.8-3.9,3.9c0,2.2,1.7,3.9,3.9,3.9
	C84.6,506.3,86.4,504.5,86.4,502.4"/>
<path fill="#FFFFFF" d="M910.9,265.1c0-2.5-2-4.5-4.5-4.5c-2.5,0-4.5,2-4.5,4.5c0,2.5,2,4.5,4.5,4.5
	C908.9,269.6,910.9,267.6,910.9,265.1"/>
<path fill="#FFFFFF" d="M502.8,370.9c0-2-1.6-3.6-3.6-3.6c-2,0-3.6,1.6-3.6,3.6c0,2,1.6,3.6,3.6,3.6
	C501.2,374.5,502.8,372.9,502.8,370.9"/>
<path fill="#FFFFFF" d="M480.8,273.7c0-2-1.6-3.6-3.6-3.6c-2,0-3.6,1.6-3.6,3.6c0,2,1.6,3.6,3.6,3.6
	C479.2,277.3,480.8,275.7,480.8,273.7"/>
<path fill="#FFFFFF" d="M442.2,164.3c0-0.6-0.5-1.1-1.1-1.1c-0.6,0-1.1,0.5-1.1,1.1c0,0.6,0.5,1.1,1.1,1.1
	C441.7,165.5,442.2,165,442.2,164.3"/>
<path fill="#FFFFFF" d="M414.8,362.5c0-2.1-1.7-3.7-3.7-3.7c-2.1,0-3.7,1.7-3.7,3.7c0,2.1,1.7,3.7,3.7,3.7
	C413.2,366.2,414.8,364.6,414.8,362.5"/>
<path fill="#FFFFFF" d="M1035.6,28.9c0-3-2.4-5.4-5.4-5.4c-3,0-5.4,2.4-5.4,5.4c0,3,2.4,5.4,5.4,5.4
	C1033.2,34.3,1035.6,31.8,1035.6,28.9"/>
<path fill="#FFFFFF" d="M710.7,12.6c0-0.9-0.8-1.7-1.7-1.7c-0.9,0-1.7,0.8-1.7,1.7c0,0.9,0.8,1.7,1.7,1.7
	C709.9,14.3,710.7,13.5,710.7,12.6"/>
<path fill="#FFFFFF" d="M304.8,92c0-1.4-1.1-2.5-2.5-2.5c-1.4,0-2.5,1.1-2.5,2.5c0,1.4,1.1,2.5,2.5,2.5
	C303.7,94.5,304.8,93.4,304.8,92"/>
<path fill="#FFFFFF" d="M129.6,47.7c0-2.3-1.9-4.2-4.2-4.2c-2.3,0-4.2,1.9-4.2,4.2s1.9,4.2,4.2,4.2C127.7,51.9,129.6,50,129.6,47.7"
	/>
<path fill="#FFFFFF" d="M692.6,129.4c0-2.9-2.3-5.2-5.2-5.2c-2.9,0-5.2,2.3-5.2,5.2c0,2.9,2.3,5.2,5.2,5.2
	C690.3,134.6,692.6,132.3,692.6,129.4"/>
<path fill="#FFFFFF" d="M661.7,419.8c0-2-1.6-3.6-3.6-3.6c-2,0-3.6,1.6-3.6,3.6c0,2,1.6,3.6,3.6,3.6
	C660.1,423.3,661.7,421.7,661.7,419.8"/>
<path fill="#FFFFFF" d="M518.3,439c0-2.1-1.7-3.7-3.7-3.7c-2.1,0-3.7,1.7-3.7,3.7c0,2.1,1.7,3.7,3.7,3.7
	C516.6,442.7,518.3,441.1,518.3,439"/>
<path fill="#FFFFFF" d="M481,235.1c0-2.1-1.7-3.7-3.7-3.7c-2.1,0-3.7,1.7-3.7,3.7c0,2.1,1.7,3.7,3.7,3.7
	C479.3,238.9,481,237.2,481,235.1"/>
<path fill="#FFFFFF" d="M1144.3,104.3c0-3-2.4-5.4-5.4-5.4c-3,0-5.4,2.4-5.4,5.4c0,3,2.4,5.4,5.4,5.4
	C1141.9,109.7,1144.3,107.2,1144.3,104.3"/>
<path fill="#FFFFFF" d="M384.9,13.7c0-0.7-0.6-1.2-1.2-1.2c-0.7,0-1.2,0.6-1.2,1.2c0,0.7,0.6,1.2,1.2,1.2
	C384.3,15,384.9,14.4,384.9,13.7"/>
<path fill="#FFFFFF" d="M837,92.5c0-0.9-0.8-1.7-1.7-1.7c-0.9,0-1.7,0.8-1.7,1.7c0,0.9,0.8,1.7,1.7,1.7
	C836.2,94.2,837,93.4,837,92.5"/>
<path fill="#FFFFFF" d="M413.4,167.4c0-1.4-1.1-2.5-2.5-2.5c-1.4,0-2.5,1.1-2.5,2.5s1.1,2.5,2.5,2.5
	C412.3,169.9,413.4,168.8,413.4,167.4"/>
<path fill="#FFFFFF" d="M238.3,123.1c0-2.3-1.9-4.2-4.2-4.2c-2.3,0-4.2,1.9-4.2,4.2s1.9,4.2,4.2,4.2
	C236.4,127.3,238.3,125.4,238.3,123.1"/>
<path fill="#FFFFFF" d="M996.3,7.9c0-3-2.4-5.3-5.3-5.3c-3,0-5.3,2.4-5.3,5.3c0,3,2.4,5.3,5.3,5.3C993.9,13.3,996.3,10.9,996.3,7.9"
	/>
<path fill="#FFFFFF" d="M468.3,42.3c0-0.8-0.7-1.5-1.5-1.5c-0.8,0-1.5,0.7-1.5,1.5c0,0.8,0.7,1.5,1.5,1.5
	C467.6,43.8,468.3,43.1,468.3,42.3"/>
<path fill="#FFFFFF" d="M282.9,12.5c0-2.2-1.7-3.9-3.9-3.9c-2.2,0-3.9,1.8-3.9,3.9c0,2.2,1.7,3.9,3.9,3.9
	C281.1,16.4,282.9,14.6,282.9,12.5"/>
<path fill="#FFFFFF" d="M788.4,405.7c0-2.3-1.9-4.2-4.2-4.2c-2.3,0-4.2,1.9-4.2,4.2c0,2.3,1.9,4.2,4.2,4.2
	C786.5,409.9,788.4,408,788.4,405.7"/>
<path fill="#FFFFFF" d="M1041,231.6c0-2.3-1.9-4.2-4.2-4.2c-2.3,0-4.2,1.9-4.2,4.2c0,2.3,1.9,4.2,4.2,4.2
	C1039.1,235.8,1041,233.9,1041,231.6"/>
<path fill="#FFFFFF" d="M315.1,428.3c0-1.2-1-2.2-2.2-2.2c-1.2,0-2.2,1-2.2,2.2c0,1.2,1,2.2,2.2,2.2
	C314.1,430.5,315.1,429.5,315.1,428.3"/>
<path fill="#FFFFFF" d="M652.2,287.9c0-2.5-2-4.5-4.6-4.5c-2.5,0-4.6,2-4.6,4.5c0,2.5,2,4.6,4.6,4.6
	C650.2,292.4,652.2,290.4,652.2,287.9"/>
<path fill="#FFFFFF" d="M746.9,584.3c0-2.3-1.9-4.2-4.2-4.2c-2.3,0-4.2,1.9-4.2,4.2c0,2.3,1.9,4.2,4.2,4.2
	C745.1,588.5,746.9,586.6,746.9,584.3"/>
<path fill="#FFFFFF" d="M1177.2,212.6c0-2.3-1.9-4.2-4.2-4.2c-2.3,0-4.2,1.9-4.2,4.2c0,2.3,1.9,4.2,4.2,4.2
	C1175.3,216.8,1177.2,214.9,1177.2,212.6"/>
<path fill="#FFFFFF" d="M848.6,554.5c0-2.3-1.9-4.2-4.2-4.2c-2.3,0-4.2,1.9-4.2,4.2c0,2.3,1.9,4.2,4.2,4.2
	C846.7,558.7,848.6,556.9,848.6,554.5"/>
<path fill="#FFFFFF" d="M830.6,633.8c0-2.3-1.9-4.2-4.2-4.2c-2.3,0-4.2,1.9-4.2,4.2c0,2.3,1.9,4.2,4.2,4.2
	C828.7,638,830.6,636.1,830.6,633.8"/>
<path fill="#FFFFFF" d="M565.8,216.3c0-2.5-2-4.5-4.5-4.5c-2.5,0-4.5,2-4.5,4.5c0,2.5,2,4.5,4.5,4.5
	C563.8,220.8,565.8,218.8,565.8,216.3"/>
<path fill="#FFFFFF" d="M863.4,515c0-2-1.6-3.6-3.6-3.6c-2,0-3.6,1.6-3.6,3.6c0,2,1.6,3.6,3.6,3.6C861.8,518.6,863.4,517,863.4,515"
	/>
<path fill="#FFFFFF" d="M770.3,507.7c0-2.1-1.7-3.7-3.7-3.7c-2.1,0-3.7,1.7-3.7,3.7c0,2.1,1.7,3.7,3.7,3.7
	C768.6,511.4,770.3,509.8,770.3,507.7"/>
<path fill="#FFFFFF" d="M278.9,489.9c0-2.2-1.7-3.9-3.9-3.9c-2.2,0-3.9,1.8-3.9,3.9c0,2.2,1.7,3.9,3.9,3.9
	C277.1,493.8,278.9,492,278.9,489.9"/>
<path fill="#FFFFFF" d="M380.2,97.3c0-1-0.8-1.8-1.8-1.8c-1,0-1.8,0.8-1.8,1.8c0,1,0.8,1.8,1.8,1.8C379.4,99,380.2,98.2,380.2,97.3"
	/>
<path fill="#FFFFFF" d="M679.7,330.3c0-2.3-1.9-4.2-4.2-4.2c-2.3,0-4.2,1.9-4.2,4.2c0,2.3,1.9,4.2,4.2,4.2
	C677.8,334.5,679.7,332.6,679.7,330.3"/>
<path fill="#FFFFFF" d="M1133.4,278.9c0-2.9-2.3-5.2-5.2-5.2c-2.9,0-5.2,2.3-5.2,5.2c0,2.9,2.3,5.2,5.2,5.2
	C1131.1,284.1,1133.4,281.8,1133.4,278.9"/>
<path fill="#FFFFFF" d="M156,262.9c0-1.2-1-2.2-2.2-2.2c-1.2,0-2.2,1-2.2,2.2c0,1.2,1,2.2,2.2,2.2C155,265.1,156,264.1,156,262.9"/>
<path fill="#FFFFFF" d="M490,99c0-2.5-2-4.5-4.6-4.5c-2.5,0-4.6,2-4.6,4.5s2,4.6,4.6,4.6C488,103.6,490,101.5,490,99"/>
<path fill="#FFFFFF" d="M189.1,419.8c0-2.3-1.9-4.2-4.2-4.2c-2.3,0-4.2,1.9-4.2,4.2c0,2.3,1.9,4.2,4.2,4.2
	C187.2,424,189.1,422.1,189.1,419.8"/>
<path fill="#FFFFFF" d="M451.3,444.9c0-2-1.6-3.6-3.6-3.6c-2,0-3.6,1.6-3.6,3.6c0,2,1.6,3.6,3.6,3.6
	C449.7,448.4,451.3,446.8,451.3,444.9"/>
<path fill="#FFFFFF" d="M99.1,278.9c0-2.1-1.7-3.7-3.7-3.7c-2.1,0-3.7,1.7-3.7,3.7c0,2.1,1.7,3.7,3.7,3.7
	C97.4,282.6,99.1,281,99.1,278.9"/>
<path fill="#FFFFFF" d="M631.9,132.4c0-2.5-2-4.5-4.5-4.5c-2.5,0-4.5,2-4.5,4.5c0,2.5,2,4.5,4.5,4.5
	C629.9,136.9,631.9,134.9,631.9,132.4"/>
<path fill="#FFFFFF" d="M324.6,333.4c0-2-1.6-3.6-3.6-3.6c-2,0-3.6,1.6-3.6,3.6c0,2,1.6,3.6,3.6,3.6
	C323,336.9,324.6,335.3,324.6,333.4"/>
<path fill="#FFFFFF" d="M264.1,126.8c0-0.6-0.5-1.1-1.1-1.1c-0.6,0-1.1,0.5-1.1,1.1c0,0.6,0.5,1.1,1.1,1.1
	C263.6,127.9,264.1,127.4,264.1,126.8"/>
<path fill="#FFFFFF" d="M177.9,212.6c0-2.1-1.7-3.7-3.7-3.7c-2.1,0-3.7,1.7-3.7,3.7c0,2.1,1.7,3.7,3.7,3.7
	C176.2,216.3,177.9,214.7,177.9,212.6"/>
<path fill="#FFFFFF" d="M514.4,91.9c0-2.9-2.3-5.2-5.2-5.2c-2.9,0-5.2,2.3-5.2,5.2c0,2.9,2.3,5.2,5.2,5.2
	C512.1,97.1,514.4,94.7,514.4,91.9"/>
<path fill="#FFFFFF" d="M780.8,118.9c0-2.5-2-4.5-4.5-4.5c-2.5,0-4.5,2-4.5,4.5c0,2.5,2,4.5,4.5,4.5
	C778.8,123.3,780.8,121.3,780.8,118.9"/>
<path fill="#FFFFFF" d="M282.6,708.8c0-2-1.6-3.6-3.6-3.6c-2,0-3.6,1.6-3.6,3.6c0,2,1.6,3.6,3.6,3.6
	C280.9,712.4,282.6,710.8,282.6,708.8"/>
<path fill="#FFFFFF" d="M55.4,813.7c0-2.1-1.7-3.7-3.7-3.7c-2.1,0-3.7,1.7-3.7,3.7c0,2.1,1.7,3.7,3.7,3.7
	C53.7,817.5,55.4,815.8,55.4,813.7"/>
<path fill="#FFFFFF" d="M966.1,66.7c0-3-2.4-5.4-5.4-5.4c-3,0-5.4,2.4-5.4,5.4c0,3,2.4,5.4,5.4,5.4
	C963.7,72.1,966.1,69.7,966.1,66.7"/>
<path fill="#FFFFFF" d="M235.2,129.9c0-1.4-1.1-2.5-2.5-2.5c-1.4,0-2.5,1.1-2.5,2.5c0,1.4,1.1,2.5,2.5,2.5
	C234.1,132.3,235.2,131.2,235.2,129.9"/>
<path fill="#FFFFFF" d="M60.1,85.6c0-2.3-1.9-4.2-4.2-4.2c-2.3,0-4.2,1.9-4.2,4.2c0,2.3,1.9,4.2,4.2,4.2
	C58.2,89.8,60.1,87.9,60.1,85.6"/>
<path fill="#FFFFFF" d="M623.1,167.3c0-2.9-2.3-5.2-5.2-5.2c-2.9,0-5.2,2.3-5.2,5.2c0,2.9,2.3,5.2,5.2,5.2
	C620.8,172.5,623.1,170.1,623.1,167.3"/>
<path fill="#FFFFFF" d="M310.7,135.1c0-1-0.8-1.8-1.8-1.8c-1,0-1.8,0.8-1.8,1.8c0,1,0.8,1.8,1.8,1.8
	C309.9,136.9,310.7,136.1,310.7,135.1"/>
<path fill="#FFFFFF" d="M620.5,376.3c0-2.3-1.9-4.2-4.2-4.2c-2.3,0-4.2,1.9-4.2,4.2c0,2.3,1.9,4.2,4.2,4.2
	C618.6,380.5,620.5,378.7,620.5,376.3"/>
<path fill="#FFFFFF" d="M60.9,320.2c0-1.2-1-2.2-2.2-2.2c-1.2,0-2.2,1-2.2,2.2c0,1.2,1,2.2,2.2,2.2C60,322.4,60.9,321.4,60.9,320.2"
	/>
<path fill="#FFFFFF" d="M420.5,136.9c0-2.5-2-4.5-4.6-4.5c-2.5,0-4.6,2-4.6,4.5c0,2.5,2,4.6,4.6,4.6
	C418.5,141.4,420.5,139.4,420.5,136.9"/>
<path fill="#FFFFFF" d="M605.4,550.3c0-2.3-1.9-4.2-4.2-4.2c-2.3,0-4.2,1.9-4.2,4.2c0,2.3,1.9,4.2,4.2,4.2
	C603.5,554.5,605.4,552.6,605.4,550.3"/>
<path fill="#FFFFFF" d="M535.6,608.6c0-2.3-1.9-4.2-4.2-4.2c-2.3,0-4.2,1.9-4.2,4.2c0,2.3,1.9,4.2,4.2,4.2
	C533.7,612.9,535.6,611,535.6,608.6"/>
<path fill="#FFFFFF" d="M239.3,342.9c0-2.3-1.9-4.2-4.2-4.2c-2.3,0-4.2,1.9-4.2,4.2c0,2.3,1.9,4.2,4.2,4.2
	C237.5,347.1,239.3,345.2,239.3,342.9"/>
<path fill="#FFFFFF" d="M383.1,415.6c0-2.5-2-4.5-4.5-4.5c-2.5,0-4.5,2-4.5,4.5c0,2.5,2,4.5,4.5,4.5
	C381.1,420,383.1,418,383.1,415.6"/>
<path fill="#FFFFFF" d="M373.9,275.2c0-2.5-2-4.5-4.5-4.5c-2.5,0-4.5,2-4.5,4.5c0,2.5,2,4.5,4.5,4.5
	C371.9,279.7,373.9,277.7,373.9,275.2"/>
<path fill="#FFFFFF" d="M672.5,507.7c0-2-1.6-3.6-3.6-3.6s-3.6,1.6-3.6,3.6c0,2,1.6,3.6,3.6,3.6S672.5,509.7,672.5,507.7"/>
<path fill="#FFFFFF" d="M592.1,470.2c0-2.1-1.7-3.7-3.7-3.7c-2.1,0-3.7,1.7-3.7,3.7c0,2.1,1.7,3.7,3.7,3.7
	C590.4,473.9,592.1,472.3,592.1,470.2"/>
<path fill="#FFFFFF" d="M523.4,1666.6c0-2.3-1.9-4.2-4.2-4.2c-2.3,0-4.2,1.9-4.2,4.2c0,2.3,1.9,4.2,4.2,4.2
	C521.5,1670.8,523.4,1669,523.4,1666.6"/>
<path fill="#FFFFFF" d="M405.7,1559.2c0-2.5-2-4.5-4.5-4.5c-2.5,0-4.5,2-4.5,4.5c0,2.5,2,4.5,4.5,4.5
	C403.7,1563.7,405.7,1561.7,405.7,1559.2"/>
<path fill="#FFFFFF" d="M1015.3,1535.8c0-2.9-2.3-5.2-5.2-5.2c-2.9,0-5.2,2.3-5.2,5.2c0,2.9,2.3,5.2,5.2,5.2
	C1013,1541,1015.3,1538.6,1015.3,1535.8"/>
<path fill="#FFFFFF" d="M448.6,1577.4c0-2.1-1.7-3.7-3.7-3.7c-2.1,0-3.7,1.7-3.7,3.7c0,2.1,1.7,3.7,3.7,3.7
	C446.9,1581.2,448.6,1579.5,448.6,1577.4"/>
<path fill="#FFFFFF" d="M202.6,1617.5c0-2.2-1.7-3.9-3.9-3.9c-2.2,0-3.9,1.8-3.9,3.9c0,2.2,1.7,3.9,3.9,3.9
	C200.9,1621.4,202.6,1619.7,202.6,1617.5"/>
<path fill="#FFFFFF" d="M1169.8,1695.2c0-2.5-2-4.5-4.5-4.5c-2.5,0-4.5,2-4.5,4.5c0,2.5,2,4.5,4.5,4.5
	C1167.8,1699.6,1169.8,1697.6,1169.8,1695.2"/>
<path fill="#FFFFFF" d="M288,1617.5c0-2.5-2-4.5-4.6-4.5c-2.5,0-4.6,2-4.6,4.5s2,4.6,4.6,4.6C285.9,1622.1,288,1620,288,1617.5"/>
<path fill="#FFFFFF" d="M160.7,1633.3c0-1.4-1.1-2.5-2.5-2.5c-1.4,0-2.5,1.1-2.5,2.5s1.1,2.5,2.5,2.5
	C159.6,1635.8,160.7,1634.7,160.7,1633.3"/>
<path fill="#FFFFFF" d="M46.4,1631.4c0-2.3-1.9-4.2-4.2-4.2c-2.3,0-4.2,1.9-4.2,4.2s1.9,4.2,4.2,4.2
	C44.5,1635.6,46.4,1633.7,46.4,1631.4"/>
<path fill="#FFFFFF" d="M629.4,1561.2c0-2-1.6-3.6-3.6-3.6s-3.6,1.6-3.6,3.6c0,2,1.6,3.6,3.6,3.6S629.4,1563.2,629.4,1561.2"/>
<path fill="#FFFFFF" d="M86.4,1581.2c0-2.2-1.7-3.9-3.9-3.9c-2.2,0-3.9,1.8-3.9,3.9c0,2.2,1.7,3.9,3.9,3.9
	C84.6,1585.1,86.4,1583.3,86.4,1581.2"/>
<path fill="#FFFFFF" d="M746.9,1663.1c0-2.3-1.9-4.2-4.2-4.2c-2.3,0-4.2,1.9-4.2,4.2c0,2.3,1.9,4.2,4.2,4.2
	C745.1,1667.3,746.9,1665.4,746.9,1663.1"/>
<path fill="#FFFFFF" d="M848.6,1633.3c0-2.3-1.9-4.2-4.2-4.2c-2.3,0-4.2,1.9-4.2,4.2c0,2.3,1.9,4.2,4.2,4.2
	C846.7,1637.5,848.6,1635.6,848.6,1633.3"/>
<path fill="#FFFFFF" d="M863.4,1593.8c0-2-1.6-3.6-3.6-3.6c-2,0-3.6,1.6-3.6,3.6c0,2,1.6,3.6,3.6,3.6
	C861.8,1597.4,863.4,1595.8,863.4,1593.8"/>
<path fill="#FFFFFF" d="M770.3,1586.5c0-2.1-1.7-3.7-3.7-3.7c-2.1,0-3.7,1.7-3.7,3.7c0,2.1,1.7,3.7,3.7,3.7
	C768.6,1590.2,770.3,1588.6,770.3,1586.5"/>
<path fill="#FFFFFF" d="M278.9,1568.7c0-2.2-1.7-3.9-3.9-3.9c-2.2,0-3.9,1.8-3.9,3.9c0,2.2,1.7,3.9,3.9,3.9
	C277.1,1572.6,278.9,1570.8,278.9,1568.7"/>
<path fill="#FFFFFF" d="M605.4,1629.1c0-2.3-1.9-4.2-4.2-4.2c-2.3,0-4.2,1.9-4.2,4.2c0,2.3,1.9,4.2,4.2,4.2
	C603.5,1633.3,605.4,1631.4,605.4,1629.1"/>
<path fill="#FFFFFF" d="M535.6,1687.4c0-2.3-1.9-4.2-4.2-4.2c-2.3,0-4.2,1.9-4.2,4.2c0,2.3,1.9,4.2,4.2,4.2
	C533.7,1691.7,535.6,1689.8,535.6,1687.4"/>
<path fill="#FFFFFF" d="M592.1,1549c0-2.1-1.7-3.7-3.7-3.7c-2.1,0-3.7,1.7-3.7,3.7c0,2.1,1.7,3.7,3.7,3.7
	C590.4,1552.7,592.1,1551.1,592.1,1549"/>
<path fill="#FFFFFF" d="M132.3,450.1c0-2.2-1.7-3.9-3.9-3.9c-2.2,0-3.9,1.8-3.9,3.9c0,2.2,1.7,3.9,3.9,3.9
	C130.6,454,132.3,452.3,132.3,450.1"/>
<path fill="#FFFFFF" d="M202,59.7c0-1-0.8-1.8-1.8-1.8c-1,0-1.8,0.8-1.8,1.8c0,1,0.8,1.8,1.8,1.8C201.2,61.5,202,60.7,202,59.7"/>
<path fill="#FFFFFF" d="M155.5,169.5c0-2.8-2.3-5.1-5.1-5.1c-2.8,0-5.1,2.3-5.1,5.1c0,2.8,2.3,5.1,5.1,5.1
	C153.2,174.6,155.5,172.3,155.5,169.5"/>
<path fill="#FFFFFF" d="M410,220.8c0-2.3-1.9-4.2-4.2-4.2c-2.3,0-4.2,1.9-4.2,4.2c0,2.3,1.9,4.2,4.2,4.2
	C408.1,225,410,223.1,410,220.8"/>
<path fill="#FFFFFF" d="M311.8,61.5c0-2.5-2-4.5-4.6-4.5c-2.5,0-4.6,2-4.6,4.5c0,2.5,2,4.6,4.6,4.6C309.8,66,311.8,64,311.8,61.5"/>
<rect x="187" y="929.5" opacity="0.1" fill="#FF0000" width="824.6" height="178"/>
</svg>
