<?xml version="1.0" encoding="utf-8"?>
<!-- Generator: Adobe Illustrator 18.0.0, SVG Export Plug-In . SVG Version: 6.00 Build 0)  -->
<!DOCTYPE svg PUBLIC "-//W3C//DTD SVG 1.1//EN" "http://www.w3.org/Graphics/SVG/1.1/DTD/svg11.dtd">
<svg version="1.1" id="schnee_x5F_groß" xmlns="http://www.w3.org/2000/svg" xmlns:xlink="http://www.w3.org/1999/xlink" x="0px"
	 y="0px" viewBox="0 0 1200 1711.1" enable-background="new 0 0 1200 1711.1" xml:space="preserve">
<path fill="#FFFFFF" d="M1027.4,626.9c0-3-2.4-5.4-5.4-5.4c-3,0-5.4,2.4-5.4,5.4c0,3,2.4,5.4,5.4,5.4
	C1025,632.3,1027.4,629.9,1027.4,626.9"/>
<path fill="#FFFFFF" d="M1002.8,485.8c0-3-2.4-5.4-5.4-5.4c-3,0-5.4,2.4-5.4,5.4c0,3,2.4,5.4,5.4,5.4
	C1000.4,491.2,1002.8,488.8,1002.8,485.8"/>
<path fill="#FFFFFF" d="M708.4,703.4c0-3-2.4-5.3-5.3-5.3c-3,0-5.3,2.4-5.3,5.3c0,3,2.4,5.3,5.3,5.3
	C706,708.7,708.4,706.3,708.4,703.4"/>
<path fill="#FFFFFF" d="M1060.3,311c0-3-2.4-5.3-5.3-5.3c-3,0-5.3,2.4-5.3,5.3c0,3,2.4,5.3,5.3,5.3
	C1057.9,316.3,1060.3,313.9,1060.3,311"/>
<path fill="#FFFFFF" d="M889.8,736.1c0-3-2.4-5.4-5.3-5.4c-3,0-5.3,2.4-5.3,5.4c0,3,2.4,5.3,5.3,5.3
	C887.4,741.4,889.8,739,889.8,736.1"/>
<path fill="#FFFFFF" d="M1087.9,1105.9c0-3-2.4-5.3-5.3-5.3c-3,0-5.3,2.4-5.3,5.3c0,3,2.4,5.3,5.3,5.3
	C1085.6,1111.2,1087.9,1108.8,1087.9,1105.9"/>
<path fill="#FFFFFF" d="M881.1,1436.6c0-2.9-2.3-5.2-5.2-5.2c-2.9,0-5.2,2.3-5.2,5.2c0,2.9,2.3,5.2,5.2,5.2
	C878.8,1441.8,881.1,1439.4,881.1,1436.6"/>
<path fill="#FFFFFF" d="M29,1418c0-3.1-2.5-5.6-5.6-5.6c-3.1,0-5.6,2.5-5.6,5.6c0,3.1,2.5,5.6,5.6,5.6
	C26.5,1423.6,29,1421.1,29,1418"/>
<path fill="#FFFFFF" d="M1152.1,1423.5c0-2.9-2.3-5.2-5.2-5.2c-2.9,0-5.2,2.3-5.2,5.2c0,2.9,2.3,5.2,5.2,5.2
	C1149.8,1428.7,1152.1,1426.4,1152.1,1423.5"/>
<path fill="#FFFFFF" d="M551.7,1280.5c0-2.9-2.3-5.2-5.2-5.2c-2.9,0-5.2,2.3-5.2,5.2c0,2.9,2.3,5.2,5.2,5.2
	C549.4,1285.7,551.7,1283.4,551.7,1280.5"/>
<path fill="#FFFFFF" d="M1152.3,1263.4c0-3-2.4-5.4-5.4-5.4c-3,0-5.4,2.4-5.4,5.4c0,3,2.4,5.4,5.4,5.4
	C1149.9,1268.8,1152.3,1266.4,1152.3,1263.4"/>
<path fill="#FFFFFF" d="M3.5,1097.1c0-3.1-2.5-5.6-5.6-5.6c-3.1,0-5.6,2.5-5.6,5.6c0,3.1,2.5,5.6,5.6,5.6
	C1,1102.7,3.5,1100.2,3.5,1097.1"/>
<path fill="#FFFFFF" d="M1069.6,1337.5c0-2.9-2.3-5.2-5.2-5.2c-2.9,0-5.2,2.3-5.2,5.2c0,2.9,2.3,5.2,5.2,5.2
	C1067.3,1342.7,1069.6,1340.4,1069.6,1337.5"/>
<path fill="#FFFFFF" d="M706.2,814.3c0-2.9-2.3-5.2-5.2-5.2c-2.9,0-5.2,2.3-5.2,5.2c0,2.9,2.3,5.2,5.2,5.2
	C703.9,819.5,706.2,817.2,706.2,814.3"/>
<path fill="#FFFFFF" d="M10.8,969.3c0-3.1-2.5-5.6-5.6-5.6c-3.1,0-5.6,2.5-5.6,5.6c0,3.1,2.5,5.6,5.6,5.6
	C8.3,974.9,10.8,972.4,10.8,969.3"/>
<path fill="#FFFFFF" d="M1133.9,974.8c0-2.9-2.3-5.2-5.2-5.2c-2.9,0-5.2,2.3-5.2,5.2c0,2.9,2.3,5.2,5.2,5.2
	C1131.6,980,1133.9,977.7,1133.9,974.8"/>
<path fill="#FFFFFF" d="M545.9,814.3c0-2.9-2.3-5.2-5.2-5.2c-2.9,0-5.2,2.3-5.2,5.2c0,2.9,2.3,5.2,5.2,5.2
	C543.5,819.5,545.9,817.2,545.9,814.3"/>
<path fill="#FFFFFF" d="M913.2,504.1c0-2.9-2.3-5.2-5.2-5.2c-2.9,0-5.2,2.3-5.2,5.2c0,2.9,2.3,5.2,5.2,5.2
	C910.8,509.3,913.2,507,913.2,504.1"/>
<path fill="#FFFFFF" d="M917.1,592c0-2.9-2.3-5.2-5.2-5.2c-2.9,0-5.2,2.3-5.2,5.2c0,2.9,2.3,5.2,5.2,5.2
	C914.8,597.3,917.1,594.9,917.1,592"/>
<path fill="#FFFFFF" d="M1182.4,528.3c0-2.9-2.3-5.2-5.2-5.2c-2.9,0-5.2,2.3-5.2,5.2c0,2.9,2.3,5.2,5.2,5.2
	C1180,533.5,1182.4,531.2,1182.4,528.3"/>
<path fill="#FFFFFF" d="M1061,491c0-2.9-2.3-5.2-5.2-5.2c-2.9,0-5.2,2.3-5.2,5.2c0,2.9,2.3,5.2,5.2,5.2
	C1058.7,496.2,1061,493.9,1061,491"/>
<path fill="#FFFFFF" d="M1105.3,794.7c0-3-2.4-5.4-5.4-5.4c-3,0-5.4,2.4-5.4,5.4c0,3,2.4,5.4,5.4,5.4
	C1102.9,800.2,1105.3,797.7,1105.3,794.7"/>
<path fill="#FFFFFF" d="M910.1,844.5c0-2.9-2.3-5.2-5.2-5.2c-2.9,0-5.2,2.3-5.2,5.2c0,2.9,2.3,5.2,5.2,5.2
	C907.8,849.7,910.1,847.3,910.1,844.5"/>
<path fill="#FFFFFF" d="M871.4,454.7c0-3-2.4-5.4-5.4-5.4c-3,0-5.4,2.4-5.4,5.4c0,3,2.4,5.4,5.4,5.4
	C869,460.2,871.4,457.7,871.4,454.7"/>
<path fill="#FFFFFF" d="M339.5,635.9c0-2.5-2-4.5-4.6-4.5c-2.5,0-4.6,2-4.6,4.5c0,2.5,2,4.6,4.6,4.6
	C337.5,640.5,339.5,638.4,339.5,635.9"/>
<path fill="#FFFFFF" d="M1014.6,409.9c0-2.5-2-4.5-4.5-4.5c-2.5,0-4.5,2-4.5,4.5c0,2.5,2,4.5,4.5,4.5
	C1012.6,414.4,1014.6,412.4,1014.6,409.9"/>
<path fill="#FFFFFF" d="M1165.3,363.4c0-2.5-2-4.5-4.5-4.5c-2.5,0-4.5,2-4.5,4.5c0,2.5,2,4.5,4.5,4.5
	C1163.3,367.8,1165.3,365.8,1165.3,363.4"/>
<path fill="#FFFFFF" d="M196.1,329.2c0-3.1-2.5-5.6-5.6-5.6c-3.1,0-5.6,2.5-5.6,5.6c0,3.1,2.5,5.6,5.6,5.6
	C193.6,334.8,196.1,332.3,196.1,329.2"/>
<path fill="#FFFFFF" d="M243.9,208.9c0-3.1-2.5-5.6-5.6-5.6c-3.1,0-5.6,2.5-5.6,5.6c0,3.1,2.5,5.6,5.6,5.6
	C241.4,214.5,243.9,212,243.9,208.9"/>
<path fill="#FFFFFF" d="M1027.3,581.7c0-3-2.4-5.3-5.3-5.3c-3,0-5.3,2.4-5.3,5.3c0,3,2.4,5.3,5.3,5.3
	C1024.9,587,1027.3,584.6,1027.3,581.7"/>
<path fill="#FFFFFF" d="M416.3,548.9c0-3-2.4-5.3-5.3-5.3c-3,0-5.3,2.4-5.3,5.3c0,3,2.4,5.3,5.3,5.3
	C413.9,554.3,416.3,551.9,416.3,548.9"/>
<path fill="#FFFFFF" d="M51.7,220.8c0-3-2.4-5.3-5.3-5.3c-3,0-5.3,2.4-5.3,5.3c0,3,2.4,5.3,5.3,5.3
	C49.3,226.2,51.7,223.8,51.7,220.8"/>
<path fill="#FFFFFF" d="M99,395.4c0-2.8-2.3-5.1-5.1-5.1c-2.8,0-5.1,2.3-5.1,5.1c0,2.8,2.3,5.1,5.1,5.1
	C96.7,400.5,99,398.2,99,395.4"/>
<path fill="#FFFFFF" d="M1146.9,423.3c0-2.9-2.3-5.2-5.2-5.2c-2.9,0-5.2,2.3-5.2,5.2c0,2.9,2.3,5.2,5.2,5.2
	C1144.6,428.5,1146.9,426.1,1146.9,423.3"/>
<path fill="#FFFFFF" d="M1202.3,302.2c0-2.9-2.3-5.2-5.2-5.2c-2.9,0-5.2,2.3-5.2,5.2c0,2.9,2.3,5.2,5.2,5.2
	C1200,307.4,1202.3,305.1,1202.3,302.2"/>
<path fill="#FFFFFF" d="M646.7,602.3c0-3-2.5-5.3-5.4-5.3c-3,0-5.3,2.5-5.3,5.4c0,3,2.5,5.3,5.4,5.3
	C644.4,607.7,646.7,605.2,646.7,602.3"/>
<path fill="#FFFFFF" d="M783.7,302.1c0-3-2.5-5.3-5.4-5.3c-3,0-5.3,2.5-5.3,5.4c0,3,2.5,5.3,5.4,5.3
	C781.4,307.5,783.7,305.1,783.7,302.1"/>
<path fill="#FFFFFF" d="M508.1,512.4c0-3-2.5-5.3-5.4-5.3c-3,0-5.3,2.5-5.3,5.4c0,3,2.5,5.3,5.4,5.3
	C505.8,517.7,508.2,515.3,508.1,512.4"/>
<path fill="#FFFFFF" d="M201.4,266.8c0-3-2.5-5.3-5.4-5.3c-3,0-5.3,2.5-5.3,5.4c0,3,2.5,5.3,5.4,5.3
	C199.1,272.2,201.5,269.8,201.4,266.8"/>
<path fill="#FFFFFF" d="M1120.9,553.2c0-3-2.5-5.3-5.4-5.3c-3,0-5.3,2.5-5.3,5.4c0,3,2.5,5.3,5.4,5.3
	C1118.5,558.6,1120.9,556.1,1120.9,553.2"/>
<path fill="#FFFFFF" d="M788.8,265.1c0-2.9-2.3-5.2-5.2-5.2c-2.9,0-5.2,2.3-5.2,5.2c0,2.9,2.3,5.2,5.2,5.2
	C786.4,270.3,788.8,268,788.8,265.1"/>
<path fill="#FFFFFF" d="M783.6,203.2c0-2.9-2.3-5.2-5.2-5.2c-2.9,0-5.2,2.3-5.2,5.2c0,2.9,2.3,5.2,5.2,5.2
	C781.2,208.4,783.6,206.1,783.6,203.2"/>
<path fill="#FFFFFF" d="M468.2,220.8c0-2.9-2.3-5.2-5.2-5.2c-2.9,0-5.2,2.3-5.2,5.2c0,2.9,2.3,5.2,5.2,5.2
	C465.8,226,468.2,223.7,468.2,220.8"/>
<path fill="#FFFFFF" d="M1100.4,1559.4c0-3-2.4-5.4-5.4-5.4c-3,0-5.4,2.4-5.4,5.4c0,3,2.4,5.4,5.4,5.4
	C1097.9,1564.8,1100.4,1562.3,1100.4,1559.4"/>
<path fill="#FFFFFF" d="M130.1,725.8c0-3.1-2.5-5.6-5.6-5.6c-3.1,0-5.6,2.5-5.6,5.6c0,3.1,2.5,5.6,5.6,5.6
	C127.6,731.5,130.1,728.9,130.1,725.8"/>
<path fill="#FFFFFF" d="M226.6,648.5c0-2.8-2.3-5.1-5.1-5.1c-2.8,0-5.1,2.3-5.1,5.1c0,2.8,2.3,5.1,5.1,5.1
	C224.3,653.6,226.6,651.3,226.6,648.5"/>
<path fill="#FFFFFF" d="M1027.4,1705.7c0-3-2.4-5.4-5.4-5.4c-3,0-5.4,2.4-5.4,5.4c0,3,2.4,5.4,5.4,5.4
	C1025,1711.1,1027.4,1708.7,1027.4,1705.7"/>
<path fill="#FFFFFF" d="M1002.8,1564.6c0-3-2.4-5.4-5.4-5.4c-3,0-5.4,2.4-5.4,5.4c0,3,2.4,5.4,5.4,5.4
	C1000.4,1570,1002.8,1567.6,1002.8,1564.6"/>
<path fill="#FFFFFF" d="M1182.4,1607.1c0-2.9-2.3-5.2-5.2-5.2c-2.9,0-5.2,2.3-5.2,5.2c0,2.9,2.3,5.2,5.2,5.2
	C1180,1612.3,1182.4,1610,1182.4,1607.1"/>
<path fill="#FFFFFF" d="M1061,1569.8c0-2.9-2.3-5.2-5.2-5.2c-2.9,0-5.2,2.3-5.2,5.2c0,2.9,2.3,5.2,5.2,5.2
	C1058.7,1575,1061,1572.7,1061,1569.8"/>
<path fill="#FFFFFF" d="M646.7,1681.1c0-3-2.5-5.3-5.4-5.3c-3,0-5.3,2.5-5.3,5.4c0,3,2.5,5.3,5.4,5.3
	C644.4,1686.5,646.7,1684,646.7,1681.1"/>
<path fill="#FFFFFF" d="M1120.9,1632c0-3-2.5-5.3-5.4-5.3c-3,0-5.3,2.5-5.3,5.4c0,3,2.5,5.3,5.4,5.3
	C1118.5,1637.4,1120.9,1634.9,1120.9,1632"/>
<path fill="#FFFFFF" d="M760.2,338.9c0-2.9-2.3-5.2-5.2-5.2c-2.9,0-5.2,2.3-5.2,5.2c0,2.9,2.3,5.2,5.2,5.2
	C757.9,344.1,760.2,341.8,760.2,338.9"/>
<path fill="#FFFFFF" d="M940.5,354.9c0-2.9-2.3-5.2-5.2-5.2c-2.9,0-5.2,2.3-5.2,5.2c0,2.9,2.3,5.2,5.2,5.2
	C938.1,360.1,940.5,357.7,940.5,354.9"/>
<path fill="#FFFFFF" d="M666,189.6c0-2.9-2.3-5.2-5.2-5.2c-2.9,0-5.2,2.3-5.2,5.2c0,2.9,2.3,5.2,5.2,5.2
	C663.6,194.8,666,192.5,666,189.6"/>
<rect x="187" y="929.5" opacity="0.1" fill="#FF0000" width="824.6" height="178"/>
</svg>
